# Blender 4.2.17 LTS
# www.blender.org
mtllib anvil_01_977de03af93efb9e.mtl
o CastMesh
v 0.172868 0.385988 -0.109902
v 0.175026 0.412743 -0.110163
v 0.172508 0.386111 -0.133290
v 0.173054 0.451859 -0.132547
v 0.175026 0.440511 -0.110518
v 0.175026 0.446801 -0.108006
v 0.173138 0.458122 -0.129890
v -0.013772 0.458121 -0.129883
v -0.013811 0.451858 -0.132526
v 0.172868 0.385988 -0.109902
v -0.013699 0.387174 -0.109869
v -0.013964 0.386804 -0.133105
v -0.239627 0.387750 -0.109460
v -0.239742 0.387643 -0.132879
v -0.240063 0.451858 -0.132499
v -0.240080 0.458119 -0.129873
v -0.240057 0.460708 -0.121644
v -0.013707 0.460708 -0.121644
v 0.173236 0.460708 -0.121644
v 0.175026 0.449472 -0.101781
v 0.174739 0.460708 0.000000
v 0.175026 0.450754 0.000000
v 0.175026 0.449472 0.101781
v 0.175026 0.446801 0.108006
v 0.173236 0.460708 0.121644
v -0.012568 0.460708 0.000000
v -0.226291 0.460708 -0.031313
v -0.239537 0.460708 -0.031313
v -0.226291 0.460708 0.000000
v -0.226291 0.460708 0.031313
v -0.013707 0.460708 0.121644
v 0.173138 0.458122 0.129890
v 0.173054 0.451859 0.132547
v 0.175026 0.440511 0.110518
v 0.175026 0.412743 0.110163
v 0.172868 0.385988 0.109902
v 0.172508 0.386111 0.133290
v -0.013811 0.451858 0.132526
v -0.013772 0.458121 0.129883
v -0.240057 0.460708 0.121644
v -0.239537 0.460708 0.031313
v -0.288357 0.460708 0.031313
v -0.399479 0.460708 0.121644
v -0.240080 0.458119 0.129873
v -0.240063 0.451858 0.132499
v -0.239742 0.387643 0.132879
v -0.013964 0.386804 0.133105
v -0.013699 0.387174 0.109869
v 0.172868 0.385988 0.109902
v -0.239627 0.387750 0.109460
v -0.390330 0.388135 0.109187
v -0.398763 0.388234 0.132721
v -0.399416 0.451859 0.132480
v -0.399472 0.458118 0.129867
v -0.411475 0.451859 0.132479
v -0.411533 0.458118 0.129866
v -0.411542 0.460708 0.121644
v -0.411171 0.460708 0.000000
v -0.399089 0.460708 0.000000
v -0.288357 0.460708 0.000000
v -0.288357 0.460708 -0.031313
v -0.399479 0.460708 -0.121644
v -0.415850 0.455825 0.000000
v -0.411542 0.460708 -0.121644
v -0.411533 0.458118 -0.129866
v -0.416208 0.455825 -0.121644
v -0.415450 0.388268 -0.118695
v -0.416198 0.453235 -0.129866
v -0.416138 0.446976 -0.132478
v -0.411475 0.451859 -0.132479
v -0.399472 0.458118 -0.129867
v -0.410800 0.388272 0.132711
v -0.416198 0.453235 0.129866
v -0.416138 0.446976 0.132478
v -0.415449 0.388297 0.132704
v -0.416208 0.455825 0.121644
v -0.415449 0.388297 0.132704
v -0.415450 0.388272 0.120902
v -0.415452 0.388024 0.000000
v -0.407176 0.388188 0.109161
v -0.406579 0.388094 0.000000
v -0.398753 0.388156 0.100749
v -0.398753 0.388156 0.000000
v -0.398753 0.388156 -0.100749
v -0.407176 0.388188 -0.109161
v -0.415449 0.388297 -0.132704
v -0.410800 0.388272 -0.132711
v -0.415449 0.388297 -0.132704
v -0.399416 0.451859 -0.132480
v -0.398763 0.388234 -0.132721
v -0.390330 0.388135 -0.109187
v -0.398757 0.388187 -0.117595
v -0.396287 0.388150 -0.106711
v -0.401998 0.388187 -0.114348
v -0.410800 0.388272 -0.132711
v -0.415449 0.388297 -0.132704
v -0.407176 0.388188 -0.109161
v -0.398753 0.388156 -0.100749
v -0.415450 0.388268 -0.118695
v -0.407176 0.388188 0.109161
v -0.415450 0.388272 0.120902
v -0.415449 0.388297 0.132704
v -0.402373 0.388187 0.113972
v -0.410800 0.388272 0.132711
v -0.398757 0.388187 0.117595
v -0.396287 0.388150 0.106711
v -0.398753 0.388156 0.100749
v 0.244876 0.403733 -0.100386
v 0.246342 0.390492 -0.110083
v 0.261414 0.403626 -0.097877
v 0.262576 0.390386 -0.108404
v 0.311226 0.390119 -0.099892
v 0.310066 0.403369 -0.089499
v 0.358980 0.389858 -0.090181
v 0.357823 0.403119 -0.080081
v 0.435722 0.389438 -0.068799
v 0.434563 0.402740 -0.058821
v 0.499220 0.387592 -0.038341
v 0.498250 0.400486 -0.030309
v 0.524991 0.387280 -0.012373
v 0.525109 0.397568 -0.014898
v 0.488112 0.354601 -0.038976
v 0.433632 0.326936 -0.065876
v 0.357338 0.294845 -0.086984
v 0.309888 0.278830 -0.096839
v 0.261206 0.264069 -0.105339
v 0.245526 0.267236 -0.109521
v 0.172868 0.385988 -0.109902
v 0.117394 0.240191 -0.109545
v -0.013699 0.387174 -0.109869
v 0.205151 0.227985 -0.109834
v 0.258133 0.244216 -0.099404
v 0.305285 0.259550 -0.086413
v 0.355871 0.280677 -0.076124
v 0.428625 0.310739 -0.057164
v 0.488881 0.346957 -0.033429
v 0.211374 0.223784 -0.102950
v 0.172124 0.193501 -0.104272
v 0.091213 0.220773 -0.110443
v 0.160579 0.192586 -0.111440
v 0.001316 0.241567 -0.109567
v -0.187782 0.245376 -0.109302
v -0.239627 0.387750 -0.109460
v -0.165670 0.222688 -0.110500
v -0.009164 0.221522 -0.110466
v 0.066295 0.193450 -0.111607
v 0.149504 0.166416 -0.111704
v 0.156742 0.166680 -0.104460
v 0.154637 0.143321 -0.111868
v 0.149162 0.143344 -0.116607
v 0.161665 0.119450 -0.126520
v 0.083622 0.143964 -0.114673
v 0.057958 0.167275 -0.111730
v -0.018431 0.194198 -0.111630
v -0.149222 0.195353 -0.111665
v -0.021770 0.168023 -0.111753
v -0.020855 0.144951 -0.112274
v 0.058313 0.144203 -0.114192
v 0.066170 0.120335 -0.119331
v 0.029126 0.120650 -0.113703
v 0.067379 0.095838 -0.124604
v 0.034895 0.096153 -0.115347
v 0.081732 0.120186 -0.122660
v 0.097723 0.120034 -0.127058
v 0.156213 0.119476 -0.131042
v 0.174385 0.094976 -0.145906
v 0.179807 0.094950 -0.141573
v 0.108418 0.095556 -0.140736
v 0.092817 0.095699 -0.131356
v 0.073087 0.052475 -0.131553
v 0.035171 0.052759 -0.115615
v -0.001948 0.053003 -0.110999
v -0.001828 0.096424 -0.111932
v -0.002704 0.120921 -0.111108
v -0.033652 0.096750 -0.114725
v -0.035035 0.121247 -0.113578
v -0.058886 0.097017 -0.121721
v -0.061125 0.121514 -0.117926
v -0.088054 0.145587 -0.114235
v -0.079588 0.121684 -0.122691
v -0.081570 0.097213 -0.131372
v -0.097024 0.121824 -0.126205
v -0.142513 0.146101 -0.114251
v -0.144348 0.169174 -0.111788
v -0.148543 0.146185 -0.111800
v -0.150377 0.169258 -0.109336
v -0.155254 0.195434 -0.109213
v -0.171701 0.222761 -0.108048
v -0.157861 0.195523 -0.103247
v -0.152981 0.169348 -0.103370
v -0.151147 0.146274 -0.105834
v -0.159749 0.122395 -0.120619
v -0.151140 0.122247 -0.128658
v -0.157136 0.122318 -0.126449
v -0.176919 0.097889 -0.135793
v -0.174296 0.097822 -0.141519
v -0.229263 0.054454 -0.171492
v -0.168333 0.097764 -0.143545
v -0.104812 0.097375 -0.138489
v -0.097830 0.053596 -0.150795
v -0.117644 0.053596 -0.179876
v -0.220840 0.054335 -0.179912
v -0.226795 0.054395 -0.177447
v -0.220840 -0.001207 -0.178764
v -0.117734 -0.001207 -0.178727
v -0.097903 -0.001207 -0.149647
v -0.226795 -0.001207 -0.176299
v -0.229263 -0.001207 -0.170344
v -0.174308 0.222847 -0.102083
v -0.189041 0.243295 -0.106578
v -0.189632 0.243925 -0.101184
v -0.240513 0.281336 -0.101267
v -0.240389 0.283751 -0.107210
v -0.290770 0.309196 -0.101349
v -0.240327 0.289677 -0.109670
v -0.289336 0.311213 -0.107294
v -0.390360 0.355339 -0.107465
v -0.391607 0.353235 -0.101520
v -0.396866 0.357488 -0.101476
v -0.394824 0.358848 -0.107419
v -0.398831 0.363958 -0.101341
v -0.387342 0.360463 -0.109914
v -0.286040 0.316175 -0.109742
v -0.390330 0.388135 -0.109187
v -0.390498 0.365146 -0.109739
v -0.396287 0.388150 -0.106711
v -0.389881 0.362158 -0.109869
v -0.396392 0.364304 -0.107288
v -0.398753 0.388156 -0.100749
v 0.228193 -0.001207 0.176328
v 0.222715 -0.001207 0.181067
v 0.228521 0.051521 0.177477
v 0.223042 0.051548 0.182216
v 0.179807 0.094950 0.141573
v 0.116138 0.052417 0.182259
v 0.115915 -0.001207 0.181110
v 0.174385 0.094976 0.145906
v 0.161665 0.119450 0.126520
v 0.156213 0.119476 0.131042
v 0.108418 0.095556 0.140736
v 0.103320 0.052417 0.158028
v 0.103145 -0.001207 0.156880
v 0.073087 0.052475 0.131553
v 0.072961 -0.001207 0.130405
v 0.092817 0.095699 0.131356
v 0.097723 0.120034 0.127058
v 0.149162 0.143344 0.116607
v 0.154637 0.143321 0.111868
v 0.156742 0.166680 0.104460
v 0.149504 0.166416 0.111704
v 0.083622 0.143964 0.114673
v 0.081732 0.120186 0.122660
v 0.067379 0.095838 0.124604
v 0.035171 0.052759 0.115615
v 0.035063 -0.001207 0.114467
v -0.001948 0.053003 0.110999
v -0.002039 -0.001207 0.109850
v -0.036727 -0.001207 0.114767
v -0.064266 -0.001207 0.125016
v -0.036657 0.053329 0.115916
v -0.064214 0.053596 0.126165
v -0.097903 -0.001207 0.149647
v -0.117734 -0.001207 0.178727
v -0.097830 0.053596 0.150795
v -0.117644 0.053596 0.179876
v -0.220840 -0.001207 0.178764
v -0.104812 0.097375 0.138489
v -0.081570 0.097213 0.131372
v -0.058886 0.097017 0.121721
v -0.033652 0.096750 0.114725
v -0.001828 0.096424 0.111932
v 0.034895 0.096153 0.115347
v 0.066170 0.120335 0.119331
v 0.058313 0.144203 0.114192
v 0.029126 0.120650 0.113703
v -0.002704 0.120921 0.111108
v -0.035035 0.121247 0.113578
v -0.020855 0.144951 0.112274
v 0.057958 0.167275 0.111730
v -0.021770 0.168023 0.111753
v 0.066295 0.193450 0.111607
v -0.018431 0.194198 0.111630
v -0.149222 0.195353 0.111665
v -0.009164 0.221522 0.110466
v 0.091213 0.220773 0.110443
v 0.160579 0.192586 0.111440
v 0.172124 0.193501 0.104272
v 0.205151 0.227985 0.109834
v 0.211374 0.223784 0.102950
v 0.258133 0.244216 0.099404
v 0.261206 0.264069 0.105339
v 0.305285 0.259550 0.086413
v 0.309888 0.278830 0.096839
v 0.355871 0.280677 0.076124
v 0.262576 0.390386 0.108404
v 0.245526 0.267236 0.109521
v 0.117394 0.240191 0.109545
v 0.001316 0.241567 0.109567
v -0.165670 0.222688 0.110500
v -0.187782 0.245376 0.109302
v -0.013699 0.387174 0.109869
v 0.172868 0.385988 0.109902
v 0.246342 0.390492 0.110083
v 0.261414 0.403626 0.097877
v 0.311226 0.390119 0.099892
v 0.357338 0.294845 0.086984
v 0.428625 0.310739 0.057164
v 0.433632 0.326936 0.065876
v 0.488881 0.346957 0.033429
v 0.358980 0.389858 0.090181
v 0.310066 0.403369 0.089499
v 0.357823 0.403119 0.080081
v 0.435722 0.389438 0.068799
v 0.488112 0.354601 0.038976
v 0.524991 0.387280 0.012373
v 0.499220 0.387592 0.038341
v 0.434563 0.402740 0.058821
v 0.498250 0.400486 0.030309
v 0.435314 0.411319 0.047640
v 0.358634 0.411621 0.069020
v 0.310884 0.411852 0.078205
v 0.262240 0.412092 0.086527
v 0.246673 0.412197 0.088745
v 0.244876 0.403733 0.100386
v 0.244944 0.413364 0.000000
v 0.260541 0.413265 0.000000
v 0.309289 0.413016 0.000000
v 0.357143 0.412772 0.000000
v 0.434065 0.412379 0.000000
v 0.498432 0.408378 0.021249
v 0.525109 0.397568 0.014898
v 0.529772 0.396828 0.000000
v 0.528659 0.386741 0.000000
v 0.524991 0.387280 -0.012373
v 0.525109 0.397568 -0.014898
v 0.525227 0.406523 0.000000
v 0.524256 0.404829 0.007260
v 0.498035 0.409940 0.000000
v 0.524256 0.404829 -0.007260
v 0.498432 0.408378 -0.021249
v 0.435314 0.411319 -0.047640
v 0.358634 0.411621 -0.069020
v 0.310884 0.411852 -0.078205
v 0.262240 0.412092 -0.086527
v 0.246673 0.412197 -0.088745
v 0.261414 0.403626 -0.097877
v 0.244876 0.403733 -0.100386
v 0.310066 0.403369 -0.089499
v 0.357823 0.403119 -0.080081
v 0.434563 0.402740 -0.058821
v 0.498250 0.400486 -0.030309
v -0.239627 0.387750 0.109460
v -0.240327 0.289677 0.109670
v -0.286040 0.316175 0.109742
v -0.390330 0.388135 0.109187
v -0.289336 0.311213 0.107294
v -0.387342 0.360463 0.109914
v -0.390498 0.365146 0.109739
v -0.396287 0.388150 0.106711
v -0.396392 0.364304 0.107288
v -0.389881 0.362158 0.109869
v -0.394824 0.358848 0.107419
v -0.390360 0.355339 0.107465
v -0.240389 0.283751 0.107210
v -0.189041 0.243295 0.106578
v -0.171701 0.222761 0.108048
v -0.155254 0.195434 0.109213
v -0.150377 0.169258 0.109336
v -0.144348 0.169174 0.111788
v -0.148543 0.146185 0.111800
v -0.088054 0.145587 0.114235
v -0.142513 0.146101 0.114251
v -0.151140 0.122247 0.128658
v -0.157136 0.122318 0.126449
v -0.097024 0.121824 0.126205
v -0.079588 0.121684 0.122691
v -0.061125 0.121514 0.117926
v -0.168333 0.097764 0.143545
v -0.174296 0.097822 0.141519
v -0.226795 0.054395 0.177447
v -0.220840 0.054335 0.179912
v -0.226795 -0.001207 0.176299
v 0.172868 0.385988 -0.109902
v 0.246342 0.390492 -0.110083
v 0.175026 0.412743 -0.110163
v 0.244876 0.403733 -0.100386
v 0.246342 0.412165 -0.110163
v 0.245121 0.439195 -0.110518
v 0.175026 0.440511 -0.110518
v 0.175026 0.446801 -0.108006
v 0.242873 0.445487 -0.108006
v 0.240798 0.448161 -0.101783
v 0.175026 0.449472 -0.101781
v 0.238825 0.449494 0.000000
v 0.175026 0.450754 0.000000
v 0.175026 0.449472 0.101781
v 0.240798 0.448161 0.101783
v 0.175026 0.446801 0.108006
v 0.241875 0.444791 0.000000
v 0.244036 0.439892 0.000000
v 0.246673 0.412197 -0.088745
v 0.244944 0.413364 0.000000
v 0.246673 0.412197 0.088745
v 0.245121 0.439195 0.110518
v 0.242873 0.445487 0.108006
v 0.175026 0.440511 0.110518
v 0.175026 0.412743 0.110163
v 0.246342 0.412165 0.110163
v 0.244876 0.403733 0.100386
v 0.246342 0.390492 0.110083
v 0.172868 0.385988 0.109902
v 0.228193 -0.001207 0.176328
v 0.230398 -0.001207 0.170812
v 0.222715 -0.001207 0.181067
v 0.227582 -0.001207 0.000000
v 0.115915 -0.001207 0.181110
v 0.080790 -0.001207 0.000000
v 0.103145 -0.001207 0.156880
v 0.115915 -0.001207 -0.181110
v 0.230398 -0.001207 -0.170812
v 0.222715 -0.001207 -0.181067
v 0.228193 -0.001207 -0.176328
v 0.103145 -0.001207 -0.156880
v 0.072975 -0.001207 0.000000
v 0.072961 -0.001207 0.130405
v 0.072961 -0.001207 -0.130405
v 0.061816 -0.001207 0.000000
v 0.035063 -0.001207 0.114467
v 0.035063 -0.001207 -0.114467
v 0.037449 -0.001207 0.000000
v -0.002039 -0.001207 0.109850
v -0.002039 -0.001207 -0.109850
v -0.002039 -0.001207 0.000000
v -0.036727 -0.001207 0.000000
v -0.036727 -0.001207 0.114767
v -0.036727 -0.001207 -0.114767
v -0.064266 -0.001207 0.000000
v -0.064266 -0.001207 0.125016
v -0.064266 -0.001207 -0.125016
v -0.097903 -0.001207 0.000000
v -0.097903 -0.001207 0.149647
v -0.097903 -0.001207 -0.149647
v -0.128392 -0.001207 0.000000
v -0.117734 -0.001207 0.178727
v -0.117734 -0.001207 -0.178727
v -0.220840 -0.001207 0.178764
v -0.220840 -0.001207 -0.178764
v -0.226795 -0.001207 -0.176299
v -0.229263 -0.001207 0.000000
v -0.226795 -0.001207 0.176299
v -0.229263 -0.001207 0.170344
v -0.229263 -0.001207 -0.170344
v 0.228193 -0.001207 -0.176328
v 0.228521 0.051521 -0.177477
v 0.222715 -0.001207 -0.181067
v 0.223042 0.051548 -0.182216
v 0.116138 0.052417 -0.182259
v 0.115915 -0.001207 -0.181110
v 0.103320 0.052417 -0.158028
v 0.103145 -0.001207 -0.156880
v 0.072961 -0.001207 -0.130405
v 0.035063 -0.001207 -0.114467
v -0.002039 -0.001207 -0.109850
v -0.036727 -0.001207 -0.114767
v -0.036657 0.053329 -0.115916
v -0.064266 -0.001207 -0.125016
v -0.064214 0.053596 -0.126165
v -0.396287 0.388150 0.106711
v -0.396392 0.364304 0.107288
v -0.398753 0.388156 0.100749
v -0.398831 0.363958 0.101341
v -0.394824 0.358848 0.107419
v -0.398828 0.364392 0.000000
v -0.398753 0.388156 0.000000
v -0.398753 0.388156 -0.100749
v -0.398831 0.363958 -0.101341
v -0.396864 0.357917 0.000000
v -0.396866 0.357488 0.101476
v -0.391607 0.353235 0.101520
v -0.390360 0.355339 0.107465
v -0.391607 0.353656 0.000000
v -0.396866 0.357488 -0.101476
v -0.391607 0.353235 -0.101520
v -0.292160 0.310012 0.000000
v -0.290770 0.309196 -0.101349
v -0.288357 0.307878 -0.031313
v -0.240513 0.281336 -0.101267
v -0.241907 0.282019 -0.031313
v -0.288357 0.307890 0.000000
v -0.288357 0.307878 0.031313
v -0.290770 0.309196 0.101349
v -0.289336 0.311213 0.107294
v -0.240389 0.283751 0.107210
v -0.240513 0.281336 0.101267
v -0.241907 0.282019 0.031313
v -0.226291 0.270334 0.031313
v -0.189041 0.243295 0.106578
v -0.189632 0.243925 0.101184
v -0.174308 0.222847 0.102083
v -0.171701 0.222761 0.108048
v -0.157861 0.195523 0.103247
v -0.155254 0.195434 0.109213
v -0.152981 0.169348 0.103370
v -0.150377 0.169258 0.109336
v -0.151147 0.146274 0.105834
v -0.148543 0.146185 0.111800
v -0.159749 0.122395 0.120619
v -0.157136 0.122318 0.126449
v -0.176919 0.097889 0.135793
v -0.174296 0.097822 0.141519
v -0.229263 0.054454 0.171492
v -0.226795 0.054395 0.177447
v -0.226795 -0.001207 0.176299
v -0.229263 -0.001207 0.170344
v -0.229263 0.055657 0.000000
v -0.179981 0.099078 0.000000
v -0.162541 0.123575 0.000000
v -0.153815 0.147443 0.000000
v -0.155578 0.170515 0.000000
v -0.160524 0.196690 0.000000
v -0.176915 0.224014 0.000000
v -0.192290 0.245090 0.000000
v -0.226291 0.270289 0.000000
v -0.226291 0.270334 -0.031313
v -0.189632 0.243925 -0.101184
v -0.174308 0.222847 -0.102083
v -0.157861 0.195523 -0.103247
v -0.152981 0.169348 -0.103370
v -0.151147 0.146274 -0.105834
v -0.159749 0.122395 -0.120619
v -0.176919 0.097889 -0.135793
v -0.229263 0.054454 -0.171492
v -0.229263 -0.001207 -0.170344
v -0.229263 -0.001207 0.000000
v -0.226291 0.270334 0.031313
v -0.226291 0.460708 0.031313
v -0.241907 0.282019 0.031313
v -0.239537 0.460708 0.031313
v -0.288357 0.307878 0.031313
v -0.288357 0.460708 0.031313
v -0.288357 0.307890 0.000000
v -0.288357 0.460708 0.000000
v -0.288357 0.460708 -0.031313
v -0.288357 0.307878 -0.031313
v -0.239537 0.460708 -0.031313
v -0.241907 0.282019 -0.031313
v -0.226291 0.460708 -0.031313
v -0.226291 0.270334 -0.031313
v -0.226291 0.460708 0.000000
v -0.226291 0.270289 0.000000
v -0.226291 0.270334 0.031313
v -0.226291 0.460708 0.031313
v 0.230398 -0.001207 -0.170812
v 0.230727 0.051547 -0.171960
v 0.228193 -0.001207 -0.176328
v 0.228521 0.051521 -0.177477
v 0.179807 0.094950 -0.141573
v 0.182049 0.094984 -0.136287
v 0.161665 0.119450 -0.126520
v 0.227910 0.052939 0.000000
v 0.227582 -0.001207 0.000000
v 0.230398 -0.001207 0.170812
v 0.230727 0.051547 0.171960
v 0.228193 -0.001207 0.176328
v 0.228521 0.051521 0.177477
v 0.179807 0.094950 0.141573
v 0.182049 0.094984 0.136287
v 0.179910 0.096360 0.000000
v 0.163892 0.119490 -0.121125
v 0.154637 0.143321 -0.111868
v 0.156837 0.143370 -0.106353
v 0.156742 0.166680 -0.104460
v 0.161940 0.120857 0.000000
v 0.163892 0.119490 0.121125
v 0.161665 0.119450 0.126520
v 0.154637 0.143321 0.111868
v 0.156837 0.143370 0.106353
v 0.156742 0.166680 0.104460
v 0.154971 0.144726 0.000000
v 0.159624 0.166444 -0.089943
v 0.172124 0.193501 -0.104272
v 0.174765 0.192619 -0.083995
v 0.211374 0.223784 -0.102950
v 0.155363 0.167798 0.000000
v 0.159624 0.166444 0.089943
v 0.172124 0.193501 0.104272
v 0.174765 0.192619 0.083995
v 0.211374 0.223784 0.102950
v 0.258133 0.244216 0.099404
v 0.214073 0.223867 0.079556
v 0.262434 0.236441 0.078091
v 0.305285 0.259550 0.086413
v 0.214342 0.221296 0.000000
v 0.169880 0.193972 0.000000
v 0.214073 0.223867 -0.079556
v 0.258133 0.244216 -0.099404
v 0.262434 0.236441 -0.078091
v 0.305285 0.259550 -0.086413
v 0.310120 0.250436 -0.069299
v 0.355871 0.280677 -0.076124
v 0.260050 0.239931 0.000000
v 0.310120 0.250436 0.069299
v 0.355871 0.280677 0.076124
v 0.355457 0.269974 0.060619
v 0.428625 0.310739 0.057164
v 0.308766 0.251473 0.000000
v 0.355457 0.269974 -0.060619
v 0.428625 0.310739 -0.057164
v 0.433374 0.302736 -0.045512
v 0.488881 0.346957 -0.033429
v 0.356589 0.266204 0.000000
v 0.433374 0.302736 0.045512
v 0.488881 0.346957 0.033429
v 0.489366 0.342335 0.024921
v 0.433459 0.302035 0.000000
v 0.489366 0.342335 -0.024921
v 0.492018 0.340234 0.000000
v 0.518441 0.374032 0.013510
v 0.524991 0.387280 0.012373
v 0.521671 0.372819 0.000000
v 0.528659 0.386741 0.000000
v 0.524991 0.387280 -0.012373
v 0.518441 0.374032 -0.013510
vn 0.5796 -0.0235 -0.8146
vn 0.2270 -0.2582 -0.9391
vn 0.5562 -0.5798 -0.5954
vn 0.7679 0.1646 -0.6191
vn 0.5412 0.2039 -0.8158
vn 0.7905 0.4775 -0.3835
vn -0.0000 0.7378 -0.6750
vn 0.5651 0.6828 -0.4631
vn -0.0000 0.1720 -0.9851
vn 0.2269 -0.2583 -0.9390
vn -0.0000 -0.6025 -0.7981
vn -0.0000 -0.8344 -0.5511
vn -0.0000 -0.7071 -0.7071
vn -0.0000 -0.5511 -0.8344
vn -0.0000 0.1644 -0.9864
vn -0.0000 0.6912 -0.7226
vn -0.0000 0.9910 -0.1337
vn -0.0000 0.9888 -0.1491
vn 0.6725 0.7351 -0.0860
vn 0.6870 0.7184 -0.1093
vn 0.8643 0.5030 -0.0000
vn 0.7032 0.7110 -0.0000
vn 0.6870 0.7184 0.1093
vn 0.7905 0.4774 0.3836
vn 0.6725 0.7351 0.0860
vn -0.0000 1.0000 -0.0000
vn -0.2197 0.8710 0.4394
vn -0.0000 0.5565 0.8308
vn -0.8944 0.4472 -0.0000
vn -0.2197 0.8710 -0.4394
vn -0.0000 0.9888 0.1491
vn 0.5651 0.6828 0.4631
vn 0.7679 0.1645 0.6191
vn 0.5412 0.2040 0.8158
vn 0.5796 -0.0235 0.8146
vn 0.5562 -0.5798 0.5954
vn 0.2270 -0.2582 0.9391
vn -0.0000 0.1720 0.9851
vn -0.0000 0.7378 0.6750
vn -0.0000 0.9910 0.1337
vn -0.0000 0.5565 -0.8308
vn 0.4394 0.8710 -0.2197
vn -0.0000 0.6912 0.7226
vn -0.0001 0.1644 0.9864
vn -0.0000 -0.7071 0.7071
vn -0.0000 -0.8344 0.5511
vn -0.0000 -0.6025 0.7981
vn 0.2269 -0.2583 0.9391
vn -0.0705 -0.7053 0.7054
vn -0.0000 -0.7981 0.6025
vn -0.0000 0.1961 0.9806
vn 0.0008 0.6750 0.7378
vn -0.1256 0.2590 0.9577
vn -0.3446 0.7675 0.5405
vn -0.2592 0.9658 -0.0000
vn -0.4694 0.8762 0.1095
vn 0.7071 0.7071 -0.0000
vn 0.4394 0.8710 0.2197
vn -0.9301 0.3674 -0.0000
vn -0.4694 0.8762 -0.1095
vn -0.3446 0.7676 -0.5405
vn -0.9288 0.3621 -0.0787
vn -0.8913 -0.4534 -0.0000
vn -0.7218 0.4001 -0.5648
vn -0.7617 0.0707 -0.6440
vn -0.1256 0.2590 -0.9577
vn -0.0000 0.6750 -0.7378
vn -0.0000 -0.4472 0.8944
vn -0.7218 0.4001 0.5648
vn -0.6343 0.0940 0.7674
vn -0.5345 -0.8018 0.2673
vn -0.9499 0.3062 0.0628
vn -0.5345 -0.8018 0.2672
vn -0.8308 -0.5565 -0.0000
vn -0.4472 -0.8944 -0.0000
vn -0.0000 -1.0000 -0.0000
vn 0.0079 -1.0000 -0.0000
vn -0.7826 -0.6025 0.1565
vn -0.7071 -0.7071 -0.0000
vn -0.7826 -0.6025 -0.1565
vn -0.3058 -0.9017 -0.3058
vn -0.0000 -0.4472 -0.8944
vn -0.0000 0.1962 -0.9806
vn -0.0000 -0.8554 -0.5180
vn -0.0938 -0.7040 -0.7040
vn -0.3522 -0.8140 -0.4618
vn -0.3057 -0.9017 -0.3058
vn -0.7826 -0.6026 -0.1565
vn -0.8913 -0.4535 -0.0000
vn -0.8309 -0.5565 -0.0000
vn -0.3522 -0.8140 0.4618
vn -0.7826 -0.6026 0.1565
vn 0.2277 0.2121 -0.9504
vn 0.8667 0.3826 -0.3201
vn 0.1099 0.6989 -0.7068
vn 0.1647 0.2040 -0.9650
vn 0.1802 0.3134 -0.9324
vn 0.1338 0.7086 -0.6928
vn 0.2277 0.2985 -0.9268
vn 0.1722 0.6965 -0.6966
vn 0.3530 0.2746 -0.8944
vn 0.2664 0.6737 -0.6894
vn 0.5412 0.2588 -0.8001
vn 0.4471 0.5176 -0.7295
vn 0.8170 -0.1964 -0.5421
vn 0.7761 0.3371 -0.5330
vn 0.5894 -0.2437 -0.7702
vn 0.4477 -0.2828 -0.8483
vn 0.3307 -0.3149 -0.8897
vn 0.2737 -0.2971 -0.9148
vn 0.2670 -0.2356 -0.9345
vn 0.0940 -0.0392 -0.9948
vn 0.2269 -0.2582 -0.9391
vn -0.0000 0.0158 -0.9999
vn 0.2283 -0.2913 -0.9290
vn 0.3617 -0.7155 -0.5976
vn 0.3678 -0.6417 -0.6730
vn 0.4090 -0.6607 -0.6294
vn 0.4767 -0.6017 -0.6408
vn 0.6568 -0.4926 -0.5709
vn 0.5157 -0.7813 -0.3516
vn 0.6761 -0.5660 -0.4717
vn -0.0000 0.0393 -0.9992
vn 0.3059 -0.1882 -0.9333
vn -0.0000 0.0315 -0.9995
vn -0.2270 -0.2270 -0.9471
vn -0.1877 -0.0939 -0.9777
vn 0.0002 0.0236 -0.9997
vn 0.3134 0.0548 -0.9480
vn 0.8381 -0.1488 -0.5248
vn 0.7787 0.3146 -0.5428
vn 0.2900 0.4311 -0.8544
vn 0.6104 0.6261 -0.4852
vn -0.0784 0.2510 -0.9648
vn -0.0078 0.0550 -0.9985
vn 0.0001 0.0236 -0.9997
vn -0.1643 -0.0313 -0.9859
vn 0.0079 0.0315 -0.9995
vn 0.0472 0.0157 -0.9988
vn -0.0472 0.1181 -0.9919
vn -0.1640 0.1874 -0.9685
vn -0.0940 0.0313 -0.9951
vn -0.2751 0.1415 -0.9510
vn -0.1643 0.0391 -0.9856
vn -0.2269 0.2582 -0.9391
vn -0.1953 0.3750 -0.9062
vn 0.1724 0.5643 -0.8073
vn 0.2034 0.6962 -0.6884
vn 0.5086 0.7747 -0.3757
vn -0.3535 0.4556 -0.8170
vn -0.4011 0.2517 -0.8808
vn -0.5106 0.0786 -0.8562
vn -0.2830 0.0079 -0.9591
vn 0.0079 -0.0158 -0.9998
vn -0.0157 0.0157 -0.9998
vn 0.0157 -0.0000 -0.9999
vn 0.1567 0.0235 -0.9874
vn 0.1489 0.0470 -0.9877
vn 0.3057 0.0862 -0.9482
vn 0.2435 0.0864 -0.9661
vn 0.0391 0.2423 -0.9694
vn 0.1801 0.2349 -0.9552
vn 0.3378 0.2357 -0.9112
vn 0.1258 0.4087 -0.9039
vn -0.1334 0.3531 -0.9260
vn -0.1883 0.0471 -0.9810
vn -0.6026 0.3600 -0.7122
vn -0.6981 -0.0549 -0.7139
vn -0.6765 -0.2281 -0.7002
vn -0.6562 -0.4452 -0.6093
vn -0.9178 -0.3452 -0.1962
vn -0.9703 -0.1174 -0.2113
vn -0.9588 0.1886 -0.2122
vn -0.8183 0.5429 -0.1889
vn -0.1178 0.5417 -0.8323
vn -0.5117 0.6456 -0.5669
vn -0.6744 0.7215 -0.1569
vn -0.4163 0.7776 -0.4713
vn -0.8578 0.4565 -0.2361
vn -0.0941 0.6427 -0.7603
vn 0.2664 0.4466 -0.8541
vn 0.6742 0.1176 -0.7291
vn 0.3299 0.2985 -0.8956
vn -0.1805 0.4710 -0.8635
vn -0.5823 0.3699 -0.7240
vn -0.1729 -0.4716 -0.8647
vn 0.4875 -0.6055 -0.6290
vn 0.4728 -0.7171 -0.5121
vn -0.5404 -0.7363 -0.4073
vn -0.9388 -0.3208 -0.1252
vn -0.8219 -0.5557 -0.1253
vn -0.6658 -0.6658 -0.3368
vn -0.7071 -0.7071 -0.0079
vn -0.5486 -0.8308 -0.0941
vn -0.4305 -0.6575 -0.6184
vn -0.4402 -0.8725 -0.2122
vn -0.1413 -0.2197 -0.9653
vn -0.2739 -0.5479 -0.7904
vn -0.4150 -0.6813 -0.6030
vn -0.4883 -0.8584 -0.1576
vn -0.7533 -0.6277 -0.1962
vn -0.5976 -0.3617 -0.7156
vn -0.9625 -0.1878 -0.1957
vn -0.1251 -0.2111 -0.9694
vn -0.0548 -0.1017 -0.9933
vn -0.0939 -0.7040 -0.7040
vn -0.1885 0.0235 -0.9818
vn -0.3522 -0.8141 -0.4618
vn -0.2504 -0.1018 -0.9628
vn -0.7057 -0.0627 -0.7057
vn -0.7825 -0.6026 -0.1565
vn 0.2673 -0.6368 0.7232
vn 0.8067 -0.3367 0.4856
vn 0.7284 0.3525 0.5875
vn 0.3301 0.5108 0.7938
vn 0.5086 0.7747 0.3756
vn -0.3539 0.3146 0.8808
vn -0.4390 -0.7606 0.4783
vn 0.2034 0.6962 0.6884
vn 0.6104 0.6261 0.4852
vn 0.1724 0.5643 0.8073
vn -0.3535 0.4556 0.8170
vn -0.7582 0.1563 0.6331
vn -0.5199 -0.7168 0.4647
vn -0.5106 0.0786 0.8562
vn -0.3377 -0.7147 0.6125
vn -0.4011 0.2517 0.8808
vn -0.1953 0.3750 0.9062
vn 0.2900 0.4311 0.8544
vn 0.7787 0.3146 0.5428
vn 0.8381 -0.1488 0.5248
vn 0.3134 0.0549 0.9480
vn -0.0549 0.2587 0.9644
vn -0.1966 0.2360 0.9517
vn -0.2750 0.1415 0.9510
vn -0.2830 0.0079 0.9591
vn -0.1493 -0.7148 0.6833
vn 0.0079 -0.0158 0.9998
vn -0.0000 -0.8975 0.4409
vn 0.1493 -0.7147 0.6833
vn 0.2993 -0.7167 0.6300
vn 0.2664 -0.0000 0.9639
vn 0.4781 0.0313 0.8778
vn 0.4728 -0.7171 0.5121
vn 0.4875 -0.6055 0.6290
vn 0.6742 0.1176 0.7291
vn 0.3299 0.2985 0.8956
vn -0.1569 -0.6199 0.7689
vn 0.2664 0.4467 0.8541
vn 0.3534 0.2435 0.9032
vn 0.2978 0.1097 0.9483
vn 0.1567 0.0235 0.9874
vn -0.0157 0.0157 0.9998
vn -0.1643 0.0391 0.9856
vn -0.1957 0.1409 0.9705
vn -0.0705 0.1411 0.9875
vn -0.0940 0.0313 0.9951
vn 0.0157 -0.0000 0.9999
vn 0.1489 0.0470 0.9877
vn 0.0472 0.0157 0.9988
vn -0.0078 0.0550 0.9985
vn 0.0079 0.0315 0.9995
vn 0.0002 0.0236 0.9997
vn 0.0001 0.0236 0.9997
vn -0.1643 -0.0313 0.9859
vn -0.0000 0.0393 0.9992
vn -0.0000 0.0394 0.9992
vn 0.3059 -0.1882 0.9333
vn 0.6761 -0.5660 0.4717
vn 0.2283 -0.2913 0.9290
vn 0.5157 -0.7813 0.3516
vn 0.3617 -0.7156 0.5976
vn 0.2670 -0.2355 0.9345
vn 0.3678 -0.6417 0.6730
vn 0.2737 -0.2971 0.9148
vn 0.4090 -0.6607 0.6294
vn 0.1648 0.2040 0.9650
vn 0.0940 -0.0392 0.9948
vn -0.0000 0.0158 0.9999
vn -0.0000 0.0315 0.9995
vn -0.1877 -0.0939 0.9777
vn -0.2270 -0.2270 0.9471
vn 0.2269 -0.2582 0.9391
vn 0.2277 0.2121 0.9504
vn 0.1099 0.6989 0.7067
vn 0.1802 0.3134 0.9324
vn 0.3307 -0.3149 0.8897
vn 0.4767 -0.6017 0.6408
vn 0.4477 -0.2828 0.8483
vn 0.6568 -0.4926 0.5709
vn 0.2278 0.2985 0.9268
vn 0.1339 0.7086 0.6928
vn 0.1722 0.6965 0.6965
vn 0.3530 0.2746 0.8944
vn 0.5894 -0.2437 0.7702
vn 0.8170 -0.1964 0.5421
vn 0.5412 0.2588 0.8001
vn 0.2663 0.6737 0.6893
vn 0.4471 0.5177 0.7294
vn 0.1485 0.9301 0.3361
vn 0.0862 0.9403 0.3291
vn 0.0628 0.9420 0.3297
vn 0.0552 0.9448 0.3229
vn 0.8272 0.5072 0.2420
vn 0.7839 0.4311 0.4468
vn 0.4472 0.8944 -0.0000
vn 0.0079 1.0000 -0.0000
vn 0.0078 1.0000 -0.0000
vn 0.0315 0.9995 -0.0000
vn 0.2508 0.9015 0.3527
vn 0.7760 0.3371 0.5331
vn 0.9969 0.0785 -0.0000
vn 0.9591 -0.2830 -0.0000
vn 0.8171 -0.1964 -0.5421
vn 0.7760 0.3371 -0.5330
vn 0.7526 0.6585 -0.0000
vn 0.4619 0.8298 0.3131
vn 0.1096 0.9940 -0.0000
vn 0.4619 0.8298 -0.3131
vn 0.2508 0.9015 -0.3527
vn 0.1485 0.9301 -0.3361
vn 0.0862 0.9403 -0.3291
vn 0.0628 0.9420 -0.3297
vn 0.0552 0.9448 -0.3229
vn 0.7312 0.6132 -0.2987
vn 0.1099 0.6989 -0.7067
vn 0.1722 0.6966 -0.6965
vn 0.2663 0.6737 -0.6893
vn 0.4471 0.5177 -0.7294
vn -0.1413 -0.2197 0.9653
vn -0.0706 -0.1334 0.9885
vn -0.0706 -0.7054 0.7053
vn -0.2739 -0.5478 0.7905
vn -0.0866 -0.1574 0.9837
vn -0.2351 0.0157 0.9718
vn -0.7057 -0.0627 0.7057
vn -0.2511 -0.1413 0.9576
vn -0.6607 -0.4326 0.6135
vn -0.3534 -0.6126 0.7069
vn -0.4305 -0.6575 0.6184
vn -0.6658 -0.6658 0.3368
vn -0.6561 -0.4452 0.6093
vn -0.6766 -0.2281 0.7002
vn -0.6981 -0.0549 0.7139
vn -0.1883 0.0471 0.9810
vn -0.6026 0.3600 0.7122
vn 0.0391 0.2423 0.9694
vn -0.1334 0.3531 0.9260
vn -0.1178 0.5417 0.8323
vn -0.5117 0.6456 0.5669
vn 0.1258 0.4087 0.9039
vn 0.2199 0.2199 0.9504
vn 0.2036 0.0235 0.9788
vn -0.0940 0.6427 0.7603
vn -0.4162 0.7776 0.4713
vn -0.5823 0.3698 0.7240
vn -0.1805 0.4710 0.8635
vn -0.6444 -0.5894 0.4872
vn 0.2278 0.2120 -0.9503
vn 0.7636 0.0157 -0.6455
vn 0.8667 0.3826 -0.3202
vn 0.7994 0.1568 -0.5800
vn 0.5413 0.2039 -0.8158
vn 0.7906 0.4774 -0.3835
vn 0.5886 0.6514 -0.4787
vn 0.3855 0.9048 -0.1809
vn 0.6871 0.7183 -0.1093
vn 0.3280 0.9447 -0.0000
vn 0.6871 0.7183 0.1093
vn 0.3855 0.9048 0.1809
vn 0.7906 0.4774 0.3835
vn 0.8554 0.5180 -0.0000
vn 0.9775 0.2112 -0.0000
vn 0.7312 0.6133 -0.2988
vn 0.6984 0.1884 0.6905
vn 0.5886 0.6514 0.4787
vn 0.5413 0.2039 0.8158
vn 0.8453 -0.0470 0.5322
vn 0.7839 0.4312 0.4468
vn 0.2278 0.2120 0.9503
vn 0.8185 -0.5667 0.0945
vn 0.8067 -0.3368 0.4855
vn 0.2673 -0.6367 0.7233
vn 0.3700 -0.9290 -0.0000
vn -0.4391 -0.7605 0.4783
vn -0.3686 -0.8391 -0.4000
vn 0.6930 -0.7166 -0.0787
vn 0.3065 -0.4874 -0.8176
vn 0.8067 -0.3368 -0.4855
vn -0.5199 -0.7168 -0.4648
vn -0.3377 -0.7146 0.6126
vn -0.3377 -0.7146 -0.6126
vn -0.1492 -0.7147 0.6834
vn -0.1493 -0.7147 -0.6833
vn -0.0000 -0.8976 0.4409
vn -0.0000 -0.8976 -0.4409
vn 0.1492 -0.7147 -0.6834
vn 0.2993 -0.7166 0.6300
vn 0.2993 -0.7166 -0.6300
vn 0.4728 -0.7170 0.5122
vn 0.4728 -0.7170 -0.5122
vn 0.4875 -0.6055 0.6291
vn 0.4875 -0.6055 -0.6291
vn -0.1569 -0.6198 0.7689
vn -0.1729 -0.4717 -0.8647
vn -0.5405 -0.7362 -0.4073
vn -0.3700 -0.9290 -0.0000
vn -0.6444 -0.5894 0.4873
vn -0.9388 -0.3208 0.1251
vn -0.9388 -0.3208 -0.1251
vn 0.7284 0.3525 -0.5875
vn 0.8067 -0.3368 -0.4856
vn 0.3066 -0.4874 -0.8176
vn 0.3301 0.5108 -0.7938
vn -0.3539 0.3146 -0.8808
vn -0.7582 0.1563 -0.6331
vn -0.5199 -0.7168 -0.4647
vn -0.3377 -0.7147 -0.6125
vn -0.1493 -0.7148 -0.6833
vn -0.0000 -0.8975 -0.4409
vn 0.1492 -0.7147 -0.6833
vn 0.2664 -0.0000 -0.9639
vn 0.2993 -0.7167 -0.6300
vn 0.4781 0.0313 -0.8778
vn -0.7057 -0.0628 0.7057
vn -0.3523 -0.8140 0.4618
vn -0.7825 -0.6026 0.1565
vn -0.9625 -0.1878 0.1956
vn -0.6607 -0.4326 0.6134
vn -0.9956 -0.0941 -0.0000
vn -0.9625 -0.1878 -0.1956
vn -0.8815 -0.4722 -0.0000
vn -0.5098 -0.8394 0.1883
vn -0.3535 -0.6127 0.7069
vn -0.5565 -0.8309 -0.0000
vn -0.7533 -0.6277 -0.1961
vn -0.4883 -0.8584 -0.1575
vn -0.2268 -0.8446 0.4849
vn -0.5486 -0.8308 -0.0940
vn -0.2990 -0.4641 0.8338
vn 0.8644 -0.5029 -0.0000
vn -0.2268 -0.8447 -0.4849
vn -0.4402 -0.8725 0.2122
vn -0.4305 -0.6575 0.6183
vn -0.5486 -0.8308 0.0941
vn -0.2989 -0.4641 -0.8338
vn -0.7934 -0.5813 -0.1807
vn -0.7071 -0.7071 0.0079
vn -0.8219 -0.5557 0.1252
vn -0.6562 -0.4452 0.6093
vn -0.9178 -0.3452 0.1961
vn -0.6766 -0.2281 0.7001
vn -0.9704 -0.1174 0.2112
vn -0.6982 -0.0549 0.7138
vn -0.9588 0.1886 0.2122
vn -0.6027 0.3600 0.7122
vn -0.8183 0.5429 0.1888
vn -0.5118 0.6456 0.5668
vn -0.6744 0.7215 0.1568
vn -0.4163 0.7776 0.4712
vn -0.8579 0.4565 0.2361
vn -0.5823 0.3698 0.7239
vn -0.9389 -0.3207 0.1252
vn -0.9096 0.4156 -0.0000
vn -0.7669 0.6417 -0.0000
vn -0.9021 0.4315 -0.0000
vn -0.9980 0.0629 -0.0000
vn -0.9888 -0.1491 -0.0000
vn -0.9125 -0.4091 -0.0000
vn -0.8247 -0.5655 -0.0000
vn -0.6750 -0.7378 -0.0000
vn -0.8944 -0.4472 -0.0000
vn -0.7934 -0.5813 0.1807
vn -0.8219 -0.5557 -0.1252
vn -0.9178 -0.3452 -0.1961
vn -0.9704 -0.1174 -0.2113
vn -0.9589 0.1886 -0.2122
vn -0.8183 0.5429 -0.1888
vn -0.6745 0.7215 -0.1568
vn -0.8579 0.4565 -0.2360
vn -0.9389 -0.3207 -0.1252
vn -0.3701 -0.9290 -0.0000
vn -0.7934 -0.5812 -0.1806
vn -0.2989 -0.4642 -0.8338
vn -0.2269 -0.8446 -0.4849
vn 0.4394 0.8710 -0.2198
vn 0.4394 0.8710 0.2198
vn -0.2269 -0.8447 0.4849
vn -0.2198 0.8710 0.4394
vn -0.7934 -0.5813 0.1806
vn -0.2197 0.8710 -0.4395
vn 0.8710 0.4394 -0.2197
vn 0.6930 -0.7166 -0.0788
vn 0.7285 0.3525 -0.5874
vn 0.5087 0.7747 -0.3756
vn 0.6848 0.7163 -0.1338
vn 0.6105 0.6261 -0.4852
vn 0.9167 0.3996 -0.0000
vn 0.3701 -0.9290 -0.0000
vn 0.8185 -0.5667 0.0944
vn 0.8710 0.4394 0.2197
vn 0.8067 -0.3368 0.4856
vn 0.7285 0.3525 0.5874
vn 0.5087 0.7747 0.3756
vn 0.6848 0.7163 0.1338
vn 0.7637 0.6456 -0.0000
vn 0.8405 0.5185 -0.1571
vn 0.7788 0.3146 -0.5427
vn 0.9761 0.1574 -0.1496
vn 0.9235 0.3835 -0.0000
vn 0.8405 0.5185 0.1571
vn 0.6105 0.6261 0.4852
vn 0.7788 0.3146 0.5427
vn 0.9761 0.1574 0.1496
vn 0.9989 0.0472 -0.0000
vn 0.9588 -0.2751 -0.0707
vn 0.6761 -0.5660 -0.4716
vn 0.7299 -0.6828 -0.0314
vn 0.5157 -0.7813 -0.3515
vn 0.9389 -0.3443 -0.0000
vn 0.9588 -0.2751 0.0707
vn 0.6761 -0.5661 0.4716
vn 0.7299 -0.6828 0.0314
vn 0.5157 -0.7814 0.3515
vn 0.4383 -0.8921 0.1095
vn 0.3213 -0.9248 0.2038
vn 0.4472 -0.8944 -0.0000
vn 0.7226 -0.6912 -0.0000
vn 0.4383 -0.8921 -0.1096
vn 0.3617 -0.7156 -0.5976
vn 0.3213 -0.9248 -0.2038
vn 0.3596 -0.8989 -0.2501
vn 0.4091 -0.6608 -0.6293
vn 0.2974 -0.9548 -0.0000
vn 0.3596 -0.8989 0.2501
vn 0.4091 -0.6608 0.6293
vn 0.4070 -0.8609 0.3052
vn 0.4767 -0.6018 0.6408
vn 0.3067 -0.9518 -0.0000
vn 0.4070 -0.8609 -0.3052
vn 0.4767 -0.6018 -0.6408
vn 0.5262 -0.7933 -0.3063
vn 0.6569 -0.4927 -0.5708
vn 0.5262 -0.7933 0.3063
vn 0.6569 -0.4927 0.5708
vn 0.6634 -0.7180 0.2107
vn 0.5180 -0.8554 -0.0000
vn 0.6634 -0.7180 -0.2107
vn 0.6873 -0.7264 -0.0000
vn 0.7844 -0.5255 0.3295
vn 0.8171 -0.1965 0.5421
vn 0.8554 -0.5180 -0.0000
vn 0.9591 -0.2831 -0.0000
vn 0.8171 -0.1964 -0.5420
vn 0.7844 -0.5255 -0.3295
vt 0.005937 0.056650
vt 0.005109 0.034926
vt 0.022542 0.029564
vt 0.025038 0.079656
vt 0.013587 0.085735
vt 0.013874 0.095477
vt 0.169329 0.081287
vt 0.026553 0.084886
vt 0.169255 0.076046
vt 0.021987 0.011733
vt 0.167565 0.008621
vt 0.168022 0.026360
vt 0.343438 0.007109
vt 0.343515 0.025026
vt 0.343417 0.074403
vt 0.343400 0.079626
vt 0.343358 0.086299
vt 0.169397 0.087977
vt 0.025916 0.091500
vt 0.016373 0.102387
vt 0.022521 0.183371
vt 0.015052 0.183438
vt 0.017835 0.264451
vt 0.015461 0.271407
vt 0.027572 0.275167
vt 0.169479 0.182059
vt 0.333280 0.156267
vt 0.343430 0.156235
vt 0.333494 0.180516
vt 0.333701 0.204765
vt 0.171088 0.276136
vt 0.028330 0.281769
vt 0.026912 0.287027
vt 0.015353 0.281154
vt 0.008230 0.310372
vt 0.025319 0.337158
vt 0.007794 0.332110
vt 0.171168 0.288069
vt 0.171143 0.282827
vt 0.345022 0.274542
vt 0.343847 0.204602
vt 0.381260 0.203902
vt 0.467004 0.272136
vt 0.345183 0.281215
vt 0.345293 0.286438
vt 0.346317 0.335811
vt 0.170837 0.337769
vt 0.170705 0.355513
vt 0.025083 0.354995
vt 0.346576 0.353726
vt 0.463748 0.350516
vt 0.469881 0.332319
vt 0.468949 0.283960
vt 0.467701 0.278811
vt 0.479098 0.283333
vt 0.475794 0.278172
vt 0.476814 0.179190
vt 0.476291 0.272409
vt 0.467416 0.179274
vt 0.381148 0.180056
vt 0.380857 0.156214
vt 0.465440 0.086435
vt 0.482057 0.179144
vt 0.474729 0.086003
vt 0.474100 0.080247
vt 0.479825 0.084419
vt 0.530872 0.084893
vt 0.478528 0.078669
vt 0.481474 0.074781
vt 0.477224 0.075028
vt 0.465983 0.079750
vt 0.479318 0.330037
vt 0.480276 0.279662
vt 0.483366 0.283393
vt 0.482815 0.329986
vt 0.481409 0.273928
vt 0.532037 0.282884
vt 0.532406 0.274309
vt 0.533183 0.178723
vt 0.538726 0.264965
vt 0.539879 0.178671
vt 0.545137 0.258323
vt 0.545782 0.178622
vt 0.543822 0.098931
vt 0.537302 0.092392
vt 0.530197 0.074725
vt 0.476608 0.028245
vt 0.480107 0.028235
vt 0.467100 0.074578
vt 0.467135 0.026194
vt 0.460659 0.008117
vt 0.467151 0.014561
vt 0.465251 0.006186
vt 0.469656 0.012065
vt 0.476418 0.026231
vt 0.480000 0.026232
vt 0.473648 0.008072
vt 0.467149 0.001594
vt 0.480014 0.015434
vt 0.482928 0.341122
vt 0.476739 0.350308
vt 0.482743 0.332025
vt 0.472966 0.346677
vt 0.479161 0.332098
vt 0.470118 0.343947
vt 0.468378 0.352355
vt 0.470364 0.356909
vt 0.871895 0.519549
vt 0.884601 0.520071
vt 0.884472 0.532990
vt 0.871454 0.532166
vt 0.870181 0.570209
vt 0.883120 0.571268
vt 0.868769 0.607673
vt 0.881471 0.609246
vt 0.865711 0.669197
vt 0.878251 0.671576
vt 0.861729 0.722991
vt 0.872768 0.726420
vt 0.859849 0.751031
vt 0.867892 0.750644
vt 0.836244 0.714347
vt 0.817773 0.666247
vt 0.795377 0.604774
vt 0.784417 0.567154
vt 0.774401 0.528723
vt 0.777356 0.516293
vt 0.869004 0.462619
vt 0.756939 0.416794
vt 0.872302 0.319716
vt 0.747547 0.485013
vt 0.758362 0.526952
vt 0.767321 0.565271
vt 0.781655 0.606146
vt 0.803145 0.665117
vt 0.829478 0.717085
vt 0.742498 0.491073
vt 0.719987 0.460637
vt 0.742151 0.396078
vt 0.720844 0.449775
vt 0.759333 0.327807
vt 0.769224 0.182538
vt 0.880474 0.145789
vt 0.750937 0.199230
vt 0.744057 0.319271
vt 0.721112 0.376394
vt 0.701050 0.440419
vt 0.701234 0.448904
vt 0.685054 0.446204
vt 0.683282 0.440548
vt 0.666238 0.453119
vt 0.682657 0.389838
vt 0.700741 0.369966
vt 0.723060 0.311485
vt 0.729279 0.211457
vt 0.702846 0.308286
vt 0.685043 0.308329
vt 0.682937 0.370146
vt 0.664165 0.376630
vt 0.665475 0.347246
vt 0.644822 0.377914
vt 0.646720 0.351690
vt 0.663339 0.388994
vt 0.661981 0.401905
vt 0.663315 0.448381
vt 0.645122 0.467597
vt 0.647917 0.472013
vt 0.641109 0.412446
vt 0.643267 0.398247
vt 0.610175 0.380753
vt 0.613069 0.350013
vt 0.614994 0.321814
vt 0.647766 0.322486
vt 0.666336 0.322095
vt 0.648443 0.297165
vt 0.667138 0.296706
vt 0.648521 0.276699
vt 0.667569 0.275990
vt 0.688046 0.256310
vt 0.668101 0.261207
vt 0.648180 0.257518
vt 0.667904 0.247380
vt 0.691543 0.214134
vt 0.708983 0.214336
vt 0.692784 0.209051
vt 0.709982 0.209234
vt 0.729617 0.206316
vt 0.750985 0.194209
vt 0.728967 0.201050
vt 0.710461 0.203843
vt 0.694872 0.204005
vt 0.677324 0.196428
vt 0.671872 0.204772
vt 0.673755 0.199966
vt 0.659510 0.178685
vt 0.655640 0.181168
vt 0.617592 0.129677
vt 0.654206 0.185912
vt 0.647620 0.238470
vt 0.612040 0.242166
vt 0.607146 0.215815
vt 0.613590 0.138814
vt 0.615078 0.134082
vt 0.569876 0.135098
vt 0.565345 0.215877
vt 0.568661 0.242435
vt 0.570371 0.130306
vt 0.570834 0.125714
vt 0.749415 0.189341
vt 0.766997 0.180824
vt 0.764407 0.177391
vt 0.795450 0.140473
vt 0.799953 0.142586
vt 0.818062 0.103132
vt 0.804863 0.143071
vt 0.822324 0.105676
vt 0.858443 0.028569
vt 0.854193 0.026078
vt 0.858254 0.021906
vt 0.861335 0.025162
vt 0.864305 0.019313
vt 0.862603 0.031256
vt 0.826411 0.108488
vt 0.883970 0.029444
vt 0.866266 0.028925
vt 0.883949 0.024428
vt 0.863969 0.029355
vt 0.865483 0.024043
vt 0.883990 0.019453
vt 0.496609 0.358839
vt 0.501899 0.359128
vt 0.500459 0.402449
vt 0.495110 0.400525
vt 0.456103 0.445814
vt 0.415094 0.397327
vt 0.412929 0.356476
vt 0.451694 0.443003
vt 0.437179 0.464091
vt 0.432452 0.461156
vt 0.396741 0.438492
vt 0.394918 0.402458
vt 0.392328 0.360216
vt 0.365173 0.407135
vt 0.362572 0.364690
vt 0.382559 0.440486
vt 0.386196 0.459296
vt 0.424691 0.481238
vt 0.430321 0.483028
vt 0.433057 0.499419
vt 0.424634 0.499145
vt 0.374087 0.479792
vt 0.373287 0.460452
vt 0.362230 0.441718
vt 0.334370 0.409656
vt 0.332182 0.367036
vt 0.306084 0.411228
vt 0.305046 0.367374
vt 0.279609 0.367888
vt 0.257723 0.367044
vt 0.279451 0.410823
vt 0.257268 0.410279
vt 0.226540 0.364716
vt 0.199863 0.361333
vt 0.226062 0.407891
vt 0.199617 0.403143
vt 0.119248 0.366273
vt 0.222690 0.443413
vt 0.241777 0.443859
vt 0.260883 0.444395
vt 0.281383 0.444418
vt 0.306723 0.443986
vt 0.335942 0.443262
vt 0.360877 0.460983
vt 0.354379 0.479666
vt 0.331486 0.461967
vt 0.306337 0.462543
vt 0.280954 0.463098
vt 0.292479 0.481100
vt 0.354036 0.497447
vt 0.292290 0.498888
vt 0.360266 0.517879
vt 0.295230 0.519094
vt 0.194853 0.524266
vt 0.302786 0.540124
vt 0.379739 0.539203
vt 0.433816 0.519197
vt 0.444646 0.518615
vt 0.468675 0.546943
vt 0.474892 0.542183
vt 0.510627 0.559571
vt 0.511907 0.575580
vt 0.548947 0.570515
vt 0.549843 0.587591
vt 0.589395 0.587474
vt 0.510395 0.673317
vt 0.499308 0.577862
vt 0.400250 0.554394
vt 0.311111 0.555467
vt 0.182356 0.545718
vt 0.165464 0.563789
vt 0.300530 0.668250
vt 0.442241 0.667893
vt 0.497975 0.673532
vt 0.510672 0.686552
vt 0.548107 0.673399
vt 0.587134 0.600841
vt 0.648184 0.614496
vt 0.647879 0.628895
vt 0.698262 0.651272
vt 0.585393 0.673753
vt 0.548405 0.686470
vt 0.585660 0.686643
vt 0.646183 0.676805
vt 0.694540 0.657116
vt 0.725997 0.693972
vt 0.698090 0.684750
vt 0.646072 0.689786
vt 0.698287 0.696484
vt 0.648339 0.700462
vt 0.587743 0.697219
vt 0.550469 0.697222
vt 0.512794 0.697414
vt 0.500846 0.697859
vt 0.498127 0.686649
vt 0.513318 0.766461
vt 0.524994 0.763990
vt 0.561821 0.756669
vt 0.598115 0.749475
vt 0.656288 0.736195
vt 0.699408 0.705766
vt 0.721428 0.701126
vt 0.729308 0.710177
vt 0.733762 0.705736
vt 0.737215 0.719334
vt 0.730634 0.724486
vt 0.722764 0.714508
vt 0.720429 0.709375
vt 0.703224 0.721988
vt 0.724440 0.719869
vt 0.708827 0.737483
vt 0.665708 0.771206
vt 0.610953 0.800619
vt 0.576251 0.815066
vt 0.540951 0.828947
vt 0.529634 0.833166
vt 0.542990 0.839697
vt 0.530937 0.844273
vt 0.578334 0.825736
vt 0.613125 0.811051
vt 0.668456 0.781513
vt 0.712427 0.745489
vt 0.127872 0.675524
vt 0.125798 0.599669
vt 0.091115 0.621182
vt 0.012276 0.679066
vt 0.088303 0.617103
vt 0.014000 0.657686
vt 0.011668 0.661351
vt 0.007308 0.679254
vt 0.006751 0.660787
vt 0.012082 0.659038
vt 0.007997 0.656452
vt 0.011379 0.653485
vt 0.125345 0.594754
vt 0.163772 0.561560
vt 0.177348 0.545672
vt 0.189744 0.524451
vt 0.192690 0.504766
vt 0.197894 0.504144
vt 0.192947 0.488212
vt 0.240403 0.483674
vt 0.198062 0.486901
vt 0.188604 0.467584
vt 0.183852 0.469648
vt 0.231570 0.463533
vt 0.245379 0.463795
vt 0.260275 0.463411
vt 0.170061 0.449936
vt 0.165465 0.451505
vt 0.116939 0.411136
vt 0.121782 0.409729
vt 0.114451 0.366586
vt 0.973238 0.257403
vt 0.913868 0.275728
vt 0.908789 0.257329
vt 0.968810 0.242932
vt 0.976325 0.238713
vt 0.958638 0.227599
vt 0.903124 0.236797
vt 0.901421 0.231612
vt 0.953643 0.223675
vt 0.951085 0.219061
vt 0.899760 0.226449
vt 0.950279 0.143557
vt 0.902903 0.144038
vt 0.898088 0.061707
vt 0.949554 0.068055
vt 0.899643 0.056512
vt 0.954803 0.143511
vt 0.959117 0.143467
vt 0.979619 0.220646
vt 0.977603 0.143280
vt 0.978051 0.065890
vt 0.956932 0.059366
vt 0.952017 0.063391
vt 0.901241 0.051294
vt 0.906489 0.030652
vt 0.966789 0.043830
vt 0.974389 0.047894
vt 0.970924 0.029271
vt 0.911195 0.012153
vt 0.796221 0.132889
vt 0.795401 0.134953
vt 0.793353 0.136732
vt 0.794972 0.069076
vt 0.753316 0.136902
vt 0.739943 0.069288
vt 0.748501 0.127868
vt 0.752905 0.001572
vt 0.795834 0.005255
vt 0.792941 0.001434
vt 0.795001 0.003197
vt 0.748145 0.010644
vt 0.737013 0.069299
vt 0.737156 0.118020
vt 0.736860 0.020579
vt 0.732830 0.069315
vt 0.722931 0.112120
vt 0.722671 0.026588
vt 0.723696 0.069350
vt 0.709017 0.110448
vt 0.708767 0.028366
vt 0.708892 0.069407
vt 0.695889 0.069458
vt 0.696019 0.112335
vt 0.695758 0.026579
vt 0.685565 0.069497
vt 0.685707 0.116204
vt 0.685422 0.022790
vt 0.672955 0.069546
vt 0.673126 0.125454
vt 0.672784 0.013637
vt 0.661526 0.069590
vt 0.665725 0.136348
vt 0.665317 0.002801
vt 0.627074 0.136510
vt 0.626665 0.002937
vt 0.624436 0.003866
vt 0.623713 0.069736
vt 0.624839 0.135598
vt 0.623907 0.133377
vt 0.623518 0.006095
vt 0.604315 0.516178
vt 0.561040 0.517260
vt 0.560793 0.511963
vt 0.602428 0.510811
vt 0.599864 0.430642
vt 0.559066 0.428191
vt 0.605145 0.410483
vt 0.562970 0.407594
vt 0.567728 0.377888
vt 0.570392 0.347582
vt 0.570985 0.320568
vt 0.571704 0.295255
vt 0.614786 0.295280
vt 0.570997 0.273470
vt 0.614409 0.273177
vt 0.442209 0.750318
vt 0.460914 0.750743
vt 0.460907 0.755763
vt 0.442230 0.755366
vt 0.437002 0.750209
vt 0.442496 0.832866
vt 0.460838 0.832856
vt 0.460999 0.909975
vt 0.442327 0.910467
vt 0.437271 0.832868
vt 0.437068 0.755283
vt 0.431914 0.755230
vt 0.431762 0.750286
vt 0.432046 0.832870
vt 0.437105 0.910578
vt 0.431883 0.910611
vt 0.348193 0.832830
vt 0.346950 0.910415
vt 0.344824 0.856797
vt 0.302652 0.910369
vt 0.303712 0.856778
vt 0.344831 0.832828
vt 0.344844 0.808852
vt 0.347019 0.755213
vt 0.346696 0.750295
vt 0.303588 0.750388
vt 0.302638 0.755200
vt 0.303705 0.808856
vt 0.288578 0.808842
vt 0.253288 0.751025
vt 0.253931 0.755141
vt 0.233844 0.754350
vt 0.232713 0.749529
vt 0.209242 0.753271
vt 0.208484 0.748381
vt 0.188712 0.753182
vt 0.188422 0.748323
vt 0.170879 0.751145
vt 0.171281 0.746240
vt 0.151253 0.739874
vt 0.152304 0.735159
vt 0.128089 0.728347
vt 0.129556 0.723730
vt 0.075335 0.701756
vt 0.076151 0.696960
vt 0.032499 0.697544
vt 0.032473 0.702563
vt 0.076960 0.833000
vt 0.127986 0.832931
vt 0.151495 0.832901
vt 0.171436 0.832881
vt 0.189588 0.832866
vt 0.210441 0.832851
vt 0.235311 0.832840
vt 0.255612 0.832832
vt 0.288464 0.832821
vt 0.288590 0.856797
vt 0.254007 0.910522
vt 0.233932 0.911302
vt 0.209372 0.912357
vt 0.188873 0.912527
vt 0.171074 0.914526
vt 0.151534 0.925901
vt 0.128421 0.937498
vt 0.075719 0.964603
vt 0.032704 0.963630
vt 0.032986 0.833044
vt 0.882490 0.365005
vt 0.987976 0.364089
vt 0.981582 0.372818
vt 0.882551 0.372361
vt 0.967493 0.398739
vt 0.882786 0.399470
vt 0.967649 0.416129
vt 0.882941 0.416857
vt 0.883099 0.434244
vt 0.967814 0.433518
vt 0.883351 0.461351
vt 0.982376 0.459194
vt 0.883418 0.468707
vt 0.988928 0.467811
vt 0.883567 0.486095
vt 0.989112 0.485197
vt 0.989242 0.502583
vt 0.883712 0.503479
vt 0.956620 0.993347
vt 0.997310 0.991350
vt 0.997423 0.995955
vt 0.955976 0.997773
vt 0.904348 0.971899
vt 0.905526 0.967657
vt 0.880813 0.961055
vt 0.951384 0.862346
vt 0.993302 0.861082
vt 0.989949 0.730830
vt 0.949227 0.731290
vt 0.989803 0.726227
vt 0.948335 0.726911
vt 0.898270 0.755849
vt 0.899685 0.760011
vt 0.901347 0.863847
vt 0.881606 0.956709
vt 0.861807 0.950447
vt 0.861990 0.945990
vt 0.844288 0.945272
vt 0.877984 0.864543
vt 0.876435 0.772381
vt 0.875396 0.768090
vt 0.857019 0.779838
vt 0.857473 0.784263
vt 0.839905 0.786064
vt 0.858950 0.865105
vt 0.843425 0.934075
vt 0.820949 0.946048
vt 0.819447 0.930440
vt 0.782566 0.946727
vt 0.841421 0.865617
vt 0.839668 0.797248
vt 0.816684 0.786655
vt 0.816018 0.802259
vt 0.778497 0.788128
vt 0.738747 0.790767
vt 0.776725 0.806152
vt 0.737720 0.808511
vt 0.699724 0.800967
vt 0.778510 0.867396
vt 0.818714 0.866270
vt 0.779866 0.928754
vt 0.742561 0.946235
vt 0.740661 0.928501
vt 0.702929 0.938042
vt 0.701770 0.922665
vt 0.659344 0.931366
vt 0.740116 0.868432
vt 0.699282 0.816330
vt 0.656651 0.809749
vt 0.660906 0.823726
vt 0.595075 0.825910
vt 0.701182 0.869442
vt 0.662989 0.917165
vt 0.597008 0.918095
vt 0.597031 0.906644
vt 0.541137 0.899899
vt 0.662259 0.870411
vt 0.595577 0.837330
vt 0.540090 0.846564
vt 0.542384 0.853792
vt 0.596439 0.871970
vt 0.543147 0.892567
vt 0.542139 0.873187
vt 0.508566 0.863268
vt 0.496661 0.863153
vt 0.507846 0.873906
vt 0.495210 0.874157
vt 0.497055 0.885122
vt 0.508963 0.884511
s 1
usemtl models_industrial_textures_anvil_01
f 2/1/1 1/2/2 3/3/3
f 2/1/1 3/3/3 4/4/4
f 4/4/4 5/5/5 2/1/1
f 6/6/6 5/5/5 4/4/4
f 8/7/7 7/8/8 4/4/4
f 4/4/4 7/8/8 6/6/6
f 8/7/7 4/4/4 9/9/9
f 9/9/9 4/4/4 3/3/3
f 3/3/3 10/10/10 11/11/11
f 9/9/9 3/3/3 12/12/12
f 11/11/11 12/12/12 3/3/3
f 12/12/12 11/11/11 13/13/13
f 13/13/13 14/14/14 12/12/12
f 9/9/9 12/12/12 14/14/14
f 14/14/14 15/15/15 9/9/9
f 9/9/9 15/15/15 16/16/16
f 16/16/16 8/7/7 9/9/9
f 8/7/7 16/16/16 17/17/17
f 7/8/8 8/7/7 18/18/18
f 17/17/17 18/18/18 8/7/7
f 7/8/8 18/18/18 19/19/19
f 6/6/6 7/8/8 19/19/19
f 19/19/19 20/20/20 6/6/6
f 20/20/20 19/19/19 21/21/21
f 21/21/21 22/22/22 20/20/20
f 23/23/23 22/22/22 21/21/21
f 24/24/24 23/23/23 25/25/25
f 21/21/21 25/25/25 23/23/23
f 25/25/25 21/21/21 26/26/26
f 26/26/26 21/21/21 19/19/19
f 19/19/19 18/18/18 26/26/26
f 27/27/27 18/18/18 17/17/17
f 26/26/26 18/18/18 27/27/27
f 27/27/27 17/17/17 28/28/28
f 26/26/26 27/27/27 29/29/29
f 30/30/30 26/26/26 29/29/29
f 30/30/30 31/31/31 26/26/26
f 26/26/26 31/31/31 25/25/25
f 32/32/32 25/25/25 31/31/31
f 25/25/25 32/32/32 24/24/24
f 24/24/24 32/32/32 33/33/33
f 33/33/33 34/34/34 24/24/24
f 35/35/35 34/34/34 33/33/33
f 37/36/36 36/37/37 35/35/35
f 33/33/33 37/36/36 35/35/35
f 37/36/36 33/33/33 38/38/38
f 33/33/33 32/32/32 39/39/39
f 39/39/39 38/38/38 33/33/33
f 39/39/39 32/32/32 31/31/31
f 40/40/40 31/31/31 30/30/30
f 39/39/39 31/31/31 40/40/40
f 40/40/40 30/30/30 41/41/41
f 42/42/42 40/40/40 41/41/41
f 42/42/42 43/43/31 40/40/40
f 44/44/43 40/40/40 43/43/31
f 40/40/40 44/44/43 39/39/39
f 38/38/38 39/39/39 44/44/43
f 38/38/38 45/45/44 46/46/45
f 44/44/43 45/45/44 38/38/38
f 38/38/38 46/46/45 47/47/46
f 38/38/38 47/47/46 37/36/36
f 37/36/36 47/47/46 48/48/47
f 48/48/47 49/49/48 37/36/36
f 48/48/47 47/47/46 50/50/47
f 47/47/46 46/46/45 50/50/47
f 46/46/45 51/51/49 50/50/47
f 51/51/49 46/46/45 52/52/50
f 52/52/50 46/46/45 45/45/44
f 53/53/51 45/45/44 44/44/43
f 45/45/44 53/53/51 52/52/50
f 53/53/51 44/44/43 54/54/52
f 43/43/31 54/54/52 44/44/43
f 53/53/51 54/54/52 55/55/53
f 54/54/52 56/56/54 55/55/53
f 56/56/54 54/54/52 43/43/31
f 58/57/55 57/58/56 43/43/31
f 43/43/31 57/58/56 56/56/54
f 58/57/55 43/43/31 59/59/26
f 59/59/26 43/43/31 42/42/42
f 59/59/26 42/42/42 60/60/57
f 61/61/58 59/59/26 60/60/57
f 61/61/58 62/62/18 59/59/26
f 58/57/55 59/59/26 62/62/18
f 57/58/56 58/57/55 63/63/59
f 58/57/55 62/62/18 64/64/60
f 63/63/59 58/57/55 64/64/60
f 64/64/60 62/62/18 65/65/61
f 63/63/59 64/64/60 66/66/62
f 66/66/62 64/64/60 65/65/61
f 63/63/59 66/66/62 67/67/63
f 66/66/62 65/65/61 68/68/64
f 69/69/65 67/67/63 66/66/62
f 66/66/62 68/68/64 69/69/65
f 70/70/66 69/69/65 68/68/64
f 68/68/64 65/65/61 70/70/66
f 65/65/61 62/62/18 71/71/67
f 70/70/66 65/65/61 71/71/67
f 16/16/16 62/62/18 17/17/17
f 16/16/16 71/71/67 62/62/18
f 17/17/17 62/62/18 61/61/58
f 17/17/17 61/61/58 28/28/28
f 72/72/68 52/52/50 53/53/51
f 53/53/51 55/55/53 72/72/68
f 55/55/53 56/56/54 73/73/69
f 72/72/68 55/55/53 74/74/70
f 73/73/69 74/74/70 55/55/53
f 72/72/68 74/74/70 75/75/71
f 74/74/70 73/73/69 76/76/72
f 76/76/72 77/77/73 74/74/70
f 76/76/72 73/73/69 56/56/54
f 56/56/54 57/58/56 76/76/72
f 63/63/59 76/76/72 57/58/56
f 78/78/74 76/76/72 63/63/59
f 77/77/73 76/76/72 78/78/74
f 79/79/75 63/63/59 67/67/63
f 63/63/59 79/79/75 78/78/74
f 80/80/76 78/78/74 79/79/75
f 79/79/75 81/81/77 80/80/76
f 82/82/78 80/80/76 81/81/77
f 81/81/77 83/83/79 82/82/78
f 84/84/80 83/83/79 81/81/77
f 81/81/77 85/85/76 84/84/80
f 85/85/76 81/81/77 79/79/75
f 79/79/75 67/67/63 85/85/76
f 67/67/63 69/69/65 86/86/81
f 69/69/65 70/70/66 87/87/82
f 87/87/82 88/88/81 69/69/65
f 87/87/82 70/70/66 89/89/83
f 71/71/67 89/89/83 70/70/66
f 87/87/82 89/89/83 90/90/84
f 89/89/83 16/16/16 15/15/15
f 90/90/84 89/89/83 15/15/15
f 16/16/16 89/89/83 71/71/67
f 90/90/84 15/15/15 14/14/14
f 13/13/13 90/90/84 14/14/14
f 90/90/84 13/13/13 91/91/85
f 91/91/85 92/92/76 90/90/84
f 92/92/76 91/91/85 93/93/86
f 90/90/84 92/92/76 94/94/76
f 93/93/86 94/94/76 92/92/76
f 90/90/84 94/94/76 95/95/82
f 96/96/87 95/95/82 94/94/76
f 94/94/76 97/97/76 96/96/87
f 97/97/76 94/94/76 93/93/86
f 93/93/86 98/98/88 97/97/76
f 99/99/89 96/96/87 97/97/76
f 101/100/90 100/101/76 102/102/71
f 102/102/71 100/101/76 103/103/76
f 103/103/76 104/104/68 102/102/71
f 52/52/50 104/104/68 103/103/76
f 103/103/76 105/105/76 52/52/50
f 52/52/50 105/105/76 51/51/49
f 105/105/76 103/103/76 106/106/91
f 106/106/91 51/51/49 105/105/76
f 106/106/91 103/103/76 100/101/76
f 100/101/76 107/107/92 106/106/91
f 109/108/93 108/109/94 110/110/95
f 110/110/95 111/111/96 109/108/93
f 112/112/97 111/111/96 110/110/95
f 110/110/95 113/113/98 112/112/97
f 114/114/99 112/112/97 113/113/98
f 113/113/98 115/115/100 114/114/99
f 116/116/101 114/114/99 115/115/100
f 115/115/100 117/117/102 116/116/101
f 118/118/103 116/116/101 117/117/102
f 117/117/102 119/119/104 118/118/103
f 120/120/105 118/118/103 119/119/104
f 119/119/104 121/121/106 120/120/105
f 118/118/103 120/120/105 122/122/107
f 116/116/101 118/118/103 122/122/107
f 114/114/99 116/116/101 123/123/108
f 122/122/107 123/123/108 116/116/101
f 114/114/99 123/123/108 124/124/109
f 112/112/97 114/114/99 124/124/109
f 111/111/96 112/112/97 125/125/110
f 124/124/109 125/125/110 112/112/97
f 111/111/96 125/125/110 126/126/111
f 127/127/112 109/108/93 111/111/96
f 111/111/96 126/126/111 127/127/112
f 109/108/93 127/127/112 128/128/113
f 128/128/113 127/127/112 129/129/114
f 130/130/11 128/128/113 129/129/114
f 131/131/115 127/127/112 126/126/111
f 129/129/114 127/127/112 131/131/115
f 131/131/115 126/126/111 132/132/116
f 133/133/117 132/132/116 126/126/111
f 126/126/111 125/125/110 133/133/117
f 134/134/118 133/133/117 125/125/110
f 125/125/110 124/124/109 134/134/118
f 135/135/119 134/134/118 124/124/109
f 124/124/109 123/123/108 135/135/119
f 136/136/120 135/135/119 123/123/108
f 123/123/108 122/122/107 136/136/120
f 136/136/120 122/122/107 120/120/105
f 132/132/116 137/137/121 131/131/115
f 131/131/115 137/137/121 138/138/122
f 139/139/123 131/131/115 140/140/124
f 138/138/122 140/140/124 131/131/115
f 131/131/115 139/139/123 129/129/114
f 141/141/125 129/129/114 139/139/123
f 130/130/11 129/129/114 141/141/125
f 130/130/11 141/141/125 142/142/126
f 130/130/11 142/142/126 143/143/13
f 142/142/126 141/141/125 144/144/127
f 141/141/125 139/139/123 145/145/123
f 141/141/125 145/145/123 144/144/127
f 145/145/123 139/139/123 146/146/128
f 140/140/124 146/146/128 139/139/123
f 146/146/128 140/140/124 147/147/129
f 140/140/124 138/138/122 148/148/130
f 148/148/130 147/147/129 140/140/124
f 147/147/129 148/148/130 149/149/131
f 149/149/131 150/150/132 147/147/129
f 150/150/132 149/149/131 151/151/133
f 147/147/129 150/150/132 152/152/134
f 147/147/129 153/153/135 146/146/128
f 147/147/129 152/152/134 153/153/135
f 154/154/136 146/146/128 153/153/135
f 146/146/128 154/154/136 145/145/123
f 145/145/123 154/154/136 155/155/137
f 155/155/137 144/144/127 145/145/123
f 155/155/137 154/154/136 156/156/138
f 153/153/135 156/156/138 154/154/136
f 157/157/139 156/156/138 153/153/135
f 153/153/135 152/152/134 158/158/140
f 153/153/135 158/158/140 157/157/139
f 158/158/140 152/152/134 159/159/141
f 160/160/142 157/157/139 158/158/140
f 158/158/140 159/159/141 160/160/142
f 159/159/141 161/161/143 162/162/144
f 162/162/144 160/160/142 159/159/141
f 161/161/143 159/159/141 163/163/145
f 152/152/134 163/163/145 159/159/141
f 164/164/146 163/163/145 152/152/134
f 164/164/146 152/152/134 150/150/132
f 150/150/132 165/165/147 164/164/146
f 151/151/133 165/165/147 150/150/132
f 166/166/148 165/165/147 151/151/133
f 151/151/133 167/167/149 166/166/148
f 164/164/146 165/165/147 168/168/150
f 165/165/147 166/166/148 168/168/150
f 164/164/146 168/168/150 169/169/151
f 169/169/151 163/163/145 164/164/146
f 163/163/145 169/169/151 161/161/143
f 170/170/152 161/161/143 169/169/151
f 161/161/143 170/170/152 171/171/153
f 171/171/153 162/162/144 161/161/143
f 162/162/144 171/171/153 172/172/154
f 160/160/142 162/162/144 173/173/155
f 172/172/154 173/173/155 162/162/144
f 160/160/142 173/173/155 174/174/156
f 160/160/142 174/174/156 157/157/139
f 174/174/156 173/173/155 175/175/157
f 175/175/157 173/173/155 172/172/154
f 174/174/156 175/175/157 176/176/158
f 174/174/156 176/176/158 157/157/139
f 176/176/158 175/175/157 177/177/159
f 157/157/139 176/176/158 178/178/160
f 177/177/159 178/178/160 176/176/158
f 156/156/138 157/157/139 179/179/161
f 157/157/139 178/178/160 180/180/162
f 180/180/162 179/179/161 157/157/139
f 180/180/162 178/178/160 181/181/163
f 178/178/160 177/177/159 181/181/163
f 179/179/161 180/180/162 182/182/164
f 182/182/164 180/180/162 181/181/163
f 183/183/165 179/179/161 182/182/164
f 184/184/166 179/179/161 183/183/165
f 156/156/138 179/179/161 184/184/166
f 156/156/138 184/184/166 155/155/137
f 184/184/166 183/183/165 185/185/167
f 155/155/137 184/184/166 186/186/168
f 185/185/167 186/186/168 184/184/166
f 155/155/137 186/186/168 187/187/169
f 144/144/127 155/155/137 187/187/169
f 187/187/169 188/188/170 144/144/127
f 142/142/126 144/144/127 188/188/170
f 188/188/170 187/187/169 189/189/171
f 187/187/169 186/186/168 190/190/172
f 190/190/172 189/189/171 187/187/169
f 190/190/172 186/186/168 191/191/173
f 186/186/168 185/185/167 191/191/173
f 192/192/174 191/191/173 185/185/167
f 185/185/167 183/183/165 193/193/175
f 192/192/174 185/185/167 194/194/176
f 193/193/175 194/194/176 185/185/167
f 192/192/174 194/194/176 195/195/177
f 194/194/176 196/196/178 195/195/177
f 197/197/179 195/195/177 196/196/178
f 198/198/180 194/194/176 193/193/175
f 198/198/180 196/196/178 194/194/176
f 198/198/180 193/193/175 199/199/181
f 182/182/164 193/193/175 183/183/165
f 193/193/175 182/182/164 199/199/181
f 181/181/163 199/199/181 182/182/164
f 199/199/181 181/181/163 200/200/182
f 198/198/180 199/199/181 201/201/183
f 200/200/182 201/201/183 199/199/181
f 198/198/180 201/201/183 202/202/184
f 196/196/178 198/198/180 202/202/184
f 196/196/178 203/203/185 197/197/179
f 202/202/184 203/203/185 196/196/178
f 203/203/185 202/202/184 204/204/186
f 204/204/186 202/202/184 201/201/183
f 205/205/187 201/201/183 200/200/182
f 201/201/183 205/205/187 204/204/186
f 205/205/187 200/200/182 206/206/188
f 203/203/185 204/204/186 207/207/189
f 197/197/179 203/203/185 207/207/189
f 207/207/189 208/208/190 197/197/179
f 189/189/171 209/209/191 188/188/170
f 210/210/192 188/188/170 209/209/191
f 188/188/170 210/210/192 142/142/126
f 210/210/192 209/209/191 211/211/193
f 210/210/192 211/211/193 212/212/194
f 212/212/194 213/213/195 210/210/192
f 142/142/126 210/210/192 213/213/195
f 213/213/195 212/212/194 214/214/196
f 142/142/126 213/213/195 215/215/197
f 213/213/195 214/214/196 216/216/198
f 215/215/197 213/213/195 216/216/198
f 217/217/199 214/214/196 218/218/200
f 217/217/199 216/216/198 214/214/196
f 217/217/199 218/218/200 219/219/201
f 220/220/202 219/219/201 221/221/203
f 219/219/201 220/220/202 217/217/199
f 222/222/204 217/217/199 220/220/202
f 216/216/198 217/217/199 222/222/204
f 222/222/204 223/223/205 216/216/198
f 216/216/198 223/223/205 215/215/197
f 223/223/205 143/143/13 215/215/197
f 215/215/197 143/143/13 142/142/126
f 143/143/13 223/223/205 224/224/206
f 223/223/205 225/225/207 224/224/206
f 225/225/207 223/223/205 222/222/204
f 226/226/208 224/224/206 225/225/207
f 225/225/207 222/222/204 227/227/209
f 220/220/202 227/227/209 222/222/204
f 227/227/209 220/220/202 228/228/210
f 221/221/203 228/228/210 220/220/202
f 227/227/209 228/228/210 225/225/207
f 225/225/207 228/228/210 226/226/208
f 229/229/211 226/226/208 228/228/210
f 228/228/210 221/221/203 229/229/211
f 231/230/212 230/231/213 232/232/214
f 232/232/214 233/233/215 231/230/212
f 233/233/215 232/232/214 234/234/216
f 231/230/212 233/233/215 235/235/217
f 235/235/217 236/236/218 231/230/212
f 235/235/217 233/233/215 237/237/219
f 234/234/216 237/237/219 233/233/215
f 237/237/219 234/234/216 238/238/220
f 238/238/220 239/239/221 237/237/219
f 240/240/222 237/237/219 239/239/221
f 237/237/219 240/240/222 235/235/217
f 241/241/223 235/235/217 240/240/222
f 236/236/218 235/235/217 241/241/223
f 241/241/223 242/242/224 236/236/218
f 242/242/224 241/241/223 243/243/225
f 243/243/225 244/244/226 242/242/224
f 243/243/225 241/241/223 245/245/227
f 240/240/222 245/245/227 241/241/223
f 245/245/227 240/240/222 246/246/228
f 239/239/221 246/246/228 240/240/222
f 246/246/228 239/239/221 247/247/229
f 247/247/229 239/239/221 238/238/220
f 238/238/220 248/248/230 247/247/229
f 248/248/230 249/249/231 250/250/232
f 250/250/232 247/247/229 248/248/230
f 251/251/233 247/247/229 250/250/232
f 247/247/229 251/251/233 246/246/228
f 251/251/233 252/252/234 246/246/228
f 246/246/228 252/252/234 245/245/227
f 253/253/235 245/245/227 252/252/234
f 245/245/227 253/253/235 243/243/225
f 254/254/236 243/243/225 253/253/235
f 244/244/226 243/243/225 254/254/236
f 254/254/236 255/255/237 244/244/226
f 255/255/237 254/254/236 256/256/238
f 256/256/238 257/257/239 255/255/237
f 258/258/240 257/257/239 256/256/238
f 259/259/241 258/258/240 260/260/242
f 256/256/238 260/260/242 258/258/240
f 259/259/241 260/260/242 261/261/243
f 262/262/244 259/259/241 261/261/243
f 263/263/245 262/262/244 264/264/246
f 261/261/243 264/264/246 262/262/244
f 263/263/245 264/264/246 265/265/247
f 266/266/248 263/263/245 265/265/247
f 267/267/249 264/264/246 268/268/250
f 267/267/249 265/265/247 264/264/246
f 268/268/250 264/264/246 261/261/243
f 261/261/243 269/269/251 268/268/250
f 269/269/251 261/261/243 260/260/242
f 260/260/242 270/270/252 269/269/251
f 270/270/252 260/260/242 256/256/238
f 256/256/238 271/271/253 270/270/252
f 272/272/254 271/271/253 256/256/238
f 256/256/238 254/254/236 272/272/254
f 253/253/235 272/272/254 254/254/236
f 272/272/254 253/253/235 273/273/255
f 252/252/234 273/273/255 253/253/235
f 252/252/234 251/251/233 274/274/256
f 274/274/256 273/273/255 252/252/234
f 275/275/257 273/273/255 274/274/256
f 273/273/255 275/275/257 272/272/254
f 271/271/253 272/272/254 275/275/257
f 270/270/252 271/271/253 276/276/258
f 275/275/257 276/276/258 271/271/253
f 270/270/252 276/276/258 277/277/259
f 269/269/251 270/270/252 277/277/259
f 278/278/260 276/276/258 275/275/257
f 278/278/260 277/277/259 276/276/258
f 278/278/260 275/275/257 274/274/256
f 251/251/233 279/279/261 274/274/256
f 278/278/260 274/274/256 279/279/261
f 279/279/261 251/251/233 250/250/232
f 278/278/260 279/279/261 280/280/262
f 279/279/261 250/250/232 281/281/263
f 282/282/264 280/280/262 279/279/261
f 279/279/261 281/281/263 282/282/264
f 280/280/262 282/282/264 283/283/265
f 284/284/266 282/282/264 281/281/263
f 283/283/265 282/282/264 284/284/266
f 284/284/266 281/281/263 285/285/267
f 281/281/263 250/250/232 286/286/268
f 285/285/267 281/281/263 286/286/268
f 286/286/268 250/250/232 249/249/231
f 249/249/231 287/287/269 286/286/268
f 288/288/270 286/286/268 287/287/269
f 286/286/268 288/288/270 285/285/267
f 288/288/270 287/287/269 289/289/271
f 288/288/270 289/289/271 290/290/272
f 290/290/272 291/291/273 288/288/270
f 291/291/273 290/290/272 292/292/274
f 293/293/275 292/292/274 294/294/276
f 292/292/274 293/293/275 291/291/273
f 295/295/277 291/291/273 293/293/275
f 296/296/278 291/291/273 295/295/277
f 288/288/270 291/291/273 296/296/278
f 288/288/270 296/296/278 297/297/279
f 297/297/279 285/285/267 288/288/270
f 285/285/267 297/297/279 298/298/280
f 298/298/280 284/284/266 285/285/267
f 299/299/281 284/284/266 298/298/280
f 284/284/266 299/299/281 283/283/265
f 299/299/281 298/298/280 300/300/282
f 300/300/282 298/298/280 301/301/47
f 297/297/279 301/301/47 298/298/280
f 297/297/279 302/302/283 301/301/47
f 297/297/279 296/296/278 302/302/283
f 302/302/283 296/296/278 303/303/284
f 295/295/277 303/303/284 296/296/278
f 303/303/284 295/295/277 304/304/285
f 304/304/285 295/295/277 305/305/286
f 293/293/275 305/305/286 295/295/277
f 305/305/286 293/293/275 306/306/287
f 294/294/276 306/306/287 293/293/275
f 306/306/287 294/294/276 307/307/288
f 307/307/288 308/308/289 306/306/287
f 308/308/289 307/307/288 309/309/290
f 310/310/291 306/306/287 308/308/289
f 306/306/287 310/310/291 305/305/286
f 311/311/292 305/305/286 310/310/291
f 305/305/286 311/311/292 304/304/285
f 311/311/292 310/310/291 312/312/293
f 312/312/293 310/310/291 313/313/294
f 308/308/289 313/313/294 310/310/291
f 313/313/294 308/308/289 314/314/295
f 309/309/290 314/314/295 308/308/289
f 315/315/296 314/314/295 309/309/290
f 316/316/297 314/314/295 315/315/296
f 314/314/295 316/316/297 313/313/294
f 317/317/298 313/313/294 316/316/297
f 313/313/294 317/317/298 312/312/293
f 317/317/298 316/316/297 318/318/299
f 318/318/299 316/316/297 315/315/296
f 319/319/300 317/317/298 318/318/299
f 317/317/298 319/319/300 320/320/301
f 320/320/301 312/312/293 317/317/298
f 312/312/293 320/320/301 321/321/302
f 321/321/302 311/311/292 312/312/293
f 311/311/292 321/321/302 322/322/303
f 322/322/303 304/304/285 311/311/292
f 304/304/285 322/322/303 323/323/304
f 304/304/285 324/324/305 303/303/284
f 323/323/304 324/324/305 304/304/285
f 325/325/306 323/323/304 322/322/303
f 322/322/303 326/326/307 325/325/306
f 326/326/307 322/322/303 321/321/302
f 321/321/302 327/327/307 326/326/307
f 327/327/307 321/321/302 320/320/301
f 320/320/301 328/328/308 327/327/307
f 328/328/308 320/320/301 319/319/300
f 319/319/300 329/329/309 328/328/308
f 329/329/309 319/319/300 330/330/310
f 318/318/299 330/330/310 319/319/300
f 330/330/310 318/318/299 331/331/311
f 315/315/296 331/331/311 318/318/299
f 332/332/312 331/331/311 315/315/296
f 315/315/296 333/333/313 332/332/312
f 332/332/312 333/333/313 334/334/314
f 334/334/314 335/335/315 332/332/312
f 336/336/316 332/332/312 335/335/315
f 331/331/311 332/332/312 336/336/316
f 336/336/316 337/337/317 331/331/311
f 331/331/311 337/337/317 330/330/310
f 338/338/318 330/330/310 337/337/317
f 330/330/310 338/338/318 329/329/309
f 338/338/318 337/337/317 336/336/316
f 335/335/315 339/339/319 336/336/316
f 338/338/318 336/336/316 339/339/319
f 339/339/319 335/335/315 340/340/320
f 339/339/319 340/340/320 338/338/318
f 329/329/309 338/338/318 340/340/320
f 328/328/308 329/329/309 341/341/321
f 340/340/320 341/341/321 329/329/309
f 328/328/308 341/341/321 342/342/322
f 327/327/307 328/328/308 342/342/322
f 326/326/307 327/327/307 343/343/323
f 342/342/322 343/343/323 327/327/307
f 326/326/307 343/343/323 344/344/324
f 325/325/306 326/326/307 344/344/324
f 344/344/324 345/345/325 325/325/306
f 345/345/325 344/344/324 346/346/326
f 346/346/326 347/347/94 345/345/325
f 346/346/326 344/344/324 348/348/98
f 344/344/324 343/343/323 348/348/98
f 349/349/327 348/348/98 343/343/323
f 343/343/323 342/342/322 349/349/327
f 342/342/322 341/341/321 350/350/328
f 350/350/328 349/349/327 342/342/322
f 350/350/328 341/341/321 351/351/329
f 341/341/321 340/340/320 351/351/329
f 335/335/315 351/351/329 340/340/320
f 300/300/282 301/301/47 352/352/47
f 353/353/330 352/352/47 354/354/331
f 300/300/282 352/352/47 353/353/330
f 354/354/331 352/352/47 355/355/332
f 353/353/330 354/354/331 356/356/333
f 354/354/331 355/355/332 357/357/334
f 356/356/333 354/354/331 357/357/334
f 358/358/335 355/355/332 359/359/91
f 357/357/334 355/355/332 358/358/335
f 358/358/335 359/359/91 360/360/336
f 357/357/334 358/358/335 361/361/337
f 361/361/337 358/358/335 360/360/336
f 360/360/336 362/362/338 361/361/337
f 361/361/337 362/362/338 363/363/339
f 363/363/339 357/357/334 361/361/337
f 357/357/334 363/363/339 356/356/333
f 356/356/333 364/364/340 353/353/330
f 300/300/282 353/353/330 364/364/340
f 364/364/340 365/365/341 300/300/282
f 300/300/282 365/365/341 366/366/342
f 366/366/342 299/299/281 300/300/282
f 299/299/281 366/366/342 367/367/343
f 367/367/343 283/283/265 299/299/281
f 283/283/265 367/367/343 368/368/344
f 369/369/345 368/368/344 370/370/346
f 368/368/344 369/369/345 283/283/265
f 283/283/265 369/369/345 280/280/262
f 371/371/347 280/280/262 369/369/345
f 371/371/347 278/278/260 280/280/262
f 371/371/347 369/369/345 372/372/348
f 370/370/346 372/372/348 369/369/345
f 373/373/349 372/372/348 370/370/346
f 370/370/346 374/374/350 373/373/349
f 372/372/348 373/373/349 375/375/351
f 375/375/351 371/371/347 372/372/348
f 371/371/347 375/375/351 376/376/352
f 278/278/260 371/371/347 376/376/352
f 278/278/260 377/377/353 277/277/259
f 376/376/352 377/377/353 278/278/260
f 277/277/259 377/377/353 269/269/251
f 269/269/251 377/377/353 376/376/352
f 376/376/352 268/268/250 269/269/251
f 268/268/250 376/376/352 375/375/351
f 375/375/351 267/267/249 268/268/250
f 267/267/249 375/375/351 373/373/349
f 373/373/349 378/378/354 267/267/249
f 378/378/354 373/373/349 374/374/350
f 374/374/350 379/379/355 378/378/354
f 379/379/355 380/380/356 381/381/357
f 381/381/357 378/378/354 379/379/355
f 378/378/354 381/381/357 265/265/247
f 265/265/247 267/267/249 378/378/354
f 265/265/247 381/381/357 266/266/248
f 266/266/248 381/381/357 380/380/356
f 380/380/356 382/382/358 266/266/248
f 384/383/359 383/384/113 385/385/1
f 387/386/360 386/387/361 384/383/359
f 385/385/1 387/386/360 384/383/359
f 386/387/361 387/386/360 388/388/362
f 388/388/362 387/386/360 385/385/1
f 385/385/1 389/389/363 388/388/362
f 389/389/363 390/390/364 391/391/365
f 391/391/365 388/388/362 389/389/363
f 391/391/365 390/390/364 392/392/366
f 390/390/364 393/393/367 392/392/366
f 394/394/368 392/392/366 393/393/367
f 393/393/367 395/395/22 394/394/368
f 394/394/368 395/395/22 396/396/369
f 396/396/369 397/397/370 394/394/368
f 397/397/370 396/396/369 398/398/371
f 399/399/372 394/394/368 397/397/370
f 392/392/366 394/394/368 399/399/372
f 399/399/372 391/391/365 392/392/366
f 391/391/365 399/399/372 400/400/373
f 400/400/373 388/388/362 391/391/365
f 401/401/374 388/388/362 400/400/373
f 388/388/362 401/401/374 386/387/361
f 401/401/374 400/400/373 402/402/306
f 400/400/373 403/403/304 402/402/306
f 400/400/373 404/404/375 403/403/304
f 405/405/376 404/404/375 400/400/373
f 400/400/373 399/399/372 405/405/376
f 397/397/370 405/405/376 399/399/372
f 398/398/371 405/405/376 397/397/370
f 405/405/376 398/398/371 406/406/377
f 406/406/377 404/404/375 405/405/376
f 404/404/375 406/406/377 407/407/35
f 408/408/378 403/403/304 404/404/375
f 407/407/35 408/408/378 404/404/375
f 403/403/304 408/408/378 409/409/379
f 409/409/379 408/408/378 410/410/380
f 410/410/380 408/408/378 407/407/35
f 407/407/35 411/411/283 410/410/380
f 413/412/381 412/413/382 414/414/383
f 414/414/383 415/415/384 413/412/381
f 415/415/384 414/414/383 416/416/385
f 417/417/76 416/416/385 418/418/224
f 416/416/385 417/417/76 415/415/384
f 415/415/384 417/417/76 419/419/386
f 419/419/386 420/420/387 415/415/384
f 420/420/387 419/419/386 421/421/388
f 421/421/388 422/422/389 420/420/387
f 423/423/390 419/419/386 417/417/76
f 418/418/224 424/424/76 417/417/76
f 417/417/76 424/424/76 423/423/390
f 424/424/76 418/418/224 425/425/391
f 426/426/392 423/423/390 424/424/76
f 424/424/76 425/425/391 427/427/76
f 424/424/76 427/427/76 426/426/392
f 427/427/76 425/425/391 428/428/393
f 429/429/394 426/426/392 427/427/76
f 427/427/76 428/428/393 430/430/76
f 427/427/76 430/430/76 429/429/394
f 430/430/76 428/428/393 431/431/395
f 432/432/396 429/429/394 430/430/76
f 430/430/76 431/431/395 433/433/76
f 430/430/76 433/433/76 432/432/396
f 433/433/76 431/431/395 434/434/76
f 432/432/396 433/433/76 434/434/76
f 434/434/76 431/431/395 435/435/240
f 432/432/396 434/434/76 436/436/397
f 434/434/76 435/435/240 437/437/76
f 436/436/397 434/434/76 437/437/76
f 437/437/76 435/435/240 438/438/398
f 436/436/397 437/437/76 439/439/399
f 437/437/76 438/438/398 440/440/76
f 439/439/399 437/437/76 440/440/76
f 440/440/76 438/438/398 441/441/400
f 439/439/399 440/440/76 442/442/401
f 440/440/76 441/441/400 443/443/76
f 442/442/401 440/440/76 443/443/76
f 443/443/76 441/441/400 444/444/402
f 442/442/401 443/443/76 445/445/403
f 443/443/76 444/444/402 446/446/404
f 447/447/405 445/445/403 443/443/76
f 443/443/76 448/448/406 447/447/405
f 448/448/406 443/443/76 449/449/407
f 446/446/404 449/449/407 443/443/76
f 449/449/407 446/446/404 450/450/408
f 450/450/408 451/451/409 449/449/407
f 449/449/407 452/452/410 448/448/406
f 454/453/411 453/454/412 455/455/413
f 455/455/413 456/456/414 454/453/411
f 167/167/149 454/453/411 456/456/414
f 456/456/414 166/166/148 167/167/149
f 166/166/148 456/456/414 457/457/415
f 457/457/415 456/456/414 455/455/413
f 455/455/413 458/458/386 457/457/415
f 459/459/416 457/457/415 458/458/386
f 458/458/386 460/460/417 459/459/416
f 168/168/150 457/457/415 459/459/416
f 457/457/415 168/168/150 166/166/148
f 168/168/150 459/459/416 169/169/151
f 169/169/151 459/459/416 170/170/152
f 170/170/152 459/459/416 460/460/417
f 460/460/417 461/461/418 170/170/152
f 171/171/153 170/170/152 461/461/418
f 461/461/418 462/462/419 171/171/153
f 172/172/154 171/171/153 462/462/419
f 462/462/419 463/463/420 172/172/154
f 172/172/154 463/463/420 464/464/421
f 172/172/154 465/465/422 175/175/157
f 464/464/421 465/465/422 172/172/154
f 465/465/422 464/464/421 466/466/423
f 467/467/424 466/466/423 206/206/188
f 466/466/423 467/467/424 465/465/422
f 465/465/422 467/467/424 177/177/159
f 177/177/159 175/175/157 465/465/422
f 177/177/159 467/467/424 181/181/163
f 467/467/424 200/200/182 181/181/163
f 206/206/188 200/200/182 467/467/424
f 469/468/425 468/469/426 470/470/427
f 470/470/427 471/471/428 469/468/425
f 472/472/429 469/468/425 471/471/428
f 471/471/428 470/470/427 473/473/430
f 470/470/427 474/474/79 473/473/430
f 473/473/430 474/474/79 475/475/211
f 475/475/211 476/476/431 473/473/430
f 477/477/432 473/473/430 476/476/431
f 471/471/428 473/473/430 477/477/432
f 471/471/428 478/478/92 472/472/429
f 477/477/432 478/478/92 471/471/428
f 472/472/429 478/478/92 479/479/433
f 479/479/433 480/480/434 472/472/429
f 479/479/433 478/478/92 481/481/435
f 478/478/92 477/477/432 481/481/435
f 481/481/435 477/477/432 482/482/436
f 476/476/431 482/482/436 477/477/432
f 481/481/435 482/482/436 483/483/437
f 479/479/433 481/481/435 484/484/75
f 484/484/75 481/481/435 483/483/437
f 483/483/437 485/485/196 484/484/75
f 486/486/438 485/485/196 487/487/439
f 484/484/75 485/485/196 486/486/438
f 486/486/438 487/487/439 488/488/440
f 484/484/75 486/486/438 489/489/441
f 484/484/75 489/489/441 490/490/442
f 484/484/75 491/491/443 479/479/433
f 490/490/442 491/491/443 484/484/75
f 479/479/433 491/491/443 480/480/434
f 491/491/443 492/492/333 480/480/434
f 493/493/444 492/492/333 491/491/443
f 491/491/443 494/494/445 493/493/444
f 494/494/445 491/491/443 490/490/442
f 490/490/442 495/495/446 494/494/445
f 494/494/445 495/495/446 496/496/447
f 497/497/341 493/493/444 494/494/445
f 494/494/445 496/496/447 498/498/448
f 494/494/445 498/498/448 497/497/341
f 497/497/341 498/498/448 499/499/449
f 499/499/449 500/500/450 497/497/341
f 500/500/450 499/499/449 501/501/451
f 501/501/451 502/502/452 500/500/450
f 502/502/452 501/501/451 503/503/453
f 503/503/453 504/504/454 502/502/452
f 504/504/454 503/503/453 505/505/455
f 505/505/455 506/506/456 504/504/454
f 506/506/456 505/505/455 507/507/457
f 507/507/457 508/508/458 506/506/456
f 508/508/458 507/507/457 509/509/459
f 509/509/459 510/510/460 508/508/458
f 510/510/460 509/509/459 511/511/461
f 511/511/461 512/512/462 510/510/460
f 513/513/358 512/512/462 511/511/461
f 511/511/461 514/514/463 513/513/358
f 514/514/463 511/511/461 515/515/464
f 515/515/464 511/511/461 509/509/459
f 509/509/459 516/516/465 515/515/464
f 516/516/465 509/509/459 507/507/457
f 517/517/466 507/507/457 505/505/455
f 507/507/457 517/517/466 516/516/465
f 517/517/466 505/505/455 518/518/467
f 518/518/467 505/505/455 503/503/453
f 519/519/468 503/503/453 501/501/451
f 503/503/453 519/519/468 518/518/467
f 519/519/468 501/501/451 520/520/469
f 520/520/469 501/501/451 499/499/449
f 499/499/449 498/498/448 521/521/470
f 499/499/449 521/521/470 520/520/469
f 521/521/470 498/498/448 522/522/471
f 522/522/471 498/498/448 496/496/447
f 496/496/447 523/523/472 522/522/471
f 522/522/471 523/523/472 524/524/473
f 524/524/473 525/525/193 522/522/471
f 521/521/470 522/522/471 525/525/193
f 520/520/469 521/521/470 526/526/474
f 525/525/193 526/526/474 521/521/470
f 520/520/469 526/526/474 527/527/475
f 519/519/468 520/520/469 527/527/475
f 527/527/475 528/528/476 519/519/468
f 518/518/467 519/519/468 528/528/476
f 528/528/476 529/529/477 518/518/467
f 517/517/466 518/518/467 529/529/477
f 529/529/477 530/530/478 517/517/466
f 516/516/465 517/517/466 530/530/478
f 515/515/464 516/516/465 531/531/479
f 530/530/478 531/531/479 516/516/465
f 515/515/464 531/531/479 532/532/480
f 515/515/464 532/532/480 533/533/481
f 515/515/464 534/534/482 514/514/463
f 533/533/481 534/534/482 515/515/464
f 487/487/439 525/525/193 524/524/473
f 524/524/473 488/488/440 487/487/439
f 536/535/30 535/536/483 537/537/484
f 537/537/484 538/538/41 536/535/30
f 538/538/41 537/537/484 539/539/485
f 539/539/485 540/540/486 538/538/41
f 540/540/486 539/539/485 541/541/441
f 541/541/441 542/542/57 540/540/486
f 543/543/487 542/542/57 541/541/441
f 541/541/441 544/544/488 543/543/487
f 545/545/28 543/543/487 544/544/488
f 544/544/488 546/546/440 545/545/28
f 547/547/489 545/545/28 546/546/440
f 546/546/440 548/548/490 547/547/489
f 549/549/29 547/547/489 548/548/490
f 548/548/490 550/550/472 549/549/29
f 549/549/29 550/550/472 551/551/447
f 551/551/447 552/552/491 549/549/29
f 554/553/492 553/554/493 555/555/412
f 555/555/412 556/556/494 554/553/492
f 554/553/492 556/556/494 557/557/495
f 558/558/496 557/557/495 559/559/497
f 557/557/495 558/558/496 554/553/492
f 560/560/498 554/553/492 558/558/496
f 553/554/493 554/553/492 560/560/498
f 560/560/498 561/561/499 553/554/493
f 562/562/500 561/561/499 560/560/498
f 560/560/498 563/563/501 562/562/500
f 564/564/502 562/562/500 563/563/501
f 563/563/501 565/565/503 564/564/502
f 566/566/504 565/565/503 563/563/501
f 563/563/501 567/567/505 566/566/504
f 567/567/505 563/563/501 560/560/498
f 560/560/498 568/568/506 567/567/505
f 558/558/496 568/568/506 560/560/498
f 568/568/506 558/558/496 569/569/507
f 559/559/497 569/569/507 558/558/496
f 569/569/507 559/559/497 570/570/508
f 571/571/509 570/570/508 572/572/130
f 570/570/508 571/571/509 569/569/507
f 573/573/510 569/569/507 571/571/509
f 569/569/507 573/573/510 568/568/506
f 568/568/506 573/573/510 574/574/511
f 574/574/511 567/567/505 568/568/506
f 567/567/505 574/574/511 575/575/512
f 575/575/512 566/566/504 567/567/505
f 575/575/512 574/574/511 576/576/513
f 574/574/511 577/577/514 576/576/513
f 577/577/514 574/574/511 573/573/510
f 578/578/231 576/576/513 577/577/514
f 577/577/514 573/573/510 579/579/515
f 571/571/509 579/579/515 573/573/510
f 579/579/515 571/571/509 580/580/516
f 572/572/130 580/580/516 571/571/509
f 580/580/516 572/572/130 581/581/517
f 582/582/518 581/581/517 583/583/519
f 581/581/517 582/582/518 580/580/516
f 584/584/520 580/580/516 582/582/518
f 580/580/516 584/584/520 579/579/515
f 579/579/515 584/584/520 585/585/521
f 585/585/521 577/577/514 579/579/515
f 577/577/514 585/585/521 578/578/231
f 586/586/522 578/578/231 585/585/521
f 587/587/523 585/585/521 584/584/520
f 585/585/521 587/587/523 586/586/522
f 588/588/524 586/586/522 587/587/523
f 589/589/272 588/588/524 590/590/525
f 587/587/523 590/590/525 588/588/524
f 589/589/272 590/590/525 591/591/526
f 592/592/274 589/589/272 591/591/526
f 593/593/527 590/590/525 587/587/523
f 591/591/526 590/590/525 593/593/527
f 593/593/527 587/587/523 594/594/528
f 584/584/520 594/594/528 587/587/523
f 582/582/518 594/594/528 584/584/520
f 593/593/527 594/594/528 582/582/518
f 583/583/519 595/595/529 582/582/518
f 582/582/518 595/595/529 593/593/527
f 595/595/529 583/583/519 596/596/530
f 593/593/527 595/595/529 597/597/531
f 596/596/530 597/597/531 595/595/529
f 597/597/531 596/596/530 598/598/117
f 599/599/532 598/598/117 600/600/533
f 598/598/117 599/599/532 597/597/531
f 601/601/534 597/597/531 599/599/532
f 597/597/531 601/601/534 593/593/527
f 593/593/527 601/601/534 591/591/526
f 602/602/535 591/591/526 601/601/534
f 591/591/526 602/602/535 592/592/274
f 603/603/536 592/592/274 602/602/535
f 602/602/535 604/604/537 603/603/536
f 605/605/538 603/603/536 604/604/537
f 606/606/539 602/602/535 601/601/534
f 604/604/537 602/602/535 606/606/539
f 606/606/539 601/601/534 599/599/532
f 606/606/539 599/599/532 607/607/540
f 600/600/533 607/607/540 599/599/532
f 607/607/540 600/600/533 608/608/541
f 608/608/541 609/609/542 607/607/540
f 609/609/542 608/608/541 610/610/543
f 611/611/384 607/607/540 609/609/542
f 607/607/540 611/611/384 606/606/539
f 606/606/539 611/611/384 604/604/537
f 612/612/544 604/604/537 611/611/384
f 604/604/537 612/612/544 605/605/538
f 613/613/545 605/605/538 612/612/544
f 612/612/544 614/614/546 613/613/545
f 614/614/546 612/612/544 615/615/547
f 611/611/384 615/615/547 612/612/544
f 609/609/542 615/615/547 611/611/384
f 615/615/547 609/609/542 616/616/548
f 610/610/543 616/616/548 609/609/542
f 615/615/547 616/616/548 617/617/549
f 615/615/547 617/617/549 614/614/546
f 618/618/550 614/614/546 617/617/549
f 613/613/545 614/614/546 618/618/550
f 618/618/550 619/619/551 613/613/545
f 619/619/551 618/618/550 620/620/552
f 617/617/549 620/620/552 618/618/550
f 619/619/551 620/620/552 621/621/553
f 622/622/554 621/621/553 620/620/552
f 620/620/552 623/623/555 622/622/554
f 623/623/555 620/620/552 617/617/549
f 617/617/549 616/616/548 623/623/555
f 623/623/555 616/616/548 610/610/543
f 610/610/543 622/622/554 623/623/555
