# Blender 4.0.2
# www.blender.org
mtllib Barnacles.mtl
o group1.006
v -20.183119 31.245920 44.750584
v -17.062969 31.245909 67.681877
v -0.701740 31.245949 21.674139
v 34.521690 31.245920 46.566521
v 21.761013 31.245949 27.259937
v 35.608143 0.141135 82.028969
v 24.472845 31.245922 71.395226
v 1.439745 0.141136 94.875816
v 2.810807 31.245909 79.539818
v -29.907957 0.141148 76.171745
v -34.829525 0.141174 40.001324
v -7.908270 0.141185 9.573929
v 32.103027 0.141171 7.163130
v 55.474575 0.141174 39.530128
v 38.819210 29.258055 23.479151
v 61.210751 29.258055 27.720217
v 24.638487 29.258053 6.585643
v 48.630291 29.258068 -25.100267
v 29.004829 29.258068 -15.034241
v 85.695702 -0.386815 -26.240614
v 74.456146 29.258068 -16.805941
v 94.286819 -0.386827 7.472376
v 79.902718 29.258053 4.567378
v 67.907845 -0.386838 40.777370
v 32.786285 -0.386838 36.856167
v 10.418449 -0.386826 10.209337
v 17.305645 -0.386815 -23.892576
v 48.261692 -0.386816 -39.770119
v 50.324448 15.622125 71.582031
v 61.848087 15.622137 68.569115
v 37.328342 15.622137 63.055733
v 47.867886 15.622150 43.518387
v 38.792683 15.622136 51.232868
v 65.920128 -0.386838 40.769310
v 61.175724 15.622136 47.116756
v 74.598091 -0.386851 57.432789
v 66.677368 15.622137 57.681034
v 66.980667 -0.386863 74.606987
v 48.803947 -0.386863 79.359383
v 31.591610 -0.386850 67.486488
v 27.884445 -0.386852 47.191959
v 42.976368 -0.386839 33.247883
v 24.263538 17.181162 -58.675087
v 11.199127 17.181162 -58.262959
v 36.088127 17.181162 -46.381981
v 20.045137 17.181149 -28.050005
v 31.636942 17.181149 -34.089756
v 0.060050 -0.386815 -29.512959
v 6.684744 17.181149 -35.146675
v -5.159234 -0.386789 -49.458649
v 3.375825 17.181162 -47.791828
v 7.180772 -0.386790 -65.975182
v 27.787809 -0.386790 -66.625275
v 43.306911 -0.386789 -49.722942
v 42.321991 -0.386815 -27.105042
v 22.772936 -0.386814 -15.868027
v -92.094208 14.400578 -26.366270
v -85.605591 14.400577 -33.228279
v -104.414963 14.400578 -26.649715
v -105.521591 14.400576 -44.215916
v -108.390320 14.400577 -35.218170
v -94.530045 1.707391 -53.639622
v -95.058723 14.400591 -47.378658
v -81.700256 1.707392 -46.069996
v -86.924927 14.400577 -42.579651
v -79.619232 1.707365 -31.319649
v -89.853973 1.707366 -20.495949
v -106.415443 1.707366 -21.261864
v -117.424515 1.707365 -33.359993
v -113.121666 1.707392 -49.073265
v -107.573616 18.042587 11.831903
v -95.151535 18.042589 17.637682
v -112.814064 18.042587 -5.276915
v -89.111832 18.042599 -14.830388
v -102.822762 18.042599 -14.671476
v -71.101456 -0.386827 -3.989910
v -79.971336 18.042587 -1.856962
v -75.669510 -0.386826 17.150440
v -82.867386 18.042587 11.545561
v -95.045807 -0.386825 26.759783
v -114.639656 -0.386826 17.602102
v -121.153358 -0.386828 -5.571315
v -109.512497 -0.386815 -26.272219
v -85.891449 -0.386815 -27.524048
v -42.202633 39.583389 -43.726440
v -65.453232 39.583393 -25.184690
v -13.209626 39.583389 -37.108963
v -13.209626 39.583378 16.478176
v -0.306518 39.583393 -10.315407
v -46.605350 -0.386838 42.385162
v -42.202644 39.583393 23.095638
v -83.279442 -0.386826 13.138551
v -65.453232 39.583393 4.553904
v -83.279442 -0.386816 -33.769375
v -46.605350 -0.386790 -63.016010
v -0.873495 -0.386789 -52.578018
v 19.479099 -0.386814 -10.315417
v -0.873495 -0.386839 31.947166
v -119.776878 10.974664 -33.688770
v -127.120735 10.974664 -33.457088
v -113.130028 10.974665 -26.778517
v -122.148170 10.974651 -16.473675
v -115.632111 10.974650 -19.868752
v -133.382263 1.099283 -17.296032
v -129.658386 10.974650 -20.462887
v -136.316177 1.099282 -28.508003
v -131.518402 10.974650 -27.571030
v -129.379532 1.099295 -37.792328
v -117.795822 1.099295 -38.157764
v -109.072121 1.099282 -28.656561
v -109.625801 1.099283 -15.942488
v -120.614807 1.099283 -9.625878
v 54.686703 11.247279 -61.055420
v 46.639870 11.247293 -60.801575
v 61.969868 11.247294 -53.483662
v 52.088440 11.247267 -42.192390
v 59.228230 11.247280 -45.912483
v 39.778961 0.426587 -43.093491
v 43.859325 11.247280 -46.563477
v 36.564217 0.426600 -55.378723
v 41.821251 11.247280 -54.352039
v 44.164864 0.426599 -65.551811
v 56.857433 0.426599 -65.952202
v 66.416153 0.426600 -55.541481
v 65.809494 0.426573 -41.610374
v 53.768593 0.426573 -34.689095
vn -0.5913 0.7874 -0.1742
vn -0.5167 0.7851 0.3415
vn -0.2325 0.7829 -0.5770
vn 0.5711 0.8208 -0.0150
vn 0.3094 0.8486 -0.4291
vn 0.6151 0.4535 0.6450
vn 0.4262 0.7898 0.4412
vn -0.0798 0.4436 0.8926
vn -0.0551 0.7851 0.6168
vn -0.7477 0.4436 0.4942
vn -0.8571 0.4436 -0.2618
vn -0.4079 0.4166 -0.8124
vn 0.3953 0.5424 -0.7413
vn 0.8192 0.5646 -0.1005
vn -0.3102 0.7987 0.5157
vn 0.2187 0.7787 0.5881
vn -0.6001 0.7851 0.1529
vn -0.0471 0.7899 -0.6114
vn -0.4937 0.7851 -0.3738
vn 0.6598 0.4508 -0.6012
vn 0.4539 0.7775 -0.4353
vn 0.8767 0.4436 0.1860
vn 0.6099 0.7814 0.1324
vn 0.3515 0.4362 0.8284
vn -0.4319 0.4284 0.7936
vn -0.8685 0.4436 0.2213
vn -0.7145 0.4436 -0.5410
vn -0.0536 0.4434 -0.8947
vn -0.1018 0.7874 0.6079
vn 0.4011 0.7851 0.4719
vn -0.5449 0.7829 0.3001
vn -0.0835 0.8208 -0.5651
vn -0.4632 0.8486 -0.2556
vn 0.5663 0.4535 -0.6882
vn 0.3867 0.7898 -0.4761
vn 0.8958 0.4436 -0.0281
vn 0.6190 0.7851 -0.0194
vn 0.5805 0.4436 0.6828
vn -0.1569 0.4436 0.8824
vn -0.7575 0.4166 0.5026
vn -0.7835 0.5424 -0.3033
vn -0.1983 0.5646 -0.8012
vn 0.2344 0.7874 -0.5701
vn -0.2862 0.7851 -0.5492
vn 0.5980 0.7829 -0.1715
vn -0.0442 0.8208 0.5696
vn 0.3947 0.8486 0.3522
vn -0.7052 0.4535 0.5450
vn -0.4829 0.7898 0.3782
vn -0.8796 0.4436 -0.1718
vn -0.6078 0.7851 -0.1187
vn -0.4141 0.4436 -0.7948
vn 0.3491 0.4436 -0.8254
vn 0.8503 0.4166 -0.3216
vn 0.6964 0.5424 0.4699
vn 0.0152 0.5646 0.8252
vn 0.2353 0.7874 0.5697
vn 0.5900 0.7851 0.1881
vn -0.3035 0.7829 0.5430
vn -0.3699 0.8208 -0.4353
vn -0.5283 0.8486 0.0282
vn 0.1164 0.4535 -0.8836
vn 0.0762 0.7898 -0.6086
vn 0.7452 0.4436 -0.4978
vn 0.5150 0.7851 -0.3440
vn 0.8539 0.4436 0.2722
vn 0.3338 0.4436 0.8317
vn -0.3768 0.4166 0.8273
vn -0.8253 0.5424 0.1572
vn -0.5922 0.5646 -0.5749
vn -0.4667 0.7874 0.4027
vn 0.0072 0.7851 0.6193
vn -0.6110 0.7829 -0.1172
vn 0.2967 0.8208 -0.4882
vn -0.1931 0.8486 -0.4925
vn 0.8753 0.4535 -0.1677
vn 0.6017 0.7898 -0.1192
vn 0.7071 0.4436 0.5506
vn 0.4886 0.7851 0.3805
vn 0.0104 0.4436 0.8961
vn -0.6844 0.4436 0.5787
vn -0.9039 0.4166 -0.0972
vn -0.4090 0.5424 -0.7338
vn 0.3593 0.5646 -0.7431
vn -0.1378 0.7851 -0.6038
vn -0.5580 0.7851 -0.2687
vn 0.3861 0.7851 -0.4842
vn 0.3861 0.7851 0.4842
vn 0.6193 0.7851 -0.0000
vn -0.1994 0.4436 0.8737
vn -0.1378 0.7851 0.6038
vn -0.8075 0.4436 0.3889
vn -0.5580 0.7851 0.2687
vn -0.8075 0.4436 -0.3889
vn -0.1994 0.4436 -0.8737
vn 0.5588 0.4436 -0.7007
vn 0.8962 0.4436 -0.0000
vn 0.5588 0.4436 0.7007
vt 1.438121 -0.271598
vt 1.311385 -0.357193
vt 1.625799 -0.272469
vt 1.709636 -0.683207
vt 1.762519 -0.534369
vt 1.375092 -1.019857
vt 1.451312 -0.700229
vt 1.097628 -0.879123
vt 1.311385 -0.568488
vt 1.038561 -0.293444
vt 1.251242 -0.088104
vt 1.849800 -0.044245
vt 2.016123 -0.531706
vt 1.881606 -1.018279
vt 1.465712 1.777634
vt 1.338976 1.692039
vt 1.653389 1.776762
vt 1.737227 1.366025
vt 1.790110 1.514863
vt 1.402683 1.029375
vt 1.478904 1.349002
vt 1.125220 1.170109
vt 1.338976 1.480744
vt 1.066152 1.755787
vt 1.278832 1.961128
vt 1.877390 2.004986
vt 2.043714 1.517526
vt 1.909196 1.030952
vt 1.428925 0.719606
vt 1.302189 0.634012
vt 1.616602 0.718735
vt 1.700439 0.307997
vt 1.753323 0.456837
vt 1.365894 -0.028653
vt 1.442115 0.290976
vt 1.088432 0.112082
vt 1.302189 0.422716
vt 1.029365 0.697760
vt 1.242044 0.903100
vt 1.840603 0.946959
vt 2.006927 0.459498
vt 1.872408 -0.027075
vt 0.435653 1.788771
vt 0.308917 1.703177
vt 0.623331 1.787900
vt 0.707168 1.377162
vt 0.760052 1.526001
vt 0.372624 1.040512
vt 0.448845 1.360139
vt 0.095161 1.181246
vt 0.308917 1.491880
vt 0.036094 1.766925
vt 0.248773 1.972266
vt 0.847333 2.016124
vt 1.013655 1.528663
vt 0.879137 1.042089
vt -0.578623 1.746726
vt -0.705359 1.661132
vt -0.390946 1.745855
vt -0.307109 1.335118
vt -0.254225 1.483956
vt -0.641653 0.998468
vt -0.565432 1.318095
vt -0.919116 1.139202
vt -0.705359 1.449836
vt -0.978183 1.724880
vt -0.765504 1.930221
vt -0.166945 1.974080
vt -0.000621 1.486619
vt -0.135140 1.000045
vt -0.594950 0.745044
vt -0.721686 0.659449
vt -0.407272 0.744172
vt -0.323434 0.333435
vt -0.270551 0.482274
vt -0.657979 -0.003215
vt -0.581758 0.316413
vt -0.935442 0.137519
vt -0.721686 0.448154
vt -0.994509 0.723198
vt -0.781829 0.928539
vt -0.183271 0.972396
vt -0.016947 0.484935
vt -0.151465 -0.001637
vt 0.417260 0.758223
vt 0.290524 0.672629
vt 0.604937 0.757352
vt 0.688774 0.346615
vt 0.741658 0.495454
vt 0.354229 0.009964
vt 0.430451 0.329593
vt 0.076767 0.150698
vt 0.290524 0.461334
vt 0.017701 0.736378
vt 0.230379 0.941718
vt 0.828938 0.985577
vt 0.995262 0.498116
vt 0.860743 0.011543
vt -0.548420 -0.260461
vt -0.675156 -0.346055
vt -0.360743 -0.261333
vt -0.276906 -0.672070
vt -0.224022 -0.523232
vt -0.611450 -1.008720
vt -0.535229 -0.689092
vt -0.888913 -0.867986
vt -0.675156 -0.557351
vt -0.947981 -0.282308
vt -0.735300 -0.076967
vt -0.136741 -0.033108
vt 0.029582 -0.520569
vt -0.104937 -1.007142
vt 0.444850 -0.271598
vt 0.318115 -0.357193
vt 0.632528 -0.272469
vt 0.716364 -0.683207
vt 0.769248 -0.534369
vt 0.381820 -1.019857
vt 0.458041 -0.700229
vt 0.104358 -0.879123
vt 0.318114 -0.568488
vt 0.045291 -0.293444
vt 0.257970 -0.088104
vt 0.856529 -0.044245
vt 1.022853 -0.531706
vt 0.888334 -1.018279
s 1
usemtl Material.005
f 1/1/1 2/2/2 3/3/3
f 2/2/2 4/4/4 3/3/3
f 3/3/3 4/4/4 5/5/5
f 6/6/6 7/7/7 8/8/8
f 7/7/7 9/9/9 8/8/8
f 8/8/8 9/9/9 10/10/10
f 9/9/9 2/2/2 10/10/10
f 10/10/10 2/2/2 11/11/11
f 2/2/2 1/1/1 11/11/11
f 11/11/11 1/1/1 12/12/12
f 1/1/1 3/3/3 12/12/12
f 12/12/12 3/3/3 13/13/13
f 3/3/3 5/5/5 13/13/13
f 13/13/13 5/5/5 14/14/14
f 5/5/5 4/4/4 14/14/14
f 14/14/14 4/4/4 6/6/6
f 6/6/6 4/4/4 7/7/7
f 4/4/4 2/2/2 7/7/7
f 7/7/7 2/2/2 9/9/9
f 15/15/15 16/16/16 17/17/17
f 16/16/16 18/18/18 17/17/17
f 17/17/17 18/18/18 19/19/19
f 20/20/20 21/21/21 22/22/22
f 21/21/21 23/23/23 22/22/22
f 22/22/22 23/23/23 24/24/24
f 23/23/23 16/16/16 24/24/24
f 24/24/24 16/16/16 25/25/25
f 16/16/16 15/15/15 25/25/25
f 25/25/25 15/15/15 26/26/26
f 15/15/15 17/17/17 26/26/26
f 26/26/26 17/17/17 27/27/27
f 17/17/17 19/19/19 27/27/27
f 27/27/27 19/19/19 28/28/28
f 19/19/19 18/18/18 28/28/28
f 28/28/28 18/18/18 20/20/20
f 20/20/20 18/18/18 21/21/21
f 18/18/18 16/16/16 21/21/21
f 21/21/21 16/16/16 23/23/23
f 29/29/29 30/30/30 31/31/31
f 30/30/30 32/32/32 31/31/31
f 31/31/31 32/32/32 33/33/33
f 34/34/34 35/35/35 36/36/36
f 35/35/35 37/37/37 36/36/36
f 36/36/36 37/37/37 38/38/38
f 37/37/37 30/30/30 38/38/38
f 38/38/38 30/30/30 39/39/39
f 30/30/30 29/29/29 39/39/39
f 39/39/39 29/29/29 40/40/40
f 29/29/29 31/31/31 40/40/40
f 40/40/40 31/31/31 41/41/41
f 31/31/31 33/33/33 41/41/41
f 41/41/41 33/33/33 42/42/42
f 33/33/33 32/32/32 42/42/42
f 42/42/42 32/32/32 34/34/34
f 34/34/34 32/32/32 35/35/35
f 32/32/32 30/30/30 35/35/35
f 35/35/35 30/30/30 37/37/37
f 43/43/43 44/44/44 45/45/45
f 44/44/44 46/46/46 45/45/45
f 45/45/45 46/46/46 47/47/47
f 48/48/48 49/49/49 50/50/50
f 49/49/49 51/51/51 50/50/50
f 50/50/50 51/51/51 52/52/52
f 51/51/51 44/44/44 52/52/52
f 52/52/52 44/44/44 53/53/53
f 44/44/44 43/43/43 53/53/53
f 53/53/53 43/43/43 54/54/54
f 43/43/43 45/45/45 54/54/54
f 54/54/54 45/45/45 55/55/55
f 45/45/45 47/47/47 55/55/55
f 55/55/55 47/47/47 56/56/56
f 47/47/47 46/46/46 56/56/56
f 56/56/56 46/46/46 48/48/48
f 48/48/48 46/46/46 49/49/49
f 46/46/46 44/44/44 49/49/49
f 49/49/49 44/44/44 51/51/51
f 57/57/57 58/58/58 59/59/59
f 58/58/58 60/60/60 59/59/59
f 59/59/59 60/60/60 61/61/61
f 62/62/62 63/63/63 64/64/64
f 63/63/63 65/65/65 64/64/64
f 64/64/64 65/65/65 66/66/66
f 65/65/65 58/58/58 66/66/66
f 66/66/66 58/58/58 67/67/67
f 58/58/58 57/57/57 67/67/67
f 67/67/67 57/57/57 68/68/68
f 57/57/57 59/59/59 68/68/68
f 68/68/68 59/59/59 69/69/69
f 59/59/59 61/61/61 69/69/69
f 69/69/69 61/61/61 70/70/70
f 61/61/61 60/60/60 70/70/70
f 70/70/70 60/60/60 62/62/62
f 62/62/62 60/60/60 63/63/63
f 60/60/60 58/58/58 63/63/63
f 63/63/63 58/58/58 65/65/65
f 71/71/71 72/72/72 73/73/73
f 72/72/72 74/74/74 73/73/73
f 73/73/73 74/74/74 75/75/75
f 76/76/76 77/77/77 78/78/78
f 77/77/77 79/79/79 78/78/78
f 78/78/78 79/79/79 80/80/80
f 79/79/79 72/72/72 80/80/80
f 80/80/80 72/72/72 81/81/81
f 72/72/72 71/71/71 81/81/81
f 81/81/81 71/71/71 82/82/82
f 71/71/71 73/73/73 82/82/82
f 82/82/82 73/73/73 83/83/83
f 73/73/73 75/75/75 83/83/83
f 83/83/83 75/75/75 84/84/84
f 75/75/75 74/74/74 84/84/84
f 84/84/84 74/74/74 76/76/76
f 76/76/76 74/74/74 77/77/77
f 74/74/74 72/72/72 77/77/77
f 77/77/77 72/72/72 79/79/79
f 85/85/85 86/86/86 87/87/87
f 86/86/86 88/88/88 87/87/87
f 87/87/87 88/88/88 89/89/89
f 90/90/90 91/91/91 92/92/92
f 91/91/91 93/93/93 92/92/92
f 92/92/92 93/93/93 94/94/94
f 93/93/93 86/86/86 94/94/94
f 94/94/94 86/86/86 95/95/95
f 86/86/86 85/85/85 95/95/95
f 95/95/95 85/85/85 96/96/96
f 85/85/85 87/87/87 96/96/96
f 96/96/96 87/87/87 97/97/97
f 87/87/87 89/89/89 97/97/97
f 97/97/97 89/89/89 98/98/98
f 89/89/89 88/88/88 98/98/98
f 98/98/98 88/88/88 90/90/90
f 90/90/90 88/88/88 91/91/91
f 88/88/88 86/86/86 91/91/91
f 91/91/91 86/86/86 93/93/93
f 99/99/43 100/100/44 101/101/45
f 100/100/44 102/102/46 101/101/45
f 101/101/45 102/102/46 103/103/47
f 104/104/48 105/105/49 106/106/50
f 105/105/49 107/107/51 106/106/50
f 106/106/50 107/107/51 108/108/52
f 107/107/51 100/100/44 108/108/52
f 108/108/52 100/100/44 109/109/53
f 100/100/44 99/99/43 109/109/53
f 109/109/53 99/99/43 110/110/54
f 99/99/43 101/101/45 110/110/54
f 110/110/54 101/101/45 111/111/55
f 101/101/45 103/103/47 111/111/55
f 111/111/55 103/103/47 112/112/56
f 103/103/47 102/102/46 112/112/56
f 112/112/56 102/102/46 104/104/48
f 104/104/48 102/102/46 105/105/49
f 102/102/46 100/100/44 105/105/49
f 105/105/49 100/100/44 107/107/51
f 113/113/43 114/114/44 115/115/45
f 114/114/44 116/116/46 115/115/45
f 115/115/45 116/116/46 117/117/47
f 118/118/48 119/119/49 120/120/50
f 119/119/49 121/121/51 120/120/50
f 120/120/50 121/121/51 122/122/52
f 121/121/51 114/114/44 122/122/52
f 122/122/52 114/114/44 123/123/53
f 114/114/44 113/113/43 123/123/53
f 123/123/53 113/113/43 124/124/54
f 113/113/43 115/115/45 124/124/54
f 124/124/54 115/115/45 125/125/55
f 115/115/45 117/117/47 125/125/55
f 125/125/55 117/117/47 126/126/56
f 117/117/47 116/116/46 126/126/56
f 126/126/56 116/116/46 118/118/48
f 118/118/48 116/116/46 119/119/49
f 121/121/51 116/116/46 114/114/44
f 116/116/46 121/121/51 119/119/49
