# Blender 4.0.2
# www.blender.org
mtllib Bluemoon.mtl
o submesh_0
v 11.562741 10.947538 19.090427
v 14.565883 22.278786 23.667910
v -8.003950 28.232122 24.302895
v -16.616493 17.661633 19.765129
v 9.531964 246.177826 22.741808
v -13.719183 238.345856 24.474874
v 6.436214 223.740250 25.255409
v 20.188507 122.771393 8.050271
v 22.464001 124.782272 3.935828
v 19.884184 131.661758 3.750610
v 14.949538 136.636063 7.818722
v 21.630524 133.672653 0.001670
v 25.109930 122.983055 0.001671
v 20.082623 76.308762 20.611824
v 31.116209 85.834114 12.541709
v 30.560560 95.518242 12.931975
v 11.033534 92.343163 21.180695
v -17.264753 95.994507 28.761324
v -9.082197 82.076881 28.496721
v 4.550988 89.168030 25.308361
v -7.342467 98.852150 24.951149
v -64.719582 53.447884 22.675659
v -47.097664 62.496971 27.200203
v -59.903984 80.965637 28.390890
v -79.378067 74.350754 23.945732
v 3.299174 65.195839 27.491247
v 14.803988 72.763191 24.554272
v -42.969997 33.418148 21.154257
v -28.364450 43.605042 25.692020
v 34.344234 88.638817 10.431599
v 33.682751 96.682487 10.663093
v 16.126951 49.240833 26.459335
v 23.403309 62.020706 21.617298
v 42.917057 10.987259 19.116869
v 42.864170 20.532446 23.522360
v 43.049389 49.902313 18.746431
v 42.996441 40.482796 25.361307
v 75.726669 19.156593 20.029732
v 73.027794 25.228983 22.768269
v 64.825401 44.557568 19.183031
v 67.471336 38.604176 24.342611
v 92.184387 30.163681 16.007898
v 89.168030 34.238403 19.672520
v 79.642670 47.415157 19.262417
v 82.341492 43.446270 25.586191
v 102.715218 41.038441 10.094223
v 97.423355 44.848618 17.582241
v 88.268379 52.283691 24.223507
v 84.669922 55.670486 21.630520
v 106.578270 51.040115 8.784481
v 101.815567 57.522602 16.947203
v 90.226379 61.597382 19.024258
v 93.454407 60.486084 20.241392
v 105.890350 57.945984 9.108637
v 102.768097 61.015289 8.328102
v 92.713593 64.878349 12.806314
v 96.894150 64.243309 11.741343
v -22.186176 113.669357 29.449247
v -5.576293 115.997795 25.864012
v -68.318031 106.684105 29.290474
v -89.591347 103.085648 25.004091
v -16.166672 148.913239 26.181499
v -31.486645 147.219849 29.819681
v -74.244926 142.457138 29.766735
v -94.089447 140.234589 25.480352
v -20.797047 168.810638 25.387743
v -33.232933 169.869064 29.211136
v -87.897942 174.525864 24.898256
v -69.852715 172.938309 29.264027
v -26.128624 189.025589 28.337938
v -15.346417 185.638794 24.726259
v -73.345345 203.737030 23.548792
v -57.787209 198.974319 27.914616
v -14.248337 205.747910 27.279579
v -6.303940 200.985199 23.892780
v -50.643181 228.397141 21.868612
v -38.339626 220.776855 26.300602
v 10.120725 215.273270 19.778336
v -21.564360 248.506256 20.029715
v 37.492928 207.335495 16.444483
v 37.969193 218.871780 23.773726
v 40.165298 259.513336 16.457701
v 7.587238 259.725006 18.442146
v 39.345043 243.426056 22.291988
v 60.486084 213.474030 13.547172
v 61.226952 221.623550 22.675646
v 61.650269 251.046356 14.168984
v 61.809044 238.980835 21.670172
v 69.270561 224.375305 8.347922
v 68.212204 227.550446 16.153433
v 68.900131 242.367630 9.459224
v 68.106377 235.382385 15.743277
v 2.300313 117.056160 21.484962
v 11.245250 119.913803 14.777534
v 2.991544 143.197998 14.830475
v -8.963091 149.759933 21.802507
v -23.112261 8.592656 -0.001680
v 9.346746 1.252681 -0.001680
v 43.287491 2.480544 -0.001680
v 78.584251 13.117200 -0.001681
v 95.782845 25.930185 -0.001682
v 105.837402 38.551289 -0.001683
v 109.435867 50.775513 -0.001684
v 107.266197 58.845623 -0.001684
v 97.582077 65.936707 0.001675
v 92.554825 66.518799 -0.001685
v 103.720680 62.444080 0.001675
v 86.998360 64.984177 0.001675
v 80.330597 59.163116 0.001675
v 76.890854 51.119446 -0.001684
v 63.343666 50.405075 -0.001684
v 44.054802 57.787209 -0.001684
v 30.269510 71.281509 -0.001685
v 30.004908 76.626305 -0.001686
v 32.624393 82.923584 0.001674
v 36.328678 87.315849 -0.001686
v 35.667198 98.428772 -0.001687
v 31.089712 99.063812 -0.001687
v 18.759657 96.841209 -0.001687
v 13.070923 105.678627 0.001672
v -1.265091 100.810150 20.598600
v 14.063119 114.621887 0.001671
v 18.415722 116.844498 0.001671
v 22.768270 119.067108 0.001671
v 15.783016 140.128754 0.001669
v 8.288386 147.113998 0.001669
v 0.793757 154.099258 0.001668
v -1.300638 167.117233 0.001667
v -15.174421 168.281479 20.995472
v 1.544542 180.241119 0.001666
v -10.563881 184.157104 20.492764
v 6.594987 192.729935 0.001665
v -2.986613 198.974319 19.884169
v 14.420332 205.853745 0.001664
v 29.449255 197.915955 0.001665
v 44.822117 197.280930 0.001665
v 61.809044 206.382950 0.001664
v 72.075264 223.105270 0.001663
v 72.498642 236.440735 0.001662
v 71.281509 240.039261 0.001662
v 72.921967 227.338776 0.001663
v 63.502441 254.221420 0.001661
v 49.267326 263.111816 0.001660
v 32.597946 267.980347 0.001660
v 5.655680 266.498596 0.001660
v -27.623583 254.644821 0.001661
v -60.221478 234.959061 0.001662
v -85.463676 208.182190 0.001664
v -101.921402 176.219269 0.001667
v -109.435867 138.858673 0.001669
v -105.837402 100.228004 0.001672
v -94.195274 68.953079 -0.001685
v -78.002159 46.039253 -0.001683
v -53.924149 24.924711 -0.001682
v 11.562741 10.947535 -19.090427
v -16.616493 17.661629 -19.765133
v -8.003950 28.232119 -24.302898
v 14.565883 22.278782 -23.667913
v 9.531964 246.177826 -22.741846
v 6.436214 223.740250 -25.255444
v -13.719183 238.345856 -24.474909
v 20.188507 122.771393 -8.050290
v 14.949538 136.636063 -7.818743
v 19.884184 131.661758 -3.750630
v 22.464001 124.782272 -3.935847
v 20.082623 76.308762 -20.611835
v 11.033534 92.343163 -21.180710
v 30.560560 95.518242 -12.931991
v 31.116209 85.834114 -12.541722
v -17.264753 95.994507 -28.761339
v -7.342467 98.852150 -24.951164
v 4.550988 89.168030 -25.308376
v -9.082197 82.076881 -28.496733
v -64.719582 53.447884 -22.675667
v -79.378067 74.350754 -23.945744
v -59.903984 80.965637 -28.390902
v -47.097664 62.496964 -27.200211
v 14.803988 72.763191 -24.554283
v 3.299174 65.195839 -27.491259
v -42.969997 33.418148 -21.154261
v -28.364450 43.605034 -25.692028
v 34.344234 88.638817 -10.431612
v 33.682751 96.682487 -10.663108
v 23.403309 62.020706 -21.617306
v 16.126951 49.240826 -26.459343
v 42.917057 10.987255 -19.116869
v 42.864170 20.532442 -23.522364
v 43.049389 49.902313 -18.746439
v 42.996441 40.482788 -25.361315
v 75.726669 19.156590 -20.029736
v 73.027794 25.228979 -22.768272
v 64.825401 44.557568 -19.183039
v 67.471336 38.604176 -24.342619
v 92.184387 30.163677 -16.007902
v 89.168030 34.238403 -19.672523
v 79.642670 47.415157 -19.262424
v 82.341492 43.446262 -25.586199
v 102.715218 41.038441 -10.094229
v 97.423355 44.848618 -17.582249
v 84.669922 55.670486 -21.630527
v 88.268379 52.283691 -24.223515
v 106.578270 51.040115 -8.784489
v 101.815567 57.522602 -16.947210
v 90.226379 61.597382 -19.024265
v 93.454407 60.486084 -20.241400
v 105.890350 57.945984 -9.108646
v 102.768097 61.015289 -8.328112
v 92.713593 64.878349 -12.806324
v 96.894150 64.243309 -11.741352
v -22.186176 113.669357 -29.449263
v -5.576293 115.997795 -25.864031
v -89.591347 103.085648 -25.004107
v -68.318031 106.684105 -29.290489
v -16.166672 148.913239 -26.181522
v -31.486645 147.219849 -29.819704
v -94.089447 140.234589 -25.480375
v -74.244926 142.457138 -29.766758
v -20.797047 168.810638 -25.387770
v -33.232933 169.869064 -29.211163
v -87.897942 174.525864 -24.898283
v -69.852715 172.938309 -29.264053
v -26.128624 189.025589 -28.337965
v -15.346417 185.638794 -24.726286
v -73.345345 203.737030 -23.548822
v -57.787209 198.974319 -27.914646
v -14.248337 205.747910 -27.279610
v -6.303940 200.985199 -23.892811
v -50.643181 228.397141 -21.868647
v -38.339626 220.776855 -26.300636
v 10.120725 215.273270 -19.778370
v -21.564360 248.506256 -20.029753
v 37.969193 218.871780 -23.773760
v 37.492928 207.335495 -16.444513
v 40.165298 259.513336 -16.457739
v 39.345043 243.426056 -22.292027
v 7.587238 261.418427 -18.243746
v 60.486084 213.474030 -13.547204
v 61.226952 221.623550 -22.675680
v 61.650269 251.046356 -14.169023
v 61.809044 238.980835 -21.670206
v 69.270561 224.375305 -8.347957
v 68.212204 227.550446 -16.153467
v 68.900131 242.367630 -9.459260
v 68.106377 235.382385 -15.743313
v 2.300313 117.056160 -21.484982
v -8.963091 149.759933 -21.802530
v 2.991544 143.197998 -14.830496
v 11.245250 119.913803 -14.777552
v -1.265091 100.810150 -20.598616
v -15.174421 168.281479 -20.995499
v -10.563881 184.157104 -20.492790
v -2.986613 198.974319 -19.884199
vn 0.8955 0.4450 0.0002
vn 0.7741 0.3103 0.5518
vn 0.8167 0.2502 0.5201
vn 0.7122 0.7019 0.0001
vn 0.6847 0.4531 0.5708
vn 0.9996 -0.0296 0.0001
vn 0.8956 0.4449 0.0002
vn 0.7122 0.7020 0.0001
vn 0.6762 0.7367 -0.0000
vn 0.7595 -0.1701 0.6278
vn 0.9996 -0.0297 0.0001
vn 0.6850 -0.7285 0.0001
vn 0.5050 -0.8631 0.0001
vn 0.6215 0.4596 0.6344
vn 0.8187 0.5742 -0.0000
vn 0.6762 0.7367 0.0001
vn 0.6215 0.4596 0.6345
vn 0.6225 -0.3362 0.7067
vn 0.5050 -0.8631 -0.0000
vn 0.6507 0.2715 0.7092
vn 0.9947 0.1025 -0.0000
vn 0.8104 -0.5859 -0.0000
vn 0.8187 0.5743 0.0001
vn 0.6506 0.2716 0.7092
vn 0.7084 -0.0076 0.7057
vn 0.9589 -0.2837 0.0001
vn 0.6308 -0.1097 0.7681
vn 0.6507 0.2716 0.7091
vn 0.7176 -0.2842 0.6359
vn 0.9589 -0.2836 -0.0000
vn 0.8968 -0.4425 0.0001
vn 0.6235 0.1820 0.7604
vn 0.8783 0.4781 -0.0000
vn 0.9589 -0.2837 -0.0000
vn 0.7085 -0.0075 0.7057
vn 0.6308 -0.1097 0.7682
vn 0.6235 0.1820 0.7603
vn 0.4231 0.0045 0.9061
vn 0.6991 -0.4344 0.5679
vn 0.6495 -0.7561 0.0805
vn 0.8968 -0.4425 -0.0000
vn 0.4369 0.5324 0.7251
vn 0.2087 0.9780 -0.0000
vn 0.8783 0.4782 -0.0000
vn 0.3834 0.1234 0.9153
vn 0.4777 -0.8785 -0.0000
vn 0.1845 -0.6060 0.7737
vn 0.3833 0.1234 0.9153
vn 0.4231 0.0044 0.9061
vn 0.7175 -0.2842 0.6359
vn 0.5010 -0.2669 0.8232
vn 0.1845 -0.6061 0.7737
vn 0.3592 -0.9225 0.1410
vn -0.2499 -0.9683 0.0001
vn 0.5010 -0.2669 0.8233
vn 0.2831 0.2642 0.9220
vn 0.4369 0.5324 0.7250
vn 0.7085 -0.0076 0.7057
vn 0.4580 -0.1617 0.8741
vn 0.1438 0.0013 0.9896
vn 0.4232 0.0045 0.9060
vn 0.3763 0.1517 0.9140
vn 0.2001 -0.0760 0.9768
vn 0.1844 -0.6061 0.7737
vn 0.4232 0.0044 0.9060
vn 0.3958 0.0046 0.9183
vn 0.3834 0.1233 0.9153
vn 0.1124 -0.7444 0.6581
vn 0.3957 0.0046 0.9183
vn 0.1124 -0.7445 0.6581
vn -0.2499 -0.9683 -0.0000
vn 0.2138 -0.9769 -0.0000
vn 0.1314 0.0619 0.9894
vn 0.3957 0.0045 0.9184
vn 0.1474 -0.0140 0.9890
vn 0.1124 -0.7444 0.6582
vn 0.5835 -0.8121 0.0001
vn 0.1438 0.0012 0.9896
vn 0.1474 -0.0141 0.9890
vn 0.5497 -0.6412 0.5355
vn 0.0696 -0.0008 0.9976
vn 0.9088 -0.4173 0.0001
vn 0.3833 0.1233 0.9153
vn 0.1070 0.0302 0.9938
vn 0.3957 0.0046 0.9184
vn 0.0611 -0.3359 0.9399
vn 0.0922 0.0023 0.9957
vn 0.0611 -0.3358 0.9399
vn 0.5497 -0.6411 0.5355
vn 0.8483 -0.4138 0.3305
vn 0.9088 -0.4172 0.0001
vn 0.9923 -0.1240 -0.0000
vn 0.1205 0.0216 0.9925
vn -0.0687 -0.1683 0.9833
vn 0.0921 0.0023 0.9957
vn 0.8746 -0.2201 0.4320
vn -0.1122 0.0756 0.9908
vn 0.5961 -0.3181 0.7372
vn 0.8619 0.1183 0.4931
vn 0.8483 -0.4138 0.3304
vn -0.1000 0.1344 0.9859
vn 0.8619 0.1182 0.4931
vn 0.9923 -0.1240 0.0001
vn 0.9849 0.1730 -0.0000
vn -0.1121 0.0756 0.9908
vn 0.4439 0.2600 0.8575
vn -0.0788 0.1789 0.9807
vn 0.8684 0.3823 0.3159
vn 0.8619 0.1182 0.4932
vn 0.4439 0.2599 0.8575
vn 0.2001 -0.0759 0.9768
vn 0.8619 0.1183 0.4932
vn 0.8684 0.3822 0.3159
vn 0.9154 0.4025 -0.0000
vn 0.0879 0.2394 0.9669
vn 0.0610 -0.3358 0.9399
vn 0.0872 -0.0997 0.9912
vn 0.7642 0.6450 -0.0000
vn 0.8684 0.3823 0.3160
vn 0.5168 0.6264 0.5836
vn 0.7642 0.6449 -0.0000
vn -0.0306 0.2054 0.9782
vn 0.4090 0.9125 -0.0000
vn 0.0280 0.2336 0.9719
vn 0.5168 0.6263 0.5836
vn 0.1487 0.7127 0.6855
vn 0.1487 0.7128 0.6855
vn 0.0280 0.2335 0.9719
vn 0.1199 0.9928 -0.0000
vn -0.4182 0.5003 0.7582
vn -0.1157 0.9929 0.0278
vn -0.1218 0.6781 0.7248
vn -0.5165 0.3609 0.7766
vn -0.3027 0.6129 0.7299
vn -0.4058 0.9139 0.0115
vn -0.5165 0.3608 0.7765
vn -0.4059 0.9138 0.0116
vn -0.3027 0.6128 0.7299
vn -0.5748 0.1830 0.7976
vn -0.7851 0.6194 -0.0000
vn -0.5165 0.3608 0.7766
vn -0.3028 0.6128 0.7299
vn -0.4059 0.9139 0.0116
vn -0.6004 0.7997 -0.0000
vn -0.7850 0.6194 -0.0000
vn -0.9260 0.3775 -0.0000
vn -0.1421 0.0044 0.9898
vn -0.9260 0.3774 -0.0000
vn -0.9951 0.0990 -0.0000
vn -0.0939 -0.0503 0.9943
vn -0.6424 -0.0014 0.7664
vn -0.1420 0.0044 0.9898
vn -0.0938 -0.0503 0.9943
vn -0.6424 -0.0015 0.7664
vn -0.0831 -0.0959 0.9919
vn -0.9816 -0.1908 -0.0000
vn -0.5373 -0.1591 0.8283
vn -0.1421 0.0045 0.9898
vn -0.0743 -0.1302 0.9887
vn -0.4815 -0.2986 0.8240
vn -0.9816 -0.1908 0.0001
vn -0.9024 -0.4310 -0.0000
vn -0.5373 -0.1590 0.8283
vn -0.9024 -0.4309 -0.0000
vn -0.4004 -0.4201 0.8144
vn -0.0744 -0.1302 0.9887
vn -0.4816 -0.2986 0.8240
vn -0.7624 -0.6471 -0.0000
vn -0.3181 -0.5149 0.7960
vn -0.0686 -0.1683 0.9833
vn -0.5962 -0.8028 -0.0000
vn -0.5962 -0.8029 -0.0000
vn -0.0497 -0.2125 0.9759
vn -0.3955 -0.9185 -0.0001
vn 0.3775 0.1543 0.9130
vn -0.2052 -0.6107 0.7648
vn -0.3954 -0.9185 -0.0000
vn -0.0498 -0.2126 0.9759
vn 0.1616 0.0991 0.9819
vn 0.3776 0.1543 0.9130
vn -0.3955 -0.9185 -0.0000
vn -0.1354 -0.9908 -0.0000
vn 0.3086 0.5747 0.7579
vn -0.0523 -0.6735 0.7373
vn 0.3087 0.5747 0.7579
vn -0.0717 0.9974 -0.0001
vn -0.0524 -0.6735 0.7373
vn -0.1354 -0.9908 -0.0001
vn 0.1103 -0.9939 -0.0000
vn 0.3775 0.1543 0.9131
vn 0.6461 0.0460 0.7619
vn 0.4368 0.5324 0.7250
vn 0.3086 0.5748 0.7579
vn -0.0717 0.9974 -0.0000
vn 0.2295 0.8191 0.5257
vn -0.0139 -0.2444 0.9696
vn -0.0497 -0.2126 0.9759
vn 0.0985 -0.7104 0.6969
vn 0.5224 0.6939 0.4955
vn 0.8842 0.4671 -0.0000
vn 0.3801 -0.9249 -0.0000
vn 0.8561 -0.1135 0.5042
vn 0.8842 0.4671 -0.0001
vn 0.7264 0.4598 0.5108
vn 0.8561 -0.1135 0.5043
vn 0.0830 0.2726 0.9585
vn 0.8934 -0.4493 -0.0000
vn 0.3801 -0.9250 -0.0000
vn 0.3532 -0.6422 0.6803
vn 0.0984 -0.7104 0.6969
vn 0.7754 -0.4072 0.4826
vn 0.7754 -0.4072 0.4827
vn 0.6687 -0.7435 -0.0000
vn 0.0361 -0.2534 0.9667
vn 0.8542 -0.5199 -0.0000
vn 0.0362 -0.2534 0.9667
vn 0.3532 -0.6422 0.6802
vn 0.6461 0.0460 0.7618
vn 0.9822 -0.1877 -0.0000
vn 0.3533 -0.6422 0.6803
vn 0.2055 -0.2728 0.9399
vn 0.0362 -0.2535 0.9667
vn 0.6467 0.2706 0.7131
vn 0.6688 -0.7435 -0.0000
vn 0.6187 -0.4877 0.6159
vn 0.1616 0.0992 0.9819
vn 0.6467 0.2707 0.7131
vn 0.8269 0.5624 -0.0000
vn 0.3532 -0.6423 0.6803
vn 0.8653 -0.5013 -0.0000
vn 0.3572 0.6510 0.6698
vn 0.3571 0.6510 0.6698
vn 0.5080 -0.3109 0.8033
vn 0.8652 -0.5014 -0.0000
vn 0.7878 -0.3258 0.5227
vn 0.4420 0.8970 -0.0000
vn -0.0557 0.3190 0.9461
vn 0.0831 0.2726 0.9585
vn 0.0361 -0.2535 0.9667
vn 0.0811 0.8131 0.5764
vn 0.8653 -0.5013 -0.0001
vn 0.9929 -0.1186 -0.0001
vn 0.0811 0.8131 0.5765
vn 0.5079 -0.3109 0.8033
vn 0.0692 0.0891 0.9936
vn 0.0398 0.9992 -0.0000
vn 0.6113 -0.2258 0.7585
vn -0.4315 0.7013 0.5674
vn -0.0556 0.3190 0.9461
vn -0.4315 0.7013 0.5675
vn 0.9015 -0.0588 0.4287
vn -0.7033 0.7109 -0.0000
vn 0.9015 -0.0587 0.4288
vn 0.9015 -0.0588 0.4288
vn 0.9301 0.3673 -0.0000
vn -0.0080 0.2460 0.9692
vn -0.6907 0.4830 0.5382
vn 0.8230 0.4890 0.2892
vn -0.6907 0.4830 0.5381
vn -0.7659 0.6430 -0.0000
vn 0.9301 0.3673 -0.0001
vn 0.6318 0.7751 -0.0000
vn 0.6855 0.2665 0.6775
vn 0.6856 0.2665 0.6775
vn 0.8230 0.4889 0.2893
vn 0.5682 0.7645 0.3045
vn 0.6855 0.2666 0.6775
vn -0.3627 0.7622 0.5362
vn 0.3428 0.9394 -0.0000
vn 0.8229 0.4890 0.2893
vn -0.6907 0.4831 0.5381
vn -0.3627 0.7622 0.5361
vn -0.4892 0.8722 -0.0000
vn -0.0770 0.9970 -0.0000
vn -0.0202 0.9589 0.2829
vn 0.4176 0.8440 0.3366
vn 0.3066 0.6893 0.6564
vn 0.4177 0.8440 0.3365
vn 0.4177 0.8440 0.3366
vn 0.3066 0.6893 0.6563
vn 0.8168 0.2501 -0.5199
vn 0.8955 0.4450 0.0001
vn 0.7742 0.3104 -0.5516
vn 0.6848 0.4532 -0.5707
vn 0.7596 -0.1702 -0.6277
vn 0.6848 0.4531 -0.5707
vn 0.7596 -0.1702 -0.6278
vn 0.6215 0.4596 -0.6344
vn 0.6225 -0.3362 -0.7067
vn 0.6506 0.2716 -0.7092
vn 0.8187 0.5743 -0.0000
vn 0.6225 -0.3363 -0.7067
vn 0.8104 -0.5859 0.0001
vn 0.6507 0.2716 -0.7091
vn 0.6308 -0.1097 -0.7681
vn 0.6309 -0.1097 -0.7681
vn 0.7085 -0.0076 -0.7057
vn 0.6215 0.4597 -0.6344
vn 0.6235 0.1820 -0.7603
vn 0.4231 0.0045 -0.9061
vn 0.6235 0.1820 -0.7604
vn 0.7176 -0.2842 -0.6359
vn 0.9589 -0.2836 0.0001
vn 0.4231 0.0044 -0.9061
vn 0.3833 0.1234 -0.9153
vn 0.4368 0.5324 -0.7250
vn 0.3834 0.1233 -0.9153
vn 0.4368 0.5325 -0.7250
vn 0.3763 0.1517 -0.9140
vn 0.4580 -0.1617 -0.8741
vn 0.3958 0.0046 -0.9183
vn 0.3087 0.5747 -0.7579
vn 0.4369 0.5325 -0.7250
vn 0.7085 -0.0075 -0.7057
vn 0.3957 0.0046 -0.9183
vn 0.6991 -0.4344 -0.5679
vn 0.1438 0.0012 -0.9896
vn 0.4232 0.0044 -0.9060
vn 0.5010 -0.2669 -0.8233
vn 0.6495 -0.7561 -0.0804
vn 0.4232 0.0045 -0.9060
vn 0.1438 0.0013 -0.9896
vn 0.5010 -0.2669 -0.8232
vn 0.2295 0.8191 -0.5258
vn 0.3086 0.5747 -0.7579
vn 0.1474 -0.0140 -0.9890
vn 0.3957 0.0045 -0.9184
vn 0.1844 -0.6061 -0.7737
vn 0.5224 0.6939 -0.4956
vn 0.1845 -0.6061 -0.7737
vn 0.2001 -0.0760 -0.9768
vn 0.8561 -0.1135 -0.5043
vn 0.7264 0.4598 -0.5108
vn 0.3592 -0.9226 -0.1409
vn 0.1474 -0.0141 -0.9890
vn 0.8560 -0.1135 -0.5043
vn 0.1124 -0.7445 -0.6581
vn -0.0788 0.1789 -0.9807
vn 0.7754 -0.4072 -0.4827
vn 0.2137 -0.9769 0.0001
vn 0.5835 -0.8121 -0.0000
vn 0.2138 -0.9769 0.0001
vn -0.1000 0.1344 -0.9859
vn 0.7754 -0.4072 -0.4826
vn 0.5497 -0.6412 -0.5354
vn 0.1205 0.0216 -0.9925
vn 0.1473 -0.0141 -0.9890
vn 0.6461 0.0460 -0.7619
vn 0.6461 0.0460 -0.7618
vn 0.7754 -0.4071 -0.4827
vn 0.3957 0.0046 -0.9184
vn 0.1070 0.0302 -0.9938
vn 0.8483 -0.4138 -0.3304
vn 0.6467 0.2706 -0.7132
vn 0.3833 0.1233 -0.9153
vn 0.9088 -0.4172 -0.0000
vn 0.6467 0.2706 -0.7131
vn 0.3775 0.1543 -0.9131
vn -0.0939 -0.0503 -0.9943
vn 0.6237 0.1823 -0.7601
vn 0.4368 0.5324 -0.7251
vn 0.2831 0.2642 -0.9220
vn -0.1122 0.0756 -0.9908
vn 0.3571 0.6510 -0.6698
vn 0.3775 0.1543 -0.9130
vn -0.1121 0.0756 -0.9908
vn 0.1616 0.0992 -0.9819
vn 0.1314 0.0619 -0.9894
vn 0.1616 0.0991 -0.9819
vn 0.3572 0.6510 -0.6698
vn -0.5165 0.3609 -0.7766
vn 0.0811 0.8131 -0.5765
vn 0.0696 -0.0008 -0.9976
vn -0.0831 -0.0959 -0.9919
vn -0.1421 0.0044 -0.9898
vn -0.0938 -0.0503 -0.9943
vn -0.1420 0.0044 -0.9898
vn 0.0921 0.0023 -0.9957
vn -0.5748 0.1830 -0.7976
vn 0.0922 0.0023 -0.9957
vn 0.3776 0.1543 -0.9130
vn -0.5165 0.3608 -0.7765
vn -0.4815 -0.2986 -0.8240
vn -0.1421 0.0045 -0.9898
vn -0.5373 -0.1590 -0.8283
vn -0.0498 -0.2126 -0.9759
vn -0.0687 -0.1683 -0.9833
vn -0.5165 0.3608 -0.7766
vn -0.5373 -0.1591 -0.8283
vn -0.6424 -0.0015 -0.7663
vn -0.0497 -0.2125 -0.9759
vn -0.6424 -0.0014 -0.7663
vn -0.5165 0.3609 -0.7765
vn -0.6424 -0.0015 -0.7664
vn -0.0743 -0.1302 -0.9887
vn -0.4182 0.5003 -0.7582
vn -0.0744 -0.1302 -0.9887
vn -0.4003 -0.4201 -0.8144
vn -0.7851 0.6194 0.0001
vn -0.0686 -0.1683 -0.9833
vn -0.3181 -0.5149 -0.7961
vn -0.4004 -0.4201 -0.8144
vn -0.3116 0.6076 -0.7306
vn -0.6004 0.7997 0.0001
vn -0.3181 -0.5149 -0.7960
vn -0.4058 0.9139 0.0116
vn -0.0312 0.2011 -0.9791
vn -0.3115 0.6076 -0.7306
vn -0.1240 0.6887 -0.7143
vn -0.2052 -0.6106 -0.7648
vn 0.0872 -0.0997 -0.9912
vn -0.2052 -0.6107 -0.7648
vn -0.2052 -0.6106 -0.7649
vn 0.0611 -0.3359 -0.9399
vn -0.3954 -0.9185 -0.0001
vn 0.1581 0.7180 -0.6778
vn 0.0611 -0.3358 -0.9399
vn 0.0873 -0.0997 -0.9912
vn -0.0523 -0.6735 -0.7373
vn 0.1199 0.9928 0.0001
vn -0.1241 0.6887 -0.7143
vn 0.0312 0.2259 -0.9736
vn 0.0312 0.2259 -0.9737
vn -0.0524 -0.6735 -0.7373
vn 0.1580 0.7181 -0.6778
vn -0.0139 -0.2444 -0.9696
vn 0.0985 -0.7104 -0.6969
vn 0.0879 0.2394 -0.9669
vn -0.0497 -0.2126 -0.9759
vn 0.0830 0.2726 -0.9585
vn 0.1581 0.7181 -0.6778
vn 0.5168 0.6264 -0.5836
vn 0.1103 -0.9939 -0.0001
vn 0.0361 -0.2534 -0.9667
vn 0.0984 -0.7104 -0.6969
vn 0.3532 -0.6422 -0.6803
vn -0.0557 0.3190 -0.9461
vn 0.0831 0.2726 -0.9585
vn 0.0362 -0.2534 -0.9667
vn 0.0361 -0.2535 -0.9667
vn -0.4315 0.7013 -0.5675
vn 0.8684 0.3822 -0.3159
vn 0.3533 -0.6422 -0.6803
vn 0.6187 -0.4877 -0.6159
vn -0.0556 0.3190 -0.9461
vn 0.8684 0.3823 -0.3159
vn 0.4439 0.2600 -0.8575
vn 0.4439 0.2599 -0.8575
vn 0.0610 -0.3358 -0.9399
vn 0.0692 0.0891 -0.9936
vn 0.8619 0.1182 -0.4931
vn 0.5961 -0.3181 -0.7372
vn 0.2055 -0.2728 -0.9399
vn 0.5497 -0.6412 -0.5355
vn 0.0362 -0.2535 -0.9667
vn 0.8746 -0.2201 -0.4320
vn 0.8619 0.1183 -0.4931
vn -0.0080 0.2460 -0.9692
vn 0.5079 -0.3109 -0.8033
vn 0.5080 -0.3109 -0.8033
vn -0.4315 0.7013 -0.5674
vn -0.6907 0.4831 -0.5382
vn -0.6907 0.4831 -0.5381
vn 0.6113 -0.2258 -0.7585
vn 0.7877 -0.3258 -0.5228
vn 0.8652 -0.5013 -0.0000
vn 0.7878 -0.3258 -0.5228
vn -0.3627 0.7622 -0.5362
vn 0.6855 0.2666 -0.6775
vn 0.9015 -0.0588 -0.4288
vn -0.3628 0.7622 -0.5362
vn -0.3627 0.7622 -0.5361
vn 0.6855 0.2665 -0.6775
vn 0.9015 -0.0587 -0.4288
vn 0.3066 0.6893 -0.6564
vn -0.0202 0.9589 -0.2829
vn 0.8229 0.4890 -0.2893
vn 0.3066 0.6893 -0.6563
vn 0.8229 0.4890 -0.2892
vn 0.6856 0.2666 -0.6775
vn 0.4177 0.8440 -0.3365
vn 0.5682 0.7645 -0.3044
vn 0.3429 0.9394 -0.0000
vn 0.4176 0.8440 -0.3365
vn 0.5682 0.7645 -0.3045
vt 0.726074 0.497559
vt 0.720215 0.492187
vt 0.725098 0.464844
vt 0.708496 0.524414
vt 0.705078 0.513184
vt 0.731445 0.457520
vt 0.683105 0.553467
vt 0.714844 0.458984
vt 0.720703 0.445801
vt 0.703125 0.439453
vt 0.664551 0.544434
vt 0.662598 0.585693
vt 0.679199 0.454102
vt 0.624023 0.575928
vt 0.658691 0.637207
vt 0.685547 0.433594
vt 0.613770 0.647949
vt 0.673828 0.687744
vt 0.643555 0.449219
vt 0.642578 0.703369
vt 0.708984 0.728760
vt 0.618652 0.391602
vt 0.674805 0.400391
vt 0.613281 0.449707
vt 0.681152 0.753052
vt 0.750488 0.775024
vt 0.659180 0.353027
vt 0.693359 0.372559
vt 0.596680 0.577393
vt 0.742188 0.804932
vt 0.670410 0.762451
vt 0.810059 0.742187
vt 0.632324 0.345215
vt 0.625488 0.711670
vt 0.549316 0.451660
vt 0.594238 0.387695
vt 0.644043 0.785034
vt 0.593262 0.653320
vt 0.839355 0.759399
vt 0.860352 0.721680
vt 0.555176 0.383301
vt 0.587402 0.730469
vt 0.927246 0.739502
vt 0.930176 0.767700
vt 0.576172 0.327637
vt 0.980469 0.794434
vt 0.537598 0.580322
vt 0.849609 0.801270
vt 0.610840 0.257812
vt 0.971191 0.802124
vt 0.986816 0.811157
vt 0.546875 0.664551
vt 0.476318 0.197754
vt 0.969238 0.815063
vt 0.411621 0.698486
vt 0.938965 0.796997
vt 0.974609 0.843872
vt 0.475098 0.786377
vt 0.990723 0.845337
vt 0.953125 0.860596
vt 0.563965 0.854614
vt 0.974121 0.865601
vt 0.987793 0.862061
vt 0.872070 0.890869
vt 0.734375 0.838257
vt 0.969727 0.911987
vt 0.956055 0.891663
vt 0.668945 0.904419
vt 0.922363 0.950714
vt 0.761719 0.918640
vt 0.878418 0.928223
vt 0.863770 0.979660
vt 0.534668 0.878235
vt 0.762207 0.987297
vt 0.762207 0.948242
vt 0.436279 0.805054
vt 0.653809 0.930847
vt 0.628906 0.968231
vt 0.365234 0.709229
vt 0.384033 0.832886
vt 0.494385 0.915588
vt 0.298828 0.726562
vt 0.373535 0.588867
vt 0.244385 0.596924
vt 0.370605 0.454102
vt 0.320068 0.593018
vt 0.384033 0.354004
vt 0.233398 0.454102
vt 0.316895 0.453613
vt 0.419189 0.278809
vt 0.332764 0.344727
vt 0.254639 0.331543
vt 0.367676 0.262207
vt 0.297119 0.238281
vt 0.434082 0.176270
vt 0.373047 0.146973
vt 0.541992 0.128906
vt 0.476318 0.069824
vt 0.659180 0.278320
vt 0.513672 0.104492
vt 0.647949 0.191406
vt 0.589844 0.022461
vt 0.734863 0.352539
vt 0.609863 0.064453
vt 0.738281 0.363281
vt 0.719238 0.009766
vt 0.681641 0.288574
vt 0.749512 0.346680
vt 0.623047 0.093262
vt 0.724121 0.043457
vt 0.755859 0.351074
vt 0.855957 0.026367
vt 0.744141 0.325195
vt 0.742676 0.142578
vt 0.748535 0.320312
vt 0.850586 0.048828
vt 0.729980 0.316895
vt 0.929688 0.058594
vt 0.728027 0.069824
vt 0.732422 0.306641
vt 0.714844 0.291992
vt 0.845215 0.068359
vt 0.684082 0.233887
vt 0.920410 0.075195
vt 0.725586 0.265625
vt 0.976074 0.098633
vt 0.749512 0.177246
vt 0.912109 0.092285
vt 0.964844 0.111328
vt 0.766602 0.215820
vt 0.833496 0.121094
vt 0.827637 0.144531
vt 0.997559 0.139648
vt 0.893066 0.129883
vt 0.825195 0.185547
vt 0.950684 0.125488
vt 0.885254 0.145996
vt 0.986816 0.147949
vt 0.875488 0.187500
vt 0.998047 0.169922
vt 0.921387 0.158691
vt 0.910156 0.173340
vt 0.991699 0.168457
vt 0.897461 0.201660
vt 0.987793 0.190430
vt 0.976074 0.169434
vt 0.981934 0.181641
vt 0.935547 0.191406
vt 0.968262 0.208008
vt 0.924805 0.217285
vt 0.947754 0.216797
vt 0.946777 0.202148
vt 0.962402 0.197266
vt 0.946777 0.185547
vt 0.653809 0.931030
vt 0.762207 0.947693
vt 0.878418 0.928101
vt 0.957031 0.892578
vt 0.976074 0.862061
s 0
usemtl bluemoon
f 12/1/1 10/2/2 9/3/3
f 12/1/1 125/4/4 11/5/5
f 9/3/3 13/6/6 12/1/1
f 11/5/5 10/2/2 12/1/7
f 11/5/5 125/4/8 126/7/9
f 8/8/10 9/3/3 10/2/2
f 13/6/11 9/3/3 8/8/10
f 10/2/2 11/5/5 8/8/10
f 8/8/10 124/9/12 13/6/11
f 123/10/13 124/9/12 8/8/10
f 95/11/14 126/7/9 127/12/15
f 126/7/16 95/11/17 11/5/5
f 8/8/10 94/13/18 123/10/19
f 96/14/20 127/12/15 128/15/21
f 94/13/18 8/8/10 11/5/5
f 11/5/5 95/11/17 94/13/18
f 122/16/22 123/10/13 94/13/18
f 127/12/23 96/14/24 95/11/14
f 129/17/25 128/15/21 130/18/26
f 94/13/18 93/19/27 122/16/22
f 93/19/27 94/13/18 95/11/17
f 128/15/21 129/17/25 96/14/24
f 95/11/14 96/14/28 93/19/27
f 131/20/29 130/18/30 132/21/31
f 121/22/32 120/23/33 122/16/22
f 130/18/34 131/20/29 129/17/35
f 122/16/22 93/19/36 121/22/37
f 59/24/38 93/19/36 96/14/28
f 133/25/39 132/21/31 134/26/40
f 121/22/37 93/19/36 59/24/38
f 132/21/41 133/25/39 131/20/29
f 17/27/42 119/28/43 120/23/44
f 120/23/44 121/22/37 17/27/42
f 62/29/45 96/14/24 129/17/35
f 134/26/46 78/30/47 133/25/39
f 96/14/24 62/29/48 59/24/49
f 131/20/50 133/25/39 75/31/51
f 78/30/52 134/26/53 135/32/54
f 75/31/55 133/25/39 78/30/52
f 20/33/56 17/27/57 121/22/32
f 129/17/58 131/20/50 71/34/59
f 75/31/55 71/34/59 131/20/50
f 58/35/60 59/24/61 62/29/48
f 59/24/38 21/36/62 121/22/37
f 74/37/63 75/31/55 78/30/64
f 21/36/62 59/24/65 58/35/60
f 121/22/37 21/36/62 20/33/56
f 71/34/59 75/31/55 74/37/63
f 129/17/25 66/38/66 62/29/67
f 135/32/54 80/39/68 78/30/64
f 71/34/59 66/38/69 129/17/25
f 80/39/70 135/32/71 136/40/72
f 20/33/56 21/36/62 18/41/73
f 66/38/74 71/34/59 70/42/75
f 80/39/76 136/40/72 137/43/77
f 58/35/78 18/41/73 21/36/62
f 74/37/63 70/42/79 71/34/59
f 137/43/77 85/44/80 80/39/76
f 18/41/73 19/45/81 20/33/56
f 85/44/80 137/43/77 138/46/82
f 62/29/83 63/47/84 58/35/60
f 63/47/84 62/29/67 66/38/85
f 78/30/64 80/39/68 81/48/86
f 20/33/56 19/45/81 26/49/87
f 81/48/88 80/39/70 85/44/89
f 89/50/90 138/46/91 141/51/92
f 66/38/85 67/52/93 63/47/84
f 138/46/91 89/50/90 85/44/80
f 70/42/75 67/52/93 66/38/66
f 29/53/94 26/49/95 19/45/81
f 141/51/92 90/54/96 89/50/90
f 63/47/84 67/52/93 69/55/97
f 85/44/80 86/56/98 81/48/88
f 92/57/99 90/54/96 141/51/92
f 86/56/98 85/44/80 89/50/100
f 67/52/93 70/42/75 73/58/101
f 89/50/90 90/54/96 86/56/98
f 86/56/98 90/54/96 92/57/102
f 141/51/103 139/59/104 92/57/102
f 73/58/101 69/55/105 67/52/93
f 81/48/86 86/56/98 88/60/106
f 77/61/107 73/58/101 70/42/75
f 91/62/108 92/57/99 139/59/104
f 92/57/109 88/60/110 86/56/98
f 70/42/75 74/37/111 77/61/107
f 88/60/106 92/57/112 91/62/113
f 139/59/104 140/63/114 91/62/108
f 88/60/106 84/64/115 81/48/116
f 78/30/52 7/65/117 74/37/63
f 91/62/113 140/63/114 142/66/118
f 91/62/119 87/67/120 88/60/110
f 81/48/88 7/65/117 78/30/64
f 7/65/117 81/48/88 84/64/115
f 142/66/121 87/67/120 91/62/113
f 84/64/115 88/60/106 87/67/120
f 74/37/63 7/65/117 6/68/122
f 87/67/120 142/66/121 143/69/123
f 6/68/122 77/61/107 74/37/63
f 84/64/115 5/70/124 7/65/117
f 87/67/125 82/71/126 84/64/115
f 143/69/123 82/71/127 87/67/120
f 5/70/124 6/68/122 7/65/117
f 5/70/128 84/64/115 82/71/127
f 82/71/126 143/69/123 144/72/129
f 73/58/101 77/61/107 76/73/130
f 82/71/127 144/72/129 145/74/131
f 6/68/122 5/70/124 83/75/132
f 82/71/126 83/75/132 5/70/124
f 145/74/131 83/75/132 82/71/127
f 69/55/105 73/58/101 72/76/133
f 77/61/107 6/68/122 79/77/134
f 83/75/132 145/74/131 146/78/135
f 76/73/130 72/76/136 73/58/101
f 79/77/134 76/73/130 77/61/107
f 83/75/132 79/77/134 6/68/122
f 146/78/137 79/77/138 83/75/132
f 72/76/136 68/79/139 69/55/97
f 148/80/140 72/76/141 76/73/130
f 79/77/142 146/78/143 147/81/144
f 147/81/144 76/73/130 79/77/134
f 76/73/130 147/81/144 148/80/140
f 72/76/141 148/80/145 149/82/146
f 149/82/146 68/79/139 72/76/141
f 64/83/147 69/55/97 68/79/139
f 69/55/97 64/83/147 63/47/84
f 68/79/139 149/82/148 150/84/149
f 60/85/150 58/35/60 63/47/84
f 68/79/139 65/86/151 64/83/147
f 63/47/84 64/83/152 60/85/153
f 150/84/149 65/86/154 68/79/139
f 24/87/155 18/41/73 58/35/78
f 65/86/154 150/84/149 151/88/156
f 61/89/157 60/85/150 64/83/158
f 58/35/60 60/85/150 24/87/155
f 18/41/73 24/87/155 23/90/159
f 64/83/147 65/86/151 61/89/157
f 151/88/156 61/89/157 65/86/154
f 23/90/159 19/45/81 18/41/73
f 25/91/160 24/87/155 60/85/153
f 61/89/157 151/88/161 152/92/162
f 19/45/81 23/90/159 29/53/94
f 60/85/153 61/89/163 25/91/160
f 152/92/164 25/91/160 61/89/157
f 22/93/165 23/90/166 24/87/155
f 25/91/167 152/92/164 153/94/168
f 24/87/155 25/91/167 22/93/165
f 153/94/168 22/93/165 25/91/160
f 28/95/169 29/53/170 23/90/159
f 22/93/165 153/94/168 154/96/171
f 23/90/159 22/93/165 28/95/169
f 154/96/172 28/95/169 22/93/165
f 26/49/95 29/53/94 3/97/173
f 28/95/169 154/96/172 97/98/174
f 26/49/95 27/99/175 20/33/56
f 29/53/94 28/95/169 4/100/176
f 17/27/57 20/33/56 27/99/175
f 97/98/177 4/100/176 28/95/169
f 4/100/176 3/97/173 29/53/94
f 3/97/178 32/101/179 26/49/95
f 27/99/180 26/49/95 32/101/179
f 4/100/176 97/98/181 98/102/182
f 119/28/43 17/27/57 16/103/183
f 3/97/173 4/100/176 1/104/184
f 98/102/182 1/104/184 4/100/176
f 16/103/185 118/105/186 119/28/43
f 1/104/187 98/102/188 99/106/189
f 27/99/190 14/107/191 17/27/192
f 16/103/193 17/27/57 14/107/191
f 118/105/194 16/103/183 31/108/195
f 1/104/187 2/109/196 3/97/197
f 99/106/189 34/110/198 1/104/187
f 31/108/199 117/111/200 118/105/194
f 32/101/179 3/97/173 2/109/196
f 2/109/196 1/104/187 34/110/198
f 34/110/198 99/106/189 100/112/201
f 30/113/202 31/108/199 16/103/193
f 117/111/203 31/108/204 30/113/205
f 37/114/206 32/101/179 2/109/196
f 30/113/202 116/115/207 117/111/200
f 100/112/208 38/116/209 34/110/210
f 14/107/191 15/117/211 16/103/183
f 116/115/207 30/113/205 15/117/212
f 38/116/209 100/112/208 101/118/213
f 16/103/183 15/117/211 30/113/202
f 34/110/198 35/119/214 2/109/196
f 15/117/212 115/120/215 116/115/207
f 35/119/216 34/110/198 38/116/217
f 2/109/196 35/119/216 37/114/206
f 15/117/211 14/107/218 114/121/219
f 114/121/219 115/120/215 15/117/211
f 38/116/220 39/122/221 35/119/222
f 33/123/223 14/107/191 27/99/190
f 114/121/219 14/107/191 33/123/223
f 101/118/224 42/124/225 38/116/209
f 32/101/226 33/123/223 27/99/190
f 33/123/227 113/125/228 114/121/219
f 39/122/221 38/116/229 42/124/225
f 42/124/225 101/118/224 102/126/230
f 36/127/231 33/123/223 32/101/179
f 113/125/228 33/123/223 36/127/232
f 32/101/226 37/114/206 36/127/232
f 42/124/225 43/128/233 39/122/221
f 102/126/234 46/129/235 42/124/225
f 36/127/231 112/130/236 113/125/228
f 41/131/237 37/114/238 35/119/239
f 43/128/233 42/124/225 46/129/235
f 35/119/216 39/122/221 41/131/237
f 112/130/236 36/127/232 40/132/240
f 46/129/235 102/126/241 103/133/242
f 40/132/243 36/127/232 37/114/206
f 39/122/221 43/128/244 45/134/245
f 40/132/243 111/135/246 112/130/236
f 37/114/238 41/131/237 40/132/243
f 45/134/245 41/131/237 39/122/221
f 46/129/235 47/136/247 43/128/233
f 111/135/246 40/132/240 44/137/248
f 45/134/245 43/128/233 47/136/247
f 41/131/249 45/134/245 44/137/250
f 44/137/248 40/132/243 41/131/249
f 103/133/242 50/138/251 46/129/235
f 44/137/250 110/139/252 111/135/246
f 47/136/247 46/129/235 50/138/253
f 50/138/254 103/133/242 104/140/255
f 47/136/247 48/141/256 45/134/245
f 110/139/252 44/137/250 49/142/257
f 104/140/255 54/143/258 50/138/253
f 44/137/250 45/134/245 48/141/256
f 49/142/259 109/144/260 110/139/252
f 54/143/258 104/140/261 107/145/262
f 48/141/256 49/142/259 44/137/248
f 50/138/251 51/146/263 47/136/247
f 51/146/264 50/138/254 54/143/265
f 107/145/262 55/147/266 54/143/265
f 48/141/256 47/136/247 51/146/267
f 109/144/260 49/142/259 52/148/268
f 55/147/266 107/145/262 105/149/269
f 54/143/270 55/147/266 51/146/263
f 52/148/268 49/142/271 48/141/256
f 52/148/272 108/150/273 109/144/260
f 105/149/269 106/151/274 56/152/275
f 105/149/269 57/153/276 55/147/266
f 51/146/263 53/154/277 48/141/256
f 56/152/275 106/151/274 108/150/273
f 56/152/275 57/153/278 105/149/269
f 53/154/277 51/146/263 55/147/266
f 48/141/256 53/154/277 52/148/268
f 108/150/273 52/148/272 56/152/275
f 55/147/266 57/153/279 53/154/280
f 56/152/275 52/148/268 53/154/280
f 53/154/280 57/153/278 56/152/275
f 12/1/1 13/6/11 165/3/281
f 12/1/282 164/2/283 163/5/284
f 162/8/285 165/3/281 13/6/11
f 165/3/281 164/2/283 12/1/282
f 163/5/286 125/4/4 12/1/282
f 164/2/283 165/3/281 162/8/287
f 13/6/11 124/9/12 162/8/285
f 126/7/16 125/4/4 163/5/284
f 162/8/285 163/5/284 164/2/283
f 162/8/287 124/9/12 123/10/13
f 127/12/15 126/7/9 247/11/288
f 163/5/286 247/11/288 126/7/16
f 123/10/19 248/13/289 162/8/287
f 163/5/286 162/8/287 248/13/289
f 247/11/288 246/14/290 127/12/291
f 248/13/289 247/11/288 163/5/284
f 248/13/292 123/10/13 122/16/293
f 128/15/21 127/12/15 246/14/294
f 247/11/288 248/13/292 245/19/295
f 122/16/22 245/19/296 248/13/289
f 246/14/294 250/17/297 128/15/21
f 245/19/295 246/14/294 247/11/298
f 249/22/299 245/19/295 122/16/22
f 130/18/34 128/15/21 250/17/297
f 246/14/294 245/19/295 211/24/300
f 122/16/293 120/23/33 249/22/301
f 211/24/300 245/19/295 249/22/299
f 250/17/297 251/20/302 130/18/303
f 211/24/304 214/29/305 246/14/294
f 167/27/306 249/22/299 120/23/44
f 250/17/297 246/14/294 214/29/307
f 132/21/41 130/18/30 251/20/302
f 120/23/44 119/28/43 167/27/308
f 249/22/299 171/36/309 211/24/300
f 223/34/310 251/20/302 250/17/297
f 214/29/307 218/38/311 250/17/297
f 168/103/312 167/27/313 119/28/43
f 250/17/314 218/38/315 223/34/310
f 251/20/302 252/25/316 132/21/31
f 119/28/43 118/105/194 168/103/312
f 210/35/317 211/24/318 171/36/309
f 251/20/302 223/34/310 227/31/319
f 134/26/320 132/21/41 252/25/316
f 214/29/305 211/24/321 210/35/322
f 227/31/323 252/25/316 251/20/302
f 183/108/324 168/103/325 118/105/194
f 222/42/326 223/34/310 218/38/327
f 227/31/319 230/30/328 252/25/316
f 118/105/194 117/111/203 183/108/329
f 252/25/316 230/30/330 134/26/46
f 226/37/331 227/31/319 223/34/310
f 182/113/332 183/108/333 117/111/200
f 135/32/71 134/26/334 230/30/328
f 230/30/328 227/31/319 226/37/331
f 223/34/310 222/42/335 226/37/331
f 168/103/312 183/108/329 182/113/332
f 117/111/200 116/115/207 182/113/336
f 230/30/330 233/39/337 135/32/71
f 229/61/338 226/37/331 222/42/326
f 169/117/339 182/113/336 116/115/207
f 233/39/337 136/40/340 135/32/71
f 182/113/332 169/117/339 168/103/325
f 116/115/207 115/120/215 169/117/339
f 137/43/341 136/40/342 233/39/337
f 222/42/326 225/58/343 229/61/338
f 169/117/344 115/120/215 114/121/219
f 233/39/337 237/44/345 137/43/341
f 218/38/311 219/52/346 222/42/347
f 168/103/325 169/117/344 166/107/348
f 114/121/219 166/107/349 169/117/350
f 138/46/91 137/43/77 237/44/345
f 225/58/343 222/42/326 219/52/346
f 166/107/348 167/27/308 168/103/325
f 218/38/351 214/29/307 215/47/352
f 237/44/345 241/50/353 138/46/82
f 184/123/354 166/107/348 114/121/219
f 215/47/352 219/52/346 218/38/351
f 210/35/317 215/47/352 214/29/355
f 141/51/92 138/46/356 241/50/353
f 114/121/219 113/125/228 184/123/357
f 167/27/306 166/107/348 178/99/358
f 215/47/352 210/35/322 213/85/359
f 184/123/354 178/99/358 166/107/348
f 249/22/360 167/27/361 172/33/362
f 221/55/363 219/52/346 215/47/352
f 188/127/364 184/123/357 113/125/228
f 172/33/362 171/36/309 249/22/299
f 178/99/365 172/33/362 167/27/306
f 219/52/346 221/55/366 225/58/343
f 113/125/228 112/130/236 188/127/364
f 178/99/358 184/123/357 185/101/367
f 170/41/368 171/36/309 172/33/362
f 185/101/369 184/123/357 188/127/370
f 171/36/309 170/41/368 210/35/317
f 224/76/371 225/58/343 221/55/366
f 192/132/372 188/127/370 112/130/236
f 172/33/362 173/45/373 170/41/368
f 210/35/317 170/41/368 176/87/374
f 215/47/352 217/83/375 221/55/363
f 112/130/236 111/135/246 192/132/372
f 176/87/374 213/85/359 210/35/322
f 213/85/376 217/83/377 215/47/352
f 172/33/362 178/99/365 179/49/378
f 220/79/379 221/55/363 217/83/375
f 179/49/380 173/45/373 172/33/362
f 185/101/369 179/49/378 178/99/381
f 221/55/363 220/79/379 224/76/382
f 213/85/359 176/87/374 175/91/383
f 217/83/384 213/85/359 212/89/385
f 179/49/378 185/101/369 157/97/386
f 175/91/383 212/89/385 213/85/376
f 150/84/149 149/82/148 220/79/379
f 173/45/373 179/49/378 181/53/387
f 224/76/388 220/79/379 149/82/146
f 212/89/389 216/86/390 217/83/375
f 157/97/391 181/53/387 179/49/378
f 220/79/379 216/86/392 150/84/149
f 149/82/146 148/80/145 224/76/393
f 217/83/375 216/86/394 220/79/379
f 170/41/368 173/45/373 177/90/395
f 151/88/156 150/84/149 216/86/390
f 228/73/396 224/76/388 148/80/140
f 177/90/395 176/87/374 170/41/368
f 216/86/390 212/89/385 151/88/156
f 225/58/343 224/76/382 228/73/396
f 181/53/387 177/90/395 173/45/373
f 152/92/162 151/88/156 212/89/389
f 228/73/396 229/61/338 225/58/343
f 212/89/389 175/91/383 152/92/162
f 176/87/374 177/90/397 174/93/398
f 148/80/399 147/81/144 228/73/396
f 174/93/398 175/91/383 176/87/374
f 153/94/168 152/92/164 175/91/383
f 177/90/395 181/53/400 180/95/401
f 175/91/383 174/93/402 153/94/168
f 231/155/403 228/73/396 147/81/404
f 180/95/405 174/93/402 177/90/395
f 154/96/171 153/94/168 174/93/402
f 229/61/338 228/73/396 231/155/403
f 174/93/402 180/95/401 154/96/171
f 147/81/144 146/78/406 231/155/403
f 97/98/177 154/96/172 180/95/405
f 226/37/331 229/61/338 161/68/407
f 231/155/408 161/68/407 229/61/338
f 236/156/409 231/155/408 146/78/137
f 180/95/401 156/100/410 97/98/177
f 226/37/331 160/65/411 230/30/328
f 161/68/407 231/155/408 236/156/409
f 156/100/412 180/95/401 181/53/387
f 161/68/407 160/65/411 226/37/331
f 146/78/137 145/74/131 236/156/409
f 181/53/387 157/97/391 156/100/413
f 232/48/414 233/39/337 230/30/328
f 98/102/188 97/98/415 156/100/413
f 234/157/416 236/156/409 145/74/131
f 237/44/345 233/39/337 232/48/417
f 230/30/328 160/65/418 232/48/417
f 156/100/413 155/104/419 98/102/182
f 145/74/131 144/72/420 234/157/416
f 236/156/421 159/70/422 161/68/407
f 155/104/419 156/100/413 157/97/391
f 159/70/423 160/65/411 161/68/407
f 99/106/189 98/102/182 155/104/424
f 159/70/422 236/156/409 234/157/425
f 234/157/425 144/72/129 143/69/123
f 185/101/369 158/109/426 157/97/391
f 155/104/424 186/110/427 99/106/189
f 160/65/411 159/70/423 235/64/428
f 157/97/429 158/109/426 155/104/424
f 188/127/370 189/114/430 185/101/367
f 234/157/431 235/64/428 159/70/422
f 235/64/428 232/48/417 160/65/411
f 186/110/427 155/104/424 158/109/426
f 189/114/430 188/127/364 192/132/372
f 158/109/426 185/101/369 189/114/430
f 235/64/428 234/157/425 239/158/432
f 100/112/208 99/106/433 186/110/427
f 189/114/430 187/119/434 158/109/426
f 239/158/432 234/157/425 143/69/123
f 186/110/435 190/116/436 100/112/208
f 158/109/426 187/119/434 186/110/427
f 192/132/372 193/131/437 189/114/438
f 143/69/123 142/66/121 239/158/432
f 190/116/436 186/110/427 187/119/439
f 187/119/440 189/114/438 193/131/437
f 101/118/213 100/112/208 190/116/436
f 196/137/441 192/132/372 111/135/246
f 243/159/442 239/158/432 142/66/121
f 190/116/443 194/124/444 101/118/213
f 193/131/445 192/132/372 196/137/441
f 111/135/246 110/139/252 196/137/441
f 142/66/118 140/63/114 243/159/446
f 239/158/432 240/60/447 235/64/428
f 102/126/230 101/118/213 194/124/444
f 243/159/442 140/63/114 139/59/104
f 240/60/448 239/158/432 243/159/446
f 232/48/449 235/64/428 240/60/447
f 196/137/441 197/134/450 193/131/445
f 244/57/451 139/59/104 141/51/92
f 139/59/104 244/57/451 243/159/442
f 232/48/417 238/56/452 237/44/345
f 243/159/442 244/57/451 240/60/447
f 193/131/437 191/122/453 187/119/439
f 240/60/447 238/56/452 232/48/414
f 241/50/353 237/44/454 238/56/452
f 187/119/455 191/122/453 190/116/443
f 191/122/453 193/131/437 197/134/450
f 238/56/452 240/60/448 244/57/451
f 194/124/444 190/116/436 191/122/453
f 241/50/353 242/54/456 141/51/92
f 244/57/451 242/54/456 238/56/452
f 238/56/452 242/54/456 241/50/353
f 141/51/103 242/54/456 244/57/457
f 201/141/458 197/134/450 196/137/441
f 197/134/450 195/128/459 191/122/453
f 191/122/453 195/128/460 194/124/444
f 196/137/461 200/142/462 201/141/458
f 200/142/463 196/137/441 110/139/252
f 197/134/450 201/141/458 199/136/464
f 199/136/464 195/128/460 197/134/450
f 194/124/444 198/129/465 102/126/466
f 110/139/252 109/144/260 200/142/463
f 198/129/467 194/124/444 195/128/460
f 195/128/460 199/136/464 198/129/465
f 103/133/242 102/126/230 198/129/467
f 204/148/468 200/142/463 109/144/260
f 203/146/469 199/136/464 201/141/458
f 198/129/467 202/138/470 103/133/242
f 201/141/458 200/142/463 204/148/471
f 109/144/260 108/150/273 204/148/472
f 202/138/470 198/129/465 199/136/464
f 199/136/464 203/146/473 202/138/474
f 104/140/255 103/133/242 202/138/474
f 204/148/472 205/154/475 201/141/458
f 208/152/476 204/148/468 108/150/273
f 201/141/458 205/154/475 203/146/473
f 202/138/470 206/143/477 104/140/255
f 205/154/478 204/148/472 208/152/476
f 108/150/273 106/151/274 208/152/476
f 206/143/479 202/138/470 203/146/480
f 107/145/262 104/140/255 206/143/477
f 208/152/476 106/151/274 105/149/269
f 208/152/476 209/153/481 205/154/478
f 207/147/482 203/146/473 205/154/475
f 206/143/479 207/147/482 107/145/262
f 105/149/483 209/153/484 208/152/476
f 203/146/473 207/147/482 206/143/477
f 105/149/269 107/145/262 207/147/482
f 205/154/478 209/153/484 207/147/482
f 207/147/485 209/153/481 105/149/269
