# Blender 4.0.2
# www.blender.org
mtllib Chocolatecake.mtl
o TopL
v 20.595058 50.695683 22.167898
v 9.875006 45.735291 30.438223
v 9.127340 39.377064 25.978468
v 20.646441 54.121658 25.058872
v 29.874458 55.892784 24.554171
v 29.163240 61.662323 22.602446
v 38.909901 60.963188 20.678825
v 42.397362 68.134850 16.599051
v 46.514027 62.426788 12.643559
v 41.429241 70.570740 10.440743
v 43.829895 68.095657 5.604523
v 35.032032 70.905266 1.414741
v 40.426533 67.605659 -2.131895
v 27.480829 68.889977 -10.361816
v 26.844271 64.556038 -10.322182
v 26.012068 66.851852 -16.076355
v 26.050823 57.839016 -21.677916
v 23.834616 67.463158 -23.617237
v 16.675798 66.453644 -31.279768
v 9.404448 72.740944 -29.746559
v 5.593878 66.101112 -36.090298
v -2.488925 69.151169 -38.915070
v 9.703295 56.860023 -32.836357
v -3.564971 64.324821 -38.426723
v -5.573677 65.206985 -42.023315
v -8.561595 70.840385 -42.352356
v -13.557012 62.744514 -45.644279
v -14.372088 68.697411 -44.881241
v -20.243296 66.761269 -41.023792
v -18.347012 69.425095 -38.034885
v -22.353664 62.295258 -32.459892
v -25.091265 57.222221 -19.094242
v -23.196081 54.490990 -19.141342
v -27.574699 53.678772 -8.925221
v -42.629021 26.393806 34.933441
v -32.064205 31.043495 16.630894
v -31.051180 21.578445 22.109383
v -40.328823 35.778709 22.180527
v -38.883446 37.806854 35.111298
v -35.207474 43.235386 13.533844
v -30.933926 41.871365 -4.381368
v -24.651997 40.215958 -11.085107
v -21.796486 51.130119 -17.987127
v -3.733388 40.846153 28.798628
v -2.021771 45.639225 31.569382
v 4.692508 52.059933 29.238224
v -13.580177 43.737129 35.063210
v -33.979370 38.327366 40.186092
v -23.213427 37.220798 39.844429
v -29.007780 31.173491 41.156300
v -21.798901 34.136814 35.947014
v -28.123756 25.233772 36.329964
v -26.975578 47.306377 27.425163
v -13.545264 67.257301 -19.595104
v 6.276110 69.258217 -5.831139
v 18.686810 74.869987 -18.265554
v 34.942554 68.888000 14.686190
v -11.388013 55.183979 -46.803875
v -13.884403 49.367886 -40.384159
v -22.582685 55.597885 -34.789513
v -19.373543 48.672699 -27.081638
v -40.152390 26.125263 41.431213
v -35.758072 21.823275 36.359276
v 42.119816 59.199421 16.232244
v 34.008797 51.024391 18.069679
v -10.777145 72.403351 -39.004326
v 20.296322 73.160347 -19.879896
v 20.106716 67.226120 13.994518
v -32.235699 40.323223 11.244295
v -26.003942 35.514774 -4.312419
v 44.451962 56.286705 6.375575
v 47.077244 54.407001 11.326857
v -12.581203 36.928539 35.969082
v -14.263177 29.446939 31.941351
v 16.860025 54.293697 -27.706671
v -3.763690 27.430651 -51.139893
v -3.936059 32.687588 -53.554710
v -3.378988 29.610851 -53.353577
v -14.086745 63.472530 -43.403915
v -26.238674 -5.629777 26.650383
v -37.612961 28.865936 38.024666
v 51.551601 27.430655 4.175398
v 53.966419 32.687592 4.347766
v 53.765285 29.610855 3.790696
v -3.378988 29.610851 -53.353577
v 28.437426 30.426916 -28.025717
v -3.763690 27.430651 -51.139893
v 29.959654 32.739407 -29.547947
v -3.936059 32.687588 -53.554710
v 29.880714 35.896290 -29.469006
v 18.868952 69.292686 -18.457247
v 43.815620 63.472534 14.498450
v -5.526029 52.401154 2.232343
v 21.856649 88.723320 27.113466
v -3.534230 84.004356 7.916686
v 6.098909 82.297562 -0.190820
v -19.274622 77.572121 -19.395397
v 8.101687 113.897583 5.491985
v 51.551601 27.430655 4.175398
v 53.765285 29.610855 3.790696
v 53.966419 32.687592 4.347766
v -3.296426 60.049847 6.693195
v 13.054505 59.683811 18.525965
v -4.724457 53.321079 25.672047
v -0.360439 66.870956 20.066526
v -12.144242 48.880211 29.680237
v -18.664194 53.595440 8.859999
v -24.530130 58.809780 23.842516
v -32.968761 44.162117 23.164566
v 23.597139 71.107506 -4.052112
v 10.658243 62.574787 8.886896
v 18.286188 75.821968 9.503582
v 29.487890 66.839661 14.781816
v -23.514578 50.210194 15.150820
v -8.541064 59.216656 5.029337
v -22.873409 63.705288 7.961372
v -25.976057 55.083527 -4.288157
v 12.084627 67.690308 -2.196342
v 5.569066 72.408394 -23.020863
v -0.301262 77.619987 -8.034063
v -8.735611 62.975075 -8.716183
v -12.239429 64.390266 -16.243124
v 2.946527 72.795631 -26.548615
v -11.031417 77.997116 -23.137238
v -14.915765 69.856018 -35.495785
v -3.763690 27.430651 -51.139893
v 51.551601 27.430655 4.175398
v -26.238674 -5.629777 26.650383
v 28.437426 30.426916 -28.025717
v -14.086745 63.472530 -43.403915
v 43.815620 63.472534 14.498450
vn 0.4445 -0.5996 0.6655
vn 0.3461 -0.2822 0.8947
vn 0.4039 -0.5544 0.7277
vn 0.2896 -0.0999 0.9519
vn 0.2643 -0.2660 0.9270
vn 0.0750 0.4681 0.8805
vn 0.5597 -0.0780 0.8250
vn 0.4043 0.6490 0.6444
vn 0.9528 0.1598 0.2581
vn 0.4377 0.8924 0.1094
vn 0.7996 0.5453 -0.2516
vn 0.3826 0.8968 -0.2224
vn 0.6786 0.3373 -0.6524
vn 0.7896 0.2983 -0.5363
vn 0.8367 -0.1465 -0.5278
vn 0.9395 0.2484 -0.2360
vn 0.8716 0.0141 -0.4900
vn 0.7416 0.4667 -0.4819
vn 0.5534 0.1237 -0.8237
vn 0.3819 0.7077 -0.5945
vn 0.3775 0.1776 -0.9088
vn 0.5144 0.0653 -0.8551
vn 0.3666 -0.1921 -0.9103
vn 0.6854 -0.2210 -0.6938
vn 0.6167 0.0311 -0.7866
vn 0.3377 0.4917 -0.8026
vn -0.2886 -0.0212 -0.9572
vn -0.2905 0.6508 -0.7015
vn -0.8321 0.2766 -0.4806
vn -0.7207 0.6907 -0.0587
vn -0.9836 0.1416 -0.1115
vn -0.9692 -0.0599 -0.2390
vn -0.8532 -0.3136 -0.4167
vn -0.9572 0.1905 -0.2181
vn -0.9031 -0.4097 -0.1283
vn -0.6931 -0.4423 -0.5692
vn -0.6717 -0.6452 -0.3640
vn -0.9072 -0.0698 -0.4149
vn -0.8054 0.5588 0.1977
vn -0.9654 0.1125 -0.2352
vn -0.8735 -0.3236 -0.3637
vn -0.6065 -0.4258 -0.6714
vn -0.7877 -0.4956 -0.3659
vn 0.3061 -0.1301 0.9431
vn 0.1174 0.3775 0.9185
vn 0.2258 0.2511 0.9412
vn -0.1516 0.5380 0.8292
vn 0.3111 -0.0827 0.9468
vn 0.3417 -0.3328 0.8789
vn 0.4261 -0.5515 0.7171
vn 0.4616 -0.5168 0.7210
vn -0.3605 0.8618 0.3568
vn -0.3458 0.9092 0.2319
vn -0.2295 0.9410 0.2486
vn 0.1280 0.9888 -0.0765
vn -0.0906 0.8936 0.4396
vn 0.1579 -0.0845 -0.9838
vn -0.7590 -0.3824 -0.5270
vn -0.8932 -0.3042 -0.3313
vn -0.7794 -0.5914 -0.2067
vn -0.5372 -0.1674 0.8267
vn -0.1669 -0.8643 0.4745
vn 0.6778 -0.2795 0.6800
vn 0.4752 -0.5563 0.6818
vn -0.1451 0.9737 -0.1756
vn 0.6668 0.6125 -0.4245
vn -0.2116 0.9067 0.3649
vn -0.7663 -0.4987 -0.4050
vn -0.7463 -0.5826 -0.3219
vn 0.8626 -0.0507 -0.5033
vn 0.9790 0.0357 0.2007
vn 0.4278 -0.3497 0.8335
vn 0.4297 -0.5009 0.7513
vn 0.5515 -0.2274 -0.8026
vn -0.3926 -0.7194 -0.5731
vn -0.3176 0.0336 -0.9476
vn 0.0672 -0.4274 -0.9016
vn -0.3474 0.1883 -0.9186
vn -0.2045 -0.9573 0.2045
vn -0.6409 -0.4226 0.6409
vn 0.5731 -0.7194 0.3926
vn 0.9476 0.0336 0.3176
vn 0.9016 -0.4274 -0.0672
vn 0.0673 -0.4273 -0.9016
vn 0.4548 -0.7657 -0.4548
vn -0.3925 -0.7194 -0.5730
vn 0.6638 -0.3444 -0.6638
vn 0.6869 0.2374 -0.6869
vn 0.6409 0.4226 -0.6409
vn 0.9186 0.1884 0.3474
vn 0.0048 -0.9775 0.2110
vn 0.6186 -0.1634 0.7686
vn -0.7581 0.1342 0.6382
vn 0.7580 -0.1341 -0.6383
vn -0.6181 0.1633 -0.7689
vn -0.0045 0.9774 -0.2113
vn 0.5731 -0.7194 0.3925
vn 0.9016 -0.4273 -0.0673
vn -0.4302 0.2178 -0.8761
vn 0.9726 0.1864 0.1390
vn -0.5523 -0.3594 0.7522
vn -0.2058 0.9271 0.3132
vn 0.7022 0.0146 0.7118
vn 0.1965 0.3806 -0.9036
vn -0.2987 0.9064 0.2989
vn -0.9133 -0.3513 0.2062
vn 0.1966 0.3806 -0.9036
vn -0.2988 0.9063 0.2990
vn -0.3636 -0.3822 0.8495
vn 0.9205 0.3902 -0.0187
vn -0.3561 0.8949 0.2690
vn -0.5742 0.0354 -0.8179
vn -0.3636 -0.3822 0.8496
vn 0.9401 0.3390 -0.0341
vn -0.2989 0.9064 0.2986
vn -0.5919 0.0868 -0.8013
vn 0.5730 -0.7194 0.3925
vn -0.3474 0.1884 -0.9186
vn 0.9186 0.1883 0.3474
vt 0.000000 1.000000
vt 0.669983 0.533508
vt 0.701324 0.579742
vt 0.692139 0.547028
vt 0.701324 0.995911
vt 0.000336 0.533508
vt 0.000336 0.995911
vt 0.009918 0.137299
vt 0.279114 0.126770
vt 0.018555 0.126770
vt 0.279114 0.137177
vt 0.006348 0.162750
vt 0.279114 0.162750
vt 0.279114 0.486633
vt 0.551880 0.486633
vt 0.572418 0.131165
vt 0.965607 0.131165
vt 0.769012 0.310852
vt 0.572418 0.490570
vt 0.965607 0.490570
vt 0.539673 0.126770
vt 0.548309 0.137299
vt 0.551880 0.162750
vt 0.732635 0.963226
vt 0.998444 0.760773
vt 0.732635 0.558319
vt 0.821228 0.760773
vt 0.090729 0.553314
vt 0.006348 0.486633
s 1
usemtl mat1.001
f 1/1/1 2/1/2 3/1/3
f 1/1/1 4/1/4 2/1/2
f 5/1/5 4/1/4 1/1/1
f 5/1/5 6/1/6 4/1/4
f 7/1/7 6/1/6 5/1/5
f 7/1/7 8/1/8 6/1/6
f 9/1/9 8/1/8 7/1/7
f 9/1/9 10/1/10 8/1/8
f 11/1/11 10/1/10 9/1/9
f 11/1/11 12/1/12 10/1/10
f 13/1/13 12/1/12 11/1/11
f 13/1/13 14/1/14 12/1/12
f 15/1/15 14/1/14 13/1/13
f 15/1/15 16/1/16 14/1/14
f 17/1/17 16/1/16 15/1/15
f 17/1/17 18/1/18 16/1/16
f 19/1/19 18/1/18 17/1/17
f 19/1/19 20/1/20 18/1/18
f 21/1/21 20/1/20 19/1/19
f 21/1/21 22/1/22 20/1/20
f 23/1/23 22/1/22 21/1/21
f 23/1/23 24/1/24 22/1/22
f 25/1/25 22/1/22 24/1/24
f 25/1/25 26/1/26 22/1/22
f 27/1/27 26/1/26 25/1/25
f 27/1/27 28/1/28 26/1/26
f 29/1/29 28/1/28 27/1/27
f 29/1/29 30/1/30 28/1/28
f 31/1/31 30/1/30 29/1/29
f 31/1/31 32/1/32 30/1/30
f 33/1/33 32/1/32 31/1/31
f 33/1/33 34/1/34 32/1/32
f 35/1/35 36/1/36 37/1/37
f 35/1/35 38/1/38 36/1/36
f 39/1/39 38/1/38 35/1/35
f 39/1/39 40/1/40 38/1/38
f 34/1/34 40/1/40 39/1/39
f 34/1/34 41/1/41 40/1/40
f 33/1/33 41/1/41 34/1/34
f 33/1/33 42/1/42 41/1/41
f 43/1/43 42/1/42 33/1/33
f 2/1/2 44/1/3 3/1/3
f 2/1/2 45/1/44 44/1/3
f 46/1/45 45/1/44 2/1/2
f 46/1/45 47/1/46 45/1/44
f 48/1/47 47/1/46 46/1/45
f 48/1/47 49/1/48 47/1/46
f 50/1/49 49/1/48 48/1/47
f 50/1/49 51/1/50 49/1/48
f 52/1/51 51/1/50 50/1/49
f 53/1/52 30/1/30 39/1/39
f 53/1/52 54/1/53 30/1/30
f 55/1/54 54/1/53 53/1/52
f 55/1/54 56/1/55 54/1/53
f 57/1/56 56/1/55 55/1/54
f 57/1/56 12/1/12 56/1/55
f 10/1/10 12/1/12 57/1/56
f 58/1/57 25/1/25 24/1/24
f 58/1/57 27/1/27 25/1/25
f 59/1/58 27/1/27 58/1/57
f 59/1/58 60/1/59 27/1/27
f 61/1/60 60/1/59 59/1/58
f 61/1/60 43/1/43 60/1/59
f 39/1/39 48/1/47 53/1/52
f 39/1/39 62/1/61 48/1/47
f 35/1/35 62/1/61 39/1/39
f 35/1/35 63/1/62 62/1/61
f 37/1/37 63/1/62 35/1/35
f 7/1/7 64/1/63 9/1/9
f 7/1/7 65/1/64 64/1/63
f 5/1/5 65/1/64 7/1/7
f 5/1/5 1/1/1 65/1/64
f 26/1/26 20/1/20 22/1/22
f 26/1/26 66/1/65 20/1/20
f 28/1/28 66/1/65 26/1/26
f 28/1/28 30/1/30 66/1/65
f 56/1/55 20/1/20 66/1/65
f 56/1/55 67/1/66 20/1/20
f 12/1/12 67/1/66 56/1/55
f 12/1/12 14/1/14 67/1/66
f 57/1/56 48/1/47 46/1/45
f 57/1/56 68/1/67 48/1/47
f 55/1/54 68/1/67 57/1/56
f 55/1/54 53/1/52 68/1/67
f 41/1/41 69/1/68 40/1/40
f 41/1/41 70/1/69 69/1/68
f 42/1/42 70/1/69 41/1/41
f 9/1/9 71/1/70 11/1/11
f 9/1/9 72/1/71 71/1/70
f 64/1/63 72/1/71 9/1/9
f 50/1/49 63/1/62 52/1/51
f 50/1/49 62/1/61 63/1/62
f 48/1/47 62/1/61 50/1/49
f 73/1/72 74/1/73 44/1/3
f 73/1/72 51/1/50 74/1/73
f 49/1/48 51/1/50 73/1/72
f 73/1/72 47/1/46 49/1/48
f 73/1/72 45/1/44 47/1/46
f 44/1/3 45/1/44 73/1/72
f 60/1/59 29/1/29 27/1/27
f 60/1/59 31/1/31 29/1/29
f 33/1/33 31/1/31 60/1/59
f 57/1/56 8/1/8 10/1/10
f 57/1/56 6/1/6 8/1/8
f 46/1/45 6/1/6 57/1/56
f 38/1/38 69/1/68 36/1/36
f 38/1/38 40/1/40 69/1/68
f 13/1/13 71/1/70 15/1/15
f 13/1/13 11/1/11 71/1/70
f 75/1/74 19/1/19 17/1/17
f 75/1/74 23/1/23 19/1/19
f 4/1/4 46/1/45 2/1/2
f 4/1/4 6/1/6 46/1/45
f 34/1/34 30/1/30 32/1/32
f 34/1/34 39/1/39 30/1/30
f 54/1/53 66/1/65 30/1/30
f 54/1/53 56/1/55 66/1/65
f 16/1/16 67/1/66 14/1/14
f 16/1/16 18/1/18 67/1/66
f 19/1/19 23/1/23 21/1/21
f 60/1/59 43/1/43 33/1/33
f 18/1/18 20/1/20 67/1/66
f 53/1/52 48/1/47 68/1/67
usemtl mat2
f 76/2/75 77/3/76 78/4/77
f 76/2/75 79/5/78 77/3/76
f 80/6/79 79/5/78 76/2/75
f 80/6/79 81/7/80 79/5/78
f 82/2/81 81/7/80 80/6/79
f 82/2/81 83/3/82 81/7/80
f 84/4/83 83/3/82 82/2/81
f 85/8/84 86/9/85 87/10/86
f 85/8/84 88/11/87 86/9/85
f 89/12/76 88/11/87 85/8/84
f 89/12/76 90/13/88 88/11/87
f 91/14/89 90/13/88 89/12/76
f 91/14/89 92/15/90 90/13/88
f 93/16/91 94/17/92 95/18/93
f 93/16/91 96/18/94 94/17/92
f 97/19/95 96/18/94 93/16/91
f 97/19/95 98/20/96 96/18/94
f 95/18/93 98/20/96 97/19/95
f 95/18/93 94/17/92 98/20/96
f 88/11/87 99/21/97 86/9/85
f 88/11/87 100/22/98 99/21/97
f 90/13/88 100/22/98 88/11/87
f 90/13/88 101/23/82 100/22/98
f 92/15/90 101/23/82 90/13/88
f 102/24/99 103/25/100 104/26/101
f 102/24/99 105/27/102 103/25/100
f 104/26/101 105/27/102 102/24/99
f 104/26/101 103/25/100 105/27/102
f 106/25/103 107/24/104 108/27/105
f 106/25/103 109/26/106 107/24/104
f 108/27/105 109/26/106 106/25/103
f 108/27/105 107/24/104 109/26/106
f 110/24/107 111/26/106 112/27/108
f 110/24/107 113/25/103 111/26/106
f 112/27/108 113/25/103 110/24/107
f 112/27/108 111/26/106 113/25/103
f 114/25/109 115/24/110 116/27/111
f 114/25/109 117/26/112 115/24/110
f 116/27/111 117/26/112 114/25/109
f 116/27/111 115/24/110 117/26/112
f 118/25/103 119/24/107 120/27/108
f 118/25/103 121/26/106 119/24/107
f 120/27/108 121/26/106 118/25/103
f 120/27/108 119/24/107 121/26/106
f 122/25/113 123/24/114 124/27/115
f 122/25/113 125/26/116 123/24/114
f 124/27/115 125/26/116 122/25/113
f 124/27/115 123/24/114 125/26/116
f 126/28/86 127/28/117 128/28/79
f 126/28/86 129/28/85 127/28/117
f 89/12/76 130/29/118 91/14/89
f 83/3/82 131/5/119 81/7/80
f 93/16/91 95/18/93 97/19/95
f 96/18/94 98/20/96 94/17/92
