# Blender v2.79 (sub 0) OBJ File: ''
# www.blender.org
mtllib da_vinci_quill.mtl
o group1
v -1.833667 11.988036 0.013672
v -0.903283 11.988037 -2.156205
v -1.584371 11.988037 -1.239107
v -0.903283 11.988032 2.183552
v -1.584371 11.988035 1.266453
v 0.027101 11.988031 2.519234
v 0.027102 11.988038 -2.491886
v 1.887870 11.988036 0.013673
v 0.957485 11.988032 2.183553
v 1.638574 11.988035 1.266455
v 0.627824 26.892487 0.403162
v 0.040801 22.023535 -0.225317
v 0.236558 22.012352 0.512608
v 1.181757 21.958357 0.512608
v 1.432829 26.846500 0.403162
v 1.516397 32.668953 0.356673
v 2.226737 32.437603 0.357488
v 2.839743 37.835670 0.323587
v 0.461102 26.902012 -0.225314
v 1.371531 32.727131 -0.225310
v 0.627825 26.892492 -0.853790
v 1.516397 32.668953 -0.807294
v 2.839747 37.835670 -0.774201
v 2.700572 37.880100 -0.225307
v 4.634533 42.284744 0.320982
v 4.501045 42.341530 -0.225304
v 3.508112 37.612381 0.323568
v 5.279311 42.011074 0.320999
v 7.296633 47.092369 0.290971
v 7.156038 47.126411 -0.225301
v 11.045637 52.304127 -0.678325
v 10.935700 52.353165 -0.225297
v 17.421177 58.888531 -0.223322
v 11.045637 52.304127 0.227730
v 7.910660 46.838612 0.290874
v 11.576447 52.067352 0.227730
v 17.422075 58.888477 -0.224730
v 1.638575 11.988037 -1.239107
v 0.957486 11.988037 -2.156205
v -5.921417 12.089474 3.975453
v -3.418734 12.089473 5.565408
v -6.837463 12.089477 0.050976
v -0.000004 12.089471 6.616971
v -5.921417 12.089479 -3.873500
v -3.418732 12.089483 -6.746416
v -0.000001 12.089483 -7.797977
v 3.418728 12.089473 5.565413
v 6.837462 12.089477 0.050977
v 5.921412 12.089474 3.975459
v 5.921415 12.089479 -3.873500
v 3.418731 12.089483 -6.746418
v -5.435320 0.099522 -3.551343
v -3.138084 0.099523 -6.188417
v -6.276167 0.099519 0.050968
v -0.000001 0.099525 -7.153654
v 3.138080 0.099516 5.007399
v -0.000003 0.099516 5.972631
v -3.138086 0.099516 5.007395
v -5.435321 0.099517 3.653280
v 3.138082 0.099523 -6.188417
v 5.435318 0.099522 -3.551342
v 6.276165 0.099519 0.050969
v 5.435316 0.099517 3.653285
v 0.236558 22.012352 -0.963243
v 0.957485 14.444490 2.183555
v 1.638574 14.444490 1.266456
v -1.833667 14.444491 0.013674
v -1.584371 14.444492 -1.239105
v -1.584371 14.444490 1.266454
v -1.782963 14.847793 -1.393493
v -2.062981 14.847792 0.013674
v -1.782963 14.847791 1.420842
v -2.651221 14.847792 0.013674
v -2.292394 14.847791 1.816880
v -3.020117 14.187844 0.013674
v -2.611868 14.187843 2.065243
v -3.020117 13.437700 0.013673
v -2.611868 13.437699 2.065243
v -1.496509 14.187842 3.567096
v -1.496509 13.437698 3.567095
v 0.027101 14.187841 4.116813
v 0.027101 13.437697 4.116812
v 1.550710 14.187842 3.567098
v 1.550710 13.437698 3.567097
v 2.666070 14.187843 2.065246
v 2.666070 13.437699 2.065246
v 3.074321 14.187844 0.013675
v 3.074321 13.437700 0.013674
v 2.666071 14.187845 -2.037894
v 2.666071 13.437701 -2.037894
v 1.550711 14.187849 -3.539746
v 1.550711 13.437702 -3.539747
v -2.292394 14.847793 -1.789531
v -2.611867 14.187845 -2.037894
v -2.611867 13.437701 -2.037895
v -2.258116 12.944200 -1.762884
v -2.611640 12.944199 0.013673
v -2.258116 12.944198 1.790231
v -1.292270 12.944197 3.090762
v 0.027101 12.944197 3.566790
v 1.346472 12.944197 3.090764
v 2.312318 12.944198 1.790234
v 2.665844 12.944199 0.013674
v 2.312319 12.944200 -1.762884
v 1.346473 12.944201 -3.063414
v -1.496508 14.187849 -3.539746
v -1.496508 13.437702 -3.539747
v -1.292269 12.944201 -3.063414
v -1.292269 11.626769 -3.063415
v -2.258116 11.626768 -1.762885
v -2.611640 11.626767 0.013672
v -2.258116 11.626766 1.790230
v -1.292270 11.626765 3.090761
v 0.027101 11.626765 3.566789
v 1.346472 11.626765 3.090763
v 2.312318 11.626766 1.790233
v 2.665844 11.626767 0.013673
v 2.312319 11.626768 -1.762885
v 1.346473 11.626769 -3.063415
v -1.312060 14.847794 -3.109568
v 0.027102 14.187850 -4.089463
v 0.027102 14.847794 -3.592736
v -1.017940 14.847794 -2.423610
v 0.027102 14.847794 -2.800659
v -0.903283 14.444492 -2.156203
v 0.027102 14.444493 -2.491885
v -0.789667 21.642126 -0.225317
v -0.334524 21.620750 1.149475
v 0.764280 21.569153 1.718931
v 4.634533 42.284744 -0.771590
v 7.296625 47.092369 -0.741572
v 1.181757 21.958357 -0.963243
v 1.432829 26.846500 -0.853790
v 1.377519 21.947174 -0.225317
v 1.599554 26.836973 -0.225314
v 2.226737 32.437603 -0.808108
v 2.375724 32.398876 -0.225310
v 5.412896 41.954498 -0.225304
v 3.645766 37.564251 -0.225307
v 3.508112 37.612381 -0.774183
v 5.279311 42.011074 -0.771607
v 8.024620 46.767178 -0.225301
v 7.910663 46.838623 -0.741476
v 11.576447 52.067352 -0.678325
v 11.686381 52.018311 -0.225297
v 1.072143 14.847794 -2.423610
v 0.957486 14.444492 -2.156203
v 1.837166 14.847793 -1.393493
v 1.638575 14.444492 -1.239105
v 2.117184 14.847792 0.013675
v 1.887870 14.444491 0.013674
v 1.837165 14.847791 1.420844
v 0.027101 14.444489 2.519235
v 0.027101 14.847790 2.828011
v 1.072142 14.847790 2.450963
v 1.366263 14.847794 -3.109568
v 2.346597 14.847793 -1.789531
v 2.705425 14.847792 0.013675
v 2.346596 14.847791 1.816883
v 1.366262 14.847790 3.136921
v 0.027101 14.847790 3.620088
v -1.312060 14.847790 3.136920
v -1.017940 14.847790 2.450961
v -0.903283 14.444490 2.183554
v 1.452147 21.110945 -1.219032
v 1.863079 21.517555 -1.600108
v 1.781128 21.095488 -0.225317
v 2.318215 21.496176 -0.225317
v 1.863079 21.517553 1.149475
v 0.657915 21.148237 1.180010
v 1.452142 21.110937 0.768399
v 1.188049 16.467575 -1.229476
v 1.520481 16.451963 -0.225319
v 1.188045 16.467577 0.778837
v 0.403575 16.542511 1.194771
v -0.417100 16.542959 0.778837
v -0.136313 21.185530 0.768399
v 0.672808 15.169927 -0.764877
v 0.841236 15.160308 -0.225320
v 0.672808 15.169926 0.314237
v 0.266187 15.193157 0.537729
v -0.140433 15.216386 0.314237
v -0.308860 15.226006 -0.225320
v -0.749539 16.558569 -0.225319
v -0.465291 21.200983 -0.225317
v 0.475620 11.904613 -0.764878
v 0.618753 11.896438 -0.225322
v 0.475620 11.904613 0.314236
v 0.130064 11.924350 0.537727
v -0.215495 11.944091 0.314236
v -0.358628 11.952266 -0.225321
v -0.215495 11.944092 -0.764878
v -0.140433 15.216387 -0.764877
v -0.417102 16.542955 -1.229476
v -0.136307 21.185528 -1.219033
v -0.334524 21.620752 -1.600108
v 18.941277 53.826294 4.746769
v 25.334539 54.067326 4.288997
v 23.060905 61.485195 -0.221913
v 29.114929 62.016937 -0.221912
v 31.183205 54.235004 4.433556
v 36.742661 61.773701 -0.221912
v 39.779022 57.630539 4.603250
v 39.548637 63.709404 -0.221911
v 43.744053 61.599461 3.960290
v 39.283768 67.328888 -0.221909
v 47.422199 65.433525 2.532531
v 46.313866 69.710121 0.939050
v 38.581970 67.850357 -0.221908
v 13.214841 50.084538 5.184781
v 11.142605 46.186241 5.316149
v 15.460593 43.752102 8.329331
v 18.782425 47.547844 8.270170
v 24.026213 49.683636 7.508250
v 30.306660 49.063259 7.508251
v 37.131233 50.204750 7.508251
v 43.331890 53.215942 7.205531
v 49.468483 57.402042 6.131230
v 52.816120 63.697514 3.872397
v 51.160103 71.032463 0.168853
v 45.245914 76.905762 -5.155638
v 42.983597 73.012886 -2.017006
v 37.704376 67.899948 -0.221908
v 38.806652 65.985558 -0.221909
v 37.283287 66.309776 -0.221908
v 37.014313 61.317139 2.031655
v 31.161478 64.701797 0.337701
v 34.724709 58.590557 3.931627
v 24.969238 63.674366 1.252611
v 33.104881 70.743706 -1.711572
v 26.279461 73.140137 -5.049731
v 37.184345 74.493752 -2.806079
v 34.963219 78.860672 -6.173490
v 37.026237 67.390961 -0.221908
v 4.307453 6.001011 -6.994547
v 5.140944 6.774395 -8.388199
v 7.460726 6.001009 -3.950481
v 8.904378 6.774392 -4.755107
v 8.614905 6.001007 0.207788
v 10.281890 6.774389 0.207789
v 7.460723 6.001004 4.366064
v 8.904374 6.774385 5.170690
v 4.307448 6.001003 6.127165
v 5.140940 6.774384 7.520819
v -0.000004 6.001002 7.241369
v -0.000005 6.774383 8.850621
v -4.307456 6.001003 6.127161
v -5.140949 6.774384 7.520814
v -7.460729 6.001004 4.366058
v -8.904380 6.774385 5.170682
v -8.614906 6.001007 0.207787
v -10.281889 6.774389 0.207787
v -7.460728 6.001009 -3.950482
v -8.904378 6.774392 -4.755108
v -4.307453 6.001011 -6.994547
v -5.140946 6.774395 -8.388198
v 3.367921 0.421992 -6.645400
v 5.833410 0.421990 -3.815181
v 6.735843 0.421987 0.050969
v 5.833407 0.421985 3.917125
v 3.367918 0.421984 5.464382
v -0.000004 0.421983 6.500311
v -3.367925 0.421984 5.464378
v -5.833413 0.421985 3.917119
v -6.735845 0.421987 0.050968
v -5.833412 0.421990 -3.815182
v -3.367923 0.421992 -6.645399
v -0.000001 0.421993 -7.681331
v 3.659684 11.818385 -7.225501
v 6.338758 11.818382 -4.150098
v 7.319368 11.818379 0.050977
v 6.338756 11.818377 4.252058
v 3.659681 11.818376 6.044495
v -0.000004 11.818373 7.170166
v -3.659688 11.818376 6.044490
v -6.338761 11.818377 4.252050
v -7.319370 11.818379 0.050976
v -6.338761 11.818382 -4.150100
v -3.659685 11.818385 -7.225500
v -0.000001 11.818386 -8.351173
v 8.696329 41.446362 5.810508
v 15.189045 39.998154 8.431969
v 6.620045 35.282738 6.383661
v 15.098182 33.283539 8.197526
v 5.103543 29.848684 6.629832
v 13.702378 26.587275 8.342206
v 2.552387 24.125751 6.176665
v 9.985621 20.604908 6.976519
v 5.950709 17.154461 4.510819
v 0.960701 20.435289 5.618490
vt 0.032287 0.099225
vt 0.027750 0.055054
vt 0.031757 0.076868
vt 0.030715 0.143097
vt 0.031078 0.121447
vt 0.021310 0.161091
vt 0.025431 0.052662
vt 0.036267 0.342785
vt 0.033219 0.299016
vt 0.034326 0.320626
vt 0.025174 0.389127
vt 0.023198 0.281365
vt 0.305597 0.982503
vt 0.238606 0.978761
vt 0.238580 0.969079
vt 0.238453 0.922332
vt 0.305120 0.959085
vt 0.399239 0.980915
vt 0.400057 0.958126
vt 0.482604 0.981492
vt 0.305696 0.987353
vt 0.399164 0.985687
vt 0.305597 0.982503
vt 0.399239 0.980915
vt 0.482604 0.981491
vt 0.482512 0.985947
vt 0.571147 0.981437
vt 0.571179 0.985870
vt 0.482961 0.959984
vt 0.570998 0.960031
vt 0.674137 0.980499
vt 0.674401 0.984876
vt 0.763197 0.978681
vt 0.763931 0.982338
vt 0.970200 0.967520
vt 0.763197 0.978681
vt 0.671977 0.960221
vt 0.759654 0.961021
vt 0.970200 0.967520
vt 0.036425 0.365143
vt 0.030598 0.384955
vt 0.314513 0.467421
vt 0.360799 0.421134
vt 0.297571 0.530648
vt 0.424026 0.404193
vt 0.314513 0.593876
vt 0.360799 0.640162
vt 0.424027 0.657104
vt 0.487254 0.421134
vt 0.550482 0.530648
vt 0.533540 0.467420
vt 0.533541 0.593876
vt 0.487254 0.640162
vt 0.014021 0.858845
vt 0.038484 0.883307
vt 0.005068 0.825429
vt 0.071899 0.892261
vt 0.105315 0.767551
vt 0.071899 0.758597
vt 0.038484 0.767551
vt 0.014021 0.792013
vt 0.105315 0.883307
vt 0.129777 0.858845
vt 0.138731 0.825429
vt 0.129777 0.792013
vt 0.238580 0.969079
vt 0.064306 0.271313
vt 0.070965 0.301850
vt 0.071763 0.108811
vt 0.071993 0.079928
vt 0.068233 0.139192
vt 0.083147 0.077317
vt 0.083458 0.109214
vt 0.079927 0.143333
vt 0.101555 0.106662
vt 0.098918 0.143198
vt 0.120581 0.103713
vt 0.118938 0.141724
vt 0.138013 0.102425
vt 0.137287 0.140744
vt 0.115538 0.180496
vt 0.135168 0.179894
vt 0.112932 0.219889
vt 0.133861 0.219566
vt 0.116925 0.259170
vt 0.136581 0.259169
vt 0.121649 0.297811
vt 0.140052 0.298226
vt 0.124519 0.335757
vt 0.142023 0.336504
vt 0.123603 0.372908
vt 0.140762 0.373711
vt 0.116321 0.408818
vt 0.134910 0.409375
vt 0.100312 0.071667
vt 0.118556 0.066615
vt 0.135643 0.065275
vt 0.151696 0.066198
vt 0.154395 0.102309
vt 0.154493 0.140276
vt 0.153435 0.179453
vt 0.152996 0.219267
vt 0.154868 0.259041
vt 0.157291 0.298160
vt 0.158434 0.336110
vt 0.156809 0.372285
vt 0.151737 0.405867
vt 0.110285 0.030935
vt 0.128813 0.029788
vt 0.145715 0.032765
vt 0.169394 0.032916
vt 0.175435 0.065407
vt 0.178457 0.101048
vt 0.179122 0.139023
vt 0.178701 0.178549
vt 0.178684 0.218860
vt 0.180168 0.259147
vt 0.181979 0.298638
vt 0.182560 0.336614
vt 0.180584 0.372317
vt 0.175407 0.404943
vt 0.092559 0.039113
vt 0.080192 0.009527
vt 0.067723 0.018349
vt 0.076897 0.048614
vt 0.056760 0.030628
vt 0.067097 0.053989
vt 0.047701 0.039705
vt 0.232505 0.996658
vt 0.232456 0.979812
vt 0.232338 0.936266
vt 0.571147 0.981437
vt 0.674137 0.980499
vt 0.238453 0.922332
vt 0.305120 0.959085
vt 0.238427 0.912650
vt 0.305022 0.954235
vt 0.400057 0.958126
vt 0.400310 0.953457
vt 0.570968 0.955597
vt 0.483016 0.955530
vt 0.482961 0.959984
vt 0.570998 0.960031
vt 0.671342 0.956189
vt 0.671977 0.960221
vt 0.759654 0.961021
vt 0.758920 0.957364
vt 0.082368 0.392178
vt 0.072412 0.387093
vt 0.087811 0.363294
vt 0.076567 0.361009
vt 0.087163 0.331384
vt 0.075466 0.332126
vt 0.082541 0.297374
vt 0.053390 0.243777
vt 0.064617 0.220606
vt 0.074919 0.261133
vt 0.053398 0.401920
vt 0.062736 0.410742
vt 0.074087 0.422683
vt 0.098326 0.401195
vt 0.105172 0.368423
vt 0.105367 0.333393
vt 0.101557 0.296946
vt 0.095447 0.259245
vt 0.089490 0.220243
vt 0.094086 0.181068
vt 0.073523 0.179780
vt 0.052628 0.197777
vt 0.086843 0.431097
vt 0.062597 0.169911
vt 0.226709 0.901215
vt 0.232220 0.892721
vt 0.226673 0.888177
vt 0.232171 0.874683
vt 0.232220 0.892721
vt 0.226794 0.932690
vt 0.226709 0.901214
vt 0.143960 0.900411
vt 0.143740 0.887237
vt 0.143960 0.900411
vt 0.144490 0.932216
vt 0.145020 0.964020
vt 0.226879 0.964166
vt 0.068368 0.912604
vt 0.067460 0.905547
vt 0.068368 0.912604
vt 0.070560 0.929639
vt 0.072752 0.946674
vt 0.073660 0.953731
vt 0.145240 0.977194
vt 0.226914 0.977203
vt 0.007279 0.912670
vt 0.006865 0.905596
vt 0.007279 0.912670
vt 0.008280 0.929749
vt 0.009281 0.946828
vt 0.009695 0.953902
vt 0.009281 0.946828
vt 0.072752 0.946674
vt 0.145020 0.964021
vt 0.226879 0.964165
vt 0.232456 0.979813
vt 0.500220 0.776581
vt 0.565355 0.709672
vt 0.621227 0.828369
vt 0.667025 0.735835
vt 0.621118 0.642589
vt 0.747690 0.665587
vt 0.732574 0.575498
vt 0.794396 0.664687
vt 0.809087 0.571851
vt 0.829935 0.701384
vt 0.881837 0.575469
vt 0.915371 0.637036
vt 0.829150 0.717470
vt 0.542802 0.869172
vt 0.415988 0.879650
vt 0.410963 0.797891
vt 0.343019 0.785996
vt 0.376150 0.689149
vt 0.439904 0.699044
vt 0.507722 0.667473
vt 0.558938 0.590004
vt 0.630931 0.521388
vt 0.717374 0.479732
vt 0.817053 0.455157
vt 0.912424 0.489669
vt 0.974611 0.597055
vt 0.992186 0.747149
vt 0.923904 0.721025
vt 0.821022 0.730605
vt 0.799918 0.698760
vt 0.801033 0.722112
vt 0.751147 0.703408
vt 0.742012 0.807350
vt 0.705397 0.706502
vt 0.682109 0.883167
vt 0.830452 0.829993
vt 0.826229 0.936248
vt 0.888266 0.807397
vt 0.919688 0.890124
vt 0.813083 0.743354
vt 0.979340 0.183175
vt 0.989724 0.244397
vt 0.907396 0.189399
vt 0.913372 0.227721
vt 0.832270 0.192656
vt 0.835165 0.229556
vt 0.754483 0.194206
vt 0.755841 0.232148
vt 0.674784 0.195267
vt 0.674491 0.236995
vt 0.594916 0.196451
vt 0.594441 0.244772
vt 0.515041 0.195125
vt 0.514363 0.236825
vt 0.435351 0.194199
vt 0.432963 0.232084
vt 0.357601 0.192912
vt 0.353643 0.229732
vt 0.282515 0.190030
vt 0.275388 0.228243
vt 0.210626 0.183701
vt 0.199006 0.244799
vt 0.920448 0.062688
vt 0.866497 0.086126
vt 0.803002 0.087121
vt 0.735822 0.085462
vt 0.666473 0.081660
vt 0.596177 0.076256
vt 0.525896 0.081784
vt 0.456574 0.085983
vt 0.389385 0.088159
vt 0.325822 0.087685
vt 0.271828 0.064150
vt 0.910285 0.013646
vt 0.596950 0.040318
vt 0.905378 0.042619
vt 0.859586 0.074269
vt 0.798320 0.075619
vt 0.732823 0.073014
vt 0.664967 0.066615
vt 0.596388 0.054231
vt 0.527765 0.066792
vt 0.459901 0.073618
vt 0.394372 0.076759
vt 0.333032 0.075898
vt 0.287248 0.044160
vt 0.288407 0.011978
vt 0.935022 0.364260
vt 0.878129 0.334276
vt 0.809917 0.335542
vt 0.738770 0.340811
vt 0.665516 0.348942
vt 0.593177 0.352139
vt 0.520186 0.344388
vt 0.447549 0.341157
vt 0.376393 0.336351
vt 0.308231 0.335560
vt 0.251398 0.365534
vt 0.600023 0.378988
vt 0.921069 0.383915
vt 0.920532 0.400178
vt 0.871818 0.347256
vt 0.805617 0.347299
vt 0.735883 0.353336
vt 0.664541 0.359160
vt 0.592963 0.362921
vt 0.521456 0.359233
vt 0.450113 0.353758
vt 0.380389 0.348206
vt 0.314242 0.348624
vt 0.282038 0.380163
vt 0.286951 0.404316
vt 0.324221 0.871222
vt 0.287284 0.753428
vt 0.342481 0.655263
vt 0.213343 0.700333
vt 0.284247 0.581728
vt 0.151248 0.649602
vt 0.212326 0.519080
vt 0.075767 0.605427
vt 0.122598 0.485615
vt 0.046570 0.482926
vt 0.026929 0.577021
vt 0.006358 0.649354
vt 0.057584 0.700217
vt 0.121665 0.758590
vt 0.184529 0.807794
vt 0.247066 0.844230
vn 0.7462 0.6657 0.0000
vn 0.4545 0.6475 0.6116
vn 0.6860 0.6609 0.3044
vn 0.4545 0.6475 -0.6116
vn 0.6860 0.6609 -0.3044
vn 0.0000 0.6381 -0.7700
vn 0.0000 0.6381 0.7700
vn -0.7462 0.6657 0.0000
vn -0.4545 0.6475 -0.6116
vn -0.6860 0.6609 -0.3044
vn -0.7329 0.1202 0.6696
vn -0.7917 0.6108 -0.0068
vn -0.5964 0.6197 0.5102
vn 0.4889 0.6916 0.5316
vn 0.5980 -0.0451 0.8002
vn -0.6934 0.1524 0.7042
vn 0.5879 -0.1085 0.8016
vn -0.6656 0.2232 0.7121
vn -0.9928 0.1198 -0.0000
vn -0.9790 0.2036 -0.0000
vn -0.9596 0.1162 -0.2562
vn -0.9472 0.1939 -0.2552
vn -0.9179 0.3021 -0.2572
vn -0.9499 0.3125 0.0000
vn -0.6317 0.3019 0.7140
vn -0.9027 0.4302 -0.0001
vn 0.5646 -0.1797 0.8055
vn 0.5389 -0.2513 0.8040
vn -0.5882 0.3806 0.7135
vn -0.8455 0.5339 -0.0001
vn -0.7374 0.6287 -0.2470
vn -0.7646 0.6445 0.0000
vn -0.3917 0.5992 0.6982
vn -0.5170 0.4773 0.7105
vn 0.5103 -0.3088 0.8026
vn 0.4854 -0.3414 0.8048
vn 0.6727 -0.5275 0.5188
vn -0.6860 0.6609 0.3044
vn -0.4545 0.6475 0.6116
vn -0.2447 0.9542 0.1718
vn -0.1043 0.9681 0.2278
vn -0.2873 0.9578 0.0000
vn 0.0000 0.9640 0.2657
vn -0.2540 0.9592 -0.1239
vn -0.1532 0.9623 -0.2246
vn 0.0000 0.9640 -0.2657
vn 0.1075 0.9677 0.2280
vn 0.2873 0.9578 0.0000
vn 0.2436 0.9536 0.1765
vn 0.2540 0.9592 -0.1239
vn 0.1532 0.9623 -0.2246
vn -0.3009 -0.9422 -0.1473
vn -0.1820 -0.9462 -0.2676
vn -0.3400 -0.9404 0.0000
vn 0.0000 -0.9484 -0.3171
vn 0.1188 -0.9549 0.2719
vn 0.0000 -0.9484 0.3171
vn -0.1231 -0.9543 0.2723
vn -0.2858 -0.9335 0.2165
vn 0.1820 -0.9462 -0.2676
vn 0.3009 -0.9422 -0.1473
vn 0.3400 -0.9404 0.0000
vn 0.2875 -0.9344 0.2101
vn -0.7607 0.6138 -0.2111
vn -0.5766 0.3166 -0.7532
vn -0.8817 0.2779 -0.3811
vn 0.9645 0.2638 0.0000
vn 0.8817 0.2779 0.3811
vn 0.8817 0.2779 -0.3811
vn 0.3941 0.9007 0.1826
vn 0.4530 0.8915 0.0000
vn 0.3941 0.9007 -0.1825
vn -0.5501 0.8351 0.0000
vn -0.5017 0.8389 0.2109
vn -0.9696 0.2448 0.0000
vn -0.8806 0.2569 0.3982
vn -0.9453 -0.3261 0.0000
vn -0.8568 -0.3391 0.3885
vn -0.5649 0.2839 0.7748
vn -0.5478 -0.3655 0.7526
vn 0.0000 0.2981 0.9545
vn 0.0000 -0.3779 0.9258
vn 0.5649 0.2839 0.7748
vn 0.5478 -0.3655 0.7526
vn 0.8806 0.2569 0.3982
vn 0.8567 -0.3391 0.3885
vn 0.9696 0.2448 0.0000
vn 0.9453 -0.3261 0.0000
vn 0.8806 0.2569 -0.3982
vn 0.8567 -0.3391 -0.3885
vn 0.6280 0.3814 -0.6783
vn 0.7629 -0.3113 -0.5666
vn -0.5017 0.8389 -0.2109
vn -0.8806 0.2569 -0.3982
vn -0.8567 -0.3391 -0.3885
vn -0.8539 -0.3691 -0.3668
vn -0.9356 -0.3531 0.0000
vn -0.8539 -0.3691 0.3668
vn -0.5557 -0.4131 0.7214
vn 0.0000 -0.4445 0.8958
vn 0.5557 -0.4131 0.7214
vn 0.8539 -0.3691 0.3668
vn 0.9356 -0.3531 0.0000
vn 0.8539 -0.3691 -0.3668
vn 0.7364 -0.3981 -0.5469
vn -0.6280 0.3814 -0.6783
vn -0.7629 -0.3113 -0.5666
vn -0.7364 -0.3981 -0.5469
vn -0.8028 0.0000 -0.5962
vn -0.9141 0.0000 -0.4056
vn -1.0000 0.0000 0.0000
vn -0.9141 0.0000 0.4056
vn -0.5965 0.0000 0.8026
vn 0.0000 0.0000 1.0000
vn 0.5965 0.0000 0.8026
vn 0.9141 0.0000 0.4056
vn 1.0000 0.0000 0.0000
vn 0.9141 0.0000 -0.4056
vn 0.8028 0.0000 -0.5962
vn -0.3277 0.8487 -0.4151
vn 0.0000 0.6014 -0.7989
vn 0.0000 0.8553 -0.5181
vn 0.2244 0.9218 0.3160
vn 0.0000 0.9337 0.3580
vn 0.5766 0.3166 0.7532
vn 0.0000 0.3442 0.9389
vn -0.9749 0.2226 -0.0035
vn -0.7205 0.1727 0.6716
vn 0.0287 0.1155 0.9929
vn -0.8721 0.4166 -0.2564
vn -0.8141 0.5212 -0.2559
vn 0.7924 0.5714 -0.2134
vn 0.9625 -0.0882 -0.2567
vn 0.8300 0.5578 0.0068
vn 0.9957 -0.0922 0.0000
vn 0.9495 -0.1827 -0.2550
vn 0.9821 -0.1882 0.0000
vn 0.9046 -0.4263 -0.0001
vn 0.9518 -0.3066 0.0000
vn 0.9198 -0.2966 -0.2567
vn 0.8747 -0.4112 -0.2563
vn 0.8509 -0.5253 -0.0001
vn 0.8234 -0.5083 -0.2521
vn 0.7708 -0.5857 -0.2504
vn 0.7937 -0.6083 0.0000
vn -0.2244 0.9218 0.3160
vn -0.5766 0.3166 0.7532
vn -0.3941 0.9007 0.1826
vn -0.8817 0.2779 0.3811
vn -0.4530 0.8915 0.0000
vn -0.9645 0.2638 0.0000
vn -0.3941 0.9007 -0.1825
vn 0.0000 0.3442 -0.9389
vn 0.0000 0.9337 -0.3580
vn -0.2244 0.9218 -0.3160
vn 0.3277 0.8487 -0.4151
vn 0.5017 0.8389 -0.2109
vn 0.5501 0.8351 0.0000
vn 0.5017 0.8389 0.2109
vn 0.3277 0.8487 0.4151
vn 0.0000 0.8553 0.5181
vn -0.3277 0.8487 0.4151
vn 0.2244 0.9218 -0.3160
vn 0.5766 0.3166 -0.7532
vn 0.8205 -0.4987 -0.2794
vn 0.9471 0.0730 -0.3124
vn 0.8606 -0.5092 0.0000
vn 0.9972 0.0747 0.0039
vn 0.7576 0.0740 0.6485
vn -0.0435 -0.4900 0.8706
vn 0.6451 -0.5191 0.5606
vn 0.9209 -0.2402 -0.3068
vn 0.9663 -0.2573 -0.0007
vn 0.7287 -0.2534 0.6362
vn -0.0007 -0.2075 0.9782
vn -0.7452 -0.1559 0.6483
vn -0.7361 -0.3643 0.5704
vn 0.9189 -0.2681 -0.2893
vn 0.9606 -0.2779 -0.0029
vn 0.7421 -0.2774 0.6101
vn -0.0284 -0.2446 0.9692
vn -0.7731 -0.1776 0.6089
vn -0.9880 -0.1545 0.0032
vn -0.9926 -0.1213 0.0009
vn -0.9520 -0.3061 0.0000
vn 0.9647 -0.0582 -0.2568
vn 0.9979 -0.0645 -0.0023
vn 0.8055 -0.0522 0.5902
vn 0.0018 -0.0056 1.0000
vn -0.8039 0.0234 0.5942
vn -0.9998 0.0186 0.0023
vn -0.9651 0.0155 -0.2611
vn -0.9433 -0.1509 -0.2956
vn -0.9445 -0.1049 -0.3111
vn -0.9013 -0.3187 -0.2934
vn -0.9198 0.2544 -0.2987
vn -0.2149 0.5730 0.7909
vn 0.0084 0.5401 0.8415
vn -0.0936 0.5522 0.8284
vn -0.0163 0.5119 0.8589
vn -0.0880 0.5156 0.8522
vn -0.2424 0.5827 0.7757
vn -0.2609 0.4859 0.8342
vn -0.6004 0.2669 0.7538
vn -0.2392 0.4250 0.8730
vn -0.2692 0.0283 0.9626
vn -0.1104 0.3990 0.9102
vn -0.1090 0.4530 0.8848
vn -0.0652 0.2511 0.9657
vn -0.5075 0.5007 0.7012
vn -0.5784 0.3688 0.7276
vn -0.3880 0.2221 0.8945
vn -0.2297 0.4251 0.8755
vn 0.0089 0.5535 0.8328
vn -0.0331 0.5360 0.8435
vn -0.1459 0.4439 0.8841
vn -0.1467 0.3839 0.9116
vn -0.0833 0.3771 0.9224
vn -0.0957 0.4046 0.9095
vn -0.0345 0.5147 0.8566
vn 0.0040 0.6278 0.7783
vn -0.0602 0.5568 0.8285
vn -0.0769 0.3089 0.9480
vn 0.0864 0.4060 0.9098
vn 0.0546 0.2694 0.9615
vn 0.0341 0.4783 0.8775
vn 0.0375 0.3990 0.9162
vn 0.0555 0.5300 0.8462
vn -0.0306 0.4818 0.8757
vn -0.1363 0.4340 0.8905
vn -0.2136 0.5369 0.8161
vn -0.0749 0.5058 0.8594
vn -0.1226 0.5662 0.8151
vn -0.0616 0.1949 0.9789
vn 0.5537 -0.6256 -0.5495
vn 0.6627 -0.2993 -0.6865
vn 0.6340 -0.6822 -0.3641
vn 0.8316 -0.3016 -0.4663
vn 0.7143 -0.6998 -0.0014
vn 0.9626 -0.2706 0.0075
vn 0.5640 -0.6965 0.4436
vn 0.7853 -0.2764 0.5538
vn 0.3024 -0.6157 0.7276
vn 0.3842 -0.3444 0.8566
vn -0.0039 -0.6297 0.7768
vn 0.0054 -0.3526 0.9358
vn -0.2954 -0.6250 0.7225
vn -0.3808 -0.3475 0.8569
vn -0.5615 -0.7065 0.4307
vn -0.7853 -0.2801 0.5521
vn -0.7141 -0.7000 0.0052
vn -0.9626 -0.2709 -0.0023
vn -0.6428 -0.6732 -0.3655
vn -0.8321 -0.2915 -0.4717
vn -0.5495 -0.6114 -0.5693
vn -0.6843 -0.2787 -0.6739
vn 0.4943 -0.6541 -0.5725
vn 0.7343 -0.5460 -0.4032
vn 0.8188 -0.5740 -0.0072
vn 0.6675 -0.5520 0.4997
vn 0.3380 -0.5444 0.7677
vn -0.0059 -0.5160 0.8565
vn -0.3419 -0.5377 0.7707
vn -0.6690 -0.5451 0.5052
vn -0.8186 -0.5744 0.0025
vn -0.7300 -0.5589 -0.3934
vn -0.4787 -0.6623 -0.5763
vn 0.0000 -0.8533 -0.5214
vn 0.4264 0.7487 -0.5075
vn 0.6471 0.6767 -0.3510
vn 0.7219 0.6920 0.0031
vn 0.6002 0.6650 0.4444
vn 0.3143 0.6507 0.6912
vn 0.0070 0.6285 0.7777
vn -0.3132 0.6565 0.6861
vn -0.5970 0.6701 0.4411
vn -0.7222 0.6916 -0.0076
vn -0.6530 0.6646 -0.3630
vn -0.4446 0.7406 -0.5038
vn 0.0000 0.8979 -0.4400
vn -0.5655 0.2934 0.7708
vn -0.3090 0.0568 0.9493
vn -0.5349 0.1896 0.8233
vn -0.1960 0.0240 0.9803
vn -0.5302 0.1531 0.8339
vn -0.1752 -0.0035 0.9845
vn -0.6006 0.0739 0.7961
vn -0.2035 -0.2125 0.9557
vn -0.1577 -0.3016 0.9403
vn -0.4920 0.0811 0.8668
usemtl mat1
s 1
f 1/1/1 2/2/2 3/3/3
f 4/4/4 1/1/1 5/5/5
f 6/6/6 1/1/1 4/4/4
f 6/6/6 2/2/2 1/1/1
f 6/6/6 7/7/7 2/2/2
f 8/8/8 9/9/9 10/10/10
f 7/11/7 9/9/9 8/8/8
f 7/11/7 6/12/6 9/9/9
f 11/13/11 12/14/12 13/15/13
f 14/16/14 11/13/11 13/15/13
f 11/13/11 15/17/15 16/18/16
f 15/17/15 17/19/17 16/18/16
f 16/18/16 17/19/17 18/20/18
f 11/13/11 16/18/16 19/21/19
f 16/18/16 20/22/20 19/21/19
f 19/21/19 20/22/20 21/23/21
f 21/23/21 20/22/20 22/24/22
f 22/24/22 20/22/20 23/25/23
f 23/25/23 20/22/20 24/26/24
f 20/22/20 16/18/16 24/26/24
f 16/18/16 18/20/18 24/26/24
f 18/20/18 25/27/25 24/26/24
f 25/27/25 26/28/26 24/26/24
f 24/26/24 26/28/26 23/25/23
f 18/20/18 27/29/27 25/27/25
f 27/29/27 28/30/28 25/27/25
f 28/30/28 29/31/29 25/27/25
f 29/31/29 30/32/30 25/27/25
f 25/27/25 30/32/30 26/28/26
f 31/33/31 32/34/32 33/35/33
f 33/35/33 32/34/32 34/36/34
f 32/34/32 30/32/30 34/36/34
f 30/32/30 29/31/29 34/36/34
f 29/31/29 35/37/35 34/36/34
f 35/37/35 36/38/36 34/36/34
f 34/36/34 36/38/36 37/39/37
f 38/40/38 39/41/39 8/8/8
f 39/41/39 7/11/7 8/8/8
f 40/42/40 41/43/41 42/44/42
f 41/43/41 43/45/43 42/44/42
f 44/46/44 42/44/42 45/47/45
f 42/44/42 43/45/43 45/47/45
f 45/47/45 43/45/43 46/48/46
f 43/45/43 47/49/47 46/48/46
f 46/48/46 47/49/47 48/50/48
f 47/49/47 49/51/49 48/50/48
f 50/52/50 51/53/51 48/50/48
f 51/53/51 46/48/46 48/50/48
f 52/54/52 53/55/53 54/56/54
f 53/55/53 55/57/55 54/56/54
f 56/58/56 57/59/57 55/57/55
f 57/59/57 58/60/58 55/57/55
f 55/57/55 58/60/58 54/56/54
f 58/60/58 59/61/59 54/56/54
f 60/62/60 61/63/61 55/57/55
f 61/63/61 62/64/62 55/57/55
f 55/57/55 62/64/62 56/58/56
f 62/64/62 63/65/63 56/58/56
f 21/23/21 64/66/64 19/21/19
f 64/66/64 12/14/12 19/21/19
f 19/21/19 12/14/12 11/13/11
f 9/9/9 65/67/65 10/10/10
f 65/67/65 66/68/66 10/10/10
f 10/10/10 66/68/66 8/8/8
f 67/69/67 1/1/1 68/70/68
f 1/1/1 3/3/3 68/70/68
f 1/1/1 67/69/67 5/5/5
f 67/69/67 69/71/69 5/5/5
f 5/5/5 69/71/69 4/4/4
f 68/70/68 70/72/70 67/69/67
f 70/72/70 71/73/71 67/69/67
f 67/69/67 71/73/71 69/71/69
f 69/71/69 71/73/71 72/74/72
f 71/73/71 73/75/73 72/74/72
f 72/74/72 73/75/73 74/76/74
f 73/75/73 75/77/75 74/76/74
f 74/76/74 75/77/75 76/78/76
f 75/77/75 77/79/77 76/78/76
f 77/79/77 78/80/78 76/78/76
f 76/78/76 78/80/78 79/81/79
f 78/80/78 80/82/80 79/81/79
f 79/81/79 80/82/80 81/83/81
f 80/82/80 82/84/82 81/83/81
f 81/83/81 82/84/82 83/85/83
f 82/84/82 84/86/84 83/85/83
f 83/85/83 84/86/84 85/87/85
f 84/86/84 86/88/86 85/87/85
f 85/87/85 86/88/86 87/89/87
f 86/88/86 88/90/88 87/89/87
f 87/89/87 88/90/88 89/91/89
f 88/90/88 90/92/90 89/91/89
f 89/91/89 90/92/90 91/93/91
f 90/92/90 92/94/92 91/93/91
f 70/72/70 93/95/93 71/73/71
f 71/73/71 93/95/93 73/75/73
f 93/95/93 94/96/94 73/75/73
f 73/75/73 94/96/94 75/77/75
f 94/96/94 95/97/95 75/77/75
f 75/77/75 95/97/95 77/79/77
f 95/97/95 96/98/96 77/79/77
f 96/98/96 97/99/97 77/79/77
f 77/79/77 97/99/97 78/80/78
f 97/99/97 98/100/98 78/80/78
f 78/80/78 98/100/98 80/82/80
f 98/100/98 99/101/99 80/82/80
f 80/82/80 99/101/99 82/84/82
f 99/101/99 100/102/100 82/84/82
f 82/84/82 100/102/100 84/86/84
f 100/102/100 101/103/101 84/86/84
f 84/86/84 101/103/101 86/88/86
f 101/103/101 102/104/102 86/88/86
f 86/88/86 102/104/102 88/90/88
f 102/104/102 103/105/103 88/90/88
f 88/90/88 103/105/103 90/92/90
f 103/105/103 104/106/104 90/92/90
f 90/92/90 104/106/104 92/94/92
f 104/106/104 105/107/105 92/94/92
f 106/108/106 107/109/107 94/96/94
f 94/96/94 107/109/107 95/97/95
f 107/109/107 108/110/108 95/97/95
f 95/97/95 108/110/108 96/98/96
f 108/110/108 109/111/109 96/98/96
f 109/111/109 110/112/110 96/98/96
f 96/98/96 110/112/110 97/99/97
f 110/112/110 111/113/111 97/99/97
f 97/99/97 111/113/111 98/100/98
f 111/113/111 112/114/112 98/100/98
f 98/100/98 112/114/112 99/101/99
f 112/114/112 113/115/113 99/101/99
f 99/101/99 113/115/113 100/102/100
f 113/115/113 114/116/114 100/102/100
f 100/102/100 114/116/114 101/103/101
f 114/116/114 115/117/115 101/103/101
f 101/103/101 115/117/115 102/104/102
f 115/117/115 116/118/116 102/104/102
f 102/104/102 116/118/116 103/105/103
f 116/118/116 117/119/117 103/105/103
f 103/105/103 117/119/117 104/106/104
f 117/119/117 118/120/118 104/106/104
f 104/106/104 118/120/118 105/107/105
f 118/120/118 119/121/119 105/107/105
f 94/96/94 93/95/93 106/108/106
f 93/95/93 120/122/120 106/108/106
f 106/108/106 120/122/120 121/123/121
f 121/123/121 120/122/120 122/124/122
f 120/122/120 123/125/123 122/124/122
f 122/124/122 123/125/123 124/126/124
f 123/125/123 125/127/125 124/126/124
f 124/126/124 125/127/125 126/128/126
f 125/127/125 2/2/2 126/128/126
f 126/128/126 2/2/2 7/7/7
f 93/95/93 70/72/70 120/122/120
f 120/122/120 70/72/70 123/125/123
f 70/72/70 68/70/68 123/125/123
f 123/125/123 68/70/68 125/127/125
f 68/70/68 3/3/3 125/127/125
f 125/127/125 3/3/3 2/2/2
f 12/14/12 127/129/127 13/15/13
f 127/129/127 128/130/128 13/15/13
f 128/130/128 129/131/129 13/15/13
f 13/15/13 129/131/129 14/16/14
f 23/25/23 26/28/26 130/132/130
f 130/132/130 26/28/26 131/133/131
f 26/28/26 30/32/30 131/133/131
f 30/32/30 32/34/32 131/133/131
f 131/133/131 32/34/32 31/33/31
f 132/134/132 133/135/133 134/136/134
f 133/135/133 135/137/135 134/136/134
f 134/136/134 135/137/135 14/16/14
f 135/137/135 15/17/15 14/16/14
f 14/16/14 15/17/15 11/13/11
f 133/135/133 136/138/136 135/137/135
f 136/138/136 137/139/137 135/137/135
f 135/137/135 137/139/137 15/17/15
f 15/17/15 137/139/137 17/19/17
f 137/139/137 27/29/27 17/19/17
f 17/19/17 27/29/27 18/20/18
f 29/31/29 28/30/28 35/37/35
f 35/37/35 28/30/28 138/140/138
f 28/30/28 27/29/27 138/140/138
f 138/140/138 27/29/27 139/141/139
f 27/29/27 137/139/137 139/141/139
f 137/139/137 136/138/136 139/141/139
f 136/138/136 140/142/140 139/141/139
f 140/142/140 141/143/141 139/141/139
f 139/141/139 141/143/141 138/140/138
f 138/140/138 141/143/141 142/144/142
f 141/143/141 143/145/143 142/144/142
f 143/145/143 144/146/144 142/144/142
f 142/144/142 144/146/144 145/147/145
f 144/146/144 37/39/37 145/147/145
f 37/39/37 36/38/36 145/147/145
f 36/38/36 35/37/35 145/147/145
f 145/147/145 35/37/35 142/144/142
f 35/37/35 138/140/138 142/144/142
f 146/148/146 147/149/147 148/150/148
f 147/149/147 149/151/149 148/150/148
f 148/150/148 149/151/149 150/152/150
f 149/151/149 151/153/151 150/152/150
f 150/152/150 151/153/151 152/154/152
f 6/12/6 153/155/153 9/9/9
f 9/9/9 153/155/153 65/67/65
f 153/155/153 154/156/154 65/67/65
f 154/156/154 155/157/155 65/67/65
f 65/67/65 155/157/155 66/68/66
f 155/157/155 152/154/152 66/68/66
f 152/154/152 151/153/151 66/68/66
f 66/68/66 151/153/151 8/8/8
f 8/8/8 151/153/151 38/40/38
f 151/153/151 149/151/149 38/40/38
f 38/40/38 149/151/149 39/41/39
f 149/151/149 147/149/147 39/41/39
f 39/41/39 147/149/147 7/11/7
f 7/11/7 147/149/147 126/158/126
f 147/149/147 146/148/146 126/158/126
f 126/158/126 146/148/146 124/159/124
f 122/160/122 124/159/124 156/161/156
f 124/159/124 146/148/146 156/161/156
f 156/161/156 146/148/146 157/162/157
f 146/148/146 148/150/148 157/162/157
f 157/162/157 148/150/148 158/163/158
f 148/150/148 150/152/150 158/163/158
f 158/163/158 150/152/150 159/164/159
f 150/152/150 152/154/152 159/164/159
f 159/164/159 152/154/152 160/165/160
f 152/154/152 155/157/155 160/165/160
f 160/165/160 155/157/155 161/166/161
f 155/157/155 154/156/154 161/166/161
f 161/166/161 154/156/154 162/167/162
f 162/167/162 154/156/154 163/168/163
f 154/156/154 153/169/153 163/168/163
f 121/170/121 122/160/122 91/93/91
f 122/160/122 156/161/156 91/93/91
f 91/93/91 156/161/156 89/91/89
f 156/161/156 157/162/157 89/91/89
f 89/91/89 157/162/157 87/89/87
f 157/162/157 158/163/158 87/89/87
f 87/89/87 158/163/158 85/87/85
f 158/163/158 159/164/159 85/87/85
f 85/87/85 159/164/159 83/85/83
f 159/164/159 160/165/160 83/85/83
f 83/85/83 160/165/160 81/83/81
f 160/165/160 161/166/161 81/83/81
f 81/83/81 161/166/161 79/81/79
f 161/166/161 162/167/162 79/81/79
f 79/81/79 162/167/162 76/78/76
f 76/78/76 162/167/162 74/76/74
f 162/167/162 163/168/163 74/76/74
f 74/76/74 163/168/163 72/74/72
f 163/168/163 164/171/164 72/74/72
f 72/74/72 164/171/164 69/71/69
f 69/71/69 164/171/164 4/4/4
f 4/4/4 164/171/164 6/6/6
f 6/6/6 164/171/164 153/169/153
f 164/171/164 163/168/163 153/169/153
f 165/172/165 166/173/166 167/174/167
f 167/174/167 166/173/166 168/175/168
f 166/173/166 132/134/132 168/175/168
f 132/134/132 134/136/134 168/175/168
f 168/175/168 134/136/134 169/176/169
f 134/136/134 14/16/14 169/176/169
f 14/16/14 129/131/129 169/176/169
f 129/131/129 170/177/170 169/176/169
f 170/177/170 171/178/171 169/176/169
f 169/176/169 171/178/171 168/175/168
f 171/178/171 167/174/167 168/175/168
f 172/179/172 165/172/165 173/180/173
f 165/172/165 167/174/167 173/180/173
f 173/180/173 167/174/167 174/181/174
f 167/174/167 171/178/171 174/181/174
f 174/181/174 171/178/171 175/182/175
f 171/178/171 170/177/170 175/182/175
f 175/182/175 170/177/170 176/183/176
f 176/183/176 170/177/170 177/184/177
f 170/177/170 129/131/129 177/184/177
f 177/184/177 129/131/129 128/130/128
f 178/185/178 172/179/172 179/186/179
f 172/179/172 173/180/173 179/186/179
f 179/186/179 173/180/173 180/187/180
f 173/180/173 174/181/174 180/187/180
f 180/187/180 174/181/174 181/188/181
f 174/181/174 175/182/175 181/188/181
f 181/188/181 175/182/175 182/189/182
f 175/182/175 176/183/176 182/189/182
f 182/189/182 176/183/176 183/190/183
f 183/190/183 176/183/176 184/191/184
f 176/183/176 177/184/177 184/191/184
f 184/191/184 177/184/177 185/192/185
f 177/184/177 128/130/128 185/192/185
f 185/192/185 128/130/128 127/129/127
f 186/193/186 178/185/178 187/194/187
f 178/185/178 179/186/179 187/194/187
f 187/194/187 179/186/179 188/195/188
f 179/186/179 180/187/180 188/195/188
f 188/195/188 180/187/180 189/196/189
f 180/187/180 181/188/181 189/196/189
f 189/196/189 181/188/181 190/197/190
f 181/188/181 182/189/182 190/197/190
f 190/197/190 182/189/182 191/198/191
f 182/189/182 183/190/183 191/198/191
f 191/198/191 183/190/183 192/199/192
f 192/199/192 183/190/183 193/200/193
f 183/190/183 184/191/184 193/200/193
f 193/200/193 184/191/184 194/201/194
f 184/191/184 185/192/185 194/201/194
f 194/201/194 185/192/185 195/202/195
f 185/192/185 127/129/127 195/202/195
f 195/202/195 127/129/127 196/203/196
f 127/129/127 12/14/12 196/203/196
f 196/203/196 12/14/12 64/66/64
f 197/204/197 198/205/198 199/206/199
f 199/206/199 198/205/198 200/207/200
f 198/205/198 201/208/201 200/207/200
f 200/207/200 201/208/201 202/209/202
f 201/208/201 203/210/203 202/209/202
f 202/209/202 203/210/203 204/211/204
f 203/210/203 205/212/205 204/211/204
f 204/211/204 205/212/205 206/213/206
f 205/212/205 207/214/207 206/213/206
f 207/214/207 208/215/208 206/213/206
f 206/213/206 208/215/208 209/216/209
f 199/206/199 33/217/33 197/204/197
f 33/217/33 34/218/34 197/204/197
f 197/204/197 34/218/34 210/219/210
f 34/218/34 211/220/211 210/219/210
f 211/220/211 212/221/212 210/219/210
f 212/221/212 213/222/213 210/219/210
f 210/219/210 213/222/213 197/204/197
f 213/222/213 214/223/214 197/204/197
f 197/204/197 214/223/214 198/205/198
f 214/223/214 215/224/215 198/205/198
f 198/205/198 215/224/215 201/208/201
f 215/224/215 216/225/216 201/208/201
f 201/208/201 216/225/216 203/210/203
f 216/225/216 217/226/217 203/210/203
f 203/210/203 217/226/217 205/212/205
f 217/226/217 218/227/218 205/212/205
f 205/212/205 218/227/218 207/214/207
f 218/227/218 219/228/219 207/214/207
f 219/228/219 220/229/220 207/214/207
f 207/214/207 220/229/220 208/215/208
f 220/229/220 221/230/221 208/215/208
f 221/230/221 222/231/222 208/215/208
f 208/215/208 222/231/222 209/216/209
f 222/231/222 223/232/223 209/216/209
f 224/233/224 225/234/225 226/235/226
f 225/234/225 227/236/227 226/235/226
f 226/235/226 227/236/227 228/237/228
f 228/237/228 227/236/227 229/238/229
f 227/236/227 230/239/230 229/238/229
f 229/238/229 230/239/230 231/240/231
f 230/239/230 232/241/232 231/240/231
f 231/240/231 232/241/232 233/242/233
f 233/242/233 232/241/232 221/230/221
f 221/230/221 232/241/232 222/231/222
f 222/231/222 232/241/232 223/232/223
f 232/241/232 230/239/230 223/232/223
f 223/232/223 230/239/230 234/243/234
f 230/239/230 227/236/227 234/243/234
f 234/243/234 227/236/227 225/234/225
f 235/244/235 236/245/236 237/246/237
f 236/245/236 238/247/238 237/246/237
f 237/246/237 238/247/238 239/248/239
f 238/247/238 240/249/240 239/248/239
f 239/248/239 240/249/240 241/250/241
f 240/249/240 242/251/242 241/250/241
f 241/250/241 242/251/242 243/252/243
f 242/251/242 244/253/244 243/252/243
f 243/252/243 244/253/244 245/254/245
f 244/253/244 246/255/246 245/254/245
f 245/254/245 246/255/246 247/256/247
f 246/255/246 248/257/248 247/256/247
f 247/256/247 248/257/248 249/258/249
f 248/257/248 250/259/250 249/258/249
f 249/258/249 250/259/250 251/260/251
f 250/259/250 252/261/252 251/260/251
f 251/260/251 252/261/252 253/262/253
f 252/261/252 254/263/254 253/262/253
f 253/262/253 254/263/254 255/264/255
f 254/263/254 256/265/256 255/264/255
f 257/266/257 235/244/235 258/267/258
f 235/244/235 237/246/237 258/267/258
f 258/267/258 237/246/237 259/268/259
f 237/246/237 239/248/239 259/268/259
f 259/268/259 239/248/239 260/269/260
f 239/248/239 241/250/241 260/269/260
f 260/269/260 241/250/241 261/270/261
f 241/250/241 243/252/243 261/270/261
f 261/270/261 243/252/243 262/271/262
f 243/252/243 245/254/245 262/271/262
f 262/271/262 245/254/245 263/272/263
f 245/254/245 247/256/247 263/272/263
f 263/272/263 247/256/247 264/273/264
f 247/256/247 249/258/249 264/273/264
f 264/273/264 249/258/249 265/274/265
f 249/258/249 251/260/251 265/274/265
f 265/274/265 251/260/251 266/275/266
f 251/260/251 253/262/253 266/275/266
f 266/275/266 253/262/253 267/276/267
f 253/262/253 255/264/255 267/276/267
f 268/277/268 257/266/257 55/278/55
f 55/278/55 257/266/257 60/279/60
f 257/266/257 258/267/258 60/279/60
f 60/279/60 258/267/258 61/280/61
f 258/267/258 259/268/259 61/280/61
f 61/280/61 259/268/259 62/281/62
f 259/268/259 260/269/260 62/281/62
f 62/281/62 260/269/260 63/282/63
f 260/269/260 261/270/261 63/282/63
f 63/282/63 261/270/261 56/283/56
f 261/270/261 262/271/262 56/283/56
f 56/283/56 262/271/262 57/284/57
f 262/271/262 263/272/263 57/284/57
f 57/284/57 263/272/263 58/285/58
f 263/272/263 264/273/264 58/285/58
f 58/285/58 264/273/264 59/286/59
f 264/273/264 265/274/265 59/286/59
f 59/286/59 265/274/265 54/287/54
f 265/274/265 266/275/266 54/287/54
f 54/287/54 266/275/266 52/288/52
f 266/275/266 267/276/267 52/288/52
f 52/288/52 267/276/267 53/289/53
f 267/276/267 268/290/268 53/289/53
f 268/290/268 55/278/55 53/289/53
f 236/245/236 269/291/269 238/247/238
f 269/291/269 270/292/270 238/247/238
f 238/247/238 270/292/270 240/249/240
f 270/292/270 271/293/271 240/249/240
f 240/249/240 271/293/271 242/251/242
f 271/293/271 272/294/272 242/251/242
f 242/251/242 272/294/272 244/253/244
f 272/294/272 273/295/273 244/253/244
f 244/253/244 273/295/273 246/255/246
f 273/295/273 274/296/274 246/255/246
f 246/255/246 274/296/274 248/257/248
f 274/296/274 275/297/275 248/257/248
f 248/257/248 275/297/275 250/259/250
f 275/297/275 276/298/276 250/259/250
f 250/259/250 276/298/276 252/261/252
f 276/298/276 277/299/277 252/261/252
f 252/261/252 277/299/277 254/263/254
f 277/299/277 278/300/278 254/263/254
f 254/263/254 278/300/278 256/265/256
f 278/300/278 279/301/279 256/265/256
f 46/302/46 51/303/51 280/304/280
f 280/304/280 51/303/51 269/291/269
f 51/303/51 50/305/50 269/291/269
f 269/291/269 50/305/50 270/292/270
f 50/305/50 48/306/48 270/292/270
f 270/292/270 48/306/48 271/293/271
f 48/306/48 49/307/49 271/293/271
f 271/293/271 49/307/49 272/294/272
f 49/307/49 47/308/47 272/294/272
f 272/294/272 47/308/47 273/295/273
f 47/308/47 43/309/43 273/295/273
f 273/295/273 43/309/43 274/296/274
f 43/309/43 41/310/41 274/296/274
f 274/296/274 41/310/41 275/297/275
f 41/310/41 40/311/40 275/297/275
f 275/297/275 40/311/40 276/298/276
f 40/311/40 42/312/42 276/298/276
f 276/298/276 42/312/42 277/299/277
f 42/312/42 44/313/44 277/299/277
f 277/299/277 44/313/44 278/300/278
f 44/313/44 45/314/45 278/300/278
f 278/300/278 45/314/45 279/301/279
f 45/314/45 46/302/46 279/301/279
f 279/301/279 46/302/46 280/315/280
f 34/218/34 29/316/29 211/220/211
f 29/316/29 281/317/281 211/220/211
f 211/220/211 281/317/281 212/221/212
f 212/221/212 281/317/281 282/318/282
f 281/317/281 283/319/283 282/318/282
f 282/318/282 283/319/283 284/320/284
f 283/319/283 285/321/285 284/320/284
f 284/320/284 285/321/285 286/322/286
f 285/321/285 287/323/287 286/322/286
f 286/322/286 287/323/287 288/324/288
f 288/324/288 287/323/287 289/325/289
f 289/325/289 287/323/287 290/326/290
f 290/326/290 287/323/287 13/327/13
f 13/327/13 287/323/287 11/328/11
f 287/323/287 285/321/285 11/328/11
f 11/328/11 285/321/285 16/329/16
f 285/321/285 283/319/283 16/329/16
f 16/329/16 283/319/283 18/330/18
f 18/330/18 283/319/283 25/331/25
f 283/319/283 281/317/281 25/331/25
f 25/331/25 281/317/281 29/316/29
