# Blender 4.0.2
# www.blender.org
mtllib Donut1.mtl
o TopL
v 13.381160 53.696621 4.511127
v 18.823076 41.367107 -2.581575
v 11.582248 48.532429 11.823614
v 16.436295 44.589417 -10.286004
v 10.872646 57.084274 -3.590225
v 10.589941 45.255848 -16.676970
v 4.726021 57.785488 -10.308814
v 2.852304 43.190487 -20.040764
v -3.408451 55.613598 -13.843628
v -4.706621 38.944408 -19.475965
v -11.353987 51.150703 -13.249730
v -10.057477 33.655338 -15.132972
v -16.979856 45.591160 -8.683194
v -11.770135 28.742826 -8.177120
v -18.778769 40.427059 -1.370619
v -9.380820 25.520166 -0.469720
v -16.270254 37.039322 6.730732
v -3.537088 24.852686 5.920721
v -10.123543 36.338108 13.449321
v 4.203083 26.919096 9.285040
v -1.989159 38.509995 16.984049
v 11.759561 31.165525 8.717271
v 5.956378 42.972889 16.390150
v 17.110331 36.453285 4.376636
v 28.930189 30.581762 6.461224
v 31.689949 38.505016 -4.760980
v 27.840357 43.703636 -17.191343
v 18.410599 44.780624 -27.500938
v 5.928238 41.448288 -32.926685
v -6.262764 34.597481 -32.013554
v -14.895619 26.066523 -25.009027
v -17.654242 18.141087 -13.788134
v -13.805785 12.944651 -1.356460
v -4.376027 11.867663 8.953135
v 8.106333 15.199997 14.378884
v 20.297337 22.050808 13.465752
v 35.263477 35.000172 14.407721
v 39.054085 45.885750 -1.005769
v 33.764488 53.024944 -18.079746
v 20.813196 54.503746 -32.242168
v 3.667211 49.925156 -39.692116
v -13.077132 40.516018 -38.439304
v -24.936142 28.798668 -28.818333
v -28.726746 17.913176 -13.404843
v -23.439686 10.771536 3.670968
v -10.485860 9.295180 17.831554
v 6.660124 13.872291 25.283951
v 23.404554 23.281425 24.031048
v 35.425499 39.980236 19.005890
v 39.546871 51.808311 2.257266
v 33.799706 59.564648 -16.294727
v 19.722925 61.173485 -31.682613
v 1.092456 56.198490 -39.780293
v -17.100891 45.974449 -38.419029
v -29.984194 33.241634 -27.962265
v -34.105568 21.413649 -11.213641
v -28.358402 13.655914 7.340800
v -14.285292 12.049697 22.726936
v 4.345178 17.024691 30.824615
v 22.542194 27.247509 29.462652
v -31.582458 18.579782 10.580239
v -17.287556 16.948311 26.205997
v 1.633134 21.998898 34.431095
v 20.111633 32.383038 33.046577
v 33.195232 45.313438 22.430420
v 37.382584 57.327831 5.419365
v 31.544096 65.204414 -13.423723
v 17.251726 66.836937 -29.048960
v -1.671498 61.785385 -37.274574
v -20.149998 51.401249 -35.890064
v -33.233597 38.470844 -25.273907
v -37.418415 26.457418 -8.262324
v 28.883873 50.467144 24.386284
v 32.872242 61.918922 8.173443
v 16.412613 38.142529 34.505981
v -1.198896 28.245934 35.824692
v -19.234768 23.430338 27.986555
v -32.857822 24.985521 13.092511
v -38.419895 32.495506 -4.864798
v -34.430397 43.945099 -21.078863
v -21.961582 56.268665 -31.199261
v -4.347625 66.166313 -32.517353
v 13.685713 70.980858 -24.679834
v 27.308855 69.425674 -9.785701
v -19.234768 23.430338 27.986555
v -28.328426 34.305077 13.017616
v -32.857822 24.985521 13.092511
v -17.770382 33.100243 24.563511
v -1.198896 28.245934 35.824692
v -3.794712 36.831337 30.634981
v 16.412613 38.142529 34.505981
v 9.855345 44.500984 29.615843
v 28.883873 50.467144 24.386284
v 19.521231 54.050987 21.771069
v 32.872242 61.918922 8.173443
v 22.612019 62.927658 9.207260
v 27.308855 69.425674 -9.785701
v 18.299788 68.747009 -4.712044
v 13.685713 70.980858 -24.679834
v 18.299788 68.747009 -4.712044
v 27.308855 69.425674 -9.785701
v 7.741744 69.950447 -16.255491
v -4.347625 66.166313 -32.517353
v -6.233927 66.220757 -22.329409
v -21.961582 56.268665 -31.199261
v -19.883984 58.549709 -21.307911
v -34.430397 43.945099 -21.078863
v -29.548645 48.997513 -13.464358
v -38.419895 32.495506 -4.864798
v -32.640659 40.123032 -0.899328
v -32.857822 24.985521 13.092511
v -28.328426 34.305077 13.017616
v -16.270254 37.039322 6.730732
v -10.123543 36.338108 13.449321
v -1.989159 38.509995 16.984049
v 5.956378 42.972889 16.390150
v 11.582248 48.532429 11.823614
v 13.381160 53.696621 4.511127
v 10.872646 57.084274 -3.590225
v -18.778769 40.427059 -1.370619
v -16.270254 37.039322 6.730732
v -16.979856 45.591160 -8.683194
v -11.353987 51.150703 -13.249730
v -3.408451 55.613598 -13.843628
v 4.726021 57.785488 -10.308814
v 10.872646 57.084274 -3.590225
vn -0.9812 0.1462 0.1263
vn -0.6680 -0.6634 -0.3373
vn -0.8977 0.3857 -0.2128
vn -0.5379 -0.8389 0.0827
vn -0.8648 -0.0109 0.5020
vn -0.2193 -0.8753 0.4310
vn -0.5798 -0.0433 0.8136
vn 0.2024 -0.7627 0.6143
vn -0.2024 0.0574 0.9776
vn 0.6143 -0.5312 0.5835
vn 0.1660 0.2644 0.9500
vn 0.9059 -0.2431 0.3468
vn 0.4269 0.5222 0.7383
vn 0.9992 0.0247 -0.0323
vn 0.5103 0.7618 0.3991
vn 0.8691 0.2003 -0.4523
vn 0.3939 0.9188 0.0235
vn 0.5505 0.2367 -0.8006
vn 0.1089 0.9514 -0.2882
vn 0.1287 0.1241 -0.9839
vn -0.2683 0.8506 -0.4522
vn -0.2831 -0.1073 -0.9531
vn -0.6368 0.6436 -0.4246
vn -0.5748 -0.3955 -0.7164
vn 0.2986 -0.7938 -0.5299
vn 0.2851 -0.8325 -0.4750
vn 0.3040 -0.8579 -0.4142
vn 0.3502 -0.8632 -0.3638
vn 0.4112 -0.8469 -0.3372
vn 0.4708 -0.8134 -0.3417
vn 0.5131 -0.7716 -0.3760
vn 0.5265 -0.7329 -0.4309
vn 0.5077 -0.7074 -0.4917
vn 0.4616 -0.7022 -0.5421
vn 0.4006 -0.7185 -0.5686
vn 0.3409 -0.7520 -0.5642
vn 0.8498 -0.5240 0.0580
vn 0.9189 -0.3255 -0.2230
vn 0.8225 -0.1954 -0.5342
vn 0.5863 -0.1684 -0.7924
vn 0.2737 -0.2518 -0.9283
vn -0.0315 -0.4234 -0.9054
vn -0.2477 -0.6370 -0.7300
vn -0.3168 -0.8355 -0.4490
vn -0.2204 -0.9656 -0.1377
vn 0.0157 -0.9926 0.1205
vn 0.3283 -0.9091 0.2563
vn 0.6336 -0.7376 0.2335
vn 0.8936 -0.1499 0.4232
vn 0.9911 0.1303 0.0266
vn 0.8550 0.3139 -0.4128
vn 0.5217 0.3520 -0.7771
vn 0.0806 0.2342 -0.9688
vn -0.3503 -0.0079 -0.9366
vn -0.6553 -0.3094 -0.6890
vn -0.7529 -0.5896 -0.2924
vn -0.6169 -0.7732 0.1469
vn -0.2836 -0.8113 0.5113
vn 0.1576 -0.6934 0.7031
vn 0.5885 -0.4514 0.6708
vn -0.8037 -0.4928 0.3334
vn -0.4568 -0.5324 0.7126
vn 0.0023 -0.4097 0.9122
vn 0.4507 -0.1579 0.8786
vn 0.7682 0.1559 0.6209
vn 0.8697 0.4474 0.2082
vn 0.7281 0.6386 -0.2490
vn 0.3813 0.6782 -0.6282
vn -0.0779 0.5556 -0.8278
vn -0.5263 0.3037 -0.7942
vn -0.8438 -0.0101 -0.5366
vn -0.9453 -0.3016 -0.1238
vn 0.3959 0.5447 0.7393
vn 0.4770 0.7777 0.4095
vn 0.1422 0.2940 0.9452
vn -0.2161 0.0928 0.9720
vn -0.5829 -0.0052 0.8125
vn -0.8600 0.0264 0.5096
vn -0.9732 0.1791 0.1442
vn -0.8921 0.4121 -0.1856
vn -0.6384 0.6628 -0.3914
vn -0.2801 0.8641 -0.4182
vn 0.0868 0.9620 -0.2588
vn 0.3639 0.9304 0.0442
vn -0.5829 -0.0053 0.8125
vn -0.4602 0.7497 0.4756
vn -0.4368 0.7471 0.5011
vn -0.2161 0.0927 0.9720
vn -0.4058 0.7553 0.5146
vn -0.3756 0.7723 0.5123
vn -0.3542 0.7934 0.4950
vn -0.3474 0.8131 0.4671
vn -0.3569 0.8260 0.4363
vn 0.3639 0.9304 0.0441
vn -0.3803 0.8286 0.4107
vn -0.4113 0.8204 0.3973
vn -0.6383 0.6628 -0.3914
vn -0.4414 0.8034 0.3995
vn -0.8921 0.4121 -0.1855
vn -0.4629 0.7823 0.4169
vn -0.4697 0.7626 0.4448
vn 0.3940 0.9188 0.0235
vn 0.1089 0.9514 -0.2881
vn -0.8977 0.3858 -0.2128
vn 0.5103 0.7617 0.3991
vn 0.3939 0.9188 0.0234
vt 0.654053 0.573883
vt 0.645782 0.256683
vt 0.636841 0.573944
vt 0.622986 0.256836
vt 0.630066 0.574036
vt 0.567108 0.257172
vt 0.571350 0.574402
vt 0.493134 0.257599
vt 0.493561 0.574860
vt 0.420868 0.258026
vt 0.417603 0.575287
vt 0.369720 0.258301
vt 0.363831 0.575592
vt 0.353333 0.258362
vt 0.346619 0.575653
vt 0.376129 0.258209
vt 0.370575 0.575470
vt 0.432007 0.257843
vt 0.429321 0.575104
vt 0.505981 0.257416
vt 0.507080 0.574646
vt 0.578247 0.257019
vt 0.583038 0.574219
vt 0.629425 0.256744
vt 0.708588 0.081604
vt 0.735016 0.081512
vt 0.698212 0.081787
vt 0.608093 0.082336
vt 0.488770 0.083038
vt 0.372223 0.083679
vt 0.289673 0.084137
vt 0.263245 0.084229
vt 0.300049 0.083984
vt 0.390167 0.083435
vt 0.509491 0.082733
vt 0.626038 0.082062
vt 0.787079 0.200592
vt 0.823364 0.200439
vt 0.772827 0.200806
vt 0.649017 0.201569
vt 0.485107 0.202545
vt 0.325012 0.203430
vt 0.211639 0.204041
vt 0.175354 0.204193
vt 0.225891 0.203827
vt 0.349701 0.203064
vt 0.513611 0.202118
vt 0.673706 0.201202
vt 0.691833 0.259766
vt 0.716064 0.259583
vt 0.682312 0.259979
vt 0.599670 0.260803
vt 0.490295 0.261871
vt 0.383423 0.262848
vt 0.307739 0.263519
vt 0.283539 0.263672
vt 0.317261 0.263275
vt 0.399902 0.262451
vt 0.509308 0.261383
vt 0.616150 0.260406
vt 0.314636 0.372498
vt 0.398560 0.371674
vt 0.509674 0.370605
vt 0.618195 0.369598
vt 0.695038 0.368927
vt 0.719635 0.368774
vt 0.685364 0.369171
vt 0.601440 0.370026
vt 0.490326 0.371063
vt 0.381805 0.372070
vt 0.304962 0.372742
vt 0.280365 0.372894
vt 0.802948 0.574554
vt 0.841125 0.574402
vt 0.683716 0.575165
vt 0.515320 0.576141
vt 0.342926 0.577148
vt 0.212708 0.577942
vt 0.159576 0.578339
vt 0.197723 0.578186
vt 0.316986 0.577545
vt 0.485352 0.576569
vt 0.657745 0.575562
vt 0.787964 0.574768
vt 0.274445 0.976532
vt 0.353912 0.899597
vt 0.385040 0.941101
vt 0.268158 0.933777
vt 0.156586 0.968140
vt 0.176819 0.920532
vt 0.063049 0.894409
vt 0.104340 0.863403
vt 0.018921 0.783813
vt 0.070160 0.777679
vt 0.036011 0.665955
vt 0.083405 0.686340
vt 0.109741 0.572418
vt 0.140533 0.613831
vt 0.262756 0.974365
vt 0.333832 0.906647
vt 0.361359 0.943573
vt 0.257416 0.937286
vt 0.157562 0.967987
vt 0.175903 0.925598
vt 0.074036 0.902344
vt 0.111176 0.874695
vt 0.034515 0.803711
vt 0.080536 0.798279
vt 0.049622 0.698547
vt 0.092224 0.716766
vt 0.115265 0.615021
vt 0.143127 0.652008
vt 0.309509 0.839935
vt 0.259613 0.859833
vt 0.206421 0.852112
vt 0.164246 0.818878
vt 0.144348 0.768982
vt 0.152039 0.715790
vt 0.185303 0.673615
vt 0.153198 0.742859
vt 0.182800 0.705170
vt 0.146393 0.790314
vt 0.164215 0.834808
vt 0.201904 0.864410
vt 0.249329 0.871216
vt 0.293823 0.853394
s 1
usemtl mat1.002
f 1/1/1 2/2/2 3/3/3
f 1/1/1 4/4/4 2/2/2
f 5/5/5 4/4/4 1/1/1
f 5/5/5 6/6/6 4/4/4
f 7/7/7 6/6/6 5/5/5
f 7/7/7 8/8/8 6/6/6
f 9/9/9 8/8/8 7/7/7
f 9/9/9 10/10/10 8/8/8
f 11/11/11 10/10/10 9/9/9
f 11/11/11 12/12/12 10/10/10
f 13/13/13 12/12/12 11/11/11
f 13/13/13 14/14/14 12/12/12
f 15/15/15 14/14/14 13/13/13
f 15/15/15 16/16/16 14/14/14
f 17/17/17 16/16/16 15/15/15
f 17/17/17 18/18/18 16/16/16
f 19/19/19 18/18/18 17/17/17
f 19/19/19 20/20/20 18/18/18
f 21/21/21 20/20/20 19/19/19
f 21/21/21 22/22/22 20/20/20
f 23/23/23 22/22/22 21/21/21
f 23/23/23 24/24/24 22/22/22
f 3/3/3 24/24/24 23/23/23
f 3/3/3 2/2/2 24/24/24
f 2/2/2 25/25/25 24/24/24
f 2/2/2 26/26/26 25/25/25
f 4/4/4 26/26/26 2/2/2
f 4/4/4 27/27/27 26/26/26
f 6/6/6 27/27/27 4/4/4
f 6/6/6 28/28/28 27/27/27
f 8/8/8 28/28/28 6/6/6
f 8/8/8 29/29/29 28/28/28
f 10/10/10 29/29/29 8/8/8
f 10/10/10 30/30/30 29/29/29
f 12/12/12 30/30/30 10/10/10
f 12/12/12 31/31/31 30/30/30
f 14/14/14 31/31/31 12/12/12
f 14/14/14 32/32/32 31/31/31
f 16/16/16 32/32/32 14/14/14
f 16/16/16 33/33/33 32/32/32
f 18/18/18 33/33/33 16/16/16
f 18/18/18 34/34/34 33/33/33
f 20/20/20 34/34/34 18/18/18
f 20/20/20 35/35/35 34/34/34
f 22/22/22 35/35/35 20/20/20
f 22/22/22 36/36/36 35/35/35
f 24/24/24 36/36/36 22/22/22
f 24/24/24 25/25/25 36/36/36
f 26/26/26 37/37/37 25/25/25
f 26/26/26 38/38/38 37/37/37
f 27/27/27 38/38/38 26/26/26
f 27/27/27 39/39/39 38/38/38
f 28/28/28 39/39/39 27/27/27
f 28/28/28 40/40/40 39/39/39
f 29/29/29 40/40/40 28/28/28
f 29/29/29 41/41/41 40/40/40
f 30/30/30 41/41/41 29/29/29
f 30/30/30 42/42/42 41/41/41
f 31/31/31 42/42/42 30/30/30
f 31/31/31 43/43/43 42/42/42
f 32/32/32 43/43/43 31/31/31
f 32/32/32 44/44/44 43/43/43
f 33/33/33 44/44/44 32/32/32
f 33/33/33 45/45/45 44/44/44
f 34/34/34 45/45/45 33/33/33
f 34/34/34 46/46/46 45/45/45
f 35/35/35 46/46/46 34/34/34
f 35/35/35 47/47/47 46/46/46
f 36/36/36 47/47/47 35/35/35
f 36/36/36 48/48/48 47/47/47
f 25/25/25 48/48/48 36/36/36
f 25/25/25 37/37/37 48/48/48
f 38/38/38 49/49/49 37/37/37
f 38/38/38 50/50/50 49/49/49
f 39/39/39 50/50/50 38/38/38
f 39/39/39 51/51/51 50/50/50
f 40/40/40 51/51/51 39/39/39
f 40/40/40 52/52/52 51/51/51
f 41/41/41 52/52/52 40/40/40
f 41/41/41 53/53/53 52/52/52
f 42/42/42 53/53/53 41/41/41
f 42/42/42 54/54/54 53/53/53
f 43/43/43 54/54/54 42/42/42
f 43/43/43 55/55/55 54/54/54
f 44/44/44 55/55/55 43/43/43
f 44/44/44 56/56/56 55/55/55
f 45/45/45 56/56/56 44/44/44
f 45/45/45 57/57/57 56/56/56
f 46/46/46 57/57/57 45/45/45
f 46/46/46 58/58/58 57/57/57
f 47/47/47 58/58/58 46/46/46
f 47/47/47 59/59/59 58/58/58
f 48/48/48 59/59/59 47/47/47
f 48/48/48 60/60/60 59/59/59
f 37/37/37 60/60/60 48/48/48
f 37/37/37 49/49/49 60/60/60
f 58/58/58 61/61/61 57/57/57
f 58/58/58 62/62/62 61/61/61
f 59/59/59 62/62/62 58/58/58
f 59/59/59 63/63/63 62/62/62
f 60/60/60 63/63/63 59/59/59
f 60/60/60 64/64/64 63/63/63
f 49/49/49 64/64/64 60/60/60
f 49/49/49 65/65/65 64/64/64
f 50/50/50 65/65/65 49/49/49
f 50/50/50 66/66/66 65/65/65
f 51/51/51 66/66/66 50/50/50
f 51/51/51 67/67/67 66/66/66
f 52/52/52 67/67/67 51/51/51
f 52/52/52 68/68/68 67/67/67
f 53/53/53 68/68/68 52/52/52
f 53/53/53 69/69/69 68/68/68
f 54/54/54 69/69/69 53/53/53
f 54/54/54 70/70/70 69/69/69
f 55/55/55 70/70/70 54/54/54
f 55/55/55 71/71/71 70/70/70
f 56/56/56 71/71/71 55/55/55
f 56/56/56 72/72/72 71/71/71
f 57/57/57 72/72/72 56/56/56
f 57/57/57 61/61/61 72/72/72
f 73/73/73 66/66/66 74/74/74
f 73/73/73 65/65/65 66/66/66
f 75/75/75 65/65/65 73/73/73
f 75/75/75 64/64/64 65/65/65
f 76/76/76 64/64/64 75/75/75
f 76/76/76 63/63/63 64/64/64
f 77/77/77 63/63/63 76/76/76
f 77/77/77 62/62/62 63/63/63
f 78/78/78 62/62/62 77/77/77
f 78/78/78 61/61/61 62/62/62
f 79/79/79 61/61/61 78/78/78
f 79/79/79 72/72/72 61/61/61
f 80/80/80 72/72/72 79/79/79
f 80/80/80 71/71/71 72/72/72
f 81/81/81 71/71/71 80/80/80
f 81/81/81 70/70/70 71/71/71
f 82/82/82 70/70/70 81/81/81
f 82/82/82 69/69/69 70/70/70
f 83/83/83 69/69/69 82/82/82
f 83/83/83 68/68/68 69/69/69
f 84/84/84 68/68/68 83/83/83
f 84/84/84 67/67/67 68/68/68
f 74/74/74 67/67/67 84/84/84
f 74/74/74 66/66/66 67/67/67
f 85/85/85 86/86/86 87/87/78
f 85/85/85 88/88/87 86/86/86
f 89/89/88 88/88/87 85/85/85
f 89/89/88 90/90/89 88/88/87
f 91/91/75 90/90/89 89/89/88
f 91/91/75 92/92/90 90/90/89
f 93/93/73 92/92/90 91/91/75
f 93/93/73 94/94/91 92/92/90
f 95/95/74 94/94/91 93/93/73
f 95/95/74 96/96/92 94/94/91
f 97/97/84 96/96/92 95/95/74
f 97/97/84 98/98/93 96/96/92
f 99/99/83 100/100/93 101/101/94
f 99/99/83 102/102/95 100/100/93
f 103/103/82 102/102/95 99/99/83
f 103/103/82 104/104/96 102/102/95
f 105/105/97 104/104/96 103/103/82
f 105/105/97 106/106/98 104/104/96
f 107/107/99 106/106/98 105/105/97
f 107/107/99 108/108/100 106/106/98
f 109/109/79 108/108/100 107/107/99
f 109/109/79 110/110/101 108/108/100
f 111/111/78 110/110/101 109/109/79
f 111/111/78 112/112/86 110/110/101
f 88/88/87 113/113/102 86/86/86
f 88/88/87 114/114/103 113/113/102
f 90/90/89 114/114/103 88/88/87
f 90/90/89 115/115/21 114/114/103
f 92/92/90 115/115/21 90/90/89
f 92/92/90 116/116/23 115/115/21
f 94/94/91 116/116/23 92/92/90
f 94/94/91 117/117/104 116/116/23
f 96/96/92 117/117/104 94/94/91
f 96/96/92 118/118/1 117/117/104
f 98/98/93 118/118/1 96/96/92
f 98/98/93 119/119/5 118/118/1
f 120/120/105 112/112/86 121/121/106
f 120/120/105 110/110/101 112/112/86
f 122/122/13 110/110/101 120/120/105
f 122/122/13 108/108/100 110/110/101
f 123/123/11 108/108/100 122/122/13
f 123/123/11 106/106/98 108/108/100
f 124/124/9 106/106/98 123/123/11
f 124/124/9 104/104/96 106/106/98
f 125/125/7 104/104/96 124/124/9
f 125/125/7 102/102/95 104/104/96
f 126/126/5 102/102/95 125/125/7
f 126/126/5 100/100/93 102/102/95
