# Blender 4.0.2
# www.blender.org
mtllib Donutstack.mtl
o TelamonsMysteryDonuts1
v -68.707710 5.002838 -22.815014
v -66.685493 -12.075773 -27.913916
v -81.192711 -12.445997 -38.457268
v -85.988914 4.560629 -35.371670
v -47.347797 5.393636 -22.815014
v -48.749870 -11.750094 -27.913916
v -30.063501 5.578757 -35.371670
v -34.238880 -11.592415 -38.457268
v -23.461056 5.493060 -55.689110
v -28.692278 -11.664400 -55.516678
v -30.056644 5.167379 -76.006554
v -34.232025 -11.938652 -72.576088
v -47.337162 4.725171 -88.563545
v -48.739594 -12.308876 -83.119095
v -68.697769 4.337784 -88.563545
v -66.675209 -12.634535 -83.119095
v -85.978294 4.149251 -76.006554
v -81.186203 -12.792234 -72.576088
v -92.584503 4.234948 -55.689110
v -86.732468 -12.720247 -55.516678
v -73.284172 17.275318 -9.550814
v -68.423523 6.374065 -23.779673
v -85.203896 5.945567 -35.973293
v -97.599419 16.654831 -27.221107
v -43.223488 17.823797 -9.550814
v -47.683746 6.751153 -23.779673
v -18.901388 18.087767 -27.221107
v -30.899950 6.932841 -35.973293
v -9.607907 17.967783 -55.812519
v -24.486044 6.850557 -55.702820
v -18.891443 17.508410 -84.404274
v -30.889668 6.535174 -75.432693
v -43.206696 16.887924 -102.074570
v -47.669685 6.106677 -87.626312
v -73.267372 16.342878 -102.074570
v -68.413239 5.729588 -87.626663
v -97.589478 16.075474 -84.404274
v -85.196693 5.547900 -75.432693
v -106.882965 16.198891 -55.812862
v -91.610596 5.630185 -55.703163
v -79.156784 17.289028 8.520220
v -112.967422 16.425146 -16.052477
v -37.354645 18.050049 8.520220
v -3.533723 18.416859 -16.052477
v 9.390073 18.248878 -55.812176
v -3.516585 17.614679 -95.571533
v -37.330994 16.750797 -120.144234
v -79.132797 15.986342 -120.144234
v -112.954063 15.622967 -95.571877
v -125.877510 15.787517 -55.812176
v -83.561852 6.569468 22.784391
v -124.815163 5.517052 -7.195392
v -32.562218 7.498468 22.784391
v 8.701032 7.947559 -7.195392
v 24.470121 7.741858 -55.702820
v 8.718514 6.963690 -104.210602
v -32.534790 5.911273 -134.190369
v -83.530998 4.982274 -134.190369
v -124.794243 4.536615 -104.210938
v -140.563324 4.738883 -55.703163
v -84.631409 -11.842651 27.291607
v -83.225891 5.187963 21.847157
v -123.978706 4.149257 -7.768906
v -128.154099 -12.956775 -4.338444
v -30.824190 -10.865654 27.291607
v -32.847088 6.106685 21.847500
v 12.711866 -10.392595 -4.338444
v 7.916007 6.548911 -7.768906
v 29.348253 -10.608554 -55.516678
v 23.493464 6.346642 -55.689110
v 12.729004 -11.427874 -106.694572
v 7.936917 5.578752 -103.609314
v -30.793337 -12.538566 -138.324615
v -32.816235 4.540046 -133.225708
v -84.600555 -13.518994 -138.324615
v -83.198471 3.621324 -133.225708
v -128.136612 -13.992053 -106.694908
v -123.961563 3.179098 -103.609314
v -144.773331 -13.776094 -55.516678
v -139.538345 3.381366 -55.689110
v -82.605072 -28.924694 22.192366
v -123.357895 -29.963400 -7.424042
v -32.226608 -28.005972 22.192366
v 8.536828 -27.563745 -7.423696
v 24.117029 -27.766014 -55.343899
v 8.557054 -28.533905 -103.264114
v -32.195755 -29.576044 -132.880508
v -82.577652 -30.491333 -132.880508
v -123.341095 -30.933538 -103.264114
v -138.918198 -30.731291 -55.344238
v -77.929535 -39.524254 8.497600
v -111.428574 -40.377857 -15.847133
v -36.515114 -38.770081 8.497600
v -3.005805 -38.406723 -15.846790
v 9.798354 -38.571270 -55.237286
v -2.992089 -39.202038 -94.627792
v -36.491116 -40.059052 -118.972519
v -77.905548 -40.809795 -118.972519
v -111.411087 -41.173172 -94.627792
v -124.218666 -41.008625 -55.237633
v -72.382942 -39.592827 -8.561814
v -96.914154 -40.220161 -26.390480
v -42.054863 -39.044331 -8.561814
v -17.516451 -38.776947 -26.390139
v -8.137610 -38.896931 -55.237286
v -17.503082 -39.359718 -84.084442
v -42.037720 -39.987068 -101.913109
v -72.365799 -40.538979 -101.913109
v -96.903526 -40.802929 -84.084778
v -106.283051 -40.682945 -55.237633
v -68.087578 -29.113232 -22.469807
v -85.368439 -29.552027 -35.026798
v -46.727314 -28.722433 -22.469807
v -29.443022 -28.533899 -35.026798
v -22.840576 -28.619596 -55.344238
v -29.435823 -28.945257 -75.661682
v -46.717026 -29.387486 -88.218346
v -68.076950 -29.774851 -88.218346
v -85.358154 -29.963406 -75.661682
v -91.963684 -29.877687 -55.344238
v -68.707710 5.002838 -22.815014
v -85.988914 4.560629 -35.371670
v -47.347797 5.393636 -22.815014
v -30.063501 5.578757 -35.371670
v -23.461056 5.493060 -55.689110
v -30.056644 5.167379 -76.006554
v -47.337162 4.725171 -88.563545
v -68.697769 4.337784 -88.563545
v -85.978294 4.149251 -76.006554
v -92.584503 4.234948 -55.689110
v -123.978706 4.149257 -7.768906
v -83.225891 5.187963 21.847157
v -32.847088 6.106685 21.847500
v 7.916007 6.548911 -7.768906
v 23.493464 6.346642 -55.689110
v 7.936917 5.578752 -103.609314
v -32.816235 4.540046 -133.225708
v -83.198471 3.621324 -133.225708
v -123.961563 3.179098 -103.609314
v -139.538345 3.381366 -55.689110
v 39.097664 -3.755872 -104.770401
v 42.957664 -20.848192 -100.929596
v 54.434818 -23.110703 -114.529411
v 52.768776 -6.450332 -120.967651
v 37.647594 -1.462487 -83.579483
v 41.737270 -18.925030 -83.136917
v 48.963627 -0.447770 -65.488571
v 51.243633 -18.071449 -67.946838
v 68.729836 -1.099108 -57.407600
v 67.838539 -18.616512 -61.162010
v 89.394539 -3.162805 -62.423542
v 85.188309 -20.351120 -65.373390
v 103.062233 -5.860698 -78.620110
v 96.665115 -22.613628 -78.972855
v 104.515388 -8.150650 -99.811371
v 97.885857 -24.540203 -96.765877
v 93.195930 -9.165345 -117.902618
v 88.382919 -25.390373 -111.955956
v 73.429710 -8.517442 -125.983246
v 71.784241 -24.845308 -118.740784
v 26.983234 8.794268 -111.344391
v 40.126083 -2.422342 -104.532829
v 53.399544 -5.037952 -120.261467
v 46.218090 5.002830 -134.137238
v 24.940107 12.020086 -81.523674
v 38.717491 -0.194098 -83.954857
v 40.866547 13.449591 -56.065514
v 49.707859 0.789745 -66.387062
v 68.681847 12.534301 -44.693596
v 68.901588 0.158984 -58.539886
v 97.762444 9.627299 -51.751980
v 88.965698 -1.846439 -63.410820
v 116.996964 5.835860 -74.544823
v 102.239159 -4.462049 -79.139114
v 119.040436 2.610043 -104.365891
v 103.651520 -6.690294 -99.717438
v 103.113640 1.180539 -129.824051
v 92.661140 -7.674137 -117.285233
v 75.298004 2.095827 -141.195633
v 73.463989 -7.046808 -125.132408
v 9.396928 9.308481 -118.525162
v 36.146103 4.036129 -150.220688
v 6.555406 13.795823 -77.056229
v 28.707205 15.784105 -41.653252
v 67.386032 14.512284 -25.840282
v 107.823463 10.467172 -35.655853
v 134.572632 5.194821 -67.351379
v 137.414505 0.707479 -108.820312
v 115.265793 -1.277370 -144.222946
v 76.583534 -0.009003 -160.036255
v -5.175767 -0.934567 -123.052948
v 27.459391 -7.365624 -161.722519
v -8.641193 4.540051 -72.459534
v 18.382223 6.967128 -29.266972
v 65.572586 5.414213 -9.974176
v 114.905846 0.481233 -21.949430
v 147.541000 -5.953258 -60.619350
v 151.010193 -11.424442 -111.212753
v 123.986778 -13.851520 -154.404968
v 76.792641 -12.298605 -173.698120
v -10.749454 -19.082735 -122.886681
v -4.353029 -2.329783 -122.533943
v 27.888241 -8.681990 -160.735245
v 23.681665 -25.870304 -163.685074
v -14.407537 -13.306447 -69.508316
v -7.777666 3.079695 -72.553459
v 14.104002 -10.749109 -23.938049
v 18.917002 5.472486 -29.884365
v 63.892841 -12.387719 -3.582899
v 65.538315 3.943579 -10.825365
v 115.941467 -17.594950 -16.217363
v 114.275085 -0.934559 -22.655611
v 150.372574 -24.379086 -57.016109
v 146.512924 -7.286767 -60.856571
v 154.030655 -30.155375 -110.394829
v 149.940979 -12.696243 -110.837379
v 125.522552 -32.712711 -155.964737
v 123.242897 -15.089035 -153.506134
v 75.730286 -31.074102 -176.319901
v 76.624664 -13.556696 -172.565475
v -6.889797 -36.175053 -119.045876
v 25.347704 -42.530693 -157.247177
v -10.314434 -30.765558 -69.065414
v 16.379892 -28.372766 -26.396311
v 62.998116 -29.905125 -7.337310
v 111.734886 -34.779831 -19.167555
v 143.975815 -41.135452 -57.368511
v 147.400452 -46.541515 -107.349335
v 120.706116 -48.937740 -150.018082
v 74.084473 -47.401966 -169.077774
v 5.752899 -47.076283 -112.479080
v 32.252163 -52.297226 -143.880478
v 2.935030 -42.630093 -71.394775
v 24.881830 -40.662388 -36.320892
v 63.200371 -41.920475 -20.654305
v 103.264481 -45.927895 -30.378689
v 129.763062 -51.152245 -61.780087
v 132.581284 -55.595024 -102.864388
v 110.634483 -57.566162 -137.938278
v 72.315590 -56.304642 -153.605209
v 22.348492 -47.621349 -105.693924
v 41.754414 -51.447079 -128.690399
v 20.287884 -44.364700 -75.606155
v 36.355213 -42.924896 -49.920361
v 64.421104 -43.847054 -38.446980
v 93.761894 -46.781475 -45.568779
v 113.168159 -50.607197 -68.565247
v 115.228081 -53.860416 -98.652672
v 99.160744 -55.303650 -124.338806
v 71.095551 -54.381500 -135.812180
v 36.560898 -37.604557 -101.282349
v 50.228584 -40.299015 -117.479599
v 35.107742 -35.311172 -80.091431
v 46.427208 -34.293041 -62.000511
v 66.193413 -34.944382 -53.919540
v 86.857437 -37.011490 -58.935482
v 100.525459 -39.705948 -75.132057
v 101.978966 -41.999336 -96.323311
v 90.659500 -43.014030 -114.414558
v 70.893295 -42.362713 -122.495201
v 39.097664 -3.755872 -104.770401
v 52.768776 -6.450332 -120.967651
v 37.647594 -1.462487 -83.579483
v 48.963627 -0.447770 -65.488571
v 68.729836 -1.099108 -57.407600
v 89.394539 -3.162805 -62.423542
v 103.062233 -5.860698 -78.620110
v 104.515388 -8.150650 -99.811371
v 93.195930 -9.165345 -117.902618
v 73.429710 -8.517442 -125.983246
v 27.888241 -8.681990 -160.735245
v -4.353029 -2.329783 -122.533943
v -7.777666 3.079695 -72.553459
v 18.917002 5.472486 -29.884365
v 65.538315 3.943579 -10.825365
v 114.275085 -0.934559 -22.655611
v 146.512924 -7.286767 -60.856571
v 149.940979 -12.696243 -110.837379
v 123.242897 -15.089035 -153.506134
v 76.624664 -13.556696 -172.565475
v -22.449772 58.682869 21.003164
v -20.423790 41.604279 15.904265
v -34.931351 41.234035 5.360917
v -39.726868 58.240662 8.446168
v -1.085745 59.073666 21.003164
v -2.488164 41.929935 15.904265
v 16.194778 59.258789 8.446510
v 12.022824 42.087639 5.360917
v 22.800995 59.173092 -11.870932
v 17.569773 42.015633 -11.698497
v 16.201633 58.847431 -32.188374
v 12.030022 41.741379 -28.757910
v -1.075805 58.405182 -44.745369
v -2.477539 41.371178 -39.301262
v -22.436062 58.017818 -44.745369
v -20.413164 41.045479 -39.301262
v -39.720348 57.829304 -32.188713
v -34.924496 40.887817 -28.757910
v -46.322456 57.915001 -11.871274
v -40.471104 40.959785 -11.698497
v -27.022812 70.958755 34.267372
v -22.165245 60.054115 20.038509
v -38.941837 59.625599 7.844886
v -51.338058 70.334862 16.596731
v 3.037874 71.503822 34.267372
v -1.421697 60.431183 20.038509
v 27.359978 71.767776 16.596731
v 15.361758 60.612873 7.844885
v 36.653458 71.647797 -11.994684
v 21.776005 60.530609 -11.884984
v 27.370262 71.188469 -40.586098
v 15.368956 60.215206 -31.614859
v 3.055012 70.567955 -58.256729
v -1.408324 59.786728 -43.808475
v -27.005669 70.022888 -58.256729
v -22.151192 59.409622 -43.808475
v -51.327778 69.755508 -40.586098
v -38.935329 59.227932 -31.614859
v -60.621250 69.878922 -11.994684
v -45.349232 59.310200 -11.884984
v -32.894737 70.969063 52.338406
v -66.709496 70.105194 27.765356
v 8.906716 71.730110 52.338406
v 42.728325 72.096870 27.765703
v 55.651779 71.932343 -11.993999
v 42.741692 71.294708 -51.753696
v 8.931054 70.430847 -76.326393
v -32.870743 69.669807 -76.326393
v -66.692017 69.302994 -51.753696
v -79.619576 69.467567 -11.994341
v -37.300140 60.249500 66.602226
v -78.553452 59.197086 36.622787
v 13.699148 61.178501 66.602226
v 54.962738 61.627571 36.622787
v 70.731827 61.421890 -11.884984
v 54.979881 60.647156 -60.392761
v 13.726571 59.591305 -90.372200
v -37.272720 58.662304 -90.372200
v -78.536308 58.216667 -60.392761
v -94.305397 58.418919 -11.884984
v -38.369350 41.837379 71.109451
v -36.967617 58.871426 65.665337
v -77.720428 57.829311 36.048931
v -81.892387 40.723259 39.479740
v 15.437174 42.814396 71.109451
v 13.414961 59.786736 65.665337
v 58.970486 43.287460 39.479740
v 54.177711 60.228943 36.049278
v 75.606529 43.071480 -11.698497
v 69.754829 60.026695 -11.870932
v 58.990711 42.252159 -62.876736
v 54.194851 59.258785 -59.791134
v 15.468027 41.141468 -94.506432
v 13.442387 58.220097 -89.407539
v -38.338844 40.161057 -94.506432
v -36.936771 57.301357 -89.407539
v -81.875244 39.687962 -62.876736
v -77.702950 56.859150 -59.791134
v -98.511635 39.903938 -11.698839
v -93.280411 57.061401 -11.871274
v -36.347141 24.755339 66.010201
v -77.099609 23.716631 36.394138
v 14.035097 25.674061 66.010544
v 54.798191 26.116285 36.394135
v 70.375648 25.914019 -11.526063
v 54.815331 25.146128 -59.445923
v 14.062521 24.104008 -89.062325
v -36.316288 23.188719 -89.062325
v -77.082809 22.746494 -59.446266
v -92.659584 22.948763 -11.526063
v -31.667494 14.155778 52.315781
v -65.166862 13.302194 27.971048
v 9.746932 14.913386 52.315781
v 43.252472 15.273330 27.971048
v 56.056637 15.108781 -11.419452
v 43.269958 14.478016 -50.809952
v 9.767159 13.620979 -75.154335
v -31.643839 12.870235 -75.154335
v -65.152809 12.506880 -50.809952
v -77.956970 12.671429 -11.419452
v -26.121227 14.087204 35.256367
v -50.655529 13.459873 17.427698
v 4.207184 14.635703 35.256367
v 28.744913 14.903086 17.427698
v 38.124435 14.783102 -11.419452
v 28.755198 14.320316 -40.266598
v 4.223980 13.692986 -58.094925
v -26.104090 13.141053 -58.094925
v -50.645588 12.877104 -40.266598
v -60.021343 12.997087 -11.419452
v -21.825523 24.570234 21.348373
v -39.106731 24.128004 8.791378
v -0.465608 24.957600 21.348373
v 16.815599 25.146132 8.791378
v 23.421133 25.060436 -11.526063
v 16.825541 24.734776 -31.843508
v -0.454983 24.292545 -44.400497
v -21.815582 23.905180 -44.400497
v -39.099529 23.716627 -31.843508
v -45.702320 23.802345 -11.526063
v -22.449772 58.682869 21.003164
v -39.726868 58.240662 8.446168
v -1.085745 59.073666 21.003164
v 16.194778 59.258789 8.446510
v 22.800995 59.173092 -11.870932
v 16.201633 58.847431 -32.188374
v -1.075805 58.405182 -44.745369
v -22.436062 58.017818 -44.745369
v -39.720348 57.829304 -32.188713
v -46.322456 57.915001 -11.871274
v -77.720428 57.829311 36.048931
v -36.967617 58.871426 65.665337
v 13.414961 59.786736 65.665337
v 54.177711 60.228943 36.049278
v 69.754829 60.026695 -11.870932
v 54.194851 59.258785 -59.791134
v 13.442387 58.220097 -89.407539
v -36.936771 57.301357 -89.407539
v -77.702950 56.859150 -59.791134
v -93.280411 57.061401 -11.871274
v 39.245071 -1.469343 47.683437
v 43.077644 -18.969585 48.587757
v 54.702549 -18.883892 34.926590
v 53.091019 -1.366485 31.413509
v 37.558464 -2.830271 68.937431
v 41.661858 -20.111145 66.433571
v 48.682869 -4.931665 87.057480
v 51.000240 -21.876585 81.647652
v 68.359955 -6.971374 95.122002
v 67.523499 -23.590614 88.419106
v 89.078819 -8.167758 90.050865
v 84.920578 -24.595053 84.161102
v 102.924759 -8.068353 73.780937
v 96.545135 -24.512770 70.500275
v 104.607941 -6.707405 52.526943
v 97.960930 -23.367796 52.654472
v 93.487648 -4.606010 34.406891
v 88.622887 -21.602339 37.440044
v 73.810570 -2.562890 26.342379
v 72.099625 -19.888309 30.668938
v 27.188574 12.033805 43.220444
v 40.266632 -0.194088 48.156857
v 53.711838 -0.098116 32.357258
v 46.673683 12.174361 20.325098
v 24.820126 10.117514 73.129944
v 38.631790 -1.517318 68.795853
v 40.469231 7.159105 98.628906
v 49.430187 -3.557025 86.391747
v 68.160774 4.289823 109.977852
v 68.541634 -5.538438 94.223160
v 97.316460 2.603214 102.841652
v 88.660591 -6.700557 89.298752
v 116.801567 2.743749 79.945961
v 102.105453 -6.604565 73.499489
v 119.170349 4.660041 50.036453
v 103.740646 -5.281335 52.860149
v 103.521248 7.618450 24.537157
v 92.942581 -3.238215 35.264252
v 75.829697 10.487752 13.188553
v 73.830795 -1.260214 27.432842
v 9.681800 13.785554 36.043449
v 36.776867 13.980950 4.204629
v 6.387088 11.121951 77.635796
v 28.148432 7.004838 113.094986
v 66.659286 3.014570 128.876755
v 107.202988 0.669777 118.952866
v 134.298401 0.868607 87.114037
v 137.592758 3.532209 45.521706
v 115.831413 7.645890 10.062849
v 77.323990 11.636138 -5.719267
v -4.829533 4.481784 29.674112
v 28.227278 4.721744 -9.170297
v -8.850308 1.228551 80.418015
v 17.699696 -3.790120 123.679474
v 64.681297 -8.661411 142.933533
v 114.148239 -11.520417 130.825974
v 147.205399 -11.280437 91.981888
v 151.226166 -8.027225 41.237988
v 124.672401 -3.008533 -2.023475
v 77.691139 1.862738 -21.277187
v -10.389504 -13.426421 26.675241
v -4.013312 3.014562 29.955553
v 28.642416 3.254523 -8.418180
v 24.487604 -13.169317 -14.307591
v -14.633448 -16.854477 80.212662
v -7.983006 -0.197518 80.084801
v 13.380679 -22.150831 125.855270
v 18.244759 -5.154503 122.821770
v 62.947041 -27.289484 146.169281
v 64.657646 -9.964067 141.842728
v 115.135521 -30.309626 133.395294
v 113.524330 -12.792219 129.881866
v 150.012634 -30.052521 92.413147
v 146.180405 -12.552258 91.508484
v 154.256577 -26.621033 38.875374
v 150.153534 -9.340158 41.379230
v 126.242439 -21.328112 -6.767224
v 123.921646 -4.383193 -1.357742
v 76.676086 -16.189436 -27.081579
v 77.509445 0.429803 -20.378349
v -6.557273 -30.926683 27.579563
v 26.098450 -30.686722 -10.794170
v -10.530399 -34.135330 77.708809
v 15.701478 -39.095749 120.445778
v 62.113678 -43.908745 139.466385
v 110.980721 -46.733463 127.505875
v 143.636444 -46.496937 89.132141
v 147.606140 -43.284836 39.002907
v 121.378036 -38.324440 -3.734074
v 74.965485 -33.511440 -22.754681
v 6.023715 -42.801495 32.323322
v 32.865448 -42.602669 0.780002
v 2.760544 -45.441093 73.529663
v 24.319286 -49.517056 108.659760
v 62.470200 -53.469604 124.294472
v 102.640579 -55.793842 114.463135
v 129.482315 -55.598442 82.919815
v 132.748917 -52.958828 41.713467
v 111.186745 -48.882866 6.583712
v 73.035484 -44.926884 -9.051681
v 22.546976 -44.512093 39.094772
v 42.203491 -44.368107 15.994427
v 20.154533 -46.445511 69.271660
v 35.943848 -49.431358 94.998589
v 63.882900 -52.328060 106.449005
v 93.302200 -54.028381 99.248703
v 112.959045 -53.884411 76.148361
v 115.351486 -51.950977 45.971466
v 99.561829 -48.965149 20.244541
v 71.623123 -46.071857 8.794127
v 36.698021 -35.410587 45.307114
v 50.544308 -35.307751 29.037176
v 35.014843 -36.771519 66.561089
v 46.135475 -38.872932 84.681152
v 65.815987 -40.912621 92.745667
v 86.531769 -42.112434 87.674530
v 100.378052 -42.009602 71.404602
v 102.064659 -40.648670 50.150280
v 90.943687 -38.547256 32.030563
v 71.263176 -36.507572 23.966045
v 39.245071 -1.469343 47.683437
v 53.091019 -1.366485 31.413509
v 37.558464 -2.830271 68.937431
v 48.682869 -4.931665 87.057480
v 68.359955 -6.971374 95.122002
v 89.078819 -8.167758 90.050865
v 102.924759 -8.068353 73.780937
v 104.607941 -6.707405 52.526943
v 93.487648 -4.606010 34.406891
v 73.810570 -2.562890 26.342379
v 28.642416 3.254523 -8.418180
v -4.013312 3.014562 29.955553
v -7.983006 -0.197518 80.084801
v 18.244759 -5.154503 122.821770
v 64.657646 -9.964067 141.842728
v 113.524330 -12.792219 129.881866
v 146.180405 -12.552258 91.508484
v 150.153534 -9.340158 41.379230
v 123.921646 -4.383193 -1.357742
v 77.509445 0.429803 -20.378349
v -82.331169 -1.908111 132.258209
v -79.221924 -17.622360 124.181694
v -93.801132 -17.094437 113.742546
v -99.694305 -1.280783 119.825638
v -61.046337 -0.063822 132.328125
v -61.351429 -16.072876 124.240295
v -43.970810 3.549358 120.008698
v -47.014927 -13.039049 113.895782
v -37.625462 7.549903 100.004593
v -41.687717 -9.679543 97.099640
v -44.433941 10.412339 79.957619
v -47.402302 -7.276478 80.267174
v -61.797081 11.039667 67.524727
v -61.982189 -6.751967 69.828384
v -83.081924 9.195378 67.455132
v -79.852684 -8.301451 69.769760
v -100.156754 5.582199 79.774902
v -94.191925 -11.331867 80.113937
v -106.502106 1.581653 99.779022
v -99.519135 -14.691372 96.910416
v -87.558968 7.453913 147.507263
v -82.152580 -0.368926 131.555115
v -99.011780 0.237847 119.481812
v -111.994194 8.338368 130.011459
v -57.607990 10.048967 147.605301
v -61.484783 1.420522 131.622986
v -33.577267 15.132780 130.268219
v -44.899811 4.930863 119.659378
v -24.647161 20.765093 102.118332
v -38.739582 8.814860 100.234268
v -34.228600 24.789625 73.907433
v -45.352318 11.595013 80.766983
v -58.663826 25.674059 56.411621
v -62.211876 12.201785 68.693687
v -88.614815 23.079025 56.313240
v -82.879326 10.412338 68.626152
v -112.645187 17.991781 73.649979
v -99.464287 6.901997 80.589752
v -121.575294 12.362902 101.800545
v -105.624512 3.018000 100.014870
v -93.197784 3.833889 165.287918
v -127.173317 5.061124 140.957947
v -51.547169 7.443637 165.424698
v -18.130417 14.512297 141.315155
v -5.713974 22.345430 102.169746
v -19.038851 27.943453 62.939342
v -53.014378 29.170691 38.609352
v -94.665344 25.557510 38.472912
v -128.081757 18.488848 62.582142
v -140.498535 10.659149 101.727875
v -96.694420 -9.538980 177.400299
v -138.146896 -8.040927 147.717041
v -45.880589 -5.133923 177.566910
v -5.110633 3.491086 148.152756
v 10.041748 13.045093 100.393677
v -6.217899 19.873787 52.532093
v -47.669685 21.371840 22.848835
v -98.484207 16.966784 22.682230
v -139.254166 8.341775 52.096043
v -154.402771 -1.212232 99.855125
v -96.465080 -28.492752 178.534317
v -96.279961 -10.704530 176.231339
v -137.231598 -9.223600 146.907684
v -140.199951 -26.912416 147.217590
v -42.850170 -23.844280 178.711517
v -46.079071 -6.350883 176.395538
v 0.161726 -14.742778 147.677277
v -5.803102 2.171267 147.338242
v 16.146784 -4.664280 97.289223
v 9.160393 11.605292 100.157814
v -1.007242 2.538069 46.792484
v -6.896310 18.351725 52.875580
v -44.742466 4.121837 15.475072
v -47.847954 19.832653 23.551928
v -98.353943 -0.526615 15.299559
v -98.048508 15.482439 23.387383
v -141.365845 -9.628117 46.332439
v -138.325165 6.960269 52.445019
v -157.350891 -19.706614 96.720848
v -153.288635 -2.477189 99.625443
v -93.355476 -44.203548 170.458130
v -134.307114 -42.726070 141.134140
v -43.154926 -39.853336 170.622681
v -2.882390 -31.331184 141.565048
v 12.084529 -21.893726 94.384621
v -3.975604 -15.147294 47.102379
v -44.924156 -13.669818 17.778734
v -95.124359 -18.020031 17.614187
v -135.401016 -26.542181 46.671474
v -150.367935 -35.976208 93.852242
v -88.141396 -51.841286 155.085678
v -121.805313 -50.620895 130.981934
v -46.878151 -48.262390 155.221085
v -13.773348 -41.255417 131.335709
v -1.470031 -33.501156 92.553345
v -14.671498 -27.954540 53.687012
v -48.331303 -26.737583 29.582928
v -89.598663 -30.313065 29.447861
v -122.703468 -37.320019 53.333225
v -135.006775 -45.077713 92.115585
v -82.814529 -48.478348 138.289886
v -107.465393 -47.587048 120.637413
v -52.596157 -45.859306 138.388611
v -28.349129 -40.730930 120.896561
v -19.340521 -35.050640 92.494736
v -29.007658 -30.988388 64.031525
v -53.661945 -30.097088 46.379059
v -83.880653 -32.716129 46.279991
v -108.123573 -37.844509 63.772369
v -117.132866 -43.528229 92.174202
v -79.407036 -35.410580 126.485336
v -96.770172 -34.783234 114.052452
v -58.125626 -33.562859 126.555275
v -41.047012 -29.949680 114.235161
v -34.701328 -25.949135 94.231384
v -41.513229 -23.090132 74.184074
v -58.872944 -22.462784 61.751526
v -80.157784 -24.307095 61.681931
v -97.232620 -27.920273 74.001701
v -103.577972 -31.920818 94.005821
v -82.331169 -1.908111 132.258209
v -99.694305 -1.280783 119.825638
v -61.046337 -0.063822 132.328125
v -43.970810 3.549358 120.008698
v -37.625462 7.549903 100.004593
v -44.433941 10.412339 79.957619
v -61.797081 11.039667 67.524727
v -83.081924 9.195378 67.455132
v -100.156754 5.582199 79.774902
v -106.502106 1.581653 99.779022
v -137.231598 -9.223600 146.907684
v -96.279961 -10.704530 176.231339
v -46.079071 -6.350883 176.395538
v -5.803102 2.171267 147.338242
v 9.160393 11.605292 100.157814
v -6.896310 18.351725 52.875580
v -47.847954 19.832653 23.551928
v -98.048508 15.482439 23.387383
v -138.325165 6.960269 52.445019
v -153.288635 -2.477189 99.625443
vn 0.5563 0.2975 -0.7759
vn 0.5562 0.2976 -0.7759
vn -0.0052 0.2855 -0.9584
vn -0.5667 0.2772 -0.7759
vn -0.5667 0.2771 -0.7759
vn -0.9138 0.2756 -0.2983
vn -0.9138 0.2758 -0.2981
vn -0.9139 0.2817 0.2923
vn -0.9140 0.2816 0.2922
vn -0.5670 0.2928 0.7699
vn -0.0055 0.3048 0.9524
vn -0.0055 0.3049 0.9524
vn 0.5560 0.3132 0.7699
vn 0.9031 0.3147 0.2923
vn 0.9031 0.3146 0.2923
vn 0.9031 0.3088 -0.2982
vn 0.9032 0.3087 -0.2982
vn 0.3400 0.7990 -0.4960
vn 0.3401 0.7990 -0.4960
vn -0.0144 0.7913 -0.6113
vn -0.0144 0.7913 -0.6112
vn -0.3689 0.7860 -0.4961
vn -0.3689 0.7860 -0.4960
vn -0.5881 0.7851 -0.1945
vn -0.5881 0.7851 -0.1944
vn -0.5882 0.7889 0.1783
vn -0.5881 0.7889 0.1783
vn -0.3691 0.7959 0.4799
vn -0.0146 0.8035 0.5951
vn 0.3398 0.8089 0.4798
vn 0.3398 0.8088 0.4800
vn 0.5591 0.8097 0.1784
vn 0.5589 0.8098 0.1782
vn 0.5591 0.8060 -0.1944
vn -0.0202 0.9998 -0.0073
vn -0.0182 0.9998 -0.0066
vn -0.0182 0.9998 -0.0067
vn -0.0161 0.9998 -0.0073
vn -0.0148 0.9998 -0.0090
vn -0.0150 0.9998 -0.0112
vn -0.0148 0.9998 -0.0111
vn -0.0162 0.9998 -0.0129
vn -0.0162 0.9998 -0.0128
vn -0.0181 0.9997 -0.0138
vn -0.0183 0.9997 -0.0135
vn -0.0202 0.9997 -0.0127
vn -0.0203 0.9997 -0.0131
vn -0.0217 0.9997 -0.0114
vn -0.0214 0.9997 -0.0111
vn -0.0215 0.9997 -0.0090
vn -0.0217 0.9997 -0.0090
vn -0.3707 0.7938 0.4821
vn -0.3706 0.7939 0.4821
vn -0.0146 0.8015 0.5978
vn 0.3415 0.8069 0.4820
vn 0.3415 0.8068 0.4821
vn 0.5616 0.8078 0.1791
vn 0.5619 0.8038 -0.1952
vn 0.5616 0.8040 -0.1953
vn 0.3417 0.7969 -0.4983
vn 0.3418 0.7968 -0.4983
vn -0.0144 0.7893 -0.6138
vn -0.0144 0.7892 -0.6140
vn -0.3704 0.7839 -0.4983
vn -0.3704 0.7840 -0.4982
vn -0.5906 0.7830 -0.1952
vn -0.5906 0.7830 -0.1953
vn -0.5905 0.7869 0.1791
vn -0.5906 0.7868 0.1791
vn -0.5670 0.2929 0.7699
vn -0.0056 0.3048 0.9524
vn 0.5560 0.3133 0.7699
vn 0.9031 0.3148 0.2922
vn 0.9032 0.3086 -0.2982
vn 0.9032 0.3088 -0.2982
vn -0.9138 0.2758 -0.2982
vn -0.9139 0.2817 0.2922
vn -0.9139 0.2818 0.2923
vn -0.5563 -0.2976 0.7759
vn 0.0052 -0.2855 0.9584
vn 0.5667 -0.2772 0.7759
vn 0.9138 -0.2756 0.2982
vn 0.9138 -0.2758 0.2983
vn 0.9140 -0.2815 -0.2923
vn 0.9139 -0.2816 -0.2923
vn 0.5670 -0.2927 -0.7699
vn 0.0056 -0.3048 -0.9524
vn 0.0055 -0.3048 -0.9524
vn -0.5560 -0.3133 -0.7699
vn -0.5560 -0.3132 -0.7699
vn -0.9030 -0.3148 -0.2922
vn -0.9031 -0.3148 -0.2922
vn -0.9032 -0.3088 0.2982
vn -0.9031 -0.3089 0.2982
vn -0.3425 -0.7960 0.4992
vn -0.3425 -0.7960 0.4991
vn 0.0144 -0.7883 0.6151
vn 0.3712 -0.7829 0.4992
vn 0.3712 -0.7830 0.4992
vn 0.5916 -0.7821 0.1957
vn 0.5918 -0.7820 0.1956
vn 0.5917 -0.7859 -0.1795
vn 0.5917 -0.7859 -0.1796
vn 0.3713 -0.7930 -0.4830
vn 0.0145 -0.8007 -0.5989
vn 0.0145 -0.8006 -0.5990
vn -0.3422 -0.8060 -0.4830
vn -0.5628 -0.8068 -0.1795
vn -0.5626 -0.8070 -0.1796
vn -0.5629 -0.8030 0.1957
vn -0.5629 -0.8031 0.1956
vn 0.0182 -0.9998 0.0100
vn 0.0182 -0.9998 0.0101
vn 0.0182 -0.9998 0.0102
vn 0.0181 -0.9998 0.0099
vn 0.0183 -0.9998 0.0101
vn 0.0181 -0.9998 0.0100
vn 0.0180 -0.9998 0.0100
vn 0.3713 -0.7931 -0.4829
vn 0.3712 -0.7929 -0.4832
vn 0.0147 -0.8007 -0.5988
vn -0.3422 -0.8059 -0.4831
vn -0.5627 -0.8069 -0.1796
vn -0.5629 -0.8068 -0.1795
vn -0.5628 -0.8031 0.1956
vn -0.3424 -0.7960 0.4991
vn -0.3424 -0.7960 0.4992
vn 0.0143 -0.7883 0.6151
vn 0.0143 -0.7884 0.6151
vn 0.3711 -0.7831 0.4991
vn 0.5916 -0.7821 0.1956
vn 0.5918 -0.7858 -0.1796
vn 0.5669 -0.2927 -0.7700
vn 0.5670 -0.2928 -0.7699
vn -0.5559 -0.3133 -0.7699
vn -0.9031 -0.3147 -0.2922
vn -0.9030 -0.3148 -0.2923
vn -0.9032 -0.3088 0.2981
vn -0.9032 -0.3087 0.2983
vn -0.5562 -0.2976 0.7760
vn 0.5668 -0.2771 0.7759
vn 0.9138 -0.2756 0.2983
vn 0.9139 -0.2817 -0.2922
vn 0.4938 -0.5665 -0.6597
vn 0.0106 -0.5775 -0.8163
vn 0.0105 -0.5768 -0.8168
vn -0.4726 -0.5848 -0.6592
vn -0.4724 -0.5852 -0.6590
vn -0.7718 -0.5853 -0.2484
vn -0.7710 -0.5865 -0.2482
vn -0.7724 -0.5795 0.2600
vn -0.7719 -0.5802 0.2598
vn -0.4735 -0.5697 0.6717
vn -0.4734 -0.5701 0.6715
vn 0.0102 -0.5598 0.8286
vn 0.0102 -0.5597 0.8286
vn 0.4942 -0.5518 0.6718
vn 0.4937 -0.5528 0.6713
vn 0.7930 -0.5509 0.2602
vn 0.7935 -0.5502 0.2603
vn 0.7925 -0.5571 -0.2483
vn 0.7931 -0.5561 -0.2486
vn -0.4731 -0.5707 0.6711
vn -0.4733 -0.5705 0.6713
vn 0.0102 -0.5598 0.8285
vn 0.4937 -0.5529 0.6713
vn 0.4939 -0.5525 0.6714
vn 0.7926 -0.5515 0.2600
vn 0.7923 -0.5520 0.2599
vn 0.7924 -0.5571 -0.2483
vn 0.7933 -0.5557 -0.2487
vn 0.4942 -0.5656 -0.6602
vn 0.4941 -0.5658 -0.6601
vn 0.0105 -0.5765 -0.8170
vn -0.4732 -0.5835 -0.6600
vn -0.4734 -0.5830 -0.6603
vn -0.7726 -0.5841 -0.2487
vn -0.7719 -0.5801 0.2599
vn -0.7715 -0.5807 0.2598
vn 0.7528 0.3015 0.5851
vn 0.7528 0.3014 0.5852
vn 0.9726 0.2288 0.0420
vn 0.9725 0.2290 0.0418
vn 0.8291 0.1810 -0.5290
vn 0.8292 0.1808 -0.5288
vn 0.3775 0.1757 -0.9092
vn -0.2100 0.2151 -0.9538
vn -0.2100 0.2151 -0.9537
vn -0.7089 0.2843 -0.6455
vn -0.9286 0.3566 -0.1023
vn -0.9286 0.3567 -0.1022
vn -0.7853 0.4047 0.4686
vn -0.7852 0.4047 0.4686
vn -0.3335 0.4101 0.8489
vn -0.3336 0.4101 0.8489
vn 0.2539 0.3706 0.8934
vn 0.2540 0.3707 0.8934
vn 0.5207 0.7966 0.3070
vn 0.5207 0.7966 0.3069
vn 0.6594 0.7510 -0.0362
vn 0.6595 0.7509 -0.0360
vn 0.5690 0.7205 -0.3963
vn 0.5689 0.7206 -0.3964
vn 0.2838 0.7172 -0.6365
vn -0.0872 0.7421 -0.6646
vn -0.0871 0.7421 -0.6646
vn -0.4020 0.7858 -0.4700
vn -0.5409 0.8314 -0.1271
vn -0.5407 0.8316 -0.1270
vn -0.4502 0.8619 0.2334
vn -0.4504 0.8618 0.2334
vn -0.1653 0.8651 0.4735
vn -0.1651 0.8652 0.4734
vn 0.2059 0.8403 0.5015
vn 0.2058 0.8402 0.5017
vn 0.0717 0.9919 -0.1045
vn 0.0709 0.9922 -0.1025
vn 0.0715 0.9924 -0.1004
vn 0.0714 0.9924 -0.1004
vn 0.0732 0.9924 -0.0991
vn 0.0731 0.9924 -0.0990
vn 0.0752 0.9923 -0.0988
vn 0.0752 0.9922 -0.0989
vn 0.0771 0.9920 -0.1000
vn 0.0771 0.9920 -0.0999
vn 0.0780 0.9917 -0.1019
vn 0.0779 0.9917 -0.1020
vn 0.0773 0.9916 -0.1040
vn 0.0774 0.9916 -0.1040
vn 0.0758 0.9915 -0.1056
vn 0.0756 0.9915 -0.1054
vn 0.0735 0.9917 -0.1056
vn 0.0735 0.9917 -0.1058
vn -0.4043 0.7837 -0.4716
vn -0.4043 0.7837 -0.4715
vn -0.5437 0.8296 -0.1270
vn -0.4527 0.8602 0.2349
vn -0.4528 0.8601 0.2350
vn -0.1663 0.8635 0.4762
vn -0.1662 0.8635 0.4761
vn 0.2063 0.8385 0.5043
vn 0.2063 0.8385 0.5044
vn 0.5227 0.7946 0.3089
vn 0.6619 0.7488 -0.0357
vn 0.6620 0.7486 -0.0356
vn 0.5712 0.7181 -0.3976
vn 0.5710 0.7183 -0.3976
vn 0.2846 0.7149 -0.6387
vn 0.2847 0.7147 -0.6388
vn -0.0879 0.7398 -0.6670
vn -0.0879 0.7399 -0.6669
vn -0.7089 0.2842 -0.6455
vn -0.7852 0.4048 0.4686
vn 0.2540 0.3706 0.8934
vn 0.7528 0.3015 0.5852
vn 0.9726 0.2289 0.0419
vn 0.9725 0.2290 0.0419
vn 0.8291 0.1810 -0.5289
vn 0.8292 0.1808 -0.5289
vn 0.3775 0.1756 -0.9092
vn -0.7528 -0.3015 -0.5852
vn -0.7528 -0.3014 -0.5852
vn -0.9725 -0.2291 -0.0419
vn -0.9725 -0.2290 -0.0419
vn -0.8292 -0.1809 0.5289
vn -0.8292 -0.1810 0.5289
vn -0.3775 -0.1756 0.9092
vn 0.2100 -0.2151 0.9537
vn 0.7089 -0.2842 0.6455
vn 0.7088 -0.2843 0.6455
vn 0.9286 -0.3567 0.1022
vn 0.7852 -0.4048 -0.4685
vn 0.3335 -0.4101 -0.8489
vn -0.2539 -0.3706 -0.8934
vn -0.2539 -0.3707 -0.8934
vn -0.5235 -0.7937 -0.3097
vn -0.5234 -0.7938 -0.3097
vn -0.6632 -0.7476 0.0355
vn -0.6631 -0.7477 0.0354
vn -0.5720 -0.7172 0.3981
vn -0.5721 -0.7170 0.3982
vn -0.2850 -0.7138 0.6397
vn 0.0883 -0.7389 0.6680
vn 0.0882 -0.7389 0.6680
vn 0.4052 -0.7829 0.4722
vn 0.4053 -0.7828 0.4722
vn 0.5448 -0.8289 0.1270
vn 0.4537 -0.8594 -0.2356
vn 0.1667 -0.8627 -0.4774
vn 0.1667 -0.8628 -0.4773
vn -0.2064 -0.8378 -0.5055
vn -0.2065 -0.8377 -0.5056
vn -0.0744 -0.9920 0.1022
vn -0.0745 -0.9920 0.1021
vn -0.0743 -0.9920 0.1023
vn -0.0744 -0.9920 0.1023
vn -0.0744 -0.9920 0.1021
vn -0.0743 -0.9920 0.1022
vn 0.5448 -0.8289 0.1271
vn 0.4538 -0.8594 -0.2357
vn 0.4537 -0.8594 -0.2355
vn 0.1668 -0.8628 -0.4773
vn 0.1668 -0.8627 -0.4774
vn -0.5720 -0.7171 0.3981
vn -0.2850 -0.7137 0.6398
vn 0.0884 -0.7388 0.6681
vn 0.7089 -0.2843 0.6455
vn 0.9286 -0.3567 0.1023
vn 0.7852 -0.4049 -0.4685
vn 0.7852 -0.4048 -0.4686
vn 0.3336 -0.4102 -0.8488
vn -0.7528 -0.3015 -0.5851
vn -0.3775 -0.1757 0.9092
vn -0.3774 -0.1756 0.9092
vn 0.5866 -0.5571 0.5878
vn 0.5872 -0.5563 0.5880
vn 0.7761 -0.6191 0.1201
vn 0.7757 -0.6196 0.1202
vn 0.6521 -0.6613 -0.3708
vn 0.6527 -0.6604 -0.3713
vn 0.2638 -0.6649 -0.6988
vn 0.2636 -0.6655 -0.6983
vn -0.2419 -0.6314 -0.7368
vn -0.2420 -0.6306 -0.7374
vn -0.6720 -0.5706 -0.4720
vn -0.6712 -0.5721 -0.4713
vn -0.8608 -0.5089 -0.0040
vn -0.8612 -0.5083 -0.0041
vn -0.7378 -0.4666 0.4878
vn -0.7374 -0.4676 0.4875
vn -0.3483 -0.4633 0.8149
vn -0.3484 -0.4625 0.8153
vn 0.1574 -0.4970 0.8534
vn 0.1573 -0.4973 0.8532
vn -0.6712 -0.5722 -0.4713
vn -0.6715 -0.5715 -0.4717
vn -0.8607 -0.5090 -0.0039
vn -0.8609 -0.5088 -0.0039
vn -0.7374 -0.4674 0.4876
vn -0.7382 -0.4657 0.4880
vn -0.3486 -0.4617 0.8157
vn -0.3483 -0.4634 0.8148
vn 0.1573 -0.4975 0.8531
vn 0.1577 -0.4961 0.8538
vn 0.5878 -0.5553 0.5884
vn 0.5867 -0.5569 0.5879
vn 0.7758 -0.6195 0.1203
vn 0.7771 -0.6178 0.1201
vn 0.6535 -0.6592 -0.3720
vn 0.2636 -0.6656 -0.6982
vn 0.2639 -0.6646 -0.6991
vn -0.2420 -0.6311 -0.7369
vn -0.2420 -0.6314 -0.7367
vn 0.5563 0.2976 -0.7759
vn -0.5668 0.2771 -0.7759
vn -0.9140 0.2815 0.2923
vn -0.9139 0.2816 0.2923
vn -0.5670 0.2927 0.7699
vn -0.5671 0.2927 0.7699
vn 0.5559 0.3132 0.7700
vn 0.9031 0.3148 0.2921
vn 0.9032 0.3088 -0.2983
vn 0.3402 0.7989 -0.4961
vn 0.3400 0.7990 -0.4961
vn -0.0143 0.7913 -0.6113
vn -0.5880 0.7889 0.1783
vn -0.3690 0.7959 0.4799
vn 0.5590 0.8098 0.1782
vn 0.5590 0.8060 -0.1944
vn -0.0204 0.9998 -0.0072
vn -0.0181 0.9998 -0.0066
vn -0.0182 0.9998 -0.0065
vn -0.0150 0.9998 -0.0091
vn -0.0149 0.9998 -0.0090
vn -0.0181 0.9997 -0.0137
vn -0.0182 0.9997 -0.0135
vn -0.0203 0.9997 -0.0130
vn -0.0216 0.9997 -0.0114
vn -0.0216 0.9997 -0.0090
vn -0.3706 0.7938 0.4821
vn 0.5617 0.8077 0.1792
vn 0.5617 0.8040 -0.1953
vn 0.5617 0.8039 -0.1953
vn 0.3417 0.7969 -0.4982
vn -0.3705 0.7839 -0.4982
vn -0.5905 0.7830 -0.1952
vn -0.5906 0.7868 0.1792
vn 0.9031 0.3147 0.2922
vn -0.9138 0.2756 -0.2982
vn -0.5563 -0.2975 0.7759
vn 0.5667 -0.2771 0.7759
vn -0.9031 -0.3146 -0.2922
vn -0.9032 -0.3087 0.2982
vn 0.0144 -0.7884 0.6150
vn 0.5917 -0.7820 0.1956
vn 0.3713 -0.7929 -0.4831
vn -0.3421 -0.8060 -0.4830
vn -0.5627 -0.8069 -0.1795
vn -0.5627 -0.8070 -0.1795
vn 0.0182 -0.9998 0.0099
vn 0.0183 -0.9998 0.0103
vn 0.0181 -0.9998 0.0102
vn 0.0184 -0.9998 0.0103
vn -0.3423 -0.8059 -0.4831
vn -0.5628 -0.8069 -0.1796
vn 0.3710 -0.7831 0.4991
vn 0.5916 -0.7821 0.1955
vn 0.5670 -0.2927 -0.7700
vn -0.9031 -0.3146 -0.2923
vn -0.9031 -0.3147 -0.2923
vn -0.5562 -0.2975 0.7759
vn 0.9139 -0.2756 0.2981
vn 0.4939 -0.5665 -0.6596
vn 0.4939 -0.5664 -0.6597
vn -0.4730 -0.5841 -0.6596
vn -0.4725 -0.5852 -0.6590
vn -0.7718 -0.5853 -0.2485
vn -0.7718 -0.5852 -0.2485
vn -0.7724 -0.5793 0.2602
vn -0.7719 -0.5801 0.2600
vn -0.4736 -0.5695 0.6718
vn -0.4735 -0.5699 0.6716
vn 0.0102 -0.5595 0.8287
vn 0.4938 -0.5526 0.6714
vn 0.7932 -0.5507 0.2600
vn 0.7925 -0.5570 -0.2483
vn 0.7932 -0.5558 -0.2487
vn -0.4732 -0.5705 0.6712
vn 0.0102 -0.5605 0.8281
vn 0.4937 -0.5527 0.6714
vn 0.4938 -0.5525 0.6714
vn 0.7922 -0.5521 0.2599
vn 0.7923 -0.5573 -0.2483
vn 0.7930 -0.5561 -0.2486
vn 0.4942 -0.5655 -0.6602
vn 0.4939 -0.5665 -0.6597
vn -0.4728 -0.5843 -0.6596
vn -0.4734 -0.5832 -0.6602
vn -0.7724 -0.5844 -0.2486
vn -0.7719 -0.5802 0.2599
vn -0.7723 -0.5795 0.2601
vn 0.7462 0.1963 0.6362
vn 0.7461 0.1962 0.6362
vn 0.9718 0.2176 0.0910
vn 0.9718 0.2175 0.0910
vn 0.8347 0.2678 -0.4813
vn 0.8346 0.2679 -0.4813
vn 0.3872 0.3280 -0.8617
vn -0.1999 0.3751 -0.9052
vn -0.7021 0.3911 -0.5951
vn -0.9278 0.3698 -0.0499
vn -0.9278 0.3699 -0.0498
vn -0.7906 0.3195 0.5223
vn -0.7907 0.3195 0.5223
vn -0.3431 0.2593 0.9028
vn 0.2438 0.2122 0.9463
vn 0.2439 0.2122 0.9463
vn 0.5167 0.7319 0.4442
vn 0.6592 0.7453 0.1000
vn 0.5725 0.7771 -0.2613
vn 0.5726 0.7771 -0.2613
vn 0.2900 0.8151 -0.5015
vn -0.0806 0.8449 -0.5289
vn -0.0806 0.8448 -0.5290
vn -0.3977 0.8549 -0.3332
vn -0.3976 0.8549 -0.3332
vn -0.5401 0.8415 0.0112
vn -0.5402 0.8415 0.0111
vn -0.4535 0.8098 0.3723
vn -0.4536 0.8097 0.3723
vn -0.1711 0.7717 0.6125
vn -0.1710 0.7718 0.6124
vn 0.1995 0.7420 0.6401
vn 0.1996 0.7420 0.6400
vn 0.0720 0.9951 0.0674
vn 0.0720 0.9951 0.0673
vn 0.0712 0.9950 0.0694
vn 0.0711 0.9951 0.0694
vn 0.0715 0.9949 0.0715
vn 0.0717 0.9949 0.0715
vn 0.0732 0.9946 0.0729
vn 0.0754 0.9945 0.0731
vn 0.0772 0.9944 0.0718
vn 0.0772 0.9944 0.0719
vn 0.0780 0.9945 0.0699
vn 0.0775 0.9947 0.0678
vn 0.0759 0.9949 0.0664
vn 0.0738 0.9951 0.0662
vn 0.0738 0.9951 0.0663
vn -0.3999 0.8531 -0.3351
vn -0.3999 0.8532 -0.3350
vn -0.5432 0.8396 0.0107
vn -0.5431 0.8396 0.0108
vn -0.4560 0.8077 0.3736
vn -0.4562 0.8076 0.3736
vn -0.1723 0.7695 0.6149
vn -0.1722 0.7696 0.6149
vn 0.2000 0.7397 0.6425
vn 0.5186 0.7296 0.4459
vn 0.5185 0.7296 0.4458
vn 0.6616 0.7432 0.1000
vn 0.6617 0.7431 0.1001
vn 0.5747 0.7750 -0.2628
vn 0.5746 0.7751 -0.2628
vn 0.2908 0.8133 -0.5040
vn 0.2909 0.8132 -0.5041
vn -0.0814 0.8431 -0.5316
vn -0.7021 0.3910 -0.5951
vn -0.9277 0.3700 -0.0498
vn -0.7906 0.3197 0.5223
vn 0.7461 0.1963 0.6362
vn 0.8346 0.2679 -0.4812
vn 0.8347 0.2679 -0.4812
vn 0.3871 0.3281 -0.8617
vn 0.3872 0.3281 -0.8617
vn -0.1998 0.3751 -0.9052
vn -0.7461 -0.1963 -0.6362
vn -0.7462 -0.1962 -0.6362
vn -0.9718 -0.2176 -0.0910
vn -0.9718 -0.2175 -0.0909
vn -0.8347 -0.2679 0.4812
vn -0.3872 -0.3281 0.8617
vn 0.1998 -0.3751 0.9052
vn 0.1999 -0.3751 0.9052
vn 0.7021 -0.3910 0.5951
vn 0.9277 -0.3699 0.0498
vn 0.9278 -0.3697 0.0498
vn 0.7906 -0.3195 -0.5223
vn 0.3431 -0.2594 -0.9028
vn 0.3431 -0.2593 -0.9028
vn -0.2439 -0.2122 -0.9463
vn -0.2439 -0.2123 -0.9463
vn -0.5194 -0.7286 -0.4465
vn -0.5193 -0.7286 -0.4465
vn -0.6627 -0.7421 -0.1000
vn -0.6628 -0.7421 -0.1000
vn -0.5757 -0.7741 0.2635
vn -0.5756 -0.7741 0.2634
vn -0.2913 -0.8124 0.5051
vn -0.2912 -0.8123 0.5053
vn 0.0817 -0.8423 0.5328
vn 0.0816 -0.8423 0.5327
vn 0.4008 -0.8524 0.3358
vn 0.5443 -0.8389 -0.0107
vn 0.5441 -0.8389 -0.0106
vn 0.4571 -0.8069 -0.3742
vn 0.1727 -0.7686 -0.6160
vn 0.1727 -0.7686 -0.6159
vn -0.2002 -0.7388 -0.6435
vn -0.2003 -0.7387 -0.6436
vn -0.0745 -0.9948 -0.0696
vn -0.0746 -0.9948 -0.0697
vn -0.0744 -0.9948 -0.0696
vn -0.0745 -0.9948 -0.0697
vn -0.0746 -0.9948 -0.0695
vn -0.0746 -0.9948 -0.0696
vn -0.0745 -0.9948 -0.0695
vn -0.0747 -0.9948 -0.0696
vn -0.0746 -0.9948 -0.0694
vn -0.0747 -0.9948 -0.0697
vn 0.4009 -0.8524 0.3358
vn 0.5442 -0.8389 -0.0106
vn 0.4571 -0.8069 -0.3741
vn -0.5192 -0.7287 -0.4465
vn -0.6628 -0.7421 -0.1001
vn -0.6627 -0.7421 -0.1001
vn -0.5756 -0.7742 0.2634
vn -0.5756 -0.7741 0.2635
vn -0.2912 -0.8124 0.5052
vn 0.0816 -0.8422 0.5329
vn 0.0817 -0.8422 0.5329
vn 0.7021 -0.3912 0.5950
vn 0.7021 -0.3911 0.5950
vn 0.9278 -0.3698 0.0498
vn 0.9277 -0.3699 0.0499
vn 0.7906 -0.3194 -0.5224
vn -0.7462 -0.1962 -0.6361
vn -0.9718 -0.2176 -0.0911
vn -0.3871 -0.3281 0.8617
vn 0.1998 -0.3752 0.9052
vn 0.5818 -0.6484 0.4910
vn 0.5811 -0.6494 0.4905
vn 0.7752 -0.6314 0.0211
vn 0.7764 -0.6298 0.0211
vn 0.6582 -0.5865 -0.4721
vn 0.6572 -0.5881 -0.4715
vn 0.2720 -0.5359 -0.7993
vn 0.2722 -0.5352 -0.7997
vn -0.2334 -0.4954 -0.8367
vn -0.2334 -0.4953 -0.8368
vn -0.6657 -0.4821 -0.5695
vn -0.6659 -0.4818 -0.5696
vn -0.8603 -0.4998 -0.1001
vn -0.8599 -0.5006 -0.1002
vn -0.7427 -0.5422 0.3929
vn -0.7423 -0.5431 0.3924
vn -0.3566 -0.5964 0.7191
vn -0.3569 -0.5941 0.7209
vn 0.1486 -0.6361 0.7572
vn -0.6663 -0.4807 -0.5700
vn -0.6666 -0.4802 -0.5702
vn -0.8612 -0.4983 -0.1001
vn -0.8603 -0.4998 -0.1002
vn -0.7422 -0.5431 0.3925
vn -0.7422 -0.5432 0.3925
vn -0.3568 -0.5952 0.7201
vn -0.3567 -0.5960 0.7194
vn 0.1484 -0.6365 0.7569
vn 0.1487 -0.6354 0.7577
vn 0.5812 -0.6493 0.4905
vn 0.5805 -0.6503 0.4900
vn 0.7746 -0.6321 0.0209
vn 0.7753 -0.6312 0.0210
vn 0.6573 -0.5878 -0.4716
vn 0.6575 -0.5875 -0.4717
vn 0.2721 -0.5357 -0.7994
vn -0.2335 -0.4951 -0.8369
vn 0.5254 0.4689 -0.7100
vn 0.5253 0.4689 -0.7100
vn -0.0362 0.4512 -0.8917
vn -0.5936 0.3719 -0.7136
vn -0.5936 0.3719 -0.7137
vn -0.9339 0.2613 -0.2439
vn -0.9339 0.2613 -0.2440
vn -0.9272 0.1615 0.3379
vn -0.9272 0.1616 0.3380
vn -0.5759 0.1109 0.8100
vn -0.5760 0.1108 0.8099
vn -0.0144 0.1285 0.9916
vn 0.5430 0.2078 0.8136
vn 0.8834 0.3185 0.3439
vn 0.8834 0.3184 0.3439
vn 0.8766 0.4182 -0.2381
vn 0.8767 0.4181 -0.2380
vn 0.2792 0.8962 -0.3448
vn 0.2794 0.8961 -0.3449
vn -0.0751 0.8850 -0.4595
vn -0.0752 0.8850 -0.4595
vn -0.4271 0.8349 -0.3471
vn -0.4271 0.8349 -0.3472
vn -0.6420 0.7650 -0.0506
vn -0.6420 0.7651 -0.0506
vn -0.6376 0.7022 0.3169
vn -0.6377 0.7021 0.3168
vn -0.4161 0.6700 0.6147
vn -0.4159 0.6702 0.6147
vn -0.0614 0.6813 0.7294
vn -0.0614 0.6812 0.7295
vn 0.2904 0.7313 0.6171
vn 0.5053 0.8012 0.3204
vn 0.5053 0.8012 0.3205
vn 0.5012 0.8641 -0.0468
vn 0.5010 0.8642 -0.0469
vn -0.0876 0.9812 0.1720
vn -0.0878 0.9812 0.1720
vn -0.0856 0.9813 0.1726
vn -0.0836 0.9815 0.1720
vn -0.0836 0.9816 0.1719
vn -0.0824 0.9819 0.1703
vn -0.0824 0.9819 0.1704
vn -0.0825 0.9823 0.1682
vn -0.0824 0.9823 0.1682
vn -0.0836 0.9825 0.1664
vn -0.0838 0.9825 0.1665
vn -0.0857 0.9825 0.1655
vn -0.0858 0.9824 0.1657
vn -0.0878 0.9821 0.1665
vn -0.0878 0.9822 0.1662
vn -0.0890 0.9817 0.1681
vn -0.0889 0.9817 0.1681
vn -0.0891 0.9814 0.1703
vn -0.0890 0.9814 0.1703
vn -0.4174 0.6676 0.6165
vn -0.0612 0.6788 0.7317
vn -0.0612 0.6788 0.7318
vn 0.2922 0.7291 0.6188
vn 0.2922 0.7291 0.6189
vn 0.5080 0.7993 0.3211
vn 0.5038 0.8625 -0.0481
vn 0.5037 0.8625 -0.0481
vn 0.2811 0.8946 -0.3474
vn -0.0751 0.8835 -0.4625
vn -0.0751 0.8834 -0.4626
vn -0.4285 0.8331 -0.3497
vn -0.4285 0.8332 -0.3496
vn -0.6444 0.7629 -0.0518
vn -0.6444 0.7630 -0.0518
vn -0.6401 0.6998 0.3173
vn -0.6401 0.6997 0.3172
vn -0.5759 0.1109 0.8099
vn -0.0144 0.1286 0.9916
vn 0.5430 0.2079 0.8136
vn 0.8833 0.3187 0.3439
vn 0.8767 0.4181 -0.2381
vn 0.8765 0.4184 -0.2381
vn 0.5254 0.4688 -0.7100
vn -0.5936 0.3718 -0.7137
vn -0.9339 0.2611 -0.2441
vn -0.5253 -0.4690 0.7100
vn -0.5253 -0.4689 0.7100
vn 0.0362 -0.4512 0.8917
vn 0.5936 -0.3719 0.7137
vn 0.9339 -0.2613 0.2440
vn 0.9272 -0.1615 -0.3380
vn 0.9272 -0.1616 -0.3380
vn 0.5760 -0.1108 -0.8099
vn 0.5760 -0.1109 -0.8099
vn 0.0144 -0.1285 -0.9916
vn -0.5430 -0.2078 -0.8136
vn -0.5430 -0.2079 -0.8136
vn -0.8833 -0.3185 -0.3439
vn -0.8834 -0.3184 -0.3439
vn -0.8766 -0.4182 0.2380
vn -0.8766 -0.4182 0.2381
vn -0.2818 -0.8939 0.3485
vn -0.2818 -0.8940 0.3483
vn 0.0750 -0.8827 0.4638
vn 0.0750 -0.8827 0.4640
vn 0.4291 -0.8324 0.3507
vn 0.4292 -0.8323 0.3507
vn 0.6455 -0.7620 0.0523
vn 0.6453 -0.7621 0.0523
vn 0.6412 -0.6987 -0.3175
vn 0.6412 -0.6986 -0.3175
vn 0.4180 -0.6666 -0.6173
vn 0.4180 -0.6665 -0.6173
vn 0.0611 -0.6778 -0.7327
vn -0.2930 -0.7282 -0.6196
vn -0.5093 -0.7984 -0.3212
vn -0.5092 -0.7984 -0.3213
vn -0.5049 -0.8618 0.0485
vn -0.5051 -0.8617 0.0487
vn 0.0857 -0.9818 -0.1694
vn 0.0857 -0.9819 -0.1692
vn 0.0857 -0.9818 -0.1693
vn 0.0856 -0.9818 -0.1694
vn 0.0858 -0.9819 -0.1691
vn 0.0856 -0.9819 -0.1692
vn 0.0857 -0.9819 -0.1691
vn 0.0858 -0.9818 -0.1691
vn 0.0857 -0.9818 -0.1692
vn 0.0856 -0.9818 -0.1693
vn 0.0859 -0.9818 -0.1692
vn 0.4179 -0.6666 -0.6173
vn 0.0611 -0.6777 -0.7328
vn 0.0613 -0.6778 -0.7327
vn -0.2931 -0.7281 -0.6197
vn -0.2930 -0.7281 -0.6197
vn -0.5094 -0.7984 -0.3212
vn -0.2818 -0.8940 0.3484
vn 0.0750 -0.8828 0.4638
vn 0.4292 -0.8324 0.3507
vn 0.6411 -0.6988 -0.3174
vn 0.5759 -0.1109 -0.8099
vn 0.0144 -0.1286 -0.9916
vn -0.5429 -0.2079 -0.8136
vn -0.8833 -0.3187 -0.3439
vn -0.8833 -0.3186 -0.3439
vn -0.8766 -0.4181 0.2382
vn -0.8766 -0.4184 0.2379
vn -0.5254 -0.4690 0.7100
vn -0.5253 -0.4688 0.7101
vn 0.0362 -0.4513 0.8917
vn 0.5936 -0.3718 0.7137
vn 0.5935 -0.3720 0.7137
vn 0.9339 -0.2612 0.2440
vn 0.9340 -0.2611 0.2440
vn 0.9272 -0.1616 -0.3379
vn 0.9272 -0.1614 -0.3380
vn 0.5230 -0.4036 -0.7507
vn 0.5227 -0.4048 -0.7503
vn 0.0393 -0.4193 -0.9070
vn 0.0392 -0.4189 -0.9072
vn -0.4409 -0.4871 -0.7539
vn -0.4403 -0.4881 -0.7536
vn -0.7337 -0.5828 -0.3493
vn -0.7343 -0.5821 -0.3492
vn -0.7277 -0.6689 0.1516
vn -0.7279 -0.6687 0.1518
vn -0.4252 -0.7128 0.5578
vn -0.4254 -0.7124 0.5582
vn 0.0581 -0.6972 0.7145
vn 0.0581 -0.6976 0.7141
vn 0.5381 -0.6289 0.5613
vn 0.5378 -0.6293 0.5610
vn 0.8311 -0.5335 0.1569
vn 0.8313 -0.5331 0.1570
vn 0.8248 -0.4486 -0.3442
vn 0.8253 -0.4477 -0.3443
vn -0.4258 -0.7118 0.5586
vn -0.4258 -0.7117 0.5587
vn 0.0581 -0.6966 0.7151
vn 0.5382 -0.6284 0.5617
vn 0.5380 -0.6288 0.5614
vn 0.8313 -0.5331 0.1571
vn 0.8307 -0.5342 0.1567
vn 0.8249 -0.4486 -0.3441
vn 0.8262 -0.4459 -0.3443
vn 0.5232 -0.4027 -0.7510
vn 0.5230 -0.4035 -0.7507
vn 0.0393 -0.4189 -0.9072
vn -0.4407 -0.4874 -0.7538
vn -0.4409 -0.4870 -0.7540
vn -0.7343 -0.5820 -0.3493
vn -0.7285 -0.6679 0.1521
vt 0.655112 0.355383
vt 0.648329 0.378695
vt 0.622290 0.355660
vt 0.642290 0.342138
vt 0.673002 0.356945
vt 0.680434 0.378663
vt 0.687787 0.346135
vt 0.708895 0.361530
vt 0.693027 0.328953
vt 0.722524 0.329123
vt 0.686231 0.313258
vt 0.705453 0.299941
vt 0.671822 0.301380
vt 0.679048 0.278749
vt 0.655232 0.298144
vt 0.648124 0.276341
vt 0.640712 0.308843
vt 0.619627 0.293809
vt 0.635687 0.326240
vt 0.607971 0.326236
vt 0.245315 0.797195
vt 0.214885 0.805962
vt 0.195544 0.776059
vt 0.215488 0.751919
vt 0.244992 0.850361
vt 0.215114 0.840706
vt 0.213598 0.894247
vt 0.195179 0.868638
vt 0.161706 0.911028
vt 0.161755 0.878763
vt 0.109775 0.892928
vt 0.128350 0.866950
vt 0.078622 0.847961
vt 0.108706 0.838051
vt 0.079061 0.793072
vt 0.108824 0.802455
vt 0.111807 0.748861
vt 0.129816 0.774315
vt 0.164055 0.732992
vt 0.162482 0.764522
vt 0.277560 0.787712
vt 0.236877 0.725904
vt 0.276580 0.861096
vt 0.233724 0.921163
vt 0.161567 0.945008
vt 0.089272 0.920048
vt 0.046513 0.858034
vt 0.047209 0.782718
vt 0.091880 0.721663
vt 0.165229 0.699370
vt 0.309361 0.778494
vt 0.258639 0.698800
vt 0.308881 0.872035
vt 0.254478 0.949455
vt 0.162085 0.981613
vt 0.068877 0.948751
vt 0.014240 0.868258
vt 0.014074 0.771650
vt 0.071566 0.692487
vt 0.166219 0.662884
vt 0.579551 0.583720
vt 0.563568 0.635135
vt 0.401376 0.514604
vt 0.446101 0.482576
vt 0.744181 0.586983
vt 0.761967 0.637352
vt 0.879604 0.492165
vt 0.922536 0.523763
vt 0.937281 0.337674
vt 0.986466 0.340455
vt 0.887315 0.178638
vt 0.938075 0.145989
vt 0.753737 0.077727
vt 0.771578 0.026892
vt 0.590969 0.074525
vt 0.576235 0.026892
vt 0.454188 0.168247
vt 0.406759 0.132248
vt 0.394587 0.324966
vt 0.341138 0.325811
vt 0.596288 0.542682
vt 0.482430 0.458843
vt 0.732919 0.541554
vt 0.843912 0.465443
vt 0.893070 0.334585
vt 0.848398 0.200344
vt 0.734770 0.117359
vt 0.600547 0.118787
vt 0.489515 0.194118
vt 0.436681 0.324615
vt 0.609366 0.505859
vt 0.512501 0.433324
vt 0.719053 0.504243
vt 0.812171 0.440090
vt 0.853946 0.332542
vt 0.816965 0.225161
vt 0.720385 0.153583
vt 0.612112 0.154312
vt 0.517687 0.219871
vt 0.474107 0.325663
vt 0.620666 0.467254
vt 0.551683 0.404969
vt 0.704568 0.469353
vt 0.779770 0.413188
vt 0.817374 0.330742
vt 0.779707 0.251136
vt 0.707722 0.190886
vt 0.624445 0.187890
vt 0.550711 0.243756
vt 0.512740 0.325792
vt 0.635585 0.418429
vt 0.591005 0.377300
vt 0.693878 0.422936
vt 0.744385 0.387885
vt 0.764358 0.329658
vt 0.739146 0.277050
vt 0.691575 0.238839
vt 0.635455 0.234671
vt 0.586586 0.269156
vt 0.565099 0.325880
vt 0.212096 0.806701
vt 0.193773 0.778332
vt 0.212649 0.839838
vt 0.193547 0.866241
vt 0.161833 0.875817
vt 0.130108 0.864667
vt 0.111484 0.837232
vt 0.111854 0.803540
vt 0.131329 0.776711
vt 0.162290 0.767337
vt 0.260825 0.696114
vt 0.312582 0.777653
vt 0.311908 0.873059
vt 0.256458 0.952160
vt 0.162084 0.985278
vt 0.066736 0.951537
vt 0.010928 0.869243
vt 0.010928 0.770593
vt 0.069596 0.689610
vt 0.166396 0.659216
vt 0.237909 0.469353
vt 0.210176 0.477343
vt 0.192549 0.450091
vt 0.210726 0.428090
vt 0.237614 0.517807
vt 0.210384 0.509008
vt 0.209003 0.557804
vt 0.192217 0.534464
vt 0.161710 0.573097
vt 0.161755 0.543692
vt 0.114382 0.556602
vt 0.131311 0.532926
vt 0.085990 0.515620
vt 0.113408 0.506588
vt 0.086390 0.465596
vt 0.113516 0.474147
vt 0.116234 0.425303
vt 0.132647 0.448501
vt 0.163851 0.410841
vt 0.162417 0.439577
vt 0.267296 0.460711
vt 0.230219 0.404381
vt 0.266403 0.527591
vt 0.227345 0.582334
vt 0.161583 0.604066
vt 0.095696 0.581318
vt 0.056727 0.524801
vt 0.057361 0.456160
vt 0.098073 0.400516
vt 0.164921 0.380199
vt 0.296279 0.452310
vt 0.250052 0.379679
vt 0.295841 0.537561
vt 0.246260 0.608119
vt 0.162056 0.637426
vt 0.077109 0.607477
vt 0.027314 0.534118
vt 0.027163 0.446073
vt 0.079560 0.373925
vt 0.165823 0.346946
vt 0.207635 0.478017
vt 0.190935 0.452163
vt 0.208139 0.508217
vt 0.190730 0.532280
vt 0.161826 0.541007
vt 0.132912 0.530846
vt 0.115940 0.505842
vt 0.116276 0.475136
vt 0.134026 0.450685
vt 0.162242 0.442142
vt 0.252045 0.377231
vt 0.299214 0.451543
vt 0.298600 0.538494
vt 0.248064 0.610584
vt 0.162055 0.640766
vt 0.075158 0.610016
vt 0.024296 0.535016
vt 0.024296 0.445110
vt 0.077764 0.371304
vt 0.165985 0.343604
vt 0.586687 0.794330
vt 0.555985 0.803176
vt 0.536470 0.773005
vt 0.556593 0.748649
vt 0.586361 0.847972
vt 0.556215 0.838231
vt 0.554686 0.892251
vt 0.536102 0.866412
vt 0.502329 0.909182
vt 0.502379 0.876628
vt 0.449934 0.890921
vt 0.468675 0.864710
vt 0.418502 0.845551
vt 0.448855 0.835552
vt 0.418945 0.790170
vt 0.448975 0.799637
vt 0.451984 0.745563
vt 0.470154 0.771245
vt 0.504699 0.729553
vt 0.503112 0.761365
vt 0.619221 0.784762
vt 0.578174 0.722401
vt 0.618232 0.858803
vt 0.574992 0.919408
vt 0.502189 0.943466
vt 0.429247 0.918283
vt 0.386105 0.855714
vt 0.386808 0.779724
vt 0.431878 0.718122
vt 0.505884 0.695629
vt 0.651306 0.775462
vt 0.600130 0.695055
vt 0.650822 0.869840
vt 0.595932 0.947954
vt 0.502712 0.980399
vt 0.408670 0.947243
vt 0.353544 0.866029
vt 0.353376 0.768557
vt 0.411383 0.688685
vt 0.506883 0.658817
vt 0.553171 0.803921
vt 0.534684 0.775299
vt 0.553729 0.837355
vt 0.534456 0.863994
vt 0.502458 0.873656
vt 0.470448 0.862407
vt 0.451658 0.834726
vt 0.452031 0.800732
vt 0.471681 0.773663
vt 0.502918 0.764205
vt 0.602336 0.692344
vt 0.654556 0.774613
vt 0.653876 0.870874
vt 0.597930 0.950683
vt 0.502711 0.984097
vt 0.406510 0.950054
vt 0.350202 0.867023
vt 0.350202 0.767491
vt 0.409395 0.685782
vt 0.507062 0.655116
vt 0.910585 0.802516
vt 0.880204 0.811269
vt 0.860894 0.781415
vt 0.880807 0.757314
vt 0.910262 0.855596
vt 0.880432 0.845957
vt 0.878919 0.899412
vt 0.860530 0.873843
vt 0.827111 0.916165
vt 0.827160 0.883952
vt 0.775264 0.898095
vt 0.793809 0.872159
vt 0.744162 0.853201
vt 0.774197 0.843306
vt 0.744600 0.798400
vt 0.774315 0.807768
vt 0.777292 0.754260
vt 0.795273 0.779673
vt 0.829456 0.738417
vt 0.827886 0.769897
vt 0.942778 0.793049
vt 0.902161 0.731341
vt 0.941799 0.866314
vt 0.899012 0.926284
vt 0.826972 0.950090
vt 0.754794 0.925171
vt 0.712104 0.863258
vt 0.712799 0.788063
vt 0.757398 0.727107
vt 0.830628 0.704850
vt 0.974527 0.783846
vt 0.923887 0.704281
vt 0.974048 0.877236
vt 0.919733 0.954531
vt 0.827490 0.986636
vt 0.734432 0.953828
vt 0.679884 0.873465
vt 0.679718 0.777013
vt 0.737117 0.697977
vt 0.831617 0.668422
vt 0.877420 0.812007
vt 0.859126 0.783684
vt 0.877972 0.845090
vt 0.858901 0.871451
vt 0.827238 0.881011
vt 0.795564 0.869880
vt 0.776971 0.842489
vt 0.777339 0.808851
vt 0.796783 0.782066
vt 0.827694 0.772707
vt 0.926070 0.701599
vt 0.977743 0.783006
vt 0.977070 0.878258
vt 0.921710 0.957231
vt 0.827488 0.990295
vt 0.732295 0.956609
vt 0.676577 0.874448
vt 0.676577 0.775958
vt 0.735150 0.695105
vt 0.831794 0.664761
vt 0.249516 0.151389
vt 0.220441 0.159766
vt 0.201961 0.131194
vt 0.221017 0.108129
vt 0.249207 0.202187
vt 0.220659 0.192963
vt 0.219211 0.244120
vt 0.201612 0.219650
vt 0.169630 0.260153
vt 0.169676 0.229325
vt 0.120011 0.242860
vt 0.137759 0.218038
vt 0.090245 0.199895
vt 0.118990 0.190426
vt 0.090665 0.147450
vt 0.119103 0.156414
vt 0.121952 0.105207
vt 0.139160 0.129527
vt 0.171874 0.090045
vt 0.170371 0.120171
vt 0.280325 0.142328
vt 0.241454 0.083272
vt 0.279389 0.212444
vt 0.238440 0.269837
vt 0.169497 0.292620
vt 0.100421 0.268772
vt 0.059566 0.209519
vt 0.060231 0.137557
vt 0.102913 0.079221
vt 0.172995 0.057920
vt 0.310710 0.133521
vt 0.262246 0.057375
vt 0.310251 0.222897
vt 0.258271 0.296870
vt 0.169992 0.327595
vt 0.080934 0.296197
vt 0.028730 0.219288
vt 0.028572 0.126982
vt 0.083504 0.051343
vt 0.173942 0.023058
vt 0.217776 0.160472
vt 0.200269 0.133366
vt 0.218305 0.192133
vt 0.200053 0.217361
vt 0.169751 0.226510
vt 0.139438 0.215857
vt 0.121644 0.189644
vt 0.121997 0.157451
vt 0.140605 0.131817
vt 0.170187 0.122860
vt 0.264335 0.054808
vt 0.313787 0.132717
vt 0.313144 0.223875
vt 0.260163 0.299454
vt 0.169991 0.331097
vt 0.078889 0.298859
vt 0.025565 0.220229
vt 0.025565 0.125972
vt 0.081621 0.048594
vt 0.174111 0.019554
s 0
usemtl TelamonsMysteryDonuts1Mtl
f 1/1/1 2/2/1 3/3/1
f 4/4/2 1/1/2 3/3/2
f 5/5/3 6/6/3 2/2/3
f 2/2/3 1/1/3 5/5/3
f 7/7/4 8/8/4 6/6/4
f 6/6/5 5/5/5 7/7/5
f 9/9/6 10/10/6 8/8/6
f 8/8/7 7/7/7 9/9/7
f 11/11/8 12/12/8 10/10/8
f 10/10/9 9/9/9 11/11/9
f 13/13/10 14/14/10 12/12/10
f 12/12/10 11/11/10 13/13/10
f 15/15/11 16/16/11 14/14/11
f 14/14/12 13/13/12 15/15/12
f 17/17/13 18/18/13 16/16/13
f 16/16/13 15/15/13 17/17/13
f 19/19/14 20/20/14 18/18/14
f 18/18/15 17/17/15 19/19/15
f 4/4/16 3/3/16 20/20/16
f 20/20/17 19/19/17 4/4/17
f 21/21/18 22/22/18 23/23/18
f 23/23/19 24/24/19 21/21/19
f 25/25/20 26/26/20 22/22/20
f 22/22/21 21/21/21 25/25/21
f 27/27/22 28/28/22 26/26/22
f 26/26/23 25/25/23 27/27/23
f 29/29/24 30/30/24 28/28/24
f 28/28/25 27/27/25 29/29/25
f 31/31/26 32/32/26 30/30/26
f 30/30/27 29/29/27 31/31/27
f 33/33/28 34/34/28 32/32/28
f 32/32/28 31/31/28 33/33/28
f 35/35/29 36/36/29 34/34/29
f 34/34/29 33/33/29 35/35/29
f 37/37/30 38/38/30 36/36/30
f 36/36/31 35/35/31 37/37/31
f 39/39/32 40/40/32 38/38/32
f 38/38/33 37/37/33 39/39/33
f 24/24/34 23/23/34 40/40/34
f 40/40/34 39/39/34 24/24/34
f 41/41/35 21/21/35 24/24/35
f 24/24/35 42/42/35 41/41/35
f 43/43/36 25/25/36 21/21/36
f 21/21/37 41/41/37 43/43/37
f 44/44/38 27/27/38 25/25/38
f 25/25/38 43/43/38 44/44/38
f 45/45/39 29/29/39 27/27/39
f 27/27/39 44/44/39 45/45/39
f 46/46/40 31/31/40 29/29/40
f 29/29/41 45/45/41 46/46/41
f 47/47/42 33/33/42 31/31/42
f 31/31/43 46/46/43 47/47/43
f 48/48/44 35/35/44 33/33/44
f 33/33/45 47/47/45 48/48/45
f 49/49/46 37/37/46 35/35/46
f 35/35/47 48/48/47 49/49/47
f 50/50/48 39/39/48 37/37/48
f 37/37/49 49/49/49 50/50/49
f 42/42/50 24/24/50 39/39/50
f 39/39/51 50/50/51 42/42/51
f 51/51/52 41/41/52 42/42/52
f 42/42/53 52/52/53 51/51/53
f 53/53/54 43/43/54 41/41/54
f 41/41/54 51/51/54 53/53/54
f 54/54/55 44/44/55 43/43/55
f 43/43/56 53/53/56 54/54/56
f 55/55/57 45/45/57 44/44/57
f 44/44/57 54/54/57 55/55/57
f 56/56/58 46/46/58 45/45/58
f 45/45/59 55/55/59 56/56/59
f 57/57/60 47/47/60 46/46/60
f 46/46/61 56/56/61 57/57/61
f 58/58/62 48/48/62 47/47/62
f 47/47/63 57/57/63 58/58/63
f 59/59/64 49/49/64 48/48/64
f 48/48/65 58/58/65 59/59/65
f 60/60/66 50/50/66 49/49/66
f 49/49/67 59/59/67 60/60/67
f 52/52/68 42/42/68 50/50/68
f 50/50/69 60/60/69 52/52/69
f 61/61/70 62/62/70 63/63/70
f 63/63/10 64/64/10 61/61/10
f 65/65/71 66/66/71 62/62/71
f 62/62/12 61/61/12 65/65/12
f 67/67/72 68/68/72 66/66/72
f 66/66/13 65/65/13 67/67/13
f 69/69/73 70/70/73 68/68/73
f 68/68/73 67/67/73 69/69/73
f 71/71/74 72/72/74 70/70/74
f 70/70/75 69/69/75 71/71/75
f 73/73/1 74/74/1 72/72/1
f 72/72/1 71/71/1 73/73/1
f 75/75/3 76/76/3 74/74/3
f 74/74/3 73/73/3 75/75/3
f 77/77/4 78/78/4 76/76/4
f 76/76/4 75/75/4 77/77/4
f 79/79/76 80/80/76 78/78/76
f 78/78/76 77/77/76 79/79/76
f 64/64/77 63/63/77 80/80/77
f 80/80/78 79/79/78 64/64/78
f 81/81/79 61/61/79 64/64/79
f 64/64/79 82/82/79 81/81/79
f 83/83/80 65/65/80 61/61/80
f 61/61/80 81/81/80 83/83/80
f 84/84/81 67/67/81 65/65/81
f 65/65/81 83/83/81 84/84/81
f 85/85/82 69/69/82 67/67/82
f 67/67/83 84/84/83 85/85/83
f 86/86/84 71/71/84 69/69/84
f 69/69/85 85/85/85 86/86/85
f 87/87/86 73/73/86 71/71/86
f 71/71/86 86/86/86 87/87/86
f 88/88/87 75/75/87 73/73/87
f 73/73/88 87/87/88 88/88/88
f 89/89/89 77/77/89 75/75/89
f 75/75/90 88/88/90 89/89/90
f 90/90/91 79/79/91 77/77/91
f 77/77/92 89/89/92 90/90/92
f 82/82/93 64/64/93 79/79/93
f 79/79/94 90/90/94 82/82/94
f 91/91/95 81/81/95 82/82/95
f 82/82/96 92/92/96 91/91/96
f 93/93/97 83/83/97 81/81/97
f 81/81/97 91/91/97 93/93/97
f 94/94/98 84/84/98 83/83/98
f 83/83/99 93/93/99 94/94/99
f 95/95/100 85/85/100 84/84/100
f 84/84/101 94/94/101 95/95/101
f 96/96/102 86/86/102 85/85/102
f 85/85/103 95/95/103 96/96/103
f 97/97/104 87/87/104 86/86/104
f 86/86/104 96/96/104 97/97/104
f 98/98/105 88/88/105 87/87/105
f 87/87/106 97/97/106 98/98/106
f 99/99/107 89/89/107 88/88/107
f 88/88/107 98/98/107 99/99/107
f 100/100/108 90/90/108 89/89/108
f 89/89/109 99/99/109 100/100/109
f 92/92/110 82/82/110 90/90/110
f 90/90/111 100/100/111 92/92/111
f 101/101/112 91/91/112 92/92/112
f 92/92/113 102/102/113 101/101/113
f 103/103/114 93/93/114 91/91/114
f 91/91/115 101/101/115 103/103/115
f 104/104/113 94/94/113 93/93/113
f 93/93/116 103/103/116 104/104/116
f 105/105/113 95/95/113 94/94/113
f 94/94/113 104/104/113 105/105/113
f 106/106/113 96/96/113 95/95/113
f 95/95/113 105/105/113 106/106/113
f 107/107/113 97/97/113 96/96/113
f 96/96/113 106/106/113 107/107/113
f 108/108/117 98/98/117 97/97/117
f 97/97/113 107/107/113 108/108/113
f 109/109/113 99/99/113 98/98/113
f 98/98/118 108/108/118 109/109/118
f 110/110/113 100/100/113 99/99/113
f 99/99/113 109/109/113 110/110/113
f 102/102/113 92/92/113 100/100/113
f 100/100/113 110/110/113 102/102/113
f 111/111/119 101/101/119 102/102/119
f 102/102/120 112/112/120 111/111/120
f 113/113/106 103/103/106 101/101/106
f 101/101/121 111/111/121 113/113/121
f 114/114/122 104/104/122 103/103/122
f 103/103/122 113/113/122 114/114/122
f 115/115/123 105/105/123 104/104/123
f 104/104/124 114/114/124 115/115/124
f 116/116/125 106/106/125 105/105/125
f 105/105/125 115/115/125 116/116/125
f 117/117/126 107/107/126 106/106/126
f 106/106/127 116/116/127 117/117/127
f 118/118/128 108/108/128 107/107/128
f 107/107/129 117/117/129 118/118/129
f 119/119/130 109/109/130 108/108/130
f 108/108/99 118/118/99 119/119/99
f 120/120/131 110/110/131 109/109/131
f 109/109/131 119/119/131 120/120/131
f 112/112/132 102/102/132 110/110/132
f 110/110/102 120/120/102 112/112/102
f 2/2/133 111/111/133 112/112/133
f 112/112/134 3/3/134 2/2/134
f 6/6/87 113/113/87 111/111/87
f 111/111/88 2/2/88 6/6/88
f 8/8/135 114/114/135 113/113/135
f 113/113/90 6/6/90 8/8/90
f 10/10/136 115/115/136 114/114/136
f 114/114/137 8/8/137 10/10/137
f 12/12/138 116/116/138 115/115/138
f 115/115/139 10/10/139 12/12/139
f 14/14/140 117/117/140 116/116/140
f 116/116/79 12/12/79 14/14/79
f 16/16/80 118/118/80 117/117/80
f 117/117/80 14/14/80 16/16/80
f 18/18/141 119/119/141 118/118/141
f 118/118/81 16/16/81 18/18/81
f 20/20/142 120/120/142 119/119/142
f 119/119/142 18/18/142 20/20/142
f 3/3/143 112/112/143 120/120/143
f 120/120/85 20/20/85 3/3/85
f 22/22/144 121/121/144 122/122/144
f 122/122/144 23/23/144 22/22/144
f 26/26/145 123/123/145 121/121/145
f 121/121/146 22/22/146 26/26/146
f 28/28/147 124/124/147 123/123/147
f 123/123/148 26/26/148 28/28/148
f 30/30/149 125/125/149 124/124/149
f 124/124/150 28/28/150 30/30/150
f 32/32/151 126/126/151 125/125/151
f 125/125/152 30/30/152 32/32/152
f 34/34/153 127/127/153 126/126/153
f 126/126/154 32/32/154 34/34/154
f 36/36/155 128/128/155 127/127/155
f 127/127/156 34/34/156 36/36/156
f 38/38/157 129/129/157 128/128/157
f 128/128/158 36/36/158 38/38/158
f 40/40/159 130/130/159 129/129/159
f 129/129/160 38/38/160 40/40/160
f 23/23/161 122/122/161 130/130/161
f 130/130/162 40/40/162 23/23/162
f 52/52/163 131/131/163 132/132/163
f 132/132/164 51/51/164 52/52/164
f 51/51/156 132/132/156 133/133/156
f 133/133/165 53/53/165 51/51/165
f 53/53/166 133/133/166 134/134/166
f 134/134/167 54/54/167 53/53/167
f 54/54/168 134/134/168 135/135/168
f 135/135/169 55/55/169 54/54/169
f 55/55/170 135/135/170 136/136/170
f 136/136/171 56/56/171 55/55/171
f 56/56/172 136/136/172 137/137/172
f 137/137/173 57/57/173 56/56/173
f 57/57/146 137/137/146 138/138/146
f 138/138/174 58/58/174 57/57/174
f 58/58/175 138/138/175 139/139/175
f 139/139/176 59/59/176 58/58/176
f 59/59/177 139/139/177 140/140/177
f 140/140/149 60/60/149 59/59/149
f 60/60/178 140/140/178 131/131/178
f 131/131/179 52/52/179 60/60/179
f 141/1/180 142/2/180 143/3/180
f 143/3/181 144/4/181 141/1/181
f 145/5/182 146/6/182 142/2/182
f 142/2/183 141/1/183 145/5/183
f 147/7/184 148/8/184 146/6/184
f 146/6/185 145/5/185 147/7/185
f 149/9/186 150/10/186 148/8/186
f 148/8/186 147/7/186 149/9/186
f 151/11/187 152/12/187 150/10/187
f 150/10/188 149/9/188 151/11/188
f 153/13/189 154/14/189 152/12/189
f 152/12/189 151/11/189 153/13/189
f 155/15/190 156/16/190 154/14/190
f 154/14/191 153/13/191 155/15/191
f 157/17/192 158/18/192 156/16/192
f 156/16/193 155/15/193 157/17/193
f 159/19/194 160/20/194 158/18/194
f 158/18/195 157/17/195 159/19/195
f 144/4/196 143/3/196 160/20/196
f 160/20/197 159/19/197 144/4/197
f 161/141/198 162/142/198 163/143/198
f 163/143/199 164/144/199 161/141/199
f 165/145/200 166/146/200 162/142/200
f 162/142/201 161/141/201 165/145/201
f 167/147/202 168/148/202 166/146/202
f 166/146/203 165/145/203 167/147/203
f 169/149/204 170/150/204 168/148/204
f 168/148/204 167/147/204 169/149/204
f 171/151/205 172/152/205 170/150/205
f 170/150/206 169/149/206 171/151/206
f 173/153/207 174/154/207 172/152/207
f 172/152/207 171/151/207 173/153/207
f 175/155/208 176/156/208 174/154/208
f 174/154/209 173/153/209 175/155/209
f 177/157/210 178/158/210 176/156/210
f 176/156/211 175/155/211 177/157/211
f 179/159/212 180/160/212 178/158/212
f 178/158/213 177/157/213 179/159/213
f 164/144/214 163/143/214 180/160/214
f 180/160/215 179/159/215 164/144/215
f 181/161/216 161/141/216 164/144/216
f 164/144/216 182/162/216 181/161/216
f 183/163/217 165/145/217 161/141/217
f 161/141/217 181/161/217 183/163/217
f 184/164/218 167/147/218 165/145/218
f 165/145/219 183/163/219 184/164/219
f 185/165/220 169/149/220 167/147/220
f 167/147/221 184/164/221 185/165/221
f 186/166/222 171/151/222 169/149/222
f 169/149/223 185/165/223 186/166/223
f 187/167/224 173/153/224 171/151/224
f 171/151/225 186/166/225 187/167/225
f 188/168/226 175/155/226 173/153/226
f 173/153/227 187/167/227 188/168/227
f 189/169/228 177/157/228 175/155/228
f 175/155/229 188/168/229 189/169/229
f 190/170/230 179/159/230 177/157/230
f 177/157/231 189/169/231 190/170/231
f 182/162/232 164/144/232 179/159/232
f 179/159/233 190/170/233 182/162/233
f 191/171/234 181/161/234 182/162/234
f 182/162/235 192/172/235 191/171/235
f 193/173/236 183/163/236 181/161/236
f 181/161/236 191/171/236 193/173/236
f 194/174/237 184/164/237 183/163/237
f 183/163/238 193/173/238 194/174/238
f 195/175/239 185/165/239 184/164/239
f 184/164/240 194/174/240 195/175/240
f 196/176/241 186/166/241 185/165/241
f 185/165/242 195/175/242 196/176/242
f 197/177/243 187/167/243 186/166/243
f 186/166/243 196/176/243 197/177/243
f 198/178/244 188/168/244 187/167/244
f 187/167/245 197/177/245 198/178/245
f 199/179/246 189/169/246 188/168/246
f 188/168/247 198/178/247 199/179/247
f 200/180/248 190/170/248 189/169/248
f 189/169/249 199/179/249 200/180/249
f 192/172/250 182/162/250 190/170/250
f 190/170/251 200/180/251 192/172/251
f 201/61/252 202/62/252 203/63/252
f 203/63/189 204/64/189 201/61/189
f 205/65/191 206/66/191 202/62/191
f 202/62/191 201/61/191 205/65/191
f 207/67/192 208/68/192 206/66/192
f 206/66/253 205/65/253 207/67/253
f 209/69/195 210/70/195 208/68/195
f 208/68/194 207/67/194 209/69/194
f 211/71/254 212/72/254 210/70/254
f 210/70/196 209/69/196 211/71/196
f 213/73/255 214/74/255 212/72/255
f 212/72/181 211/71/181 213/73/181
f 215/75/256 216/76/256 214/74/256
f 214/74/257 213/73/257 215/75/257
f 217/77/258 218/78/258 216/76/258
f 216/76/259 215/75/259 217/77/259
f 219/79/260 220/80/260 218/78/260
f 218/78/186 217/77/186 219/79/186
f 204/64/187 203/63/187 220/80/187
f 220/80/188 219/79/188 204/64/188
f 221/81/261 201/61/261 204/64/261
f 204/64/262 222/82/262 221/81/262
f 223/83/263 205/65/263 201/61/263
f 201/61/264 221/81/264 223/83/264
f 224/84/265 207/67/265 205/65/265
f 205/65/266 223/83/266 224/84/266
f 225/85/267 209/69/267 207/67/267
f 207/67/267 224/84/267 225/85/267
f 226/86/268 211/71/268 209/69/268
f 209/69/268 225/85/268 226/86/268
f 227/87/269 213/73/269 211/71/269
f 211/71/270 226/86/270 227/87/270
f 228/88/271 215/75/271 213/73/271
f 213/73/271 227/87/271 228/88/271
f 229/89/272 217/77/272 215/75/272
f 215/75/272 228/88/272 229/89/272
f 230/90/273 219/79/273 217/77/273
f 217/77/273 229/89/273 230/90/273
f 222/82/274 204/64/274 219/79/274
f 219/79/275 230/90/275 222/82/275
f 231/91/276 221/81/276 222/82/276
f 222/82/277 232/92/277 231/91/277
f 233/93/278 223/83/278 221/81/278
f 221/81/279 231/91/279 233/93/279
f 234/94/280 224/84/280 223/83/280
f 223/83/281 233/93/281 234/94/281
f 235/95/282 225/85/282 224/84/282
f 224/84/282 234/94/282 235/95/282
f 236/96/283 226/86/283 225/85/283
f 225/85/284 235/95/284 236/96/284
f 237/97/285 227/87/285 226/86/285
f 226/86/286 236/96/286 237/97/286
f 238/98/287 228/88/287 227/87/287
f 227/87/287 237/97/287 238/98/287
f 239/99/288 229/89/288 228/88/288
f 228/88/288 238/98/288 239/99/288
f 240/100/289 230/90/289 229/89/289
f 229/89/290 239/99/290 240/100/290
f 232/92/291 222/82/291 230/90/291
f 230/90/292 240/100/292 232/92/292
f 241/101/293 231/91/293 232/92/293
f 232/92/294 242/102/294 241/101/294
f 243/103/295 233/93/295 231/91/295
f 231/91/296 241/101/296 243/103/296
f 244/104/293 234/94/293 233/93/293
f 233/93/297 243/103/297 244/104/297
f 245/105/296 235/95/296 234/94/296
f 234/94/296 244/104/296 245/105/296
f 246/106/296 236/96/296 235/95/296
f 235/95/296 245/105/296 246/106/296
f 247/107/296 237/97/296 236/96/296
f 236/96/296 246/106/296 247/107/296
f 248/108/293 238/98/293 237/97/293
f 237/97/293 247/107/293 248/108/293
f 249/109/296 239/99/296 238/98/296
f 238/98/298 248/108/298 249/109/298
f 250/110/297 240/100/297 239/99/297
f 239/99/296 249/109/296 250/110/296
f 242/102/297 232/92/297 240/100/297
f 240/100/297 250/110/297 242/102/297
f 251/111/285 241/101/285 242/102/285
f 242/102/285 252/112/285 251/111/285
f 253/113/287 243/103/287 241/101/287
f 241/101/299 251/111/299 253/113/299
f 254/114/300 244/104/300 243/103/300
f 243/103/301 253/113/301 254/114/301
f 255/115/302 245/105/302 244/104/302
f 244/104/303 254/114/303 255/115/303
f 256/116/292 246/106/292 245/105/292
f 245/105/292 255/115/292 256/116/292
f 257/117/276 247/107/276 246/106/276
f 246/106/276 256/116/276 257/117/276
f 258/118/279 248/108/279 247/107/279
f 247/107/279 257/117/279 258/118/279
f 259/119/280 249/109/280 248/108/280
f 248/108/304 258/118/304 259/119/304
f 260/120/305 250/110/305 249/109/305
f 249/109/282 259/119/282 260/120/282
f 252/112/283 242/102/283 250/110/283
f 250/110/306 260/120/306 252/112/306
f 142/2/269 251/111/269 252/112/269
f 252/112/307 143/3/307 142/2/307
f 146/6/308 253/113/308 251/111/308
f 251/111/271 142/2/271 146/6/271
f 148/8/309 254/114/309 253/113/309
f 253/113/310 146/6/310 148/8/310
f 150/10/273 255/115/273 254/114/273
f 254/114/311 148/8/311 150/10/311
f 152/12/275 256/116/275 255/115/275
f 255/115/275 150/10/275 152/12/275
f 154/14/312 257/117/312 256/116/312
f 256/116/312 152/12/312 154/14/312
f 156/16/263 258/118/263 257/117/263
f 257/117/263 154/14/263 156/16/263
f 158/18/265 259/119/265 258/118/265
f 258/118/266 156/16/266 158/18/266
f 160/20/313 260/120/313 259/119/313
f 259/119/314 158/18/314 160/20/314
f 143/3/268 252/112/268 260/120/268
f 260/120/268 160/20/268 143/3/268
f 162/142/315 261/181/315 262/182/315
f 262/182/316 163/143/316 162/142/316
f 166/146/317 263/183/317 261/181/317
f 261/181/318 162/142/318 166/146/318
f 168/148/319 264/184/319 263/183/319
f 263/183/320 166/146/320 168/148/320
f 170/150/321 265/185/321 264/184/321
f 264/184/322 168/148/322 170/150/322
f 172/152/323 266/186/323 265/185/323
f 265/185/324 170/150/324 172/152/324
f 174/154/325 267/187/325 266/186/325
f 266/186/326 172/152/326 174/154/326
f 176/156/327 268/188/327 267/187/327
f 267/187/328 174/154/328 176/156/328
f 178/158/329 269/189/329 268/188/329
f 268/188/330 176/156/330 178/158/330
f 180/160/331 270/190/331 269/189/331
f 269/189/332 178/158/332 180/160/332
f 163/143/333 262/182/333 270/190/333
f 270/190/334 180/160/334 163/143/334
f 192/172/335 271/191/335 272/192/335
f 272/192/336 191/171/336 192/172/336
f 191/171/337 272/192/337 273/193/337
f 273/193/338 193/173/338 191/171/338
f 193/173/339 273/193/339 274/194/339
f 274/194/340 194/174/340 193/173/340
f 194/174/341 274/194/341 275/195/341
f 275/195/342 195/175/342 194/174/342
f 195/175/343 275/195/343 276/196/343
f 276/196/344 196/176/344 195/175/344
f 196/176/345 276/196/345 277/197/345
f 277/197/346 197/177/346 196/176/346
f 197/177/347 277/197/347 278/198/347
f 278/198/348 198/178/348 197/177/348
f 198/178/349 278/198/349 279/199/349
f 279/199/319 199/179/319 198/178/319
f 199/179/350 279/199/350 280/200/350
f 280/200/351 200/180/351 199/179/351
f 200/180/352 280/200/352 271/191/352
f 271/191/353 192/172/353 200/180/353
f 281/1/354 282/2/354 283/3/354
f 283/3/354 284/4/354 281/1/354
f 285/5/3 286/6/3 282/2/3
f 282/2/3 281/1/3 285/5/3
f 287/7/5 288/8/5 286/6/5
f 286/6/355 285/5/355 287/7/355
f 289/9/6 290/10/6 288/8/6
f 288/8/6 287/7/6 289/9/6
f 291/11/356 292/12/356 290/10/356
f 290/10/357 289/9/357 291/11/357
f 293/13/358 294/14/358 292/12/358
f 292/12/359 291/11/359 293/13/359
f 295/15/11 296/16/11 294/14/11
f 294/14/11 293/13/11 295/15/11
f 297/17/72 298/18/72 296/16/72
f 296/16/360 295/15/360 297/17/360
f 299/19/15 300/20/15 298/18/15
f 298/18/361 297/17/361 299/19/361
f 284/4/362 283/3/362 300/20/362
f 300/20/17 299/19/17 284/4/17
f 301/201/363 302/202/363 303/203/363
f 303/203/364 304/204/364 301/201/364
f 305/205/20 306/206/20 302/202/20
f 302/202/365 301/201/365 305/205/365
f 307/207/22 308/208/22 306/206/22
f 306/206/23 305/205/23 307/207/23
f 309/209/24 310/210/24 308/208/24
f 308/208/25 307/207/25 309/209/25
f 311/211/366 312/212/366 310/210/366
f 310/210/26 309/209/26 311/211/26
f 313/213/28 314/214/28 312/212/28
f 312/212/367 311/211/367 313/213/367
f 315/215/29 316/216/29 314/214/29
f 314/214/29 313/213/29 315/215/29
f 317/217/30 318/218/30 316/216/30
f 316/216/31 315/215/31 317/217/31
f 319/219/32 320/220/32 318/218/32
f 318/218/368 317/217/368 319/219/368
f 304/204/369 303/203/369 320/220/369
f 320/220/34 319/219/34 304/204/34
f 321/221/370 301/201/370 304/204/370
f 304/204/35 322/222/35 321/221/35
f 323/223/371 305/205/371 301/201/371
f 301/201/372 321/221/372 323/223/372
f 324/224/38 307/207/38 305/205/38
f 305/205/38 323/223/38 324/224/38
f 325/225/373 309/209/373 307/207/373
f 307/207/374 324/224/374 325/225/374
f 326/226/40 311/211/40 309/209/40
f 309/209/40 325/225/40 326/226/40
f 327/227/43 313/213/43 311/211/43
f 311/211/43 326/226/43 327/227/43
f 328/228/375 315/215/375 313/213/375
f 313/213/376 327/227/376 328/228/376
f 329/229/46 317/217/46 315/215/46
f 315/215/377 328/228/377 329/229/377
f 330/230/378 319/219/378 317/217/378
f 317/217/49 329/229/49 330/230/49
f 322/222/50 304/204/50 319/219/50
f 319/219/379 330/230/379 322/222/379
f 331/231/380 321/221/380 322/222/380
f 322/222/53 332/232/53 331/231/53
f 333/233/54 323/223/54 321/221/54
f 321/221/54 331/231/54 333/233/54
f 334/234/55 324/224/55 323/223/55
f 323/223/56 333/233/56 334/234/56
f 335/235/381 325/225/381 324/224/381
f 324/224/57 334/234/57 335/235/57
f 336/236/382 326/226/382 325/225/382
f 325/225/383 335/235/383 336/236/383
f 337/237/61 327/227/61 326/226/61
f 326/226/384 336/236/384 337/237/384
f 338/238/63 328/228/63 327/227/63
f 327/227/63 337/237/63 338/238/63
f 339/239/65 329/229/65 328/228/65
f 328/228/385 338/238/385 339/239/385
f 340/240/67 330/230/67 329/229/67
f 329/229/386 339/239/386 340/240/386
f 332/232/387 322/222/387 330/230/387
f 330/230/387 340/240/387 332/232/387
f 341/61/358 342/62/358 343/63/358
f 343/63/358 344/64/358 341/61/358
f 345/65/11 346/66/11 342/62/11
f 342/62/11 341/61/11 345/65/11
f 347/67/13 348/68/13 346/66/13
f 346/66/13 345/65/13 347/67/13
f 349/69/388 350/70/388 348/68/388
f 348/68/388 347/67/388 349/69/388
f 351/71/75 352/72/75 350/70/75
f 350/70/17 349/69/17 351/71/17
f 353/73/354 354/74/354 352/72/354
f 352/72/354 351/71/354 353/73/354
f 355/75/3 356/76/3 354/74/3
f 354/74/3 353/73/3 355/75/3
f 357/77/5 358/78/5 356/76/5
f 356/76/4 355/75/4 357/77/4
f 359/79/389 360/80/389 358/78/389
f 358/78/389 357/77/389 359/79/389
f 344/64/356 343/63/356 360/80/356
f 360/80/357 359/79/357 344/64/357
f 361/81/390 341/61/390 344/64/390
f 344/64/390 362/82/390 361/81/390
f 363/83/80 345/65/80 341/61/80
f 341/61/80 361/81/80 363/83/80
f 364/84/391 347/67/391 345/65/391
f 345/65/81 363/83/81 364/84/81
f 365/85/82 349/69/82 347/67/82
f 347/67/82 364/84/82 365/85/82
f 366/86/143 351/71/143 349/69/143
f 349/69/85 365/85/85 366/86/85
f 367/87/134 353/73/134 351/71/134
f 351/71/134 366/86/134 367/87/134
f 368/88/87 355/75/87 353/73/87
f 353/73/88 367/87/88 368/88/88
f 369/89/90 357/77/90 355/75/90
f 355/75/90 368/88/90 369/89/90
f 370/90/136 359/79/136 357/77/136
f 357/77/392 369/89/392 370/90/392
f 362/82/393 344/64/393 359/79/393
f 359/79/393 370/90/393 362/82/393
f 371/91/126 361/81/126 362/82/126
f 362/82/126 372/92/126 371/91/126
f 373/93/394 363/83/394 361/81/394
f 361/81/97 371/91/97 373/93/97
f 374/94/99 364/84/99 363/83/99
f 363/83/130 373/93/130 374/94/130
f 375/95/131 365/85/131 364/84/131
f 364/84/395 374/94/395 375/95/395
f 376/96/132 366/86/132 365/85/132
f 365/85/102 375/95/102 376/96/102
f 377/97/104 367/87/104 366/86/104
f 366/86/396 376/96/396 377/97/396
f 378/98/105 368/88/105 367/87/105
f 367/87/106 377/97/106 378/98/106
f 379/99/397 369/89/397 368/88/397
f 368/88/107 378/98/107 379/99/107
f 380/100/398 370/90/398 369/89/398
f 369/89/399 379/99/399 380/100/399
f 372/92/125 362/82/125 370/90/125
f 370/90/125 380/100/125 372/92/125
f 381/101/400 371/91/400 372/92/400
f 372/92/113 382/102/113 381/101/113
f 383/103/401 373/93/401 371/91/401
f 371/91/115 381/101/115 383/103/115
f 384/104/402 374/94/402 373/93/402
f 373/93/403 383/103/403 384/104/403
f 385/105/113 375/95/113 374/94/113
f 374/94/113 384/104/113 385/105/113
f 386/106/113 376/96/113 375/95/113
f 375/95/113 385/105/113 386/106/113
f 387/107/113 377/97/113 376/96/113
f 376/96/113 386/106/113 387/107/113
f 388/108/117 378/98/117 377/97/117
f 377/97/113 387/107/113 388/108/113
f 389/109/113 379/99/113 378/98/113
f 378/98/118 388/108/118 389/109/118
f 390/110/113 380/100/113 379/99/113
f 379/99/113 389/109/113 390/110/113
f 382/102/113 372/92/113 380/100/113
f 380/100/113 390/110/113 382/102/113
f 391/111/104 381/101/104 382/102/104
f 382/102/104 392/112/104 391/111/104
f 393/113/106 383/103/106 381/101/106
f 381/101/106 391/111/106 393/113/106
f 394/114/122 384/104/122 383/103/122
f 383/103/404 393/113/404 394/114/404
f 395/115/123 385/105/123 384/104/123
f 384/104/405 394/114/405 395/115/405
f 396/116/110 386/106/110 385/105/110
f 385/105/125 395/115/125 396/116/125
f 397/117/126 387/107/126 386/106/126
f 386/106/127 396/116/127 397/117/127
f 398/118/128 388/108/128 387/107/128
f 387/107/128 397/117/128 398/118/128
f 399/119/406 389/109/406 388/108/406
f 388/108/99 398/118/99 399/119/99
f 400/120/407 390/110/407 389/109/407
f 389/109/131 399/119/131 400/120/131
f 392/112/102 382/102/102 390/110/102
f 390/110/102 400/120/102 392/112/102
f 282/2/408 391/111/408 392/112/408
f 392/112/134 283/3/134 282/2/134
f 286/6/88 393/113/88 391/111/88
f 391/111/88 282/2/88 286/6/88
f 288/8/90 394/114/90 393/113/90
f 393/113/90 286/6/90 288/8/90
f 290/10/409 395/115/409 394/114/409
f 394/114/410 288/8/410 290/10/410
f 292/12/93 396/116/93 395/115/93
f 395/115/139 290/10/139 292/12/139
f 294/14/411 397/117/411 396/116/411
f 396/116/79 292/12/79 294/14/79
f 296/16/80 398/118/80 397/117/80
f 397/117/80 294/14/80 296/16/80
f 298/18/81 399/119/81 398/118/81
f 398/118/81 296/16/81 298/18/81
f 300/20/412 400/120/412 399/119/412
f 399/119/83 298/18/83 300/20/83
f 283/3/143 392/112/143 400/120/143
f 400/120/85 300/20/85 283/3/85
f 302/202/413 401/241/413 402/242/413
f 402/242/414 303/203/414 302/202/414
f 306/206/145 403/243/145 401/241/145
f 401/241/146 302/202/146 306/206/146
f 308/208/415 404/244/415 403/243/415
f 403/243/416 306/206/416 308/208/416
f 310/210/417 405/245/417 404/244/417
f 404/244/418 308/208/418 310/210/418
f 312/212/419 406/246/419 405/245/419
f 405/245/420 310/210/420 312/212/420
f 314/214/421 407/247/421 406/246/421
f 406/246/422 312/212/422 314/214/422
f 316/216/165 408/248/165 407/247/165
f 407/247/423 314/214/423 316/216/423
f 318/218/424 409/249/424 408/248/424
f 408/248/166 316/216/166 318/218/166
f 320/220/425 410/250/425 409/249/425
f 409/249/168 318/218/168 320/220/168
f 303/203/426 402/242/426 410/250/426
f 410/250/427 320/220/427 303/203/427
f 332/232/154 411/251/154 412/252/154
f 412/252/428 331/231/428 332/232/428
f 331/231/429 412/252/429 413/253/429
f 413/253/165 333/233/165 331/231/165
f 333/233/430 413/253/430 414/254/430
f 414/254/431 334/234/431 333/233/431
f 334/234/168 414/254/168 415/255/168
f 415/255/432 335/235/432 334/234/432
f 335/235/433 415/255/433 416/256/433
f 416/256/434 336/236/434 335/235/434
f 336/236/435 416/256/435 417/257/435
f 417/257/436 337/237/436 336/236/436
f 337/237/146 417/257/146 418/258/146
f 418/258/174 338/238/174 337/237/174
f 338/238/437 418/258/437 419/259/437
f 419/259/438 339/239/438 338/238/438
f 339/239/439 419/259/439 420/260/439
f 420/260/417 340/240/417 339/239/417
f 340/240/440 420/260/440 411/251/440
f 411/251/441 332/232/441 340/240/441
f 421/1/442 422/2/442 423/3/442
f 423/3/443 424/4/443 421/1/443
f 425/5/444 426/6/444 422/2/444
f 422/2/445 421/1/445 425/5/445
f 427/7/446 428/8/446 426/6/446
f 426/6/447 425/5/447 427/7/447
f 429/9/448 430/10/448 428/8/448
f 428/8/448 427/7/448 429/9/448
f 431/11/449 432/12/449 430/10/449
f 430/10/449 429/9/449 431/11/449
f 433/13/450 434/14/450 432/12/450
f 432/12/450 431/11/450 433/13/450
f 435/15/451 436/16/451 434/14/451
f 434/14/452 433/13/452 435/15/452
f 437/17/453 438/18/453 436/16/453
f 436/16/454 435/15/454 437/17/454
f 439/19/455 440/20/455 438/18/455
f 438/18/455 437/17/455 439/19/455
f 424/4/456 423/3/456 440/20/456
f 440/20/457 439/19/457 424/4/457
f 441/261/458 442/262/458 443/263/458
f 443/263/458 444/264/458 441/261/458
f 445/265/459 446/266/459 442/262/459
f 442/262/459 441/261/459 445/265/459
f 447/267/460 448/268/460 446/266/460
f 446/266/461 445/265/461 447/267/461
f 449/269/462 450/270/462 448/268/462
f 448/268/462 447/267/462 449/269/462
f 451/271/463 452/272/463 450/270/463
f 450/270/464 449/269/464 451/271/464
f 453/273/465 454/274/465 452/272/465
f 452/272/466 451/271/466 453/273/466
f 455/275/467 456/276/467 454/274/467
f 454/274/468 453/273/468 455/275/468
f 457/277/469 458/278/469 456/276/469
f 456/276/470 455/275/470 457/277/470
f 459/279/471 460/280/471 458/278/471
f 458/278/472 457/277/472 459/279/472
f 444/264/473 443/263/473 460/280/473
f 460/280/474 459/279/474 444/264/474
f 461/281/475 441/261/475 444/264/475
f 444/264/476 462/282/476 461/281/476
f 463/283/477 445/265/477 441/261/477
f 441/261/478 461/281/478 463/283/478
f 464/284/479 447/267/479 445/265/479
f 445/265/480 463/283/480 464/284/480
f 465/285/481 449/269/481 447/267/481
f 447/267/481 464/284/481 465/285/481
f 466/286/482 451/271/482 449/269/482
f 449/269/482 465/285/482 466/286/482
f 467/287/483 453/273/483 451/271/483
f 451/271/484 466/286/484 467/287/484
f 468/288/485 455/275/485 453/273/485
f 453/273/485 467/287/485 468/288/485
f 469/289/486 457/277/486 455/275/486
f 455/275/486 468/288/486 469/289/486
f 470/290/487 459/279/487 457/277/487
f 457/277/487 469/289/487 470/290/487
f 462/282/488 444/264/488 459/279/488
f 459/279/489 470/290/489 462/282/489
f 471/291/490 461/281/490 462/282/490
f 462/282/491 472/292/491 471/291/491
f 473/293/492 463/283/492 461/281/492
f 461/281/493 471/291/493 473/293/493
f 474/294/494 464/284/494 463/283/494
f 463/283/495 473/293/495 474/294/495
f 475/295/496 465/285/496 464/284/496
f 464/284/497 474/294/497 475/295/497
f 476/296/498 466/286/498 465/285/498
f 465/285/498 475/295/498 476/296/498
f 477/297/499 467/287/499 466/286/499
f 466/286/500 476/296/500 477/297/500
f 478/298/501 468/288/501 467/287/501
f 467/287/502 477/297/502 478/298/502
f 479/299/503 469/289/503 468/288/503
f 468/288/504 478/298/504 479/299/504
f 480/300/505 470/290/505 469/289/505
f 469/289/506 479/299/506 480/300/506
f 472/292/507 462/282/507 470/290/507
f 470/290/507 480/300/507 472/292/507
f 481/61/508 482/62/508 483/63/508
f 483/63/508 484/64/508 481/61/508
f 485/65/509 486/66/509 482/62/509
f 482/62/451 481/61/451 485/65/451
f 487/67/454 488/68/454 486/66/454
f 486/66/510 485/65/510 487/67/510
f 489/69/455 490/70/455 488/68/455
f 488/68/455 487/67/455 489/69/455
f 491/71/457 492/72/457 490/70/457
f 490/70/457 489/69/457 491/71/457
f 493/73/511 494/74/511 492/72/511
f 492/72/443 491/71/443 493/73/443
f 495/75/444 496/76/444 494/74/444
f 494/74/445 493/73/445 495/75/445
f 497/77/512 498/78/512 496/76/512
f 496/76/513 495/75/513 497/77/513
f 499/79/514 500/80/514 498/78/514
f 498/78/515 497/77/515 499/79/515
f 484/64/449 483/63/449 500/80/449
f 500/80/516 499/79/516 484/64/516
f 501/81/517 481/61/517 484/64/517
f 484/64/518 502/82/518 501/81/518
f 503/83/519 485/65/519 481/61/519
f 481/61/520 501/81/520 503/83/520
f 504/84/521 487/67/521 485/65/521
f 485/65/521 503/83/521 504/84/521
f 505/85/522 489/69/522 487/67/522
f 487/67/522 504/84/522 505/85/522
f 506/86/523 491/71/523 489/69/523
f 489/69/524 505/85/524 506/86/524
f 507/87/525 493/73/525 491/71/525
f 491/71/525 506/86/525 507/87/525
f 508/88/526 495/75/526 493/73/526
f 493/73/527 507/87/527 508/88/527
f 509/89/528 497/77/528 495/75/528
f 495/75/528 508/88/528 509/89/528
f 510/90/529 499/79/529 497/77/529
f 497/77/530 509/89/530 510/90/530
f 502/82/531 484/64/531 499/79/531
f 499/79/532 510/90/532 502/82/532
f 511/91/533 501/81/533 502/82/533
f 502/82/534 512/92/534 511/91/534
f 513/93/535 503/83/535 501/81/535
f 501/81/536 511/91/536 513/93/536
f 514/94/537 504/84/537 503/83/537
f 503/83/538 513/93/538 514/94/538
f 515/95/539 505/85/539 504/84/539
f 504/84/540 514/94/540 515/95/540
f 516/96/541 506/86/541 505/85/541
f 505/85/542 515/95/542 516/96/542
f 517/97/543 507/87/543 506/86/543
f 506/86/543 516/96/543 517/97/543
f 518/98/544 508/88/544 507/87/544
f 507/87/545 517/97/545 518/98/545
f 519/99/546 509/89/546 508/88/546
f 508/88/546 518/98/546 519/99/546
f 520/100/547 510/90/547 509/89/547
f 509/89/548 519/99/548 520/100/548
f 512/92/549 502/82/549 510/90/549
f 510/90/550 520/100/550 512/92/550
f 521/101/551 511/91/551 512/92/551
f 512/92/552 522/102/552 521/101/552
f 523/103/551 513/93/551 511/91/551
f 511/91/553 521/101/553 523/103/553
f 524/104/554 514/94/554 513/93/554
f 513/93/554 523/103/554 524/104/554
f 525/105/555 515/95/555 514/94/555
f 514/94/552 524/104/552 525/105/552
f 526/106/556 516/96/556 515/95/556
f 515/95/557 525/105/557 526/106/557
f 527/107/552 517/97/552 516/96/552
f 516/96/552 526/106/552 527/107/552
f 528/108/558 518/98/558 517/97/558
f 517/97/552 527/107/552 528/108/552
f 529/109/558 519/99/558 518/98/558
f 518/98/558 528/108/558 529/109/558
f 530/110/552 520/100/552 519/99/552
f 519/99/559 529/109/559 530/110/559
f 522/102/556 512/92/556 520/100/556
f 520/100/560 530/110/560 522/102/560
f 531/111/543 521/101/543 522/102/543
f 522/102/561 532/112/561 531/111/561
f 533/113/562 523/103/562 521/101/562
f 521/101/562 531/111/562 533/113/562
f 534/114/546 524/104/546 523/103/546
f 523/103/563 533/113/563 534/114/563
f 535/115/548 525/105/548 524/104/548
f 524/104/548 534/114/548 535/115/548
f 536/116/549 526/106/549 525/105/549
f 525/105/550 535/115/550 536/116/550
f 537/117/533 527/107/533 526/106/533
f 526/106/564 536/116/564 537/117/564
f 538/118/565 528/108/565 527/107/565
f 527/107/566 537/117/566 538/118/566
f 539/119/567 529/109/567 528/108/567
f 528/108/568 538/118/568 539/119/568
f 540/120/569 530/110/569 529/109/569
f 529/109/569 539/119/569 540/120/569
f 532/112/570 522/102/570 530/110/570
f 530/110/571 540/120/571 532/112/571
f 422/2/572 531/111/572 532/112/572
f 532/112/573 423/3/573 422/2/573
f 426/6/574 533/113/574 531/111/574
f 531/111/575 422/2/575 426/6/575
f 428/8/528 534/114/528 533/113/528
f 533/113/576 426/6/576 428/8/576
f 430/10/530 535/115/530 534/114/530
f 534/114/530 428/8/530 430/10/530
f 432/12/531 536/116/531 535/115/531
f 535/115/532 430/10/532 432/12/532
f 434/14/517 537/117/517 536/116/517
f 536/116/577 432/12/577 434/14/577
f 436/16/519 538/118/519 537/117/519
f 537/117/578 434/14/578 436/16/578
f 438/18/521 539/119/521 538/118/521
f 538/118/521 436/16/521 438/18/521
f 440/20/579 540/120/579 539/119/579
f 539/119/579 438/18/579 440/20/579
f 423/3/580 532/112/580 540/120/580
f 540/120/524 440/20/524 423/3/524
f 442/262/581 541/301/581 542/302/581
f 542/302/582 443/263/582 442/262/582
f 446/266/583 543/303/583 541/301/583
f 541/301/584 442/262/584 446/266/584
f 448/268/585 544/304/585 543/303/585
f 543/303/586 446/266/586 448/268/586
f 450/270/587 545/305/587 544/304/587
f 544/304/588 448/268/588 450/270/588
f 452/272/589 546/306/589 545/305/589
f 545/305/590 450/270/590 452/272/590
f 454/274/591 547/307/591 546/306/591
f 546/306/592 452/272/592 454/274/592
f 456/276/593 548/308/593 547/307/593
f 547/307/594 454/274/594 456/276/594
f 458/278/595 549/309/595 548/308/595
f 548/308/596 456/276/596 458/278/596
f 460/280/597 550/310/597 549/309/597
f 549/309/598 458/278/598 460/280/598
f 443/263/599 542/302/599 550/310/599
f 550/310/599 460/280/599 443/263/599
f 472/292/600 551/311/600 552/312/600
f 552/312/601 471/291/601 472/292/601
f 471/291/602 552/312/602 553/313/602
f 553/313/603 473/293/603 471/291/603
f 473/293/604 553/313/604 554/314/604
f 554/314/605 474/294/605 473/293/605
f 474/294/606 554/314/606 555/315/606
f 555/315/607 475/295/607 474/294/607
f 475/295/608 555/315/608 556/316/608
f 556/316/609 476/296/609 475/295/609
f 476/296/610 556/316/610 557/317/610
f 557/317/611 477/297/611 476/296/611
f 477/297/612 557/317/612 558/318/612
f 558/318/613 478/298/613 477/297/613
f 478/298/614 558/318/614 559/319/614
f 559/319/615 479/299/615 478/298/615
f 479/299/616 559/319/616 560/320/616
f 560/320/587 480/300/587 479/299/587
f 480/300/590 560/320/590 551/311/590
f 551/311/617 472/292/617 480/300/617
f 561/1/618 562/2/618 563/3/618
f 563/3/619 564/4/619 561/1/619
f 565/5/620 566/6/620 562/2/620
f 562/2/620 561/1/620 565/5/620
f 567/7/621 568/8/621 566/6/621
f 566/6/622 565/5/622 567/7/622
f 569/9/623 570/10/623 568/8/623
f 568/8/624 567/7/624 569/9/624
f 571/11/625 572/12/625 570/10/625
f 570/10/626 569/9/626 571/11/626
f 573/13/627 574/14/627 572/12/627
f 572/12/628 571/11/628 573/13/628
f 575/15/629 576/16/629 574/14/629
f 574/14/629 573/13/629 575/15/629
f 577/17/630 578/18/630 576/16/630
f 576/16/630 575/15/630 577/17/630
f 579/19/631 580/20/631 578/18/631
f 578/18/632 577/17/632 579/19/632
f 564/4/633 563/3/633 580/20/633
f 580/20/634 579/19/634 564/4/634
f 581/321/635 582/322/635 583/323/635
f 583/323/636 584/324/636 581/321/636
f 585/325/637 586/326/637 582/322/637
f 582/322/638 581/321/638 585/325/638
f 587/327/639 588/328/639 586/326/639
f 586/326/640 585/325/640 587/327/640
f 589/329/641 590/330/641 588/328/641
f 588/328/642 587/327/642 589/329/642
f 591/331/643 592/332/643 590/330/643
f 590/330/644 589/329/644 591/331/644
f 593/333/645 594/334/645 592/332/645
f 592/332/646 591/331/646 593/333/646
f 595/335/647 596/336/647 594/334/647
f 594/334/648 593/333/648 595/335/648
f 597/337/649 598/338/649 596/336/649
f 596/336/649 595/335/649 597/337/649
f 599/339/650 600/340/650 598/338/650
f 598/338/651 597/337/651 599/339/651
f 584/324/652 583/323/652 600/340/652
f 600/340/653 599/339/653 584/324/653
f 601/341/654 581/321/654 584/324/654
f 584/324/655 602/342/655 601/341/655
f 603/343/656 585/325/656 581/321/656
f 581/321/656 601/341/656 603/343/656
f 604/344/657 587/327/657 585/325/657
f 585/325/658 603/343/658 604/344/658
f 605/345/659 589/329/659 587/327/659
f 587/327/660 604/344/660 605/345/660
f 606/346/661 591/331/661 589/329/661
f 589/329/662 605/345/662 606/346/662
f 607/347/663 593/333/663 591/331/663
f 591/331/664 606/346/664 607/347/664
f 608/348/665 595/335/665 593/333/665
f 593/333/666 607/347/666 608/348/666
f 609/349/667 597/337/667 595/335/667
f 595/335/668 608/348/668 609/349/668
f 610/350/669 599/339/669 597/337/669
f 597/337/670 609/349/670 610/350/670
f 602/342/671 584/324/671 599/339/671
f 599/339/672 610/350/672 602/342/672
f 611/351/673 601/341/673 602/342/673
f 602/342/673 612/352/673 611/351/673
f 613/353/674 603/343/674 601/341/674
f 601/341/675 611/351/675 613/353/675
f 614/354/676 604/344/676 603/343/676
f 603/343/677 613/353/677 614/354/677
f 615/355/678 605/345/678 604/344/678
f 604/344/678 614/354/678 615/355/678
f 616/356/679 606/346/679 605/345/679
f 605/345/680 615/355/680 616/356/680
f 617/357/681 607/347/681 606/346/681
f 606/346/681 616/356/681 617/357/681
f 618/358/682 608/348/682 607/347/682
f 607/347/683 617/357/683 618/358/683
f 619/359/684 609/349/684 608/348/684
f 608/348/685 618/358/685 619/359/685
f 620/360/686 610/350/686 609/349/686
f 609/349/687 619/359/687 620/360/687
f 612/352/688 602/342/688 610/350/688
f 610/350/689 620/360/689 612/352/689
f 621/61/690 622/62/690 623/63/690
f 623/63/628 624/64/628 621/61/628
f 625/65/691 626/66/691 622/62/691
f 622/62/629 621/61/629 625/65/629
f 627/67/630 628/68/630 626/66/630
f 626/66/692 625/65/692 627/67/692
f 629/69/693 630/70/693 628/68/693
f 628/68/632 627/67/632 629/69/632
f 631/71/694 632/72/694 630/70/694
f 630/70/695 629/69/695 631/71/695
f 633/73/618 634/74/618 632/72/618
f 632/72/696 631/71/696 633/73/696
f 635/75/620 636/76/620 634/74/620
f 634/74/620 633/73/620 635/75/620
f 637/77/697 638/78/697 636/76/697
f 636/76/622 635/75/622 637/77/622
f 639/79/623 640/80/623 638/78/623
f 638/78/698 637/77/698 639/79/698
f 624/64/625 623/63/625 640/80/625
f 640/80/626 639/79/626 624/64/626
f 641/81/699 621/61/699 624/64/699
f 624/64/700 642/82/700 641/81/700
f 643/83/701 625/65/701 621/61/701
f 621/61/701 641/81/701 643/83/701
f 644/84/702 627/67/702 625/65/702
f 625/65/702 643/83/702 644/84/702
f 645/85/703 629/69/703 627/67/703
f 627/67/703 644/84/703 645/85/703
f 646/86/704 631/71/704 629/69/704
f 629/69/705 645/85/705 646/86/705
f 647/87/706 633/73/706 631/71/706
f 631/71/707 646/86/707 647/87/707
f 648/88/708 635/75/708 633/73/708
f 633/73/708 647/87/708 648/88/708
f 649/89/709 637/77/709 635/75/709
f 635/75/710 648/88/710 649/89/710
f 650/90/711 639/79/711 637/77/711
f 637/77/712 649/89/712 650/90/712
f 642/82/713 624/64/713 639/79/713
f 639/79/714 650/90/714 642/82/714
f 651/91/715 641/81/715 642/82/715
f 642/82/716 652/92/716 651/91/716
f 653/93/717 643/83/717 641/81/717
f 641/81/718 651/91/718 653/93/718
f 654/94/719 644/84/719 643/83/719
f 643/83/720 653/93/720 654/94/720
f 655/95/721 645/85/721 644/84/721
f 644/84/722 654/94/722 655/95/722
f 656/96/723 646/86/723 645/85/723
f 645/85/724 655/95/724 656/96/724
f 657/97/725 647/87/725 646/86/725
f 646/86/726 656/96/726 657/97/726
f 658/98/727 648/88/727 647/87/727
f 647/87/727 657/97/727 658/98/727
f 659/99/728 649/89/728 648/88/728
f 648/88/728 658/98/728 659/99/728
f 660/100/729 650/90/729 649/89/729
f 649/89/730 659/99/730 660/100/730
f 652/92/731 642/82/731 650/90/731
f 650/90/732 660/100/732 652/92/732
f 661/101/733 651/91/733 652/92/733
f 652/92/734 662/102/734 661/101/734
f 663/103/735 653/93/735 651/91/735
f 651/91/736 661/101/736 663/103/736
f 664/104/737 654/94/737 653/93/737
f 653/93/738 663/103/738 664/104/738
f 665/105/739 655/95/739 654/94/739
f 654/94/740 664/104/740 665/105/740
f 666/106/741 656/96/741 655/95/741
f 655/95/741 665/105/741 666/106/741
f 667/107/734 657/97/734 656/96/734
f 656/96/741 666/106/741 667/107/741
f 668/108/742 658/98/742 657/97/742
f 657/97/734 667/107/734 668/108/734
f 669/109/737 659/99/737 658/98/737
f 658/98/738 668/108/738 669/109/738
f 670/110/741 660/100/741 659/99/741
f 659/99/743 669/109/743 670/110/743
f 662/102/739 652/92/739 660/100/739
f 660/100/739 670/110/739 662/102/739
f 671/111/744 661/101/744 662/102/744
f 662/102/744 672/112/744 671/111/744
f 673/113/745 663/103/745 661/101/745
f 661/101/746 671/111/746 673/113/746
f 674/114/747 664/104/747 663/103/747
f 663/103/748 673/113/748 674/114/748
f 675/115/749 665/105/749 664/104/749
f 664/104/729 674/114/729 675/115/729
f 676/116/731 666/106/731 665/105/731
f 665/105/732 675/115/732 676/116/732
f 677/117/750 667/107/750 666/106/750
f 666/106/750 676/116/750 677/117/750
f 678/118/717 668/108/717 667/107/717
f 667/107/751 677/117/751 678/118/751
f 679/119/719 669/109/719 668/108/719
f 668/108/752 678/118/752 679/119/752
f 680/120/721 670/110/721 669/109/721
f 669/109/722 679/119/722 680/120/722
f 672/112/753 662/102/753 670/110/753
f 670/110/724 680/120/724 672/112/724
f 562/2/754 671/111/754 672/112/754
f 672/112/754 563/3/754 562/2/754
f 566/6/755 673/113/755 671/111/755
f 671/111/755 562/2/755 566/6/755
f 568/8/756 674/114/756 673/113/756
f 673/113/709 566/6/709 568/8/709
f 570/10/757 675/115/757 674/114/757
f 674/114/758 568/8/758 570/10/758
f 572/12/759 676/116/759 675/115/759
f 675/115/760 570/10/760 572/12/760
f 574/14/761 677/117/761 676/116/761
f 676/116/762 572/12/762 574/14/762
f 576/16/763 678/118/763 677/117/763
f 677/117/701 574/14/701 576/16/701
f 578/18/764 679/119/764 678/118/764
f 678/118/765 576/16/765 578/18/765
f 580/20/766 680/120/766 679/119/766
f 679/119/767 578/18/767 580/20/767
f 563/3/768 672/112/768 680/120/768
f 680/120/769 580/20/769 563/3/769
f 582/322/770 681/361/770 682/362/770
f 682/362/771 583/323/771 582/322/771
f 586/326/772 683/363/772 681/361/772
f 681/361/773 582/322/773 586/326/773
f 588/328/774 684/364/774 683/363/774
f 683/363/775 586/326/775 588/328/775
f 590/330/776 685/365/776 684/364/776
f 684/364/777 588/328/777 590/330/777
f 592/332/778 686/366/778 685/365/778
f 685/365/779 590/330/779 592/332/779
f 594/334/780 687/367/780 686/366/780
f 686/366/781 592/332/781 594/334/781
f 596/336/782 688/368/782 687/367/782
f 687/367/783 594/334/783 596/336/783
f 598/338/784 689/369/784 688/368/784
f 688/368/785 596/336/785 598/338/785
f 600/340/786 690/370/786 689/369/786
f 689/369/787 598/338/787 600/340/787
f 583/323/788 682/362/788 690/370/788
f 690/370/789 600/340/789 583/323/789
f 612/352/790 691/371/790 692/372/790
f 692/372/791 611/351/791 612/352/791
f 611/351/792 692/372/792 693/373/792
f 693/373/782 613/353/782 611/351/782
f 613/353/793 693/373/793 694/374/793
f 694/374/794 614/354/794 613/353/794
f 614/354/795 694/374/795 695/375/795
f 695/375/796 615/355/796 614/354/796
f 615/355/797 695/375/797 696/376/797
f 696/376/798 616/356/798 615/355/798
f 616/356/799 696/376/799 697/377/799
f 697/377/800 617/357/800 616/356/800
f 617/357/801 697/377/801 698/378/801
f 698/378/772 618/358/772 617/357/772
f 618/358/802 698/378/802 699/379/802
f 699/379/803 619/359/803 618/358/803
f 619/359/804 699/379/804 700/380/804
f 700/380/776 620/360/776 619/359/776
f 620/360/779 700/380/779 691/371/779
f 691/371/805 612/352/805 620/360/805
