# Blender 4.0.2
# www.blender.org
mtllib Donut2.mtl
o TopL
v -16.014566 23.738449 38.350132
v -35.929230 25.023237 22.430222
v -13.209429 17.526001 34.020287
v -36.843571 32.920982 25.170145
v -17.864511 31.698816 40.343979
v -31.311985 43.959682 23.531496
v -16.604605 43.006771 35.293049
v -18.159269 46.430977 13.593554
v -9.596942 45.877949 20.439791
v -3.431671 31.374401 11.125065
v 6.431829 33.855232 13.488011
v -4.089203 16.041111 15.842044
v 11.819612 20.044674 19.651209
v -9.686209 13.763284 27.706236
v 12.162892 19.264284 32.941509
v 10.534303 23.503408 39.708534
v 8.095567 29.807091 44.123802
v 5.118943 37.485142 45.848400
v 1.209726 47.492859 39.560581
v 0.773238 48.486824 22.920931
v 15.368440 38.685326 11.067833
v 26.236279 27.829515 15.750391
v 31.963089 29.957424 27.583794
v 32.048313 35.120430 33.886333
v 29.949125 41.605656 38.208813
v 25.944216 48.729336 40.213860
v 17.350885 56.207905 35.191650
v 10.166243 53.560978 20.378723
v 20.983486 44.559052 4.519882
v 35.294193 37.304943 5.183013
v 44.408405 42.973488 13.066245
v 45.572407 49.268669 18.111057
v 43.682549 55.974312 22.189579
v 39.034309 62.420040 24.944538
v 27.495253 66.818619 23.357418
v 16.073145 59.737446 13.490394
v 21.777771 49.908680 -4.411752
v 36.570171 45.938812 -9.219969
v 46.161930 54.834675 -6.718921
v 47.479065 62.153790 -3.387094
v 45.616993 69.057877 0.360176
v 40.878548 74.891579 4.134505
v 28.925295 76.485130 7.227042
v 16.904444 65.362968 4.105579
v 17.528591 53.303341 -13.326176
v 29.723728 51.410675 -23.601902
v 36.756897 62.353157 -26.469872
v 37.260155 70.322762 -24.846987
v 35.237064 77.354790 -21.438332
v 30.987679 82.800842 -16.637478
v 21.257820 82.614632 -8.872957
v 12.440441 68.932213 -5.267520
v 9.388858 53.827747 -19.835764
v 16.586771 52.261150 -34.104065
v 18.712191 63.516026 -40.895763
v 17.650311 71.586090 -40.524906
v 15.322407 78.639572 -37.358139
v 12.006648 84.028191 -31.812967
v 6.547328 83.564331 -20.630880
v 3.878838 69.483482 -12.110126
v -0.474746 51.346912 -22.198711
v 0.677957 48.257690 -37.913128
v -3.140748 58.013573 -46.131039
v -6.093525 65.608582 -46.213150
v -8.787726 72.570938 -43.131912
v -10.976806 78.241867 -37.317493
v -11.263166 79.079697 -24.898411
v -6.490719 66.872940 -14.596866
v -9.413326 46.522003 -19.780296
v -13.734874 40.474304 -34.012310
v -22.942293 47.323853 -40.771454
v -27.608053 53.993214 -40.385460
v -30.639940 60.768948 -37.218792
v -31.801455 66.995911 -31.679327
v -27.404428 70.364647 -20.529585
v -15.883620 61.798794 -12.054553
v -15.027647 40.646412 -13.228715
v -22.794655 30.992136 -23.443272
v -35.386261 34.304363 -26.255772
v -41.129143 39.848293 -24.613810
v -44.374706 46.403709 -21.197588
v -44.890099 53.301781 -16.411869
v -37.552631 59.752483 -8.695251
v -21.786688 55.623878 -5.166224
v -15.820584 35.293468 -4.298948
v -24.071877 22.361691 -9.038424
v -37.141129 22.446604 -6.468637
v -43.035694 26.963173 -3.115659
v -46.309151 33.320145 0.631714
v -46.738281 40.828785 4.398163
v -38.978115 50.085762 7.429632
v -22.621199 49.995148 4.222219
v -11.576588 31.900677 4.617341
v -17.224915 16.888269 5.338015
v -27.735996 14.928013 13.282314
v -32.816059 18.792440 18.347860
v -44.315823 46.657928 8.962630
v -34.837280 47.447445 7.518692
v -42.755241 42.916050 0.235244
v -40.761082 37.862423 10.562605
v -42.581890 59.039375 -11.800539
v -35.604919 56.172443 -9.717006
v -39.254524 56.647091 -18.465750
v -43.440044 51.263142 -11.865960
v -24.698097 69.143097 -14.599353
v -21.288509 63.102036 -15.903946
v -22.697300 69.552322 -21.357254
v -29.294912 65.137360 -18.153782
v -17.471050 78.675034 -27.736725
v -15.079591 73.802330 -24.917488
v -12.882736 76.819077 -31.334179
v -19.648722 73.828148 -30.766329
v 6.650281 84.861046 -17.957310
v 6.412960 75.679649 -16.218199
v 14.961293 81.605522 -20.732174
v 5.079234 80.818909 -26.236284
v 21.403282 85.641541 -14.159031
v 18.284929 79.626183 -13.172627
v 26.440422 81.011650 -13.925442
v 21.350510 82.603844 -20.292265
v 10.963845 55.741970 37.275288
v 9.829908 51.802170 28.236969
v 10.129540 45.966705 38.764534
v 19.838560 51.965569 34.931416
v -8.287165 42.738140 41.633224
v -6.265632 42.713776 34.375591
v -10.830203 36.206055 38.881378
v -2.251493 38.244797 41.262054
v -23.862755 47.314426 27.373735
v -19.634727 43.536259 21.720121
v -28.468279 41.201717 25.020948
v -20.804848 40.853569 30.983633
v 20.151773 77.831192 1.181416
v 20.024973 70.644272 -1.474424
v 27.256479 75.156067 2.237180
v 23.487541 78.162964 -5.709504
v 31.485960 71.362968 18.954483
v 27.790842 67.044632 15.124168
v 33.829830 65.109261 20.498367
v 35.573296 69.622200 13.734765
v 16.855093 62.047733 26.065723
v 17.607491 56.734386 21.638008
v 18.637333 56.600956 30.013922
v 23.724861 61.323944 25.212341
vn -0.3459 -0.4781 0.8073
vn -0.7479 -0.4522 0.4859
vn -0.2112 -0.7726 0.5988
vn -0.7676 0.0778 0.6362
vn -0.4463 0.0569 0.8931
vn -0.3671 0.7876 0.4950
vn -0.3400 0.7858 0.5166
vn 0.4068 0.9085 -0.0959
vn 0.0764 0.9298 -0.3600
vn 0.4197 0.1754 -0.8905
vn -0.0275 0.0629 -0.9976
vn 0.3586 -0.7440 -0.5637
vn 0.2939 -0.7604 -0.5792
vn 0.0194 -0.9839 0.1777
vn 0.3509 -0.9005 0.2570
vn 0.2567 -0.6548 0.7109
vn 0.1410 -0.3555 0.9240
vn -0.0573 0.1550 0.9863
vn -0.3072 0.7941 0.5245
vn -0.3237 0.8291 -0.4559
vn -0.4327 -0.1559 -0.8880
vn 0.2352 -0.7920 -0.5633
vn 0.6512 -0.7383 0.1757
vn 0.6806 -0.4258 0.5962
vn 0.5822 -0.1173 0.8046
vn 0.2952 0.3453 0.8909
vn -0.2774 0.8102 0.5164
vn -0.6862 0.6333 -0.3577
vn -0.6874 -0.4224 -0.5909
vn 0.1983 -0.8307 -0.5203
vn 0.8400 -0.5408 -0.0445
vn 0.9471 -0.1471 0.2853
vn 0.8595 0.1728 0.4811
vn 0.5168 0.5770 0.6324
vn -0.2587 0.8297 0.4946
vn -0.9141 0.3949 -0.0919
vn -0.7233 -0.6650 -0.1860
vn 0.1931 -0.8658 -0.4616
vn 0.8666 -0.3609 -0.3446
vn 0.9846 0.1068 -0.1382
vn 0.8986 0.4370 0.0403
vn 0.5480 0.7881 0.2802
vn -0.2561 0.8475 0.4649
vn -0.9462 0.1779 0.2703
vn -0.5308 -0.8189 0.2183
vn 0.2210 -0.8881 -0.4031
vn 0.7239 -0.2469 -0.6442
vn 0.7832 0.2677 -0.5611
vn 0.6890 0.6045 -0.3998
vn 0.3806 0.9220 -0.0714
vn -0.2702 0.8588 0.4353
vn -0.7740 0.0402 0.6319
vn -0.1615 -0.8428 0.5135
vn 0.2745 -0.8915 -0.3604
vn 0.4502 -0.2292 -0.8630
vn 0.3969 0.2927 -0.8700
vn 0.2869 0.6304 -0.7213
vn 0.0593 0.9427 -0.3283
vn -0.2973 0.8606 0.4136
vn -0.4436 0.0190 0.8960
vn 0.2857 -0.7302 0.6206
vn 0.3392 -0.8752 -0.3449
vn 0.1187 -0.3126 -0.9424
vn -0.0709 0.1749 -0.9820
vn -0.2000 0.5079 -0.8379
vn -0.3297 0.8448 -0.4214
vn -0.3301 0.8523 0.4057
vn -0.0435 0.1196 0.9919
vn 0.6909 -0.5114 0.5110
vn 0.3979 -0.8435 -0.3608
vn -0.1817 -0.4748 -0.8611
vn -0.4949 -0.0540 -0.8673
vn -0.6412 0.2697 -0.7185
vn -0.6822 0.6545 -0.3260
vn -0.3599 0.8362 0.4137
vn 0.3190 0.3153 0.8938
vn 0.9457 -0.2449 0.2138
vn 0.4348 -0.8050 -0.4038
vn -0.3705 -0.6723 -0.6409
vn -0.7613 -0.3328 -0.5565
vn -0.9184 -0.0205 -0.3950
vn -0.9038 0.4227 -0.0676
vn -0.3785 0.8167 0.4356
vn 0.5468 0.5538 0.6279
vn 0.9816 -0.0023 -0.1911
vn 0.4400 -0.7698 -0.4624
vn -0.3970 -0.8522 -0.3408
vn -0.7989 -0.5867 -0.1329
vn -0.9575 -0.2846 0.0458
vn -0.9350 0.2116 0.2846
vn -0.3812 0.7989 0.4653
vn 0.5790 0.7708 0.2658
vn 0.7891 0.1517 -0.5953
vn 0.4121 -0.7475 -0.5209
vn -0.2543 -0.9662 -0.0412
vn -0.5975 -0.7476 0.2899
vn -0.7084 0.5702 0.4160
vn -0.0076 0.8976 0.4408
vn -0.8463 0.4177 -0.3304
vn -0.6349 -0.1174 0.7636
vn -0.5637 0.7780 0.2774
vn 0.1038 0.7375 0.6673
vn -0.3715 0.7996 -0.4719
vn -0.9166 0.0979 0.3875
vn -0.0538 0.6376 0.7685
vn 0.4156 0.0383 0.9088
vn 0.2121 0.9697 0.1215
vn -0.7408 0.3320 0.5839
vn -0.3666 0.8839 0.2906
vn -0.1249 0.4497 0.8844
vn 0.2414 0.9528 -0.1840
vn -0.8861 0.4547 -0.0897
vn -0.3249 0.8233 0.4654
vn -0.4897 0.1745 0.8543
vn 0.4423 0.8205 0.3621
vn -0.6352 0.7347 -0.2382
vn -0.1271 0.9334 0.3355
vn -0.6460 0.4375 0.6256
vn 0.5677 0.6435 0.5135
vn -0.1894 0.8806 -0.4345
vn -0.3250 0.8232 0.4656
vn -0.5802 0.7708 -0.2632
vn -0.5496 0.1715 0.8176
vn 0.4471 0.7876 0.4240
vn -0.3412 0.6852 0.6435
vn -0.2142 0.9748 -0.0629
vn -0.8322 0.0943 0.5465
vn 0.3290 0.3702 0.8687
vn -0.1563 0.9538 0.2565
vn 0.3149 0.8810 -0.3532
vn -0.8091 0.5839 0.0668
vn 0.1659 0.5397 0.8254
vn -0.6284 0.5808 0.5175
vn -0.9139 -0.1264 0.3858
vn 0.0476 0.4736 0.8794
vn -0.4539 0.8732 -0.1773
vn -0.1864 0.8389 0.5114
vn -0.8158 0.5555 0.1607
vn 0.0827 0.2680 0.9599
vn 0.3415 0.9388 -0.0457
vn -0.6308 0.7707 0.0899
vn -0.7906 0.3220 -0.5208
vn -0.6398 0.3027 0.7064
vn 0.1049 0.9945 0.0028
vt 0.985247 0.475482
vt 0.855415 0.475482
vt 0.985247 0.314846
vt 0.855415 0.612989
vt 0.985247 0.612989
vt 0.855415 0.787046
vt 0.985247 0.787046
vt 0.855415 0.314846
vt 0.985085 0.019285
vt 0.855415 0.019285
vt 0.985247 0.190546
vt 0.855415 0.190546
vt 0.703061 0.314846
vt 0.703061 0.019285
vt 0.703061 0.190546
vt 0.703061 0.475482
vt 0.703061 0.612989
vt 0.703061 0.787046
vt 0.557280 0.314846
vt 0.557280 0.019285
vt 0.557280 0.190546
vt 0.557280 0.475482
vt 0.557280 0.612989
vt 0.557280 0.787046
vt 0.352170 0.314846
vt 0.352170 0.019285
vt 0.352170 0.190546
vt 0.352170 0.475482
vt 0.352170 0.612989
vt 0.352170 0.787046
vt 0.188989 0.314846
vt 0.188989 0.019285
vt 0.188989 0.190546
vt 0.188989 0.475482
vt 0.188989 0.612989
vt 0.188989 0.787046
vt 0.018396 0.314846
vt 0.018396 0.019285
vt 0.018396 0.190546
vt 0.018396 0.475482
vt 0.018396 0.612989
vt 0.018396 0.787047
vt 0.334369 0.919662
vt 0.364183 0.905748
vt 0.330529 0.902834
vt 0.324986 0.880299
vt 0.361733 0.958226
vt 0.379108 0.929703
vt 0.367167 0.939895
vt 0.336967 0.924198
vt 0.426877 0.959806
vt 0.421980 0.920603
vt 0.436198 0.957041
vt 0.395985 0.950459
vt 0.458074 0.981481
vt 0.451831 0.945990
vt 0.472799 0.957661
vt 0.430687 0.958962
vt 0.524743 0.962340
vt 0.502635 0.927288
vt 0.542450 0.934521
vt 0.510546 0.949601
vt 0.563276 0.946224
vt 0.531192 0.922291
vt 0.569466 0.909171
vt 0.553400 0.930320
vt 0.482158 0.867877
vt 0.470267 0.855489
vt 0.458310 0.833731
vt 0.499298 0.838800
vt 0.414383 0.859313
vt 0.421932 0.854594
vt 0.385877 0.833777
vt 0.424183 0.824033
vt 0.387997 0.892570
vt 0.392739 0.866472
vt 0.355017 0.874841
vt 0.381284 0.856870
vt 0.542636 0.925425
vt 0.521747 0.891826
vt 0.561404 0.896929
vt 0.555946 0.919539
vt 0.562793 0.888515
vt 0.533743 0.875001
vt 0.552662 0.849690
vt 0.574223 0.869120
vt 0.505180 0.883624
vt 0.491623 0.854186
vt 0.495417 0.850957
vt 0.530988 0.862954
s 1
usemtl mat1.003
f 1/1/1 2/2/2 3/3/3
f 1/1/1 4/4/4 2/2/2
f 5/5/5 4/4/4 1/1/1
f 5/5/5 6/6/6 4/4/4
f 7/7/7 6/6/6 5/5/5
f 7/7/7 8/4/8 6/6/6
f 9/5/9 8/4/8 7/7/7
f 9/5/9 10/3/10 8/4/8
f 11/8/11 10/3/10 9/5/9
f 11/8/11 12/9/12 10/3/10
f 13/10/13 12/9/12 11/8/11
f 13/10/13 14/11/14 12/9/12
f 15/12/15 14/11/14 13/10/13
f 15/12/15 3/3/3 14/11/14
f 16/8/16 3/3/3 15/12/15
f 16/8/16 1/1/1 3/3/3
f 17/2/17 1/1/1 16/8/16
f 17/2/17 5/5/5 1/1/1
f 18/4/18 5/5/5 17/2/17
f 18/4/18 7/7/7 5/5/5
f 19/6/19 7/7/7 18/4/18
f 19/6/19 9/5/9 7/7/7
f 20/4/20 9/5/9 19/6/19
f 20/4/20 11/8/11 9/5/9
f 21/13/21 11/8/11 20/4/20
f 21/13/21 13/10/13 11/8/11
f 22/14/22 13/10/13 21/13/21
f 22/14/22 15/12/15 13/10/13
f 23/15/23 15/12/15 22/14/22
f 23/15/23 16/8/16 15/12/15
f 24/13/24 16/8/16 23/15/23
f 24/13/24 17/2/17 16/8/16
f 25/16/25 17/2/17 24/13/24
f 25/16/25 18/4/18 17/2/17
f 26/17/26 18/4/18 25/16/25
f 26/17/26 19/6/19 18/4/18
f 27/18/27 19/6/19 26/17/26
f 27/18/27 20/4/20 19/6/19
f 28/17/28 20/4/20 27/18/27
f 28/17/28 21/13/21 20/4/20
f 29/19/29 21/13/21 28/17/28
f 29/19/29 22/14/22 21/13/21
f 30/20/30 22/14/22 29/19/29
f 30/20/30 23/15/23 22/14/22
f 31/21/31 23/15/23 30/20/30
f 31/21/31 24/13/24 23/15/23
f 32/19/32 24/13/24 31/21/31
f 32/19/32 25/16/25 24/13/24
f 33/22/33 25/16/25 32/19/32
f 33/22/33 26/17/26 25/16/25
f 34/23/34 26/17/26 33/22/33
f 34/23/34 27/18/27 26/17/26
f 35/24/35 27/18/27 34/23/34
f 35/24/35 28/17/28 27/18/27
f 36/23/36 28/17/28 35/24/35
f 36/23/36 29/19/29 28/17/28
f 37/25/37 29/19/29 36/23/36
f 37/25/37 30/20/30 29/19/29
f 38/26/38 30/20/30 37/25/37
f 38/26/38 31/21/31 30/20/30
f 39/27/39 31/21/31 38/26/38
f 39/27/39 32/19/32 31/21/31
f 40/25/40 32/19/32 39/27/39
f 40/25/40 33/22/33 32/19/32
f 41/28/41 33/22/33 40/25/40
f 41/28/41 34/23/34 33/22/33
f 42/29/42 34/23/34 41/28/41
f 42/29/42 35/24/35 34/23/34
f 43/30/43 35/24/35 42/29/42
f 43/30/43 36/23/36 35/24/35
f 44/29/44 36/23/36 43/30/43
f 44/29/44 37/25/37 36/23/36
f 45/31/45 37/25/37 44/29/44
f 45/31/45 38/26/38 37/25/37
f 46/32/46 38/26/38 45/31/45
f 46/32/46 39/27/39 38/26/38
f 47/33/47 39/27/39 46/32/46
f 47/33/47 40/25/40 39/27/39
f 48/31/48 40/25/40 47/33/47
f 48/31/48 41/28/41 40/25/40
f 49/34/49 41/28/41 48/31/48
f 49/34/49 42/29/42 41/28/41
f 50/35/50 42/29/42 49/34/49
f 50/35/50 43/30/43 42/29/42
f 51/36/51 43/30/43 50/35/50
f 51/36/51 44/29/44 43/30/43
f 52/35/52 44/29/44 51/36/51
f 52/35/52 45/31/45 44/29/44
f 53/37/53 45/31/45 52/35/52
f 53/37/53 46/32/46 45/31/45
f 54/38/54 46/32/46 53/37/53
f 54/38/54 47/33/47 46/32/46
f 55/39/55 47/33/47 54/38/54
f 55/39/55 48/31/48 47/33/47
f 56/37/56 48/31/48 55/39/55
f 56/37/56 49/34/49 48/31/48
f 57/40/57 49/34/49 56/37/56
f 57/40/57 50/35/50 49/34/49
f 58/41/58 50/35/50 57/40/57
f 58/41/58 51/36/51 50/35/50
f 59/42/59 51/36/51 58/41/58
f 59/42/59 52/35/52 51/36/51
f 60/41/60 52/35/52 59/42/59
f 60/41/60 53/37/53 52/35/52
f 61/31/61 53/37/53 60/41/60
f 61/31/61 54/38/54 53/37/53
f 62/32/62 54/38/54 61/31/61
f 62/32/62 55/39/55 54/38/54
f 63/33/63 55/39/55 62/32/62
f 63/33/63 56/37/56 55/39/55
f 64/31/64 56/37/56 63/33/63
f 64/31/64 57/40/57 56/37/56
f 65/34/65 57/40/57 64/31/64
f 65/34/65 58/41/58 57/40/57
f 66/35/66 58/41/58 65/34/65
f 66/35/66 59/42/59 58/41/58
f 67/36/67 59/42/59 66/35/66
f 67/36/67 60/41/60 59/42/59
f 68/35/68 60/41/60 67/36/67
f 68/35/68 61/31/61 60/41/60
f 69/25/69 61/31/61 68/35/68
f 69/25/69 62/32/62 61/31/61
f 70/26/70 62/32/62 69/25/69
f 70/26/70 63/33/63 62/32/62
f 71/27/71 63/33/63 70/26/70
f 71/27/71 64/31/64 63/33/63
f 72/25/72 64/31/64 71/27/71
f 72/25/72 65/34/65 64/31/64
f 73/28/73 65/34/65 72/25/72
f 73/28/73 66/35/66 65/34/65
f 74/29/74 66/35/66 73/28/73
f 74/29/74 67/36/67 66/35/66
f 75/30/75 67/36/67 74/29/74
f 75/30/75 68/35/68 67/36/67
f 76/29/76 68/35/68 75/30/75
f 76/29/76 69/25/69 68/35/68
f 77/19/77 69/25/69 76/29/76
f 77/19/77 70/26/70 69/25/69
f 78/20/78 70/26/70 77/19/77
f 78/20/78 71/27/71 70/26/70
f 79/21/79 71/27/71 78/20/78
f 79/21/79 72/25/72 71/27/71
f 80/19/80 72/25/72 79/21/79
f 80/19/80 73/28/73 72/25/72
f 81/22/81 73/28/73 80/19/80
f 81/22/81 74/29/74 73/28/73
f 82/23/82 74/29/74 81/22/81
f 82/23/82 75/30/75 74/29/74
f 83/24/83 75/30/75 82/23/82
f 83/24/83 76/29/76 75/30/75
f 84/23/84 76/29/76 83/24/83
f 84/23/84 77/19/77 76/29/76
f 85/13/85 77/19/77 84/23/84
f 85/13/85 78/20/78 77/19/77
f 86/14/86 78/20/78 85/13/85
f 86/14/86 79/21/79 78/20/78
f 87/15/87 79/21/79 86/14/86
f 87/15/87 80/19/80 79/21/79
f 88/13/88 80/19/80 87/15/87
f 88/13/88 81/22/81 80/19/80
f 89/16/89 81/22/81 88/13/88
f 89/16/89 82/23/82 81/22/81
f 90/17/90 82/23/82 89/16/89
f 90/17/90 83/24/83 82/23/82
f 91/18/91 83/24/83 90/17/90
f 91/18/91 84/23/84 83/24/83
f 92/17/92 84/23/84 91/18/91
f 92/17/92 85/13/85 84/23/84
f 93/8/93 85/13/85 92/17/92
f 93/8/93 86/14/86 85/13/85
f 94/10/94 86/14/86 93/8/93
f 94/10/94 87/15/87 86/14/86
f 95/12/95 87/15/87 94/10/94
f 95/12/95 88/13/88 87/15/87
f 96/8/96 88/13/88 95/12/95
f 96/8/96 89/16/89 88/13/88
f 2/2/2 89/16/89 96/8/96
f 2/2/2 90/17/90 89/16/89
f 4/4/4 90/17/90 2/2/2
f 4/4/4 91/18/91 90/17/90
f 6/6/6 91/18/91 4/4/4
f 6/6/6 92/17/92 91/18/91
f 8/4/8 92/17/92 6/6/6
f 8/4/8 93/8/93 92/17/92
f 10/3/10 93/8/93 8/4/8
f 10/3/10 94/10/94 93/8/93
f 12/9/12 94/10/94 10/3/10
f 12/9/12 95/12/95 94/10/94
f 14/11/14 95/12/95 12/9/12
f 14/11/14 96/8/96 95/12/95
f 3/3/3 96/8/96 14/11/14
f 3/3/3 2/2/2 96/8/96
f 97/43/97 98/44/98 99/45/99
f 97/43/97 100/46/100 98/44/98
f 99/45/99 100/46/100 97/43/97
f 101/47/101 102/48/102 103/49/103
f 101/47/101 104/50/104 102/48/102
f 103/49/103 104/50/104 101/47/101
f 105/51/105 106/52/106 107/53/107
f 105/51/105 108/54/108 106/52/106
f 107/53/107 108/54/108 105/51/105
f 109/55/109 110/56/110 111/57/111
f 109/55/109 112/58/112 110/56/110
f 111/57/111 112/58/112 109/55/109
f 113/59/113 114/60/114 115/61/115
f 113/59/113 116/62/116 114/60/114
f 115/61/115 116/62/116 113/59/113
f 117/63/117 118/64/118 119/65/119
f 117/63/117 120/66/120 118/64/118
f 119/65/119 120/66/120 117/63/117
f 121/67/121 122/68/122 123/69/123
f 121/67/121 124/70/124 122/68/122
f 123/69/123 124/70/124 121/67/121
f 125/71/125 126/72/126 127/73/127
f 125/71/125 128/74/128 126/72/126
f 127/73/127 128/74/128 125/71/125
f 129/75/129 130/76/130 131/77/131
f 129/75/129 132/78/132 130/76/130
f 131/77/131 132/78/132 129/75/129
f 133/79/133 134/80/134 135/81/135
f 133/79/133 136/82/136 134/80/134
f 135/81/135 136/82/136 133/79/133
f 137/83/137 138/84/138 139/85/139
f 137/83/137 140/86/140 138/84/138
f 139/85/139 140/86/140 137/83/137
f 141/87/141 142/88/142 143/89/143
f 141/87/141 144/90/144 142/88/142
f 143/89/143 144/90/144 141/87/141
