# Blender 5.0.1
# www.blender.org
mtllib Fried Egg.mtl
o Mesh_0.015
v 0.818238 0.008001 4.992456
v 2.938911 0.008001 5.221636
v 1.405119 0.008001 5.171072
v 4.356535 0.008001 4.618213
v 5.002955 0.008001 3.818695
v 0.061049 0.008001 4.820167
v -1.223088 0.008001 4.022826
v 4.721808 0.008001 2.595888
v 4.798820 0.008001 2.024031
v 5.122029 0.008002 1.496689
v -2.837015 0.008001 3.555023
v 5.147545 0.008002 0.884291
v -3.834284 0.008001 2.595888
v 5.598337 0.008002 -0.284969
v -4.803941 0.008001 1.113945
v 5.224091 0.008002 -1.599319
v -4.132005 0.008001 2.041047
v 5.173057 0.008002 -2.084134
v 4.781803 0.008002 -2.739059
v -4.918765 0.008001 -0.032052
v 4.600313 0.008002 -3.177440
v 2.924698 0.008002 -4.729349
v 3.948260 0.008002 -4.523643
v 4.485169 0.147684 -3.914050
v -5.399325 0.008001 -0.757269
v -5.501391 0.008001 -2.092637
v 1.252008 0.008002 -5.086581
v 0.384445 0.008002 -5.656451
v 2.145088 0.008002 -5.137615
v -5.356798 0.008002 -2.756068
v -5.076111 0.008002 -3.165825
v 0.043842 0.008002 -5.775527
v -0.789323 0.008002 -5.809549
v -5.116641 0.008002 -3.629544
v -5.076111 0.008002 -4.491193
v -3.462375 0.008002 -4.905452
v -2.498933 0.008002 -5.613923
v -1.665392 0.008002 -5.860583
v -4.540263 0.008002 -4.899458
v -2.837015 0.008002 -5.375766
v -4.838725 0.250481 -3.036233
v -5.076111 0.008002 -4.491193
v -5.116641 0.008002 -3.629544
v -4.540263 0.008002 -4.899458
v -4.838725 0.250481 -4.251153
v -4.132005 0.008001 2.041047
v -3.993174 0.250481 1.905179
v -4.803941 0.008001 1.113945
v -4.621873 0.250481 0.997370
v -4.918765 0.008001 -0.032052
v -4.722801 0.250481 -0.079320
v -5.158988 0.250481 -0.770295
v -4.918653 0.390150 -0.783321
v -4.955740 0.390150 -2.012317
v -2.479151 0.405407 -1.738574
v -4.835245 0.390150 -2.565175
v -4.601339 0.390150 -2.906640
v -4.601339 0.390150 -4.011113
v -4.284789 0.250481 -4.682516
v -3.462375 0.008002 -4.905452
v -5.228566 0.250481 -2.052477
v -5.096021 0.250481 -2.660622
v -5.076111 0.008002 -3.165825
v -5.399325 0.008001 -0.757269
v -5.501391 0.008001 -2.092637
v -5.356798 0.008002 -2.756068
v -4.029314 0.390150 -4.465573
v -3.296725 0.250481 -4.688010
v -2.723478 0.250481 -5.119132
v -2.837015 0.008002 -5.375766
v -2.413570 0.250481 -5.337441
v -2.498933 0.008002 -5.613923
v -1.665392 0.008002 -5.860583
v -1.593619 0.405407 -2.480381
v -3.131074 0.390150 -4.470567
v -2.609941 0.390150 -4.862496
v -2.328207 0.390150 -5.060960
v -1.580303 0.250481 -5.594881
v -0.789323 0.008002 -5.809549
v -1.495214 0.390150 -5.329178
v -0.777240 0.250481 -5.548100
v 0.043842 0.008002 -5.775527
v -0.682153 0.405407 -2.875854
v -0.765157 0.390150 -5.286651
v 0.052226 0.250481 -5.518615
v 0.384445 0.008002 -5.656451
v -0.644326 0.420907 -2.672159
v 0.060610 0.390150 -5.261701
v 0.364445 0.250481 -5.409461
v 1.252008 0.008002 -5.086581
v 0.344446 0.390150 -5.162470
v 1.242562 0.250481 -4.864123
v 2.061219 0.250481 -4.910903
v 2.145088 0.008002 -5.137615
v 2.924698 0.008002 -4.729349
v 0.149902 0.405407 -2.932002
v 1.233116 0.390150 -4.641663
v 1.977350 0.390150 -4.684192
v 2.834194 0.250481 -4.492485
v 3.772459 0.250481 -4.250786
v 3.948260 0.008002 -4.523643
v 4.485169 0.147684 -3.914050
v 1.187726 0.405407 -2.649100
v 0.144452 0.420907 -2.692564
v 1.138657 0.420907 -2.417076
v 1.999834 0.405407 -2.051609
v 1.838650 0.420907 -1.886981
v 2.309137 0.420907 -1.160152
v 1.800085 0.594428 -1.849119
v 2.258920 0.594428 -1.140290
v 1.725618 0.767948 -1.780589
v 2.164008 0.767948 -1.103344
v 1.982060 0.900408 -1.033133
v 2.288338 0.767948 -0.287868
v 3.596658 0.390150 -4.035895
v 2.743690 0.390150 -4.255620
v 4.170091 0.250481 -3.673828
v 3.958143 0.390150 -3.511387
v 2.483092 0.405407 -1.221926
v 4.085727 0.390150 -2.952684
v 4.335027 0.225577 -3.059255
v 4.600313 0.008002 -3.177440
v 2.442569 0.420907 -0.284969
v 2.389048 0.594428 -0.286781
v 1.117428 0.594428 -2.366086
v 0.147845 0.594428 -2.634751
v -0.621398 0.594428 -2.614851
v 1.073380 0.767948 -2.274520
v 0.147001 0.767948 -2.531213
v -0.587965 0.767948 -2.512201
v 4.369692 0.390150 -2.475908
v 4.575747 0.250481 -2.607483
v 4.781803 0.008002 -2.739059
v 5.173057 0.008002 -2.084134
v 4.934397 0.250481 -2.007135
v 4.695737 0.390150 -1.930137
v 2.644392 0.405407 -0.284969
v 4.738265 0.390150 -1.526124
v 4.981177 0.250481 -1.562721
v 5.224091 0.008002 -1.599319
v 5.598337 0.008002 -0.284969
v 5.335356 0.250481 -0.284969
v 5.072375 0.390150 -0.284969
v 2.316672 0.594428 0.170903
v 2.368355 0.420907 0.184338
v 2.590730 0.405407 0.240344
v 4.684348 0.390150 0.767632
v 4.915946 0.250481 0.825961
v 5.147545 0.008002 0.884291
v 2.100364 0.420907 0.819321
v 2.341145 0.405407 0.873296
v 5.122029 0.008002 1.496689
v 4.870223 0.250481 1.440241
v 4.618418 0.390150 1.383794
v 1.762371 0.405407 1.526440
v 4.261970 0.390150 1.919908
v 4.530395 0.250481 1.971969
v 4.798820 0.008001 2.024031
v 0.934189 0.405407 2.016999
v 1.577722 0.420907 1.399289
v 2.055318 0.594428 0.790159
v 2.219186 0.767948 0.149422
v 2.095735 0.900408 -0.287541
v 1.761067 0.988704 -0.947999
v 1.581239 0.900408 -1.652340
v 1.405497 0.988704 -1.497301
v 0.984896 0.900408 -2.103942
v 0.876478 0.988704 -1.897920
v 0.125107 0.988704 -2.106119
v 0.021522 1.085831 -1.709271
v -0.471012 0.988704 -2.090698
v -0.276538 1.085831 -1.701560
v -1.098471 0.988704 -1.806526
v -0.933358 1.085832 -1.403275
v -1.667480 0.988704 -1.288511
v -1.217863 1.085831 -1.144267
v -1.480087 1.085831 -0.590662
v -1.075180 1.138092 -0.419671
v -1.519323 1.085831 -0.353125
v 0.844550 0.594428 1.773106
v 1.545619 0.594428 1.355764
v 1.969478 0.767948 0.741085
v 2.032509 0.900408 0.112274
v 1.861910 0.988704 -0.286579
v 1.402171 1.085832 -0.710253
v 1.034272 1.085831 -1.291219
v 0.769762 1.085832 -1.491529
v -0.082064 1.138092 -1.312423
v -0.768245 1.138092 -1.000023
v 0.663046 1.138092 -1.085137
v 0.262967 1.203664 -0.044360
v 0.356772 1.203664 -0.172569
v 0.043841 1.233920 -0.284968
v 0.376986 1.203664 -0.347482
v 0.250243 1.203664 -0.551691
v 0.001873 1.203664 -0.627453
v -0.226854 1.203664 -0.523320
v -0.329166 1.203664 -0.329869
v -0.964959 1.138092 0.170539
v -1.406365 1.085831 0.204827
v -1.288458 1.085831 0.482383
v -1.611957 0.988704 0.794226
v -1.116450 0.988704 1.202606
v -1.261655 0.900408 1.391160
v -0.521581 1.085831 1.041029
v -0.790521 1.085831 0.916400
v -0.464592 1.138092 0.630195
v -0.292425 1.203664 -0.133133
v 0.701219 1.138092 0.436856
v 0.218486 1.138092 0.669335
v 0.441749 1.085831 0.989524
v 0.133778 1.085831 1.076064
v 0.049071 0.988704 1.482795
v -0.578570 0.988704 1.451863
v -0.655323 0.900408 1.672138
v -0.720575 0.767948 1.855491
v -1.383739 0.767948 1.548177
v -0.760193 0.594428 1.956538
v -1.454284 0.594428 1.634892
v -0.786645 0.420907 2.015319
v -1.498363 0.420907 1.685505
v -0.826143 0.405407 2.196997
v -1.649094 0.405407 1.896010
v -1.150347 0.390150 3.688242
v -2.613906 0.390150 3.243437
v -1.186718 0.250481 3.855534
v -2.725461 0.250481 3.399230
v -1.223088 0.008001 4.022826
v -2.837015 0.008001 3.555023
v 0.059615 0.250481 4.589839
v 0.058181 0.390150 4.359513
v 0.068454 0.405407 2.229421
v 0.043841 0.420907 2.056247
v 0.689172 0.390150 4.503088
v 0.858849 0.420907 1.827230
v 0.049726 0.594428 1.996453
v 0.053254 0.767948 1.893626
v -2.154011 0.420907 1.145141
v -2.356201 0.405407 1.319712
v -3.554239 0.390150 2.354097
v -3.694262 0.250481 2.474992
v -3.834284 0.008001 2.595888
v -1.847771 0.988704 0.239114
v -2.086043 0.900408 0.305053
v -1.820220 0.900408 0.930810
v -2.285397 0.767948 0.360269
v -1.994658 0.767948 1.044678
v -2.397994 0.594428 0.391584
v -2.093695 0.594428 1.107911
v -2.466038 0.420907 0.410623
v -2.738875 0.405407 0.677640
v -3.854343 0.390150 1.769310
v -1.884994 0.988704 -0.761653
v -1.963466 0.988704 -0.286579
v -2.128004 0.900408 -0.823072
v -2.216463 0.900408 -0.287541
v -4.439805 0.390150 0.880793
v -4.526838 0.390150 -0.126589
v -2.802421 0.405407 -0.855653
v -2.515292 0.420907 -0.913580
v -2.227480 0.420907 -1.610714
v -2.446028 0.594428 -0.899825
v -2.165344 0.594428 -1.579694
v -2.331291 0.767948 -0.873595
v -2.063114 0.767948 -1.523169
v -1.882809 0.900408 -1.416980
v -2.869251 0.405407 -0.193705
v -2.619125 0.420907 -0.284969
v -2.547290 0.594428 -0.286781
v -2.428040 0.767948 -0.287868
v -1.431083 0.594428 -2.248150
v -1.361572 0.767948 -2.161840
v -1.474573 0.420907 -2.296145
v -1.241387 0.900408 -2.000918
v -0.534077 0.900408 -2.321254
v 0.137905 0.900408 -2.338638
v 0.102056 1.203664 0.033132
v -0.125637 1.203664 0.020086
v 1.452592 1.085832 -0.379543
v 1.805822 0.988704 0.068099
v 0.052192 0.900408 1.707005
v 0.746520 0.900408 1.511899
v 0.665013 0.988704 1.309714
v 1.208301 0.988704 0.986299
v 0.954760 1.085831 0.711577
v 1.603288 0.988704 0.547987
v 1.292961 1.085832 0.300109
v 1.394228 1.085832 0.060165
v 1.043275 1.138092 -0.472508
v 1.358947 0.900408 1.147325
v 0.812661 0.767948 1.680233
v 1.482491 0.767948 1.281487
v 1.804201 0.900408 0.653234
v 0.982635 1.138092 0.052231
v 4.432083 0.390150 3.415460
v 0.061049 0.008001 4.820167
v 0.753705 0.250481 4.747772
v 1.314074 0.390150 4.613765
v 2.592234 0.390150 4.655902
v 3.893400 0.390150 4.081726
v 4.717519 0.250481 3.617077
v 4.721808 0.008001 2.595888
v 1.359596 0.250481 4.892418
v 0.818238 0.008001 4.992456
v 2.765573 0.250481 4.938768
v 1.405119 0.008001 5.171072
v 4.124969 0.250481 4.349968
v 2.938911 0.008001 5.221636
v 5.002955 0.008001 3.818695
v 4.356535 0.008001 4.618213
vn -0.0000 -1.0000 -0.0000
vn 0.2992 -0.9404 -0.1619
vn 0.6107 -0.7291 -0.3090
vn 0.8017 -0.4492 -0.3943
vn -0.8959 0.4120 -0.1660
vn -0.9160 0.3248 -0.2356
vn -0.9747 0.2106 0.0748
vn -0.3709 0.3053 -0.8770
vn -0.7656 0.4676 -0.4418
vn -0.8582 0.0974 0.5040
vn -0.8128 0.2360 0.5325
vn -0.8896 0.1173 0.4413
vn -0.9169 0.2673 0.2963
vn -0.9344 0.1466 0.3246
vn -0.8925 0.3232 0.3147
vn -0.9098 0.3257 0.2574
vn -0.5237 0.8175 0.2396
vn -0.6198 0.7811 -0.0758
vn -0.0423 0.9958 -0.0809
vn -0.5914 0.7602 -0.2691
vn -0.5443 0.8234 -0.1605
vn -0.5312 0.8085 -0.2534
vn -0.2269 0.4289 -0.8744
vn -0.3054 0.2639 -0.9149
vn -0.9112 0.4013 -0.0936
vn -0.8498 0.3580 -0.3869
vn -0.8635 0.2893 -0.4132
vn -0.9490 0.2038 0.2405
vn -0.9547 0.2669 -0.1316
vn -0.8805 0.2663 -0.3921
vn -0.0872 0.8619 -0.4995
vn -0.2764 0.4469 -0.8508
vn -0.5056 0.4159 -0.7559
vn -0.5598 0.2705 -0.7832
vn -0.3488 0.3726 -0.8599
vn -0.4266 0.2843 -0.8586
vn -0.1739 0.2735 -0.9460
vn -0.0389 0.9953 -0.0882
vn -0.1493 0.8121 -0.5641
vn -0.3528 0.7913 -0.4994
vn -0.2353 0.8304 -0.5050
vn -0.0839 0.4152 -0.9059
vn 0.0511 0.2444 -0.9683
vn -0.0218 0.7965 -0.6043
vn 0.0413 0.3854 -0.9218
vn 0.1278 0.2257 -0.9658
vn -0.0109 0.9953 -0.0966
vn 0.0249 0.7727 -0.6343
vn 0.1920 0.3662 -0.9105
vn 0.3973 0.1840 -0.8991
vn -0.2388 0.5778 -0.7804
vn 0.1336 0.8416 -0.5233
vn 0.4288 0.3076 -0.8494
vn 0.2403 0.1977 -0.9504
vn 0.3296 0.7170 -0.6142
vn 0.2145 0.3736 -0.9024
vn 0.2653 0.2871 -0.9204
vn 0.1870 0.1866 -0.9645
vn 0.3414 0.2589 -0.9035
vn 0.0053 0.9954 -0.0958
vn 0.1265 0.8708 -0.4752
vn 0.1642 0.7179 -0.6765
vn 0.3245 0.4335 -0.8407
vn 0.4304 0.4904 -0.7578
vn 0.3721 0.3460 -0.8613
vn 0.6343 0.6722 -0.3818
vn 0.0277 0.9954 -0.0918
vn 0.0536 0.4620 -0.8853
vn 0.3294 0.4540 -0.8279
vn 0.0594 0.9954 -0.0752
vn 0.6490 0.2801 -0.7074
vn 0.8039 0.4414 -0.3987
vn 0.6990 -0.0116 -0.7151
vn 0.9342 -0.0119 -0.3564
vn 0.7358 0.1931 -0.6490
vn 0.9480 0.1461 -0.2828
vn 0.8059 0.5053 -0.3084
vn 0.9779 0.1969 0.0710
vn 0.3621 0.7680 -0.5283
vn 0.1578 0.9035 -0.3984
vn 0.7619 0.5919 -0.2628
vn 0.6090 0.7647 -0.2105
vn 0.0745 0.9952 -0.0632
vn 0.4209 0.8898 -0.1765
vn 0.8092 0.4624 -0.3625
vn 0.8692 0.4173 -0.2651
vn 0.8192 0.5681 -0.0780
vn 0.9986 -0.0147 0.0506
vn 0.4296 -0.0131 -0.9029
vn 0.1098 -0.0126 -0.9939
vn -0.2383 -0.0056 -0.9712
vn 0.4541 0.2300 -0.8608
vn 0.1185 0.1970 -0.9732
vn -0.2177 0.2120 -0.9527
vn 0.5754 0.7424 -0.3433
vn 0.8053 0.3837 -0.4520
vn 0.8555 0.2155 -0.4708
vn 0.9251 0.2136 -0.3138
vn 0.9017 0.3031 -0.3084
vn 0.6486 0.7256 -0.2301
vn 0.0640 0.9957 -0.0665
vn 0.4175 0.9013 -0.1152
vn 0.8826 0.4238 -0.2037
vn 0.9545 0.2243 -0.1967
vn 0.9691 0.2320 0.0841
vn 0.9451 0.3192 0.0695
vn 0.6684 0.7388 0.0862
vn 0.9567 -0.0161 0.2907
vn 0.8697 0.4632 0.1706
vn 0.1082 0.9916 0.0704
vn 0.3510 0.9308 0.1025
vn 0.8884 0.4173 0.1913
vn 0.9506 0.2279 0.2107
vn 0.7788 0.4529 0.4340
vn 0.0649 0.9955 0.0697
vn 0.9275 0.2248 0.2987
vn 0.8994 0.3118 0.3064
vn 0.6395 0.7310 0.2379
vn 0.0462 0.9954 0.0845
vn 0.4048 0.9044 0.1350
vn 0.9138 0.3828 0.1358
vn 0.8713 0.2581 0.4174
vn 0.0313 0.9952 0.0926
vn 0.5906 0.3501 0.7271
vn 0.8677 -0.0140 0.4969
vn 0.9540 0.1902 0.2317
vn 0.8282 0.5598 0.0266
vn 0.5900 0.7699 -0.2432
vn 0.5948 0.5624 -0.5743
vn 0.4282 0.8005 -0.4193
vn 0.3443 0.6210 -0.7042
vn 0.2515 0.8261 -0.5044
vn 0.1024 0.7725 -0.6267
vn 0.0497 0.8973 -0.4385
vn -0.0777 0.7988 -0.5966
vn -0.1112 0.9239 -0.3661
vn -0.2892 0.8062 -0.5162
vn -0.2415 0.9097 -0.3378
vn -0.4369 0.8272 -0.3534
vn -0.2745 0.9408 -0.1989
vn -0.3675 0.9183 -0.1471
vn -0.2357 0.9702 -0.0565
vn -0.4040 0.9113 0.0802
vn 0.3505 -0.0158 0.9364
vn 0.6421 0.0145 0.7664
vn 0.8488 0.1868 0.4946
vn 0.8034 0.5513 0.2252
vn 0.6055 0.7941 0.0527
vn 0.3975 0.9013 -0.1720
vn 0.2802 0.9194 -0.2760
vn 0.1505 0.9309 -0.3328
vn -0.0104 0.9654 -0.2607
vn -0.1581 0.9699 -0.1854
vn 0.1458 0.9692 -0.1984
vn 0.1291 0.9748 0.1822
vn 0.1945 0.9750 0.1073
vn 0.0131 0.9965 0.0827
vn 0.2066 0.9752 -0.0799
vn 0.1272 0.9750 -0.1821
vn 0.0083 0.9752 -0.2210
vn -0.1231 0.9757 -0.1813
vn -0.1893 0.9800 -0.0609
vn -0.2043 0.9700 0.1318
vn -0.3556 0.9253 0.1321
vn -0.2952 0.9178 0.2656
vn -0.4846 0.8035 0.3459
vn -0.2961 0.8118 0.5033
vn -0.4253 0.5709 0.7023
vn -0.1032 0.9009 0.4215
vn -0.1995 0.9357 0.2910
vn -0.0911 0.9654 0.2443
vn -0.1622 0.9798 0.1168
vn 0.1774 0.9601 0.2161
vn 0.0533 0.9644 0.2588
vn 0.1517 0.9022 0.4037
vn 0.0274 0.9259 0.3768
vn 0.0925 0.7910 0.6048
vn -0.1170 0.7749 0.6212
vn -0.1794 0.5592 0.8094
vn -0.2110 0.2056 0.9556
vn -0.5194 0.2149 0.8271
vn -0.2219 -0.0050 0.9750
vn -0.5397 -0.0015 0.8418
vn -0.2756 0.2891 0.9168
vn -0.5017 0.4744 0.7233
vn -0.0256 0.9874 0.1562
vn -0.0377 0.9954 0.0876
vn -0.1746 0.8910 0.4191
vn -0.4002 0.6094 0.6844
vn -0.3946 0.2565 0.8823
vn -0.5118 0.1615 0.8438
vn -0.3952 0.0964 0.9135
vn -0.4872 0.0909 0.8686
vn -0.3596 0.2602 0.8961
vn -0.2980 0.6769 0.6730
vn 0.0110 0.9949 0.1001
vn 0.0423 0.4487 0.8927
vn -0.1156 0.8155 0.5672
vn 0.3037 0.4506 0.8395
vn 0.1320 -0.0127 0.9912
vn 0.1175 0.1876 0.9752
vn -0.5101 0.7635 0.3960
vn -0.0483 0.9956 0.0809
vn -0.5338 0.7710 0.3473
vn -0.7836 0.2185 0.5816
vn -0.7498 0.0896 0.6556
vn -0.5239 0.8348 0.1694
vn -0.7184 0.6519 0.2429
vn -0.6726 0.5367 0.5094
vn -0.8961 0.3246 0.3027
vn -0.7880 0.1535 0.5963
vn -0.9432 0.0411 0.3297
vn -0.7951 -0.0246 0.6060
vn -0.8638 0.3963 0.3112
vn -0.0630 0.9958 0.0661
vn -0.5330 0.7798 0.3284
vn -0.5515 0.8153 -0.1766
vn -0.6052 0.7931 0.0696
vn -0.7666 0.6002 -0.2283
vn -0.8349 0.5472 0.0589
vn -0.5750 0.8029 0.1574
vn -0.4768 0.8617 0.1734
vn -0.0602 0.9958 -0.0688
vn -0.7750 0.6004 -0.1972
vn -0.7573 0.4766 -0.4464
vn -0.9732 0.0098 -0.2297
vn -0.8057 0.0074 -0.5922
vn -0.9426 0.2385 -0.2337
vn -0.7753 0.2379 -0.5851
vn -0.6409 0.5982 -0.4809
vn -0.0841 0.9956 0.0417
vn -0.8862 0.4583 0.0679
vn -0.9902 -0.0123 0.1389
vn -0.9780 0.1642 0.1283
vn -0.5332 -0.0022 -0.8460
vn -0.5141 0.2179 -0.8296
vn -0.5730 0.2998 -0.7627
vn -0.4520 0.5780 -0.6794
vn -0.1628 0.5729 -0.8033
vn 0.1178 0.5585 -0.8211
vn 0.0418 0.9747 0.2197
vn -0.0599 0.9753 0.2125
vn 0.4173 0.9054 0.0783
vn 0.5665 0.7999 0.1981
vn 0.1094 0.5386 0.8354
vn 0.3150 0.5893 0.7440
vn 0.2520 0.7923 0.5557
vn 0.3945 0.7497 0.5313
vn 0.2922 0.8873 0.3569
vn 0.5016 0.7787 0.3768
vn 0.3570 0.9105 0.2087
vn 0.3563 0.9266 0.1207
vn 0.2504 0.9653 -0.0747
vn 0.5280 0.5288 0.6645
vn 0.4175 0.2087 0.8844
vn 0.6522 0.2423 0.7183
vn 0.7031 0.5434 0.4587
vn 0.2388 0.9648 0.1101
vn 0.5388 0.8391 0.0741
vn -0.3236 0.1465 0.9348
vn -0.2070 0.3228 0.9236
vn -0.0953 0.7692 0.6319
vn 0.0466 0.8850 0.4632
vn 0.3303 0.8352 0.4396
vn 0.8966 0.4121 0.1619
vn 0.9674 0.2375 -0.0879
vn -0.1378 0.3860 0.9122
vn -0.2449 0.1970 0.9493
vn 0.1355 0.4800 0.8667
vn -0.1137 0.2579 0.9594
vn 0.5153 0.4887 0.7040
vn 0.2339 0.3444 0.9092
vn 0.8780 0.3607 0.3146
vn 0.5440 0.4014 0.7368
vt 0.430095 0.977640
vt 0.239387 0.998272
vt 0.377318 0.993720
vt 0.111903 0.943949
vt 0.053772 0.871972
vt 0.498188 0.962129
vt 0.613668 0.890349
vt 0.058353 0.765492
vt 0.072130 0.710408
vt 0.043064 0.662934
vt 0.758805 0.848235
vt 0.040769 0.607802
vt 0.848487 0.761889
vt 0.000230 0.502540
vt 0.935687 0.628477
vt 0.033886 0.384216
vt 0.875261 0.711939
vt 0.038475 0.340570
vt 0.073660 0.281611
vt 0.946013 0.525309
vt 0.086429 0.240453
vt 0.240666 0.102435
vt 0.146516 0.117006
vt 0.090368 0.171338
vt 0.989228 0.460021
vt 0.998407 0.339805
vt 0.391087 0.070275
vt 0.469106 0.018973
vt 0.310774 0.065681
vt 0.985404 0.280079
vt 0.960163 0.243191
vt 0.499735 0.008253
vt 0.574660 0.005190
vt 0.963807 0.201445
vt 0.960163 0.123875
vt 0.815042 0.086581
vt 0.728402 0.022801
vt 0.653443 0.000596
vt 0.911975 0.087121
vt 0.758805 0.044241
vt 0.938815 0.254858
vt 0.938815 0.145484
vt 0.862776 0.699708
vt 0.919314 0.617982
vt 0.928390 0.521053
vt 0.967616 0.458848
vt 0.946003 0.457676
vt 0.949338 0.347036
vt 0.726609 0.371670
vt 0.938502 0.297264
vt 0.917467 0.266524
vt 0.917467 0.167094
vt 0.889000 0.106651
vt 0.973873 0.343420
vt 0.961953 0.288672
vt 0.866026 0.126181
vt 0.800146 0.106156
vt 0.748595 0.067345
vt 0.720725 0.047691
vt 0.646971 0.304880
vt 0.785249 0.125732
vt 0.738385 0.090448
vt 0.713049 0.072582
vt 0.645791 0.024515
vt 0.638140 0.048435
vt 0.573573 0.028727
vt 0.565015 0.269283
vt 0.572487 0.052264
vt 0.498981 0.031381
vt 0.561417 0.288342
vt 0.498227 0.054510
vt 0.470904 0.041208
vt 0.472703 0.063443
vt 0.391937 0.090302
vt 0.318317 0.086091
vt 0.490204 0.264229
vt 0.392786 0.110329
vt 0.325859 0.106500
vt 0.248804 0.123759
vt 0.161144 0.142644
vt 0.396877 0.289700
vt 0.490743 0.286546
vt 0.401589 0.311285
vt 0.323850 0.343483
vt 0.338870 0.358859
vt 0.296719 0.424067
vt 0.348713 0.367719
vt 0.309170 0.428867
vt 0.361389 0.378922
vt 0.325124 0.435007
vt 0.338571 0.440212
vt 0.314839 0.502540
vt 0.180238 0.164863
vt 0.256943 0.145082
vt 0.125386 0.195816
vt 0.147730 0.212082
vt 0.280393 0.418173
vt 0.136257 0.262379
vt 0.113769 0.252758
vt 0.284789 0.502575
vt 0.297983 0.502518
vt 0.407551 0.323094
vt 0.491219 0.299859
vt 0.557531 0.301500
vt 0.415346 0.338017
vt 0.491980 0.316760
vt 0.552780 0.318334
vt 0.110720 0.305301
vt 0.092190 0.293456
vt 0.059937 0.347502
vt 0.081400 0.354434
vt 0.265886 0.502540
vt 0.077575 0.390805
vt 0.055730 0.387510
vt 0.023880 0.502540
vt 0.047529 0.502540
vt 0.304234 0.541925
vt 0.291448 0.544625
vt 0.270707 0.549840
vt 0.082424 0.597300
vt 0.061597 0.602551
vt 0.315467 0.601598
vt 0.293155 0.606827
vt 0.065708 0.657852
vt 0.088353 0.652770
vt 0.345206 0.665619
vt 0.120407 0.701034
vt 0.096268 0.705721
vt 0.419682 0.709786
vt 0.362307 0.653626
vt 0.326771 0.595353
vt 0.320559 0.538754
vt 0.329091 0.502514
vt 0.354226 0.446263
vt 0.372024 0.388485
vt 0.384447 0.399525
vt 0.421798 0.350744
vt 0.429411 0.365438
vt 0.493273 0.347723
vt 0.502178 0.378977
vt 0.543939 0.349035
vt 0.527478 0.379629
vt 0.597270 0.373214
vt 0.584967 0.405767
vt 0.645632 0.417290
vt 0.609126 0.427782
vt 0.632160 0.476292
vt 0.600367 0.490413
vt 0.635490 0.496475
vt 0.431182 0.680196
vt 0.370715 0.644145
vt 0.341216 0.587752
vt 0.334366 0.535883
vt 0.345655 0.502540
vt 0.382129 0.465992
vt 0.414318 0.415078
vt 0.436773 0.398057
vt 0.511058 0.410043
vt 0.572765 0.438167
vt 0.444051 0.430505
vt 0.480030 0.524201
vt 0.471594 0.512659
vt 0.499735 0.502540
vt 0.469776 0.496912
vt 0.481174 0.478528
vt 0.503509 0.471708
vt 0.524078 0.481082
vt 0.533279 0.498498
vt 0.590455 0.543547
vt 0.625619 0.545382
vt 0.615612 0.568972
vt 0.640913 0.594501
vt 0.598798 0.629248
vt 0.609389 0.642797
vt 0.549247 0.617600
vt 0.572077 0.607010
vt 0.545458 0.584927
vt 0.529975 0.516209
vt 0.440619 0.567522
vt 0.484030 0.588451
vt 0.465746 0.613311
vt 0.491893 0.620671
vt 0.499735 0.653088
vt 0.553081 0.650457
vt 0.558769 0.666279
vt 0.563750 0.680040
vt 0.618610 0.654590
vt 0.569581 0.696163
vt 0.629459 0.668420
vt 0.574273 0.708929
vt 0.638050 0.679322
vt 0.577957 0.725984
vt 0.651958 0.698895
vt 0.607126 0.860228
vt 0.738741 0.820185
vt 0.610397 0.875288
vt 0.748773 0.834210
vt 0.498317 0.941394
vt 0.498446 0.920659
vt 0.497517 0.728908
vt 0.499836 0.712602
vt 0.441702 0.933584
vt 0.426757 0.692037
vt 0.499740 0.699539
vt 0.499735 0.683198
vt 0.696835 0.630834
vt 0.715550 0.647020
vt 0.823304 0.740122
vt 0.835895 0.751005
vt 0.660956 0.547269
vt 0.678212 0.552036
vt 0.656033 0.604343
vt 0.693200 0.556215
vt 0.669148 0.612893
vt 0.710915 0.561084
vt 0.684677 0.622956
vt 0.724761 0.564933
vt 0.749971 0.589217
vt 0.850291 0.687476
vt 0.664119 0.462118
vt 0.670789 0.502540
vt 0.681720 0.457763
vt 0.689113 0.502504
vt 0.902941 0.607487
vt 0.910768 0.516798
vt 0.755685 0.451172
vt 0.729172 0.446126
vt 0.703369 0.383564
vt 0.715074 0.449540
vt 0.690837 0.390827
vt 0.696996 0.454034
vt 0.674811 0.400240
vt 0.661260 0.408131
vt 0.761699 0.510764
vt 0.738497 0.502494
vt 0.723833 0.502463
vt 0.705000 0.502540
vt 0.627404 0.333131
vt 0.616776 0.347349
vt 0.635853 0.322076
vt 0.607682 0.359328
vt 0.548625 0.332555
vt 0.492539 0.331120
vt 0.494500 0.531177
vt 0.514976 0.530002
vt 0.377852 0.494099
vt 0.350422 0.532718
vt 0.499709 0.669177
vt 0.441727 0.652854
vt 0.447384 0.638362
vt 0.401208 0.610844
vt 0.420976 0.589106
vt 0.367636 0.573550
vt 0.391558 0.553171
vt 0.382959 0.532782
vt 0.409858 0.485657
vt 0.390583 0.622372
vt 0.436914 0.665526
vt 0.381502 0.632504
vt 0.353416 0.581085
vt 0.415311 0.532896
vt 0.105109 0.835671
vt 0.435899 0.955612
vt 0.385506 0.943548
vt 0.270563 0.947342
vt 0.153552 0.895651
vt 0.079441 0.853821
vt 0.381412 0.968634
vt 0.254975 0.972807
vt 0.132728 0.919800
s 0
usemtl bu_freidegg_01
f 1/1/1 2/2/1 3/3/1
f 4/4/1 2/2/1 5/5/1
f 2/2/1 1/1/1 5/5/1
f 5/5/1 1/1/1 6/6/1
f 6/6/1 7/7/1 5/5/1
f 7/7/1 8/8/1 5/5/1
f 8/8/1 7/7/1 9/9/1
f 7/7/1 10/10/1 9/9/1
f 7/7/1 11/11/1 10/10/1
f 11/11/1 12/12/1 10/10/1
f 11/11/1 13/13/1 12/12/1
f 13/13/1 14/14/1 12/12/1
f 15/15/1 16/16/1 17/17/1
f 16/16/1 14/14/1 17/17/1
f 17/17/1 14/14/1 13/13/1
f 18/18/1 16/16/1 19/19/1
f 16/16/1 15/15/1 19/19/1
f 19/19/1 15/15/1 20/20/1
s 1
f 19/19/1 20/20/1 21/21/2
f 20/20/1 22/22/1 21/21/2
f 21/21/2 22/22/1 23/23/3
f 21/21/2 23/23/3 24/24/4
s 0
f 20/20/1 25/25/1 22/22/1
f 25/25/1 26/26/1 22/22/1
f 22/22/1 26/26/1 27/27/1
f 26/26/1 28/28/1 27/27/1
f 22/22/1 27/27/1 29/29/1
f 26/26/1 30/30/1 28/28/1
f 30/30/1 31/31/1 28/28/1
f 28/28/1 31/31/1 32/32/1
f 31/31/1 33/33/1 32/32/1
f 34/34/1 35/35/1 31/31/1
f 35/35/1 36/36/1 31/31/1
f 31/31/1 36/36/1 33/33/1
f 36/36/1 37/37/1 33/33/1
f 33/33/1 37/37/1 38/38/1
f 36/36/1 35/35/1 39/39/1
f 37/37/1 36/36/1 40/40/1
s 1
f 41/41/5 42/35/6 43/34/7
f 44/39/8 42/35/6 45/42/9
f 42/35/6 41/41/5 45/42/9
f 46/17/10 47/43/11 48/15/12
f 47/43/11 49/44/13 48/15/12
f 48/15/12 49/44/13 50/20/14
f 49/44/13 51/45/15 50/20/14
f 50/20/14 51/45/15 52/46/16
f 51/45/15 53/47/17 52/46/16
f 52/46/16 53/47/17 54/48/18
f 53/47/17 55/49/19 54/48/18
f 54/48/18 55/49/19 56/50/20
f 55/49/19 57/51/21 56/50/20
f 56/50/20 57/51/21 41/41/5
f 57/51/21 58/52/22 41/41/5
f 41/41/5 58/52/22 45/42/9
f 58/52/22 59/53/23 45/42/9
f 45/42/9 59/53/23 44/39/8
f 59/53/23 60/36/24 44/39/8
f 52/46/16 54/48/18 61/54/25
f 54/48/18 56/50/20 61/54/25
f 61/54/25 56/50/20 62/55/26
f 56/50/20 41/41/5 62/55/26
f 62/55/26 41/41/5 63/31/27
f 41/41/5 43/34/7 63/31/27
f 50/20/14 52/46/16 64/25/28
f 52/46/16 61/54/25 64/25/28
f 64/25/28 61/54/25 65/26/29
f 61/54/25 62/55/26 65/26/29
f 65/26/29 62/55/26 66/30/30
f 62/55/26 63/31/27 66/30/30
f 57/51/21 55/49/19 58/52/22
f 55/49/19 67/56/31 58/52/22
f 58/52/22 67/56/31 59/53/23
f 67/56/31 68/57/32 59/53/23
f 59/53/23 68/57/32 60/36/24
f 68/57/32 69/58/33 60/36/24
f 60/36/24 69/58/33 70/40/34
f 69/58/33 71/59/35 70/40/34
f 70/40/34 71/59/35 72/37/36
f 71/59/35 73/38/37 72/37/36
f 55/49/19 74/60/38 67/56/31
f 74/60/38 75/61/39 67/56/31
f 67/56/31 75/61/39 68/57/32
f 75/61/39 76/62/40 68/57/32
f 68/57/32 76/62/40 69/58/33
f 76/62/40 77/63/41 69/58/33
f 69/58/33 77/63/41 71/59/35
f 77/63/41 78/64/42 71/59/35
f 71/59/35 78/64/42 73/38/37
f 78/64/42 79/33/43 73/38/37
f 75/61/39 74/60/38 76/62/40
f 74/60/38 77/63/41 76/62/40
f 77/63/41 80/65/44 78/64/42
f 80/65/44 81/66/45 78/64/42
f 78/64/42 81/66/45 79/33/43
f 81/66/45 82/32/46 79/33/43
f 77/63/41 83/67/47 80/65/44
f 83/67/47 84/68/48 80/65/44
f 80/65/44 84/68/48 81/66/45
f 84/68/48 85/69/49 81/66/45
f 81/66/45 85/69/49 82/32/46
f 85/69/49 86/28/50 82/32/46
f 87/70/51 83/67/47 74/60/38
f 83/67/47 77/63/41 74/60/38
f 84/68/48 88/71/52 85/69/49
f 88/71/52 89/72/53 85/69/49
f 85/69/49 89/72/53 86/28/50
f 89/72/53 90/27/54 86/28/50
f 88/71/52 91/73/55 89/72/53
f 91/73/55 92/74/56 89/72/53
f 89/72/53 92/74/56 90/27/54
f 92/74/56 93/75/57 90/27/54
f 90/27/54 93/75/57 94/29/58
f 93/75/57 95/22/59 94/29/58
f 84/68/48 83/67/47 88/71/52
f 83/67/47 96/76/60 88/71/52
f 88/71/52 96/76/60 91/73/55
f 96/76/60 97/77/61 91/73/55
f 91/73/55 97/77/61 92/74/56
f 97/77/61 98/78/62 92/74/56
f 92/74/56 98/78/62 93/75/57
f 98/78/62 99/79/63 93/75/57
f 93/75/57 99/79/63 95/22/59
f 99/79/63 100/80/64 95/22/59
f 95/22/59 100/80/64 101/23/65
f 100/80/64 102/24/66 101/23/65
f 96/76/60 103/81/67 97/77/61
f 103/81/67 98/78/62 97/77/61
f 83/67/47 87/70/51 96/76/60
f 87/70/51 104/82/68 96/76/60
f 96/76/60 104/82/68 103/81/67
f 104/82/68 105/83/69 103/81/67
f 103/81/67 105/83/69 106/84/70
f 105/83/69 107/85/71 106/84/70
f 106/84/70 107/85/71 108/86/72
f 107/85/71 109/87/73 108/86/72
f 108/86/72 109/87/73 110/88/74
f 109/87/73 111/89/75 110/88/74
f 110/88/74 111/89/75 112/90/76
f 111/89/75 113/91/77 112/90/76
f 112/90/76 113/91/77 114/92/78
f 100/80/64 99/79/63 115/93/79
f 99/79/63 116/94/80 115/93/79
f 115/93/79 116/94/80 106/84/70
f 116/94/80 103/81/67 106/84/70
f 99/79/63 98/78/62 116/94/80
f 98/78/62 103/81/67 116/94/80
f 102/24/66 100/80/64 117/95/81
f 100/80/64 115/93/79 117/95/81
f 117/95/81 115/93/79 118/96/82
f 115/93/79 106/84/70 118/96/82
f 108/86/72 119/97/83 106/84/70
f 119/97/83 120/98/84 106/84/70
f 106/84/70 120/98/84 118/96/82
f 120/98/84 121/99/85 118/96/82
f 118/96/82 121/99/85 117/95/81
f 121/99/85 122/21/86 117/95/81
f 117/95/81 122/21/86 102/24/66
f 119/97/83 108/86/72 123/100/87
f 108/86/72 110/88/74 123/100/87
f 123/100/87 110/88/74 124/101/88
f 110/88/74 112/90/76 124/101/88
f 124/101/88 112/90/76 114/92/78
f 109/87/73 107/85/71 125/102/89
f 107/85/71 105/83/69 125/102/89
f 125/102/89 105/83/69 126/103/90
f 105/83/69 104/82/68 126/103/90
f 126/103/90 104/82/68 127/104/91
f 104/82/68 87/70/51 127/104/91
f 111/89/75 109/87/73 128/105/92
f 109/87/73 125/102/89 128/105/92
f 128/105/92 125/102/89 129/106/93
f 125/102/89 126/103/90 129/106/93
f 129/106/93 126/103/90 130/107/94
f 126/103/90 127/104/91 130/107/94
f 120/98/84 131/108/95 121/99/85
f 131/108/95 132/109/96 121/99/85
f 121/99/85 132/109/96 122/21/86
f 132/109/96 133/19/97 122/21/86
f 134/18/98 133/19/97 135/110/99
f 133/19/97 132/109/96 135/110/99
f 135/110/99 132/109/96 136/111/100
f 132/109/96 131/108/95 136/111/100
f 136/111/100 131/108/95 119/97/83
f 131/108/95 120/98/84 119/97/83
f 123/100/87 137/112/101 119/97/83
f 137/112/101 138/113/102 119/97/83
f 119/97/83 138/113/102 136/111/100
f 138/113/102 139/114/103 136/111/100
f 136/111/100 139/114/103 135/110/99
f 139/114/103 140/16/104 135/110/99
f 135/110/99 140/16/104 134/18/98
f 141/14/105 140/16/104 142/115/106
f 140/16/104 139/114/103 142/115/106
f 142/115/106 139/114/103 143/116/107
f 139/114/103 138/113/102 143/116/107
f 143/116/107 138/113/102 137/112/101
f 114/92/78 144/117/108 124/101/88
f 144/117/108 145/118/109 124/101/88
f 124/101/88 145/118/109 123/100/87
f 145/118/109 146/119/110 123/100/87
f 123/100/87 146/119/110 137/112/101
f 146/119/110 147/120/111 137/112/101
f 137/112/101 147/120/111 143/116/107
f 147/120/111 148/121/112 143/116/107
f 143/116/107 148/121/112 142/115/106
f 148/121/112 149/12/113 142/115/106
f 142/115/106 149/12/113 141/14/105
f 144/117/108 150/122/114 145/118/109
f 150/122/114 151/123/115 145/118/109
f 145/118/109 151/123/115 146/119/110
f 151/123/115 147/120/111 146/119/110
f 152/10/116 149/12/113 153/124/117
f 149/12/113 148/121/112 153/124/117
f 153/124/117 148/121/112 154/125/118
f 148/121/112 147/120/111 154/125/118
f 154/125/118 147/120/111 151/123/115
f 150/122/114 155/126/119 151/123/115
f 155/126/119 156/127/120 151/123/115
f 151/123/115 156/127/120 154/125/118
f 156/127/120 157/128/121 154/125/118
f 154/125/118 157/128/121 153/124/117
f 157/128/121 158/9/122 153/124/117
f 153/124/117 158/9/122 152/10/116
f 159/129/123 155/126/119 160/130/124
f 155/126/119 150/122/114 160/130/124
f 160/130/124 150/122/114 161/131/125
f 150/122/114 144/117/108 161/131/125
f 161/131/125 144/117/108 162/132/126
f 144/117/108 114/92/78 162/132/126
f 162/132/126 114/92/78 163/133/127
f 114/92/78 113/91/77 163/133/127
f 163/133/127 113/91/77 164/134/128
f 113/91/77 165/135/129 164/134/128
f 164/134/128 165/135/129 166/136/130
f 165/135/129 167/137/131 166/136/130
f 166/136/130 167/137/131 168/138/132
f 167/137/131 169/139/133 168/138/132
f 168/138/132 169/139/133 170/140/134
f 169/139/133 171/141/135 170/140/134
f 170/140/134 171/141/135 172/142/136
f 171/141/135 173/143/137 172/142/136
f 172/142/136 173/143/137 174/144/138
f 173/143/137 175/145/139 174/144/138
f 174/144/138 175/145/139 176/146/140
f 175/145/139 177/147/141 176/146/140
f 176/146/140 177/147/141 178/148/142
f 177/147/141 179/149/143 178/148/142
f 180/150/144 160/130/124 181/151/145
f 160/130/124 161/131/125 181/151/145
f 181/151/145 161/131/125 182/152/146
f 161/131/125 162/132/126 182/152/146
f 182/152/146 162/132/126 183/153/147
f 162/132/126 163/133/127 183/153/147
f 183/153/147 163/133/127 184/154/148
f 163/133/127 164/134/128 184/154/148
f 184/154/148 164/134/128 185/155/149
f 164/134/128 166/136/130 185/155/149
f 185/155/149 166/136/130 186/156/150
f 166/136/130 168/138/132 186/156/150
f 186/156/150 168/138/132 187/157/151
f 168/138/132 170/140/134 187/157/151
f 187/157/151 170/140/134 188/158/152
f 170/140/134 172/142/136 188/158/152
f 188/158/152 172/142/136 189/159/153
f 172/142/136 174/144/138 189/159/153
f 178/148/142 189/159/153 176/146/140
f 189/159/153 174/144/138 176/146/140
f 188/158/152 190/160/154 187/157/151
f 190/160/154 186/156/150 187/157/151
f 191/161/155 192/162/156 193/163/157
f 192/162/156 194/164/158 193/163/157
f 193/163/157 194/164/158 195/165/159
f 194/164/158 190/160/154 195/165/159
f 195/165/159 190/160/154 196/166/160
f 190/160/154 188/158/152 196/166/160
f 196/166/160 188/158/152 197/167/161
f 188/158/152 189/159/153 197/167/161
f 197/167/161 189/159/153 198/168/162
f 189/159/153 178/148/142 198/168/162
f 198/168/162 178/148/142 199/169/163
f 178/148/142 200/170/164 199/169/163
f 199/169/163 200/170/164 201/171/165
f 200/170/164 202/172/166 201/171/165
f 201/171/165 202/172/166 203/173/167
f 202/172/166 204/174/168 203/173/167
f 195/165/159 196/166/160 193/163/157
f 196/166/160 197/167/161 193/163/157
f 193/163/157 197/167/161 198/168/162
f 203/173/167 205/175/169 206/176/170
f 205/175/169 207/177/171 206/176/170
f 206/176/170 207/177/171 199/169/163
f 207/177/171 208/178/172 199/169/163
f 199/169/163 208/178/172 198/168/162
f 208/178/172 193/163/157 198/168/162
f 192/162/156 191/161/155 209/179/173
f 191/161/155 210/180/174 209/179/173
f 209/179/173 210/180/174 211/181/175
f 210/180/174 212/182/176 211/181/175
f 211/181/175 212/182/176 213/183/177
f 212/182/176 205/175/169 213/183/177
f 213/183/177 205/175/169 214/184/178
f 205/175/169 203/173/167 214/184/178
f 214/184/178 203/173/167 215/185/179
f 203/173/167 204/174/168 215/185/179
f 215/185/179 204/174/168 216/186/180
f 204/174/168 217/187/181 216/186/180
f 216/186/180 217/187/181 218/188/182
f 217/187/181 219/189/183 218/188/182
f 218/188/182 219/189/183 220/190/184
f 219/189/183 221/191/185 220/190/184
f 220/190/184 221/191/185 222/192/186
f 221/191/185 223/193/187 222/192/186
f 222/192/186 223/193/187 224/194/188
f 223/193/187 225/195/189 224/194/188
f 224/194/188 225/195/189 226/196/190
f 225/195/189 227/197/191 226/196/190
f 226/196/190 227/197/191 228/7/192
f 227/197/191 229/11/193 228/7/192
f 228/7/192 230/198/194 226/196/190
f 230/198/194 231/199/195 226/196/190
f 226/196/190 231/199/195 224/194/188
f 231/199/195 232/200/196 224/194/188
f 224/194/188 232/200/196 222/192/186
f 232/200/196 233/201/197 222/192/186
f 222/192/186 233/201/197 220/190/184
f 233/201/197 218/188/182 220/190/184
f 234/202/198 159/129/123 232/200/196
f 159/129/123 235/203/199 232/200/196
f 232/200/196 235/203/199 233/201/197
f 235/203/199 236/204/200 233/201/197
f 233/201/197 236/204/200 218/188/182
f 236/204/200 216/186/180 218/188/182
f 215/185/179 216/186/180 237/205/201
f 216/186/180 236/204/200 237/205/201
f 237/205/201 236/204/200 180/150/144
f 236/204/200 235/203/199 180/150/144
f 180/150/144 235/203/199 160/130/124
f 235/203/199 159/129/123 160/130/124
f 230/198/194 234/202/198 231/199/195
f 234/202/198 232/200/196 231/199/195
f 238/206/202 239/207/203 223/193/187
f 239/207/203 240/208/204 223/193/187
f 223/193/187 240/208/204 225/195/189
f 240/208/204 241/209/205 225/195/189
f 225/195/189 241/209/205 227/197/191
f 241/209/205 242/13/206 227/197/191
f 227/197/191 242/13/206 229/11/193
f 178/148/142 179/149/143 200/170/164
f 179/149/143 243/210/207 200/170/164
f 200/170/164 243/210/207 202/172/166
f 243/210/207 244/211/208 202/172/166
f 202/172/166 244/211/208 245/212/209
f 244/211/208 246/213/210 245/212/209
f 245/212/209 246/213/210 247/214/211
f 246/213/210 248/215/212 247/214/211
f 247/214/211 248/215/212 249/216/213
f 248/215/212 250/217/214 249/216/213
f 249/216/213 250/217/214 238/206/202
f 250/217/214 251/218/215 238/206/202
f 238/206/202 251/218/215 239/207/203
f 251/218/215 252/219/216 239/207/203
f 239/207/203 252/219/216 240/208/204
f 252/219/216 47/43/11 240/208/204
f 240/208/204 47/43/11 241/209/205
f 47/43/11 46/17/10 241/209/205
f 241/209/205 46/17/10 242/13/206
f 177/147/141 253/220/217 179/149/143
f 253/220/217 254/221/218 179/149/143
f 179/149/143 254/221/218 243/210/207
f 254/221/218 244/211/208 243/210/207
f 253/220/217 255/222/219 254/221/218
f 255/222/219 256/223/220 254/221/218
f 254/221/218 256/223/220 244/211/208
f 256/223/220 246/213/210 244/211/208
f 47/43/11 252/219/216 49/44/13
f 252/219/216 257/224/221 49/44/13
f 49/44/13 257/224/221 51/45/15
f 257/224/221 258/225/222 51/45/15
f 51/45/15 258/225/222 53/47/17
f 258/225/222 259/226/223 53/47/17
f 53/47/17 259/226/223 55/49/19
f 259/226/223 260/227/224 55/49/19
f 55/49/19 260/227/224 261/228/225
f 260/227/224 262/229/226 261/228/225
f 261/228/225 262/229/226 263/230/227
f 262/229/226 264/231/228 263/230/227
f 263/230/227 264/231/228 265/232/229
f 264/231/228 255/222/219 265/232/229
f 265/232/229 255/222/219 266/233/230
f 255/222/219 253/220/217 266/233/230
f 266/233/230 253/220/217 175/145/139
f 253/220/217 177/147/141 175/145/139
f 251/218/215 250/217/214 267/234/231
f 250/217/214 268/235/232 267/234/231
f 267/234/231 268/235/232 260/227/224
f 268/235/232 269/236/233 260/227/224
f 260/227/224 269/236/233 262/229/226
f 269/236/233 270/237/234 262/229/226
f 262/229/226 270/237/234 264/231/228
f 270/237/234 256/223/220 264/231/228
f 264/231/228 256/223/220 255/222/219
f 268/235/232 250/217/214 269/236/233
f 250/217/214 248/215/212 269/236/233
f 269/236/233 248/215/212 270/237/234
f 248/215/212 246/213/210 270/237/234
f 270/237/234 246/213/210 256/223/220
f 252/219/216 251/218/215 257/224/221
f 251/218/215 267/234/231 257/224/221
f 257/224/221 267/234/231 258/225/222
f 267/234/231 259/226/223 258/225/222
f 267/234/231 260/227/224 259/226/223
f 263/230/227 265/232/229 271/238/235
f 265/232/229 272/239/236 271/238/235
f 55/49/19 261/228/225 74/60/38
f 261/228/225 273/240/237 74/60/38
f 74/60/38 273/240/237 87/70/51
f 273/240/237 271/238/235 87/70/51
f 87/70/51 271/238/235 127/104/91
f 271/238/235 272/239/236 127/104/91
f 127/104/91 272/239/236 130/107/94
f 272/239/236 274/241/238 130/107/94
f 130/107/94 274/241/238 275/242/239
f 274/241/238 173/143/137 275/242/239
f 275/242/239 173/143/137 171/141/135
f 265/232/229 266/233/230 272/239/236
f 266/233/230 274/241/238 272/239/236
f 173/143/137 274/241/238 175/145/139
f 274/241/238 266/233/230 175/145/139
f 171/141/135 276/243/240 275/242/239
f 276/243/240 129/106/93 275/242/239
f 275/242/239 129/106/93 130/107/94
f 276/243/240 128/105/92 129/106/93
f 113/91/77 111/89/75 165/135/129
f 111/89/75 128/105/92 165/135/129
f 165/135/129 128/105/92 167/137/131
f 128/105/92 276/243/240 167/137/131
f 167/137/131 276/243/240 169/139/133
f 276/243/240 171/141/135 169/139/133
f 261/228/225 263/230/227 273/240/237
f 263/230/227 271/238/235 273/240/237
f 210/180/174 191/161/155 277/244/241
f 205/175/169 212/182/176 207/177/171
f 212/182/176 210/180/174 207/177/171
f 207/177/171 210/180/174 278/245/242
f 210/180/174 277/244/241 278/245/242
f 278/245/242 277/244/241 193/163/157
f 277/244/241 191/161/155 193/163/157
f 193/163/157 208/178/172 278/245/242
f 208/178/172 207/177/171 278/245/242
f 184/154/148 185/155/149 279/246/243
f 183/153/147 184/154/148 280/247/244
f 184/154/148 279/246/243 280/247/244
f 214/184/178 281/248/245 213/183/177
f 281/248/245 282/249/246 213/183/177
f 213/183/177 282/249/246 283/250/247
f 282/249/246 284/251/248 283/250/247
f 283/250/247 284/251/248 285/252/249
f 284/251/248 286/253/250 285/252/249
f 285/252/249 286/253/250 287/254/251
f 286/253/250 280/247/244 287/254/251
f 287/254/251 280/247/244 288/255/252
f 280/247/244 279/246/243 288/255/252
f 288/255/252 279/246/243 289/256/253
f 279/246/243 185/155/149 289/256/253
f 286/253/250 284/251/248 290/257/254
f 284/251/248 282/249/246 290/257/254
f 290/257/254 282/249/246 291/258/255
f 282/249/246 281/248/245 291/258/255
f 180/150/144 181/151/145 291/258/255
f 181/151/145 292/259/256 291/258/255
f 291/258/255 292/259/256 290/257/254
f 292/259/256 293/260/257 290/257/254
f 290/257/254 293/260/257 286/253/250
f 293/260/257 280/247/244 286/253/250
f 180/150/144 291/258/255 237/205/201
f 291/258/255 281/248/245 237/205/201
f 237/205/201 281/248/245 215/185/179
f 281/248/245 214/184/178 215/185/179
f 182/152/146 183/153/147 293/260/257
f 183/153/147 280/247/244 293/260/257
f 181/151/145 182/152/146 292/259/256
f 182/152/146 293/260/257 292/259/256
f 289/256/253 294/261/258 288/255/252
f 294/261/258 287/254/251 288/255/252
f 294/261/258 209/179/173 287/254/251
f 209/179/173 285/252/249 287/254/251
f 209/179/173 211/181/175 285/252/249
f 211/181/175 283/250/247 285/252/249
f 211/181/175 213/183/177 283/250/247
f 209/179/173 294/261/258 192/162/156
f 294/261/258 194/164/158 192/162/156
f 294/261/258 289/256/253 194/164/158
f 289/256/253 190/160/154 194/164/158
f 190/160/154 289/256/253 186/156/150
f 289/256/253 185/155/149 186/156/150
f 157/128/121 156/127/120 295/262/259
f 156/127/120 155/126/119 295/262/259
f 228/7/192 296/6/260 230/198/194
f 296/6/260 297/263/261 230/198/194
f 230/198/194 297/263/261 234/202/198
f 297/263/261 298/264/262 234/202/198
f 234/202/198 298/264/262 159/129/123
f 298/264/262 299/265/263 159/129/123
f 159/129/123 299/265/263 155/126/119
f 299/265/263 300/266/264 155/126/119
f 155/126/119 300/266/264 295/262/259
f 300/266/264 301/267/265 295/262/259
f 295/262/259 301/267/265 157/128/121
f 301/267/265 302/8/266 157/128/121
f 157/128/121 302/8/266 158/9/122
f 299/265/263 298/264/262 303/268/267
f 298/264/262 297/263/261 303/268/267
f 303/268/267 297/263/261 304/1/268
f 297/263/261 296/6/260 304/1/268
f 300/266/264 299/265/263 305/269/269
f 299/265/263 303/268/267 305/269/269
f 305/269/269 303/268/267 306/3/270
f 303/268/267 304/1/268 306/3/270
f 301/267/265 300/266/264 307/270/271
f 300/266/264 305/269/269 307/270/271
f 307/270/271 305/269/269 308/2/272
f 305/269/269 306/3/270 308/2/272
f 302/8/266 301/267/265 309/5/273
f 301/267/265 307/270/271 309/5/273
f 309/5/273 307/270/271 310/4/274
f 307/270/271 308/2/272 310/4/274
f 221/191/185 219/189/183 249/216/213
f 219/189/183 247/214/211 249/216/213
f 219/189/183 217/187/181 247/214/211
f 217/187/181 245/212/209 247/214/211
f 202/172/166 245/212/209 204/174/168
f 245/212/209 217/187/181 204/174/168
f 223/193/187 221/191/185 238/206/202
f 221/191/185 249/216/213 238/206/202
f 203/173/167 206/176/170 201/171/165
f 206/176/170 199/169/163 201/171/165
