# Blender 4.0.2
# www.blender.org
mtllib Icecream.mtl
o TopL
v -14.268195 73.056137 -18.792326
v -16.082205 -3.986283 0.000000
v -21.894842 74.608742 -0.000006
v -14.587833 -4.290493 -3.675802
v 4.146351 69.307373 -26.575357
v -10.985895 -5.023742 -5.200832
v 22.560997 65.558502 -18.792326
v -7.383955 -5.757091 -3.675801
v 30.187544 64.005890 -0.000005
v -5.889585 -6.061300 0.000000
v 22.560997 65.558502 18.792315
v -7.383955 -5.757090 3.675802
v 4.146351 69.307373 26.575346
v -10.985895 -5.023741 5.200833
v -14.268195 73.056137 18.792315
v -14.587833 -4.290492 3.675802
v 19.489832 64.726601 -15.948819
v 31.580278 62.562889 -0.000005
v 25.967430 63.407928 -0.000005
v 23.477409 64.212448 -19.995327
v 3.861553 67.908264 -22.559311
v 3.919687 68.193954 -28.276583
v -11.766726 71.089821 -15.948820
v -15.637936 72.175560 -19.995327
v -18.244324 72.408493 -0.000005
v -23.740805 73.825119 -0.000006
v -11.766726 71.089821 15.948809
v -23.740805 73.825119 -0.000006
v -18.244324 72.408493 -0.000005
v -15.637936 72.175560 19.995316
v 3.861553 67.908264 22.559299
v 3.919687 68.193954 28.276571
v 19.489832 64.726601 15.948810
v 23.477409 64.212448 19.995316
v 25.967430 63.407928 -0.000005
v 31.580278 62.562889 -0.000005
v -24.979643 78.095207 -0.000006
v -16.281395 76.324394 21.453453
v 4.705098 72.051926 30.342329
v 25.691690 67.779549 21.453453
v 34.389938 66.008743 -0.000005
v -22.121904 80.985603 -0.000006
v -14.066615 79.345695 19.849483
v 5.383896 75.385994 28.070013
v 24.834408 71.426285 19.849483
v 32.889694 69.786377 -0.000005
v -15.159223 96.333961 -0.000007
v -8.181610 94.913452 17.188341
v 8.661219 91.484612 24.309101
v 25.504047 88.055786 17.188343
v 32.481659 86.635277 -0.000007
v -3.222672 103.464867 -0.000008
v 0.807908 102.644318 9.921651
v 10.530177 100.665062 14.034953
v 20.252447 98.685806 9.921651
v 24.283028 97.865257 -0.000007
v 34.389938 66.008743 -0.000005
v 25.691690 67.779549 -21.453465
v 4.705098 72.051926 -30.342340
v -16.281395 76.324394 -21.453465
v -24.979643 78.095207 -0.000006
v 32.889694 69.786377 -0.000005
v 24.834408 71.426285 -19.849495
v 5.383896 75.385994 -28.070024
v -14.066615 79.345695 -19.849495
v -22.121904 80.985603 -0.000006
v 32.481659 86.635277 -0.000007
v 25.504047 88.055786 -17.188354
v 8.661219 91.484612 -24.309116
v -8.181610 94.913452 -17.188356
v -15.159223 96.333961 -0.000007
v 24.283028 97.865257 -0.000007
v 20.252447 98.685806 -9.921666
v 10.530177 100.665062 -14.034968
v 0.807908 102.644318 -9.921666
v -3.222672 103.464867 -0.000008
v 11.325244 104.570709 -0.000008
v -14.587833 -4.290493 -3.675802
v -10.985895 -5.023742 -5.200832
v -11.325244 -6.690823 0.000001
v -16.082205 -3.986283 0.000000
v -11.325244 -6.690823 0.000001
v -14.587833 -4.290492 3.675802
v -11.325244 -6.690823 0.000001
v -10.985895 -5.023741 5.200833
v -11.325244 -6.690823 0.000001
v -7.383955 -5.757090 3.675802
v -11.325244 -6.690823 0.000001
v -5.889585 -6.061300 0.000000
v -11.325244 -6.690823 0.000001
v -7.383955 -5.757091 -3.675801
v -11.325244 -6.690823 0.000001
v -11.325244 -6.690823 0.000001
vn -0.7210 -0.1300 -0.6806
vn -0.8358 -0.5490 -0.0000
vn -0.9973 -0.0738 -0.0000
vn -0.6322 -0.5904 -0.5017
vn -0.0541 -0.2658 -0.9625
vn -0.1406 -0.6906 -0.7095
vn 0.6128 -0.4016 -0.6806
vn 0.3510 -0.7906 -0.5017
vn 0.8891 -0.4578 -0.0000
vn 0.5546 -0.8321 -0.0000
vn 0.6128 -0.4016 0.6806
vn 0.3511 -0.7906 0.5017
vn -0.0541 -0.2658 0.9625
vn -0.1406 -0.6905 0.7095
vn -0.7210 -0.1300 0.6806
vn -0.6322 -0.5904 0.5017
vn -0.1637 -0.9858 -0.0361
vn 0.3441 -0.9389 -0.0000
vn -0.1487 -0.9889 -0.0000
vn 0.1936 -0.9085 -0.3704
vn -0.1992 -0.9786 -0.0514
vn -0.1699 -0.8346 -0.5239
vn -0.2347 -0.9714 -0.0361
vn -0.5333 -0.7605 -0.3704
vn -0.2498 -0.9683 -0.0000
vn -0.6838 -0.7297 -0.0000
vn -0.2347 -0.9714 0.0361
vn -0.5333 -0.7605 0.3704
vn -0.1992 -0.9786 0.0509
vn -0.1699 -0.8346 0.5239
vn -0.1637 -0.9858 0.0361
vn 0.1935 -0.9085 0.3704
vn -0.9685 0.2489 -0.0000
vn -0.6821 0.1925 0.7055
vn 0.0108 0.0533 0.9985
vn 0.7031 -0.0895 0.7055
vn 0.9888 -0.1495 -0.0000
vn -0.8224 0.5689 -0.0000
vn -0.5580 0.5169 0.6492
vn 0.0792 0.3890 0.9178
vn 0.7157 0.2576 0.6492
vn 0.9794 0.2021 -0.0000
vn -0.7418 0.6707 -0.0000
vn -0.4948 0.6204 0.6086
vn 0.1016 0.4990 0.8607
vn 0.6979 0.3776 0.6086
vn 0.9449 0.3273 -0.0000
vn -0.2990 0.9543 -0.0000
vn -0.1603 0.9260 0.3418
vn 0.1746 0.8578 0.4833
vn 0.5095 0.7897 0.3418
vn 0.6483 0.7614 -0.0000
vn 0.7031 -0.0895 -0.7055
vn 0.0108 0.0533 -0.9985
vn -0.6821 0.1925 -0.7055
vn 0.7157 0.2576 -0.6492
vn 0.0792 0.3890 -0.9178
vn -0.5580 0.5169 -0.6492
vn 0.6979 0.3776 -0.6086
vn 0.1016 0.4990 -0.8607
vn -0.4948 0.6204 -0.6086
vn -0.7418 0.6706 -0.0000
vn 0.5095 0.7897 -0.3418
vn 0.1746 0.8578 -0.4833
vn -0.1603 0.9260 -0.3418
vn 0.1995 0.9799 -0.0000
vn -0.6322 -0.5905 -0.5017
vn -0.3134 -0.8982 -0.3083
vn -0.4902 -0.8622 -0.1279
vn -0.6322 -0.5905 0.5017
vn -0.4902 -0.8622 0.1279
vn -0.1406 -0.6906 0.7095
vn -0.3134 -0.8982 0.3083
vn 0.3510 -0.7906 0.5017
vn -0.0627 -0.9492 0.3084
vn 0.1141 -0.9852 0.1279
vn 0.1141 -0.9852 -0.1279
vn -0.0627 -0.9492 -0.3084
vt 0.019095 0.988438
vt 0.041407 0.086878
vt 0.231923 0.988438
vt 0.019095 0.086878
vt 0.382949 0.988438
vt 0.080767 0.086878
vt 0.510418 0.011318
vt 0.346125 0.027430
vt 0.346125 0.011318
vt 0.510418 0.027430
vt 0.674440 0.011318
vt 0.674440 0.027430
vt 0.819344 0.011318
vt 0.819344 0.027430
vt 0.982079 0.011318
vt 0.982079 0.027430
vt 0.346125 0.082868
vt 0.510418 0.082868
vt 0.674440 0.082868
vt 0.819344 0.082868
vt 0.982079 0.082868
vt 0.346125 0.116756
vt 0.510418 0.116756
vt 0.674440 0.116756
vt 0.819344 0.116756
vt 0.982079 0.116756
vt 0.346125 0.373287
vt 0.510418 0.373200
vt 0.674440 0.373164
vt 0.819344 0.373200
vt 0.982079 0.373287
vt 0.346125 0.592915
vt 0.510418 0.592915
vt 0.674440 0.592915
vt 0.819344 0.592915
vt 0.982079 0.592915
vt 0.346125 0.374652
vt 0.510418 0.374564
vt 0.674440 0.374528
vt 0.819344 0.374564
vt 0.982079 0.374652
vt 0.674440 0.828783
vt 0.173946 0.115556
vt 0.161197 0.084778
vt 0.204723 0.084778
vt 0.204723 0.128304
vt 0.235501 0.115556
vt 0.248250 0.084778
vt 0.235501 0.054000
vt 0.204723 0.041252
vt 0.173946 0.054000
s 1
usemtl mat1.005
f 1/1/1 2/2/2 3/3/3
f 1/1/1 4/4/4 2/2/2
f 5/3/5 4/4/4 1/1/1
f 5/3/5 6/2/6 4/4/4
f 7/5/7 6/2/6 5/3/5
f 7/5/7 8/6/8 6/2/6
f 9/3/9 8/6/8 7/5/7
f 9/3/9 10/2/10 8/6/8
f 11/1/11 10/2/10 9/3/9
f 11/1/11 12/4/12 10/2/10
f 13/3/13 12/4/12 11/1/11
f 13/3/13 14/2/14 12/4/12
f 15/5/15 14/2/14 13/3/13
f 15/5/15 16/6/16 14/2/14
f 3/3/3 16/6/16 15/5/15
f 3/3/3 2/2/2 16/6/16
f 17/7/17 18/8/18 19/9/19
f 17/7/17 20/10/20 18/8/18
f 21/11/21 20/10/20 17/7/17
f 21/11/21 22/12/22 20/10/20
f 23/13/23 22/12/22 21/11/21
f 23/13/23 24/14/24 22/12/22
f 25/15/25 24/14/24 23/13/23
f 25/15/25 26/16/26 24/14/24
f 27/7/27 28/8/26 29/9/25
f 27/7/27 30/10/28 28/8/26
f 31/11/29 30/10/28 27/7/27
f 31/11/29 32/12/30 30/10/28
f 33/13/31 32/12/30 31/11/29
f 33/13/31 34/14/32 32/12/30
f 35/15/19 34/14/32 33/13/31
f 35/15/19 36/16/18 34/14/32
f 30/10/28 37/17/33 28/8/26
f 30/10/28 38/18/34 37/17/33
f 32/12/30 38/18/34 30/10/28
f 32/12/30 39/19/35 38/18/34
f 34/14/32 39/19/35 32/12/30
f 34/14/32 40/20/36 39/19/35
f 36/16/18 40/20/36 34/14/32
f 36/16/18 41/21/37 40/20/36
f 38/18/34 42/22/38 37/17/33
f 38/18/34 43/23/39 42/22/38
f 39/19/35 43/23/39 38/18/34
f 39/19/35 44/24/40 43/23/39
f 40/20/36 44/24/40 39/19/35
f 40/20/36 45/25/41 44/24/40
f 41/21/37 45/25/41 40/20/36
f 41/21/37 46/26/42 45/25/41
f 43/23/39 47/27/43 42/22/38
f 43/23/39 48/28/44 47/27/43
f 44/24/40 48/28/44 43/23/39
f 44/24/40 49/29/45 48/28/44
f 45/25/41 49/29/45 44/24/40
f 45/25/41 50/30/46 49/29/45
f 46/26/42 50/30/46 45/25/41
f 46/26/42 51/31/47 50/30/46
f 48/28/44 52/32/48 47/27/43
f 48/28/44 53/33/49 52/32/48
f 49/29/45 53/33/49 48/28/44
f 49/29/45 54/34/50 53/33/49
f 50/30/46 54/34/50 49/29/45
f 50/30/46 55/35/51 54/34/50
f 51/31/47 55/35/51 50/30/46
f 51/31/47 56/36/52 55/35/51
f 20/10/20 57/17/37 18/8/18
f 20/10/20 58/18/53 57/17/37
f 22/12/22 58/18/53 20/10/20
f 22/12/22 59/19/54 58/18/53
f 24/14/24 59/19/54 22/12/22
f 24/14/24 60/20/55 59/19/54
f 26/16/26 60/20/55 24/14/24
f 26/16/26 61/21/33 60/20/55
f 58/18/53 62/22/42 57/17/37
f 58/18/53 63/23/56 62/22/42
f 59/19/54 63/23/56 58/18/53
f 59/19/54 64/24/57 63/23/56
f 60/20/55 64/24/57 59/19/54
f 60/20/55 65/25/58 64/24/57
f 61/21/33 65/25/58 60/20/55
f 61/21/33 66/26/38 65/25/58
f 63/23/56 67/37/47 62/22/42
f 63/23/56 68/38/59 67/37/47
f 64/24/57 68/38/59 63/23/56
f 64/24/57 69/39/60 68/38/59
f 65/25/58 69/39/60 64/24/57
f 65/25/58 70/40/61 69/39/60
f 66/26/38 70/40/61 65/25/58
f 66/26/38 71/41/62 70/40/61
f 68/38/59 72/32/52 67/37/47
f 68/38/59 73/33/63 72/32/52
f 69/39/60 73/33/63 68/38/59
f 69/39/60 74/34/64 73/33/63
f 70/40/61 74/34/64 69/39/60
f 70/40/61 75/35/65 74/34/64
f 71/41/62 75/35/65 70/40/61
f 71/41/62 76/36/48 75/35/65
f 77/42/66 55/35/51 56/36/52
f 77/42/66 54/34/50 55/35/51
f 53/33/49 54/34/50 77/42/66
f 77/42/66 75/35/65 76/36/48
f 77/42/66 74/34/64 75/35/65
f 73/33/63 74/34/64 77/42/66
f 78/43/67 79/44/6 80/45/68
f 81/46/2 78/43/67 82/45/69
f 83/47/70 81/46/2 84/45/71
f 85/48/72 83/47/70 86/45/73
f 87/49/74 85/48/72 88/45/75
f 89/50/10 87/49/74 90/45/76
f 91/51/8 89/50/10 92/45/77
f 79/44/6 91/51/8 93/45/78
f 52/32/48 53/33/49 77/42/66
f 72/32/52 73/33/63 77/42/66
