# Blender 4.0.2
# www.blender.org
mtllib leek.mtl
o Leek
v 1.052046 0.000000 0.000000
v 0.988600 -0.000000 -0.359821
v 0.805914 -0.000000 -0.676242
v 0.526023 -0.000000 -0.911099
v 0.182686 -0.000000 -1.036063
v -0.182686 -0.000000 -1.036063
v -0.526023 -0.000000 -0.911099
v -0.805914 -0.000000 -0.676242
v -0.988600 -0.000000 -0.359821
v -1.052047 -0.000000 -0.000000
v -0.988600 0.000000 0.359821
v -0.805915 0.000000 0.676242
v -0.526024 0.000000 0.911099
v -0.182686 0.000000 1.036063
v 0.182685 0.000000 1.036064
v 0.526023 0.000000 0.911099
v 0.805914 0.000000 0.676243
v 0.988600 0.000000 0.359822
v 1.108730 4.778184 -0.000000
v 1.041866 4.778184 -0.379208
v 0.849337 4.778184 -0.712678
v 0.554365 4.778184 -0.960189
v 0.192529 4.778184 -1.091887
v -0.192529 4.778184 -1.091887
v -0.554365 4.778184 -0.960189
v -0.849337 4.778184 -0.712678
v -1.041866 4.778184 -0.379208
v -1.108730 4.778184 -0.000000
v -1.041866 4.778184 0.379208
v -0.849337 4.778184 0.712678
v -0.554366 4.778184 0.960188
v -0.192529 4.778184 1.091886
v 0.192528 4.778184 1.091886
v 0.554365 4.778184 0.960189
v 0.849336 4.778184 0.712678
v 1.041866 4.778184 0.379209
v 1.194546 9.556369 -0.000000
v 1.122506 9.556369 -0.408559
v 0.915075 9.556369 -0.767840
v 0.597273 9.556369 -1.034508
v 0.207431 9.556369 -1.176399
v -0.207431 9.556369 -1.176399
v -0.597273 9.556369 -1.034508
v -0.915075 9.556369 -0.767840
v -1.122506 9.556369 -0.408559
v -1.194546 9.556369 -0.000001
v -1.122506 9.556369 0.408558
v -0.915076 9.556369 0.767839
v -0.597273 9.556369 1.034507
v -0.207431 9.556369 1.176398
v 0.207430 9.556369 1.176398
v 0.597272 9.556369 1.034507
v 0.915075 9.556369 0.767840
v 1.122506 9.556369 0.408559
v 1.250626 14.334553 -0.000001
v 1.175204 14.334553 -0.427740
v 0.958035 14.334553 -0.803887
v 0.625313 14.334553 -1.083074
v 0.217169 14.334553 -1.231627
v -0.217169 14.334553 -1.231627
v -0.625313 14.334553 -1.083074
v -0.958035 14.334553 -0.803887
v -1.175204 14.334553 -0.427740
v -1.250626 14.334553 -0.000001
v -1.175204 14.334553 0.427738
v -0.958035 14.334553 0.803886
v -0.625313 14.334553 1.083073
v -0.217169 14.334553 1.231625
v 0.217168 14.334553 1.231625
v 0.625312 14.334553 1.083073
v 0.958034 14.334553 0.803887
v 1.175203 14.334553 0.427739
v 1.395715 19.112738 -0.000001
v 1.311543 19.112738 -0.477364
v 1.069180 19.112738 -0.897149
v 0.697858 19.112738 -1.208726
v 0.242363 19.112738 -1.374512
v -0.242364 19.112738 -1.374512
v -0.697858 19.112738 -1.208726
v -1.069180 19.112738 -0.897149
v -1.311543 19.112738 -0.477364
v -1.395715 19.112738 -0.000001
v -1.311543 19.112738 0.477362
v -1.069180 19.112738 0.897147
v -0.697858 19.112738 1.208724
v -0.242364 19.112738 1.374510
v 0.242363 19.112738 1.374511
v 0.697857 19.112738 1.208724
v 1.069179 19.112738 0.897148
v 1.311543 19.112738 0.477363
v 1.587492 23.890923 -0.000001
v 1.491755 23.890923 -0.542955
v 1.216089 23.890923 -1.020421
v 0.793746 23.890923 -1.374810
v 0.275665 23.890923 -1.563376
v -0.275665 23.890923 -1.563375
v -0.793746 23.890923 -1.374810
v -1.216089 23.890923 -1.020421
v -1.491755 23.890923 -0.542955
v -1.587492 23.890923 -0.000001
v -1.491755 23.890923 0.542953
v -1.216090 23.890923 1.020419
v -0.793746 23.890923 1.374807
v -0.275666 23.890923 1.563373
v 0.275664 23.890923 1.563373
v 0.793745 23.890923 1.374808
v 1.216089 23.890923 1.020420
v 1.491754 23.890923 0.542954
v 1.075850 23.890923 -0.000001
v 0.537919 23.890923 -0.931280
v -0.537172 23.890923 -0.930835
v -1.074333 23.890923 -0.000001
v -0.537172 23.890923 0.930833
v 0.537918 23.890923 0.931278
v 2.573421 41.809113 -0.438238
v 2.477684 41.809113 -0.981192
v 2.202018 41.809113 -1.458658
v 1.779675 41.809113 -1.813046
v 2.305918 41.809113 -0.487183
v -1.378682 41.809113 -1.813046
v -1.801025 41.809113 -1.458658
v -2.076691 41.809113 -0.981192
v -2.172428 41.809113 -0.438238
v -1.330062 41.809113 -1.685380
v -0.793746 41.809113 2.454264
v -0.275666 41.809113 2.642830
v 0.275664 41.809113 2.642830
v 0.793745 41.809113 2.454264
v -0.587559 41.809113 2.138899
v 1.779675 41.809113 1.963659
v 2.202018 41.809113 1.609271
v 2.477683 41.809113 1.131806
v 2.573421 41.809113 0.588850
v 1.679055 41.809113 1.733518
v 0.793746 41.809113 -2.238921
v 0.275665 41.809113 -2.427487
v -0.275665 41.809113 -2.427487
v -0.793746 41.809113 -2.238921
v 0.617456 41.809113 -1.987184
v -2.172428 41.809113 0.588850
v -2.076691 41.809113 1.131804
v -1.801026 41.809113 1.609270
v -1.378682 41.809113 1.963658
v -2.013517 41.809113 0.609555
v 0.537919 23.890923 -0.931280
v -0.537172 23.890923 -0.930835
v -1.074333 23.890923 -0.000001
v -0.537172 23.890923 0.930833
v 0.537918 23.890923 0.931278
v 1.075850 23.890923 -0.000001
v 1.705038 41.809113 -1.653969
v -2.002071 41.809113 -0.471954
v 0.588288 41.809113 2.139414
v 2.315758 41.809113 0.619887
v -0.616730 41.809113 -1.986630
v -1.306992 41.809113 1.761642
v 0.639070 23.890923 -0.058206
v 0.403822 23.890923 -0.232821
v 0.370105 23.890923 -0.523846
v 0.269291 23.890923 -0.582023
v 0.000566 23.890923 -0.465529
v -0.268255 23.890923 -0.581800
v -0.369021 23.890923 -0.523595
v -0.402497 23.890923 -0.232710
v -0.637601 23.890923 -0.058178
v -0.637601 23.890923 0.058176
v -0.402497 23.890923 0.232707
v -0.369021 23.890923 0.523593
v -0.268255 23.890923 0.581798
v 0.000566 23.890923 0.465527
v 0.269290 23.890923 0.582021
v 0.370104 23.890923 0.523843
v 0.403822 23.890923 0.232819
v 0.639070 23.890923 0.058204
v 1.571347 41.809113 -1.216062
v 1.626930 41.809113 -0.875629
v 1.871787 41.809113 -0.632669
v -1.564582 41.809113 -0.626066
v -1.306751 41.809113 -0.879674
v -1.228578 41.809113 -1.232779
v 0.294474 41.809113 1.801750
v 0.000562 41.809113 1.689110
v -0.293449 41.809113 1.801493
v 1.875699 41.809113 0.737703
v 1.622895 41.809113 0.962580
v 1.557347 41.809113 1.294518
v -0.308035 41.809113 -1.656637
v 0.000561 41.809113 -1.546732
v 0.309058 41.809113 -1.656914
v -1.216316 41.809113 1.309692
v -1.303845 41.809113 0.967028
v -1.569579 41.809113 0.733649
vn -0.0000 -1.0000 -0.0000
vn 0.9999 -0.0119 -0.0000
vn 0.9396 -0.0119 -0.3420
vn 0.9396 -0.0149 -0.3420
vn 0.9999 -0.0149 -0.0000
vn 0.7660 -0.0119 -0.6427
vn 0.7660 -0.0149 -0.6427
vn 0.5000 -0.0119 -0.8660
vn 0.4999 -0.0149 -0.8659
vn 0.1736 -0.0119 -0.9847
vn 0.1736 -0.0149 -0.9847
vn -0.1736 -0.0119 -0.9847
vn -0.1736 -0.0149 -0.9847
vn -0.5000 -0.0119 -0.8660
vn -0.4999 -0.0149 -0.8659
vn -0.7660 -0.0119 -0.6427
vn -0.7660 -0.0149 -0.6427
vn -0.9396 -0.0119 -0.3420
vn -0.9396 -0.0149 -0.3420
vn -0.9999 -0.0119 -0.0000
vn -0.9999 -0.0149 -0.0000
vn -0.9396 -0.0119 0.3420
vn -0.9396 -0.0149 0.3420
vn -0.7660 -0.0119 0.6427
vn -0.7660 -0.0149 0.6427
vn -0.5000 -0.0119 0.8660
vn -0.4999 -0.0149 0.8659
vn -0.1736 -0.0119 0.9847
vn -0.1736 -0.0149 0.9847
vn 0.1736 -0.0119 0.9847
vn 0.1736 -0.0149 0.9847
vn 0.5000 -0.0119 0.8660
vn 0.4999 -0.0149 0.8659
vn 0.7660 -0.0119 0.6427
vn 0.7660 -0.0149 0.6427
vn 0.9396 -0.0119 0.3420
vn 0.9396 -0.0149 0.3420
vn 0.9396 -0.0148 -0.3420
vn 0.9999 -0.0148 -0.0000
vn 0.7660 -0.0148 -0.6427
vn 0.4999 -0.0148 -0.8659
vn 0.1736 -0.0148 -0.9847
vn -0.1736 -0.0148 -0.9847
vn -0.4999 -0.0148 -0.8659
vn -0.7660 -0.0148 -0.6427
vn -0.9396 -0.0148 -0.3420
vn -0.9999 -0.0148 -0.0000
vn -0.9396 -0.0148 0.3420
vn -0.7660 -0.0148 0.6427
vn -0.4999 -0.0148 0.8659
vn -0.1736 -0.0148 0.9847
vn 0.1736 -0.0148 0.9847
vn 0.4999 -0.0148 0.8659
vn 0.7660 -0.0148 0.6427
vn 0.9396 -0.0148 0.3420
vn 0.9395 -0.0211 -0.3419
vn 0.9998 -0.0211 -0.0000
vn 0.7659 -0.0211 -0.6426
vn 0.4999 -0.0211 -0.8658
vn 0.1736 -0.0211 -0.9846
vn -0.1736 -0.0211 -0.9846
vn -0.4999 -0.0211 -0.8658
vn -0.7659 -0.0211 -0.6426
vn -0.9395 -0.0211 -0.3419
vn -0.9998 -0.0211 -0.0000
vn -0.9395 -0.0211 0.3419
vn -0.7659 -0.0211 0.6426
vn -0.4999 -0.0211 0.8658
vn -0.1736 -0.0211 0.9846
vn 0.1736 -0.0211 0.9846
vn 0.4999 -0.0211 0.8658
vn 0.7659 -0.0211 0.6426
vn 0.9395 -0.0211 0.3419
vn 0.9391 -0.0352 -0.3418
vn 0.9994 -0.0352 -0.0000
vn 0.7656 -0.0352 -0.6424
vn 0.4997 -0.0352 -0.8655
vn 0.1735 -0.0352 -0.9842
vn -0.1735 -0.0352 -0.9842
vn -0.4997 -0.0352 -0.8655
vn -0.7656 -0.0352 -0.6424
vn -0.9391 -0.0352 -0.3418
vn -0.9994 -0.0352 -0.0000
vn -0.9391 -0.0352 0.3418
vn -0.7656 -0.0352 0.6424
vn -0.4997 -0.0352 0.8655
vn -0.1735 -0.0352 0.9842
vn 0.1735 -0.0352 0.9842
vn 0.4997 -0.0352 0.8655
vn 0.7656 -0.0352 0.6424
vn 0.9391 -0.0352 0.3418
vn 0.9386 -0.0501 -0.3414
vn 0.9987 -0.0500 -0.0002
vn 0.7645 -0.0490 -0.6427
vn 0.4992 -0.0452 -0.8653
vn 0.1739 -0.0438 -0.9838
vn -0.1739 -0.0438 -0.9838
vn -0.4998 -0.0416 -0.8652
vn -0.7653 -0.0404 -0.6424
vn -0.9392 -0.0395 -0.3411
vn -0.9992 -0.0389 -0.0002
vn -0.9393 -0.0410 0.3407
vn -0.7655 -0.0431 0.6420
vn -0.4999 -0.0461 0.8649
vn -0.1740 -0.0497 0.9835
vn 0.1740 -0.0497 0.9835
vn 0.4994 -0.0497 0.8650
vn 0.7647 -0.0517 0.6424
vn 0.9387 -0.0515 0.3409
vn -0.0000 1.0000 -0.0000
vn -0.0002 1.0000 -0.0000
vn 0.9378 -0.0600 -0.3418
vn 0.9831 -0.0583 -0.1734
vn 0.7659 -0.0578 -0.6403
vn 0.6418 -0.0540 -0.7649
vn -0.8659 0.0363 -0.4989
vn -0.8981 0.0421 -0.4377
vn -0.9310 0.0448 -0.3622
vn -0.9046 0.0394 -0.4244
vn -0.0698 0.0306 0.9971
vn -0.0000 0.0245 0.9997
vn -0.1765 0.0388 0.9835
vn -0.2452 0.0454 0.9684
vn -0.7656 -0.0407 -0.6421
vn -0.6423 -0.0397 -0.7654
vn -0.9385 -0.0390 -0.3430
vn -0.9842 -0.0364 -0.1735
vn 0.0012 0.0264 0.9997
vn 0.0699 0.0326 0.9970
vn 0.2601 0.0361 0.9649
vn 0.1941 0.0303 0.9805
vn 0.8981 0.0207 -0.4394
vn 0.8657 0.0160 -0.5003
vn 0.9331 0.0262 -0.3585
vn 0.9560 0.0320 -0.2915
vn -0.1722 -0.0592 0.9833
vn -0.3415 -0.0565 0.9382
vn 0.1722 -0.0592 0.9833
vn 0.3415 -0.0565 0.9382
vn 0.8655 0.0313 -0.5000
vn 0.8291 0.0361 -0.5579
vn 0.7990 0.0374 -0.6001
vn 0.8370 0.0329 -0.5462
vn -0.8288 0.0348 -0.5585
vn -0.8654 0.0301 -0.5001
vn -0.8371 0.0344 -0.5460
vn -0.7984 0.0390 -0.6008
vn 0.7652 -0.0632 0.6407
vn 0.6416 -0.0604 0.7646
vn 0.9374 -0.0628 0.3426
vn 0.9830 -0.0598 0.1733
vn -0.0011 0.0346 -0.9994
vn -0.0700 0.0410 -0.9967
vn -0.1856 0.0451 -0.9816
vn -0.1195 0.0392 -0.9921
vn -0.8983 0.0369 0.4379
vn -0.8658 0.0312 0.4994
vn -0.9147 0.0402 0.4022
vn -0.9400 0.0461 0.3379
vn 0.1726 -0.0474 -0.9839
vn 0.3417 -0.0453 -0.9387
vn -0.1725 -0.0474 -0.9839
vn -0.3417 -0.0453 -0.9387
vn -0.8651 0.0257 0.5010
vn -0.8288 0.0305 0.5587
vn -0.7778 0.0323 0.6277
vn -0.8183 0.0277 0.5741
vn 0.8295 0.0285 0.5578
vn 0.8660 0.0241 0.4995
vn 0.8197 0.0300 0.5720
vn 0.7783 0.0346 0.6270
vn -0.9381 -0.0419 0.3437
vn -0.9841 -0.0378 0.1735
vn -0.7649 -0.0461 0.6425
vn -0.6421 -0.0461 0.7652
vn 0.8664 0.0140 0.4991
vn 0.8986 0.0208 0.4382
vn 0.9624 0.0262 0.2702
vn 0.9422 0.0198 0.3344
vn 0.0686 0.0370 -0.9970
vn -0.0000 0.0328 -0.9995
vn 0.1267 0.0403 -0.9911
vn 0.1965 0.0453 -0.9795
vn -0.9953 0.0627 -0.0741
vn -0.9897 0.0618 -0.1294
vn 0.5241 0.0515 0.8501
vn 0.3816 0.0504 0.9230
vn 0.5778 0.0539 -0.8144
vn 0.6084 0.0534 -0.7918
vn -0.4670 0.0640 -0.8820
vn -0.3830 0.0623 -0.9217
vn -0.5528 0.0475 0.8320
vn -0.6084 0.0468 0.7923
vn 0.9988 0.0456 -0.0184
vn 0.9907 0.0426 0.1293
vn -0.9844 0.0722 0.1602
vn -0.9908 0.0718 0.1148
vn -0.5178 0.0641 0.8531
vn -0.7025 0.0733 0.7079
vn -0.5961 0.0667 0.8001
vn -0.3844 0.0536 0.9216
vn 0.6990 0.0588 0.7127
vn 0.5950 0.0590 0.8015
vn 0.9988 0.0485 -0.0074
vn 0.9748 0.0570 0.2158
vn 0.9919 0.0522 0.1155
vn 0.9908 0.0402 -0.1294
vn 0.3576 0.0629 -0.9318
vn 0.3970 0.0625 -0.9157
vn -0.5769 0.0550 -0.8150
vn -0.3563 0.0637 -0.9322
vn -0.3958 0.0618 -0.9163
vn -0.6076 0.0523 -0.7925
vn -0.6621 0.0740 -0.7457
vn -0.5944 0.0731 -0.8008
vn -0.9969 0.0648 0.0448
vn -0.9783 0.0744 -0.1932
vn -0.9908 0.0706 -0.1158
vn -0.9900 0.0586 0.1280
vn -0.3356 0.0557 0.9404
vn -0.3964 0.0553 0.9164
vn 0.5532 0.0492 0.8316
vn 0.3358 0.0567 0.9402
vn 0.3964 0.0541 0.9165
vn 0.6088 0.0450 0.7921
vn 0.9677 0.0566 -0.2458
vn 0.9920 0.0546 -0.1142
vn 0.4718 0.0584 -0.8798
vn 0.6585 0.0639 -0.7498
vn 0.5958 0.0612 -0.8008
vn 0.3815 0.0528 -0.9229
vt 0.880906 0.619433
vt 0.882015 0.605745
vt 0.887738 0.593262
vt 0.896966 0.583607
vt 0.908940 0.577690
vt 0.922216 0.576225
vt 0.935192 0.579389
vt 0.946402 0.586845
vt 0.954386 0.597686
vt 0.958180 0.610603
vt 0.957328 0.624039
vt 0.952296 0.637133
vt 0.943090 0.647716
vt 0.930198 0.650212
vt 0.917381 0.651212
vt 0.904863 0.648289
vt 0.892495 0.643874
vt 0.884546 0.632675
vt 0.276661 0.027907
vt 0.292659 0.027563
vt 0.293049 0.216368
vt 0.276870 0.216730
vt 0.307697 0.027248
vt 0.308630 0.216037
vt 0.322092 0.026901
vt 0.323843 0.215642
vt 0.336518 0.026640
vt 0.339057 0.215322
vt 0.051740 0.029036
vt 0.066175 0.029275
vt 0.063650 0.218050
vt 0.048436 0.217823
vt 0.080607 0.029483
vt 0.078868 0.218299
vt 0.095032 0.029629
vt 0.094093 0.218469
vt 0.110123 0.029644
vt 0.109722 0.218474
vt 0.126185 0.029633
vt 0.125986 0.218463
vt 0.142690 0.029599
vt 0.142600 0.218432
vt 0.159387 0.029539
vt 0.159383 0.218375
vt 0.176139 0.029442
vt 0.176219 0.218282
vt 0.192910 0.029298
vt 0.193055 0.218141
vt 0.209710 0.029103
vt 0.209891 0.217948
vt 0.226545 0.028857
vt 0.226728 0.217701
vt 0.243425 0.028565
vt 0.243565 0.217405
vt 0.260195 0.028249
vt 0.260325 0.217083
vt 0.294020 0.405173
vt 0.277415 0.405590
vt 0.310454 0.404762
vt 0.326816 0.404226
vt 0.343196 0.403806
vt 0.048440 0.217641
vt 0.059406 0.406801
vt 0.043018 0.406396
vt 0.075794 0.407118
vt 0.092177 0.407345
vt 0.108699 0.407343
vt 0.125467 0.407335
vt 0.142376 0.407314
vt 0.159298 0.407270
vt 0.176203 0.407189
vt 0.193106 0.407056
vt 0.210007 0.406866
vt 0.226908 0.406618
vt 0.243809 0.406311
vt 0.260663 0.405975
vt 0.295223 0.593966
vt 0.278089 0.594474
vt 0.312373 0.593409
vt 0.329459 0.592603
vt 0.346585 0.591955
vt 0.043017 0.406419
vt 0.055685 0.595529
vt 0.038526 0.595182
vt 0.072849 0.595937
vt 0.090027 0.596213
vt 0.107364 0.596204
vt 0.124818 0.596202
vt 0.142157 0.596203
vt 0.159278 0.596193
vt 0.176260 0.596129
vt 0.193237 0.596007
vt 0.210209 0.595822
vt 0.227177 0.595574
vt 0.244143 0.595258
vt 0.261096 0.594905
vt 0.296202 0.782898
vt 0.278623 0.783508
vt 0.314815 0.782110
vt 0.334060 0.780899
vt 0.353124 0.779198
vt 0.038538 0.594800
vt 0.048943 0.784242
vt 0.029804 0.783489
vt 0.068088 0.784804
vt 0.087238 0.785138
vt 0.106057 0.785126
vt 0.124283 0.785133
vt 0.142147 0.785162
vt 0.159595 0.785227
vt 0.176718 0.785188
vt 0.193805 0.785079
vt 0.210830 0.784905
vt 0.227766 0.784665
vt 0.244584 0.784355
vt 0.261466 0.783983
vt 0.321759 0.970214
vt 0.300983 0.971256
vt 0.342848 0.968918
vt 0.364230 0.967152
vt 0.385713 0.964224
vt 0.029809 0.783354
vt 0.041524 0.973037
vt 0.019762 0.972041
vt 0.063295 0.973714
vt 0.085069 0.974094
vt 0.105463 0.974090
vt 0.124076 0.974101
vt 0.142221 0.974144
vt 0.161078 0.974259
vt 0.180733 0.974198
vt 0.200443 0.974023
vt 0.220239 0.973739
vt 0.240154 0.973335
vt 0.260223 0.972797
vt 0.280485 0.972110
vt 0.880767 0.931734
vt 0.889204 0.931440
vt 0.905457 0.932798
vt 0.919267 0.938088
vt 0.930632 0.947311
vt 0.939554 0.960465
vt 0.943152 0.967530
vt 0.916326 0.960845
vt 0.897436 0.946742
vt 0.906756 0.680372
vt 0.929597 0.681339
vt 0.952131 0.682614
vt 0.948153 0.686047
vt 0.935366 0.694363
vt 0.921339 0.698308
vt 0.906074 0.697882
vt 0.889569 0.693085
vt 0.880906 0.689552
vt 0.924312 0.811004
vt 0.902949 0.821399
vt 0.880906 0.831116
vt 0.884423 0.822523
vt 0.892005 0.809285
vt 0.902483 0.799546
vt 0.915858 0.793307
vt 0.932129 0.790567
vt 0.942260 0.790001
vt 0.949327 0.761275
vt 0.927053 0.759060
vt 0.904369 0.757009
vt 0.880906 0.744375
vt 0.886536 0.743097
vt 0.903335 0.741083
vt 0.918875 0.742951
vt 0.933155 0.748701
vt 0.946177 0.758334
vt 0.926414 0.906863
vt 0.902747 0.909885
vt 0.879331 0.912402
vt 0.949579 0.901828
vt 0.944973 0.899737
vt 0.929646 0.894993
vt 0.914559 0.894782
vt 0.899713 0.899107
vt 0.885107 0.907966
vt 0.925742 0.859242
vt 0.902683 0.868859
vt 0.879551 0.877967
vt 0.947854 0.848241
vt 0.936235 0.845348
vt 0.920642 0.843629
vt 0.907013 0.846728
vt 0.895348 0.854644
vt 0.885648 0.867377
vt 0.482728 0.523848
vt 0.497022 0.523361
vt 0.519483 0.988470
vt 0.505189 0.988950
vt 0.511303 0.522581
vt 0.533764 0.987689
vt 0.525565 0.521514
vt 0.548027 0.986621
vt 0.538776 0.520229
vt 0.552560 0.986196
vt 0.469502 0.523749
vt 0.498168 0.988943
vt 0.708646 0.521195
vt 0.722943 0.520781
vt 0.740642 0.985660
vt 0.726345 0.986070
vt 0.737232 0.520167
vt 0.754932 0.985045
vt 0.751512 0.519362
vt 0.769213 0.984234
vt 0.764742 0.518416
vt 0.773682 0.983945
vt 0.695375 0.521197
vt 0.722816 0.986084
vt 0.732794 0.037948
vt 0.747094 0.038180
vt 0.749082 0.503795
vt 0.734783 0.503562
vt 0.761395 0.038119
vt 0.763384 0.503733
vt 0.775692 0.037763
vt 0.777681 0.503377
vt 0.788948 0.037014
vt 0.787414 0.502845
vt 0.719513 0.037311
vt 0.725024 0.503112
vt 0.879391 0.038003
vt 0.893688 0.038391
vt 0.890786 0.504132
vt 0.876489 0.503742
vt 0.907989 0.038466
vt 0.905088 0.504206
vt 0.922289 0.038230
vt 0.919389 0.503968
vt 0.935526 0.037581
vt 0.926100 0.503671
vt 0.866152 0.037177
vt 0.869996 0.503364
vt 0.416237 0.021909
vt 0.430537 0.022112
vt 0.431553 0.487437
vt 0.417252 0.487232
vt 0.444838 0.022080
vt 0.445855 0.487404
vt 0.459137 0.021813
vt 0.460154 0.487136
vt 0.472415 0.021228
vt 0.468133 0.486805
vt 0.402977 0.021382
vt 0.409295 0.486936
vt 0.586111 0.038192
vt 0.600413 0.038335
vt 0.608102 0.503588
vt 0.593800 0.503441
vt 0.614715 0.038272
vt 0.622405 0.503524
vt 0.629015 0.037983
vt 0.636705 0.503229
vt 0.642247 0.037162
vt 0.642228 0.502908
vt 0.572823 0.037974
vt 0.589654 0.503394
vt 0.473247 0.990057
vt 0.464939 0.990429
vt 0.441625 0.524919
vt 0.448594 0.524626
vt 0.695621 0.986969
vt 0.686556 0.987264
vt 0.667508 0.522122
vt 0.674475 0.521891
vt 0.702154 0.503211
vt 0.694531 0.503244
vt 0.691634 0.037431
vt 0.698604 0.037401
vt 0.844988 0.503178
vt 0.836652 0.503115
vt 0.838259 0.036977
vt 0.845232 0.037027
vt 0.385279 0.486988
vt 0.377273 0.487005
vt 0.375083 0.021442
vt 0.382057 0.021427
vt 0.563038 0.504122
vt 0.554166 0.504365
vt 0.544959 0.038773
vt 0.551925 0.038573
vt 0.481554 0.989686
vt 0.455564 0.524334
vt 0.489861 0.989314
vt 0.462533 0.524042
vt 0.704686 0.986674
vt 0.681442 0.521659
vt 0.713751 0.986379
vt 0.688409 0.521428
vt 0.709777 0.503178
vt 0.705574 0.037371
vt 0.717400 0.503145
vt 0.712543 0.037341
vt 0.853324 0.503240
vt 0.852206 0.037077
vt 0.861660 0.503302
vt 0.859179 0.037127
vt 0.393284 0.486971
vt 0.389030 0.021412
vt 0.401289 0.486953
vt 0.396004 0.021397
vt 0.571910 0.503879
vt 0.558891 0.038373
vt 0.580782 0.503637
vt 0.565857 0.038174
s 1
f 17/1/1 16/2/1 15/3/1
f 15/3/1 14/4/1 13/5/1
f 13/5/1 12/6/1 11/7/1
f 15/3/1 13/5/1 11/7/1
f 11/7/1 10/8/1 9/9/1
f 9/9/1 8/10/1 7/11/1
f 11/7/1 9/9/1 7/11/1
f 7/11/1 6/12/1 5/13/1
f 5/13/1 4/14/1 3/15/1
f 7/11/1 5/13/1 3/15/1
f 11/7/1 7/11/1 3/15/1
f 15/3/1 11/7/1 3/15/1
f 3/15/1 2/16/1 1/17/1
f 15/3/1 3/15/1 1/17/1
f 17/1/1 15/3/1 1/17/1
f 18/18/1 17/1/1 1/17/1
f 1/19/2 2/20/3 20/21/4
f 20/21/4 19/22/5 1/19/2
f 2/20/3 3/23/6 21/24/7
f 21/24/7 20/21/4 2/20/3
f 3/23/6 4/25/8 22/26/9
f 22/26/9 21/24/7 3/23/6
f 4/25/8 5/27/10 23/28/11
f 23/28/11 22/26/9 4/25/8
f 5/29/10 6/30/12 24/31/13
f 24/31/13 23/32/11 5/29/10
f 6/30/12 7/33/14 25/34/15
f 25/34/15 24/31/13 6/30/12
f 7/33/14 8/35/16 26/36/17
f 26/36/17 25/34/15 7/33/14
f 8/35/16 9/37/18 27/38/19
f 27/38/19 26/36/17 8/35/16
f 9/37/18 10/39/20 28/40/21
f 28/40/21 27/38/19 9/37/18
f 10/39/20 11/41/22 29/42/23
f 29/42/23 28/40/21 10/39/20
f 11/41/22 12/43/24 30/44/25
f 30/44/25 29/42/23 11/41/22
f 12/43/24 13/45/26 31/46/27
f 31/46/27 30/44/25 12/43/24
f 13/45/26 14/47/28 32/48/29
f 32/48/29 31/46/27 13/45/26
f 14/47/28 15/49/30 33/50/31
f 33/50/31 32/48/29 14/47/28
f 15/49/30 16/51/32 34/52/33
f 34/52/33 33/50/31 15/49/30
f 16/51/32 17/53/34 35/54/35
f 35/54/35 34/52/33 16/51/32
f 17/53/34 18/55/36 36/56/37
f 36/56/37 35/54/35 17/53/34
f 18/55/36 1/19/2 19/22/5
f 19/22/5 36/56/37 18/55/36
f 19/22/5 20/21/4 38/57/38
f 38/57/38 37/58/39 19/22/5
f 20/21/4 21/24/7 39/59/40
f 39/59/40 38/57/38 20/21/4
f 21/24/7 22/26/9 40/60/41
f 40/60/41 39/59/40 21/24/7
f 22/26/9 23/28/11 41/61/42
f 41/61/42 40/60/41 22/26/9
f 23/62/11 24/31/13 42/63/43
f 42/63/43 41/64/42 23/62/11
f 24/31/13 25/34/15 43/65/44
f 43/65/44 42/63/43 24/31/13
f 25/34/15 26/36/17 44/66/45
f 44/66/45 43/65/44 25/34/15
f 26/36/17 27/38/19 45/67/46
f 45/67/46 44/66/45 26/36/17
f 27/38/19 28/40/21 46/68/47
f 46/68/47 45/67/46 27/38/19
f 28/40/21 29/42/23 47/69/48
f 47/69/48 46/68/47 28/40/21
f 29/42/23 30/44/25 48/70/49
f 48/70/49 47/69/48 29/42/23
f 30/44/25 31/46/27 49/71/50
f 49/71/50 48/70/49 30/44/25
f 31/46/27 32/48/29 50/72/51
f 50/72/51 49/71/50 31/46/27
f 32/48/29 33/50/31 51/73/52
f 51/73/52 50/72/51 32/48/29
f 33/50/31 34/52/33 52/74/53
f 52/74/53 51/73/52 33/50/31
f 34/52/33 35/54/35 53/75/54
f 53/75/54 52/74/53 34/52/33
f 35/54/35 36/56/37 54/76/55
f 54/76/55 53/75/54 35/54/35
f 36/56/37 19/22/5 37/58/39
f 37/58/39 54/76/55 36/56/37
f 37/58/39 38/57/38 56/77/56
f 56/77/56 55/78/57 37/58/39
f 38/57/38 39/59/40 57/79/58
f 57/79/58 56/77/56 38/57/38
f 39/59/40 40/60/41 58/80/59
f 58/80/59 57/79/58 39/59/40
f 40/60/41 41/61/42 59/81/60
f 59/81/60 58/80/59 40/60/41
f 41/82/42 42/63/43 60/83/61
f 60/83/61 59/84/60 41/82/42
f 42/63/43 43/65/44 61/85/62
f 61/85/62 60/83/61 42/63/43
f 43/65/44 44/66/45 62/86/63
f 62/86/63 61/85/62 43/65/44
f 44/66/45 45/67/46 63/87/64
f 63/87/64 62/86/63 44/66/45
f 45/67/46 46/68/47 64/88/65
f 64/88/65 63/87/64 45/67/46
f 46/68/47 47/69/48 65/89/66
f 65/89/66 64/88/65 46/68/47
f 47/69/48 48/70/49 66/90/67
f 66/90/67 65/89/66 47/69/48
f 48/70/49 49/71/50 67/91/68
f 67/91/68 66/90/67 48/70/49
f 49/71/50 50/72/51 68/92/69
f 68/92/69 67/91/68 49/71/50
f 50/72/51 51/73/52 69/93/70
f 69/93/70 68/92/69 50/72/51
f 51/73/52 52/74/53 70/94/71
f 70/94/71 69/93/70 51/73/52
f 52/74/53 53/75/54 71/95/72
f 71/95/72 70/94/71 52/74/53
f 53/75/54 54/76/55 72/96/73
f 72/96/73 71/95/72 53/75/54
f 54/76/55 37/58/39 55/78/57
f 55/78/57 72/96/73 54/76/55
f 55/78/57 56/77/56 74/97/74
f 74/97/74 73/98/75 55/78/57
f 56/77/56 57/79/58 75/99/76
f 75/99/76 74/97/74 56/77/56
f 57/79/58 58/80/59 76/100/77
f 76/100/77 75/99/76 57/79/58
f 58/80/59 59/81/60 77/101/78
f 77/101/78 76/100/77 58/80/59
f 59/102/60 60/83/61 78/103/79
f 78/103/79 77/104/78 59/102/60
f 60/83/61 61/85/62 79/105/80
f 79/105/80 78/103/79 60/83/61
f 61/85/62 62/86/63 80/106/81
f 80/106/81 79/105/80 61/85/62
f 62/86/63 63/87/64 81/107/82
f 81/107/82 80/106/81 62/86/63
f 63/87/64 64/88/65 82/108/83
f 82/108/83 81/107/82 63/87/64
f 64/88/65 65/89/66 83/109/84
f 83/109/84 82/108/83 64/88/65
f 65/89/66 66/90/67 84/110/85
f 84/110/85 83/109/84 65/89/66
f 66/90/67 67/91/68 85/111/86
f 85/111/86 84/110/85 66/90/67
f 67/91/68 68/92/69 86/112/87
f 86/112/87 85/111/86 67/91/68
f 68/92/69 69/93/70 87/113/88
f 87/113/88 86/112/87 68/92/69
f 69/93/70 70/94/71 88/114/89
f 88/114/89 87/113/88 69/93/70
f 70/94/71 71/95/72 89/115/90
f 89/115/90 88/114/89 70/94/71
f 71/95/72 72/96/73 90/116/91
f 90/116/91 89/115/90 71/95/72
f 72/96/73 55/78/57 73/98/75
f 73/98/75 90/116/91 72/96/73
f 73/98/75 74/97/74 92/117/92
f 92/117/92 91/118/93 73/98/75
f 74/97/74 75/99/76 93/119/94
f 93/119/94 92/117/92 74/97/74
f 75/99/76 76/100/77 94/120/95
f 94/120/95 93/119/94 75/99/76
f 76/100/77 77/101/78 95/121/96
f 95/121/96 94/120/95 76/100/77
f 77/122/78 78/103/79 96/123/97
f 96/123/97 95/124/96 77/122/78
f 78/103/79 79/105/80 97/125/98
f 97/125/98 96/123/97 78/103/79
f 79/105/80 80/106/81 98/126/99
f 98/126/99 97/125/98 79/105/80
f 80/106/81 81/107/82 99/127/100
f 99/127/100 98/126/99 80/106/81
f 81/107/82 82/108/83 100/128/101
f 100/128/101 99/127/100 81/107/82
f 82/108/83 83/109/84 101/129/102
f 101/129/102 100/128/101 82/108/83
f 83/109/84 84/110/85 102/130/103
f 102/130/103 101/129/102 83/109/84
f 84/110/85 85/111/86 103/131/104
f 103/131/104 102/130/103 84/110/85
f 85/111/86 86/112/87 104/132/105
f 104/132/105 103/131/104 85/111/86
f 86/112/87 87/113/88 105/133/106
f 105/133/106 104/132/105 86/112/87
f 87/113/88 88/114/89 106/134/107
f 106/134/107 105/133/106 87/113/88
f 88/114/89 89/115/90 107/135/108
f 107/135/108 106/134/107 88/114/89
f 89/115/90 90/116/91 108/136/109
f 108/136/109 107/135/108 89/115/90
f 90/116/91 73/98/75 91/118/93
f 91/118/93 108/136/109 90/116/91
f 133/137/110 154/138/110 184/139/110
f 133/137/110 184/139/110 185/140/110
f 133/137/110 185/140/110 186/141/110
f 133/137/110 186/141/110 134/142/110
f 134/142/110 130/143/110 131/144/110
f 133/137/110 134/142/110 131/144/110
f 132/145/110 133/137/110 131/144/110
f 116/146/110 117/147/110 118/148/110
f 118/148/110 151/149/111 175/150/110
f 118/148/110 175/150/110 176/151/110
f 118/148/110 176/151/110 177/152/110
f 118/148/110 177/152/110 119/153/110
f 116/146/110 118/148/110 119/153/110
f 115/154/110 116/146/110 119/153/110
f 136/155/110 137/156/110 138/157/110
f 138/157/110 155/158/110 187/159/110
f 138/157/110 187/159/110 188/160/110
f 138/157/110 188/160/110 189/161/110
f 138/157/110 189/161/110 139/162/110
f 136/155/110 138/157/110 139/162/110
f 135/163/110 136/155/110 139/162/110
f 120/164/110 121/165/110 122/166/110
f 123/167/110 152/168/110 178/169/110
f 123/167/110 178/169/110 179/170/110
f 123/167/110 179/170/110 180/171/110
f 123/167/110 180/171/110 124/172/110
f 122/166/110 123/167/110 124/172/110
f 120/164/110 122/166/110 124/172/110
f 141/173/110 142/174/110 143/175/110
f 140/176/110 141/173/110 143/175/110
f 144/177/110 140/176/110 143/175/110
f 192/178/110 144/177/110 143/175/110
f 191/179/110 192/178/110 143/175/110
f 190/180/110 191/179/110 143/175/110
f 156/181/110 190/180/110 143/175/110
f 126/182/110 127/183/110 128/184/110
f 125/185/110 126/182/110 128/184/110
f 129/186/110 125/185/110 128/184/110
f 183/187/110 129/186/110 128/184/110
f 182/188/110 183/187/110 128/184/110
f 181/189/110 182/188/110 128/184/110
f 153/190/110 181/189/110 128/184/110
f 91/191/93 92/192/92 116/193/112
f 116/193/112 115/194/113 91/191/93
f 92/192/92 93/195/94 117/196/114
f 117/196/114 116/193/112 92/192/92
f 93/195/94 94/197/95 118/198/115
f 118/198/115 117/196/114 93/195/94
f 94/197/116 145/199/117 151/200/118
f 151/200/118 118/198/119 94/197/116
f 109/201/120 91/191/121 115/194/122
f 115/194/122 119/202/123 109/201/120
f 97/203/98 98/204/99 121/205/124
f 121/205/124 120/206/125 97/203/98
f 98/204/99 99/207/100 122/208/126
f 122/208/126 121/205/124 98/204/99
f 99/207/100 100/209/101 123/210/127
f 123/210/127 122/208/126 99/207/100
f 100/209/128 147/211/129 152/212/130
f 152/212/130 123/210/131 100/209/128
f 111/213/132 97/203/133 120/206/134
f 120/206/134 124/214/135 111/213/132
f 103/215/104 104/216/105 126/217/136
f 126/217/136 125/218/137 103/215/104
f 104/216/105 105/219/106 127/220/138
f 127/220/138 126/217/136 104/216/105
f 105/219/106 106/221/107 128/222/139
f 128/222/139 127/220/138 105/219/106
f 106/221/140 149/223/141 153/224/142
f 153/224/142 128/222/143 106/221/140
f 113/225/144 103/215/145 125/218/146
f 125/218/146 129/226/147 113/225/144
f 106/227/107 107/228/108 131/229/148
f 131/229/148 130/230/149 106/227/107
f 107/228/108 108/231/109 132/232/150
f 132/232/150 131/229/148 107/228/108
f 108/231/109 91/233/93 133/234/151
f 133/234/151 132/232/150 108/231/109
f 91/233/152 150/235/153 154/236/154
f 154/236/154 133/234/155 91/233/152
f 114/237/156 106/227/157 130/230/158
f 130/230/158 134/238/159 114/237/156
f 94/239/95 95/240/96 136/241/160
f 136/241/160 135/242/161 94/239/95
f 95/240/96 96/243/97 137/244/162
f 137/244/162 136/241/160 95/240/96
f 96/243/97 97/245/98 138/246/163
f 138/246/163 137/244/162 96/243/97
f 97/245/164 146/247/165 155/248/166
f 155/248/166 138/246/167 97/245/164
f 110/249/168 94/239/169 135/242/170
f 135/242/170 139/250/171 110/249/168
f 100/251/101 101/252/102 141/253/172
f 141/253/172 140/254/173 100/251/101
f 101/252/102 102/255/103 142/256/174
f 142/256/174 141/253/172 101/252/102
f 102/255/103 103/257/104 143/258/175
f 143/258/175 142/256/174 102/255/103
f 103/257/176 148/259/177 156/260/178
f 156/260/178 143/258/179 103/257/176
f 112/261/180 100/251/181 140/254/182
f 140/254/182 144/262/183 112/261/180
f 175/263/184 151/264/118 145/265/117
f 145/265/117 159/266/185 175/263/184
f 178/267/186 152/268/130 147/269/129
f 147/269/129 165/270/187 178/267/186
f 181/271/188 153/272/142 149/273/141
f 149/273/141 171/274/189 181/271/188
f 184/275/190 154/276/154 150/277/153
f 150/277/153 174/278/191 184/275/190
f 187/279/192 155/280/166 146/281/165
f 146/281/165 162/282/193 187/279/192
f 190/283/194 156/284/178 148/285/177
f 148/285/177 168/286/195 190/283/194
f 176/287/196 175/263/184 159/266/185
f 159/266/185 158/288/197 176/287/196
f 177/289/198 176/287/199 158/288/200
f 158/288/200 157/290/201 177/289/198
f 119/202/123 177/289/198 157/290/201
f 157/290/201 109/201/120 119/202/123
f 179/291/202 178/267/186 165/270/187
f 165/270/187 164/292/203 179/291/202
f 180/293/204 179/291/205 164/292/206
f 164/292/206 163/294/207 180/293/204
f 124/214/135 180/293/204 163/294/207
f 163/294/207 111/213/132 124/214/135
f 182/295/208 181/271/188 171/274/189
f 171/274/189 170/296/209 182/295/208
f 183/297/210 182/295/211 170/296/212
f 170/296/212 169/298/213 183/297/210
f 129/226/147 183/297/210 169/298/213
f 169/298/213 113/225/144 129/226/147
f 185/299/214 184/275/190 174/278/191
f 174/278/191 173/300/215 185/299/214
f 186/301/216 185/299/217 173/300/218
f 173/300/218 172/302/219 186/301/216
f 134/238/159 186/301/216 172/302/219
f 172/302/219 114/237/156 134/238/159
f 188/303/220 187/279/192 162/282/193
f 162/282/193 161/304/221 188/303/220
f 189/305/222 188/303/223 161/304/224
f 161/304/224 160/306/225 189/305/222
f 139/250/171 189/305/222 160/306/225
f 160/306/225 110/249/168 139/250/171
f 191/307/226 190/283/194 168/286/195
f 168/286/195 167/308/227 191/307/226
f 192/309/228 191/307/229 167/308/230
f 167/308/230 166/310/231 192/309/228
f 144/262/183 192/309/228 166/310/231
f 166/310/231 112/261/180 144/262/183
