# Blender 4.0.2
# www.blender.org
mtllib Monaluka.mtl
o _0_0
v 55.374531 84.695099 7.014022
v 55.374531 -84.662285 7.014007
v 62.302864 90.089256 7.014021
v 62.302864 -90.238976 7.013979
v 54.641357 -83.912018 4.710234
v 54.641357 83.945107 4.710222
v -55.248245 -83.912018 4.710234
v -55.248245 83.945107 4.710222
v -62.302864 90.089256 7.014021
v -55.981422 84.695099 7.014022
v -62.302864 -90.238976 7.013979
v -55.981422 -84.662285 7.014007
v 63.612038 -92.132706 -1.358224
v 63.612038 91.982979 -1.358182
v -63.612038 91.982979 -1.358182
v -63.612038 -92.132706 -1.358224
vn -0.2103 -0.2110 0.9546
vn -0.2103 0.2110 0.9546
vn 0.5356 0.5085 0.6743
vn 0.5356 -0.5085 0.6743
vn -0.4819 0.4790 0.7337
vn -0.4819 -0.4790 0.7337
vn 0.4819 0.4790 0.7337
vn 0.4819 -0.4791 0.7337
vn -0.5356 0.5085 0.6743
vn 0.2103 -0.2110 0.9546
vn -0.5356 -0.5085 0.6743
vn 0.2103 0.2110 0.9546
vn 0.6698 -0.6948 0.2619
vn 0.6698 0.6948 0.2619
vn -0.6698 0.6948 0.2619
vn -0.6698 -0.6948 0.2619
vt 0.637104 0.975310
vt 0.637104 0.030915
vt 0.670919 1.000000
vt 0.670919 0.000000
vt 0.028809 0.030915
vt 0.028809 0.975310
vt 0.000000 1.000000
vt 0.000000 0.000000
vt 0.645008 0.024597
vt 0.645008 0.975402
vt 0.025910 0.975402
vt 0.025910 0.024597
s 1
usemtl Mdl_0_Mtl_W014_W014_Diffuse
f 1/1/1 2/2/2 3/3/3
f 3/3/3 2/2/2 4/4/4
f 1/1/1 5/2/5 2/2/2
f 6/1/6 5/2/5 1/1/1
f 5/2/5 6/1/6 7/5/7
f 5/2/5 7/5/7 2/2/2
f 7/5/7 6/1/6 8/6/8
f 3/3/3 9/7/9 1/1/1
f 1/1/1 9/7/9 10/6/10
f 10/6/10 6/1/6 1/1/1
f 8/6/8 6/1/6 10/6/10
f 4/4/4 2/2/2 11/8/11
f 12/5/12 8/6/8 10/6/10
f 7/5/7 8/6/8 12/5/12
f 2/2/2 7/5/7 12/5/12
f 11/8/11 12/5/12 9/7/9
f 11/8/11 2/2/2 12/5/12
f 9/7/9 12/5/12 10/6/10
f 11/8/11 13/9/13 4/4/4
f 13/9/13 14/10/14 4/4/4
f 4/4/4 14/10/14 3/3/3
f 3/3/3 15/11/15 9/7/9
f 14/10/14 15/11/15 3/3/3
f 15/11/15 16/12/16 9/7/9
f 9/7/9 16/12/16 11/8/11
f 16/12/16 13/9/13 11/8/11
o _1_0
v 63.611485 91.984085 -1.357603
v 63.611485 -92.133804 -1.357645
v 69.193413 98.313805 -1.357604
v 69.193413 -98.463524 -1.357644
v -63.611485 -92.133804 -1.357645
v -69.193413 -98.463524 -1.357644
v -63.611485 91.984085 -1.357603
v -69.193413 98.313805 -1.357604
vn -0.0000 -0.0000 1.0000
vt 0.957213 0.969817
vt 0.957213 0.030182
vt 1.000000 1.000000
vt 1.000000 0.000000
vt 0.042786 0.030182
vt 0.000000 0.000000
vt 0.042786 0.969817
vt 0.000000 1.000000
s 0
usemtl Mdl_0_Mtl_W002_Diffuse10
f 17/13/17 18/14/17 19/15/17
f 19/15/17 18/14/17 20/16/17
f 18/14/17 21/17/17 20/16/17
f 20/16/17 21/17/17 22/18/17
f 21/17/17 23/19/17 22/18/17
f 24/20/17 17/13/17 19/15/17
f 22/18/17 23/19/17 24/20/17
f 23/19/17 17/13/17 24/20/17
