# Blender 4.0.2
# www.blender.org
mtllib Mushroom.mtl
o Mesh_0.021
v -0.000005 257.886078 -130.394241
v -22.624050 259.349976 -126.138802
v -0.000003 282.004791 -76.171440
v -41.803768 263.518890 -114.020309
v -54.619263 269.757996 -95.883766
v -59.119465 277.117615 -74.490219
v 59.119457 277.117615 -74.490242
v 54.619247 269.757996 -95.883797
v 41.803730 263.518890 -114.020355
v 22.623970 259.349976 -126.138809
v -0.000079 257.886078 -130.394241
v 14.875591 208.467453 -64.011856
v 47.683525 200.981476 -48.852440
v 33.499271 218.205444 -35.704617
v 51.612297 207.406509 -30.175493
v 47.683563 213.831543 -11.498549
v 17.525198 228.670578 -4.803162
v 36.495415 219.278427 4.334997
v 71.373245 225.824661 37.188881
v 93.253632 215.172302 6.223576
v 100.936981 202.607010 -30.302490
v 93.253586 190.041733 -66.828552
v 36.495369 195.534592 -64.685982
v 71.373146 179.389389 -97.793831
v 38.626797 172.271729 -118.484169
v 19.751102 191.895111 -75.265610
v -0.000079 169.772339 -125.749611
v -0.000054 190.617111 -78.980667
v -38.626934 172.271729 -118.484116
v -19.751202 191.895111 -75.265579
v -71.373230 179.389420 -97.793785
v -36.495438 195.534607 -64.685951
v -20.057997 209.593903 -60.737446
v -0.000107 163.885925 -182.278107
v -0.000103 159.789932 -173.468872
v -60.785404 167.819122 -170.844757
v -57.502670 163.510696 -162.652969
v -112.316742 179.019852 -138.285339
v -106.251030 174.106537 -131.851929
v -146.748886 195.782959 -89.556702
v -138.823654 189.964355 -85.754898
v -158.839890 215.556381 -32.077347
v -150.261673 208.669907 -31.379751
v -93.253609 190.041763 -66.828484
v -100.937004 202.607040 -30.302444
v -47.683578 200.981476 -48.852402
v -51.612328 207.406509 -30.175468
v -35.050411 218.796265 -33.506760
v 57.502495 163.510696 -162.653046
v 60.785221 167.819092 -170.844864
v 106.250923 174.106522 -131.852005
v 112.316620 179.019836 -138.285416
v 138.823624 189.964325 -85.755005
v 146.748840 195.782928 -89.556793
v 150.261673 208.669830 -31.379816
v 158.839890 215.556305 -32.077415
v 138.823700 227.375427 22.995367
v 146.748932 235.329773 25.401960
v 106.251076 243.233246 69.092438
v 112.316780 252.092865 74.130646
v 57.502666 253.829071 99.893517
v 60.785404 263.293640 106.690094
v -0.000001 257.549866 110.709373
v 0.000000 267.226807 118.123436
v -57.502678 253.829071 99.893517
v -60.785408 263.293640 106.690094
v -106.251076 243.233246 69.092438
v -112.316780 252.092865 74.130646
v -138.823654 227.375443 22.995398
v -146.748886 235.329788 25.401995
v -150.261673 208.669907 -31.379751
v -158.839890 215.556381 -32.077347
v -100.937004 202.607040 -30.302444
v -93.253616 215.172333 6.223598
v -71.373268 225.824661 37.188881
v -38.626942 232.942352 57.879250
v -0.000010 235.441757 65.144722
v 38.626915 232.942352 57.879242
v -36.495449 219.278427 4.334997
v -19.751207 222.917923 14.914642
v -0.000019 224.195969 18.629726
v 19.751165 222.917923 14.914642
v -17.525202 228.670578 -4.803162
v -51.612328 207.406509 -30.175468
v -47.683578 213.831558 -11.498529
v -35.050411 218.796265 -33.506760
v 100.923149 215.802155 -141.713730
v 54.619114 205.737656 -170.970261
v 77.243233 240.193817 -135.513763
v 41.803661 232.490753 -157.905762
v -0.000098 202.203476 -181.243729
v -0.000076 229.785843 -165.768753
v -0.000105 181.347198 -185.381775
v 59.764645 185.214294 -174.140411
v 110.430870 196.226990 -142.127701
v 144.284988 212.708588 -94.217201
v 131.862534 230.864822 -97.928146
v 156.172974 232.150040 -37.702911
v 142.727005 248.632385 -46.279533
v 144.285080 251.591492 18.811390
v 131.862595 266.400024 5.369097
v 110.430984 268.073120 66.721886
v 100.923271 281.462616 49.154690
v 59.764835 279.085846 98.734688
v 54.619293 291.527161 78.411263
v 41.803795 298.151245 32.962593
v 77.243332 290.448151 10.570547
v 100.923256 278.919708 -22.941488
v 109.238518 265.320953 -62.471626
v 100.923210 251.722260 -102.001770
v -0.000107 163.885925 -182.278107
v 60.785221 167.819092 -170.844864
v 112.316620 179.019836 -138.285416
v 146.748840 195.782928 -89.556793
v 158.839890 215.556305 -32.077415
v 146.748932 235.329773 25.401960
v 112.316780 252.092865 74.130646
v 60.785404 263.293640 106.690094
v 0.000000 267.226807 118.123436
v 0.000001 282.953003 109.976135
v -0.000001 295.061371 88.684799
v -0.000001 300.856232 40.825642
v -0.000002 296.349091 -18.586164
v 22.624044 294.885162 -22.841602
v 41.803795 290.716339 -34.960083
v 54.619274 284.477142 -53.096680
v 59.119457 277.117615 -74.490242
v 54.619247 269.757996 -95.883797
v 41.803730 263.518890 -114.020355
v 22.623970 259.349976 -126.138809
v -0.000079 257.886078 -130.394241
v -100.923271 281.462616 49.154690
v -54.619289 291.527161 78.411263
v -77.243324 290.448151 10.570547
v -41.803787 298.151245 32.962593
v -0.000001 295.061371 88.684799
v -0.000001 300.856232 40.825642
v 0.000001 282.953003 109.976135
v -59.764835 279.085846 98.734688
v -110.430984 268.073120 66.721886
v -144.284988 251.591507 18.811428
v -131.862564 266.400024 5.369122
v -156.172974 232.150101 -37.702843
v -142.727005 248.632385 -46.279461
v -144.284988 212.708649 -94.217117
v -131.862564 230.864853 -97.928047
v -110.430969 196.227005 -142.127609
v -100.923256 215.802200 -141.713623
v -59.764809 185.214340 -174.140381
v -54.619274 205.737656 -170.970184
v -41.803780 232.490784 -157.905701
v -77.243301 240.193878 -135.513718
v -100.923256 251.722305 -102.001678
v -109.238548 265.321014 -62.471573
v -100.923256 278.919708 -22.941458
v 0.000000 267.226807 118.123436
v -60.785408 263.293640 106.690094
v -112.316780 252.092865 74.130646
v -146.748886 235.329788 25.401995
v -158.839890 215.556381 -32.077347
v -146.748886 195.782959 -89.556702
v -112.316742 179.019852 -138.285339
v -60.785404 167.819122 -170.844757
v -0.000107 163.885925 -182.278107
v -0.000105 181.347198 -185.381775
v -0.000098 202.203476 -181.243729
v -0.000076 229.785843 -165.768753
v -0.000005 257.886078 -130.394241
v -22.624050 259.349976 -126.138802
v -41.803768 263.518890 -114.020309
v -54.619263 269.757996 -95.883766
v -59.119465 277.117615 -74.490219
v -54.619274 284.477142 -53.096661
v -41.803787 290.716339 -34.960083
v -22.624050 294.885162 -22.841602
v -0.000002 296.349091 -18.586164
v -59.119465 277.117615 -74.490219
v -54.619274 284.477142 -53.096661
v -0.000003 282.004791 -76.171440
v -41.803787 290.716339 -34.960083
v -22.624050 294.885162 -22.841602
v -0.000002 296.349091 -18.586164
v 22.624044 294.885162 -22.841602
v 41.803795 290.716339 -34.960083
v 54.619274 284.477142 -53.096680
v 59.119457 277.117615 -74.490242
v 16.838726 -2.541941 -29.054556
v 40.829876 12.621940 -1.104279
v 33.677456 -0.000000 -0.000004
v 20.414930 15.703738 34.120888
v 16.838724 2.541941 29.054552
v -20.414938 15.703738 34.120888
v -16.838730 2.541941 29.054552
v -40.829880 12.621940 -1.104276
v -33.677460 -0.000000 -0.000001
v -20.414942 9.540141 -36.329437
v -16.838732 -2.541941 -29.054554
v 20.414930 9.540140 -36.329445
v 18.212479 56.351711 -30.749460
v 36.424965 60.337509 0.542677
v 18.212479 64.323280 31.834816
v -18.212482 64.323280 31.834816
v -36.424973 60.337509 0.542679
v -18.212488 56.351711 -30.749460
v -15.484855 130.793976 -37.658127
v 15.484846 130.793976 -37.658127
v 30.969702 139.518677 -12.296319
v 15.484846 148.243347 13.065506
v -15.484851 148.243347 13.065506
v -30.969709 139.518677 -12.296319
v -35.050411 218.796265 -33.506760
v -17.525202 228.670578 -4.803162
v 17.525198 228.670578 -4.803162
v 33.499271 218.205444 -35.704617
v 14.875591 208.467453 -64.011856
v -20.057997 209.593903 -60.737446
vn -0.0528 0.8229 -0.5658
vn -0.1114 0.8487 -0.5170
vn -0.0000 0.9447 -0.3279
vn -0.1778 0.8716 -0.4568
vn -0.2120 0.8998 -0.3813
vn -0.2100 0.9305 -0.3002
vn 0.2159 0.9165 -0.3369
vn 0.2012 0.8858 -0.4181
vn 0.1514 0.8590 -0.4891
vn 0.0723 0.8412 -0.5359
vn 0.0391 0.8614 -0.5064
vn -0.2638 -0.6811 0.6830
vn -0.2931 -0.8521 0.4337
vn -0.4797 -0.8476 0.2269
vn -0.2687 -0.9106 0.3140
vn -0.2364 -0.9432 0.2336
vn -0.2179 -0.9596 -0.1783
vn -0.3038 -0.9523 0.0281
vn -0.0320 -0.9543 0.2970
vn 0.0029 -0.9408 0.3389
vn 0.0088 -0.9408 0.3388
vn 0.0127 -0.9434 0.3313
vn -0.1495 -0.8670 0.4753
vn 0.0449 -0.9572 0.2858
vn -0.0049 -0.9500 0.3122
vn -0.1036 -0.8224 0.5594
vn -0.0098 -0.9487 0.3160
vn 0.0107 -0.7837 0.6211
vn -0.0137 -0.9474 0.3198
vn 0.1192 -0.8295 0.5456
vn -0.0147 -0.9448 0.3274
vn 0.1925 -0.8443 0.5002
vn 0.2814 -0.6796 0.6775
vn -0.0146 -0.6182 -0.7858
vn -0.0293 -0.9947 -0.0982
vn -0.3732 -0.5951 -0.7118
vn -0.1827 -0.9818 -0.0514
vn -0.6732 -0.5362 -0.5093
vn -0.3000 -0.9530 0.0423
vn -0.8666 -0.4513 -0.2127
vn -0.3615 -0.9125 0.1915
vn -0.9253 -0.3503 0.1455
vn -0.3644 -0.8710 0.3295
vn -0.0127 -0.9434 0.3313
vn -0.0088 -0.9408 0.3388
vn 0.3117 -0.8463 0.4320
vn 0.2804 -0.9092 0.3079
vn 0.5227 -0.8058 0.2784
vn 0.1309 -0.9882 -0.0795
vn 0.3430 -0.6027 -0.7205
vn 0.3156 -0.9458 -0.0769
vn 0.6468 -0.5496 -0.5287
vn 0.3440 -0.9291 0.1356
vn 0.8500 -0.4694 -0.2391
vn 0.3722 -0.8879 0.2701
vn 0.9213 -0.3704 0.1180
vn 0.3429 -0.8477 0.4047
vn 0.8549 -0.2724 0.4415
vn 0.2277 -0.8377 0.4964
vn 0.6615 -0.1877 0.7261
vn 0.1485 -0.7909 0.5936
vn 0.3703 -0.1285 0.9200
vn 0.0215 -0.7826 0.6222
vn 0.0235 -0.1044 0.9943
vn -0.1065 -0.7879 0.6066
vn -0.3263 -0.1201 0.9376
vn -0.2228 -0.8045 0.5505
vn -0.6302 -0.1722 0.7571
vn -0.3136 -0.8335 0.4548
vn -0.8412 -0.2525 0.4781
vn -0.3644 -0.8710 0.3296
vn -0.0029 -0.9408 0.3389
vn 0.0020 -0.9408 0.3389
vn 0.0068 -0.9421 0.3352
vn 0.0098 -0.9434 0.3315
vn 0.0117 -0.9447 0.3276
vn 0.1837 -0.9757 0.1193
vn 0.1094 -0.9929 0.0459
vn -0.0039 -0.9998 -0.0210
vn -0.1212 -0.9910 0.0566
vn 0.2765 -0.9523 -0.1291
vn 0.2804 -0.9092 0.3078
vn 0.3048 -0.9350 0.1815
vn 0.5227 -0.8058 0.2783
vn 0.5657 0.4874 -0.6652
vn 0.3566 0.3950 -0.8467
vn 0.3234 0.7205 -0.6134
vn 0.1739 0.6720 -0.7199
vn 0.0752 0.3511 -0.9333
vn -0.0156 0.6562 -0.7544
vn 0.0059 0.0136 -0.9999
vn 0.3635 0.0393 -0.9308
vn 0.6644 0.1159 -0.7383
vn 0.8608 0.2291 -0.4545
vn 0.6712 0.6042 -0.4295
vn 0.9233 0.3615 -0.1296
vn 0.6654 0.7224 -0.1882
vn 0.8442 0.4933 0.2099
vn 0.5628 0.8257 0.0389
vn 0.6370 0.6024 0.4810
vn 0.3908 0.9000 0.1930
vn 0.3361 0.6738 0.6581
vn 0.1739 0.9424 0.2855
vn 0.1407 0.9901 -0.0003
vn 0.2609 0.9640 -0.0512
vn 0.3566 0.9162 -0.1828
vn 0.4094 0.8579 -0.3104
vn 0.4025 0.7885 -0.4651
vn -0.0146 -0.6183 -0.7858
vn 0.8500 -0.4693 -0.2391
vn 0.6614 -0.1877 0.7261
vn 0.0234 -0.1044 0.9943
vn -0.0117 0.6985 0.7156
vn -0.0586 0.9509 0.3038
vn 0.0088 0.9997 0.0207
vn 0.0166 0.9890 -0.1470
vn 0.0889 0.9828 -0.1620
vn 0.1524 0.9675 -0.2016
vn 0.1974 0.9446 -0.2624
vn 0.2160 0.9164 -0.3369
vn 0.2013 0.8858 -0.4182
vn 0.1515 0.8590 -0.4891
vn 0.0723 0.8411 -0.5360
vn 0.0391 0.8614 -0.5065
vn -0.4846 0.8663 0.1214
vn -0.2872 0.9246 0.2501
vn -0.2443 0.9688 -0.0408
vn -0.1231 0.9924 0.0039
vn -0.0118 0.6984 0.7156
vn -0.3576 0.6738 0.6466
vn -0.6507 0.6027 0.4619
vn -0.8481 0.4945 0.1903
vn -0.6253 0.7722 -0.1127
vn -0.9194 0.3649 -0.1467
vn -0.6820 0.6640 -0.3067
vn -0.8510 0.2336 -0.4703
vn -0.6321 0.5434 -0.5524
vn -0.6527 0.1200 -0.7481
vn -0.4719 0.4353 -0.7667
vn -0.3508 0.0418 -0.9355
vn -0.2198 0.3654 -0.9045
vn -0.2013 0.6791 -0.7059
vn -0.3390 0.7335 -0.5891
vn -0.4055 0.8015 -0.4395
vn -0.4016 0.8685 -0.2906
vn -0.3420 0.9242 -0.1702
vn -0.8412 -0.2526 0.4781
vn -0.9252 -0.3503 0.1455
vn -0.6732 -0.5361 -0.5093
vn -0.0146 -0.6182 -0.7859
vn 0.0058 0.0136 -0.9999
vn -0.0528 0.8228 -0.5659
vn -0.2101 0.9304 -0.3002
vn -0.1788 0.9560 -0.2326
vn -0.1251 0.9750 -0.1837
vn -0.0567 0.9864 -0.1543
vn -0.0567 0.9864 -0.1544
vn 0.1973 0.9446 -0.2624
vn 0.6478 -0.5243 -0.5528
vn 0.9458 -0.2219 -0.2371
vn 0.8393 -0.4491 0.3064
vn 0.6859 -0.1968 0.7006
vn 0.1915 -0.3974 0.8974
vn -0.2355 -0.1884 0.9534
vn -0.6478 -0.4203 0.6354
vn -0.9341 -0.2071 0.2909
vn -0.8393 -0.4955 -0.2238
vn -0.7024 -0.2307 -0.6733
vn -0.1915 -0.5472 -0.8148
vn 0.2550 -0.2370 -0.9374
vn 0.4885 0.0149 -0.8724
vn 0.9976 0.0497 -0.0491
vn 0.5071 0.1208 0.8534
vn -0.5061 0.1479 0.8497
vn -0.9927 0.1046 -0.0604
vn -0.4876 0.0414 -0.8721
vn -0.5071 -0.1614 -0.8467
vn 0.4739 -0.1804 -0.8619
vn 0.9985 -0.0047 -0.0539
vn 0.5139 0.1861 0.8374
vn -0.5012 0.1973 0.8425
vn -0.9985 0.0212 -0.0498
vn -0.9614 -0.1207 -0.2472
vn -0.7171 0.1334 0.6840
vn 0.2609 0.2023 0.9439
vn 0.9684 0.0353 0.2470
vn 0.6996 -0.2309 -0.6762
vn -0.2697 -0.2970 -0.9160
vt 1.033092 1.848216
vt 1.124399 1.859518
vt 1.033092 1.996685
vt 1.201805 1.891702
vt 1.253526 1.939868
vt 1.271688 1.996685
vt 0.794496 1.996685
vt 0.812658 1.939868
vt 0.864380 1.891702
vt 0.941786 1.859518
vt 1.033092 1.848216
vt 0.565104 -0.547469
vt 0.775469 -0.517854
vt 0.847085 -0.548418
vt 0.893027 -0.516107
vt 1.019802 -0.514454
vt 1.235544 -0.548703
vt 1.155010 -0.513147
vt 1.166021 -0.499476
vt 1.035062 -0.500120
vt 0.910771 -0.500652
vt 0.789399 -0.501795
vt 0.666041 -0.519430
vt 0.676160 -0.502571
vt 0.567996 -0.503145
vt 0.562505 -0.520594
vt 0.462684 -0.503428
vt 0.462139 -0.521169
vt 0.357632 -0.503378
vt 0.362120 -0.521067
vt 0.250296 -0.503002
vt 0.259709 -0.520305
vt 0.313119 -0.547428
vt 0.479463 -0.450797
vt 0.463230 -0.485687
vt 0.367598 -0.450773
vt 0.353143 -0.485688
vt 0.253652 -0.450588
vt 0.240883 -0.485700
vt 0.136101 -0.450270
vt 0.124778 -0.485719
vt 0.014717 -0.449868
vt 0.004387 -0.485744
vt 0.138591 -0.502358
vt 0.021291 -0.501544
vt 0.152404 -0.518998
vt 0.038195 -0.517345
vt 0.058483 -0.547603
vt 0.573486 -0.485696
vt 0.591499 -0.450658
vt 0.686280 -0.485713
vt 0.705978 -0.450375
vt 0.803329 -0.485736
vt 0.824462 -0.449992
vt 0.928514 -0.485198
vt 0.947144 -0.449568
vt 1.050322 -0.485786
vt 1.072681 -0.449166
vt 1.177032 -0.485806
vt 1.198946 -0.448848
vt 1.303418 -0.485817
vt 1.324346 -0.448663
vt 1.428943 -0.485819
vt 1.448624 -0.448639
vt 1.554107 -0.485810
vt 1.572573 -0.448778
vt 1.679481 -0.485793
vt 1.697041 -0.449061
vt 1.804740 -0.485770
vt 1.821951 -0.449444
vt 1.928452 -0.485744
vt 1.946008 -0.449868
vt 1.948969 -0.501544
vt 1.825989 -0.500683
vt 1.698252 -0.499907
vt 1.567127 -0.499334
vt 1.433880 -0.499050
vt 1.299672 -0.499101
vt 1.717024 -0.514022
vt 1.580147 -0.512858
vt 1.438818 -0.512282
vt 1.295925 -0.512384
vt 1.644966 -0.548561
vt 1.969486 -0.517345
vt 1.847238 -0.515597
vt 1.989773 -0.547603
vt 1.492418 0.701543
vt 1.739792 0.701543
vt 1.492923 0.842777
vt 1.740065 0.842777
vt 1.997408 0.700258
vt 1.997429 0.841909
vt 1.997390 0.612182
vt 1.738899 0.614083
vt 1.490765 0.614083
vt 1.242632 0.614083
vt 1.244794 0.701543
vt 0.973288 0.614083
vt 0.996842 0.701543
vt 0.746366 0.614083
vt 0.748533 0.701543
vt 0.498232 0.614083
vt 0.499893 0.701543
vt 0.250099 0.614083
vt 0.250999 0.701543
vt 0.251276 0.842777
vt 0.500404 0.842777
vt 0.749199 0.842777
vt 0.997560 0.842777
vt 1.245455 0.842777
vt 1.997408 0.549326
vt 1.739266 0.550479
vt 1.491445 0.550479
vt 1.243520 0.550479
vt 0.995461 0.550479
vt 0.747255 0.550479
vt 0.498913 0.550479
vt 0.250468 0.550479
vt 0.000134 0.556164
vt 0.000134 0.619899
vt 0.000134 0.707575
vt 0.000134 0.849290
vt 0.000134 0.994817
vt 0.252282 0.987946
vt 0.502258 0.987946
vt 0.751610 0.987946
vt 1.000155 0.987946
vt 1.247840 0.987946
vt 1.494740 0.987946
vt 1.741045 0.987946
vt 1.997429 0.986838
vt 1.485071 0.700359
vt 1.733966 0.700359
vt 1.484560 0.841593
vt 1.733689 0.841593
vt 1.997568 0.704414
vt 1.997568 0.846129
vt 1.997568 0.616738
vt 1.734866 0.612899
vt 1.486732 0.612899
vt 1.238599 0.612899
vt 1.236432 0.700359
vt 0.990466 0.612899
vt 0.988123 0.700359
vt 0.742333 0.612899
vt 0.740172 0.700359
vt 0.494200 0.612899
vt 0.492548 0.700359
vt 0.246067 0.612899
vt 0.245174 0.700359
vt 0.244901 0.841593
vt 0.492043 0.841593
vt 0.739510 0.841593
vt 0.987405 0.841593
vt 1.235766 0.841593
vt 1.997568 0.553003
vt 1.734497 0.549295
vt 1.486052 0.549295
vt 1.237710 0.549295
vt 0.989505 0.549295
vt 0.741445 0.549295
vt 0.493521 0.549295
vt 0.245700 0.549295
vt 0.000294 0.546165
vt 0.000312 0.609020
vt 0.000294 0.697097
vt 0.000273 0.838747
vt 0.000273 0.983677
vt 0.243920 0.986762
vt 0.490226 0.986762
vt 0.737125 0.986762
vt 0.984810 0.986762
vt 1.233356 0.986762
vt 1.482707 0.986762
vt 1.732683 0.986762
vt 1.997568 0.991656
vt 0.794216 1.996707
vt 0.812378 1.939891
vt 1.032812 1.996707
vt 0.864099 1.891724
vt 0.941506 1.859540
vt 1.032812 1.848239
vt 1.124119 1.859540
vt 1.201525 1.891724
vt 1.253246 1.939891
vt 1.271408 1.996707
vt 0.658268 0.002789
vt 1.316606 0.048332
vt 1.314833 0.002789
vt 1.997658 0.050422
vt 1.997668 0.004767
vt 1.326168 0.050310
vt 1.325258 0.004767
vt 0.660346 0.050310
vt 0.658574 0.004767
vt 0.000291 0.048044
vt 0.000290 0.002541
vt 0.659132 0.048332
vt 0.658639 0.169444
vt 1.315597 0.169444
vt 1.997664 0.171833
vt 1.325650 0.171422
vt 0.659337 0.171422
vt 0.000291 0.169010
vt 0.000290 0.323166
vt 0.657837 0.323787
vt 1.313949 0.323787
vt 1.997673 0.326557
vt 1.324802 0.325764
vt 0.657689 0.325764
vt 0.658970 0.480107
vt 1.325462 0.480107
vt 1.997666 0.481281
vt 1.315230 0.478129
vt 0.658461 0.478129
vt 0.000291 0.477322
s 1
usemtl shroom_orange_tex
f 1/1/1 2/2/2 3/3/3
f 2/2/2 4/4/4 3/3/3
f 4/4/4 5/5/5 3/3/3
f 3/3/3 5/5/5 6/6/6
f 7/7/7 8/8/8 3/3/3
f 8/8/8 9/9/9 3/3/3
f 9/9/9 10/10/10 3/3/3
f 3/3/3 10/10/10 11/11/11
f 12/12/12 13/13/13 14/14/14
f 13/13/13 15/15/15 14/14/14
f 14/14/14 15/15/15 16/16/16
f 17/17/17 14/14/14 18/18/18
f 14/14/14 16/16/16 18/18/18
f 18/18/18 16/16/16 19/19/19
f 19/19/19 16/16/16 20/20/20
f 16/16/16 15/15/15 20/20/20
f 20/20/20 15/15/15 21/21/21
f 15/15/15 13/13/13 21/21/21
f 21/21/21 13/13/13 22/22/22
f 13/13/13 23/23/23 22/22/22
f 22/22/22 23/23/23 24/24/24
f 24/24/24 23/23/23 25/25/25
f 23/23/23 26/26/26 25/25/25
f 25/25/25 26/26/26 27/27/27
f 26/26/26 28/28/28 27/27/27
f 27/27/27 28/28/28 29/29/29
f 28/28/28 30/30/30 29/29/29
f 29/29/29 30/30/30 31/31/31
f 31/31/31 30/30/30 32/32/32
f 32/32/32 30/30/30 33/33/33
f 30/30/30 28/28/28 33/33/33
f 33/33/33 28/28/28 12/12/12
f 28/28/28 26/26/26 12/12/12
f 26/26/26 23/23/23 12/12/12
f 12/12/12 23/23/23 13/13/13
f 34/34/34 35/35/35 36/36/36
f 35/35/35 37/37/37 36/36/36
f 36/36/36 37/37/37 38/38/38
f 37/37/37 39/39/39 38/38/38
f 38/38/38 39/39/39 40/40/40
f 39/39/39 41/41/41 40/40/40
f 40/40/40 41/41/41 42/42/42
f 42/42/42 41/41/41 43/43/43
f 41/41/41 44/44/44 43/43/43
f 43/43/43 44/44/44 45/45/45
f 44/44/44 46/46/46 45/45/45
f 45/45/45 46/46/46 47/47/47
f 47/47/47 46/46/46 48/48/48
f 48/48/48 46/46/46 33/33/33
f 33/33/33 46/46/46 32/32/32
f 46/46/46 44/44/44 32/32/32
f 32/32/32 44/44/44 31/31/31
f 44/44/44 41/41/41 31/31/31
f 41/41/41 39/39/39 31/31/31
f 31/31/31 39/39/39 29/29/29
f 39/39/39 37/37/37 29/29/29
f 29/29/29 37/37/37 27/27/27
f 37/37/37 35/35/35 27/27/27
f 27/27/27 35/35/35 25/25/25
f 35/35/35 34/34/34 49/49/49
f 34/34/34 50/50/50 49/49/49
f 49/49/49 50/50/50 51/51/51
f 50/50/50 52/52/52 51/51/51
f 51/51/51 52/52/52 53/53/53
f 52/52/52 54/54/54 53/53/53
f 53/53/53 54/54/54 55/55/55
f 54/54/54 56/56/56 55/55/55
f 55/55/55 56/56/56 57/57/57
f 56/56/56 58/58/58 57/57/57
f 57/57/57 58/58/58 59/59/59
f 58/58/58 60/60/60 59/59/59
f 59/59/59 60/60/60 61/61/61
f 60/60/60 62/62/62 61/61/61
f 61/61/61 62/62/62 63/63/63
f 62/62/62 64/64/64 63/63/63
f 63/63/63 64/64/64 65/65/65
f 64/64/64 66/66/66 65/65/65
f 65/65/65 66/66/66 67/67/67
f 66/66/66 68/68/68 67/67/67
f 67/67/67 68/68/68 69/69/69
f 68/68/68 70/70/70 69/69/69
f 69/69/69 70/70/70 71/71/71
f 70/70/70 72/72/42 71/71/71
f 71/71/71 73/73/45 69/69/69
f 73/73/45 74/74/72 69/69/69
f 69/69/69 74/74/72 67/67/67
f 74/74/72 75/75/73 67/67/67
f 67/67/67 75/75/73 65/65/65
f 75/75/73 76/76/74 65/65/65
f 65/65/65 76/76/74 63/63/63
f 76/76/74 77/77/75 63/63/63
f 63/63/63 77/77/75 61/61/61
f 77/77/75 78/78/76 61/61/61
f 61/61/61 78/78/76 59/59/59
f 78/78/76 19/19/19 59/59/59
f 19/19/19 20/20/20 59/59/59
f 59/59/59 20/20/20 57/57/57
f 20/20/20 21/21/21 57/57/57
f 57/57/57 21/21/21 55/55/55
f 21/21/21 22/22/22 55/55/55
f 55/55/55 22/22/22 53/53/53
f 22/22/22 24/24/24 53/53/53
f 53/53/53 24/24/24 51/51/51
f 51/51/51 24/24/24 49/49/49
f 24/24/24 25/25/25 49/49/49
f 25/25/25 35/35/35 49/49/49
f 75/75/73 79/79/77 76/76/74
f 79/79/77 80/80/78 76/76/74
f 76/76/74 80/80/78 77/77/75
f 80/80/78 81/81/79 77/77/75
f 77/77/75 81/81/79 78/78/76
f 81/81/79 82/82/80 78/78/76
f 78/78/76 82/82/80 19/19/19
f 19/19/19 82/82/80 18/18/18
f 18/18/18 82/82/80 17/17/17
f 82/82/80 81/81/79 17/17/17
f 17/17/17 81/81/79 83/83/81
f 81/81/79 80/80/78 83/83/81
f 83/83/81 80/80/78 79/79/77
f 73/73/45 84/84/82 74/74/72
f 74/74/72 84/84/82 85/85/83
f 84/84/82 86/86/84 85/85/83
f 86/86/84 83/83/81 85/85/83
f 83/83/81 79/79/77 85/85/83
f 79/79/77 75/75/73 85/85/83
f 85/85/83 75/75/73 74/74/72
f 87/87/85 88/88/86 89/89/87
f 89/89/87 88/88/86 90/90/88
f 88/88/86 91/91/89 90/90/88
f 90/90/88 91/91/89 92/92/90
f 93/93/91 91/91/89 94/94/92
f 91/91/89 88/88/86 94/94/92
f 94/94/92 88/88/86 95/95/93
f 88/88/86 87/87/85 95/95/93
f 95/95/93 87/87/85 96/96/94
f 87/87/85 97/97/95 96/96/94
f 96/96/94 97/97/95 98/98/96
f 97/97/95 99/99/97 98/98/96
f 98/98/96 99/99/97 100/100/98
f 99/99/97 101/101/99 100/100/98
f 100/100/98 101/101/99 102/102/100
f 101/101/99 103/103/101 102/102/100
f 102/102/100 103/103/101 104/104/102
f 104/104/102 103/103/101 105/105/103
f 105/105/103 103/103/101 106/106/104
f 106/106/104 103/103/101 107/107/105
f 103/103/101 101/101/99 107/107/105
f 107/107/105 101/101/99 108/108/106
f 101/101/99 99/99/97 108/108/106
f 108/108/106 99/99/97 109/109/107
f 99/99/97 97/97/95 109/109/107
f 109/109/107 97/97/95 110/110/108
f 97/97/95 87/87/85 110/110/108
f 110/110/108 87/87/85 89/89/87
f 111/111/109 93/93/91 112/112/50
f 93/93/91 94/94/92 112/112/50
f 112/112/50 94/94/92 113/113/52
f 94/94/92 95/95/93 113/113/52
f 113/113/52 95/95/93 114/114/110
f 95/95/93 96/96/94 114/114/110
f 114/114/110 96/96/94 115/115/56
f 96/96/94 98/98/96 115/115/56
f 115/115/56 98/98/96 116/116/58
f 98/98/96 100/100/98 116/116/58
f 116/116/58 100/100/98 117/117/111
f 100/100/98 102/102/100 117/117/111
f 117/117/111 102/102/100 118/118/62
f 102/102/100 104/104/102 118/118/62
f 118/118/62 104/104/102 119/119/112
f 119/119/112 104/104/102 120/120/113
f 104/104/102 105/105/103 120/120/113
f 120/120/113 105/105/103 121/121/114
f 121/121/114 105/105/103 122/122/115
f 105/105/103 106/106/104 122/122/115
f 122/122/115 106/106/104 123/123/116
f 123/123/116 106/106/104 124/124/117
f 106/106/104 107/107/105 124/124/117
f 124/124/117 107/107/105 125/125/118
f 107/107/105 108/108/106 125/125/118
f 125/125/118 108/108/106 126/126/119
f 108/108/106 109/109/107 126/126/119
f 126/126/119 109/109/107 127/127/120
f 109/109/107 110/110/108 127/127/120
f 127/127/120 110/110/108 128/128/121
f 110/110/108 89/89/87 128/128/121
f 128/128/121 89/89/87 129/129/122
f 89/89/87 90/90/88 129/129/122
f 129/129/122 90/90/88 130/130/123
f 90/90/88 92/92/90 130/130/123
f 130/130/123 92/92/90 131/131/124
f 132/132/125 133/133/126 134/134/127
f 134/134/127 133/133/126 135/135/128
f 133/133/126 136/136/114 135/135/128
f 135/135/128 136/136/114 137/137/115
f 138/138/129 136/136/114 139/139/130
f 136/136/114 133/133/126 139/139/130
f 139/139/130 133/133/126 140/140/131
f 133/133/126 132/132/125 140/140/131
f 140/140/131 132/132/125 141/141/132
f 132/132/125 142/142/133 141/141/132
f 141/141/132 142/142/133 143/143/134
f 142/142/133 144/144/135 143/143/134
f 143/143/134 144/144/135 145/145/136
f 144/144/135 146/146/137 145/145/136
f 145/145/136 146/146/137 147/147/138
f 146/146/137 148/148/139 147/147/138
f 147/147/138 148/148/139 149/149/140
f 149/149/140 148/148/139 150/150/141
f 150/150/141 148/148/139 151/151/142
f 151/151/142 148/148/139 152/152/143
f 148/148/139 146/146/137 152/152/143
f 152/152/143 146/146/137 153/153/144
f 146/146/137 144/144/135 153/153/144
f 153/153/144 144/144/135 154/154/145
f 144/144/135 142/142/133 154/154/145
f 154/154/145 142/142/133 155/155/146
f 142/142/133 132/132/125 155/155/146
f 155/155/146 132/132/125 134/134/127
f 156/156/64 138/138/129 157/157/66
f 138/138/129 139/139/130 157/157/66
f 157/157/66 139/139/130 158/158/68
f 139/139/130 140/140/131 158/158/68
f 158/158/68 140/140/131 159/159/147
f 140/140/131 141/141/132 159/159/147
f 159/159/147 141/141/132 160/160/148
f 141/141/132 143/143/134 160/160/148
f 160/160/148 143/143/134 161/161/40
f 143/143/134 145/145/136 161/161/40
f 161/161/40 145/145/136 162/162/149
f 145/145/136 147/147/138 162/162/149
f 162/162/149 147/147/138 163/163/36
f 147/147/138 149/149/140 163/163/36
f 163/163/36 149/149/140 164/164/150
f 164/164/150 149/149/140 165/165/151
f 149/149/140 150/150/141 165/165/151
f 165/165/151 150/150/141 166/166/89
f 166/166/89 150/150/141 167/167/90
f 150/150/141 151/151/142 167/167/90
f 167/167/90 151/151/142 168/168/152
f 168/168/152 151/151/142 169/169/2
f 151/151/142 152/152/143 169/169/2
f 169/169/2 152/152/143 170/170/4
f 152/152/143 153/153/144 170/170/4
f 170/170/4 153/153/144 171/171/5
f 153/153/144 154/154/145 171/171/5
f 171/171/5 154/154/145 172/172/153
f 154/154/145 155/155/146 172/172/153
f 172/172/153 155/155/146 173/173/154
f 155/155/146 134/134/127 173/173/154
f 173/173/154 134/134/127 174/174/155
f 134/134/127 135/135/128 174/174/155
f 174/174/155 135/135/128 175/175/156
f 135/135/128 137/137/115 175/175/156
f 175/175/156 137/137/115 176/176/116
f 177/177/6 178/178/154 179/179/3
f 178/178/154 180/180/155 179/179/3
f 180/180/155 181/181/157 179/179/3
f 181/181/157 182/182/116 179/179/3
f 182/182/116 183/183/117 179/179/3
f 183/183/117 184/184/118 179/179/3
f 184/184/118 185/185/158 179/179/3
f 179/179/3 185/185/158 186/186/7
f 187/187/159 188/188/160 189/189/161
f 188/188/160 190/190/162 189/189/161
f 189/189/161 190/190/162 191/191/163
f 190/190/162 192/192/164 191/191/163
f 191/191/163 192/192/164 193/193/165
f 192/192/164 194/194/166 193/193/165
f 193/193/165 194/194/166 195/195/167
f 194/194/166 196/196/168 195/195/167
f 195/195/167 196/196/168 197/197/169
f 196/196/168 198/198/170 197/197/169
f 197/197/169 198/198/170 187/187/159
f 187/187/159 198/198/170 188/188/160
f 198/198/170 199/199/171 188/188/160
f 199/199/171 200/200/172 188/188/160
f 188/188/160 200/200/172 190/190/162
f 200/200/172 201/201/173 190/190/162
f 190/190/162 201/201/173 192/192/164
f 201/201/173 202/202/174 192/192/164
f 192/192/164 202/202/174 194/194/166
f 202/202/174 203/203/175 194/194/166
f 194/194/166 203/203/175 196/196/168
f 203/203/175 204/204/176 196/196/168
f 196/196/168 204/204/176 198/198/170
f 204/204/176 199/199/171 198/198/170
f 204/204/176 205/205/177 199/199/171
f 205/205/177 206/206/178 199/199/171
f 199/199/171 206/206/178 200/200/172
f 206/206/178 207/207/179 200/200/172
f 200/200/172 207/207/179 201/201/173
f 207/207/179 208/208/180 201/201/173
f 201/201/173 208/208/180 202/202/174
f 208/208/180 209/209/181 202/202/174
f 202/202/174 209/209/181 203/203/175
f 209/209/181 210/210/182 203/203/175
f 203/203/175 210/210/182 204/204/176
f 204/204/176 210/210/182 205/205/177
f 205/205/177 210/210/182 211/211/183
f 211/211/183 210/210/182 212/212/184
f 210/210/182 209/209/181 212/212/184
f 212/212/184 209/209/181 213/213/185
f 209/209/181 208/208/180 213/213/185
f 213/213/185 208/208/180 214/214/186
f 208/208/180 207/207/179 214/214/186
f 214/214/186 207/207/179 215/215/187
f 207/207/179 206/206/178 215/215/187
f 215/215/187 206/206/178 216/216/188
f 206/206/178 205/205/177 216/216/188
f 216/216/188 205/205/177 211/211/183
