# Blender 4.0.2
# www.blender.org
mtllib Noodles.mtl
o TopL
v 55.318081 67.058937 75.030693
v 26.572157 53.861294 79.639732
v 30.635057 60.672691 92.576591
v 48.802521 59.116753 65.200539
v 74.000648 75.497246 51.846428
v 64.178963 66.718117 44.316044
v 78.251343 85.980576 23.043747
v 69.030823 75.809891 19.336315
v 74.016739 96.465645 -5.763963
v 64.189735 84.903679 -5.648585
v 55.344803 104.907837 -28.958294
v 48.823933 92.506912 -26.538254
v 30.672560 111.297668 -46.514248
v 26.599024 97.765976 -40.987366
v 0.021409 112.751450 -50.508610
v 0.016092 99.425362 -45.546692
v -30.635057 111.303131 -46.529476
v -26.572157 97.769707 -40.997570
v -55.318081 104.917038 -28.983582
v -48.802521 92.514244 -26.558371
v -74.000648 96.478577 -5.799164
v -64.178963 84.912880 -5.673729
v -78.251343 85.995239 23.003372
v -69.030823 75.820953 19.305998
v -74.016739 75.510178 51.811081
v -64.189735 66.727165 44.290752
v -55.344803 67.067986 75.005547
v -48.823933 59.124081 65.180420
v -30.672560 60.678150 92.561501
v -26.599024 53.864883 79.629677
v -0.016092 52.205498 84.188850
v -15.580467 106.688919 -37.351345
v 9.542653 118.663528 -55.484760
v 9.891514 115.267891 -56.543697
v -15.934788 110.080826 -36.282349
v -15.639521 91.150848 -7.606974
v -15.993697 94.547920 -6.536254
v 6.987840 88.039696 9.822970
v 6.633664 91.431595 10.891823
v 31.375740 104.230667 -14.057875
v 31.026878 107.627747 -12.987156
v 37.606808 115.747513 -48.995499
v 37.252628 119.146317 -47.929806
v 0.912382 90.801697 -8.059716
v 16.761248 109.665588 -32.018581
v 16.766563 106.305290 -33.253098
v 0.901606 94.163712 -6.830228
v 12.923783 81.876724 16.461233
v 12.913151 85.238892 17.690578
v 47.949051 91.868095 6.412961
v 47.938419 95.228249 7.647478
v 70.528275 102.026436 -21.497021
v 70.517502 105.388603 -20.267532
v 49.119057 108.577774 -39.496811
v 49.119057 111.941803 -38.272350
v -34.510021 76.665375 7.664865
v -47.535820 95.777412 0.473857
v -25.531034 89.473495 5.004588
v -49.811459 81.020958 4.595382
v -50.670246 68.189278 20.297836
v -67.742706 82.222427 11.886391
v -71.558624 78.971764 24.850695
v -83.768738 92.849159 30.158600
v -67.082634 73.246170 36.548580
v -73.201050 84.473068 47.271439
v -46.135063 76.648285 53.030651
v -27.259100 70.519516 20.517670
v -33.785435 66.846565 34.641918
v -14.920392 80.475685 23.810146
v -24.478994 75.105995 44.478981
v -48.850800 67.949471 40.509182
v -78.251343 85.995239 23.003372
v -82.534218 85.995239 23.003372
v -78.068871 74.935593 53.389717
v -78.052773 97.053162 -7.377801
v -74.000648 96.478577 -5.799164
v -55.318081 104.917038 -28.983582
v 78.052773 74.922661 53.425060
v 74.000648 75.497246 51.846428
v 55.318081 67.058937 75.030693
v 78.251343 85.980576 23.043747
v 82.534218 85.980576 23.043747
v 78.068871 97.040230 -7.342455
v 74.016739 96.465645 -5.763963
v 55.344803 104.907837 -28.958294
v 58.371902 105.943069 -31.802771
v 32.352493 112.683495 -50.322113
v 30.672560 111.297668 -46.514248
v 0.021409 112.751450 -50.508610
v 0.021409 114.216286 -54.533298
v -32.314991 112.689095 -50.337200
v -30.635057 111.303131 -46.529476
v -58.345032 105.952271 -31.828058
v 0.000000 92.761086 25.488785
v -22.842167 71.516953 27.820175
v -9.467508 66.940681 40.393372
v -22.836706 77.989410 10.037346
v -9.456732 82.563820 -2.530824
v -55.344803 67.067986 75.005547
v -32.352493 59.292339 96.369225
v -30.672560 60.678150 92.561501
v -58.371902 66.032753 77.850029
v 32.314991 59.286736 96.384315
v -0.021409 59.224373 96.555870
v -0.021409 57.759537 100.580414
v 30.635057 60.672691 92.576591
v -74.167030 97.608925 11.181197
v 9.467508 82.561951 -2.525652
v 22.842167 77.985672 10.047403
v 22.836706 71.513222 27.830231
v -46.838100 86.211914 26.754770
v -47.535820 95.777412 0.473857
v -74.167030 97.608925 11.181197
v -25.531034 89.473495 5.004588
v -14.920392 80.475685 23.810146
v -24.478994 75.105995 44.478981
v -46.135063 76.648285 53.030651
v -73.201050 84.473068 47.271439
v -27.570459 33.813740 -8.125950
v -82.534218 85.995239 23.003372
v -78.052773 97.053162 -7.377801
v -30.141222 29.907595 2.606249
v -11.415695 39.337170 -23.301521
v -58.345032 105.952271 -31.828058
v -32.314991 112.689095 -50.337200
v -21.307066 37.196880 -17.420895
v 11.426471 39.335304 -23.296349
v 0.021409 114.216286 -54.533298
v 32.352493 112.683495 -50.322113
v 0.005316 40.214634 -25.712221
v 27.575775 33.810146 -8.115892
v 58.371902 105.943069 -31.802771
v 78.068871 97.040230 -7.342455
v 21.317842 37.193146 -17.410837
v 27.570459 25.997717 13.348650
v 82.534218 85.980576 23.043747
v 78.052773 74.922661 53.425060
v 30.141222 29.903858 2.616451
v 11.415695 20.474285 28.524221
v 58.345032 66.023560 77.875175
v 32.314991 59.286736 96.384315
v 21.307066 22.614574 22.643595
v -27.575775 26.001308 13.338593
v -58.371902 66.032753 77.850029
v -78.068871 74.935593 53.389717
v -21.317842 22.618311 22.633537
v -0.021409 59.224373 96.555870
v -0.021409 57.759537 100.580414
v -36.608501 88.297737 -14.973703
v -80.000961 106.528717 -7.127364
v -54.223221 79.211426 9.990936
v -60.905163 116.701851 -35.077717
v -9.005857 93.292572 -28.696793
v -60.905163 116.701851 -35.077717
v -36.608501 88.297737 -14.973703
v -26.878056 122.698845 -51.554333
v 26.599024 97.765976 -40.987366
v 0.000000 82.240677 21.659657
v 48.823933 92.506912 -26.538254
v 0.016092 99.425362 -45.546692
v -11.426471 20.476009 28.519049
v 0.000000 29.905727 2.611278
v -0.005316 19.596817 30.934921
v -21.317842 22.618311 22.633537
v -27.575775 26.001308 13.338593
v -30.141222 29.907595 2.606249
v -27.575775 26.001308 13.338593
v -78.068871 74.935593 53.389717
v -11.426471 20.476009 28.519049
v -32.352493 59.292339 96.369225
v -0.021409 57.759537 100.580414
v 11.415695 20.474285 28.524221
v 32.314991 59.286736 96.384315
v -0.005316 19.596817 30.934921
v 27.570459 25.997717 13.348650
v 78.052773 74.922661 53.425060
v 27.575775 33.810146 -8.115892
v 78.068871 97.040230 -7.342455
v 11.426471 39.335304 -23.296349
v 32.352493 112.683495 -50.322113
v -11.415695 39.337170 -23.301521
v -32.314991 112.689095 -50.337200
v -27.570459 33.813740 -8.125950
v -78.052773 97.053162 -7.377801
v -27.570459 33.813740 -8.125950
v -21.307066 37.196880 -17.420895
v -74.016739 75.510178 51.811081
v -11.415695 39.337170 -23.301521
v 0.005316 40.214634 -25.712221
v 11.426471 39.335304 -23.296349
v 21.317842 37.193146 -17.410837
v 58.345032 66.023560 77.875175
v 27.575775 33.810146 -8.115892
v 30.141222 29.903858 2.616451
v 27.570459 25.997717 13.348650
v 21.307066 22.614574 22.643595
v 11.415695 20.474285 28.524221
v -0.005316 19.596817 30.934921
v -64.178963 84.912880 -5.673729
v 0.000000 82.240677 21.659657
v -48.802521 92.514244 -26.558371
v -69.030823 75.820953 19.305998
v -0.016092 52.205498 84.188850
v 30.635057 60.672691 92.576591
v 26.572157 53.861294 79.639732
v -0.021409 59.224373 96.555870
v -25.531034 89.473495 5.004588
v -27.259100 70.519516 20.517670
v -34.510021 76.665375 7.664865
v -14.920392 80.475685 23.810146
v -26.599024 53.864883 79.629677
v 0.000000 82.240677 21.659657
v -48.823933 59.124081 65.180420
v -0.016092 52.205498 84.188850
v -0.021409 57.759537 100.580414
v -11.426471 20.476009 28.519049
v -0.005316 19.596817 30.934921
v -32.352493 59.292339 96.369225
v 0.000000 82.240677 21.659657
v 64.178963 66.718117 44.316044
v 69.030823 75.809891 19.336315
v 48.802521 59.116753 65.200539
v 9.456732 66.938805 40.398403
v 0.000000 82.240677 21.659657
v -26.572157 97.769707 -40.997570
v -64.189735 66.727165 44.290752
v 0.000000 82.240677 21.659657
v -83.768738 92.849159 30.158600
v 26.572157 53.861294 79.639732
v 0.000000 82.240677 21.659657
v -0.016092 52.205498 84.188850
v 64.189735 84.903679 -5.648585
v 0.000000 82.240677 21.659657
v -0.021409 59.224373 96.555870
vn -0.2850 0.9575 0.0450
vn -0.1346 0.9908 0.0144
vn -0.1522 0.9878 -0.0318
vn -0.2526 0.9641 0.0819
vn -0.3676 0.9142 0.1706
vn -0.3253 0.9256 0.1934
vn -0.4031 0.8600 0.3129
vn -0.3573 0.8777 0.3194
vn -0.3677 0.8100 0.4568
vn -0.3253 0.8335 0.4466
vn -0.2852 0.7625 0.5808
vn -0.2527 0.7912 0.5568
vn -0.1523 0.7364 0.6592
vn -0.1348 0.7683 0.6258
vn -0.0001 0.7221 0.6918
vn -0.0001 0.7554 0.6552
vn 0.1522 0.7363 0.6593
vn 0.1346 0.7682 0.6258
vn 0.2850 0.7624 0.5810
vn 0.2526 0.7912 0.5569
vn 0.3676 0.8100 0.4569
vn 0.3252 0.8334 0.4468
vn 0.4031 0.8599 0.3131
vn 0.3573 0.8776 0.3195
vn 0.3677 0.9141 0.1708
vn 0.3253 0.9256 0.1936
vn 0.2852 0.9574 0.0452
vn 0.2527 0.9640 0.0820
vn 0.1523 0.9878 -0.0317
vn 0.1349 0.9908 0.0145
vn 0.0554 0.9983 -0.0163
vn -0.8948 0.0464 -0.4440
vn -0.2351 0.7008 -0.6735
vn -0.2152 0.2717 -0.9380
vn -0.7052 0.7085 -0.0272
vn -0.8973 -0.2148 0.3856
vn -0.8239 0.2289 0.5185
vn 0.0877 -0.2911 0.9527
vn -0.0297 0.2393 0.9705
vn 0.8949 -0.0467 0.4437
vn 0.5208 0.6314 0.5746
vn 0.8341 0.2416 -0.4959
vn 0.6343 0.7337 -0.2433
vn -0.9994 0.0092 -0.0337
vn -0.4550 0.8620 -0.2233
vn -0.5941 0.2747 -0.7560
vn -0.8924 0.4185 0.1687
vn -0.3835 -0.3188 0.8667
vn -0.3779 0.2237 0.8984
vn 0.5943 -0.2751 0.7557
vn 0.3588 0.4727 0.8049
vn 0.9955 0.0345 -0.0888
vn 0.8223 0.5565 0.1189
vn 0.2606 0.3315 -0.9067
vn 0.2273 0.7479 -0.6237
vn 0.1921 -0.6685 -0.7184
vn -0.1368 -0.2468 -0.9594
vn 0.3752 -0.4347 -0.8187
vn -0.1753 -0.5290 -0.8303
vn -0.2030 -0.9219 -0.3300
vn -0.5261 -0.5822 -0.6199
vn -0.6639 -0.7084 -0.2396
vn -0.8142 -0.5524 -0.1785
vn -0.5061 -0.8533 0.1255
vn -0.5893 -0.7232 0.3603
vn -0.0956 -0.8077 0.5818
vn 0.3811 -0.8655 -0.3252
vn 0.2143 -0.9704 0.1110
vn 0.6474 -0.7105 -0.2759
vn 0.4059 -0.8525 0.3293
vn -0.1450 -0.9417 0.3036
vn -0.9091 0.3916 0.1422
vn -0.8378 0.2776 0.4701
vn -0.8376 0.5150 -0.1820
vn 0.2850 0.7624 0.5809
vn 0.8376 0.2775 0.4705
vn -0.2850 0.9575 0.0451
vn 0.9091 0.3914 0.1428
vn 0.8378 0.5149 -0.1816
vn -0.2851 0.7625 0.5808
vn 0.6430 0.6113 -0.4614
vn 0.3472 0.6827 -0.6429
vn -0.1523 0.7363 0.6592
vn 0.0003 0.7024 -0.7117
vn -0.3468 0.6828 -0.6431
vn -0.6426 0.6114 -0.4617
vn -0.0000 0.9397 0.3420
vn -0.5661 0.6625 0.4905
vn -0.2346 0.5491 0.8022
vn -0.5660 0.8229 0.0498
vn -0.2343 0.9363 -0.2617
vn 0.2851 0.9574 0.0452
vn -0.3472 0.1098 0.9313
vn -0.6430 0.1717 0.7464
vn 0.3468 0.1097 0.9315
vn -0.0638 0.9958 -0.0657
vn 0.1447 0.0797 0.9863
vn -0.1522 0.9878 -0.0317
vn -0.6180 -0.3335 -0.7119
vn 0.2346 0.9362 -0.2616
vn 0.5661 0.8228 0.0501
vn 0.5660 0.6624 0.4908
vn 0.1964 0.9231 0.3307
vn 0.1964 0.9231 0.3308
vn 0.1964 0.9230 0.3308
vn 0.1964 0.9231 0.3306
vn -0.3722 -0.8073 -0.4580
vn -0.8377 0.5150 -0.1819
vn -0.4079 -0.8579 -0.3124
vn -0.1541 -0.7327 -0.6629
vn -0.3468 0.6828 -0.6430
vn -0.2883 -0.7593 -0.5834
vn 0.1543 -0.7327 -0.6628
vn 0.3471 0.6828 -0.6429
vn 0.0001 -0.7184 -0.6956
vn 0.3723 -0.8073 -0.4578
vn 0.8378 0.5149 -0.1817
vn 0.2885 -0.7594 -0.5832
vn 0.3722 -0.9128 -0.1680
vn 0.8377 0.2776 0.4704
vn 0.4079 -0.8580 -0.3122
vn 0.1541 -0.9874 0.0368
vn 0.6426 0.1716 0.7467
vn 0.2883 -0.9566 -0.0412
vn -0.3723 -0.9127 -0.1682
vn -0.2885 -0.9566 -0.0413
vn 0.0640 0.9958 -0.0657
vn -0.1451 0.0798 0.9862
vn 0.4062 0.7312 0.5481
vn 0.4062 0.7312 0.5480
vn 0.2210 0.6805 0.6986
vn 0.2210 0.6805 0.6987
vn 0.0375 0.9661 0.2553
vn -0.2528 0.7912 0.5568
vn -0.0001 0.7555 0.6552
vn -0.1543 -0.9873 0.0368
vn -0.0000 -0.9397 -0.3420
vn -0.0657 -0.9953 0.0708
vn -0.2885 -0.9566 -0.0414
vn 0.1446 0.0797 0.9863
vn 0.0654 -0.9953 0.0709
vn 0.3723 -0.9128 -0.1680
vn 0.3723 -0.8073 -0.4579
vn 0.3472 0.6828 -0.6429
vn -0.3723 -0.8072 -0.4580
vn -0.3723 -0.8073 -0.4580
vn 0.3677 0.9142 0.1707
vn 0.0001 -0.7185 -0.6956
vn 0.2883 -0.9567 -0.0412
vn 0.3253 0.8334 0.4468
vn -0.0905 0.9480 0.3051
vn -0.0552 0.9983 -0.0164
vn 0.1921 -0.6685 -0.7185
vn 0.1348 0.9908 0.0145
vn -0.0375 0.9042 0.4254
vn 0.2528 0.9640 0.0821
vn -0.3471 0.1098 0.9314
vn 0.0905 0.9223 0.3756
vn 0.2343 0.5490 0.8023
vn -0.0375 0.9661 0.2553
vn 0.1346 0.7683 0.6258
vn -0.0000 0.7555 0.6552
vn -0.0905 0.9224 0.3756
vn 0.0375 0.9042 0.4254
vn -0.0552 0.9983 -0.0163
vn -0.2526 0.9641 0.0820
vn 0.0905 0.9480 0.3052
vt 0.171033 0.860548
vt 0.334212 0.763535
vt 0.334212 0.860548
vt 0.171033 0.763535
vt 0.007856 0.860548
vt 0.007856 0.763535
vt 0.170119 0.860548
vt 0.170119 0.763535
vt 0.332383 0.860548
vt 0.332383 0.763535
vt 0.169842 0.860548
vt 0.169842 0.763535
vt 0.007301 0.860548
vt 0.007301 0.763535
vt 0.170598 0.860548
vt 0.170598 0.763535
vt 0.333895 0.860548
vt 0.333895 0.763535
vt 0.008171 0.860548
vt 0.008171 0.763535
vt 0.170712 0.860548
vt 0.170712 0.763535
vt 0.333252 0.860548
vt 0.333252 0.763535
vt 0.006986 0.860548
vt 0.006986 0.763535
vt 0.980094 0.235545
vt 0.903366 0.073681
vt 0.903366 0.397409
vt 0.747859 0.428957
vt 0.689974 0.235545
vt 0.747859 0.042133
vt 0.931146 0.614623
vt 0.929117 0.616931
vt 0.930154 0.613613
vt 0.930437 0.616931
vt 0.933058 0.616931
vt 0.931329 0.619679
vt 0.933058 0.620726
vt 0.933058 0.622544
vt 0.930423 0.621012
vt 0.933058 0.613576
vt 0.933058 0.612081
vt 0.994386 0.407685
vt 0.507331 0.823844
vt 0.625353 0.823844
vt 0.590785 0.907299
vt 0.590785 0.740391
vt 0.507331 0.705823
vt 0.423876 0.740391
vt 0.389308 0.823844
vt 0.423876 0.907299
vt 0.977639 0.548915
vt 0.846853 0.548915
vt 0.890187 0.684332
vt 0.881271 0.438812
vt 0.977639 0.387963
vt 0.990286 0.900651
vt 0.653195 0.856928
vt 0.653195 0.977286
vt 0.990287 0.859490
vt 0.990286 0.900755
vt 0.653195 0.857031
vt 0.653195 0.977389
vt 0.990286 0.859594
vt 0.990286 0.900178
vt 0.653195 0.856455
vt 0.653195 0.976813
vt 0.990286 0.859018
vt 0.990286 0.900149
vt 0.653195 0.856427
vt 0.653195 0.976785
vt 0.990286 0.858989
vt 0.990286 0.899321
vt 0.653195 0.855598
vt 0.653195 0.975956
vt 0.990286 0.858160
vt 0.990287 0.898349
vt 0.653195 0.854627
vt 0.653195 0.974984
vt 0.990287 0.857189
vt 0.990287 0.899426
vt 0.653195 0.855703
vt 0.653195 0.976060
vt 0.990286 0.858265
vt 0.694587 0.461726
vt 0.832508 0.687428
vt 0.832508 0.461726
vt 0.694587 0.687428
vt 0.153343 0.170205
vt 0.358356 0.375218
vt 0.110883 0.272712
vt 0.255849 0.127746
vt 0.996986 0.883544
vt 0.990287 0.818330
vt 0.653195 0.736571
vt 0.990286 0.817105
vt 0.653195 0.735346
vt 0.653195 0.855719
vt 0.990287 0.817121
vt 0.653195 0.735362
vt 0.990286 0.858281
vt 0.990286 0.816029
vt 0.653195 0.734269
vt 0.990286 0.816999
vt 0.653195 0.735240
vt 0.990286 0.817829
vt 0.653195 0.736069
vt 0.990286 0.817858
vt 0.653195 0.736098
vt 0.990286 0.818433
vt 0.653195 0.736673
vt 0.563369 0.170205
vt 0.460863 0.127746
vt 0.605829 0.272712
vt 0.335077 0.860548
vt 0.335077 0.763535
vt 0.977639 0.437591
vt 0.914166 0.472338
vt 0.563369 0.580231
vt 0.605828 0.477725
vt 0.460862 0.622691
vt 0.990286 0.899442
vt 0.653195 0.976076
vt 0.153343 0.580231
vt 0.110883 0.477725
vt 0.255849 0.622691
vt 0.507331 0.941867
vt 0.358356 0.085286
vt 0.648288 0.375219
vt 0.977639 0.735181
vt 0.358356 0.665151
vt 0.068424 0.375218
s 1
usemtl mat1.004
f 1/1/1 2/2/2 3/3/3
f 1/1/1 4/4/4 2/2/2
f 5/5/5 4/4/4 1/1/1
f 5/5/5 6/6/6 4/4/4
f 7/7/7 6/6/6 5/5/5
f 7/7/7 8/8/8 6/6/6
f 9/9/9 8/8/8 7/7/7
f 9/9/9 10/10/10 8/8/8
f 11/11/11 10/10/10 9/9/9
f 11/11/11 12/12/12 10/10/10
f 13/13/13 12/12/12 11/11/11
f 13/13/13 14/14/14 12/12/12
f 15/15/15 14/14/14 13/13/13
f 15/15/15 16/16/16 14/14/14
f 17/17/17 16/16/16 15/15/15
f 17/17/17 18/18/18 16/16/16
f 19/1/19 18/18/18 17/17/17
f 19/1/19 20/4/20 18/18/18
f 21/19/21 20/4/20 19/1/19
f 21/19/21 22/20/22 20/4/20
f 23/21/23 22/20/22 21/19/21
f 23/21/23 24/22/24 22/20/22
f 25/23/25 24/22/24 23/21/23
f 25/23/25 26/24/26 24/22/24
f 27/7/27 26/24/26 25/23/25
f 27/7/27 28/8/28 26/24/26
f 29/25/29 28/8/28 27/7/27
f 29/25/29 30/26/30 28/8/28
f 31/4/31 30/26/30 29/25/29
f 32/27/32 33/28/33 34/28/34
f 32/27/32 35/27/35 33/28/33
f 36/29/36 35/27/35 32/27/32
f 36/29/36 37/29/37 35/27/35
f 38/30/38 37/29/37 36/29/36
f 38/30/38 39/30/39 37/29/37
f 40/31/40 39/30/39 38/30/38
f 40/31/40 41/31/41 39/30/39
f 42/32/42 41/31/41 40/31/40
f 42/32/42 43/32/43 41/31/41
f 34/28/34 43/32/43 42/32/42
f 34/28/34 33/28/33 43/32/43
f 44/29/44 45/27/45 46/27/46
f 44/29/44 47/29/47 45/27/45
f 48/30/48 47/29/47 44/29/44
f 48/30/48 49/30/49 47/29/47
f 50/31/50 49/30/49 48/30/48
f 50/31/50 51/31/51 49/30/49
f 52/32/52 51/31/51 50/31/50
f 52/32/52 53/32/53 51/31/51
f 54/28/54 53/32/53 52/32/52
f 54/28/54 55/28/55 53/32/53
f 46/27/46 55/28/55 54/28/54
f 46/27/46 45/27/45 55/28/55
f 56/33/56 57/34/57 58/35/58
f 56/33/56 59/36/59 57/34/57
f 60/37/60 59/36/59 56/33/56
f 60/37/60 61/38/61 59/36/59
f 62/39/62 61/38/61 60/37/60
f 62/39/62 63/40/63 61/38/61
f 64/38/64 63/40/63 62/39/62
f 64/38/64 65/41/65 63/40/63
f 66/34/66 65/41/65 64/38/64
f 67/42/67 60/37/60 56/33/56
f 67/42/67 68/33/68 60/37/60
f 69/43/69 68/33/68 67/42/67
f 69/43/69 70/35/70 68/33/68
f 60/37/60 64/38/64 62/39/62
f 60/37/60 71/36/71 64/38/64
f 68/33/68 71/36/71 60/37/60
f 68/33/68 70/35/70 71/36/71
f 72/44/23 73/44/72 74/44/73
f 72/44/23 75/44/74 73/44/72
f 76/44/21 75/44/74 72/44/23
f 76/44/21 77/44/75 75/44/74
f 78/44/76 79/44/5 80/44/77
f 78/44/76 81/44/7 79/44/5
f 82/44/78 81/44/7 78/44/76
f 82/44/78 83/44/79 81/44/7
f 83/44/79 84/44/9 81/44/7
f 83/44/79 85/44/80 84/44/9
f 86/44/81 85/44/80 83/44/79
f 86/44/81 87/44/82 85/44/80
f 87/44/82 88/44/83 85/44/80
f 87/44/82 89/44/15 88/44/83
f 90/44/84 89/44/15 87/44/82
f 90/44/84 91/44/85 89/44/15
f 91/44/85 92/44/17 89/44/15
f 91/44/85 77/44/75 92/44/17
f 93/44/86 77/44/75 91/44/85
f 93/44/86 75/44/74 77/44/75
f 94/45/87 95/46/88 96/47/89
f 94/45/87 97/48/90 95/46/88
f 98/49/91 97/48/90 94/45/87
f 99/44/92 100/44/93 101/44/29
f 99/44/92 102/44/94 100/44/93
f 74/44/73 102/44/94 99/44/92
f 103/44/95 104/44/96 105/44/97
f 103/44/95 106/44/98 104/44/96
f 80/44/77 106/44/98 103/44/95
f 107/41/99 61/38/61 63/40/63
f 107/41/99 59/36/59 61/38/61
f 57/34/57 59/36/59 107/41/99
f 94/45/87 108/50/100 98/49/91
f 94/45/87 109/51/101 108/50/100
f 110/52/102 109/51/101 94/45/87
f 111/53/103 112/54/104 113/55/105
f 111/53/103 114/56/105 112/54/104
f 115/57/103 114/56/105 111/53/103
f 111/53/103 116/56/103 115/57/103
f 111/53/103 117/54/103 116/56/103
f 118/55/106 117/54/103 111/53/103
f 119/58/107 120/59/72 121/60/108
f 119/58/107 122/61/109 120/59/72
f 123/62/110 124/63/86 125/64/111
f 123/62/110 126/65/112 124/63/86
f 127/66/113 128/67/84 129/68/114
f 127/66/113 130/69/115 128/67/84
f 131/70/116 132/71/81 133/72/117
f 131/70/116 134/73/118 132/71/81
f 135/74/119 136/75/78 137/76/120
f 135/74/119 138/77/121 136/75/78
f 139/78/122 140/79/123 141/80/95
f 139/78/122 142/81/124 140/79/123
f 143/82/125 144/83/94 145/84/73
f 143/82/125 146/85/126 144/83/94
f 147/44/127 100/44/93 148/44/128
f 147/44/127 101/44/29 100/44/93
f 39/30/39 35/27/35 37/29/37
f 39/30/39 41/31/41 35/27/35
f 43/32/43 35/27/35 41/31/41
f 43/32/43 33/28/33 35/27/35
f 49/30/49 45/27/45 47/29/47
f 49/30/49 51/31/51 45/27/45
f 53/32/53 45/27/45 51/31/51
f 53/32/53 55/28/55 45/27/45
f 149/86/129 150/87/130 151/88/130
f 149/86/129 152/89/130 150/87/130
f 153/88/131 154/89/131 155/86/132
f 153/88/131 156/87/132 154/89/131
f 157/90/14 158/91/133 159/92/134
f 157/90/14 160/93/135 158/91/133
f 161/94/136 162/94/137 163/94/138
f 161/94/136 164/94/139 162/94/137
f 165/94/125 162/94/137 164/94/139
f 165/94/125 166/94/109 162/94/137
f 120/59/72 167/95/125 168/96/73
f 120/59/72 122/61/109 167/95/125
f 144/83/94 169/97/136 170/98/93
f 144/83/94 146/85/126 169/97/136
f 171/99/140 172/100/122 173/101/95
f 171/99/140 174/102/141 172/100/122
f 140/79/123 175/103/142 176/104/76
f 140/79/123 142/81/124 175/103/142
f 136/75/78 177/105/143 178/106/117
f 136/75/78 138/77/121 177/105/143
f 132/71/81 179/107/113 180/108/144
f 132/71/81 134/73/118 179/107/113
f 128/67/84 181/109/110 182/110/85
f 128/67/84 130/69/115 181/109/110
f 124/63/86 183/111/145 184/112/74
f 124/63/86 126/65/112 183/111/145
f 185/94/146 162/94/137 166/94/109
f 185/94/146 186/94/112 162/94/137
f 187/44/147 74/44/73 99/44/92
f 187/44/147 72/44/23 74/44/73
f 188/94/110 162/94/137 186/94/112
f 188/94/110 189/94/148 162/94/137
f 190/94/113 162/94/137 189/94/148
f 190/94/113 191/94/118 162/94/137
f 192/44/123 80/44/77 103/44/95
f 192/44/123 78/44/76 80/44/77
f 193/94/116 162/94/137 191/94/118
f 193/94/116 194/94/121 162/94/137
f 195/94/142 162/94/137 194/94/121
f 195/94/142 196/94/149 162/94/137
f 197/94/122 162/94/137 196/94/149
f 197/94/122 198/94/141 162/94/137
f 199/113/150 200/91/151 201/114/20
f 199/113/150 202/115/24 200/91/151
f 203/4/152 204/116/98 205/117/2
f 203/4/152 206/1/96 204/116/98
f 207/56/58 208/118/67 209/119/153
f 207/56/58 210/57/69 208/118/67
f 66/34/66 71/36/71 70/35/70
f 66/34/66 64/38/64 71/36/71
f 211/120/154 212/91/155 213/121/156
f 211/120/154 214/122/31 212/91/155
f 215/99/128 216/123/136 217/102/138
f 215/99/128 218/124/157 216/123/136
f 219/91/158 220/125/6 221/126/8
f 219/91/158 222/127/4 220/125/6
f 94/45/87 223/128/159 110/52/102
f 94/45/87 96/47/89 223/128/159
f 224/91/160 225/129/161 201/114/20
f 224/91/160 160/93/162 225/129/161
f 226/130/26 227/91/163 202/115/24
f 226/130/26 213/121/156 227/91/163
f 111/53/103 228/131/103 118/55/106
f 111/53/103 113/55/105 228/131/103
f 229/132/2 230/91/164 231/122/165
f 229/132/2 222/127/166 230/91/164
f 232/133/10 233/91/167 221/126/8
f 232/133/10 159/92/12 233/91/167
f 234/1/127 31/4/31 29/25/29
