# Blender 4.0.2
# www.blender.org
mtllib Parfait.mtl
o TopL
v -14.273516 102.230186 -14.620042
v 14.282338 99.347832 -16.643621
v -20.593727 98.027702 -18.672695
v 16.144806 111.163612 -15.502394
v -15.685769 111.950218 -14.349452
v 10.627835 118.335945 -2.584873
v -10.874998 119.568573 -1.657833
v 12.154920 129.544296 -1.043327
v -11.872469 130.987503 0.049596
v 5.958362 135.987869 12.861398
v -6.020116 137.793793 14.339310
v 6.523263 144.212494 12.520085
v -8.262221 145.687943 13.701083
v 0.000000 151.594101 23.513382
v -9.736374 144.178223 27.067951
v 1.103336 147.035553 46.989899
v 13.832124 86.460388 -20.682966
v 22.447372 105.374023 -29.411312
v 44.903709 91.439499 6.889589
v -13.832124 86.460388 -20.682966
v -9.630363 47.442577 -27.860071
v -19.252050 41.466869 -12.293038
v -9.674619 33.720520 -15.266652
v -4.837237 30.718559 -7.446111
v 9.674619 33.720520 -15.266652
v 4.837237 30.718559 -7.446111
v 9.630363 35.491295 3.273850
v -9.630363 35.491295 3.273850
v -13.832124 69.292809 24.040110
v -27.655424 77.874939 1.682694
v -44.903709 91.439499 6.889589
v -22.447372 105.374023 -29.411312
v -28.096819 110.451042 14.187456
v -10.874998 119.568573 -1.657833
v -15.685769 111.950218 -14.349452
v -18.466452 118.013283 17.468538
v -13.170035 105.873116 36.852776
v -8.491739 115.754547 31.899839
v 12.843474 109.805443 37.766659
v 7.370615 120.934692 32.715954
v 25.069115 120.496628 18.043564
v 13.249578 128.404953 21.457556
v -32.298576 90.195015 6.411896
v -14.273516 102.230186 -14.620042
v -20.593727 98.027702 -18.672695
v -25.669304 100.592026 10.781130
v -17.521915 81.197517 31.304571
v -12.101987 96.431633 31.176722
v 17.124632 85.034683 33.032825
v 11.281101 100.032478 31.944386
v 32.139637 98.353546 9.543582
v 22.032591 109.417999 14.169088
v -22.447372 77.504845 43.190491
v 13.832124 69.292809 24.040110
v 19.252050 41.466869 -12.293038
v 4.837237 36.725803 -23.095434
v -4.837237 36.725803 -23.095434
v 9.630363 47.442577 -27.860071
v -11.872469 130.987503 0.049596
v -21.441080 127.818649 20.324717
v -8.827123 124.552315 38.784950
v 7.803185 127.731003 40.307552
v 16.365501 135.277191 26.043293
v -6.788070 129.591736 -34.099300
v -7.970949 133.421524 -29.149689
v 0.000000 139.725388 -33.206539
v -18.554674 116.177856 -17.529879
v -14.661831 108.566742 -24.772499
v 0.000000 102.396645 -8.230700
v 0.000000 103.625374 -30.668818
v 14.661831 108.566742 -24.772499
v 6.788070 129.591736 -34.099300
v 7.970949 133.421524 -29.149689
v 35.696949 90.519836 22.241564
v 31.654133 98.181442 29.352291
v 18.033884 95.930656 8.613650
v 48.690544 113.115883 23.748402
v 51.930122 108.545914 20.727062
v 54.737129 120.109322 17.894890
v 53.960350 107.599777 13.092942
v 51.930122 113.411057 8.052652
v 35.696949 101.028503 -5.134592
v 31.654133 111.480186 -5.292233
v -6.788070 92.368431 62.870770
v 0.000000 100.493401 68.996460
v -7.970949 98.523338 61.763386
v 0.000000 88.265305 63.460983
v -14.661831 82.981461 41.879475
v 0.000000 75.367012 42.946655
v 0.000000 89.467987 25.449614
v 14.661831 82.981461 41.879475
v 18.554674 93.486938 41.581692
v 7.970949 98.523338 61.763386
v -51.930122 113.411057 8.052652
v -54.737129 120.109322 17.894890
v -48.690544 118.828972 8.865439
v -53.960350 107.599777 13.092942
v -35.696949 101.028503 -5.134592
v -39.430855 89.494598 6.143040
v -18.033884 95.930656 8.613650
v -35.696949 90.519836 22.241564
v -31.654133 98.181442 29.352291
v -48.690544 113.115883 23.748402
v 3.363085 140.675568 32.029999
v 1.103336 147.035553 46.989899
v -4.545965 137.181595 32.806629
v -9.736374 144.178223 27.067951
v -10.168799 136.522263 24.573334
v -8.262221 145.687943 13.701083
v -6.020116 137.793793 14.339310
v 22.447372 77.504845 43.190491
v 27.655424 77.874939 1.682694
v 0.000000 126.937454 -37.283344
v 39.430855 89.494598 6.143040
v 34.567146 161.623337 -7.195343
v 43.667900 155.663528 8.330473
v 44.621262 157.439362 -3.118827
v 22.791721 94.601128 -2.874264
v 13.690970 100.560936 -18.399933
v 29.923996 88.008301 5.950690
v 0.000000 91.439499 6.889589
v -22.447372 105.374023 -29.411312
v -44.903709 91.439499 6.889589
v 22.447372 105.374023 -29.411312
v 44.903709 91.439499 6.889589
v 22.447372 77.504845 43.190491
v -22.447372 77.504845 43.190491
v -51.930122 108.545914 20.727062
v 6.788070 92.368431 62.870770
v -7.970949 133.421524 -29.149689
v 7.970949 133.421524 -29.149689
v 0.000000 139.725388 -33.206539
v -18.554674 116.177856 -17.529879
v -48.690544 113.115883 23.748402
v -48.690544 118.828972 8.865439
v -54.737129 120.109322 17.894890
v -31.654133 98.181442 29.352291
v 48.690544 118.828972 8.865439
v 48.690544 113.115883 23.748402
v 54.737129 120.109322 17.894890
v 31.654133 111.480186 -5.292233
v 48.690544 118.828972 8.865439
v -18.554674 93.486938 41.581692
v 18.554674 93.486938 41.581692
v 0.000000 89.467987 25.449614
v -7.970949 98.523338 61.763386
v -31.654133 111.480186 -5.292233
v 18.554674 116.177856 -17.529879
v 0.000000 102.396645 -8.230700
v 18.554674 116.177856 -17.529879
v -18.554674 93.486938 41.581692
v 23.745083 96.377106 -14.323420
v 44.621262 157.439362 -3.118827
v 44.621262 157.439362 -3.118827
v 23.745083 96.377106 -14.323420
v -31.654133 111.480186 -5.292233
v -18.033884 95.930656 8.613650
v 7.970949 98.523338 61.763386
v 0.000000 100.493401 68.996460
v 15.676947 75.842392 23.604214
v 31.654133 98.181442 29.352291
v 18.033884 95.930656 8.613650
v 39.792702 7.918448 -25.171219
v 3.477917 15.160638 -15.933221
v 19.896351 -4.431277 7.001101
v 6.964655 17.321320 -21.561697
v 19.896351 20.268175 -57.343395
v 3.477917 19.481857 -27.190315
v -19.896351 20.268175 -57.343395
v -3.477917 19.481857 -27.190315
v -39.792702 7.918448 -25.171219
v -6.964655 17.321320 -21.561697
v -19.896351 -4.431277 7.001101
v -3.477917 15.160638 -15.933221
v -3.477917 19.481857 -27.190315
v -3.477917 30.351503 -23.017771
v 3.477917 19.481857 -27.190315
v -6.964655 28.190966 -17.389296
v -6.964655 17.321320 -21.561697
v -3.477917 26.030285 -11.760821
v -3.477917 15.160638 -15.933221
v 3.477917 26.030285 -11.760821
v 3.477917 15.160638 -15.933221
v 6.964655 28.190966 -17.389296
v 6.964655 17.321320 -21.561697
v 3.477917 30.351503 -23.017771
v 55.875751 94.315498 7.993503
v 16.003653 85.157616 -25.220396
v 27.937876 111.657059 -37.182823
v 32.007160 75.221519 0.664108
v 27.937876 76.973938 53.169827
v 16.003653 65.288460 26.540369
v -27.937876 76.973938 53.169827
v -16.003653 65.288460 26.540369
v -55.875751 94.315498 7.993503
v -32.007160 75.221519 0.664108
v -27.937876 111.657059 -37.182823
v -16.003653 85.157616 -25.220396
v 11.404611 43.275532 -32.768898
v 22.818188 36.192863 -14.317629
v 11.404611 29.113235 4.125396
v -11.404611 29.113235 4.125396
v -22.818188 36.192863 -14.317629
v -11.404611 43.275532 -32.768898
v 27.937876 111.657059 -37.182823
v 41.902477 91.134491 6.772444
v 55.875751 94.315498 7.993503
v 20.955576 104.142258 -27.113817
v -27.937876 111.657059 -37.182823
v -20.955576 104.142258 -27.113817
v -55.875751 94.315498 7.993503
v -41.902477 91.134491 6.772444
v -27.937876 76.973938 53.169827
v -20.955576 78.129906 40.650604
v 27.937876 76.973938 53.169827
v 20.955576 78.129906 40.650604
v 0.000000 7.918448 -25.171219
v -39.792702 7.918448 -25.171219
v -19.896351 20.268175 -57.343395
v -19.896351 -4.431277 7.001101
v 19.896351 -4.431277 7.001101
v 39.792702 7.918448 -25.171219
v 19.896351 20.268175 -57.343395
vn -0.5175 0.4320 -0.7386
vn 0.3138 0.2831 -0.9063
vn -0.3718 0.7763 -0.5091
vn 0.4864 0.5205 -0.7017
vn -0.5024 0.5252 -0.6868
vn 0.4819 0.5382 -0.6914
vn -0.4924 0.5492 -0.6753
vn 0.4810 0.5897 -0.6488
vn -0.4864 0.5853 -0.6488
vn 0.4656 0.5469 -0.6958
vn -0.5584 0.5425 -0.6276
vn 0.4753 0.4848 -0.7342
vn -0.5802 0.5273 -0.6208
vn 0.2561 0.9650 0.0557
vn -0.9248 0.2862 0.2508
vn -0.0367 0.0698 0.9969
vn 0.4272 -0.2200 -0.8770
vn 0.3222 -0.5137 -0.7951
vn 0.6443 -0.7140 -0.2740
vn -0.4272 -0.2200 -0.8770
vn -0.4272 -0.2199 -0.8770
vn -0.8544 -0.4851 -0.1862
vn -0.4525 -0.8325 -0.3195
vn -0.2263 -0.9730 0.0463
vn 0.4526 -0.8325 -0.3196
vn 0.2263 -0.9729 0.0464
vn 0.4273 -0.7503 0.5045
vn -0.4272 -0.7503 0.5046
vn -0.4272 -0.7503 0.5045
vn -0.8544 -0.4852 -0.1862
vn -0.6443 -0.7140 -0.2741
vn -0.3222 -0.5138 -0.7951
vn -0.9507 0.2844 0.1238
vn -0.5024 0.5253 -0.6868
vn -0.4842 0.0361 0.8742
vn -0.4769 -0.0249 0.8786
vn 0.4377 0.0341 0.8985
vn 0.4894 -0.0494 0.8707
vn 0.9406 0.3103 0.1381
vn 0.9517 0.2942 0.0881
vn -0.8109 0.5444 0.2146
vn -0.3718 0.7762 -0.5091
vn -0.9780 0.1585 0.1359
vn -0.3223 -0.1681 0.9316
vn -0.4751 -0.1694 0.8635
vn 0.4863 -0.2307 0.8428
vn 0.4808 -0.1477 0.8643
vn 0.9755 0.1954 0.1014
vn 0.9735 0.2083 0.0945
vn -0.3221 -0.9139 0.2470
vn 0.4272 -0.7503 0.5046
vn 0.8544 -0.4851 -0.1862
vn 0.2263 -0.6920 -0.6855
vn -0.2263 -0.6920 -0.6855
vn 0.4273 -0.2200 -0.8769
vn -0.4863 0.5853 -0.6488
vn -0.9498 0.2790 0.1418
vn -0.5046 -0.0214 0.8631
vn 0.3426 0.1285 0.9306
vn 0.9580 0.2814 0.0556
vn -0.6205 0.1895 -0.7609
vn -0.6369 0.7250 0.2621
vn -0.0000 0.7156 -0.6985
vn -0.9134 0.0233 0.4064
vn -0.7558 -0.5539 -0.3494
vn -0.0000 -0.8830 0.4694
vn -0.0000 -0.7878 -0.6159
vn 0.7558 -0.5538 -0.3494
vn 0.6205 0.1895 -0.7609
vn 0.6368 0.7251 0.2621
vn 0.1277 -0.8705 0.4754
vn -0.3710 -0.1711 0.9127
vn -0.7546 -0.6126 -0.2352
vn 0.0151 0.4914 0.8708
vn 0.7783 -0.3118 0.5450
vn 0.9086 0.3900 0.1497
vn 0.9447 -0.3062 -0.1175
vn 0.7783 0.1330 -0.6136
vn 0.1277 -0.3288 -0.9357
vn -0.3710 0.4836 -0.7928
vn -0.6206 -0.3683 0.6923
vn -0.0000 0.0644 0.9979
vn -0.6368 0.7142 0.2904
vn -0.0000 -0.6448 0.7644
vn -0.7558 -0.6454 -0.1110
vn -0.0000 -0.9976 -0.0695
vn -0.0000 -0.3421 -0.9397
vn 0.7558 -0.6454 -0.1110
vn 0.9134 0.2892 -0.2864
vn 0.6368 0.7142 0.2904
vn -0.7783 0.1330 -0.6136
vn -0.9086 0.3900 0.1497
vn -0.0151 0.9479 -0.3183
vn -0.9447 -0.3062 -0.1175
vn -0.1277 -0.3288 -0.9357
vn -0.2927 -0.8927 -0.3427
vn 0.7546 -0.6126 -0.2352
vn -0.1277 -0.8705 0.4754
vn 0.3710 -0.1711 0.9127
vn -0.0151 0.4914 0.8708
vn 0.6627 0.2215 0.7153
vn -0.0366 0.0698 0.9969
vn -0.5154 0.0740 0.8537
vn -0.9174 0.3377 0.2107
vn 0.3221 -0.9139 0.2469
vn -0.0000 0.0323 -0.9995
vn 0.2927 -0.8927 -0.3427
vn -0.0945 0.9804 -0.1727
vn 0.3808 0.6691 0.6382
vn 0.8633 0.3351 -0.3774
vn 0.2088 -0.2451 0.9467
vn -0.7058 0.3539 -0.6137
vn 0.9619 -0.2459 -0.1193
vn -0.0000 0.9336 0.3584
vn -0.7783 -0.3118 0.5450
vn 0.6205 -0.3683 0.6923
vn -0.6368 0.7251 0.2621
vn -0.0001 0.7156 -0.6985
vn -0.9134 0.0233 0.4063
vn -0.0151 0.4915 0.8708
vn -0.0152 0.9479 -0.3183
vn -0.9086 0.3900 0.1498
vn 0.0151 0.9479 -0.3183
vn 0.9086 0.3900 0.1498
vn -0.9134 0.2892 -0.2864
vn -0.0001 -0.3421 -0.9397
vn 0.3710 0.4836 -0.7928
vn 0.9134 0.0233 0.4063
vn 0.0001 -0.8830 0.4694
vn 0.9134 0.0233 0.4064
vn 0.8173 -0.1789 -0.5477
vn 0.8633 0.3350 -0.3774
vn 0.7547 -0.6125 -0.2352
vn 0.0001 0.0644 0.9979
vn 0.5029 -0.6290 0.5928
vn -0.7547 -0.6125 -0.2352
vn 0.9809 -0.1817 -0.0698
vn 0.1466 0.8015 0.5798
vn 0.4904 -0.4861 0.7234
vn 0.2933 0.8925 0.3427
vn 0.4904 0.1227 -0.8628
vn 0.1465 0.9836 0.1054
vn -0.4904 0.1227 -0.8628
vn -0.1466 0.9836 0.1054
vn -0.9809 -0.1817 -0.0697
vn -0.2932 0.8926 0.3425
vn -0.4904 -0.4862 0.7233
vn -0.1465 0.8015 0.5798
vn -0.4997 0.3104 -0.8087
vn -0.4210 -0.2423 -0.8741
vn 0.4997 0.3104 -0.8087
vn -0.8420 -0.5036 -0.1933
vn -1.0000 -0.0000 -0.0000
vn -0.4210 -0.7649 0.4875
vn -0.4997 -0.3104 0.8087
vn 0.4210 -0.7649 0.4875
vn 0.4997 -0.3104 0.8087
vn 0.8420 -0.5036 -0.1933
vn 1.0000 -0.0000 -0.0000
vn 0.4210 -0.2423 -0.8741
vn 0.6507 -0.7089 -0.2721
vn 0.4259 -0.2247 -0.8764
vn 0.3254 -0.5069 -0.7982
vn 0.8518 -0.4891 -0.1877
vn 0.3253 -0.9109 0.2539
vn 0.4259 -0.7534 0.5010
vn -0.3253 -0.9109 0.2539
vn -0.4259 -0.7534 0.5009
vn -0.6507 -0.7089 -0.2721
vn -0.8518 -0.4891 -0.1877
vn -0.3254 -0.5069 -0.7982
vn -0.4259 -0.2247 -0.8764
vn 0.3922 -0.3358 -0.8564
vn 0.7843 -0.5792 -0.2223
vn 0.3921 -0.8226 0.4117
vn -0.3921 -0.8226 0.4118
vn -0.7843 -0.5792 -0.2223
vn -0.3921 -0.3358 -0.8564
vn -0.1185 0.8334 0.5398
vn -0.2369 0.9070 0.3482
vn -0.1186 0.8334 0.5398
vn 0.1185 0.8334 0.5398
vn 0.2369 0.9070 0.3482
vn 0.2369 0.9070 0.3481
vn 0.1185 0.9805 0.1566
vn -0.1185 0.9805 0.1566
vn -0.0000 -0.9336 -0.3584
vn -0.4904 -0.4861 0.7233
vn 0.9809 -0.1817 -0.0697
vt 0.619897 0.054176
vt 0.515894 0.040392
vt 0.632250 0.032494
vt 0.515927 0.086507
vt 0.618424 0.091140
vt 0.515476 0.132155
vt 0.620642 0.138123
vt 0.515537 0.176554
vt 0.618679 0.183564
vt 0.514160 0.230286
vt 0.623329 0.239212
vt 0.522318 0.251328
vt 0.623241 0.258591
vt 0.565966 0.295002
vt 0.723928 0.272246
vt 0.875320 0.311763
vt 0.160412 0.922629
vt 0.160412 0.989059
vt 0.304062 0.989059
vt 0.016761 0.922629
vt 0.016761 0.687416
vt 0.160412 0.687416
vt 0.160412 0.649469
vt 0.304062 0.649469
vt 0.447713 0.649469
vt 0.447713 0.687416
vt 0.304062 0.687416
vt 0.304062 0.922629
vt 0.016761 0.989059
vt 0.117010 0.126721
vt 0.017272 0.138123
vt 0.015054 0.091140
vt 0.119998 0.159893
vt 0.216780 0.142225
vt 0.217330 0.172255
vt 0.315059 0.158354
vt 0.312137 0.192910
vt 0.414111 0.170065
vt 0.409421 0.197112
vt 0.116728 0.039247
vt 0.016527 0.054176
vt 0.028880 0.032494
vt 0.118549 0.084674
vt 0.210758 0.041361
vt 0.216766 0.098508
vt 0.319619 0.058286
vt 0.313393 0.113155
vt 0.414641 0.074489
vt 0.412238 0.122796
vt 0.447713 0.922629
vt 0.016761 0.649469
vt 0.015309 0.183564
vt 0.115466 0.200916
vt 0.223379 0.215317
vt 0.303739 0.229466
vt 0.400288 0.237247
vt 0.131439 0.544094
vt 0.056993 0.544094
vt 0.203644 0.608239
vt 0.012486 0.406800
vt 0.108065 0.406800
vt 0.203644 0.327022
vt 0.203644 0.406800
vt 0.203644 0.541093
vt 0.312713 0.266233
vt 0.271950 0.311763
vt 0.218921 0.254189
vt 0.120558 0.272246
vt 0.124221 0.239803
vt 0.019870 0.258591
vt 0.019959 0.239212
vt 0.447713 0.989059
vt 0.902812 0.951449
vt 0.824203 0.951449
vt 0.865322 0.990027
vt 0.824203 0.616894
vt 0.902812 0.616894
vt 0.413366 0.030346
vt 0.591328 0.547529
vt 0.490350 0.338884
vt 0.693078 0.338884
vt 0.281589 0.558862
vt 0.418521 0.558863
vt 0.350055 0.616629
vt 0.241417 0.443330
vt 0.458693 0.443330
vt 0.350055 0.350946
vt 0.747096 0.616894
vt 0.747096 0.951449
vt 0.981817 0.951449
vt 0.981817 0.616894
vt 0.325732 0.010078
vt 0.778768 0.368467
vt 0.906982 0.502662
vt 0.983911 0.368467
vt 0.847870 0.502662
vt 0.716964 0.596803
vt 0.716964 0.641680
vt 0.481852 0.596803
vt 0.481852 0.641680
vt 0.716964 0.931969
vt 0.481852 0.844880
vt 0.481852 0.931969
vt 0.716964 0.844880
vt 0.481852 0.711354
vt 0.716964 0.711354
vt 0.481852 0.988933
vt 0.716964 0.988933
vt 0.844926 0.243447
vt 0.961248 0.038213
vt 0.728603 0.038213
s 1
usemtl mat1.006
f 1/1/1 2/2/2 3/3/3
f 1/1/1 4/4/4 2/2/2
f 5/5/5 4/4/4 1/1/1
f 5/5/5 6/6/6 4/4/4
f 7/7/7 6/6/6 5/5/5
f 7/7/7 8/8/8 6/6/6
f 9/9/9 8/8/8 7/7/7
f 9/9/9 10/10/10 8/8/8
f 11/11/11 10/10/10 9/9/9
f 11/11/11 12/12/12 10/10/10
f 13/13/13 12/12/12 11/11/11
f 13/13/13 14/14/14 12/12/12
f 15/15/15 14/14/14 13/13/13
f 15/15/15 16/16/16 14/14/14
f 17/17/17 18/18/18 19/19/19
f 17/17/17 20/20/20 18/18/18
f 21/21/21 20/20/20 17/17/17
f 21/21/21 22/22/22 20/20/20
f 23/23/23 22/22/22 21/21/21
f 23/23/23 24/24/24 22/22/22
f 25/24/25 24/24/24 23/23/23
f 25/24/25 26/25/26 24/24/24
f 27/26/27 26/25/26 25/24/25
f 27/26/27 28/27/28 26/25/26
f 29/28/29 28/27/28 27/26/27
f 29/28/29 30/17/30 28/27/28
f 31/18/31 30/17/30 29/28/29
f 31/18/31 32/29/32 30/17/30
f 33/30/33 34/31/7 35/32/34
f 33/30/33 36/33/33 34/31/7
f 37/34/35 36/33/33 33/30/33
f 37/34/35 38/35/36 36/33/33
f 39/36/37 38/35/36 37/34/35
f 39/36/37 40/37/38 38/35/36
f 41/38/39 40/37/38 39/36/37
f 41/38/39 42/39/40 40/37/38
f 8/8/8 42/39/40 41/38/39
f 8/8/8 10/10/10 42/39/40
f 43/40/41 44/41/1 45/42/42
f 43/40/41 46/43/43 44/41/1
f 47/44/44 46/43/43 43/40/41
f 47/44/44 48/45/45 46/43/43
f 49/46/46 48/45/45 47/44/44
f 49/46/46 50/47/47 48/45/45
f 51/48/48 50/47/47 49/46/46
f 51/48/48 52/49/49 50/47/47
f 4/4/4 52/49/49 51/48/48
f 4/4/4 6/6/6 52/49/49
f 46/43/43 35/32/34 44/41/1
f 46/43/43 33/30/33 35/32/34
f 48/45/45 33/30/33 46/43/43
f 48/45/45 37/34/35 33/30/33
f 50/47/47 37/34/35 48/45/45
f 50/47/47 39/36/37 37/34/35
f 52/49/49 39/36/37 50/47/47
f 52/49/49 41/38/39 39/36/37
f 6/6/6 41/38/39 52/49/49
f 6/6/6 8/8/8 41/38/39
f 29/28/29 53/19/50 31/18/31
f 29/28/29 54/50/51 53/19/50
f 27/26/27 54/50/51 29/28/29
f 27/26/27 55/27/52 54/50/51
f 25/24/25 55/27/52 27/26/27
f 25/24/25 56/23/53 55/27/52
f 57/51/54 56/23/53 25/24/25
f 57/51/54 58/22/55 56/23/53
f 21/21/21 58/22/55 57/51/54
f 21/21/21 17/17/17 58/22/55
f 36/33/33 59/52/56 34/31/7
f 36/33/33 60/53/57 59/52/56
f 38/35/36 60/53/57 36/33/33
f 38/35/36 61/54/58 60/53/57
f 40/37/38 61/54/58 38/35/36
f 40/37/38 62/55/59 61/54/58
f 42/39/40 62/55/59 40/37/38
f 42/39/40 63/56/60 62/55/59
f 10/10/10 63/56/60 42/39/40
f 10/10/10 12/12/12 63/56/60
f 64/57/61 65/58/62 66/59/63
f 64/57/61 67/60/64 65/58/62
f 68/61/65 67/60/64 64/57/61
f 68/61/65 69/62/66 67/60/64
f 70/63/67 69/62/66 68/61/65
f 70/63/67 71/61/68 69/62/66
f 72/57/69 71/61/68 70/63/67
f 72/57/69 73/58/70 71/61/68
f 66/59/63 73/58/70 72/57/69
f 74/61/71 75/60/72 76/62/73
f 74/61/71 77/58/74 75/60/72
f 78/57/75 77/58/74 74/61/71
f 78/57/75 79/59/76 77/58/74
f 80/64/77 79/59/76 78/57/75
f 80/64/77 81/57/78 79/59/76
f 82/61/79 81/57/78 80/64/77
f 82/61/79 83/60/80 81/57/78
f 76/62/73 83/60/80 82/61/79
f 84/57/81 85/59/82 86/58/83
f 84/57/81 87/64/84 85/59/82
f 88/61/85 87/64/84 84/57/81
f 88/61/85 89/63/86 87/64/84
f 90/62/87 89/63/86 88/61/85
f 90/62/87 91/61/88 89/63/86
f 92/60/89 91/61/88 90/62/87
f 92/60/89 93/58/90 91/61/88
f 94/57/91 95/59/92 96/58/93
f 94/57/91 97/64/94 95/59/92
f 98/61/95 97/64/94 94/57/91
f 98/61/95 99/63/96 97/64/94
f 100/62/97 99/63/96 98/61/95
f 100/62/97 101/61/98 99/63/96
f 102/60/99 101/61/98 100/62/97
f 102/60/99 103/58/100 101/61/98
f 14/14/14 63/56/60 12/12/12
f 14/14/14 104/65/101 63/56/60
f 105/66/102 104/65/101 14/14/14
f 105/66/102 106/67/103 104/65/101
f 107/68/15 106/67/103 105/66/102
f 107/68/15 108/69/104 106/67/103
f 109/70/13 108/69/104 107/68/15
f 109/70/13 110/71/11 108/69/104
f 60/53/57 110/71/11 59/52/56
f 60/53/57 108/69/104 110/71/11
f 61/54/58 108/69/104 60/53/57
f 61/54/58 106/67/103 108/69/104
f 62/55/59 106/67/103 61/54/58
f 62/55/59 104/65/101 106/67/103
f 63/56/60 104/65/101 62/55/59
f 28/27/28 24/24/24 26/25/26
f 28/27/28 22/22/22 24/24/24
f 30/17/30 22/22/22 28/27/28
f 30/17/30 20/20/20 22/22/22
f 32/29/32 20/20/20 30/17/30
f 32/29/32 18/18/18 20/20/20
f 54/50/51 111/72/105 53/19/50
f 54/50/51 112/28/52 111/72/105
f 55/27/52 112/28/52 54/50/51
f 55/27/52 58/22/55 112/28/52
f 56/23/53 58/22/55 55/27/52
f 113/64/106 64/57/61 66/59/63
f 113/64/106 68/61/65 64/57/61
f 70/63/67 68/61/65 113/64/106
f 114/63/107 74/61/71 76/62/73
f 114/63/107 78/57/75 74/61/71
f 80/64/77 78/57/75 114/63/107
f 112/28/52 19/19/19 111/72/105
f 112/28/52 17/17/17 19/19/19
f 58/22/55 17/17/17 112/28/52
f 115/73/108 116/74/109 117/75/110
f 115/73/108 118/76/111 116/74/109
f 119/77/112 118/76/111 115/73/108
f 51/48/48 2/2/2 4/4/4
f 51/48/48 120/78/113 2/2/2
f 49/46/46 120/78/113 51/48/48
f 121/79/114 122/80/114 123/81/114
f 121/79/114 124/81/114 122/80/114
f 125/80/114 124/81/114 121/79/114
f 121/79/114 126/81/114 125/80/114
f 121/79/114 127/80/114 126/81/114
f 123/81/114 127/80/114 121/79/114
f 128/57/115 95/59/92 97/64/94
f 128/57/115 103/58/100 95/59/92
f 101/61/98 103/58/100 128/57/115
f 129/57/116 85/59/82 87/64/84
f 129/57/116 93/58/90 85/59/82
f 91/61/88 93/58/90 129/57/116
f 130/82/117 131/83/70 132/84/118
f 130/82/117 133/85/119 131/83/70
f 134/83/120 135/82/121 136/84/122
f 134/83/120 137/86/99 135/82/121
f 138/82/123 139/83/74 140/84/124
f 138/82/123 141/85/80 139/83/74
f 81/57/78 142/58/123 79/59/76
f 81/57/78 83/60/80 142/58/123
f 143/85/125 144/86/89 145/87/126
f 143/85/125 146/82/83 144/86/89
f 98/61/95 147/60/127 100/62/97
f 98/61/95 94/57/91 147/60/127
f 148/86/128 133/85/119 149/87/129
f 148/86/128 131/83/70 133/85/119
f 71/61/68 150/60/130 69/62/66
f 71/61/68 73/58/70 150/60/130
f 88/61/85 151/60/125 90/62/87
f 88/61/85 84/57/81 151/60/125
f 72/57/69 113/64/106 66/59/63
f 72/57/69 70/63/67 113/64/106
f 152/88/131 116/74/109 118/76/111
f 152/88/131 153/89/132 116/74/109
f 128/57/115 99/63/96 101/61/98
f 128/57/115 97/64/94 99/63/96
f 129/57/116 89/63/86 91/61/88
f 129/57/116 87/64/84 89/63/86
f 82/61/79 114/63/107 76/62/73
f 82/61/79 80/64/77 114/63/107
f 119/77/112 154/90/132 155/91/131
f 119/77/112 115/73/108 154/90/132
f 156/85/127 137/86/99 157/87/133
f 156/85/127 135/82/121 137/86/99
f 158/83/90 146/82/83 159/84/134
f 158/83/90 144/86/89 146/82/83
f 57/51/54 23/23/23 21/21/21
f 57/51/54 25/24/25 23/23/23
f 160/92/135 49/46/46 47/44/44
f 160/92/135 120/78/113 49/46/46
f 161/86/72 141/85/80 162/87/136
f 161/86/72 139/83/74 141/85/80
f 86/58/83 151/60/125 84/57/81
f 96/58/93 147/60/127 94/57/91
usemtl mat2.001
f 163/93/137 164/94/138 165/95/139
f 163/93/137 166/96/140 164/94/138
f 167/95/141 166/96/140 163/93/137
f 167/95/141 168/94/142 166/96/140
f 169/93/143 168/94/142 167/95/141
f 169/93/143 170/96/144 168/94/142
f 171/95/145 170/96/144 169/93/143
f 171/95/145 172/94/146 170/96/144
f 173/93/147 172/94/146 171/95/145
f 173/93/147 174/96/148 172/94/146
f 165/95/139 174/96/148 173/93/147
f 165/95/139 164/94/138 174/96/148
f 175/97/149 176/98/150 177/99/151
f 175/97/149 178/100/152 176/98/150
f 179/99/153 178/100/152 175/97/149
f 179/99/153 180/98/154 178/100/152
f 181/97/155 180/98/154 179/99/153
f 181/97/155 182/100/156 180/98/154
f 183/99/157 182/100/156 181/97/155
f 183/99/157 184/98/158 182/100/156
f 185/97/159 184/98/158 183/99/157
f 185/97/159 186/100/160 184/98/158
f 177/99/151 186/100/160 185/97/159
f 177/99/151 176/98/150 186/100/160
f 187/101/161 188/102/162 189/103/163
f 187/101/161 190/104/164 188/102/162
f 191/103/165 190/104/164 187/101/161
f 191/103/165 192/102/166 190/104/164
f 193/101/167 192/102/166 191/103/165
f 193/101/167 194/104/168 192/102/166
f 195/103/169 194/104/168 193/101/167
f 195/103/169 196/102/170 194/104/168
f 197/101/171 196/102/170 195/103/169
f 197/101/171 198/104/172 196/102/170
f 189/103/163 198/104/172 197/101/171
f 189/103/163 188/102/162 198/104/172
f 190/104/164 199/105/173 188/102/162
f 190/104/164 200/106/174 199/105/173
f 192/102/166 200/106/174 190/104/164
f 192/102/166 201/105/175 200/106/174
f 194/104/168 201/105/175 192/102/166
f 194/104/168 202/106/176 201/105/175
f 196/102/170 202/106/176 194/104/168
f 196/102/170 203/105/177 202/106/176
f 198/104/172 203/105/177 196/102/170
f 198/104/172 204/106/178 203/105/177
f 188/102/162 204/106/178 198/104/172
f 188/102/162 199/105/173 204/106/178
f 186/100/160 200/106/174 184/98/158
f 186/100/160 199/105/173 200/106/174
f 176/98/150 199/105/173 186/100/160
f 176/98/150 204/106/178 199/105/173
f 178/100/152 204/106/178 176/98/150
f 178/100/152 203/105/177 204/106/178
f 180/98/154 203/105/177 178/100/152
f 180/98/154 202/106/176 203/105/177
f 182/100/156 202/106/176 180/98/154
f 182/100/156 201/105/175 202/106/176
f 184/98/158 201/105/175 182/100/156
f 184/98/158 200/106/174 201/105/175
f 205/101/179 206/107/180 207/103/180
f 205/101/179 208/108/181 206/107/180
f 209/103/182 208/108/181 205/101/179
f 209/103/182 210/107/182 208/108/181
f 211/101/183 210/107/182 209/103/182
f 211/101/183 212/108/184 210/107/182
f 213/103/185 212/108/184 211/101/183
f 213/103/185 214/107/185 212/108/184
f 215/101/186 214/107/185 213/103/185
f 215/101/186 216/108/186 214/107/185
f 207/103/180 216/108/186 215/101/186
f 207/103/180 206/107/180 216/108/186
f 217/109/187 218/110/145 219/111/143
f 217/109/187 220/111/188 218/110/145
f 221/110/139 220/111/188 217/109/187
f 217/109/187 222/111/189 221/110/139
f 217/109/187 223/110/141 222/111/189
f 219/111/143 223/110/141 217/109/187
