# Blender 4.0.2
# www.blender.org
mtllib Redsofa.mtl
o ROOMITEML002_ALL.001
v 0.000000 37.421558 -0.209225
v 165.945938 37.421558 -0.209225
v 0.000000 35.782799 -32.020332
v 168.642960 37.421555 -31.738882
v 226.218811 37.421551 -86.676620
v 188.576401 37.421551 -86.676620
v 226.218811 37.421555 -63.382042
v 190.359009 37.421555 -52.421974
v 188.576401 30.432722 -91.842957
v 223.736328 -12.647615 -91.842957
v 212.620148 -18.231823 -91.842957
v 188.576401 -48.682888 -91.842957
v 201.942749 -48.682888 -91.842957
v 190.072098 -49.283955 -105.778900
v 203.436218 -49.283955 -105.778900
v 174.331787 -110.479729 -50.146164
v 82.952438 -102.914093 -0.209214
v 0.000000 -110.479729 -50.146164
v 0.000000 -102.914093 -0.209214
v 201.942749 -36.350811 -91.842957
v 194.998642 -36.350807 -50.146168
v 194.998642 -82.523537 -50.146164
v 0.000000 -122.689445 -137.468552
v 178.818893 -122.594986 -137.468552
v 193.707123 -94.754517 -50.146164
v 169.821045 -87.188835 -0.209215
v 171.112869 -74.958199 -0.209216
v 203.066513 -94.733536 -137.427368
v 201.149811 -106.964203 -137.468552
v 165.945938 -95.924957 -0.209215
v 189.899216 -103.490631 -50.146164
v 159.487488 -101.166801 -0.209214
v 183.373550 -108.732468 -50.146164
v 196.776108 -115.700317 -137.468552
v 189.700165 -120.847717 -137.468552
v 231.385773 -0.490375 -91.842957
v 231.385773 30.432722 -91.842957
v 231.385773 -0.490372 -59.360123
v 231.385773 30.432726 -59.360126
v 195.644562 -29.669306 -50.311508
v 194.998642 30.432726 -50.146175
v 230.907898 -5.183357 -91.842957
v 230.923065 -5.179837 -59.243988
v 229.473907 -8.772223 -91.842957
v 229.530762 -8.758245 -58.890076
v 227.081879 -11.260278 -91.842957
v 227.210785 -11.232353 -58.303677
v 223.963455 -12.598681 -57.479713
v 205.365845 -18.336657 -52.770565
v 177.658905 -103.794624 -137.468552
v 0.000000 -103.895973 -137.468552
v 188.493668 -97.459099 -137.468567
v 186.398590 -100.985115 -137.468567
v 183.171936 -103.032822 -137.468552
v 189.695007 -92.493385 -137.427368
v 191.020432 -52.617702 -115.646385
v 204.386810 -52.680611 -115.646385
v 191.518997 -58.603794 -124.630516
v 204.885376 -58.844875 -124.630516
v 191.573288 -67.923515 -131.315613
v 204.937073 -68.472130 -131.315613
v 190.986816 -79.200470 -135.518372
v 204.353195 -80.175461 -135.518372
v 192.389465 36.984745 -51.427353
v 168.206421 36.984749 -0.209225
v 228.479340 36.984745 -61.623055
v 228.479340 36.984741 -88.936913
v 231.062653 33.490162 -91.520065
v 188.576401 33.490162 -91.520065
v 193.838654 35.674263 -50.714386
v 169.821045 35.674267 -0.209225
v 194.706863 33.490166 -50.288219
v 170.789780 33.490170 -0.209225
v 171.112869 30.432730 -0.209224
v 230.093964 35.674263 -60.364933
v 230.093964 35.674259 -90.551384
v 231.062653 33.490166 -59.610767
v 188.576401 35.674259 -90.551384
v 188.576401 36.984741 -88.936913
v 202.609329 -29.662336 -91.842957
v 197.590027 -24.438046 -50.802147
v 204.611343 -24.413584 -91.842957
v 200.829269 -20.660486 -51.623676
v 207.949158 -20.601068 -91.842957
v 180.857452 36.373131 -57.084328
v 187.801544 36.376705 -86.622337
v 187.801544 31.830427 -86.384773
v 180.857452 31.830429 -57.084328
v 187.801544 35.999256 -88.678482
v 187.801544 31.599867 -87.539383
v 187.801544 34.933434 -90.003746
v 187.801544 33.140907 -90.791626
v 187.801544 30.359264 -91.070633
v 187.801544 30.037575 -87.709801
v 187.801544 -52.851841 -87.709793
v 187.801544 -49.311909 -91.222900
v 189.297241 -50.286873 -105.548882
v 189.297241 -54.627056 -104.554459
v 190.245270 -53.599670 -115.380234
v 190.245270 -57.873428 -114.230919
v 190.743851 -59.466919 -124.209457
v 190.743851 -63.363407 -122.344315
v 190.798126 -68.496742 -130.682693
v 190.798126 -71.183891 -127.877434
v 190.214264 -79.420532 -134.771713
v 190.214264 -80.647041 -131.488678
v 188.920151 -92.427116 -136.654800
v 188.889175 -92.713722 -133.296860
v 187.791214 -96.938316 -136.693604
v 187.680069 -96.893044 -133.335632
v 185.825027 -100.167252 -136.696259
v 185.662506 -99.908798 -133.345840
v 182.802597 -101.994888 -136.696243
v 182.696625 -101.558044 -133.356232
v 177.589417 -102.634361 -136.698898
v 177.563568 -102.134888 -133.361343
v 0.000000 -103.368309 -136.370651
v 0.000000 -102.222137 -133.361343
v 168.172867 36.373131 -32.513649
v 0.000000 34.591064 -32.513649
v 168.172867 31.830431 -32.513649
v 0.000000 30.048069 -32.513649
v 181.552139 37.421555 -56.743492
v 75.221878 34.143768 -36.832760
v 75.221878 34.143768 -32.304455
v 159.262894 34.143768 -36.832760
v 160.440979 34.143768 -32.304455
v 169.363846 -12.193312 -36.832756
v 169.363846 21.126682 -36.832756
v 170.539337 -12.193312 -32.304451
v 170.539337 21.126682 -32.304451
v 75.221878 -67.692940 -36.832752
v 159.262894 -67.692940 -36.832752
v 75.221878 -69.877045 -32.304447
v 160.440979 -69.877045 -32.304447
v 75.221878 -54.679440 -42.590565
v 159.262894 -54.679440 -41.521046
v 75.221878 -64.998856 -39.449356
v 159.262894 -64.935913 -39.237732
v 75.221878 31.449375 -39.449364
v 75.221878 21.126680 -42.590569
v 159.262894 21.126680 -41.521049
v 159.262894 31.383133 -39.237740
v 169.363846 -54.679440 -36.832752
v 170.539337 -56.860020 -32.304447
v 169.363846 -58.013218 -36.832752
v 170.539337 -60.197250 -32.304447
v 169.363846 24.463860 -36.832756
v 170.539337 24.463860 -32.304451
v 159.262894 -12.193312 -42.293404
v 167.323044 -12.193312 -39.222225
v 167.323044 21.126680 -39.222225
v 162.207779 34.143768 -36.832760
v 163.383270 34.143768 -32.304455
v 0.000000 34.143768 -36.832760
v 0.000000 -66.179787 -36.884388
v 0.000000 -69.877045 -32.304447
v 162.207779 -67.692940 -36.832752
v 163.383270 -69.877045 -32.304447
v 0.000000 -64.998856 -39.449356
v 0.000000 -54.679440 -42.590565
v 161.610992 -65.054634 -39.222221
v 161.610992 31.501856 -39.222229
v 0.000000 31.449375 -39.449364
v 0.000000 21.126680 -42.590569
v 75.221878 -12.193312 -43.631504
v 0.000000 -12.193312 -43.631504
v 167.323044 -54.679440 -39.222221
v 166.183731 33.067455 -36.832760
v 167.359238 33.067455 -32.304455
v 168.568008 -63.391293 -36.832752
v 169.746094 -65.571785 -32.304447
v 168.568008 29.842123 -36.832760
v 169.746094 29.842123 -32.304455
v 166.183731 -66.620201 -36.832752
v 167.359238 -68.800728 -32.304447
v 167.379913 23.806978 -39.211796
v 166.886520 28.266031 -39.185890
v 164.920364 30.886932 -39.188538
v 167.379913 -57.359737 -39.211792
v 166.886520 -61.815212 -39.185883
v 164.920364 -64.439713 -39.188530
v 0.000000 33.329487 -32.020332
v 187.661942 -57.544945 -112.683594
v 182.828461 -90.655235 -87.758995
v 186.711365 -54.291565 -102.996735
v 166.824463 31.386711 -35.324203
v 178.346176 31.386709 -57.484798
v 166.121704 -76.191582 -35.830582
v 177.106354 -85.679024 -57.505405
v 180.857452 34.182121 -56.875137
v 168.172867 34.182121 -32.304455
v 187.801544 34.182117 -86.340889
v 185.217896 30.757721 -87.294060
v 187.801544 33.839745 -88.110275
v 187.801544 33.098919 -89.024673
v 187.801544 31.861923 -89.572266
v 187.801544 29.468246 -89.825584
v 185.217896 -52.593239 -87.758995
v 187.801544 -50.507034 -89.825584
v 189.297241 -51.621761 -103.609039
v 190.245270 -54.913612 -113.393883
v 188.160522 -63.066299 -120.853951
v 190.857590 -60.679508 -121.995735
v 190.860168 -70.485054 -128.763474
v 188.214798 -70.977951 -126.640144
v 187.630951 -80.545723 -130.473465
v 190.343506 -80.458466 -132.475327
v 186.321014 -92.346741 -132.297150
v 188.912399 -92.685532 -134.337784
v 184.225952 -97.172485 -132.020782
v 187.786011 -96.920944 -134.027969
v 185.832779 -99.943604 -133.710190
v 165.517151 -76.191582 -32.557758
v 166.222519 31.386711 -32.051350
v 181.004456 -81.611511 -87.758995
v 175.204819 -78.683311 -87.758995
v 176.876297 -76.614334 -57.505405
v 172.112595 -73.647728 -57.495220
v 167.674255 -68.157639 -39.299557
v 164.005920 -65.841026 -42.270103
v 177.201660 -91.623314 -134.087372
v 185.143265 -94.453812 -133.149704
v 182.818100 -101.973907 -134.746002
v 166.648682 -84.008804 -129.915436
v 75.229301 -85.403198 -129.969711
v 166.181152 -76.995384 -87.758995
v 75.229301 -77.575508 -87.758995
v 75.195702 -63.870094 -43.887253
v 159.322342 -63.870094 -43.887253
v 75.229301 -71.945732 -57.394382
v 164.202393 -71.945732 -57.404781
v 166.659058 -90.054436 -134.547028
v 166.659058 -103.039734 -135.794693
v 75.229301 -91.486923 -134.570282
v 75.229301 -103.130859 -135.802460
v 177.188766 -85.605873 -129.362732
v 184.412048 -88.478317 -129.323959
v 177.573914 -102.851135 -135.249741
v 169.012634 -73.595268 -35.830585
v 178.834381 -83.079407 -57.505405
v 184.737411 -88.530792 -87.758995
v 190.578720 -96.015831 -129.323959
v 0.000000 -77.124603 -87.758995
v 0.000000 -84.368881 -130.251404
v 0.000000 -63.870094 -43.887253
v 0.000000 -71.945732 -57.383953
v 0.000000 -90.491249 -134.823380
v 0.000000 -103.368309 -135.668167
v 187.424133 -99.950790 -133.658554
v 0.000000 -63.289948 -40.712593
v 75.195702 -63.289948 -40.712593
v 160.368607 -63.289948 -40.712593
v 75.195702 -64.666664 -36.933590
v 162.920929 -64.666664 -36.933590
v 0.000000 -66.169296 -34.161800
v 75.195702 -66.169296 -34.161800
v 165.992432 -66.169296 -34.161800
v -171.930038 37.421555 -31.738882
v -169.230392 37.421558 -0.209225
v -229.503311 37.421551 -86.676620
v -229.503311 37.421555 -63.382042
v -191.860855 37.421551 -86.676620
v -193.643509 37.421555 -52.421974
v -227.020798 -12.647615 -91.842957
v -191.860855 30.432722 -91.842957
v -215.904297 -18.231823 -91.842957
v -191.860855 -48.682888 -91.842957
v -193.356552 -49.283955 -105.778900
v -205.227234 -48.682888 -91.842957
v -206.720337 -49.283955 -105.778900
v -177.616257 -110.479729 -50.146164
v -153.730164 -102.914093 -0.209214
v -205.227234 -36.350811 -91.842957
v -198.283127 -36.350807 -50.146168
v -198.283127 -82.523537 -50.146164
v -182.103378 -122.594986 -137.468552
v -174.397369 -74.958199 -0.209216
v -173.105545 -87.188835 -0.209215
v -196.991638 -94.754517 -50.146164
v -206.351044 -94.733536 -137.427368
v -204.434296 -106.964203 -137.468552
v -193.183685 -103.490631 -50.146164
v -169.230392 -95.924957 -0.209215
v -186.658035 -108.732468 -50.146164
v -162.771927 -101.166801 -0.209214
v -200.060593 -115.700317 -137.468552
v -192.984665 -120.847717 -137.468552
v -234.669937 30.432726 -59.360126
v -234.669937 30.432722 -91.842957
v -234.669937 -0.490372 -59.360123
v -234.669937 -0.490375 -91.842957
v -198.929031 -29.669306 -50.311508
v -198.283127 30.432726 -50.146175
v -234.192047 -5.183357 -91.842957
v -234.207550 -5.179837 -59.243988
v -232.758362 -8.772223 -91.842957
v -232.815262 -8.758245 -58.890076
v -230.365997 -11.260278 -91.842957
v -230.495270 -11.232353 -58.303677
v -227.247940 -12.598681 -57.479713
v -208.650314 -18.336657 -52.770565
v -180.943375 -103.794624 -137.468552
v -189.683044 -100.985115 -137.468567
v -191.780731 -97.459099 -137.468567
v -186.456375 -103.032822 -137.468552
v -192.979462 -92.493385 -137.427368
v -194.304581 -52.617702 -115.646385
v -207.671280 -52.680611 -115.646385
v -194.803482 -58.603794 -124.630516
v -208.169861 -58.844875 -124.630516
v -194.857437 -67.923515 -131.315613
v -208.221558 -68.472130 -131.315613
v -207.637650 -80.175461 -135.518372
v -194.271317 -79.200470 -135.518372
v -195.673950 36.984745 -51.427353
v -171.490921 36.984749 -0.209225
v -231.763824 36.984745 -61.623055
v -231.763824 36.984741 -88.936913
v -191.860855 33.490162 -91.520065
v -234.347137 33.490162 -91.520065
v -197.123138 35.674263 -50.714386
v -173.105545 35.674267 -0.209225
v -197.991333 33.490166 -50.288219
v -174.074249 33.490170 -0.209225
v -174.397369 30.432730 -0.209224
v -233.378448 35.674263 -60.364933
v -233.378448 35.674259 -90.551384
v -234.347137 33.490166 -59.610767
v -191.860855 35.674259 -90.551384
v -191.860855 36.984741 -88.936913
v -205.893829 -29.662336 -91.842957
v -200.874222 -24.438046 -50.802147
v -207.895844 -24.413584 -91.842957
v -211.233643 -20.601068 -91.842957
v -204.113770 -20.660486 -51.623676
v -184.141571 31.830429 -57.084328
v -191.085709 31.830427 -86.384773
v -184.141571 36.373131 -57.084328
v -191.085709 36.376705 -86.622337
v -191.085709 31.599867 -87.539383
v -191.085709 35.999256 -88.678482
v -191.085709 34.933434 -90.003746
v -191.085709 33.140907 -90.791626
v -191.085709 30.037575 -87.709801
v -191.085709 30.359264 -91.070633
v -191.085709 -52.851841 -87.709793
v -191.085709 -49.311909 -91.222900
v -192.581741 -54.627056 -104.554459
v -192.581741 -50.286873 -105.548882
v -193.529770 -57.873428 -114.230919
v -193.529770 -53.599670 -115.380234
v -194.028351 -63.363407 -122.344315
v -194.028351 -59.466919 -124.209457
v -194.082626 -71.183891 -127.877434
v -194.082626 -68.496742 -130.682693
v -193.498749 -80.647041 -131.488678
v -193.498749 -79.420532 -134.771713
v -192.173325 -92.713722 -133.296860
v -192.204346 -92.427116 -136.654800
v -191.075668 -96.938316 -136.693604
v -190.964523 -96.893044 -133.335632
v -188.946671 -99.908798 -133.345840
v -189.109512 -100.167252 -136.696259
v -185.981110 -101.558044 -133.356232
v -186.087097 -101.994888 -136.696243
v -180.848068 -102.134888 -133.361343
v -180.873627 -102.634361 -136.698898
v -171.457306 31.830431 -32.513649
v -171.457306 36.373131 -32.513649
v -184.836624 37.421555 -56.743492
v -75.221878 34.143768 -36.832760
v -75.221878 34.143768 -32.304455
v -162.547379 34.143768 -36.832760
v -163.725128 34.143768 -32.304455
v -173.823822 21.126682 -32.304451
v -172.648331 21.126682 -36.832756
v -173.823822 -12.193312 -32.304451
v -172.648331 -12.193312 -36.832756
v -163.725128 -69.877045 -32.304447
v -162.547379 -67.692940 -36.832752
v -75.221878 -69.877045 -32.304447
v -75.221878 -67.692940 -36.832752
v -162.547379 -64.935913 -39.237732
v -162.547379 -54.679440 -41.521046
v -75.221878 -64.998856 -39.449356
v -75.221878 -54.679440 -42.590565
v -75.221878 31.449375 -39.449364
v -75.221878 21.126680 -42.590569
v -162.547379 21.126680 -41.521049
v -162.547379 31.383133 -39.237740
v -172.648331 -54.679440 -36.832752
v -172.648331 -58.013218 -36.832752
v -173.823822 -56.860020 -32.304447
v -173.823822 -60.197250 -32.304447
v -172.648331 24.463860 -36.832756
v -173.823822 24.463860 -32.304451
v -162.547379 -12.193312 -42.293404
v -170.607498 -12.193312 -39.222225
v -170.607498 21.126680 -39.222225
v -165.492264 34.143768 -36.832760
v -166.667770 34.143768 -32.304455
v -165.492264 -67.692940 -36.832752
v -166.667770 -69.877045 -32.304447
v -164.895462 -65.054634 -39.222221
v -164.895462 31.501856 -39.222229
v -75.221878 -12.193312 -43.631504
v -170.607498 -54.679440 -39.222221
v -170.643738 33.067455 -32.304455
v -169.468231 33.067455 -36.832760
v -171.852493 -63.391293 -36.832752
v -173.030579 -65.571785 -32.304447
v -173.030579 29.842123 -32.304455
v -171.852493 29.842123 -36.832760
v -169.468231 -66.620201 -36.832752
v -170.643738 -68.800728 -32.304447
v -170.664062 23.806978 -39.211796
v -170.170654 28.266031 -39.185890
v -168.204803 30.886932 -39.188538
v -170.664062 -57.359737 -39.211792
v -170.170654 -61.815212 -39.185883
v -168.204803 -64.439713 -39.188530
v -186.112930 -90.655235 -87.758995
v -190.946457 -57.544945 -112.683594
v -189.995804 -54.291565 -102.996735
v -170.108963 31.386711 -35.324203
v -169.406158 -76.191582 -35.830582
v -181.630646 31.386709 -57.484798
v -180.390518 -85.679024 -57.505405
v -184.141571 34.182121 -56.875137
v -171.457306 34.182121 -32.304455
v -191.085709 34.182117 -86.340889
v -188.502380 30.757721 -87.294060
v -191.085709 33.839745 -88.110275
v -191.085709 33.098919 -89.024673
v -191.085709 31.861923 -89.572266
v -191.085709 29.468246 -89.825584
v -188.502380 -52.593239 -87.758995
v -191.085709 -50.507034 -89.825584
v -192.581741 -51.621761 -103.609039
v -193.529770 -54.913612 -113.393883
v -191.444992 -63.066299 -120.853951
v -194.142075 -60.679508 -121.995735
v -191.499283 -70.977951 -126.640144
v -194.144653 -70.485054 -128.763474
v -190.915405 -80.545723 -130.473465
v -193.627975 -80.458466 -132.475327
v -189.605499 -92.346741 -132.297150
v -192.196564 -92.685532 -134.337784
v -187.510422 -97.172485 -132.020782
v -191.070541 -96.920944 -134.027969
v -189.117264 -99.943604 -133.710190
v -169.506958 31.386711 -32.051350
v -168.801636 -76.191582 -32.557758
v -175.397095 -73.647728 -57.495220
v -178.489304 -78.683311 -87.758995
v -180.160797 -76.614334 -57.505405
v -184.288940 -81.611511 -87.758995
v -170.958740 -68.157639 -39.299557
v -167.290405 -65.841026 -42.270103
v -188.427414 -94.453812 -133.149704
v -180.486206 -91.623314 -134.087372
v -186.102600 -101.973907 -134.746002
v -75.229301 -85.403198 -129.969711
v -75.229301 -77.575508 -87.758995
v -169.465652 -76.995384 -87.758995
v -169.933197 -84.008804 -129.915436
v -167.486526 -71.945732 -57.404781
v -162.606506 -63.870094 -43.887253
v -75.229301 -71.945732 -57.394382
v -75.195702 -63.870094 -43.887253
v -169.943497 -90.054436 -134.547028
v -75.229301 -91.486923 -134.570282
v -169.943497 -103.039734 -135.794693
v -75.229301 -103.130859 -135.802460
v -180.473267 -85.605873 -129.362732
v -187.696533 -88.478317 -129.323959
v -180.858109 -102.851135 -135.249741
v -182.118881 -83.079407 -57.505405
v -172.296783 -73.595268 -35.830585
v -193.862915 -96.015831 -129.323959
v -188.021896 -88.530792 -87.758995
v -190.708618 -99.950790 -133.658554
v -75.195702 -63.289948 -40.712593
v -163.653091 -63.289948 -40.712593
v -75.195702 -64.666664 -36.933590
v -166.205368 -64.666664 -36.933590
v -75.195702 -66.169296 -34.161800
v -169.276947 -66.169296 -34.161800
vn -0.0000 0.4561 0.8899
vn 0.0598 0.8451 0.5313
vn -0.0000 0.8583 -0.5131
vn -0.1653 0.9497 -0.2660
vn 0.0766 0.9941 -0.0766
vn -0.4463 0.8881 -0.1101
vn 0.0645 0.9940 0.0886
vn 0.0422 0.9975 0.0571
vn -0.1481 0.0249 -0.9887
vn 0.3382 -0.7596 -0.5556
vn 0.3426 -0.7759 -0.5298
vn -0.4690 0.3859 -0.7944
vn 0.8244 0.5365 -0.1803
vn -0.4476 0.8725 -0.1960
vn 0.5783 0.8046 -0.1349
vn 0.0661 -0.9839 0.1662
vn 0.0049 -0.6467 0.7627
vn -0.0000 -0.9893 0.1460
vn -0.0000 -0.6520 0.7582
vn 0.8890 -0.0569 -0.4543
vn 0.9062 -0.0139 0.4226
vn 0.9761 -0.0695 0.2059
vn -0.0000 -0.7545 -0.6563
vn 0.0880 -0.7497 -0.6559
vn 0.9407 -0.2267 0.2523
vn 0.5757 -0.1528 0.8033
vn 0.6321 -0.0221 0.7746
vn 0.7437 -0.0550 -0.6662
vn 0.7032 -0.2507 -0.6653
vn 0.3957 -0.3600 0.8449
vn 0.7984 -0.5259 0.2933
vn 0.1674 -0.5634 0.8090
vn 0.4267 -0.8727 0.2372
vn 0.5395 -0.5206 -0.6617
vn 0.2876 -0.6918 -0.6623
vn 0.7057 -0.0358 -0.7076
vn 0.8309 0.0583 -0.5534
vn 0.9170 -0.0409 0.3967
vn 0.8713 0.0789 0.4843
vn 0.8071 -0.1240 0.5773
vn 0.4005 0.0265 0.9159
vn 0.8143 -0.1592 -0.5582
vn 0.8462 -0.2104 0.4896
vn 0.7240 -0.4002 -0.5618
vn 0.7412 -0.4489 0.4990
vn 0.5150 -0.6464 -0.5629
vn 0.5301 -0.6736 0.5151
vn 0.4326 -0.7318 0.5267
vn 0.4440 -0.7018 0.5570
vn -0.0234 0.3997 -0.9163
vn -0.0000 0.5322 -0.8466
vn -0.3201 0.1530 -0.9349
vn -0.2096 0.2382 -0.9483
vn -0.0684 0.1863 -0.9801
vn -0.3628 0.1426 -0.9209
vn -0.4338 0.8000 -0.4145
vn 0.5888 0.7244 -0.3585
vn -0.3287 0.6976 -0.6367
vn 0.6014 0.5421 -0.5868
vn -0.4471 0.4445 -0.7762
vn 0.6014 0.3229 -0.7308
vn -0.3730 0.2618 -0.8901
vn 0.5961 0.1221 -0.7936
vn 0.2228 0.9325 0.2842
vn 0.2946 0.5402 0.7883
vn 0.2580 0.9261 0.2752
vn 0.2652 0.9270 -0.2652
vn 0.6773 0.2872 -0.6773
vn -0.3906 0.2830 -0.8760
vn 0.4750 0.6571 0.5853
vn 0.4619 0.3097 0.8311
vn 0.6048 0.3014 0.7371
vn 0.5225 0.1135 0.8450
vn 0.7623 0.0268 0.6467
vn 0.5568 0.6784 0.4793
vn 0.5222 0.6743 -0.5222
vn 0.7432 0.3139 0.5909
vn -0.3313 0.6119 -0.7182
vn -0.4405 0.8200 -0.3655
vn 0.7318 -0.2017 -0.6510
vn 0.7527 -0.3175 0.5768
vn 0.7310 -0.4905 -0.4745
vn 0.6185 -0.5401 0.5707
vn 0.4907 -0.7123 -0.5019
vn -0.9054 0.3077 -0.2926
vn -0.9635 0.2437 -0.1104
vn -0.9881 -0.0040 -0.1541
vn -0.9228 -0.0000 -0.3852
vn -0.9249 0.3565 -0.1323
vn -1.0000 -0.0000 -0.0000
vn -0.8864 0.2779 -0.3701
vn -0.8922 0.0916 -0.4422
vn -0.9169 0.0131 -0.3989
vn -0.9984 -0.0398 -0.0401
vn -0.9733 0.1140 -0.1990
vn -0.9372 0.3202 -0.1381
vn -0.9950 -0.0411 -0.0909
vn -0.9425 0.2737 -0.1918
vn -0.9969 -0.0195 -0.0768
vn -0.8873 0.3136 -0.3381
vn -0.9996 -0.0103 -0.0260
vn -0.9703 0.1337 -0.2015
vn -0.9996 0.0205 0.0196
vn -0.9224 0.1752 -0.3441
vn -0.9973 0.0651 0.0331
vn -0.8740 0.1850 -0.4494
vn -0.9834 0.1815 0.0036
vn -0.8622 0.3562 -0.3602
vn -0.9061 0.4215 -0.0357
vn -0.6066 0.6342 -0.4794
vn -0.7422 0.6664 -0.0709
vn -0.2396 0.7814 -0.5762
vn -0.3763 0.9188 -0.1190
vn -0.0423 0.8648 -0.5004
vn -0.0772 0.9867 -0.1429
vn -0.0000 0.8272 -0.5619
vn -0.0000 0.9674 -0.2534
vn -0.5495 0.3701 -0.7490
vn -0.0000 0.1297 -0.9916
vn -0.3399 -0.0000 -0.9405
vn -0.0000 -0.0000 -1.0000
vn -0.4965 0.8431 -0.2065
vn -0.0000 0.8850 -0.4656
vn -0.0025 0.9991 0.0418
vn -0.0040 0.8864 -0.4629
vn -0.0000 1.0000 -0.0000
vn 0.8646 -0.0000 -0.5025
vn 0.8878 -0.0026 -0.4603
vn 0.9679 -0.0000 -0.2513
vn -0.0045 -0.7824 -0.6227
vn -0.0044 -0.7971 -0.6039
vn -0.0000 -0.9007 -0.4344
vn 0.0069 -0.1583 -0.9874
vn 0.1436 -0.1147 -0.9830
vn 0.0006 -0.5474 -0.8369
vn -0.0057 -0.5054 -0.8629
vn 0.0025 0.4617 -0.8871
vn 0.0082 0.1347 -0.9908
vn 0.1436 0.1157 -0.9829
vn -0.0071 0.4509 -0.8926
vn 0.8720 0.0020 -0.4896
vn 0.8825 -0.0582 -0.4668
vn 0.9519 -0.0929 -0.2920
vn 0.9009 0.0710 -0.4282
vn 0.9655 0.0705 -0.2506
vn 0.1300 0.0028 -0.9915
vn 0.5251 0.0009 -0.8510
vn 0.5901 -0.0041 -0.8073
vn 0.1041 0.9036 -0.4155
vn 0.1753 0.9835 -0.0455
vn -0.0000 0.9796 -0.2011
vn -0.0000 -0.4489 -0.8936
vn -0.0000 -0.8450 -0.5348
vn 0.0919 -0.7913 -0.6045
vn 0.1544 -0.8737 -0.4613
vn -0.0000 -0.5387 -0.8425
vn -0.0000 -0.1143 -0.9934
vn 0.0297 -0.4963 -0.8676
vn 0.0297 0.4960 -0.8678
vn -0.0000 0.5758 -0.8176
vn -0.0000 0.1626 -0.9867
vn 0.0052 0.0034 -1.0000
vn -0.0000 0.0034 -1.0000
vn 0.5405 0.0041 -0.8413
vn 0.4577 0.7990 -0.3900
vn 0.6439 0.7466 -0.1673
vn 0.7851 -0.3087 -0.5369
vn 0.8141 -0.4115 -0.4098
vn 0.7846 0.4009 -0.4731
vn 0.9245 0.2960 -0.2403
vn 0.4659 -0.6774 -0.5692
vn 0.4974 -0.7241 -0.4778
vn 0.5888 0.0222 -0.8080
vn 0.5358 0.1683 -0.8274
vn 0.2956 0.4414 -0.8472
vn 0.5888 -0.0222 -0.8080
vn 0.5359 -0.1682 -0.8274
vn 0.2957 -0.4414 -0.8472
vn -0.0000 0.9860 0.1668
vn -0.8729 0.4145 -0.2573
vn -0.9870 0.1165 -0.1109
vn -0.8756 0.4535 -0.1665
vn -0.8558 0.4104 -0.3150
vn -0.8965 0.3064 -0.3200
vn -0.9463 0.0081 -0.3233
vn -0.9530 0.0273 -0.3019
vn -0.6784 0.6777 -0.2839
vn -0.7420 0.6236 -0.2460
vn -0.7505 0.6414 -0.1589
vn -0.8057 0.2881 -0.5175
vn -0.7717 0.5748 -0.2723
vn -0.7337 0.4082 -0.5431
vn -0.6932 0.1845 -0.6967
vn -0.6894 0.0388 -0.7234
vn -0.9400 0.1525 -0.3052
vn -0.7730 0.3908 -0.4997
vn -0.7249 0.6480 -0.2337
vn -0.7069 0.5946 -0.3832
vn -0.8582 0.3672 -0.3588
vn -0.6560 0.4934 -0.5712
vn -0.6044 0.3628 -0.7093
vn -0.8333 0.2972 -0.4661
vn -0.8189 0.2260 -0.5275
vn -0.5844 0.2297 -0.7783
vn -0.7603 0.2107 -0.6145
vn -0.6002 0.1461 -0.7864
vn -0.6982 0.2890 -0.6550
vn -0.5318 0.1664 -0.8304
vn -0.4903 0.2284 -0.8411
vn -0.9833 0.0073 -0.1816
vn -0.9640 0.1977 -0.1776
vn 0.7104 0.7032 -0.0307
vn 0.3281 0.9360 -0.1278
vn 0.7678 0.6376 0.0620
vn 0.3783 0.9109 -0.1650
vn 0.7077 0.7065 0.0006
vn 0.4783 0.8531 -0.2086
vn 0.1494 0.3283 -0.9327
vn 0.3789 0.3457 -0.8584
vn 0.1363 0.1389 -0.9809
vn 0.0960 0.8914 -0.4430
vn 0.0004 0.8529 -0.5221
vn 0.0910 0.9827 -0.1611
vn -0.0002 0.9839 -0.1788
vn -0.0000 0.9360 -0.3521
vn 0.1585 0.9239 -0.3484
vn 0.0010 0.9364 -0.3510
vn 0.1457 0.9457 -0.2905
vn 0.0512 0.4527 -0.8902
vn 0.0261 0.1003 -0.9946
vn 0.0004 0.2722 -0.9622
vn -0.0011 0.1052 -0.9944
vn 0.2651 0.8289 -0.4926
vn 0.5869 0.6827 -0.4353
vn 0.0629 0.1048 -0.9925
vn 0.9100 0.3348 0.2446
vn 0.9239 0.3497 0.1553
vn 0.8478 0.5297 0.0249
vn 0.7036 0.5127 -0.4920
vn -0.0000 0.9846 -0.1750
vn -0.0000 0.8532 -0.5216
vn -0.0000 0.9359 -0.3523
vn -0.0000 0.9146 -0.4044
vn -0.0000 0.4385 -0.8987
vn -0.0000 0.0853 -0.9964
vn 0.3974 0.2467 -0.8839
vn -0.0000 0.9878 0.1560
vn -0.0000 0.9995 0.0301
vn 0.2173 0.9757 0.0282
vn -0.0052 0.9270 0.3750
vn -0.0001 -0.4489 -0.8936
vn 0.3001 0.9361 0.1835
vn -0.0000 0.9698 0.2440
vn -0.0000 0.8791 0.4766
vn 0.5701 0.7978 0.1962
vn 0.1651 0.9498 -0.2658
vn -0.0599 0.8451 0.5313
vn -0.0766 0.9941 -0.0766
vn -0.0645 0.9940 0.0886
vn 0.4462 0.8881 -0.1101
vn -0.0422 0.9975 0.0571
vn -0.3382 -0.7595 -0.5556
vn 0.1481 0.0249 -0.9887
vn -0.3426 -0.7758 -0.5298
vn 0.4689 0.3859 -0.7945
vn 0.4476 0.8725 -0.1960
vn -0.8244 0.5365 -0.1803
vn -0.5784 0.8045 -0.1348
vn -0.0934 -0.9804 0.1736
vn -0.0402 -0.6382 0.7688
vn -0.8890 -0.0569 -0.4543
vn -0.9062 -0.0139 0.4226
vn -0.9761 -0.0695 0.2059
vn -0.0880 -0.7497 -0.6559
vn -0.6321 -0.0221 0.7746
vn -0.5757 -0.1528 0.8033
vn -0.9407 -0.2267 0.2523
vn -0.7437 -0.0550 -0.6662
vn -0.7032 -0.2507 -0.6653
vn -0.7984 -0.5259 0.2933
vn -0.3957 -0.3600 0.8449
vn -0.4266 -0.8727 0.2373
vn -0.1997 -0.5519 0.8097
vn -0.5395 -0.5206 -0.6617
vn -0.2876 -0.6918 -0.6623
vn -0.8713 0.0788 0.4843
vn -0.8309 0.0583 -0.5534
vn -0.9170 -0.0409 0.3967
vn -0.7057 -0.0358 -0.7076
vn -0.8071 -0.1240 0.5773
vn -0.4005 0.0265 0.9159
vn -0.8143 -0.1592 -0.5582
vn -0.8462 -0.2103 0.4896
vn -0.7241 -0.4002 -0.5618
vn -0.7412 -0.4489 0.4990
vn -0.5150 -0.6464 -0.5630
vn -0.5301 -0.6735 0.5151
vn -0.4326 -0.7318 0.5267
vn -0.4440 -0.7018 0.5570
vn 0.0234 0.3997 -0.9163
vn 0.2095 0.2382 -0.9483
vn 0.3197 0.1528 -0.9351
vn 0.0684 0.1863 -0.9801
vn 0.3625 0.1425 -0.9210
vn 0.4339 0.8000 -0.4145
vn -0.5888 0.7244 -0.3585
vn 0.3287 0.6976 -0.6366
vn -0.6014 0.5421 -0.5868
vn 0.4471 0.4445 -0.7762
vn -0.6014 0.3229 -0.7308
vn -0.5961 0.1221 -0.7936
vn 0.3730 0.2618 -0.8901
vn -0.2228 0.9325 0.2842
vn -0.2946 0.5402 0.7883
vn -0.2580 0.9261 0.2752
vn -0.2652 0.9270 -0.2652
vn 0.3905 0.2830 -0.8760
vn -0.6773 0.2872 -0.6773
vn -0.4750 0.6571 0.5853
vn -0.4619 0.3097 0.8311
vn -0.6048 0.3014 0.7371
vn -0.5225 0.1135 0.8450
vn -0.7623 0.0268 0.6467
vn -0.5568 0.6785 0.4792
vn -0.5222 0.6743 -0.5222
vn -0.7432 0.3138 0.5909
vn 0.3313 0.6119 -0.7182
vn 0.4405 0.8200 -0.3655
vn -0.7318 -0.2017 -0.6510
vn -0.7527 -0.3175 0.5768
vn -0.7310 -0.4905 -0.4745
vn -0.4907 -0.7123 -0.5019
vn -0.6185 -0.5401 0.5707
vn 0.9228 -0.0000 -0.3852
vn 0.9881 -0.0040 -0.1541
vn 0.9054 0.3078 -0.2926
vn 0.9635 0.2438 -0.1104
vn 1.0000 -0.0000 -0.0000
vn 0.9248 0.3566 -0.1323
vn 0.8864 0.2780 -0.3702
vn 0.8922 0.0916 -0.4423
vn 0.9169 0.0131 -0.3989
vn 0.9984 -0.0397 -0.0400
vn 0.9733 0.1140 -0.1990
vn 0.9950 -0.0412 -0.0909
vn 0.9372 0.3202 -0.1381
vn 0.9969 -0.0195 -0.0768
vn 0.9425 0.2737 -0.1918
vn 0.9996 -0.0103 -0.0260
vn 0.8874 0.3136 -0.3380
vn 0.9996 0.0205 0.0196
vn 0.9703 0.1336 -0.2015
vn 0.9973 0.0652 0.0331
vn 0.9224 0.1752 -0.3441
vn 0.9834 0.1815 0.0036
vn 0.8739 0.1850 -0.4494
vn 0.8621 0.3560 -0.3606
vn 0.9060 0.4218 -0.0357
vn 0.7422 0.6664 -0.0709
vn 0.6064 0.6342 -0.4797
vn 0.3763 0.9188 -0.1190
vn 0.2396 0.7814 -0.5762
vn 0.0772 0.9867 -0.1429
vn 0.0423 0.8648 -0.5004
vn 0.3399 -0.0000 -0.9405
vn 0.5494 0.3703 -0.7490
vn 0.4962 0.8433 -0.2064
vn 0.0025 0.9991 0.0418
vn 0.0040 0.8864 -0.4629
vn -0.9679 -0.0000 -0.2513
vn -0.8877 -0.0024 -0.4604
vn -0.8646 -0.0000 -0.5025
vn 0.0043 -0.7971 -0.6039
vn 0.0045 -0.7824 -0.6227
vn 0.0058 -0.5053 -0.8629
vn -0.1435 -0.1147 -0.9830
vn -0.0005 -0.5473 -0.8369
vn -0.0066 -0.1588 -0.9873
vn -0.0024 0.4617 -0.8870
vn -0.0079 0.1347 -0.9909
vn -0.1435 0.1157 -0.9829
vn 0.0072 0.4510 -0.8925
vn -0.8719 0.0020 -0.4896
vn -0.8825 -0.0581 -0.4668
vn -0.9519 -0.0929 -0.2920
vn -0.9009 0.0710 -0.4282
vn -0.9655 0.0710 -0.2506
vn -0.1297 0.0028 -0.9915
vn -0.5251 0.0009 -0.8511
vn -0.5901 -0.0032 -0.8074
vn -0.1041 0.9036 -0.4155
vn -0.1753 0.9835 -0.0455
vn -0.0919 -0.7914 -0.6044
vn -0.1544 -0.8737 -0.4613
vn -0.0297 -0.4963 -0.8676
vn -0.0297 0.4960 -0.8678
vn -0.0050 0.0034 -1.0000
vn -0.5403 0.0041 -0.8414
vn -0.6439 0.7466 -0.1673
vn -0.4577 0.7990 -0.3900
vn -0.7851 -0.3087 -0.5370
vn -0.8141 -0.4115 -0.4098
vn -0.9245 0.2960 -0.2403
vn -0.7846 0.4008 -0.4731
vn -0.4659 -0.6774 -0.5692
vn -0.4974 -0.7241 -0.4778
vn -0.5888 0.0222 -0.8080
vn -0.5358 0.1682 -0.8274
vn -0.2956 0.4414 -0.8472
vn -0.5888 -0.0222 -0.8080
vn -0.5358 -0.1682 -0.8274
vn -0.2957 -0.4414 -0.8472
vn 0.9870 0.1165 -0.1109
vn 0.8729 0.4145 -0.2573
vn 0.8756 0.4535 -0.1665
vn 0.8558 0.4103 -0.3150
vn 0.9463 0.0081 -0.3232
vn 0.8965 0.3063 -0.3200
vn 0.9529 0.0273 -0.3019
vn 0.6784 0.6776 -0.2839
vn 0.7420 0.6236 -0.2459
vn 0.7506 0.6414 -0.1589
vn 0.8057 0.2881 -0.5175
vn 0.7717 0.5747 -0.2723
vn 0.7338 0.4082 -0.5431
vn 0.6933 0.1845 -0.6967
vn 0.6895 0.0387 -0.7233
vn 0.9400 0.1525 -0.3052
vn 0.7731 0.3908 -0.4997
vn 0.7250 0.6479 -0.2337
vn 0.7069 0.5946 -0.3832
vn 0.8582 0.3672 -0.3588
vn 0.6560 0.4934 -0.5712
vn 0.8333 0.2972 -0.4661
vn 0.6044 0.3628 -0.7093
vn 0.8189 0.2260 -0.5275
vn 0.5844 0.2297 -0.7783
vn 0.7603 0.2107 -0.6145
vn 0.6001 0.1470 -0.7863
vn 0.6981 0.2890 -0.6550
vn 0.5319 0.1663 -0.8303
vn 0.4903 0.2284 -0.8411
vn 0.9640 0.1977 -0.1776
vn 0.9833 0.0073 -0.1816
vn -0.3783 0.9109 -0.1650
vn -0.3281 0.9360 -0.1278
vn -0.7678 0.6376 0.0620
vn -0.7104 0.7032 -0.0307
vn -0.7077 0.7065 0.0006
vn -0.4783 0.8530 -0.2087
vn -0.3789 0.3457 -0.8585
vn -0.1494 0.3283 -0.9327
vn -0.1363 0.1389 -0.9809
vn -0.0005 0.8530 -0.5220
vn -0.0000 0.9839 -0.1789
vn -0.0909 0.9828 -0.1610
vn -0.0962 0.8914 -0.4430
vn -0.1457 0.9457 -0.2905
vn -0.1584 0.9239 -0.3484
vn -0.0010 0.9364 -0.3510
vn -0.0513 0.4528 -0.8901
vn -0.0004 0.2722 -0.9622
vn -0.0261 0.1003 -0.9946
vn 0.0011 0.1052 -0.9944
vn -0.2651 0.8289 -0.4926
vn -0.5869 0.6827 -0.4353
vn -0.0634 0.1048 -0.9925
vn -0.9239 0.3496 0.1553
vn -0.9100 0.3348 0.2446
vn -0.7036 0.5127 -0.4920
vn -0.8478 0.5297 0.0249
vn -0.3974 0.2467 -0.8838
vn -0.0000 0.9995 0.0300
vn -0.2173 0.9757 0.0282
vn 0.0052 0.9270 0.3750
vn -0.3000 0.9361 0.1835
vn -0.5701 0.7978 0.1962
vt 0.230378 0.695038
vt 0.015619 0.695038
vt 0.230378 0.843417
vt 0.011714 0.843417
vt 0.308472 0.812180
vt 0.406090 0.847322
vt 0.316281 0.706752
vt 0.402185 0.687229
vt 0.714562 0.378757
vt 0.655991 0.195236
vt 0.648182 0.273330
vt 0.011714 0.917607
vt 0.011714 0.987892
vt 0.062475 0.917607
vt 0.062475 0.987892
vt 0.238187 0.238187
vt 0.187426 0.011714
vt 0.007809 0.238187
vt 0.007809 0.011714
vt 0.421709 0.421709
vt 0.421709 0.238187
vt 0.402185 0.421709
vt 0.343614 0.238187
vt 0.007809 0.624754
vt 0.238187 0.624754
vt 0.292853 0.238187
vt 0.312377 0.238187
vt 0.242092 0.011714
vt 0.261616 0.011714
vt 0.312377 0.624754
vt 0.292853 0.624754
vt 0.226473 0.011714
vt 0.277234 0.238187
vt 0.206950 0.011714
vt 0.257711 0.238187
vt 0.277234 0.624754
vt 0.257711 0.624754
vt 0.531040 0.987892
vt 0.605230 0.987892
vt 0.531040 0.796561
vt 0.620849 0.796561
vt 0.531040 0.421709
vt 0.581802 0.421709
vt 0.531040 0.281139
vt 0.581802 0.281139
vt 0.675515 0.011714
vt 0.663801 0.015619
vt 0.558374 0.011714
vt 0.523231 0.421709
vt 0.523231 0.277234
vt 0.519326 0.421709
vt 0.519326 0.277234
vt 0.511517 0.421709
vt 0.511517 0.273330
vt 0.503708 0.421709
vt 0.503708 0.269425
vt 0.460756 0.421709
vt 0.460756 0.249901
vt 0.206950 0.987892
vt 0.476375 0.987892
vt 0.206950 0.917607
vt 0.476375 0.917607
vt 0.167902 0.917607
vt 0.167902 0.987892
vt 0.179617 0.917607
vt 0.179617 0.987892
vt 0.191331 0.917607
vt 0.191331 0.987892
vt 0.152284 0.917607
vt 0.152284 0.987892
vt 0.081999 0.917607
vt 0.081999 0.987892
vt 0.101522 0.917607
vt 0.101522 0.987892
vt 0.117141 0.917607
vt 0.117141 0.987892
vt 0.132760 0.917607
vt 0.132760 0.987892
vt 0.398280 0.683324
vt 0.456851 0.449042
vt 0.452946 0.445137
vt 0.312377 0.695038
vt 0.300663 0.819989
vt 0.288949 0.831703
vt 0.398280 0.886369
vt 0.292853 0.827798
vt 0.402185 0.874655
vt 0.394376 0.679420
vt 0.449042 0.445137
vt 0.390471 0.675515
vt 0.445137 0.441232
vt 0.386566 0.667705
vt 0.441232 0.433423
vt 0.308472 0.691134
vt 0.296758 0.823894
vt 0.308472 0.683324
vt 0.304567 0.679420
vt 0.402185 0.866846
vt 0.406090 0.859036
vt 0.433423 0.238187
vt 0.433423 0.421709
vt 0.441232 0.238187
vt 0.441232 0.421709
vt 0.452946 0.242092
vt 0.452946 0.421709
vt 0.531040 0.007809
vt 0.531040 0.238187
vt 0.605230 0.312377
vt 0.605230 0.378757
vt 0.620849 0.316281
vt 0.644277 0.292853
vt 0.421709 0.714562
vt 0.406090 0.851227
vt 0.413899 0.851227
vt 0.429518 0.718467
vt 0.413899 0.859036
vt 0.409995 0.866846
vt 0.409995 0.870750
vt 0.413899 0.874655
vt 0.417804 0.859036
vt 0.597421 0.398280
vt 0.714562 0.398280
vt 0.601325 0.382662
vt 0.714562 0.382662
vt 0.062475 0.913702
vt 0.011714 0.913702
vt 0.062475 0.898083
vt 0.007809 0.898083
vt 0.081999 0.913702
vt 0.081999 0.898083
vt 0.101522 0.913702
vt 0.101522 0.898083
vt 0.117141 0.913702
vt 0.117141 0.898083
vt 0.132760 0.913702
vt 0.132760 0.898083
vt 0.152284 0.913702
vt 0.152284 0.898083
vt 0.167902 0.913702
vt 0.167902 0.898083
vt 0.179617 0.913702
vt 0.179617 0.898083
vt 0.191331 0.913702
vt 0.191331 0.898083
vt 0.206950 0.913702
vt 0.206950 0.898083
vt 0.476375 0.913702
vt 0.476375 0.898083
vt 0.011714 0.847322
vt 0.230378 0.847322
vt 0.011714 0.862941
vt 0.230378 0.862941
vt 0.452946 0.597421
vt 0.452946 0.609135
vt 0.417804 0.710657
vt 0.449042 0.593516
vt 0.409995 0.874655
vt 0.413899 0.878560
vt 0.406090 0.866846
vt 0.386566 0.511517
vt 0.382662 0.550564
vt 0.347519 0.620849
vt 0.363138 0.605230
vt 0.324091 0.624754
vt 0.374852 0.585706
vt 0.652087 0.027333
vt 0.648182 0.042952
vt 0.644277 0.066380
vt 0.632563 0.156188
vt 0.632563 0.171807
vt 0.628658 0.183521
vt 0.620849 0.191331
vt 0.613039 0.195236
vt 0.558374 0.195236
vt 0.632563 0.312377
vt 0.636468 0.304567
vt 0.655991 0.179617
vt 0.659896 0.167902
vt 0.663801 0.163998
vt 0.671610 0.163998
vt 0.714562 0.163998
vt 0.624754 0.796561
vt 0.613039 0.987892
vt 0.620849 0.980082
vt 0.624754 0.968368
vt 0.624754 0.800466
vt 0.624754 0.952749
vt 0.624754 0.804370
vt 0.359233 0.007809
vt 0.878560 0.605230
vt 0.878560 0.585706
vt 0.777037 0.609135
vt 0.773133 0.585706
vt 0.749704 0.769228
vt 0.753609 0.655991
vt 0.741895 0.769228
vt 0.741895 0.652087
vt 0.878560 0.968368
vt 0.777037 0.964463
vt 0.878560 0.991796
vt 0.773133 0.987892
vt 0.878560 0.913702
vt 0.780942 0.913702
vt 0.878560 0.952749
vt 0.777037 0.952749
vt 0.878560 0.620849
vt 0.878560 0.655991
vt 0.780942 0.659896
vt 0.777037 0.620849
vt 0.753609 0.917607
vt 0.741895 0.925416
vt 0.753609 0.929321
vt 0.741895 0.937130
vt 0.753609 0.644277
vt 0.741895 0.636468
vt 0.780942 0.769228
vt 0.757514 0.769228
vt 0.757514 0.655991
vt 0.769228 0.609135
vt 0.765323 0.589611
vt 0.995701 0.605230
vt 0.995701 0.968368
vt 0.995701 0.991796
vt 0.769228 0.964463
vt 0.765323 0.983987
vt 0.995701 0.952749
vt 0.995701 0.913702
vt 0.773133 0.948845
vt 0.773133 0.620849
vt 0.995701 0.620849
vt 0.995701 0.655991
vt 0.878560 0.769228
vt 0.995701 0.769228
vt 0.761419 0.913702
vt 0.761419 0.616944
vt 0.753609 0.601325
vt 0.753609 0.944940
vt 0.745800 0.960559
vt 0.757514 0.624754
vt 0.745800 0.616944
vt 0.761419 0.956654
vt 0.753609 0.976178
vt 0.761419 0.648182
vt 0.761419 0.632563
vt 0.765323 0.624754
vt 0.761419 0.925416
vt 0.761419 0.937130
vt 0.765323 0.948845
vt 0.995701 0.581802
vt 0.663801 0.890274
vt 0.722371 0.753609
vt 0.659896 0.847322
vt 0.499803 0.484184
vt 0.499803 0.605230
vt 0.695038 0.484184
vt 0.714562 0.605230
vt 0.491993 0.605230
vt 0.491993 0.472470
vt 0.491993 0.749704
vt 0.503708 0.745800
vt 0.495898 0.761419
vt 0.495898 0.765323
vt 0.499803 0.769228
vt 0.503708 0.769228
vt 0.652087 0.749704
vt 0.648182 0.769228
vt 0.652087 0.855132
vt 0.655991 0.901988
vt 0.675515 0.929321
vt 0.667705 0.937130
vt 0.683324 0.968368
vt 0.691134 0.952749
vt 0.706752 0.964463
vt 0.706752 0.980082
vt 0.726276 0.972273
vt 0.726276 0.987892
vt 0.734086 0.972273
vt 0.734086 0.987892
vt 0.737990 0.983987
vt 0.695038 0.468565
vt 0.499803 0.464660
vt 0.741895 0.285044
vt 0.753609 0.281139
vt 0.741895 0.136665
vt 0.753609 0.136665
vt 0.765323 0.046857
vt 0.773133 0.058571
vt 0.753609 0.511517
vt 0.737990 0.511517
vt 0.737990 0.542755
vt 0.773133 0.484184
vt 0.878560 0.488089
vt 0.773133 0.281139
vt 0.878560 0.281139
vt 0.878560 0.062475
vt 0.784847 0.062475
vt 0.878560 0.132760
vt 0.773133 0.132760
vt 0.773133 0.515422
vt 0.769228 0.558374
vt 0.878560 0.519326
vt 0.878560 0.562278
vt 0.753609 0.484184
vt 0.745800 0.484184
vt 0.749704 0.550564
vt 0.753609 0.031238
vt 0.730181 0.140570
vt 0.730181 0.288949
vt 0.734086 0.491993
vt 0.995701 0.281139
vt 0.995701 0.484184
vt 0.995701 0.062475
vt 0.995701 0.132760
vt 0.995701 0.515422
vt 0.995701 0.562278
vt 0.730181 0.523231
vt 0.995701 0.046857
vt 0.878560 0.046857
vt 0.780942 0.046857
vt 0.878560 0.027333
vt 0.995701 0.027333
vt 0.777037 0.031238
vt 0.995701 0.011714
vt 0.878560 0.015619
vt 0.769228 0.019524
s 1
usemtl ..\..\..\Desktop\General\noesis\roomiteml_002_sofa.001
f 1/1/1 2/2/2 3/3/3
f 3/3/3 2/2/2 4/4/4
f 5/5/5 6/6/6 7/7/7
f 7/7/7 6/6/6 8/8/8
f 9/9/9 10/10/10 11/11/11
f 12/12/12 13/13/13 14/14/14
f 14/14/14 13/13/13 15/15/15
f 16/16/16 17/17/17 18/18/18
f 18/18/18 17/17/17 19/19/19
f 20/20/20 21/21/21 13/22/13
f 13/22/13 21/21/21 22/23/22
f 23/24/23 16/16/16 18/18/18
f 24/25/24 16/16/16 23/24/23
f 25/26/25 22/27/22 26/28/26
f 26/28/26 22/27/22 27/29/27
f 22/27/22 25/26/25 28/30/28
f 28/30/28 25/26/25 29/31/29
f 30/32/30 31/33/31 26/28/26
f 26/28/26 31/33/31 25/26/25
f 25/26/25 31/33/31 29/31/29
f 17/17/17 16/16/16 32/34/32
f 32/34/32 33/35/33 30/32/30
f 30/32/30 33/35/33 31/33/31
f 24/25/24 33/35/33 16/16/16
f 33/35/33 32/34/32 16/16/16
f 31/33/31 33/35/33 34/36/34
f 29/31/29 31/33/31 34/36/34
f 35/37/35 33/35/33 24/25/24
f 34/36/34 33/35/33 35/37/35
f 19/38/19 17/39/17 1/40/1
f 1/40/1 17/39/17 2/41/2
f 36/42/36 37/43/37 38/44/38
f 38/44/38 37/43/37 39/45/39
f 21/46/21 40/47/40 41/48/41
f 36/42/36 38/44/38 42/49/42
f 42/49/42 38/44/38 43/50/43
f 42/49/42 43/50/43 44/51/44
f 44/51/44 43/50/43 45/52/45
f 44/51/44 45/52/45 46/53/46
f 46/53/46 45/52/45 47/54/47
f 46/53/46 47/54/47 10/55/10
f 10/55/10 47/54/47 48/56/48
f 10/55/10 48/56/48 11/57/11
f 11/57/11 48/56/48 49/58/49
f 24/59/24 23/60/23 50/61/50
f 50/61/50 23/60/23 51/62/51
f 52/63/52 29/64/29 53/65/53
f 53/65/53 29/64/29 34/66/34
f 34/66/34 54/67/54 53/65/53
f 54/67/54 24/59/24 50/61/50
f 35/68/35 24/59/24 54/67/54
f 35/68/35 54/67/54 34/66/34
f 55/69/55 28/70/28 52/63/52
f 52/63/52 28/70/28 29/64/29
f 14/14/14 15/15/15 56/71/56
f 56/71/56 15/15/15 57/72/57
f 56/71/56 57/72/57 58/73/58
f 58/73/58 57/72/57 59/74/59
f 58/73/58 59/74/59 60/75/60
f 60/75/60 59/74/59 61/76/61
f 60/75/60 61/76/61 62/77/62
f 28/70/28 55/69/55 63/78/63
f 63/78/63 55/69/55 62/77/62
f 62/77/62 61/76/61 63/78/63
f 8/8/8 64/79/64 7/7/7
f 8/8/8 2/80/2 64/79/64
f 64/79/64 2/80/2 65/81/65
f 7/7/7 66/82/66 5/5/5
f 7/7/7 64/79/64 66/82/66
f 5/5/5 66/82/66 67/83/67
f 37/84/37 9/85/9 68/86/68
f 68/86/68 9/85/9 69/87/69
f 64/79/64 65/81/65 70/88/70
f 64/79/64 70/88/70 66/82/66
f 70/88/70 65/81/65 71/89/71
f 70/88/70 71/89/71 72/90/72
f 72/90/72 71/89/71 73/91/73
f 72/90/72 73/91/73 41/92/41
f 41/92/41 73/91/73 74/93/74
f 66/82/66 70/88/70 75/94/75
f 70/88/70 72/90/72 75/94/75
f 66/82/66 75/94/75 67/83/67
f 67/83/67 75/94/75 76/95/76
f 68/86/68 69/87/69 76/95/76
f 75/94/75 77/96/77 76/95/76
f 75/94/75 72/90/72 77/96/77
f 72/90/72 41/92/41 77/96/77
f 76/95/76 77/96/77 68/86/68
f 77/96/77 41/92/41 39/97/39
f 77/96/77 39/97/39 68/86/68
f 68/86/68 39/97/39 37/84/37
f 76/95/76 69/87/69 78/98/78
f 76/95/76 78/98/78 67/83/67
f 67/83/67 78/98/78 79/99/79
f 67/83/67 79/99/79 5/5/5
f 5/5/5 79/99/79 6/6/6
f 21/21/21 20/20/20 40/100/40
f 40/100/40 20/20/20 80/101/80
f 40/100/40 80/101/80 81/102/81
f 81/102/81 80/101/80 82/103/82
f 81/102/81 82/103/82 83/104/83
f 49/58/49 84/105/84 11/57/11
f 83/104/83 82/103/82 84/105/84
f 83/104/83 84/105/84 49/58/49
f 74/106/74 21/21/21 41/107/41
f 13/108/13 12/109/12 20/110/20
f 84/111/84 9/9/9 11/11/11
f 85/112/85 6/6/6 86/113/86
f 86/113/86 87/114/87 85/112/85
f 85/112/85 87/114/87 88/115/88
f 86/113/86 6/6/6 89/99/89
f 89/99/89 6/6/6 79/99/79
f 86/113/86 90/116/90 87/114/87
f 89/99/89 90/116/90 86/113/86
f 89/99/89 79/99/79 91/117/91
f 91/117/91 90/116/90 89/99/89
f 92/118/92 90/116/90 91/117/91
f 93/119/93 90/116/90 92/118/92
f 94/120/90 90/116/90 93/119/93
f 95/121/94 94/122/90 96/123/95
f 9/9/9 12/109/12 93/124/93
f 96/123/95 94/122/90 93/124/93
f 93/124/93 12/109/12 96/123/95
f 97/125/96 12/12/12 14/14/14
f 96/126/95 12/12/12 97/125/96
f 97/125/96 98/127/97 96/126/95
f 96/126/95 98/127/97 95/128/94
f 99/129/98 14/14/14 56/71/56
f 97/125/96 14/14/14 99/129/98
f 97/125/96 100/130/99 98/127/97
f 99/129/98 100/130/99 97/125/96
f 58/73/58 60/75/60 101/131/100
f 101/131/100 56/71/56 58/73/58
f 99/129/98 56/71/56 101/131/100
f 99/129/98 102/132/101 100/130/99
f 101/131/100 102/132/101 99/129/98
f 101/131/100 60/75/60 103/133/102
f 103/133/102 102/132/101 101/131/100
f 104/134/103 102/132/101 103/133/102
f 105/135/104 60/75/60 62/77/62
f 103/133/102 60/75/60 105/135/104
f 105/135/104 106/136/105 103/133/102
f 103/133/102 106/136/105 104/134/103
f 105/135/104 62/77/62 107/137/106
f 107/137/106 62/77/62 55/69/55
f 105/135/104 108/138/107 106/136/105
f 107/137/106 108/138/107 105/135/104
f 107/137/106 55/69/55 109/139/108
f 109/139/108 55/69/55 52/63/52
f 109/139/108 108/138/107 107/137/106
f 110/140/109 108/138/107 109/139/108
f 109/139/108 52/63/52 111/141/110
f 111/141/110 52/63/52 53/65/53
f 109/139/108 112/142/111 110/140/109
f 111/141/110 112/142/111 109/139/108
f 113/143/112 53/65/53 54/67/54
f 111/141/110 53/65/53 113/143/112
f 54/67/54 50/61/50 113/143/112
f 113/143/112 114/144/113 111/141/110
f 111/141/110 114/144/113 112/142/111
f 113/143/112 50/61/50 115/145/114
f 113/143/112 116/146/115 114/144/113
f 115/145/114 116/146/115 113/143/112
f 115/145/114 50/61/50 117/147/116
f 117/147/116 50/61/50 51/62/51
f 117/147/116 118/148/117 115/145/114
f 115/145/114 118/148/117 116/146/115
f 119/149/118 3/3/3 4/4/4
f 120/150/119 3/3/3 119/149/118
f 119/149/118 121/151/120 120/150/119
f 120/150/119 121/151/120 122/152/121
f 85/112/85 88/115/88 119/153/118
f 119/153/118 88/115/88 121/154/120
f 123/155/122 6/6/6 85/112/85
f 6/6/6 123/155/122 8/8/8
f 119/153/118 123/155/122 85/112/85
f 4/156/4 8/8/8 123/155/122
f 4/156/4 123/155/122 119/153/118
f 2/80/2 8/8/8 4/156/4
f 91/117/91 69/157/69 92/118/92
f 92/118/92 9/158/9 93/119/93
f 69/157/69 9/158/9 92/118/92
f 91/117/91 79/99/79 78/159/78
f 78/159/78 69/157/69 91/117/91
f 22/23/22 15/160/15 13/22/13
f 22/23/22 57/161/57 15/160/15
f 22/23/22 63/162/63 61/163/61
f 22/23/22 28/164/28 63/162/63
f 22/23/22 61/163/61 59/165/59
f 22/23/22 59/165/59 57/161/57
f 40/47/40 81/166/81 41/48/41
f 81/166/81 83/167/83 41/48/41
f 83/167/83 49/168/49 41/48/41
f 49/168/49 48/169/48 41/48/41
f 48/169/48 47/170/47 41/48/41
f 47/170/47 45/171/45 41/48/41
f 45/171/45 43/172/43 41/48/41
f 43/172/43 38/173/38 41/48/41
f 38/173/38 39/174/39 41/48/41
f 80/175/80 20/110/20 12/109/12
f 80/175/80 12/109/12 9/9/9
f 84/111/84 82/176/82 9/9/9
f 82/176/82 80/175/80 9/9/9
f 9/9/9 46/177/46 10/10/10
f 9/9/9 44/178/44 46/177/46
f 9/9/9 42/179/42 44/178/44
f 9/9/9 36/180/36 42/179/42
f 9/9/9 37/181/37 36/180/36
f 65/182/65 2/41/2 32/183/32
f 17/39/17 32/183/32 2/41/2
f 32/183/32 30/184/30 65/182/65
f 65/182/65 30/184/30 71/182/71
f 30/184/30 26/185/26 71/182/71
f 71/182/71 26/185/26 73/186/73
f 26/185/26 27/187/27 73/186/73
f 73/186/73 27/187/27 74/188/74
f 27/189/27 22/23/22 21/21/21
f 74/106/74 27/189/27 21/21/21
f 124/190/123 125/191/124 126/192/125
f 126/192/125 125/191/124 127/193/126
f 128/194/127 129/195/128 130/196/129
f 130/196/129 129/195/128 131/197/129
f 132/198/130 133/199/131 134/200/132
f 134/200/132 133/199/131 135/201/132
f 136/202/133 137/203/134 138/204/135
f 133/199/131 132/198/130 139/205/136
f 139/205/136 132/198/130 138/204/135
f 138/204/135 137/203/134 139/205/136
f 124/190/123 126/192/125 140/206/137
f 141/207/138 140/206/137 142/208/139
f 142/208/139 140/206/137 143/209/140
f 140/206/137 126/192/125 143/209/140
f 128/194/127 130/196/129 144/210/141
f 144/210/141 130/196/129 145/211/129
f 144/210/141 145/211/129 146/212/142
f 146/212/142 145/211/129 147/213/143
f 148/214/144 131/197/129 129/195/128
f 149/215/145 131/197/129 148/214/144
f 142/208/139 150/216/146 141/207/138
f 137/203/134 136/202/133 150/216/146
f 150/216/146 142/208/139 151/217/147
f 128/194/127 144/210/141 151/217/147
f 150/216/146 151/217/147 137/203/134
f 129/195/128 128/194/127 152/218/148
f 152/218/148 128/194/127 151/217/147
f 151/217/147 142/208/139 152/218/148
f 126/192/125 127/193/126 153/219/149
f 153/219/149 127/193/126 154/220/150
f 155/221/151 125/191/124 124/190/123
f 132/198/130 156/222/152 138/204/135
f 156/222/152 132/198/130 157/223/153
f 157/223/153 132/198/130 134/200/132
f 158/224/154 135/201/132 133/199/131
f 159/225/155 135/201/132 158/224/154
f 160/226/156 136/202/133 138/204/135
f 138/204/135 156/222/152 160/226/156
f 161/227/157 136/202/133 160/226/156
f 162/228/158 139/205/136 137/203/134
f 158/224/154 133/199/131 162/228/158
f 162/228/158 133/199/131 139/205/136
f 163/229/159 142/208/139 143/209/140
f 153/219/149 163/229/159 126/192/125
f 126/192/125 163/229/159 143/209/140
f 164/230/160 124/190/123 140/206/137
f 155/221/151 124/190/123 164/230/160
f 165/231/161 140/206/137 141/207/138
f 164/230/160 140/206/137 165/231/161
f 150/216/146 136/202/133 166/232/162
f 136/202/133 161/227/157 166/232/162
f 141/207/138 166/232/162 165/231/161
f 141/207/138 150/216/146 166/232/162
f 165/231/161 166/232/162 167/233/163
f 166/232/162 161/227/157 167/233/163
f 137/203/134 151/217/147 168/234/164
f 151/217/147 144/210/141 168/234/164
f 153/219/149 154/220/150 169/235/165
f 169/235/165 154/220/150 170/236/166
f 146/212/142 147/213/143 171/237/167
f 171/237/167 147/213/143 172/238/168
f 169/235/165 170/236/166 173/239/169
f 173/239/169 174/240/170 148/214/144
f 173/239/169 170/236/166 174/240/170
f 148/214/144 174/240/170 149/215/145
f 171/237/167 172/238/168 175/241/171
f 175/241/171 159/225/155 158/224/154
f 176/242/172 159/225/155 175/241/171
f 175/241/171 172/238/168 176/242/172
f 177/243/173 129/195/128 152/218/148
f 148/214/144 129/195/128 177/243/173
f 152/218/148 142/208/139 177/243/173
f 177/243/173 142/208/139 178/244/174
f 177/243/173 178/244/174 148/214/144
f 148/214/144 178/244/174 173/239/169
f 173/239/169 179/245/175 169/235/165
f 179/245/175 142/208/139 163/229/159
f 178/244/174 142/208/139 179/245/175
f 163/229/159 153/219/149 179/245/175
f 178/244/174 179/245/175 173/239/169
f 179/245/175 153/219/149 169/235/165
f 146/212/142 180/246/176 144/210/141
f 168/234/164 180/246/176 137/203/134
f 144/210/141 180/246/176 168/234/164
f 180/246/176 146/212/142 181/247/177
f 180/246/176 181/247/177 137/203/134
f 181/247/177 146/212/142 171/237/167
f 181/247/177 182/248/178 137/203/134
f 182/248/178 162/228/158 137/203/134
f 162/228/158 182/248/178 158/224/154
f 158/224/154 182/248/178 175/241/171
f 181/247/177 171/237/167 182/248/178
f 182/248/178 171/237/167 175/241/171
f 155/221/151 183/249/179 125/191/124
f 184/250/180 185/251/181 186/252/182
f 187/253/183 188/254/184 189/255/185
f 189/255/185 188/254/184 190/256/186
f 188/254/184 187/253/183 191/257/187
f 191/257/187 187/253/183 192/258/188
f 193/259/189 188/254/184 191/257/187
f 194/260/190 188/254/184 193/259/189
f 195/261/191 194/260/190 193/259/189
f 196/262/192 194/260/190 195/261/191
f 197/263/193 194/260/190 196/262/192
f 198/264/194 194/260/190 197/263/193
f 185/251/181 199/265/195 186/252/182
f 199/265/195 188/254/184 194/260/190
f 190/256/186 188/254/184 199/265/195
f 185/251/181 190/256/186 199/265/195
f 200/266/196 194/260/190 198/264/194
f 200/266/196 186/252/182 199/265/195
f 199/265/195 194/260/190 200/266/196
f 201/267/197 186/252/182 200/266/196
f 201/267/197 184/250/180 186/252/182
f 202/268/198 184/250/180 201/267/197
f 184/250/180 203/269/199 185/251/181
f 202/268/198 203/269/199 184/250/180
f 204/270/200 203/269/199 202/268/198
f 205/271/201 206/272/202 204/270/200
f 204/270/200 206/272/202 203/269/199
f 203/269/199 206/272/202 185/251/181
f 205/271/201 207/273/203 206/272/202
f 206/272/202 207/273/203 185/251/181
f 208/274/204 207/273/203 205/271/201
f 207/273/203 209/275/205 185/251/181
f 208/274/204 209/275/205 207/273/203
f 210/276/206 209/275/205 208/274/204
f 209/275/205 211/277/207 185/251/181
f 211/277/207 209/275/205 212/278/208
f 210/276/206 212/278/208 209/275/205
f 213/279/209 211/277/207 212/278/208
f 214/280/210 215/281/211 189/255/185
f 189/255/185 215/281/211 187/253/183
f 192/258/188 187/253/183 215/281/211
f 216/282/212 217/283/213 218/284/214
f 218/284/214 217/283/213 219/285/215
f 219/285/215 220/286/216 218/284/214
f 221/287/217 220/286/216 219/285/215
f 222/288/218 223/289/219 224/290/220
f 225/291/221 226/292/222 227/293/223
f 217/283/213 227/293/223 219/285/215
f 217/283/213 225/291/221 227/293/223
f 227/293/223 226/292/222 228/294/224
f 229/295/225 230/296/226 231/297/227
f 231/297/227 230/296/226 232/298/228
f 232/298/228 221/287/217 219/285/215
f 230/296/226 221/287/217 232/298/228
f 227/293/223 228/294/224 232/298/228
f 219/285/215 227/293/223 232/298/228
f 232/298/228 228/294/224 231/297/227
f 233/299/229 226/292/222 225/291/221
f 233/299/229 222/288/218 234/300/230
f 235/301/231 226/292/222 233/299/229
f 233/299/229 234/300/230 235/301/231
f 235/301/231 234/300/230 236/302/232
f 233/299/229 237/303/233 222/288/218
f 237/303/233 225/291/221 217/283/213
f 225/291/221 237/303/233 233/299/229
f 217/283/213 216/282/212 237/303/233
f 223/289/219 222/288/218 238/304/234
f 222/288/218 237/303/233 238/304/234
f 237/303/233 216/282/212 238/304/234
f 239/305/235 222/288/218 224/290/220
f 234/300/230 222/288/218 239/305/235
f 220/286/216 240/306/236 218/284/214
f 241/307/237 216/282/212 218/284/214
f 218/284/214 240/306/236 241/307/237
f 242/308/238 216/282/212 241/307/237
f 216/282/212 242/308/238 238/304/234
f 238/304/234 242/308/238 243/309/239
f 238/304/234 243/309/239 223/289/219
f 228/294/224 244/310/240 231/297/227
f 226/292/222 244/310/240 228/294/224
f 245/311/241 244/310/240 226/292/222
f 246/312/242 229/295/225 247/313/243
f 247/313/243 229/295/225 231/297/227
f 231/297/227 244/310/240 247/313/243
f 245/311/241 226/292/222 248/314/244
f 248/314/244 226/292/222 235/301/231
f 249/315/245 235/301/231 236/302/232
f 248/314/244 235/301/231 249/315/245
f 243/309/239 250/316/246 223/289/219
f 250/316/246 224/290/220 223/289/219
f 246/312/242 251/317/247 229/295/225
f 229/295/225 252/318/248 230/296/226
f 229/295/225 251/317/247 252/318/248
f 230/296/226 252/318/248 253/319/249
f 230/296/226 253/319/249 221/287/217
f 252/318/248 254/320/250 253/319/249
f 251/317/247 254/320/250 252/318/248
f 156/321/251 254/320/250 251/317/247
f 220/286/216 221/287/217 255/322/252
f 253/319/249 254/320/250 255/322/252
f 255/322/252 221/287/217 253/319/249
f 156/321/251 256/323/253 254/320/250
f 254/320/250 257/324/254 255/322/252
f 254/320/250 256/323/253 257/324/254
f 255/322/252 257/324/254 258/325/255
f 240/306/236 220/286/216 258/325/255
f 258/325/255 220/286/216 255/322/252
f 259/4/256 260/2/257 3/3/3
f 3/3/3 260/2/257 1/1/1
f 261/5/258 262/7/259 263/6/260
f 263/6/260 262/7/259 264/8/261
f 265/10/262 266/9/263 267/11/264
f 268/12/265 269/14/266 270/13/267
f 270/13/267 269/14/266 271/15/268
f 272/16/269 23/24/23 18/18/18
f 273/17/270 18/18/18 19/19/19
f 272/16/269 18/18/18 273/17/270
f 274/20/271 270/22/267 275/21/272
f 275/21/272 270/22/267 276/23/273
f 277/25/274 23/24/23 272/16/269
f 278/29/275 276/27/273 279/28/276
f 279/28/276 276/27/273 280/26/277
f 276/27/273 281/30/278 280/26/277
f 280/26/277 281/30/278 282/31/279
f 280/26/277 282/31/279 283/33/280
f 280/26/277 283/33/280 279/28/276
f 279/28/276 283/33/280 284/32/281
f 272/16/269 285/35/282 277/25/274
f 283/33/280 285/35/282 284/32/281
f 285/35/282 272/16/269 286/34/283
f 284/32/281 285/35/282 286/34/283
f 286/34/283 272/16/269 273/17/270
f 283/33/280 282/31/279 287/36/284
f 283/33/280 287/36/284 285/35/282
f 277/25/274 285/35/282 288/37/285
f 285/35/282 287/36/284 288/37/285
f 1/40/1 273/39/270 19/38/19
f 260/41/257 273/39/270 1/40/1
f 289/45/286 290/43/287 291/44/288
f 291/44/288 290/43/287 292/42/289
f 293/47/290 275/46/272 294/48/291
f 295/49/292 291/44/288 292/42/289
f 296/50/293 291/44/288 295/49/292
f 297/51/294 296/50/293 295/49/292
f 298/52/295 296/50/293 297/51/294
f 299/53/296 298/52/295 297/51/294
f 300/54/297 298/52/295 299/53/296
f 265/55/262 300/54/297 299/53/296
f 301/56/298 300/54/297 265/55/262
f 267/57/264 301/56/298 265/55/262
f 302/58/299 301/56/298 267/57/264
f 51/62/51 303/61/300 117/147/116
f 51/62/51 23/60/23 303/61/300
f 303/61/300 23/60/23 277/59/274
f 287/66/284 282/64/279 304/65/301
f 304/65/301 282/64/279 305/63/302
f 306/67/303 287/66/284 304/65/301
f 303/61/300 277/59/274 306/67/303
f 288/68/285 287/66/284 306/67/303
f 306/67/303 277/59/274 288/68/285
f 282/64/279 281/70/278 305/63/302
f 305/63/302 281/70/278 307/69/304
f 308/71/305 271/15/268 269/14/266
f 309/72/306 271/15/268 308/71/305
f 310/73/307 309/72/306 308/71/305
f 311/74/308 309/72/306 310/73/307
f 312/75/309 311/74/308 310/73/307
f 313/76/310 311/74/308 312/75/309
f 314/78/311 307/69/304 281/70/278
f 315/77/312 307/69/304 314/78/311
f 315/77/312 313/76/310 312/75/309
f 314/78/311 313/76/310 315/77/312
f 264/8/261 262/7/259 316/79/313
f 316/79/313 260/80/257 264/8/261
f 317/81/314 260/80/257 316/79/313
f 316/79/313 262/7/259 318/82/315
f 262/7/259 261/5/258 318/82/315
f 318/82/315 261/5/258 319/83/316
f 320/87/317 266/85/263 321/86/318
f 321/86/318 266/85/263 290/84/287
f 322/88/319 317/81/314 316/79/313
f 316/79/313 318/82/315 322/88/319
f 323/89/320 317/81/314 322/88/319
f 324/90/321 323/89/320 322/88/319
f 325/91/322 323/89/320 324/90/321
f 294/92/291 325/91/322 324/90/321
f 326/93/323 325/91/322 294/92/291
f 322/88/319 318/82/315 327/94/324
f 322/88/319 327/94/324 324/90/321
f 318/82/315 319/83/316 327/94/324
f 327/94/324 319/83/316 328/95/325
f 328/95/325 320/87/317 321/86/318
f 324/90/321 327/94/324 329/96/326
f 324/90/321 329/96/326 294/92/291
f 329/96/326 328/95/325 321/86/318
f 327/94/324 328/95/325 329/96/326
f 289/97/286 321/86/318 290/84/287
f 329/96/326 321/86/318 289/97/286
f 294/92/291 329/96/326 289/97/286
f 319/83/316 330/98/327 328/95/325
f 330/98/327 320/87/317 328/95/325
f 331/99/328 330/98/327 319/83/316
f 263/6/260 331/99/328 261/5/258
f 261/5/258 331/99/328 319/83/316
f 293/100/290 274/20/271 275/21/272
f 332/101/329 274/20/271 293/100/290
f 333/102/330 332/101/329 293/100/290
f 334/103/331 332/101/329 333/102/330
f 267/57/264 335/105/332 302/58/299
f 335/105/332 334/103/331 336/104/333
f 336/104/333 334/103/331 333/102/330
f 302/58/299 335/105/332 336/104/333
f 275/21/272 326/106/323 294/107/291
f 268/109/265 270/108/267 274/110/271
f 266/9/263 335/111/332 267/11/264
f 337/115/334 338/114/335 339/112/336
f 339/112/336 338/114/335 340/113/337
f 263/6/260 339/112/336 340/113/337
f 338/114/335 341/116/338 340/113/337
f 342/99/339 263/6/260 340/113/337
f 331/99/328 263/6/260 342/99/339
f 340/113/337 341/116/338 342/99/339
f 341/116/338 343/117/340 342/99/339
f 343/117/340 331/99/328 342/99/339
f 341/116/338 344/118/341 343/117/340
f 345/120/338 346/119/342 341/116/338
f 341/116/338 346/119/342 344/118/341
f 347/121/343 348/123/344 345/122/338
f 345/122/338 348/123/344 346/124/342
f 266/9/263 346/124/342 268/109/265
f 268/109/265 346/124/342 348/123/344
f 347/128/343 349/127/345 348/126/344
f 269/14/266 268/12/265 350/125/346
f 350/125/346 268/12/265 348/126/344
f 348/126/344 349/127/345 350/125/346
f 349/127/345 351/130/347 350/125/346
f 352/129/348 269/14/266 350/125/346
f 308/71/305 269/14/266 352/129/348
f 350/125/346 351/130/347 352/129/348
f 351/130/347 353/132/349 352/129/348
f 354/131/350 308/71/305 352/129/348
f 352/129/348 353/132/349 354/131/350
f 310/73/307 354/131/350 312/75/309
f 310/73/307 308/71/305 354/131/350
f 355/134/351 356/133/352 353/132/349
f 353/132/349 356/133/352 354/131/350
f 312/75/309 354/131/350 356/133/352
f 355/134/351 357/136/353 356/133/352
f 356/133/352 357/136/353 358/135/354
f 315/77/312 312/75/309 358/135/354
f 358/135/354 312/75/309 356/133/352
f 357/136/353 359/138/355 358/135/354
f 360/137/356 315/77/312 358/135/354
f 358/135/354 359/138/355 360/137/356
f 307/69/304 315/77/312 360/137/356
f 361/139/357 307/69/304 360/137/356
f 359/138/355 361/139/357 360/137/356
f 305/63/302 307/69/304 361/139/357
f 362/140/358 361/139/357 359/138/355
f 362/140/358 363/142/359 361/139/357
f 364/141/360 305/63/302 361/139/357
f 304/65/301 305/63/302 364/141/360
f 361/139/357 363/142/359 364/141/360
f 363/142/359 365/144/361 364/141/360
f 364/141/360 365/144/361 366/143/362
f 366/143/362 304/65/301 364/141/360
f 306/67/303 366/143/362 303/61/300
f 306/67/303 304/65/301 366/143/362
f 365/144/361 367/146/363 366/143/362
f 366/143/362 367/146/363 368/145/364
f 367/146/363 118/148/117 368/145/364
f 368/145/364 118/148/117 117/147/116
f 303/61/300 366/143/362 368/145/364
f 117/147/116 303/61/300 368/145/364
f 122/152/121 369/151/365 120/150/119
f 120/150/119 369/151/365 370/149/366
f 370/149/366 3/3/3 120/150/119
f 259/4/256 3/3/3 370/149/366
f 370/153/366 337/115/334 339/112/336
f 369/154/365 337/115/334 370/153/366
f 371/155/367 263/6/260 264/8/261
f 371/155/367 339/112/336 263/6/260
f 371/155/367 370/153/366 339/112/336
f 259/156/256 370/153/366 371/155/367
f 371/155/367 264/8/261 259/156/256
f 259/156/256 264/8/261 260/80/257
f 320/157/317 343/117/340 344/118/341
f 320/157/317 344/118/341 266/158/263
f 266/158/263 344/118/341 346/119/342
f 330/159/327 343/117/340 320/157/317
f 330/159/327 331/99/328 343/117/340
f 271/160/268 276/23/273 270/22/267
f 309/161/306 276/23/273 271/160/268
f 314/162/311 276/23/273 313/163/310
f 281/164/278 276/23/273 314/162/311
f 311/165/308 276/23/273 309/161/306
f 313/163/310 276/23/273 311/165/308
f 333/166/330 293/47/290 294/48/291
f 336/167/333 333/166/330 294/48/291
f 302/168/299 336/167/333 294/48/291
f 301/169/298 302/168/299 294/48/291
f 300/170/297 301/169/298 294/48/291
f 298/171/295 300/170/297 294/48/291
f 296/172/293 298/171/295 294/48/291
f 291/173/288 296/172/293 294/48/291
f 289/174/286 291/173/288 294/48/291
f 274/110/271 332/175/329 268/109/265
f 268/109/265 332/175/329 266/9/263
f 332/175/329 334/176/331 266/9/263
f 334/176/331 335/111/332 266/9/263
f 299/177/296 266/9/263 265/10/262
f 297/178/294 266/9/263 299/177/296
f 295/179/292 266/9/263 297/178/294
f 292/180/289 266/9/263 295/179/292
f 290/181/287 266/9/263 292/180/289
f 260/41/257 286/183/283 273/39/270
f 317/182/314 286/183/283 260/41/257
f 323/182/320 284/184/281 317/182/314
f 317/182/314 284/184/281 286/183/283
f 323/182/320 279/185/276 284/184/281
f 325/186/322 279/185/276 323/182/320
f 325/186/322 278/187/275 279/185/276
f 326/188/323 278/187/275 325/186/322
f 276/23/273 278/189/275 275/21/272
f 278/189/275 326/106/323 275/21/272
f 164/230/160 372/190/123 155/221/151
f 373/191/368 155/221/151 372/190/123
f 183/249/179 155/221/151 373/191/368
f 372/190/123 374/192/369 373/191/368
f 373/191/368 374/192/369 375/193/126
f 376/197/370 377/195/371 378/196/370
f 378/196/370 377/195/371 379/194/372
f 380/201/132 381/199/373 382/200/132
f 157/223/153 383/198/374 156/222/152
f 382/200/132 383/198/374 157/223/153
f 382/200/132 381/199/373 383/198/374
f 384/205/375 383/198/374 381/199/373
f 384/205/375 385/203/376 386/204/377
f 386/204/377 156/222/152 383/198/374
f 386/204/377 383/198/374 384/205/375
f 160/226/156 156/222/152 386/204/377
f 386/204/377 387/202/378 160/226/156
f 386/204/377 385/203/376 387/202/378
f 160/226/156 387/202/378 161/227/157
f 388/206/379 374/192/369 372/190/123
f 165/231/161 388/206/379 164/230/160
f 388/206/379 372/190/123 164/230/160
f 389/207/380 388/206/379 165/231/161
f 389/207/380 390/208/381 388/206/379
f 391/209/382 374/192/369 388/206/379
f 388/206/379 390/208/381 391/209/382
f 379/194/372 392/210/383 378/196/370
f 392/210/383 393/212/384 394/211/370
f 378/196/370 392/210/383 394/211/370
f 394/211/370 393/212/384 395/213/385
f 377/195/371 376/197/370 396/214/386
f 396/214/386 376/197/370 397/215/387
f 398/216/388 387/202/378 385/203/376
f 389/207/380 398/216/388 390/208/381
f 398/216/388 385/203/376 399/217/389
f 398/216/388 399/217/389 390/208/381
f 399/217/389 392/210/383 379/194/372
f 390/208/381 399/217/389 400/218/390
f 400/218/390 379/194/372 377/195/371
f 399/217/389 379/194/372 400/218/390
f 374/192/369 401/219/391 375/193/126
f 375/193/126 401/219/391 402/220/392
f 381/199/373 380/201/132 403/224/393
f 403/224/393 380/201/132 404/225/394
f 384/205/375 381/199/373 405/228/395
f 405/228/395 381/199/373 403/224/393
f 384/205/375 405/228/395 385/203/376
f 401/219/391 374/192/369 406/229/396
f 406/229/396 374/192/369 391/209/382
f 390/208/381 406/229/396 391/209/382
f 167/233/163 161/227/157 407/232/397
f 407/232/397 161/227/157 387/202/378
f 407/232/397 398/216/388 389/207/380
f 167/233/163 407/232/397 165/231/161
f 165/231/161 407/232/397 389/207/380
f 407/232/397 387/202/378 398/216/388
f 399/217/389 385/203/376 408/234/398
f 408/234/398 392/210/383 399/217/389
f 409/236/399 402/220/392 410/235/400
f 410/235/400 402/220/392 401/219/391
f 411/237/401 395/213/385 393/212/384
f 412/238/402 395/213/385 411/237/401
f 397/215/387 413/240/403 396/214/386
f 413/240/403 409/236/399 414/239/404
f 414/239/404 409/236/399 410/235/400
f 396/214/386 413/240/403 414/239/404
f 404/225/394 415/241/405 403/224/393
f 415/241/405 412/238/402 411/237/401
f 416/242/406 412/238/402 415/241/405
f 416/242/406 415/241/405 404/225/394
f 400/218/390 377/195/371 417/243/407
f 417/243/407 377/195/371 396/214/386
f 390/208/381 400/218/390 417/243/407
f 414/239/404 418/244/408 396/214/386
f 390/208/381 417/243/407 418/244/408
f 396/214/386 418/244/408 417/243/407
f 401/219/391 419/245/409 410/235/400
f 390/208/381 418/244/408 419/245/409
f 390/208/381 419/245/409 406/229/396
f 414/239/404 419/245/409 418/244/408
f 410/235/400 419/245/409 414/239/404
f 406/229/396 419/245/409 401/219/391
f 420/246/410 408/234/398 385/203/376
f 420/246/410 392/210/383 408/234/398
f 393/212/384 392/210/383 420/246/410
f 420/246/410 421/247/411 393/212/384
f 393/212/384 421/247/411 411/237/401
f 421/247/411 420/246/410 385/203/376
f 405/228/395 422/248/412 385/203/376
f 415/241/405 422/248/412 403/224/393
f 421/247/411 422/248/412 411/237/401
f 411/237/401 422/248/412 415/241/405
f 403/224/393 422/248/412 405/228/395
f 422/248/412 421/247/411 385/203/376
f 423/251/413 424/250/414 425/252/415
f 426/253/416 427/255/417 428/254/418
f 428/254/418 427/255/417 429/256/419
f 428/254/418 430/257/420 426/253/416
f 426/253/416 430/257/420 431/258/421
f 428/254/418 432/259/422 430/257/420
f 433/260/423 432/259/422 428/254/418
f 433/260/423 434/261/424 432/259/422
f 433/260/423 435/262/425 434/261/424
f 433/260/423 436/263/426 435/262/425
f 433/260/423 437/264/427 436/263/426
f 433/260/423 428/254/418 438/265/428
f 429/256/419 423/251/413 438/265/428
f 438/265/428 423/251/413 425/252/415
f 438/265/428 428/254/418 429/256/419
f 438/265/428 425/252/415 439/266/429
f 433/260/423 439/266/429 437/264/427
f 438/265/428 439/266/429 433/260/423
f 439/266/429 425/252/415 440/267/430
f 425/252/415 424/250/414 440/267/430
f 440/267/430 424/250/414 441/268/431
f 442/269/432 424/250/414 423/251/413
f 424/250/414 442/269/432 441/268/431
f 441/268/431 442/269/432 443/270/433
f 444/272/434 442/269/432 423/251/413
f 442/269/432 444/272/434 443/270/433
f 443/270/433 444/272/434 445/271/435
f 446/273/436 444/272/434 423/251/413
f 444/272/434 446/273/436 445/271/435
f 445/271/435 446/273/436 447/274/437
f 446/273/436 448/275/438 447/274/437
f 448/275/438 446/273/436 423/251/413
f 447/274/437 448/275/438 449/276/439
f 450/277/440 448/275/438 423/251/413
f 451/278/441 449/276/439 448/275/438
f 448/275/438 450/277/440 451/278/441
f 450/277/440 452/279/442 451/278/441
f 426/253/416 431/258/421 453/281/443
f 426/253/416 453/281/443 427/255/417
f 427/255/417 453/281/443 454/280/444
f 455/285/445 456/283/446 457/284/447
f 457/284/447 456/283/446 458/282/448
f 457/284/447 459/286/449 455/285/445
f 455/285/445 459/286/449 460/287/450
f 461/289/451 462/288/452 463/290/453
f 248/314/244 464/292/454 245/311/241
f 245/311/241 464/292/454 244/310/240
f 244/310/240 464/292/454 465/294/455
f 465/294/455 464/292/454 466/293/456
f 455/285/445 466/293/456 456/283/446
f 466/293/456 464/292/454 467/291/457
f 466/293/456 467/291/457 456/283/446
f 468/298/458 466/293/456 455/285/445
f 468/298/458 465/294/455 466/293/456
f 460/287/450 468/298/458 455/285/445
f 469/296/459 468/298/458 460/287/450
f 470/297/460 244/310/240 465/294/455
f 247/313/243 244/310/240 470/297/460
f 468/298/458 469/296/459 470/297/460
f 470/297/460 465/294/455 468/298/458
f 471/295/225 251/317/247 246/312/242
f 470/297/460 469/296/459 471/295/225
f 247/313/243 471/295/225 246/312/242
f 470/297/460 471/295/225 247/313/243
f 467/291/457 464/292/454 472/299/461
f 473/301/462 464/292/454 248/314/244
f 472/299/461 464/292/454 473/301/462
f 248/314/244 249/315/245 473/301/462
f 472/299/461 474/300/463 462/288/452
f 472/299/461 473/301/462 474/300/463
f 473/301/462 249/315/245 475/302/464
f 474/300/463 473/301/462 475/302/464
f 476/303/465 472/299/461 462/288/452
f 467/291/457 472/299/461 476/303/465
f 456/283/446 467/291/457 476/303/465
f 476/303/465 458/282/448 456/283/446
f 477/304/466 458/282/448 476/303/465
f 462/288/452 461/289/451 477/304/466
f 476/303/465 462/288/452 477/304/466
f 462/288/452 478/305/467 463/290/453
f 462/288/452 474/300/463 478/305/467
f 457/284/447 458/282/448 479/307/468
f 479/307/468 480/306/469 457/284/447
f 457/284/447 480/306/469 459/286/449
f 481/309/470 477/304/466 461/289/451
f 479/307/468 458/282/448 482/308/471
f 481/309/470 482/308/471 477/304/466
f 477/304/466 482/308/471 458/282/448
f 463/290/453 483/316/472 461/289/451
f 483/316/472 481/309/470 461/289/451
f 484/318/473 251/317/247 471/295/225
f 469/296/459 484/318/473 471/295/225
f 485/319/474 484/318/473 469/296/459
f 485/319/474 469/296/459 460/287/450
f 156/321/251 251/317/247 486/320/475
f 486/320/475 251/317/247 484/318/473
f 486/320/475 256/323/253 156/321/251
f 485/319/474 486/320/475 484/318/473
f 487/322/476 486/320/475 485/319/474
f 487/322/476 460/287/450 459/286/449
f 485/319/474 460/287/450 487/322/476
f 488/324/254 256/323/253 486/320/475
f 487/322/476 488/324/254 486/320/475
f 489/325/477 488/324/254 487/322/476
f 487/322/476 459/286/449 489/325/477
f 489/325/477 459/286/449 480/306/469
