# Blender 4.0.2
# www.blender.org
mtllib rei-plush-color.mtl
o Body
v -27.629238 89.802307 9.564477
v -28.348780 67.733253 10.275997
v -9.873543 125.069847 10.931012
v -18.108335 126.790688 6.958016
v -3.152179 54.617020 15.444092
v -14.312862 84.593613 14.440716
v -16.785456 61.148239 14.248993
v -26.408680 104.430099 9.077388
v -12.557668 100.596901 13.496027
v -10.197567 122.115509 11.240658
v -18.810120 124.031158 8.178888
v -28.187717 106.713982 8.466900
v -49.996769 87.637093 7.052495
v -34.724865 117.424149 6.426787
v -35.725346 101.306374 5.733591
v -41.796803 109.871979 5.683117
v -57.227882 94.138870 7.005746
v -49.714104 86.697075 7.717408
v -58.114845 94.250504 7.663097
v -53.852554 82.763832 7.859663
v -62.255711 89.397995 7.808193
v -55.059151 83.118034 7.067923
v -62.210842 88.649307 7.432647
v -56.849468 79.346100 7.597323
v -65.249062 85.874054 8.206001
v -62.662510 71.778015 7.832067
v -71.538010 78.686829 8.679914
v -67.526184 69.774620 7.271204
v -74.238510 74.986320 7.856795
v -71.621056 68.810036 6.198246
v -76.117012 70.846046 6.489542
v -57.602219 76.452431 7.570856
v -29.943644 90.921837 8.170966
v -3.152180 54.617020 6.997572
v -26.136986 120.989403 8.295546
v -27.992558 43.547081 9.584375
v -17.383625 41.639561 12.802647
v -7.516738 40.552994 13.717710
v -5.208342 40.331928 6.928732
v -27.205940 23.008131 8.987334
v -18.281637 22.351112 11.659048
v -12.065239 22.333302 12.038652
v -8.115981 22.324932 6.782697
v -28.851021 18.651161 9.549216
v -20.064896 15.578067 12.328295
v -14.283966 13.679042 11.053851
v -10.139963 12.259809 6.937752
v -31.915115 11.224955 9.117053
v -24.204683 8.940580 11.518042
v -18.776533 7.743170 10.660593
v -15.557023 6.377908 6.804480
v -30.802071 7.343932 7.502029
v -26.183861 4.159468 7.285793
v -21.619568 4.157829 6.975132
v 27.629238 89.802307 9.564477
v 28.348780 67.733253 10.275997
v 9.873543 125.069847 10.931012
v 18.108335 126.790688 6.958016
v 3.152179 54.617020 15.444092
v 0.000000 54.136314 15.811289
v 0.000000 81.000191 15.448890
v 0.000000 124.040878 11.939187
v 14.312862 84.593613 14.440716
v 16.785456 61.148239 14.248993
v 0.000000 98.017387 14.504200
v 26.408680 104.430099 9.077388
v 12.557668 100.596901 13.496027
v 0.000000 120.899353 12.248832
v 10.197567 122.115509 11.240658
v 18.810120 124.031158 8.178888
v 28.187717 106.713982 8.466900
v 49.996769 87.637093 7.052495
v 34.724865 117.424149 6.426787
v 35.725346 101.306374 5.733591
v 41.796803 109.871979 5.683117
v 57.227882 94.138870 7.005746
v 49.714104 86.697075 7.717408
v 58.114845 94.250504 7.663097
v 53.852554 82.763832 7.859663
v 62.255711 89.397995 7.808193
v 55.059151 83.118034 7.067923
v 62.210842 88.649307 7.432647
v 56.849468 79.346100 7.597323
v 65.249062 85.874054 8.206001
v 62.662510 71.778015 7.832067
v 71.538010 78.686829 8.679914
v 67.526184 69.774620 7.271204
v 74.238510 74.986320 7.856795
v 71.621056 68.810036 6.198246
v 76.117012 70.846046 6.489542
v 57.602219 76.452431 7.570856
v 0.000000 54.136314 7.006131
v 29.943644 90.921837 8.170966
v 3.152180 54.617020 6.997572
v 26.136986 120.989403 8.295546
v 27.992558 43.547081 9.584375
v 17.383625 41.639561 12.802647
v 7.516738 40.552994 13.717710
v 5.208342 40.331928 6.928732
v 27.205940 23.008131 8.987334
v 18.281637 22.351112 11.659048
v 12.065239 22.333302 12.038652
v 8.115981 22.324932 6.782697
v 28.851021 18.651161 9.549216
v 20.064896 15.578067 12.328295
v 14.283966 13.679042 11.053851
v 10.139963 12.259809 6.937752
v 31.915115 11.224955 9.117053
v 24.204683 8.940580 11.518042
v 18.776533 7.743170 10.660593
v 15.557023 6.377908 6.804480
v 30.802071 7.343932 7.502029
v 26.183861 4.159468 7.285793
v 21.619568 4.157829 6.975132
v -33.013523 70.389709 0.000003
v -23.486982 128.530289 0.000006
v -30.937738 91.585640 0.000004
v -11.439317 125.069847 0.000005
v -30.806082 23.273184 0.000001
v -3.152180 54.617020 0.000002
v -27.629238 89.802307 -9.564469
v -28.348780 67.733253 -10.275991
v -9.873543 125.069847 -10.931001
v -18.108335 126.790688 -6.958005
v -3.152179 54.617020 -15.444086
v -14.312862 84.593613 -14.440708
v -16.785456 61.148239 -14.248987
v -30.192215 103.054817 0.000005
v -26.408680 104.430099 -9.077378
v -12.557668 100.596901 -13.496017
v -10.197567 122.115509 -11.240646
v -24.273354 125.802338 0.000005
v -18.810120 124.031158 -8.178877
v -28.187717 106.713982 -8.466890
v -49.996769 87.637093 -7.052487
v -34.724865 117.424149 -6.426776
v -35.352917 121.965546 0.000005
v -35.725346 101.306374 -5.733582
v -34.317612 98.657288 0.000004
v -41.796803 109.871979 -5.683107
v -44.796589 113.407204 0.000005
v -57.227882 94.138870 -7.005738
v -60.658627 96.721649 0.000004
v -48.185028 85.530502 0.000004
v -47.609318 84.249756 0.000004
v -49.714104 86.697075 -7.717401
v -62.100494 97.251038 0.000004
v -58.114845 94.250504 -7.663089
v -51.713512 80.576912 0.000004
v -53.852554 82.763832 -7.859655
v -66.207161 91.994034 0.000004
v -62.255711 89.397995 -7.808186
v -52.828705 80.798897 0.000004
v -55.059151 83.118034 -7.067915
v -65.727470 90.959686 0.000004
v -62.210842 88.649307 -7.432640
v -55.236595 76.894966 0.000003
v -56.849468 79.346100 -7.597317
v -69.300163 88.535576 0.000004
v -65.249062 85.874054 -8.205994
v -61.401978 68.493561 0.000003
v -62.662510 71.778015 -7.832061
v -75.770828 81.467720 0.000004
v -71.538010 78.686829 -8.679907
v -65.593475 67.752686 0.000003
v -67.526184 69.774620 -7.271199
v -77.478867 77.115181 0.000003
v -74.238510 74.986320 -7.856789
v -70.688728 66.303986 0.000003
v -71.621056 68.810036 -6.198240
v -78.151657 72.182777 0.000003
v -76.117012 70.846046 -6.489536
v -75.335510 68.159378 0.000003
v -57.602219 76.452431 -7.570849
v -56.155319 73.370216 0.000003
v -36.262711 10.808764 0.000000
v -29.943644 90.921837 -8.170959
v -3.152180 54.617020 -6.997568
v -26.136986 120.989403 -8.295534
v -32.272289 44.316593 0.000002
v -33.345890 19.397266 0.000001
v -5.208342 40.331928 0.000002
v -27.992558 43.547081 -9.584372
v -17.383625 41.639561 -12.802643
v -7.516738 40.552994 -13.717707
v -5.208342 40.331928 -6.928729
v -33.501060 5.711310 0.000000
v -8.115981 22.324932 0.000001
v -27.205940 23.008131 -8.987332
v -18.281637 22.351112 -11.659046
v -12.065239 22.333302 -12.038651
v -8.115981 22.324932 -6.782695
v -9.353714 11.536782 0.000001
v -28.851021 18.651161 -9.549214
v -20.064896 15.578069 -12.328293
v -14.283966 13.679044 -11.053849
v -10.139963 12.259809 -6.937751
v -14.368927 5.071004 0.000000
v -31.915115 11.224955 -9.117051
v -24.204683 8.940582 -11.518042
v -18.776533 7.743171 -10.660593
v -15.557023 6.377909 -6.804479
v -30.802071 7.343933 -7.502028
v -26.183861 4.159469 -7.285793
v -21.619568 4.157830 -6.975132
v -27.123680 2.164954 0.000000
v -20.746304 1.951527 0.000000
v 33.013523 70.389709 0.000003
v 23.486982 128.530289 0.000006
v 0.000000 54.136314 0.000002
v 0.000000 124.040878 0.000005
v 30.937738 91.585640 0.000004
v 11.439317 125.069847 0.000005
v 30.806082 23.273184 0.000001
v 3.152180 54.617020 0.000002
v 27.629238 89.802307 -9.564469
v 28.348780 67.733253 -10.275991
v 9.873543 125.069847 -10.931001
v 18.108335 126.790688 -6.958005
v 3.152179 54.617020 -15.444086
v 0.000000 54.136314 -15.811285
v 0.000000 81.000191 -15.448882
v 0.000000 124.040878 -11.939176
v 14.312862 84.593613 -14.440708
v 16.785456 61.148239 -14.248987
v 30.192215 103.054817 0.000005
v 0.000000 98.017387 -14.504192
v 26.408680 104.430099 -9.077378
v 12.557668 100.596901 -13.496017
v 0.000000 120.899353 -12.248820
v 10.197567 122.115509 -11.240646
v 24.273354 125.802338 0.000005
v 18.810120 124.031158 -8.178877
v 28.187717 106.713982 -8.466890
v 49.996769 87.637093 -7.052487
v 34.724865 117.424149 -6.426776
v 35.352917 121.965546 0.000005
v 35.725346 101.306374 -5.733582
v 34.317612 98.657288 0.000004
v 41.796803 109.871979 -5.683107
v 44.796589 113.407204 0.000005
v 57.227882 94.138870 -7.005738
v 60.658627 96.721649 0.000004
v 48.185028 85.530502 0.000004
v 47.609318 84.249756 0.000004
v 49.714104 86.697075 -7.717401
v 62.100494 97.251038 0.000004
v 58.114845 94.250504 -7.663089
v 51.713512 80.576912 0.000004
v 53.852554 82.763832 -7.859655
v 66.207161 91.994034 0.000004
v 62.255711 89.397995 -7.808186
v 52.828705 80.798897 0.000004
v 55.059151 83.118034 -7.067915
v 65.727470 90.959686 0.000004
v 62.210842 88.649307 -7.432640
v 55.236595 76.894966 0.000003
v 56.849468 79.346100 -7.597317
v 69.300163 88.535576 0.000004
v 65.249062 85.874054 -8.205994
v 61.401978 68.493561 0.000003
v 62.662510 71.778015 -7.832061
v 75.770828 81.467720 0.000004
v 71.538010 78.686829 -8.679907
v 65.593475 67.752686 0.000003
v 67.526184 69.774620 -7.271199
v 77.478867 77.115181 0.000003
v 74.238510 74.986320 -7.856789
v 70.688728 66.303986 0.000003
v 71.621056 68.810036 -6.198240
v 78.151657 72.182777 0.000003
v 76.117012 70.846046 -6.489536
v 75.335510 68.159378 0.000003
v 57.602219 76.452431 -7.570849
v 56.155319 73.370216 0.000003
v 36.262711 10.808764 0.000000
v 0.000000 54.136314 -7.006126
v 29.943644 90.921837 -8.170959
v 3.152180 54.617020 -6.997568
v 26.136986 120.989403 -8.295534
v 32.272289 44.316593 0.000002
v 33.345890 19.397266 0.000001
v 5.208342 40.331928 0.000002
v 27.992558 43.547081 -9.584372
v 17.383625 41.639561 -12.802643
v 7.516738 40.552994 -13.717707
v 5.208342 40.331928 -6.928729
v 33.501060 5.711310 0.000000
v 8.115981 22.324932 0.000001
v 27.205940 23.008131 -8.987332
v 18.281637 22.351112 -11.659046
v 12.065239 22.333302 -12.038651
v 8.115981 22.324932 -6.782695
v 9.353714 11.536782 0.000001
v 28.851021 18.651161 -9.549214
v 20.064896 15.578069 -12.328293
v 14.283966 13.679044 -11.053849
v 10.139963 12.259809 -6.937751
v 14.368927 5.071004 0.000000
v 31.915115 11.224955 -9.117051
v 24.204683 8.940582 -11.518042
v 18.776533 7.743171 -10.660593
v 15.557023 6.377909 -6.804479
v 30.802071 7.343933 -7.502028
v 26.183861 4.159469 -7.285793
v 21.619568 4.157830 -6.975132
v 27.123680 2.164954 0.000000
v 20.746304 1.951527 0.000000
vn 0.2321 -0.4116 0.8813
vn -0.0000 -0.7078 0.7064
vn -0.0000 0.0299 0.9996
vn -0.7251 -0.0001 0.6886
vn -0.2141 -0.0208 0.9766
vn -0.1931 0.0429 0.9802
vn -0.3900 0.0504 0.9194
vn -0.4074 0.3334 0.8502
vn -0.1905 0.1638 0.9679
vn -0.0454 0.7514 0.6583
vn -0.2686 0.7877 0.5544
vn -0.0000 0.1052 0.9944
vn -0.0000 0.7161 0.6980
vn 0.7218 -0.6921 -0.0000
vn -0.0000 -1.0000 -0.0000
vn 0.6937 -0.7178 0.0590
vn -0.0000 1.0000 -0.0000
vn 0.1828 0.9831 -0.0000
vn 0.9722 -0.1855 0.1431
vn 0.9885 -0.1509 -0.0000
vn -0.9982 0.0598 -0.0000
vn -1.0000 0.0031 -0.0000
vn -0.8359 0.0560 0.5460
vn -0.9991 -0.0431 -0.0000
vn -0.7163 -0.0458 0.6963
vn -0.7085 -0.7057 -0.0000
vn -0.3279 -0.0749 0.9418
vn -0.6786 0.7345 -0.0000
vn -0.0000 0.0805 0.9968
vn -0.1805 0.0949 0.9790
vn -0.2868 0.0726 0.9552
vn -0.6373 0.7706 -0.0000
vn 0.6957 0.2230 0.6828
vn 0.1282 0.6932 0.7092
vn -0.0060 0.6457 0.7635
vn 0.7907 -0.0101 0.6122
vn -0.3803 0.3469 0.8574
vn -0.7089 0.7053 -0.0000
vn -0.0388 0.9992 -0.0000
vn 0.3385 -0.4655 0.8178
vn 0.6493 -0.7605 -0.0000
vn -0.2647 0.4911 0.8299
vn -0.4067 0.4314 0.8053
vn -0.5537 0.8327 -0.0000
vn 0.9981 -0.0622 -0.0000
vn -0.4705 0.8824 -0.0000
vn -0.9848 0.1736 -0.0000
vn -0.6969 -0.0313 0.7165
vn 0.9782 -0.2078 -0.0000
vn 0.0672 -0.6501 0.7568
vn -0.5618 -0.1306 0.8169
vn 0.0316 -0.6667 0.7446
vn 0.3350 -0.9422 -0.0000
vn -0.2976 0.4246 0.8551
vn 0.6112 -0.1941 0.7673
vn -0.9845 0.1753 -0.0000
vn 0.3295 -0.9442 -0.0000
vn -0.6795 0.7337 -0.0000
vn -0.8394 0.5436 -0.0000
vn -0.4471 0.2576 0.8566
vn 0.9381 -0.3462 -0.0000
vn -0.9462 0.3237 -0.0000
vn -0.6196 0.0845 0.7803
vn 0.8629 -0.5054 -0.0000
vn 0.6412 -0.3305 0.6925
vn 0.3126 -0.5337 0.7858
vn 0.5094 -0.8605 -0.0000
vn -0.9932 -0.1161 -0.0000
vn -0.7561 -0.3352 0.5620
vn 0.0919 -0.6429 0.7604
vn 0.2455 -0.9694 -0.0000
vn -0.1320 -0.7329 0.6674
vn -0.6003 -0.7998 -0.0000
vn -0.0462 -0.9989 -0.0000
vn -0.2053 -0.0565 0.9771
vn 0.6032 -0.1947 0.7734
vn -0.9742 0.2255 -0.0000
vn -0.6488 0.1449 0.7470
vn -0.1287 0.0009 0.9917
vn 0.4816 -0.1505 0.8633
vn 0.9433 -0.1832 0.2769
vn 0.9876 -0.1567 -0.0000
vn 0.8475 -0.3712 0.3795
vn 0.9194 -0.3934 -0.0000
vn -0.9183 0.3958 -0.0000
vn -0.6284 0.2816 0.7251
vn -0.0600 -0.0098 0.9982
vn 0.4440 -0.2691 0.8547
vn 0.5504 -0.7070 0.4441
vn 0.6230 -0.7822 -0.0000
vn -0.9985 -0.0554 -0.0000
vn -0.7444 -0.0848 0.6623
vn -0.1579 -0.3335 0.9294
vn 0.2582 -0.5270 0.8097
vn -0.7700 -0.6380 -0.0000
vn -0.5877 -0.5973 0.5458
vn -0.2470 -0.7973 0.5507
vn 0.1335 -0.8615 0.4899
vn -0.3012 -0.9536 -0.0000
vn 0.2181 -0.9759 -0.0000
vn -0.2321 -0.4116 0.8813
vn 0.7251 -0.0001 0.6886
vn 0.3900 0.0504 0.9194
vn 0.1931 0.0429 0.9802
vn 0.2141 -0.0208 0.9766
vn 0.4074 0.3334 0.8502
vn 0.2686 0.7877 0.5544
vn 0.0454 0.7514 0.6583
vn 0.1905 0.1638 0.9679
vn -0.7218 -0.6921 -0.0000
vn -0.6937 -0.7178 0.0590
vn -0.1828 0.9831 -0.0000
vn -0.9885 -0.1509 -0.0000
vn -0.9722 -0.1855 0.1431
vn 0.9982 0.0598 -0.0000
vn 0.8359 0.0560 0.5460
vn 1.0000 0.0031 -0.0000
vn 0.7163 -0.0458 0.6963
vn 0.9991 -0.0431 -0.0000
vn 0.7085 -0.7057 -0.0000
vn 0.3279 -0.0749 0.9418
vn 0.6786 0.7345 -0.0000
vn 0.1805 0.0949 0.9790
vn 0.2868 0.0726 0.9552
vn 0.6373 0.7706 -0.0000
vn -0.6957 0.2230 0.6828
vn -0.7907 -0.0101 0.6122
vn 0.0060 0.6457 0.7635
vn -0.1282 0.6932 0.7092
vn 0.3803 0.3469 0.8574
vn 0.0388 0.9992 -0.0000
vn 0.7089 0.7053 -0.0000
vn -0.6493 -0.7605 -0.0000
vn -0.3385 -0.4655 0.8178
vn 0.2647 0.4911 0.8299
vn 0.4067 0.4314 0.8053
vn 0.5537 0.8327 -0.0000
vn -0.9981 -0.0622 -0.0000
vn 0.6969 -0.0313 0.7165
vn 0.9848 0.1736 -0.0000
vn 0.4705 0.8824 -0.0000
vn -0.9782 -0.2078 -0.0000
vn -0.0672 -0.6501 0.7568
vn -0.0316 -0.6667 0.7446
vn 0.5618 -0.1306 0.8169
vn -0.3350 -0.9422 -0.0000
vn -0.6112 -0.1941 0.7673
vn 0.2976 0.4246 0.8551
vn 0.9845 0.1753 -0.0000
vn -0.3295 -0.9442 -0.0000
vn 0.4471 0.2576 0.8566
vn 0.8394 0.5436 -0.0000
vn 0.6795 0.7337 -0.0000
vn -0.9381 -0.3462 -0.0000
vn 0.6196 0.0845 0.7803
vn 0.9462 0.3237 -0.0000
vn -0.8629 -0.5054 -0.0000
vn -0.5094 -0.8605 -0.0000
vn -0.3126 -0.5337 0.7858
vn -0.6412 -0.3305 0.6925
vn 0.7561 -0.3352 0.5620
vn 0.9932 -0.1161 -0.0000
vn -0.2455 -0.9694 -0.0000
vn -0.0919 -0.6429 0.7604
vn 0.1320 -0.7329 0.6674
vn 0.6003 -0.7998 -0.0000
vn 0.0462 -0.9989 -0.0000
vn -0.6032 -0.1947 0.7734
vn 0.2053 -0.0565 0.9771
vn 0.6488 0.1449 0.7470
vn 0.9742 0.2255 -0.0000
vn -0.4816 -0.1505 0.8633
vn 0.1287 0.0009 0.9917
vn -0.9433 -0.1832 0.2769
vn -0.9876 -0.1567 -0.0000
vn -0.9194 -0.3934 -0.0000
vn -0.8475 -0.3712 0.3795
vn 0.6284 0.2816 0.7251
vn 0.9183 0.3958 -0.0000
vn -0.4440 -0.2691 0.8547
vn 0.0600 -0.0098 0.9982
vn -0.6230 -0.7822 -0.0000
vn -0.5504 -0.7070 0.4441
vn 0.7444 -0.0848 0.6623
vn 0.9985 -0.0554 -0.0000
vn -0.2582 -0.5270 0.8097
vn 0.1579 -0.3335 0.9294
vn 0.5877 -0.5973 0.5458
vn 0.7700 -0.6380 -0.0000
vn -0.1335 -0.8615 0.4899
vn 0.2470 -0.7973 0.5507
vn 0.3012 -0.9536 -0.0000
vn -0.2181 -0.9759 -0.0000
vn 0.2321 -0.4116 -0.8813
vn -0.0000 0.0299 -0.9996
vn -0.0000 -0.7078 -0.7064
vn -0.7251 -0.0001 -0.6886
vn -0.3900 0.0504 -0.9194
vn -0.1931 0.0429 -0.9802
vn -0.2141 -0.0208 -0.9766
vn -0.4074 0.3334 -0.8502
vn -0.2686 0.7877 -0.5544
vn -0.0454 0.7514 -0.6583
vn -0.1905 0.1638 -0.9679
vn -0.0000 0.7161 -0.6980
vn -0.0000 0.1052 -0.9944
vn 0.6937 -0.7178 -0.0590
vn 0.9722 -0.1855 -0.1431
vn -0.8359 0.0560 -0.5460
vn -0.7163 -0.0458 -0.6963
vn -0.3279 -0.0749 -0.9418
vn -0.1805 0.0949 -0.9790
vn -0.0000 0.0805 -0.9968
vn -0.2868 0.0726 -0.9552
vn 0.6957 0.2230 -0.6828
vn 0.7907 -0.0101 -0.6122
vn -0.0060 0.6457 -0.7635
vn 0.1282 0.6932 -0.7092
vn -0.3803 0.3469 -0.8574
vn 0.3385 -0.4655 -0.8178
vn -0.2647 0.4911 -0.8299
vn -0.4067 0.4314 -0.8053
vn -0.6969 -0.0313 -0.7165
vn 0.0672 -0.6501 -0.7568
vn 0.0316 -0.6667 -0.7446
vn -0.5618 -0.1306 -0.8169
vn 0.6112 -0.1941 -0.7673
vn -0.2976 0.4246 -0.8551
vn -0.4471 0.2576 -0.8566
vn -0.6196 0.0845 -0.7803
vn 0.3126 -0.5337 -0.7858
vn 0.6412 -0.3305 -0.6925
vn -0.7561 -0.3352 -0.5620
vn 0.0919 -0.6429 -0.7604
vn -0.1320 -0.7329 -0.6674
vn 0.6032 -0.1947 -0.7734
vn -0.2053 -0.0565 -0.9771
vn -0.6488 0.1449 -0.7470
vn 0.4816 -0.1505 -0.8633
vn -0.1287 0.0009 -0.9917
vn 0.9433 -0.1832 -0.2769
vn 0.8475 -0.3712 -0.3795
vn -0.6284 0.2816 -0.7251
vn 0.4440 -0.2691 -0.8547
vn -0.0600 -0.0098 -0.9982
vn 0.5504 -0.7070 -0.4441
vn -0.7444 -0.0848 -0.6623
vn 0.2582 -0.5270 -0.8097
vn -0.1579 -0.3335 -0.9294
vn -0.5877 -0.5973 -0.5458
vn 0.1335 -0.8615 -0.4899
vn -0.2470 -0.7973 -0.5507
vn -0.2321 -0.4116 -0.8813
vn 0.7251 -0.0001 -0.6886
vn 0.2141 -0.0208 -0.9766
vn 0.1931 0.0429 -0.9802
vn 0.3900 0.0504 -0.9194
vn 0.4074 0.3334 -0.8502
vn 0.1905 0.1638 -0.9679
vn 0.0454 0.7514 -0.6583
vn 0.2686 0.7877 -0.5544
vn -0.6937 -0.7178 -0.0590
vn -0.9722 -0.1855 -0.1431
vn 0.8359 0.0560 -0.5460
vn 0.7163 -0.0458 -0.6963
vn 0.3279 -0.0749 -0.9418
vn 0.1805 0.0949 -0.9790
vn 0.2868 0.0726 -0.9552
vn -0.6957 0.2230 -0.6828
vn -0.1282 0.6932 -0.7092
vn 0.0060 0.6457 -0.7635
vn -0.7907 -0.0101 -0.6122
vn 0.3803 0.3469 -0.8574
vn -0.3385 -0.4655 -0.8178
vn 0.2647 0.4911 -0.8299
vn 0.4067 0.4314 -0.8053
vn 0.6969 -0.0313 -0.7165
vn -0.0672 -0.6501 -0.7568
vn 0.5618 -0.1306 -0.8169
vn -0.0316 -0.6667 -0.7446
vn 0.2976 0.4246 -0.8551
vn -0.6112 -0.1941 -0.7673
vn 0.4471 0.2576 -0.8566
vn 0.6196 0.0845 -0.7803
vn -0.6412 -0.3305 -0.6925
vn -0.3126 -0.5337 -0.7858
vn 0.7561 -0.3352 -0.5620
vn -0.0919 -0.6429 -0.7604
vn 0.1320 -0.7329 -0.6674
vn 0.2053 -0.0565 -0.9771
vn -0.6032 -0.1947 -0.7734
vn 0.6488 0.1449 -0.7470
vn 0.1287 0.0009 -0.9917
vn -0.4816 -0.1505 -0.8633
vn -0.9433 -0.1832 -0.2769
vn -0.8475 -0.3712 -0.3795
vn 0.6284 0.2816 -0.7251
vn 0.0600 -0.0098 -0.9982
vn -0.4440 -0.2691 -0.8547
vn -0.5504 -0.7070 -0.4441
vn 0.7444 -0.0848 -0.6623
vn 0.1579 -0.3335 -0.9294
vn -0.2582 -0.5270 -0.8097
vn 0.5877 -0.5973 -0.5458
vn 0.2470 -0.7973 -0.5507
vn -0.1335 -0.8615 -0.4899
vt 0.354003 0.677370
vt 0.371755 0.677270
vt 0.371755 0.774195
vt 0.250117 0.750485
vt 0.292291 0.721230
vt 0.311516 0.788727
vt 0.258257 0.807996
vt 0.301202 0.901872
vt 0.333482 0.892130
vt 0.335285 0.899816
vt 0.304832 0.909314
vt 0.371755 0.887666
vt 0.371755 0.895946
vt 0.360928 0.626585
vt 0.371755 0.627691
vt 0.371755 0.646847
vt 0.358019 0.646098
vt 0.371755 0.927444
vt 0.329338 0.927694
vt 0.316910 0.629533
vt 0.325213 0.612637
vt 0.229006 0.814762
vt 0.220748 0.763047
vt 0.248928 0.811479
vt 0.206289 0.701393
vt 0.232984 0.690570
vt 0.231228 0.841179
vt 0.255396 0.857366
vt 0.284577 0.926623
vt 0.371755 0.824753
vt 0.320826 0.834004
vt 0.262628 0.849312
vt 0.278971 0.921458
vt 0.142433 0.859616
vt 0.130909 0.893072
vt 0.127009 0.894661
vt 0.140475 0.857629
vt 0.207839 0.894309
vt 0.203018 0.913940
vt 0.127501 0.918907
vt 0.215678 0.862431
vt 0.214085 0.844148
vt 0.272277 0.897760
vt 0.240373 0.898757
vt 0.240857 0.918065
vt 0.151164 0.840801
vt 0.121448 0.922265
vt 0.094919 0.919775
vt 0.105409 0.894031
vt 0.147901 0.837319
vt 0.123169 0.858296
vt 0.103772 0.892668
vt 0.118348 0.860609
vt 0.125098 0.835151
vt 0.089517 0.891285
vt 0.105519 0.857947
vt 0.092653 0.916544
vt 0.120324 0.836889
vt 0.077051 0.916106
vt 0.045360 0.907858
vt 0.062023 0.885987
vt 0.107830 0.835788
vt 0.034492 0.899084
vt 0.050574 0.882962
vt 0.097872 0.833047
vt 0.098118 0.854573
vt 0.077273 0.856835
vt 0.073221 0.834776
vt 0.026986 0.886362
vt 0.041601 0.878754
vt 0.061171 0.861758
vt 0.057382 0.841387
vt 0.048704 0.867445
vt 0.027958 0.869219
vt 0.039392 0.852659
vt 0.269706 0.670911
vt 0.304898 0.648544
vt 0.189782 0.652113
vt 0.213586 0.641293
vt 0.242991 0.627431
vt 0.262025 0.616720
vt 0.275547 0.603228
vt 0.284065 0.588302
vt 0.254942 0.591153
vt 0.259937 0.575801
vt 0.180676 0.642277
vt 0.206265 0.631769
vt 0.231043 0.615893
vt 0.245079 0.603594
vt 0.234374 0.588291
vt 0.236537 0.571655
vt 0.169932 0.619963
vt 0.194208 0.618152
vt 0.214242 0.607695
vt 0.227428 0.599073
vt 0.174811 0.604117
vt 0.193701 0.609172
vt 0.203756 0.598588
vt 0.215726 0.592040
vt 0.191682 0.585268
vt 0.212508 0.574924
vt 0.389507 0.677370
vt 0.493393 0.750485
vt 0.485253 0.807996
vt 0.431994 0.788727
vt 0.451219 0.721230
vt 0.442308 0.901872
vt 0.438678 0.909314
vt 0.408225 0.899816
vt 0.410028 0.892130
vt 0.382582 0.626585
vt 0.385491 0.646098
vt 0.414172 0.927694
vt 0.418297 0.612637
vt 0.426600 0.629533
vt 0.514504 0.814762
vt 0.494582 0.811479
vt 0.522762 0.763047
vt 0.510527 0.690570
vt 0.537221 0.701394
vt 0.512282 0.841179
vt 0.488114 0.857366
vt 0.458933 0.926623
vt 0.422684 0.834004
vt 0.480882 0.849312
vt 0.464539 0.921458
vt 0.601077 0.859616
vt 0.603036 0.857629
vt 0.616501 0.894661
vt 0.612602 0.893072
vt 0.535672 0.894309
vt 0.616009 0.918907
vt 0.540492 0.913940
vt 0.529426 0.844148
vt 0.527832 0.862431
vt 0.471233 0.897760
vt 0.503137 0.898758
vt 0.502653 0.918065
vt 0.592346 0.840801
vt 0.638101 0.894031
vt 0.648591 0.919775
vt 0.622063 0.922265
vt 0.595610 0.837319
vt 0.620341 0.858296
vt 0.625162 0.860609
vt 0.639739 0.892668
vt 0.618413 0.835151
vt 0.637991 0.857947
vt 0.653993 0.891285
vt 0.650857 0.916544
vt 0.623187 0.836889
vt 0.681487 0.885987
vt 0.698150 0.907858
vt 0.666459 0.916106
vt 0.635680 0.835788
vt 0.692937 0.882962
vt 0.709018 0.899085
vt 0.645639 0.833047
vt 0.670290 0.834776
vt 0.666237 0.856835
vt 0.645392 0.854573
vt 0.701909 0.878754
vt 0.716525 0.886363
vt 0.686128 0.841387
vt 0.682340 0.861758
vt 0.694806 0.867446
vt 0.715552 0.869219
vt 0.704119 0.852659
vt 0.438612 0.648545
vt 0.473804 0.670911
vt 0.529924 0.641293
vt 0.553728 0.652113
vt 0.481485 0.616720
vt 0.500519 0.627431
vt 0.467963 0.603228
vt 0.459445 0.588302
vt 0.483573 0.575801
vt 0.488569 0.591153
vt 0.537246 0.631769
vt 0.562834 0.642277
vt 0.498431 0.603594
vt 0.512468 0.615893
vt 0.506973 0.571655
vt 0.509136 0.588291
vt 0.549302 0.618152
vt 0.573578 0.619963
vt 0.516082 0.599073
vt 0.529269 0.607695
vt 0.549809 0.609173
vt 0.568700 0.604117
vt 0.527784 0.592040
vt 0.539754 0.598588
vt 0.551829 0.585268
vt 0.531002 0.574924
vt 0.686129 0.350792
vt 0.782954 0.368543
vt 0.686030 0.368543
vt 0.759245 0.246905
vt 0.816755 0.255046
vt 0.797486 0.308304
vt 0.729990 0.289079
vt 0.910631 0.297990
vt 0.918073 0.301621
vt 0.908576 0.332073
vt 0.900890 0.330270
vt 0.904705 0.368543
vt 0.896425 0.368543
vt 0.635345 0.357717
vt 0.654858 0.354807
vt 0.655606 0.368543
vt 0.636450 0.368543
vt 0.936204 0.368543
vt 0.936454 0.326126
vt 0.621396 0.322001
vt 0.638293 0.313699
vt 0.823522 0.225795
vt 0.820238 0.245716
vt 0.771807 0.217537
vt 0.699329 0.229772
vt 0.710153 0.203077
vt 0.849938 0.228016
vt 0.866126 0.252185
vt 0.935382 0.281365
vt 0.842764 0.317614
vt 0.833512 0.368543
vt 0.858072 0.259416
vt 0.930218 0.275759
vt 0.868375 0.139222
vt 0.866388 0.137263
vt 0.903420 0.123798
vt 0.901831 0.127697
vt 0.903068 0.204627
vt 0.927667 0.124290
vt 0.922699 0.199807
vt 0.852907 0.210873
vt 0.871190 0.212466
vt 0.906519 0.269065
vt 0.907517 0.237161
vt 0.926824 0.237646
vt 0.849560 0.147953
vt 0.902791 0.102198
vt 0.928534 0.091707
vt 0.931024 0.118236
vt 0.846079 0.144689
vt 0.867055 0.119957
vt 0.869368 0.115137
vt 0.901427 0.100560
vt 0.843911 0.121886
vt 0.866706 0.102307
vt 0.900045 0.086305
vt 0.925304 0.089442
vt 0.845649 0.117112
vt 0.894746 0.058812
vt 0.916617 0.042148
vt 0.924866 0.073839
vt 0.844547 0.104619
vt 0.891721 0.047362
vt 0.907844 0.031281
vt 0.841806 0.094660
vt 0.843535 0.070009
vt 0.865595 0.074062
vt 0.863333 0.094906
vt 0.887513 0.038390
vt 0.895122 0.023774
vt 0.850146 0.054170
vt 0.870517 0.057959
vt 0.876205 0.045492
vt 0.877979 0.024746
vt 0.861418 0.036180
vt 0.657304 0.301686
vt 0.679670 0.266495
vt 0.650052 0.210375
vt 0.660872 0.186571
vt 0.625479 0.258813
vt 0.636190 0.239779
vt 0.611987 0.272335
vt 0.597061 0.280854
vt 0.584561 0.256726
vt 0.599912 0.251730
vt 0.640528 0.203053
vt 0.651037 0.177464
vt 0.612354 0.241867
vt 0.624652 0.227831
vt 0.580414 0.233325
vt 0.597051 0.231163
vt 0.626912 0.190996
vt 0.628722 0.166720
vt 0.607833 0.224217
vt 0.616454 0.211030
vt 0.617932 0.190490
vt 0.612876 0.171599
vt 0.600799 0.212514
vt 0.607347 0.200544
vt 0.594028 0.188470
vt 0.583683 0.209296
vt 0.686129 0.386296
vt 0.759245 0.490182
vt 0.729990 0.448008
vt 0.797486 0.428783
vt 0.816755 0.482041
vt 0.910631 0.439097
vt 0.900890 0.406817
vt 0.908576 0.405014
vt 0.918073 0.435466
vt 0.635345 0.379370
vt 0.654858 0.382280
vt 0.936454 0.410961
vt 0.638293 0.423389
vt 0.621396 0.415086
vt 0.823522 0.511292
vt 0.771807 0.519550
vt 0.820238 0.491371
vt 0.710153 0.534010
vt 0.699329 0.507315
vt 0.849938 0.509071
vt 0.866126 0.484902
vt 0.935382 0.455722
vt 0.842764 0.419473
vt 0.858072 0.477671
vt 0.930218 0.461328
vt 0.868375 0.597865
vt 0.901831 0.609390
vt 0.903421 0.613289
vt 0.866388 0.599824
vt 0.903068 0.532460
vt 0.922699 0.537280
vt 0.927667 0.612797
vt 0.871190 0.524621
vt 0.852907 0.526214
vt 0.906519 0.468022
vt 0.907517 0.499926
vt 0.926824 0.499441
vt 0.849560 0.589134
vt 0.931025 0.618851
vt 0.928534 0.645380
vt 0.902791 0.634889
vt 0.846079 0.592398
vt 0.867055 0.617130
vt 0.901427 0.636527
vt 0.869369 0.621950
vt 0.843911 0.615201
vt 0.900045 0.650782
vt 0.866706 0.634779
vt 0.925304 0.647645
vt 0.845649 0.619975
vt 0.924866 0.663248
vt 0.916617 0.694939
vt 0.894746 0.678275
vt 0.844548 0.632468
vt 0.907844 0.705806
vt 0.891721 0.689725
vt 0.841806 0.642427
vt 0.863333 0.642180
vt 0.865595 0.663025
vt 0.843535 0.667077
vt 0.895122 0.713313
vt 0.887513 0.698697
vt 0.870517 0.679128
vt 0.850146 0.682917
vt 0.876205 0.691595
vt 0.877979 0.712340
vt 0.861418 0.700907
vt 0.679670 0.470592
vt 0.657304 0.435401
vt 0.660872 0.550516
vt 0.650052 0.526712
vt 0.636190 0.497308
vt 0.625479 0.478274
vt 0.611988 0.464752
vt 0.597061 0.456233
vt 0.599912 0.485357
vt 0.584561 0.480362
vt 0.651037 0.559623
vt 0.640528 0.534034
vt 0.624652 0.509256
vt 0.612354 0.495220
vt 0.597051 0.505924
vt 0.580414 0.503762
vt 0.628722 0.570367
vt 0.626912 0.546091
vt 0.616454 0.526057
vt 0.607833 0.512870
vt 0.612876 0.565488
vt 0.617932 0.546597
vt 0.607347 0.536543
vt 0.600799 0.524573
vt 0.594028 0.548617
vt 0.583683 0.527791
s 1
usemtl Material.004
f 5/1/1 60/2/2 61/3/3
f 2/4/4 7/5/5 6/6/6 1/7/7
f 11/8/8 10/9/9 3/10/10 4/11/11
f 7/5/5 5/1/1 61/3/3 6/6/6
f 10/9/9 68/12/12 62/13/13 3/10/10
f 120/14/14 210/15/15 92/16/15 34/17/16
f 211/18/17 118/19/18 3/10/10 62/13/13
f 120/14/14 34/17/16 39/20/19 182/21/20
f 117/22/21 115/23/22 2/4/4 33/24/23
f 2/4/4 115/23/22 180/25/24 36/26/25
f 128/27/26 117/22/21 33/24/23 12/28/27
f 118/19/18 116/29/28 4/11/11 3/10/10
f 6/6/6 61/3/3 65/30/29 9/31/30
f 1/7/7 6/6/6 9/31/30 8/32/31
f 116/29/28 132/33/32 11/8/8 4/11/11
f 9/31/30 65/30/29 68/12/12 10/9/9
f 8/32/31 9/31/30 10/9/9 11/8/8
f 13/34/33 17/35/34 19/36/35 18/37/36
f 16/38/37 141/39/38 143/40/39 17/35/34
f 128/27/26 12/28/27 15/41/40 139/42/41
f 11/8/8 132/33/32 35/43/42
f 12/28/27 14/44/43 16/38/37 15/41/40
f 14/44/43 137/45/44 141/39/38 16/38/37
f 139/42/41 15/41/40 13/34/33 144/46/45
f 15/41/40 16/38/37 17/35/34 13/34/33
f 19/36/35 147/47/46 151/48/47 21/49/48
f 144/46/45 13/34/33 18/37/36 145/50/49
f 17/35/34 143/40/39 147/47/46 19/36/35
f 20/51/50 21/49/48 23/52/51 22/53/52
f 145/50/49 18/37/36 20/51/50 149/54/53
f 18/37/36 19/36/35 21/49/48 20/51/50
f 22/53/52 23/52/51 25/55/54 24/56/55
f 21/49/48 151/48/47 155/57/56 23/52/51
f 149/54/53 20/51/50 22/53/52 153/58/57
f 25/55/54 159/59/58 163/60/59 27/61/60
f 23/52/51 155/57/56 159/59/58 25/55/54
f 153/58/57 22/53/52 24/56/55 157/62/61
f 27/61/60 163/60/59 167/63/62 29/64/63
f 175/65/64 32/66/65 26/67/66 161/68/67
f 32/66/65 25/55/54 27/61/60 26/67/66
f 29/64/63 167/63/62 171/69/68 31/70/69
f 161/68/67 26/67/66 28/71/70 165/72/71
f 26/67/66 27/61/60 29/64/63 28/71/70
f 30/73/72 31/70/69 173/74/73
f 165/72/71 28/71/70 30/73/72 169/75/74
f 28/71/70 29/64/63 31/70/69 30/73/72
f 157/62/61 24/56/55 32/66/65 175/65/64
f 31/70/69 171/69/68 173/74/73
f 169/75/74 30/73/72 173/74/73
f 24/56/55 25/55/54 32/66/65
f 11/8/8 35/43/42 12/28/27 8/32/31
f 33/24/23 2/4/4 1/7/7
f 34/17/16 92/16/15 60/2/2 5/1/1
f 5/1/1 7/5/5 37/76/75 38/77/76
f 12/28/27 33/24/23 1/7/7 8/32/31
f 12/28/27 35/43/42 14/44/43
f 35/43/42 132/33/32 137/45/44 14/44/43
f 36/26/25 180/25/24 119/78/77 40/79/78
f 38/77/76 37/76/75 41/80/79 42/81/80
f 39/20/19 38/77/76 42/81/80 43/82/81
f 7/5/5 2/4/4 36/26/25 37/76/75
f 34/17/16 5/1/1 38/77/76 39/20/19
f 188/83/82 43/82/81 47/84/83 193/85/84
f 40/79/78 119/78/77 181/86/85 44/87/86
f 42/81/80 41/80/79 45/88/87 46/89/88
f 182/21/20 39/20/19 43/82/81 188/83/82
f 37/76/75 36/26/25 40/79/78 41/80/79
f 193/85/84 47/84/83 51/90/89 198/91/90
f 44/87/86 181/86/85 176/92/91 48/93/92
f 46/89/88 45/88/87 49/94/93 50/95/94
f 41/80/79 40/79/78 44/87/86 45/88/87
f 43/82/81 42/81/80 46/89/88 47/84/83
f 48/93/92 176/92/91 187/96/95 52/97/96
f 50/95/94 49/94/93 53/98/97 54/99/98
f 45/88/87 44/87/86 48/93/92 49/94/93
f 47/84/83 46/89/88 50/95/94 51/90/89
f 49/94/93 48/93/92 52/97/96 53/98/97
f 54/99/98 51/90/89 50/95/94
f 187/96/95 206/100/99 53/98/97 52/97/96
f 54/99/98 53/98/97 206/100/99 207/101/100
f 198/91/90 51/90/89 54/99/98 207/101/100
f 59/102/101 61/3/3 60/2/2
f 56/103/102 55/104/103 63/105/104 64/106/105
f 70/107/106 58/108/107 57/109/108 69/110/109
f 64/106/105 63/105/104 61/3/3 59/102/101
f 69/110/109 57/109/108 62/13/13 68/12/12
f 215/111/110 94/112/111 92/16/15 210/15/15
f 211/18/17 62/13/13 57/109/108 213/113/112
f 215/111/110 283/114/113 99/115/114 94/112/111
f 212/116/115 93/117/116 56/103/102 208/118/117
f 56/103/102 96/119/118 281/120/119 208/118/117
f 226/121/120 71/122/121 93/117/116 212/116/115
f 213/113/112 57/109/108 58/108/107 209/123/122
f 63/105/104 67/124/123 65/30/29 61/3/3
f 55/104/103 66/125/124 67/124/123 63/105/104
f 209/123/122 58/108/107 70/107/106 232/126/125
f 67/124/123 69/110/109 68/12/12 65/30/29
f 66/125/124 70/107/106 69/110/109 67/124/123
f 72/127/126 77/128/127 78/129/128 76/130/129
f 75/131/130 76/130/129 243/132/131 241/133/132
f 226/121/120 239/134/133 74/135/134 71/122/121
f 70/107/106 95/136/135 232/126/125
f 71/122/121 74/135/134 75/131/130 73/137/136
f 73/137/136 75/131/130 241/133/132 237/138/137
f 239/134/133 244/139/138 72/127/126 74/135/134
f 74/135/134 72/127/126 76/130/129 75/131/130
f 78/129/128 80/140/139 251/141/140 247/142/141
f 244/139/138 245/143/142 77/128/127 72/127/126
f 76/130/129 78/129/128 247/142/141 243/132/131
f 79/144/143 81/145/144 82/146/145 80/140/139
f 245/143/142 249/147/146 79/144/143 77/128/127
f 77/128/127 79/144/143 80/140/139 78/129/128
f 81/145/144 83/148/147 84/149/148 82/146/145
f 80/140/139 82/146/145 255/150/149 251/141/140
f 249/147/146 253/151/150 81/145/144 79/144/143
f 84/149/148 86/152/151 263/153/152 259/154/153
f 82/146/145 84/149/148 259/154/153 255/150/149
f 253/151/150 257/155/154 83/148/147 81/145/144
f 86/152/151 88/156/155 267/157/156 263/153/152
f 275/158/157 261/159/158 85/160/159 91/161/160
f 91/161/160 85/160/159 86/152/151 84/149/148
f 88/156/155 90/162/161 271/163/162 267/157/156
f 261/159/158 265/164/163 87/165/164 85/160/159
f 85/160/159 87/165/164 88/156/155 86/152/151
f 89/166/165 273/167/166 90/162/161
f 265/164/163 269/168/167 89/166/165 87/165/164
f 87/165/164 89/166/165 90/162/161 88/156/155
f 257/155/154 275/158/157 91/161/160 83/148/147
f 90/162/161 273/167/166 271/163/162
f 269/168/167 273/167/166 89/166/165
f 83/148/147 91/161/160 84/149/148
f 70/107/106 66/125/124 71/122/121 95/136/135
f 93/117/116 55/104/103 56/103/102
f 94/112/111 59/102/101 60/2/2 92/16/15
f 59/102/101 98/169/168 97/170/169 64/106/105
f 71/122/121 66/125/124 55/104/103 93/117/116
f 71/122/121 73/137/136 95/136/135
f 95/136/135 73/137/136 237/138/137 232/126/125
f 96/119/118 100/171/170 214/172/171 281/120/119
f 98/169/168 102/173/172 101/174/173 97/170/169
f 99/115/114 103/175/174 102/173/172 98/169/168
f 64/106/105 97/170/169 96/119/118 56/103/102
f 94/112/111 99/115/114 98/169/168 59/102/101
f 289/176/175 294/177/176 107/178/177 103/175/174
f 100/171/170 104/179/178 282/180/179 214/172/171
f 102/173/172 106/181/180 105/182/181 101/174/173
f 283/114/113 289/176/175 103/175/174 99/115/114
f 97/170/169 101/174/173 100/171/170 96/119/118
f 294/177/176 299/183/182 111/184/183 107/178/177
f 104/179/178 108/185/184 276/186/185 282/180/179
f 106/181/180 110/187/186 109/188/187 105/182/181
f 101/174/173 105/182/181 104/179/178 100/171/170
f 103/175/174 107/178/177 106/181/180 102/173/172
f 108/185/184 112/189/188 288/190/189 276/186/185
f 110/187/186 114/191/190 113/192/191 109/188/187
f 105/182/181 109/188/187 108/185/184 104/179/178
f 107/178/177 111/184/183 110/187/186 106/181/180
f 109/188/187 113/192/191 112/189/188 108/185/184
f 114/191/190 110/187/186 111/184/183
f 288/190/189 112/189/188 113/192/191 307/193/192
f 114/191/190 308/194/193 307/193/192 113/192/191
f 299/183/182 308/194/193 114/191/190 111/184/183
f 125/195/194 222/196/195 221/197/196
f 122/198/197 121/199/198 126/200/199 127/201/200
f 133/202/201 124/203/202 123/204/203 131/205/204
f 127/201/200 126/200/199 222/196/195 125/195/194
f 131/205/204 123/204/203 223/206/205 230/207/206
f 120/208/14 178/209/207 277/210/15 210/211/15
f 211/212/17 223/206/205 123/204/203 118/213/18
f 120/208/14 182/214/20 186/215/208 178/209/207
f 117/216/21 177/217/209 122/198/197 115/218/22
f 122/198/197 183/219/210 180/220/24 115/218/22
f 128/221/26 134/222/211 177/217/209 117/216/21
f 118/213/18 123/204/203 124/203/202 116/223/28
f 126/200/199 130/224/212 227/225/213 222/196/195
f 121/199/198 129/226/214 130/224/212 126/200/199
f 116/223/28 124/203/202 133/202/201 132/227/32
f 130/224/212 131/205/204 230/207/206 227/225/213
f 129/226/214 133/202/201 131/205/204 130/224/212
f 135/228/215 146/229/216 148/230/217 142/231/218
f 140/232/219 142/231/218 143/233/39 141/234/38
f 128/221/26 139/235/41 138/236/220 134/222/211
f 133/202/201 179/237/221 132/227/32
f 134/222/211 138/236/220 140/232/219 136/238/222
f 136/238/222 140/232/219 141/234/38 137/239/44
f 139/235/41 144/240/45 135/228/215 138/236/220
f 138/236/220 135/228/215 142/231/218 140/232/219
f 148/230/217 152/241/223 151/242/47 147/243/46
f 144/240/45 145/244/49 146/229/216 135/228/215
f 142/231/218 148/230/217 147/243/46 143/233/39
f 150/245/224 154/246/225 156/247/226 152/241/223
f 145/244/49 149/248/53 150/245/224 146/229/216
f 146/229/216 150/245/224 152/241/223 148/230/217
f 154/246/225 158/249/227 160/250/228 156/247/226
f 152/241/223 156/247/226 155/251/56 151/242/47
f 149/248/53 153/252/57 154/246/225 150/245/224
f 160/250/228 164/253/229 163/254/59 159/255/58
f 156/247/226 160/250/228 159/255/58 155/251/56
f 153/252/57 157/256/61 158/249/227 154/246/225
f 164/253/229 168/257/230 167/258/62 163/254/59
f 175/259/64 161/260/67 162/261/231 174/262/232
f 174/262/232 162/261/231 164/253/229 160/250/228
f 168/257/230 172/263/233 171/264/68 167/258/62
f 161/260/67 165/265/71 166/266/234 162/261/231
f 162/261/231 166/266/234 168/257/230 164/253/229
f 170/267/235 173/268/73 172/263/233
f 165/265/71 169/269/74 170/267/235 166/266/234
f 166/266/234 170/267/235 172/263/233 168/257/230
f 157/256/61 175/259/64 174/262/232 158/249/227
f 172/263/233 173/268/73 171/264/68
f 169/269/74 173/268/73 170/267/235
f 158/249/227 174/262/232 160/250/228
f 133/202/201 129/226/214 134/222/211 179/237/221
f 177/217/209 121/199/198 122/198/197
f 178/209/207 125/195/194 221/197/196 277/210/15
f 125/195/194 185/270/236 184/271/237 127/201/200
f 134/222/211 129/226/214 121/199/198 177/217/209
f 134/222/211 136/238/222 179/237/221
f 179/237/221 136/238/222 137/239/44 132/227/32
f 183/219/210 189/272/238 119/273/77 180/220/24
f 185/270/236 191/274/239 190/275/240 184/271/237
f 186/215/208 192/276/241 191/274/239 185/270/236
f 127/201/200 184/271/237 183/219/210 122/198/197
f 178/209/207 186/215/208 185/270/236 125/195/194
f 188/277/82 193/278/84 197/279/242 192/276/241
f 189/272/238 194/280/243 181/281/85 119/273/77
f 191/274/239 196/282/244 195/283/245 190/275/240
f 182/214/20 188/277/82 192/276/241 186/215/208
f 184/271/237 190/275/240 189/272/238 183/219/210
f 193/278/84 198/284/90 202/285/246 197/279/242
f 194/280/243 199/286/247 176/287/91 181/281/85
f 196/282/244 201/288/248 200/289/249 195/283/245
f 190/275/240 195/283/245 194/280/243 189/272/238
f 192/276/241 197/279/242 196/282/244 191/274/239
f 199/286/247 203/290/250 187/291/95 176/287/91
f 201/288/248 205/292/251 204/293/252 200/289/249
f 195/283/245 200/289/249 199/286/247 194/280/243
f 197/279/242 202/285/246 201/288/248 196/282/244
f 200/289/249 204/293/252 203/290/250 199/286/247
f 205/292/251 201/288/248 202/285/246
f 187/291/95 203/290/250 204/293/252 206/294/99
f 205/292/251 207/295/100 206/294/99 204/293/252
f 198/284/90 207/295/100 205/292/251 202/285/246
f 220/296/253 221/197/196 222/196/195
f 217/297/254 225/298/255 224/299/256 216/300/257
f 233/301/258 231/302/259 218/303/260 219/304/261
f 225/298/255 220/296/253 222/196/195 224/299/256
f 231/302/259 230/207/206 223/206/205 218/303/260
f 215/305/110 210/211/15 277/210/15 279/306/262
f 211/212/17 213/307/112 218/303/260 223/206/205
f 215/305/110 279/306/262 287/308/263 283/309/113
f 212/310/115 208/311/117 217/297/254 278/312/264
f 217/297/254 208/311/117 281/313/119 284/314/265
f 226/315/120 212/310/115 278/312/264 234/316/266
f 213/307/112 209/317/122 219/304/261 218/303/260
f 224/299/256 222/196/195 227/225/213 229/318/267
f 216/300/257 224/299/256 229/318/267 228/319/268
f 209/317/122 232/320/125 233/301/258 219/304/261
f 229/318/267 227/225/213 230/207/206 231/302/259
f 228/319/268 229/318/267 231/302/259 233/301/258
f 235/321/269 242/322/270 248/323/271 246/324/272
f 240/325/273 241/326/132 243/327/131 242/322/270
f 226/315/120 234/316/266 238/328/274 239/329/133
f 233/301/258 232/320/125 280/330/275
f 234/316/266 236/331/276 240/325/273 238/328/274
f 236/331/276 237/332/137 241/326/132 240/325/273
f 239/329/133 238/328/274 235/321/269 244/333/138
f 238/328/274 240/325/273 242/322/270 235/321/269
f 248/323/271 247/334/141 251/335/140 252/336/277
f 244/333/138 235/321/269 246/324/272 245/337/142
f 242/322/270 243/327/131 247/334/141 248/323/271
f 250/338/278 252/336/277 256/339/279 254/340/280
f 245/337/142 246/324/272 250/338/278 249/341/146
f 246/324/272 248/323/271 252/336/277 250/338/278
f 254/340/280 256/339/279 260/342/281 258/343/282
f 252/336/277 251/335/140 255/344/149 256/339/279
f 249/341/146 250/338/278 254/340/280 253/345/150
f 260/342/281 259/346/153 263/347/152 264/348/283
f 256/339/279 255/344/149 259/346/153 260/342/281
f 253/345/150 254/340/280 258/343/282 257/349/154
f 264/348/283 263/347/152 267/350/156 268/351/284
f 275/352/157 274/353/285 262/354/286 261/355/158
f 274/353/285 260/342/281 264/348/283 262/354/286
f 268/351/284 267/350/156 271/356/162 272/357/287
f 261/355/158 262/354/286 266/358/288 265/359/163
f 262/354/286 264/348/283 268/351/284 266/358/288
f 270/360/289 272/357/287 273/361/166
f 265/359/163 266/358/288 270/360/289 269/362/167
f 266/358/288 268/351/284 272/357/287 270/360/289
f 257/349/154 258/343/282 274/353/285 275/352/157
f 272/357/287 271/356/162 273/361/166
f 269/362/167 270/360/289 273/361/166
f 258/343/282 260/342/281 274/353/285
f 233/301/258 280/330/275 234/316/266 228/319/268
f 278/312/264 217/297/254 216/300/257
f 279/306/262 277/210/15 221/197/196 220/296/253
f 220/296/253 225/298/255 285/363/290 286/364/291
f 234/316/266 278/312/264 216/300/257 228/319/268
f 234/316/266 280/330/275 236/331/276
f 280/330/275 232/320/125 237/332/137 236/331/276
f 284/314/265 281/313/119 214/365/171 290/366/292
f 286/364/291 285/363/290 291/367/293 292/368/294
f 287/308/263 286/364/291 292/368/294 293/369/295
f 225/298/255 217/297/254 284/314/265 285/363/290
f 279/306/262 220/296/253 286/364/291 287/308/263
f 289/370/175 293/369/295 298/371/296 294/372/176
f 290/366/292 214/365/171 282/373/179 295/374/297
f 292/368/294 291/367/293 296/375/298 297/376/299
f 283/309/113 287/308/263 293/369/295 289/370/175
f 285/363/290 284/314/265 290/366/292 291/367/293
f 294/372/176 298/371/296 303/377/300 299/378/182
f 295/374/297 282/373/179 276/379/185 300/380/301
f 297/376/299 296/375/298 301/381/302 302/382/303
f 291/367/293 290/366/292 295/374/297 296/375/298
f 293/369/295 292/368/294 297/376/299 298/371/296
f 300/380/301 276/379/185 288/383/189 304/384/304
f 302/382/303 301/381/302 305/385/305 306/386/306
f 296/375/298 295/374/297 300/380/301 301/381/302
f 298/371/296 297/376/299 302/382/303 303/377/300
f 301/381/302 300/380/301 304/384/304 305/385/305
f 306/386/306 303/377/300 302/382/303
f 288/383/189 307/387/192 305/385/305 304/384/304
f 306/386/306 305/385/305 307/387/192 308/388/193
f 299/378/182 303/377/300 306/386/306 308/388/193
o Face
v -0.513257 124.361328 -10.809843
v -12.668850 125.759132 -7.643713
v -17.703861 125.759132 0.000000
v -12.668850 125.759132 7.643713
v -0.513256 124.361328 10.809843
v 11.642336 125.759132 7.643713
v 16.677347 125.759132 -0.000000
v 11.642338 125.759132 -7.643713
v -24.628630 131.233887 -20.329182
v -0.513258 131.233887 -28.749805
v -34.617546 131.233887 0.000001
v -24.628630 131.233887 20.329182
v -0.513255 131.233887 28.749805
v 23.602116 131.233887 20.329184
v 33.591034 131.233887 -0.000001
v 23.602119 131.233887 -20.329182
v -33.432064 140.472534 -27.750448
v -47.067482 140.472534 0.000001
v -33.432064 140.472534 27.750448
v -0.513254 140.472534 39.245056
v 32.405548 140.472534 27.750448
v 46.040966 140.472534 -0.000001
v 32.405552 140.472534 -27.750448
v -60.162346 154.753799 0.000001
v -40.519821 159.463058 33.725407
v -0.513254 159.463058 47.694931
v 39.493309 159.463058 33.725407
v 59.700054 155.431519 -0.000001
v -57.766636 178.800964 22.181324
v -43.039665 178.186707 35.849625
v -0.513253 178.186707 52.955490
v 42.013153 178.186707 35.849625
v 56.719852 179.701721 22.767023
v -0.513257 123.650322 -0.000000
v -60.895939 201.226700 22.253386
v -40.817207 200.113083 42.093468
v -0.513254 200.113083 56.166836
v 39.790691 200.113083 42.093468
v 55.199913 202.692047 29.369534
v -51.822357 227.042664 17.627644
v -33.071350 236.916916 30.723063
v -0.513254 236.916916 42.091724
v 32.044834 236.916916 30.723063
v 49.964558 227.061172 22.739300
v 6.620115 125.060226 11.679043
v 13.638577 131.233887 26.991762
v 18.804770 140.472534 35.950020
v 22.964142 159.463058 43.162437
v 24.442884 178.186707 46.854824
v 23.138660 200.113083 49.961143
v 18.593088 236.916916 35.723534
v -7.646627 125.060226 11.679043
v -14.665089 131.233887 26.991762
v -19.831282 140.472534 35.950020
v -23.990652 159.463058 43.162437
v -25.469393 178.186707 46.854824
v -24.165169 200.113083 49.961143
v -19.619600 236.916916 35.723534
vn -0.2391 -0.9710 -0.0000
vn -0.1781 -0.9671 -0.1818
vn -0.0000 -1.0000 -0.0071
vn -0.1972 -0.9704 0.1391
vn -0.0000 -0.9819 0.1894
vn -0.1261 -0.9697 0.2093
vn 0.1972 -0.9704 0.1391
vn 0.1261 -0.9697 0.2093
vn -0.0000 -0.9763 -0.2163
vn 0.2391 -0.9710 -0.0000
vn 0.1781 -0.9671 -0.1818
vn -0.3754 -0.8891 -0.2618
vn -0.4884 -0.8726 -0.0000
vn -0.6816 -0.7032 0.2023
vn -0.5719 -0.7707 -0.2810
vn -0.3805 -0.8619 0.3351
vn -0.5592 -0.6226 0.5474
vn -0.1865 -0.8515 0.4900
vn -0.0000 -0.8447 0.5352
vn -0.0000 -0.5702 0.8215
vn -0.2839 -0.5812 0.7626
vn 0.1865 -0.8515 0.4900
vn 0.3805 -0.8619 0.3351
vn 0.5589 -0.6229 0.5474
vn 0.2839 -0.5812 0.7626
vn 0.4884 -0.8726 -0.0000
vn 0.6810 -0.7038 0.2025
vn 0.3754 -0.8891 -0.2618
vn 0.5719 -0.7707 -0.2810
vn -0.0000 -0.9453 -0.3262
vn -0.6334 -0.3634 0.6832
vn -0.7444 -0.4527 0.4909
vn -0.0000 -0.3169 0.9485
vn -0.3448 -0.3081 0.8867
vn 0.6326 -0.3638 0.6837
vn 0.3448 -0.3081 0.8867
vn 0.7433 -0.4518 0.4933
vn -0.0000 -0.1867 0.9824
vn -0.3666 -0.1761 0.9136
vn 0.6155 -0.2095 0.7598
vn 0.3666 -0.1761 0.9136
vn 0.7164 -0.2588 0.6479
vn -0.6270 -0.1970 0.7537
vn -0.7307 -0.2345 0.6412
vn -0.5630 0.1095 0.8192
vn -0.6900 0.1237 0.7131
vn -0.0000 0.1179 0.9930
vn -0.3465 0.1131 0.9312
vn 0.5290 0.0917 0.8436
vn 0.3465 0.1131 0.9312
vn 0.6219 0.0974 0.7771
vn -0.4928 0.3595 0.7924
vn -0.6509 0.3473 0.6750
vn -0.0000 0.3736 0.9276
vn -0.3158 0.3606 0.8776
vn 0.4406 0.3542 0.8249
vn 0.3158 0.3606 0.8776
vn 0.5487 0.3410 0.7633
vt 0.210570 0.134128
vt 0.225139 0.105243
vt 0.269019 0.129771
vt 0.230541 0.157638
vt 0.269326 0.164512
vt 0.247496 0.168827
vt 0.307992 0.156955
vt 0.291230 0.168444
vt 0.268695 0.093292
vt 0.327544 0.133087
vt 0.312458 0.104466
vt 0.169312 0.060444
vt 0.148789 0.147083
vt 0.089811 0.165631
vt 0.111283 0.036973
vt 0.197689 0.203753
vt 0.171275 0.240232
vt 0.229696 0.218826
vt 0.269820 0.221747
vt 0.270140 0.260696
vt 0.215448 0.255629
vt 0.309908 0.218153
vt 0.341682 0.202510
vt 0.368799 0.238576
vt 0.324795 0.254761
vt 0.389546 0.144919
vt 0.448833 0.162359
vt 0.367463 0.058680
vt 0.425032 0.034170
vt 0.268031 0.018837
vt 0.139224 0.299494
vt 0.032064 0.210854
vt 0.270594 0.321013
vt 0.198739 0.314218
vt 0.402070 0.297511
vt 0.342487 0.313267
vt 0.505041 0.208544
vt 0.270904 0.379738
vt 0.189429 0.374012
vt 0.422358 0.359648
vt 0.352687 0.373331
vt 0.505041 0.344408
vt 0.120304 0.361279
vt 0.032064 0.344197
vt 0.127933 0.431779
vt 0.032064 0.427085
vt 0.271031 0.435998
vt 0.191394 0.435035
vt 0.415698 0.431687
vt 0.351167 0.434978
vt 0.505041 0.433286
vt 0.128390 0.528729
vt 0.032064 0.502278
vt 0.270479 0.529335
vt 0.186854 0.529854
vt 0.412917 0.529783
vt 0.354186 0.530439
vt 0.505041 0.502033
s 1
usemtl Material.002
f 311/389/307 310/390/308 342/391/309
f 312/392/310 311/389/307 342/391/309
f 313/393/311 360/394/312 312/392/310 342/391/309
f 314/395/313 353/396/314 313/393/311 342/391/309
f 310/390/308 309/397/315 342/391/309
f 315/398/316 314/395/313 342/391/309
f 316/399/317 315/398/316 342/391/309
f 309/397/315 316/399/317 342/391/309
f 317/400/318 319/401/319 326/402/320 325/403/321
f 319/401/319 320/404/322 327/405/323 326/402/320
f 361/406/324 321/407/325 328/408/326 362/409/327
f 354/410/328 322/411/329 329/412/330 355/413/331
f 322/411/329 323/414/332 330/415/333 329/412/330
f 323/414/332 324/416/334 331/417/335 330/415/333
f 316/399/317 309/397/315 318/418/336 324/416/334
f 315/398/316 316/399/317 324/416/334 323/414/332
f 314/395/313 315/398/316 323/414/332 322/411/329
f 309/397/315 310/390/308 317/400/318 318/418/336
f 353/396/314 314/395/313 322/411/329 354/410/328
f 360/394/312 313/393/311 321/407/325 361/406/324
f 311/389/307 312/392/310 320/404/322 319/401/319
f 310/390/308 311/389/307 319/401/319 317/400/318
f 326/402/320 327/405/323 333/419/337 332/420/338
f 362/409/327 328/408/326 334/421/339 363/422/340
f 355/413/331 329/412/330 335/423/341 356/424/342
f 329/412/330 330/415/333 336/425/343 335/423/341
f 363/422/340 334/421/339 339/426/344 364/427/345
f 356/424/342 335/423/341 340/428/346 357/429/347
f 335/423/341 336/425/343 341/430/348 340/428/346
f 332/420/338 333/419/337 338/431/349 337/432/350
f 337/432/350 338/431/349 344/433/351 343/434/352
f 364/427/345 339/426/344 345/435/353 365/436/354
f 357/429/347 340/428/346 346/437/355 358/438/356
f 340/428/346 341/430/348 347/439/357 346/437/355
f 343/434/352 344/433/351 349/440/358 348/441/359
f 365/436/354 345/435/353 350/442/360 366/443/361
f 358/438/356 346/437/355 351/444/362 359/445/363
f 346/437/355 347/439/357 352/446/364 351/444/362
f 345/435/353 358/438/356 359/445/363 350/442/360
f 339/426/344 357/429/347 358/438/356 345/435/353
f 334/421/339 356/424/342 357/429/347 339/426/344
f 328/408/326 355/413/331 356/424/342 334/421/339
f 313/393/311 353/396/314 354/410/328 321/407/325
f 321/407/325 354/410/328 355/413/331 328/408/326
f 344/433/351 365/436/354 366/443/361 349/440/358
f 338/431/349 364/427/345 365/436/354 344/433/351
f 333/419/337 363/422/340 364/427/345 338/431/349
f 327/405/323 362/409/327 363/422/340 333/419/337
f 312/392/310 360/394/312 361/406/324 320/404/322
f 320/404/322 361/406/324 362/409/327 327/405/323
o Hair
v -31.087284 133.828217 -29.880636
v -0.647856 133.828217 -40.509499
v -51.145809 169.894409 -46.789913
v -43.695713 133.828217 -4.220295
v -31.087284 133.828217 21.440044
v -39.875404 185.738190 49.468040
v 39.201813 137.160904 21.440048
v 47.803139 133.259460 -4.220297
v 29.791580 133.828217 -29.880636
v -42.199345 145.631699 -39.248070
v -0.647856 145.631699 -53.757046
v -55.784374 193.816147 -50.700207
v -62.151058 150.887100 -4.220295
v -42.903923 149.335190 31.942705
v -57.609245 193.406998 39.622723
v 43.585678 148.906631 30.807476
v 66.502090 151.833832 -4.220297
v 41.330200 145.347336 -39.248070
v -0.647856 169.894409 -64.422829
v -52.267605 218.512802 -47.279903
v -70.018181 169.486511 -4.220294
v -46.880177 170.235657 38.349319
v -27.428236 206.891678 49.700016
v 48.035717 171.154785 36.765484
v 76.074173 169.599579 -4.220298
v 49.850109 169.894409 -46.789913
v -0.647857 193.816147 -69.952820
v -41.744038 240.207962 -38.864243
v -78.622681 193.816147 -4.220294
v -53.922436 206.891678 40.448750
v -0.934037 206.891678 58.951279
v 51.794445 209.277542 39.076828
v 80.275375 194.700668 -4.220298
v 54.488682 193.816147 -50.700207
v -1.188398 218.512802 -65.115784
v -73.425316 218.512802 -4.220295
v -52.267605 218.512802 38.839310
v -1.188391 218.512802 56.675190
v 49.890808 218.512802 38.839310
v 71.048523 218.512802 -4.220299
v 49.890823 218.512802 -47.279903
v -0.647856 240.207962 -53.214249
v -16.205509 259.509613 -17.635410
v -58.766647 240.207962 -4.220295
v -41.744038 240.207962 30.423651
v -0.647851 240.207962 44.773655
v 40.448326 240.207962 30.423651
v 57.470936 240.207962 -4.220298
v 40.448341 240.207962 -38.864243
v -28.387903 253.788773 -27.605066
v -0.647855 253.788773 -37.291363
v -0.200054 262.798920 -4.220296
v -39.878216 253.788773 -4.220295
v -28.387903 253.788773 19.164474
v -0.647852 253.788773 28.850773
v 27.092192 253.788773 19.164474
v 38.582508 253.788773 -4.220297
v 27.092201 253.788773 -27.605066
v -0.291909 259.509613 -23.192139
v -22.797142 259.509613 -4.220295
v -16.205509 259.509613 9.194818
v -0.291907 259.509613 14.751544
v 15.621692 259.509613 9.194818
v 22.213327 259.509613 -4.220297
v 15.621698 259.509613 -17.635410
v -0.647855 129.228897 -28.648060
v 21.884079 130.164337 -21.493332
v 37.899937 130.242844 -4.220297
v 32.615303 130.105103 15.393371
v -23.179785 130.164337 -21.493332
v -33.035774 179.971329 49.549835
v -23.179785 130.164337 13.052739
v -32.512821 130.164337 -4.220295
v -43.331303 174.526840 45.930519
v -56.158054 178.055283 37.043980
v -50.229023 163.230835 32.059105
v 20.898643 209.593246 51.228428
v -25.976151 197.649490 50.030869
v 9.026945 195.943222 58.430283
v 17.448090 195.232285 54.126991
v 9.256260 178.525223 55.647449
v -22.294380 189.996445 50.607277
v 7.904554 188.524368 57.853874
v -14.206289 189.602173 53.643246
v -13.984703 180.130539 51.577694
v 5.545654 178.682144 56.663799
v -10.120064 179.146912 53.439278
v -1.728992 166.881989 53.239017
v 55.377247 199.137817 37.180717
v 22.164349 200.016312 51.461830
v 57.327511 191.163239 35.652485
v 22.153475 188.062912 51.759102
v 29.509569 185.943008 49.044380
v 21.565889 180.035767 50.353836
v 36.937634 182.002838 47.386707
v 27.848181 176.080826 47.821259
v 58.470005 182.544983 33.832947
v 41.828049 175.276260 43.944054
v 57.666031 175.171829 32.679325
v 49.519222 169.825729 38.284687
v 55.376900 165.745682 30.173229
v -34.214191 137.149689 24.076017
v -27.246992 138.145004 31.032158
v -37.656033 148.806168 34.112988
v 32.964844 136.031448 26.849760
v -1.377164 178.935318 57.127396
v -1.068528 188.961761 58.931622
v -0.871456 196.425735 59.285988
v -17.567684 197.239609 53.406803
v -72.745255 163.069397 -4.220295
v -70.005501 169.922287 -0.742637
v -69.833961 169.894409 -8.756269
v -77.056755 176.198273 -4.220294
v -74.590157 195.950836 3.072299
v -73.600121 193.816162 -14.442078
v 52.417683 177.399551 39.394634
v 50.505272 183.890915 42.111347
v 46.920845 192.695877 43.796196
v 54.257782 172.147263 36.188591
v 43.128067 200.049454 45.270443
v 25.569481 187.078476 50.498447
v 32.220570 199.652695 49.638233
v 39.355797 208.045303 45.696815
v 33.930462 184.139130 48.740910
v -40.237350 206.891678 45.227318
v -48.176151 189.327744 47.369274
v -50.502090 175.351608 42.953987
v -29.803560 136.999237 -28.426888
v -0.641446 136.985565 -38.548492
v -48.842052 171.143250 -44.192551
v -41.732903 136.984100 -4.262914
v -29.377375 137.018021 20.591049
v -39.148979 185.747635 45.855824
v 36.993416 139.785141 20.033976
v 45.706177 136.326004 -4.204892
v 28.611534 136.985565 -28.314325
v -40.220230 147.849030 -37.043606
v -0.641671 147.763443 -50.733727
v -53.326221 193.906631 -47.956997
v -59.113235 152.995605 -4.309355
v -40.650543 151.275238 29.746225
v -55.512508 193.219208 36.598614
v 40.926243 150.810501 29.085535
v 63.447960 153.919464 -4.268763
v 39.445435 147.527084 -36.927444
v -0.646394 171.056625 -60.921711
v -49.968010 217.192368 -44.713688
v -69.487190 173.176773 -4.266174
v -43.913864 171.308762 36.438011
v -26.266182 206.417496 46.234993
v 45.077389 172.031769 34.747124
v 72.571030 170.748917 -4.341856
v 47.640472 171.070724 -44.080212
v -0.655728 193.876923 -66.268738
v -39.903797 237.792480 -36.744228
v -74.941528 193.862701 -4.373564
v -51.479919 206.465530 37.722408
v -0.798647 206.368546 55.305664
v 49.248810 208.817932 36.452137
v 76.595573 194.537003 -4.314868
v 52.088104 193.756393 -47.905609
v -1.172880 217.267166 -61.642776
v -70.010223 217.112823 -4.220295
v -49.968010 217.192368 36.273094
v -1.156680 217.252930 53.207355
v 47.606617 217.144791 36.283550
v 67.699547 216.957687 -4.210066
v 47.650040 217.132050 -44.692661
v -0.657864 237.905487 -50.315746
v -15.565895 255.922226 -16.857033
v -56.053574 237.684570 -4.220295
v -39.903797 237.792480 28.303637
v -0.657859 237.905487 41.875153
v 38.575027 237.829575 28.291830
v 54.708611 237.739883 -4.220298
v 38.575039 237.829575 -36.732422
v -27.165798 250.586334 -26.165485
v -0.645719 250.646759 -35.306400
v -0.202416 259.069489 -4.220296
v -38.093414 250.526123 -4.220295
v -27.165798 250.586334 17.724894
v -0.645715 250.646759 26.865810
v 25.863228 250.594177 17.713873
v 36.782299 250.534760 -4.220297
v 25.863237 250.594177 -26.154465
v -0.297419 255.943390 -22.113972
v -21.864595 255.901505 -4.220295
v -15.565895 255.922226 8.416441
v -0.297417 255.943390 13.673376
v 14.962737 255.928253 8.405421
v 21.250196 255.909821 -4.220297
v 14.962743 255.928253 -16.846014
v -0.647855 132.748550 -27.429554
v 21.209381 133.683197 -20.476227
v 36.616547 133.737564 -4.130225
v 30.964542 133.347153 14.623990
v -22.412878 133.697083 -20.595533
v -32.983597 179.981232 45.865646
v -22.102068 133.686844 12.501961
v -31.422844 133.726898 -4.220295
v -41.979206 175.891312 42.779232
v -53.481075 179.109482 34.736401
v -48.075836 165.294495 29.872185
v 19.753008 208.825882 47.809509
v -24.610786 197.879410 46.616222
v 7.977115 195.861954 54.899364
v 15.774952 195.282150 50.844585
v 7.629226 179.037994 52.380672
v -20.962639 190.542206 47.214333
v 7.558883 188.945740 54.209267
v -12.876348 190.122086 50.245689
v -12.686134 180.912476 48.217247
v 5.270041 179.500854 53.079689
v -8.719165 179.897324 50.113018
v -0.990310 167.996063 49.801208
v 53.228668 198.891052 34.197426
v 21.277681 199.763977 47.894253
v 54.903660 191.126465 32.877678
v 21.222504 188.390030 48.208725
v 28.705442 186.223801 45.459377
v 20.488058 180.736206 46.899044
v 35.663242 182.495560 43.963963
v 27.450558 176.808243 44.229393
v 55.786282 182.918655 31.335440
v 40.310429 176.155762 40.700893
v 54.817230 175.994751 30.488581
v 47.737457 171.211716 35.364704
v 52.831490 167.350647 28.032526
v -32.122963 139.817627 22.574476
v -25.654593 140.615585 28.777653
v -36.090286 150.900436 31.497072
v 30.874628 138.404587 24.923611
v -0.796586 179.801498 53.590965
v -0.557331 189.416473 55.310402
v -0.411087 196.513824 55.631371
v -16.275526 197.410446 49.960449
v -72.200768 166.755112 -4.363107
v -67.341454 171.304749 -2.890538
v -67.002815 171.379532 -6.910295
v -73.486473 177.094833 -4.431250
v -71.438416 195.950836 1.163691
v -70.361122 193.868530 -12.686512
v 50.252125 178.128906 36.502090
v 48.517838 184.181274 39.022018
v 45.154488 192.603012 40.563942
v 51.848095 173.413177 33.697609
v 41.549500 199.793121 41.950817
v 24.509979 187.535690 46.998562
v 31.115526 199.554016 46.124630
v 38.038338 207.357605 42.323551
v 33.190880 184.387589 45.139709
v -39.000965 206.201126 41.824139
v -46.577339 189.271744 44.050098
v -48.450897 176.802689 40.249683
vn -0.3515 -0.8474 -0.3980
vn -0.5373 -0.8433 0.0117
vn -0.8277 -0.5607 0.0243
vn -0.5394 -0.5899 -0.6009
vn 0.1050 -0.6987 0.7077
vn -0.2002 -0.8518 0.4841
vn -0.3099 0.0277 0.9504
vn -0.8902 -0.2624 0.3725
vn -0.3507 -0.0453 0.9354
vn 0.6209 0.3630 0.6948
vn 0.3577 0.1823 0.9159
vn 0.6921 0.2132 0.6897
vn -0.0018 -0.8437 -0.5369
vn -0.0017 -0.5669 -0.8238
vn 0.2814 -0.8707 0.4034
vn 0.5738 -0.8190 -0.0042
vn 0.8320 -0.5546 0.0132
vn 0.2141 -0.3796 0.9000
vn 0.3231 -0.8437 -0.4288
vn 0.5137 -0.5798 -0.6324
vn -0.1724 -0.9402 0.2938
vn -0.0001 -0.9509 0.3095
vn -0.1737 -0.9810 0.0860
vn -0.4315 -0.8160 0.3847
vn 0.1780 -0.9564 0.2315
vn 0.3149 0.0952 0.9444
vn -0.0368 0.1386 0.9897
vn 0.2893 -0.0120 0.9572
vn -0.5577 -0.3851 0.7353
vn -0.9802 -0.1970 -0.0199
vn -0.2576 -0.9367 -0.2371
vn 0.2528 -0.9675 -0.0001
vn 0.5962 -0.7743 0.2119
vn -0.7698 -0.3942 -0.5020
vn -0.6261 -0.3313 -0.7059
vn -0.6136 -0.5156 0.5981
vn -0.1627 -0.1533 0.9747
vn -0.7242 -0.3668 0.5839
vn -0.3357 0.1830 0.9240
vn -0.1291 -0.2899 0.9483
vn -0.4339 0.0148 0.9008
vn -0.9800 0.1445 0.1369
vn -0.0004 -0.3082 -0.9513
vn 0.9518 -0.3048 0.0330
vn 0.1487 -0.1978 0.9689
vn 0.6004 -0.3120 -0.7363
vn 0.2266 -0.7520 0.6189
vn -0.6858 0.1916 0.7022
vn -0.6251 0.3503 0.6975
vn -0.6672 -0.0240 -0.7445
vn 0.0022 -0.0161 -0.9999
vn 0.9987 0.0434 0.0257
vn 0.6515 0.0159 -0.7585
vn -0.8791 -0.0139 -0.4765
vn -0.9991 -0.0124 0.0416
vn -0.9697 -0.2377 0.0573
vn -0.8554 -0.0000 0.5180
vn 0.6091 0.3664 -0.7033
vn 0.9108 0.4128 -0.0028
vn -0.0042 0.3304 -0.9438
vn -0.9284 0.3715 -0.0000
vn -0.0086 0.3342 0.9425
vn -0.6251 0.3503 -0.6975
vn -0.7404 0.6722 -0.0000
vn -0.5020 0.6431 -0.5783
vn -0.5020 0.6431 0.5783
vn 0.0027 0.6127 0.7903
vn 0.5109 0.6332 0.5814
vn 0.0027 0.6127 -0.7903
vn 0.7537 0.6573 -0.0000
vn 0.5109 0.6332 -0.5814
vn -0.3347 0.8559 -0.3942
vn -0.0006 0.8395 -0.5434
vn 0.4931 0.8700 -0.0000
vn 0.3365 0.8538 0.3972
vn 0.3365 0.8538 -0.3972
vn -0.4889 0.8723 -0.0000
vn -0.3347 0.8559 0.3942
vn -0.0006 0.8395 0.5434
vn -0.2560 0.9667 -0.0000
vn -0.1756 0.9610 -0.2136
vn -0.1756 0.9610 0.2136
vn 0.0015 0.9552 0.2959
vn 0.1808 0.9594 0.2166
vn 0.0015 0.9552 -0.2959
vn 0.2644 0.9644 -0.0000
vn 0.1808 0.9594 -0.2166
vn 0.0006 1.0000 -0.0000
vn 0.8965 -0.2642 0.3555
vn 0.0124 -0.9182 0.3960
vn -0.7979 -0.4819 0.3622
vn -0.3474 -0.2403 0.9064
vn 0.1024 -0.8851 0.4540
vn -0.1388 -0.1205 0.9830
vn -0.8363 -0.4331 0.3363
vn -0.1577 -0.2296 0.9604
vn -0.0519 -0.9704 0.2360
vn -0.4799 0.0036 0.8773
vn 0.2999 0.0262 0.9536
vn 0.9457 0.2922 0.1422
vn 0.4794 0.0246 0.8773
vn 0.5394 -0.0769 0.8385
vn 0.9793 0.1840 0.0841
vn 0.2876 -0.1212 0.9500
vn -0.4723 -0.0488 0.8801
vn -0.2454 -0.8123 0.5291
vn 0.4285 0.0679 0.9010
vn 0.2007 -0.0658 0.9774
vn 0.1030 -0.2741 0.9562
vn -0.3954 -0.7918 0.4655
vn 0.5880 -0.1933 0.7854
vn 0.9991 0.0194 -0.0381
vn 0.6549 -0.3358 0.6770
vn 0.9875 -0.1270 -0.0929
vn 0.4748 -0.8474 -0.2377
vn 0.0758 -0.2467 0.9661
vn 0.5269 -0.6288 0.5718
vn -0.3591 -0.7950 0.4888
vn -0.1250 -0.0234 0.9919
vn 0.7772 -0.1923 0.5992
vn 0.7030 -0.3959 0.5908
vn -0.1496 -0.9880 0.0392
vn -0.1459 -0.9892 0.0126
vn -0.0244 -0.8117 0.5835
vn 0.2358 -0.5234 0.8188
vn -0.1997 -0.7047 0.6808
vn 0.3281 -0.5907 0.7371
vn 0.3472 0.8504 0.3954
vn 0.5397 0.5894 0.6012
vn 0.8280 0.5601 -0.0265
vn 0.5323 0.8465 -0.0132
vn 0.8827 0.3855 -0.2687
vn 0.7777 0.4549 0.4339
vn 0.2939 -0.2130 -0.9318
vn 0.3538 0.0499 -0.9340
vn -0.4085 -0.1858 -0.8936
vn -0.6191 -0.3594 -0.6982
vn -0.7301 -0.0160 -0.6832
vn -0.3558 -0.1710 -0.9188
vn 0.0015 0.8467 0.5321
vn 0.0013 0.5674 0.8234
vn -0.8715 0.3891 -0.2985
vn -0.8907 0.3602 0.2774
vn -0.8316 0.5552 -0.0161
vn -0.5696 0.8219 0.0012
vn -0.5112 0.5808 0.6335
vn -0.3175 0.8472 0.4259
vn -0.4639 0.4974 0.7331
vn -0.0003 0.4823 0.8760
vn -0.8369 0.5209 0.1678
vn -0.9614 0.2246 0.1587
vn 0.5382 0.5369 0.6497
vn -0.3235 -0.3043 -0.8960
vn -0.2950 -0.0566 -0.9538
vn 0.0350 -0.1357 -0.9901
vn 0.5595 0.3851 -0.7339
vn 0.3873 -0.3078 -0.8691
vn -0.0347 0.1986 -0.9795
vn 0.8154 0.5789 -0.0015
vn 0.9367 0.3488 0.0300
vn 0.6274 0.3305 0.7051
vn 0.6742 0.3998 0.6210
vn 0.5624 0.3579 -0.7454
vn 0.9499 0.2451 0.1939
vn 0.6084 0.5176 -0.6016
vn 0.2840 -0.3546 -0.8908
vn 0.3327 -0.1735 -0.9269
vn 0.4302 -0.0149 -0.9026
vn -0.2159 0.0672 -0.9741
vn 0.0001 0.3090 0.9511
vn -0.9701 0.1274 0.2067
vn -0.9511 0.3071 -0.0345
vn -0.5975 0.3131 0.7382
vn 0.2658 -0.8231 -0.5019
vn 0.7052 -0.0111 -0.7089
vn 0.6234 -0.3443 -0.7021
vn -0.0024 0.0171 0.9999
vn 0.6682 0.0264 0.7435
vn -0.9987 -0.0427 -0.0271
vn -0.6493 -0.0160 0.7603
vn 0.8651 0.0175 0.5013
vn 0.9982 0.0208 -0.0563
vn 0.8368 0.0027 -0.5474
vn 0.9705 0.2297 -0.0735
vn -0.9098 -0.4151 0.0018
vn -0.6073 -0.3679 0.7041
vn 0.0040 -0.3310 0.9436
vn 0.9296 -0.3686 -0.0009
vn 0.0089 -0.3299 -0.9440
vn 0.6250 -0.3496 0.6980
vn 0.5004 -0.6443 0.5784
vn 0.7390 -0.6737 -0.0000
vn 0.5004 -0.6443 -0.5784
vn -0.0026 -0.6134 -0.7898
vn -0.5096 -0.6341 -0.5816
vn -0.0028 -0.6133 0.7898
vn -0.7528 -0.6583 -0.0000
vn -0.5095 -0.6340 0.5818
vn 0.0007 -0.8409 0.5412
vn 0.3324 -0.8574 0.3929
vn -0.3342 -0.8553 -0.3959
vn -0.4902 -0.8716 -0.0000
vn -0.3342 -0.8553 0.3959
vn 0.4863 -0.8738 -0.0000
vn 0.3324 -0.8574 -0.3929
vn 0.0007 -0.8409 -0.5412
vn 0.1742 -0.9615 0.2125
vn 0.2541 -0.9672 -0.0000
vn 0.1742 -0.9615 -0.2125
vn -0.0015 -0.9557 -0.2944
vn -0.1795 -0.9598 -0.2156
vn -0.0015 -0.9557 0.2944
vn -0.2626 -0.9649 -0.0000
vn -0.1795 -0.9598 0.2156
vn -0.0006 -1.0000 -0.0000
vn 0.3196 -0.2703 -0.9082
vn -0.4490 -0.6931 -0.5639
vn 0.3910 0.0327 -0.9198
vn -0.3162 -0.2936 -0.9021
vn 0.4958 -0.6716 -0.5506
vn 0.1376 0.1232 -0.9828
vn 0.1563 0.2301 -0.9605
vn -0.3411 -0.1769 -0.9232
vn 0.1723 -0.5900 -0.7888
vn -0.2984 -0.0273 -0.9541
vn -0.8488 -0.0933 -0.5204
vn 0.1209 0.1943 -0.9735
vn 0.0701 0.1726 -0.9825
vn -0.5402 0.0775 -0.8380
vn -0.4796 -0.0249 -0.8772
vn -0.2852 0.1197 -0.9510
vn -0.5839 -0.6303 -0.5117
vn -0.8804 0.0767 -0.4680
vn -0.4276 -0.0653 -0.9016
vn -0.2074 0.0717 -0.9756
vn -0.5215 -0.5915 -0.6149
vn -0.3418 -0.1149 -0.9327
vn 0.0175 0.1560 -0.9876
vn -0.5888 0.1950 -0.7844
vn -0.0827 0.1863 -0.9790
vn -0.6562 0.3343 -0.6765
vn -0.3009 -0.3647 -0.8812
vn 0.7926 0.6097 -0.0010
vn 0.9836 0.1104 -0.1424
vn -0.9913 -0.0856 -0.0999
vn 0.6297 -0.0328 -0.7761
vn 0.1239 0.0262 -0.9920
vn 0.6584 -0.1249 -0.7423
vn 0.4094 0.9024 -0.1343
vn -0.0078 0.9988 -0.0493
vn -0.7605 -0.3562 -0.5429
vn -0.7628 -0.3965 -0.5108
vn -0.3672 -0.3518 -0.8611
vn 0.9057 -0.1558 -0.3942
vt 0.709325 0.049558
vt 0.700173 0.049558
vt 0.686776 0.061941
vt 0.701259 0.058126
vt 0.707055 0.051969
vt 0.711981 0.102594
vt 0.713035 0.095885
vt 0.719139 0.095588
vt 0.768106 0.111030
vt 0.760459 0.103431
vt 0.769488 0.104326
vt 0.731421 0.049558
vt 0.731421 0.058126
vt 0.760347 0.051977
vt 0.766591 0.049145
vt 0.780164 0.062628
vt 0.763529 0.060503
vt 0.753516 0.049558
vt 0.761892 0.057920
vt 0.747776 0.046898
vt 0.731421 0.046219
vt 0.759402 0.046955
vt 0.755566 0.046856
vt 0.715065 0.046898
vt 0.747061 0.104555
vt 0.731213 0.102594
vt 0.738443 0.094647
vt 0.695232 0.079699
vt 0.691126 0.081662
vt 0.695430 0.070901
vt 0.708290 0.046898
vt 0.681199 0.075738
vt 0.694765 0.075738
vt 0.700747 0.060814
vt 0.697861 0.075986
vt 0.681075 0.075758
vt 0.702683 0.102594
vt 0.702946 0.087239
vt 0.696920 0.089845
vt 0.690073 0.092806
vt 0.731421 0.075738
vt 0.787112 0.075524
vt 0.766759 0.076653
vt 0.768076 0.075738
vt 0.707911 0.083053
vt 0.692749 0.102594
vt 0.693950 0.111030
vt 0.691398 0.093103
vt 0.731421 0.093103
vt 0.790162 0.093745
vt 0.771443 0.093103
vt 0.678465 0.093103
vt 0.674820 0.093103
vt 0.675956 0.080314
vt 0.677747 0.094652
vt 0.783464 0.111030
vt 0.731028 0.111030
vt 0.678592 0.111030
vt 0.689233 0.126778
vt 0.701589 0.126778
vt 0.731421 0.126778
vt 0.761252 0.126778
vt 0.773608 0.126778
vt 0.711285 0.136636
vt 0.731421 0.136636
vt 0.759897 0.136636
vt 0.751557 0.136636
vt 0.702944 0.136636
vt 0.715343 0.140789
vt 0.720128 0.140789
vt 0.731679 0.140789
vt 0.743230 0.140789
vt 0.748015 0.140789
vt 0.731746 0.143176
vt 0.744556 0.094131
vt 0.738610 0.082003
vt 0.715708 0.090330
vt 0.721579 0.090044
vt 0.721740 0.083168
vt 0.731115 0.089579
vt 0.724545 0.082454
vt 0.730891 0.082301
vt 0.730636 0.073551
vt 0.747980 0.097603
vt 0.755279 0.097339
vt 0.772089 0.096965
vt 0.765950 0.092289
vt 0.768552 0.085898
vt 0.773504 0.091177
vt 0.750451 0.088212
vt 0.747972 0.088926
vt 0.747545 0.083100
vt 0.763197 0.097627
vt 0.756521 0.086078
vt 0.753312 0.087388
vt 0.752105 0.080229
vt 0.769940 0.081186
vt 0.774334 0.084921
vt 0.771276 0.077373
vt 0.773750 0.079569
vt 0.772088 0.072726
vt 0.704557 0.060430
vt 0.712113 0.052692
vt 0.755820 0.051157
vt 0.731258 0.094997
vt 0.737629 0.089261
vt 0.735916 0.082117
vt 0.679086 0.070784
vt 0.681066 0.075442
vt 0.767836 0.075688
vt 0.758703 0.084527
vt 0.762253 0.079645
vt 0.700437 0.079101
vt 0.710257 0.051860
vt 0.702695 0.059736
vt 0.688981 0.063471
vt 0.701597 0.051849
vt 0.708573 0.053906
vt 0.710566 0.051873
vt 0.712825 0.102250
vt 0.720077 0.095712
vt 0.714026 0.096052
vt 0.766448 0.110036
vt 0.767640 0.103992
vt 0.759502 0.102932
vt 0.731425 0.051850
vt 0.731425 0.059673
vt 0.758744 0.053882
vt 0.761599 0.061885
vt 0.777947 0.064142
vt 0.765068 0.051371
vt 0.760524 0.059502
vt 0.752660 0.051850
vt 0.747287 0.049453
vt 0.731421 0.048774
vt 0.758470 0.049492
vt 0.754368 0.049209
vt 0.715622 0.049463
vt 0.746229 0.103998
vt 0.737681 0.094588
vt 0.731311 0.102214
vt 0.696721 0.080753
vt 0.696993 0.072399
vt 0.693070 0.082427
vt 0.709081 0.049484
vt 0.715847 0.049455
vt 0.696437 0.076645
vt 0.683254 0.076816
vt 0.683009 0.076762
vt 0.700014 0.076765
vt 0.702383 0.062223
vt 0.703473 0.087246
vt 0.703580 0.102093
vt 0.698081 0.089804
vt 0.691595 0.092669
vt 0.731422 0.076582
vt 0.764612 0.077290
vt 0.784569 0.076358
vt 0.766472 0.076592
vt 0.707948 0.083060
vt 0.694522 0.102285
vt 0.695620 0.110071
vt 0.731415 0.093147
vt 0.693182 0.093168
vt 0.787491 0.093626
vt 0.769701 0.093059
vt 0.680817 0.093141
vt 0.677492 0.093136
vt 0.680035 0.094652
vt 0.678548 0.080965
vt 0.781033 0.109901
vt 0.766479 0.110027
vt 0.731040 0.110125
vt 0.681071 0.110013
vt 0.731051 0.110115
vt 0.702925 0.125024
vt 0.691202 0.124946
vt 0.731413 0.125106
vt 0.759892 0.125051
vt 0.771603 0.124986
vt 0.731422 0.134355
vt 0.712172 0.134311
vt 0.750665 0.134317
vt 0.758591 0.134274
vt 0.704239 0.134268
vt 0.720592 0.138185
vt 0.716020 0.138170
vt 0.731675 0.138200
vt 0.742752 0.138189
vt 0.747316 0.138176
vt 0.731744 0.140469
vt 0.743342 0.094167
vt 0.737429 0.082375
vt 0.722544 0.090421
vt 0.716674 0.090726
vt 0.722682 0.083736
vt 0.731486 0.089909
vt 0.731313 0.082929
vt 0.725562 0.082999
vt 0.731172 0.074360
vt 0.754477 0.097268
vt 0.747336 0.097420
vt 0.770529 0.096786
vt 0.771745 0.091150
vt 0.767109 0.086109
vt 0.764668 0.092222
vt 0.749682 0.088544
vt 0.746763 0.083608
vt 0.747296 0.089164
vt 0.762051 0.097441
vt 0.755984 0.086258
vt 0.751817 0.080757
vt 0.752728 0.087591
vt 0.772385 0.085192
vt 0.768368 0.081715
vt 0.771682 0.080166
vt 0.769527 0.078292
vt 0.770241 0.073892
vt 0.705693 0.061951
vt 0.713269 0.054485
vt 0.754302 0.052880
vt 0.737378 0.089567
vt 0.731593 0.095061
vt 0.735716 0.082711
vt 0.679481 0.073459
vt 0.681451 0.078121
vt 0.766543 0.076694
vt 0.761152 0.080283
vt 0.757778 0.084885
vt 0.701419 0.080091
s 1
usemtl Material.001
f 367/447/365 370/448/366 379/449/367 376/450/368
f 370/448/366 371/447/369 468/451/370
f 389/452/371 444/453/372 475/454/373
f 405/455/374 489/456/375 398/457/376
f 368/458/377 367/447/365 376/450/368 377/459/378
f 373/460/379 374/461/380 383/462/381 382/463/382
f 374/461/380 375/464/383 384/465/384 383/462/381
f 375/464/383 368/458/377 377/459/378 384/465/384
f 433/466/385 432/467/386 368/458/377 375/464/383
f 434/468/387 433/466/385 375/464/383 374/461/380
f 435/469/388 434/468/387 374/461/380 373/460/379
f 432/467/386 436/470/389 367/447/365 368/458/377
f 443/471/390 397/472/391 445/473/392
f 493/474/393 441/475/394 442/476/395
f 439/477/396 438/470/397 371/447/369 370/448/366
f 436/470/389 439/477/396 370/448/366 367/447/365
f 376/450/368 379/449/367 478/478/398 369/479/399
f 379/449/367 380/480/400 388/481/401 477/482/402
f 389/452/371 491/483/403 372/484/404
f 492/485/405 381/486/406 441/475/394 493/474/393
f 377/459/378 376/450/368 369/479/399 385/487/407
f 382/463/382 383/462/381 391/488/408 390/489/409
f 383/462/381 384/465/384 392/490/410 391/488/408
f 384/465/384 377/459/378 385/487/407 392/490/410
f 389/452/371 372/484/404 437/491/411
f 396/492/412 491/483/403 403/493/413
f 385/487/407 369/479/399 378/494/414 393/495/415
f 390/489/409 391/488/408 399/496/416 398/457/376
f 391/488/408 392/490/410 400/497/417 399/496/416
f 392/490/410 385/487/407 393/495/415 400/497/417
f 369/479/399 478/478/398 481/498/418 378/494/414
f 395/499/419 479/500/420 477/482/402 480/501/421
f 399/496/416 400/497/417 407/455/422 406/502/423
f 400/497/417 393/495/415 401/503/424 407/455/422
f 481/498/418 395/499/419 402/504/425
f 480/501/421 396/492/412 403/493/413 402/504/425
f 389/452/371 397/472/391 404/503/426
f 397/472/391 443/471/390 404/503/426
f 393/495/415 378/494/414 386/493/427 401/503/424
f 398/457/376 399/496/416 406/502/423 405/455/374
f 386/493/427 402/504/425 410/505/428 394/506/429
f 402/504/425 403/493/413 411/506/430 410/505/428
f 403/493/413 404/503/426 412/507/431 411/506/430
f 404/503/426 405/455/374 413/508/432 412/507/431
f 401/503/424 386/493/427 394/506/429 408/507/433
f 405/455/374 406/502/423 414/509/434 413/508/432
f 406/502/423 407/455/422 415/508/435 414/509/434
f 407/455/422 401/503/424 408/507/433 415/508/435
f 408/507/433 394/506/429 416/510/436 417/511/437
f 413/508/432 414/509/434 423/512/438 422/513/439
f 414/509/434 415/508/435 424/513/440 423/512/438
f 415/508/435 408/507/433 417/511/437 424/513/440
f 394/506/429 410/505/428 419/514/441 416/510/436
f 410/505/428 411/506/430 420/510/442 419/514/441
f 411/506/430 412/507/431 421/511/443 420/510/442
f 412/507/431 413/508/432 422/513/439 421/511/443
f 416/510/436 419/514/441 426/515/444 409/516/445
f 419/514/441 420/510/442 427/516/446 426/515/444
f 420/510/442 421/511/443 428/517/447 427/516/446
f 421/511/443 422/513/439 429/518/448 428/517/447
f 417/511/437 416/510/436 409/516/445 425/517/449
f 422/513/439 423/512/438 430/519/450 429/518/448
f 423/512/438 424/513/440 431/518/451 430/519/450
f 424/513/440 417/511/437 425/517/449 431/518/451
f 426/515/444 427/516/446 418/520/452
f 427/516/446 428/517/447 418/520/452
f 428/517/447 429/518/448 418/520/452
f 425/517/449 409/516/445 418/520/452
f 429/518/448 430/519/450 418/520/452
f 430/519/450 431/518/451 418/520/452
f 431/518/451 425/517/449 418/520/452
f 409/516/445 426/515/444 418/520/452
f 446/521/453 445/473/392 447/522/454
f 475/454/373 444/453/372 448/523/455 450/524/456
f 450/524/456 448/523/455 451/525/457
f 473/526/458 450/524/456 453/527/459 472/528/460
f 472/528/460 453/527/459 454/529/461
f 489/456/375 443/471/390 456/530/462 488/531/463
f 455/532/464 484/533/465 483/534/466 457/535/467
f 487/536/468 458/537/469 460/538/470
f 489/456/375 488/531/463 486/539/471
f 490/540/472 459/541/473 462/542/474
f 486/539/471 488/531/463 487/536/468 459/541/473
f 457/535/467 483/534/466 482/543/475 463/544/476
f 463/544/476 482/543/475 485/545/477 465/546/478
f 465/546/478 485/545/477 467/547/479
f 468/451/370 380/480/400 379/449/367 370/448/366
f 380/480/400 470/548/480 388/481/401
f 468/451/370 469/549/481 470/548/480 380/480/400
f 373/460/379 382/463/382 471/550/482
f 445/473/392 474/551/483 473/526/458 449/552/484
f 449/552/484 473/526/458 472/528/460 452/553/485
f 452/553/485 472/528/460 454/529/461
f 445/473/392 397/472/391 474/551/483
f 474/551/483 475/454/373 450/524/456 473/526/458
f 397/472/391 389/452/371 475/454/373
f 446/521/453 443/471/390 445/473/392
f 474/551/483 397/472/391 475/454/373
f 477/482/402 479/500/420 476/554/486
f 477/482/402 387/555/487 379/449/367
f 478/478/398 379/449/367 387/555/487
f 476/554/486 478/478/398 387/555/487 477/482/402
f 479/500/420 478/478/398 476/554/486
f 480/501/421 477/482/402 388/481/401 396/492/412
f 395/499/419 481/498/418 478/478/398 479/500/420
f 395/499/419 480/501/421 402/504/425
f 378/494/414 481/498/418 402/504/425 386/493/427
f 467/547/479 485/545/477 466/556/488
f 482/543/475 483/534/466 461/557/489 464/558/490
f 485/545/477 482/543/475 464/558/490 466/556/488
f 483/534/466 484/533/465 461/557/489
f 488/531/463 456/530/462 458/537/469 487/536/468
f 459/541/473 487/536/468 460/538/470
f 404/503/426 443/471/390 489/456/375 405/455/374
f 403/493/413 491/483/403 389/452/371 404/503/426
f 490/540/472 461/557/489 486/539/471
f 459/541/473 490/540/472 486/539/471
f 461/557/489 490/540/472 462/542/474
f 461/557/489 484/533/465 486/539/471
f 484/533/465 455/532/464 398/457/376 486/539/471
f 372/484/404 492/485/405 493/474/393 440/559/491
f 372/484/404 491/483/403 492/485/405
f 440/559/491 493/474/393 442/476/395
f 381/486/406 492/485/405 491/483/403 396/492/412
f 398/457/376 489/456/375 486/539/471
f 494/560/492 503/561/493 506/562/494 497/563/495
f 497/563/495 595/564/496 498/565/497
f 516/566/498 602/567/499 571/568/500
f 532/569/501 525/570/502 616/571/503
f 495/572/504 504/573/505 503/561/493 494/560/492
f 500/574/506 509/575/507 510/576/508 501/577/509
f 501/577/509 510/576/508 511/578/510 502/579/511
f 502/579/511 511/578/510 504/573/505 495/572/504
f 560/580/512 502/579/511 495/572/504 559/581/513
f 561/582/514 501/577/509 502/579/511 560/580/512
f 562/583/515 500/574/506 501/577/509 561/582/514
f 559/581/513 495/572/504 494/560/492 563/584/516
f 570/585/517 572/586/518 524/587/519
f 620/588/520 569/589/521 568/590/522
f 566/591/523 497/563/495 498/565/497 565/592/524
f 563/584/516 494/560/492 497/563/495 566/591/523
f 503/561/493 496/593/525 605/594/526 506/562/494
f 506/562/494 604/595/527 515/596/528 507/597/529
f 516/566/498 499/598/530 618/599/531
f 619/600/532 620/588/520 568/590/522 508/601/533
f 504/573/505 512/602/534 496/593/525 503/561/493
f 509/575/507 517/603/535 518/604/536 510/576/508
f 510/576/508 518/604/536 519/605/537 511/578/510
f 511/578/510 519/605/537 512/602/534 504/573/505
f 516/566/498 564/606/538 499/598/530
f 523/607/539 530/608/540 618/599/531
f 512/602/534 520/609/541 505/610/542 496/593/525
f 517/603/535 525/570/502 526/611/543 518/604/536
f 518/604/536 526/611/543 527/612/544 519/605/537
f 519/605/537 527/612/544 520/609/541 512/602/534
f 496/593/525 505/610/542 608/613/545 605/594/526
f 522/614/546 607/615/547 604/595/527 606/616/548
f 526/611/543 533/617/549 534/618/550 527/612/544
f 527/612/544 534/618/550 528/619/551 520/609/541
f 608/613/545 529/620/552 522/614/546
f 607/615/547 529/620/552 530/608/540 523/607/539
f 516/566/498 531/621/553 524/587/519
f 524/587/519 531/621/553 570/585/517
f 520/609/541 528/619/551 513/608/554 505/610/542
f 525/570/502 532/569/501 533/617/549 526/611/543
f 513/608/554 521/622/555 537/623/556 529/620/552
f 529/620/552 537/623/556 538/622/557 530/608/540
f 530/608/540 538/622/557 539/624/558 531/621/553
f 531/621/553 539/624/558 540/625/559 532/569/501
f 528/619/551 535/624/560 521/622/555 513/608/554
f 532/569/501 540/625/559 541/626/561 533/617/549
f 533/617/549 541/626/561 542/625/562 534/618/550
f 534/618/550 542/625/562 535/624/560 528/619/551
f 535/624/560 544/627/563 543/628/564 521/622/555
f 540/625/559 549/629/565 550/630/566 541/626/561
f 541/626/561 550/630/566 551/629/567 542/625/562
f 542/625/562 551/629/567 544/627/563 535/624/560
f 521/622/555 543/628/564 546/631/568 537/623/556
f 537/623/556 546/631/568 547/628/569 538/622/557
f 538/622/557 547/628/569 548/627/570 539/624/558
f 539/624/558 548/627/570 549/629/565 540/625/559
f 543/628/564 536/632/571 553/633/572 546/631/568
f 546/631/568 553/633/572 554/632/573 547/628/569
f 547/628/569 554/632/573 555/634/574 548/627/570
f 548/627/570 555/634/574 556/635/575 549/629/565
f 544/627/563 552/634/576 536/632/571 543/628/564
f 549/629/565 556/635/575 557/636/577 550/630/566
f 550/630/566 557/636/577 558/635/578 551/629/567
f 551/629/567 558/635/578 552/634/576 544/627/563
f 553/633/572 545/637/579 554/632/573
f 554/632/573 545/637/579 555/634/574
f 555/634/574 545/637/579 556/635/575
f 552/634/576 545/637/579 536/632/571
f 556/635/575 545/637/579 557/636/577
f 557/636/577 545/637/579 558/635/578
f 558/635/578 545/637/579 552/634/576
f 536/632/571 545/637/579 553/633/572
f 573/638/580 574/639/581 572/586/518
f 602/567/499 577/640/582 575/641/583 571/568/500
f 577/640/582 578/642/584 575/641/583
f 600/643/585 599/644/586 580/645/587 577/640/582
f 599/644/586 581/646/588 580/645/587
f 616/571/503 615/647/589 583/648/590 570/585/517
f 582/649/591 584/650/592 610/651/593 611/652/594
f 614/653/595 587/654/596 585/655/597
f 616/571/503 613/656/598 615/647/589
f 617/657/599 589/658/600 586/659/601
f 613/656/598 586/659/601 614/653/595 615/647/589
f 584/650/592 590/660/602 609/661/603 610/651/593
f 590/660/602 592/662/604 612/663/605 609/661/603
f 592/662/604 594/664/606 612/663/605
f 595/564/496 497/563/495 506/562/494 507/597/529
f 507/597/529 515/596/528 597/665/607
f 595/564/496 507/597/529 597/665/607 596/666/608
f 500/574/506 598/667/609 509/575/507
f 572/586/518 576/668/610 600/643/585 601/669/611
f 576/668/610 579/670/612 599/644/586 600/643/585
f 579/670/612 581/646/588 599/644/586
f 572/586/518 601/669/611 524/587/519
f 601/669/611 600/643/585 577/640/582 602/567/499
f 524/587/519 602/567/499 516/566/498
f 573/638/580 572/586/518 570/585/517
f 601/669/611 602/567/499 524/587/519
f 604/595/527 603/671/613 606/616/548
f 604/595/527 506/562/494 514/672/614
f 605/594/526 514/672/614 506/562/494
f 603/671/613 604/595/527 514/672/614 605/594/526
f 606/616/548 603/671/613 605/594/526
f 607/615/547 523/607/539 515/596/528 604/595/527
f 522/614/546 606/616/548 605/594/526 608/613/545
f 522/614/546 529/620/552 607/615/547
f 505/610/542 513/608/554 529/620/552 608/613/545
f 594/664/606 593/673/615 612/663/605
f 609/661/603 591/674/616 588/675/617 610/651/593
f 612/663/605 593/673/615 591/674/616 609/661/603
f 610/651/593 588/675/617 611/652/594
f 615/647/589 614/653/595 585/655/597 583/648/590
f 586/659/601 587/654/596 614/653/595
f 531/621/553 532/569/501 616/571/503 570/585/517
f 530/608/540 531/621/553 516/566/498 618/599/531
f 617/657/599 613/656/598 588/675/617
f 586/659/601 613/656/598 617/657/599
f 588/675/617 589/658/600 617/657/599
f 588/675/617 613/656/598 611/652/594
f 611/652/594 613/656/598 525/570/502 582/649/591
f 499/598/530 567/676/618 620/588/520 619/600/532
f 499/598/530 619/600/532 618/599/531
f 567/676/618 569/589/521 620/588/520
f 508/601/533 523/607/539 618/599/531 619/600/532
f 525/570/502 613/656/598 616/571/503
f 468/451/370 371/447/369 498/565/497 595/564/496
f 440/559/491 442/476/395 569/589/521 567/676/618
f 441/475/394 381/486/406 508/601/533 568/590/522
f 372/484/404 440/559/491 567/676/618 499/598/530
f 382/463/382 390/489/409 517/603/535 509/575/507
f 390/489/409 398/457/376 525/570/502 517/603/535
f 396/492/412 388/481/401 515/596/528 523/607/539
f 435/469/388 373/460/379 500/574/506 562/583/515
f 437/491/411 372/484/404 499/598/530 564/606/538
f 371/447/369 438/470/397 565/592/524 498/565/497
f 439/477/396 436/470/389 563/584/516 566/591/523
f 438/470/397 439/477/396 566/591/523 565/592/524
f 381/486/406 396/492/412 523/607/539 508/601/533
f 389/452/371 437/491/411 564/606/538 516/566/498
f 436/470/389 432/467/386 559/581/513 563/584/516
f 434/468/387 435/469/388 562/583/515 561/582/514
f 433/466/385 434/468/387 561/582/514 560/580/512
f 432/467/386 433/466/385 560/580/512 559/581/513
f 442/476/395 441/475/394 568/590/522 569/589/521
f 443/471/390 446/521/453 573/638/580 570/585/517
f 444/453/372 389/452/371 516/566/498 571/568/500
f 445/473/392 449/552/484 576/668/610 572/586/518
f 447/522/454 445/473/392 572/586/518 574/639/581
f 446/521/453 447/522/454 574/639/581 573/638/580
f 448/523/455 444/453/372 571/568/500 575/641/583
f 449/552/484 452/553/485 579/670/612 576/668/610
f 451/525/457 448/523/455 575/641/583 578/642/584
f 450/524/456 451/525/457 578/642/584 577/640/582
f 453/527/459 450/524/456 577/640/582 580/645/587
f 398/457/376 455/532/464 582/649/591 525/570/502
f 452/553/485 454/529/461 581/646/588 579/670/612
f 454/529/461 453/527/459 580/645/587 581/646/588
f 456/530/462 443/471/390 570/585/517 583/648/590
f 455/532/464 457/535/467 584/650/592 582/649/591
f 458/537/469 456/530/462 583/648/590 585/655/597
f 460/538/470 458/537/469 585/655/597 587/654/596
f 459/541/473 460/538/470 587/654/596 586/659/601
f 457/535/467 463/544/476 590/660/602 584/650/592
f 462/542/474 459/541/473 586/659/601 589/658/600
f 461/557/489 462/542/474 589/658/600 588/675/617
f 464/558/490 461/557/489 588/675/617 591/674/616
f 463/544/476 465/546/478 592/662/604 590/660/602
f 466/556/488 464/558/490 591/674/616 593/673/615
f 465/546/478 467/547/479 594/664/606 592/662/604
f 467/547/479 466/556/488 593/673/615 594/664/606
f 469/549/481 468/451/370 595/564/496 596/666/608
f 470/548/480 469/549/481 596/666/608 597/665/607
f 388/481/401 470/548/480 597/665/607 515/596/528
f 373/460/379 471/550/482 598/667/609 500/574/506
f 471/550/482 382/463/382 509/575/507 598/667/609
l 387 476
l 514 603
o Pin(?)
v -47.057747 227.889221 19.548836
v -54.275597 218.990677 20.317820
v -58.852013 211.760178 23.103678
v -59.560699 208.135101 27.159946
v -56.211823 209.086777 31.399736
v -49.702663 214.360275 34.687016
v -41.777382 222.542480 36.140945
v -34.559513 231.441040 35.371964
v -29.983118 238.671555 32.586098
v -29.274406 242.296646 28.529835
v -32.623302 241.344940 24.290045
v -39.132454 236.071457 21.002773
v -51.126400 230.655716 23.308926
v -57.208092 223.157913 23.956860
v -61.064125 217.065567 26.304195
v -61.661278 214.011108 29.721958
v -58.839539 214.813004 33.294353
v -53.354992 219.256378 36.064178
v -46.677227 226.150650 37.289249
v -40.595539 233.648438 36.641312
v -36.739517 239.740814 34.293976
v -36.142380 242.795242 30.876211
v -38.964104 241.993347 27.303812
v -44.448643 237.549973 24.533993
v -55.208179 231.631424 27.781301
v -59.225842 226.678238 28.209347
v -61.773197 222.653519 29.760036
v -62.167671 220.635712 32.017864
v -60.303577 221.165482 34.377842
v -56.680389 224.100845 36.207645
v -52.268970 228.655289 37.016945
v -48.251297 233.608459 36.588898
v -45.703949 237.633179 35.038216
v -45.309460 239.650970 32.780384
v -47.173550 239.121231 30.420391
v -50.796715 236.185883 28.590611
v -56.567955 232.175507 31.987734
v -57.987808 230.425079 32.138988
v -58.888020 229.002716 32.687012
v -59.027462 228.289627 33.484940
v -58.368668 228.476822 34.318954
v -57.088253 229.514191 34.965611
v -55.529224 231.123749 35.251617
v -54.109371 232.874237 35.100342
v -53.209145 234.296539 34.552330
v -53.069729 235.009659 33.754414
v -53.728504 234.822433 32.920387
v -55.008949 233.785095 32.273743
v -56.635563 232.155991 33.969643
v 47.057747 227.889221 19.548836
v 54.275597 218.990677 20.317820
v 58.852013 211.760178 23.103678
v 59.560699 208.135101 27.159946
v 56.211823 209.086777 31.399736
v 49.702663 214.360275 34.687016
v 41.777382 222.542480 36.140945
v 34.559513 231.441040 35.371964
v 29.983118 238.671555 32.586098
v 29.274406 242.296646 28.529835
v 32.623302 241.344940 24.290045
v 39.132454 236.071457 21.002773
v 51.126400 230.655716 23.308926
v 57.208092 223.157913 23.956860
v 61.064125 217.065567 26.304195
v 61.661278 214.011108 29.721958
v 58.839539 214.813004 33.294353
v 53.354992 219.256378 36.064178
v 46.677227 226.150650 37.289249
v 40.595539 233.648438 36.641312
v 36.739517 239.740814 34.293976
v 36.142380 242.795242 30.876211
v 38.964104 241.993347 27.303812
v 44.448643 237.549973 24.533993
v 55.208179 231.631424 27.781301
v 59.225842 226.678238 28.209347
v 61.773197 222.653519 29.760036
v 62.167671 220.635712 32.017864
v 60.303577 221.165482 34.377842
v 56.680389 224.100845 36.207645
v 52.268970 228.655289 37.016945
v 48.251297 233.608459 36.588898
v 45.703949 237.633179 35.038216
v 45.309460 239.650970 32.780384
v 47.173550 239.121231 30.420391
v 50.796715 236.185883 28.590611
v 56.567955 232.175507 31.987734
v 57.987808 230.425079 32.138988
v 58.888020 229.002716 32.687012
v 59.027462 228.289627 33.484940
v 58.368668 228.476822 34.318954
v 57.088253 229.514191 34.965611
v 55.529224 231.123749 35.251617
v 54.109371 232.874237 35.100342
v 53.209145 234.296539 34.552330
v 53.069729 235.009659 33.754414
v 53.728504 234.822433 32.920387
v 55.008949 233.785095 32.273743
v 56.635563 232.155991 33.969643
vn 0.1249 -0.1429 0.9818
vn 0.0412 -0.0687 0.9968
vn -0.1178 -0.2348 0.9649
vn -0.0607 -0.3120 0.9482
vn -0.9050 -0.3938 0.1611
vn -0.9323 -0.3018 0.1994
vn -0.8784 0.0483 -0.4755
vn -0.8561 -0.0464 -0.5147
vn -0.0990 0.9094 -0.4040
vn -0.2522 0.9097 -0.3299
vn 0.0087 0.9526 0.3042
vn 0.1571 0.9535 0.2573
vn 0.2366 0.0907 0.9674
vn 0.1117 0.1614 0.9805
vn -0.4482 -0.4594 0.7668
vn -0.4714 -0.3638 0.8034
vn -0.2987 0.6326 -0.7145
vn -0.3975 0.6770 -0.6194
vn -0.6043 0.2385 -0.7602
vn -0.6475 0.3016 -0.6998
vn -0.5039 0.4832 -0.7160
vn -0.4390 0.4281 -0.7900
vn 0.2858 0.5198 0.8051
vn 0.1193 0.5336 0.8373
vn -0.5576 0.7353 -0.3853
vn -0.4624 0.8798 -0.1103
vn -0.7763 0.4437 -0.4478
vn -0.6487 0.5833 -0.4889
vn -0.1766 0.5905 0.7875
vn -0.1353 0.3076 0.9418
vn -0.3338 -0.0044 0.9426
vn -0.6131 -0.0591 0.7878
vn -0.9362 0.2681 -0.2274
vn -0.3027 0.8748 0.3782
vn -0.1821 0.1109 0.9770
vn -0.9526 0.0032 0.3042
vn -0.6830 0.2698 0.6788
vn -0.8583 0.3414 0.3832
vn -0.6615 0.7422 -0.1076
vn -0.5826 0.8084 0.0846
vn -0.8133 0.5689 -0.1217
vn -0.7347 0.6555 -0.1749
vn -0.3918 0.6152 0.6842
vn -0.3672 0.4442 0.8173
vn -0.5155 0.2674 0.8141
vn -0.8808 0.4700 0.0573
vn -0.4736 0.7831 0.4031
vn -0.4073 0.3239 0.8539
vn -0.6901 0.5953 0.4115
vn -0.1249 -0.1429 0.9818
vn 0.0607 -0.3120 0.9482
vn 0.1178 -0.2348 0.9649
vn -0.0412 -0.0687 0.9968
vn 0.9050 -0.3938 0.1611
vn 0.8561 -0.0464 -0.5147
vn 0.8784 0.0483 -0.4755
vn 0.9323 -0.3018 0.1994
vn 0.0990 0.9094 -0.4040
vn -0.1571 0.9535 0.2573
vn -0.0087 0.9526 0.3042
vn 0.2522 0.9097 -0.3299
vn -0.2366 0.0907 0.9674
vn -0.1117 0.1614 0.9805
vn 0.4483 -0.4594 0.7668
vn 0.4714 -0.3638 0.8034
vn 0.2987 0.6326 -0.7145
vn 0.3975 0.6770 -0.6194
vn 0.6043 0.2385 -0.7602
vn 0.4390 0.4281 -0.7900
vn 0.5039 0.4832 -0.7160
vn 0.6475 0.3016 -0.6998
vn -0.2858 0.5198 0.8051
vn -0.1193 0.5336 0.8373
vn 0.4624 0.8798 -0.1103
vn 0.5576 0.7353 -0.3853
vn 0.6487 0.5833 -0.4889
vn 0.7763 0.4437 -0.4478
vn 0.1353 0.3076 0.9418
vn 0.1766 0.5905 0.7875
vn 0.6131 -0.0591 0.7878
vn 0.3338 -0.0044 0.9426
vn 0.9362 0.2681 -0.2274
vn 0.3027 0.8748 0.3782
vn 0.1821 0.1109 0.9770
vn 0.9526 0.0032 0.3042
vn 0.8583 0.3414 0.3832
vn 0.6830 0.2698 0.6788
vn 0.5826 0.8084 0.0846
vn 0.6615 0.7422 -0.1076
vn 0.7347 0.6555 -0.1749
vn 0.8133 0.5689 -0.1217
vn 0.3672 0.4442 0.8173
vn 0.3918 0.6152 0.6842
vn 0.5155 0.2674 0.8141
vn 0.8808 0.4700 0.0573
vn 0.4736 0.7831 0.4031
vn 0.4073 0.3239 0.8539
vn 0.6901 0.5953 0.4115
vt 0.649601 0.690951
vt 0.679203 0.688356
vt 0.686017 0.650720
vt 0.662101 0.634046
vt 0.719399 0.588364
vt 0.719691 0.618641
vt 0.736198 0.626057
vt 0.746604 0.597780
vt 0.747950 0.783251
vt 0.737491 0.752240
vt 0.721068 0.761169
vt 0.721389 0.794347
vt 0.664550 0.747952
vt 0.687279 0.726784
vt 0.692381 0.598304
vt 0.703331 0.626375
vt 0.777321 0.746863
vt 0.754187 0.726138
vt 0.777569 0.632931
vt 0.753979 0.650064
vt 0.761519 0.687561
vt 0.791166 0.689584
vt 0.694618 0.783766
vt 0.704476 0.752559
vt 0.737242 0.702662
vt 0.729873 0.718494
vt 0.735504 0.660770
vt 0.739876 0.681100
vt 0.711440 0.718672
vt 0.703767 0.702985
vt 0.704695 0.661068
vt 0.711864 0.647316
vt 0.728072 0.647159
vt 0.720712 0.724305
vt 0.700717 0.681479
vt 0.719922 0.642481
vt 0.717456 0.669033
vt 0.720161 0.667253
vt 0.725358 0.687185
vt 0.723283 0.692294
vt 0.725059 0.673751
vt 0.725970 0.680394
vt 0.717523 0.692350
vt 0.715350 0.687282
vt 0.715389 0.673844
vt 0.722899 0.668980
vt 0.720421 0.694223
vt 0.714607 0.680504
vt 0.720289 0.680478
vt 0.939531 0.845151
vt 0.925935 0.788498
vt 0.902345 0.805631
vt 0.909884 0.843128
vt 0.867765 0.743932
vt 0.840746 0.753871
vt 0.851696 0.781942
vt 0.868057 0.774208
vt 0.842983 0.939333
vt 0.869754 0.949914
vt 0.869434 0.916736
vt 0.852841 0.908126
vt 0.925686 0.902430
vt 0.902553 0.881705
vt 0.894970 0.753347
vt 0.884564 0.781624
vt 0.812915 0.903519
vt 0.835644 0.882352
vt 0.810466 0.789613
vt 0.797966 0.846518
vt 0.827568 0.843924
vt 0.834382 0.806287
vt 0.896316 0.938818
vt 0.885856 0.907807
vt 0.859806 0.874240
vt 0.852132 0.858552
vt 0.849083 0.837046
vt 0.853061 0.816635
vt 0.885608 0.858229
vt 0.878239 0.874062
vt 0.876437 0.802726
vt 0.883870 0.816337
vt 0.860229 0.802883
vt 0.869077 0.879872
vt 0.888241 0.836668
vt 0.868287 0.798048
vt 0.868526 0.822820
vt 0.871265 0.824547
vt 0.865888 0.847917
vt 0.863715 0.842849
vt 0.862972 0.836071
vt 0.863755 0.829411
vt 0.873724 0.842753
vt 0.871649 0.847862
vt 0.873425 0.829318
vt 0.865822 0.824600
vt 0.868787 0.849790
vt 0.874336 0.835961
vt 0.868654 0.836046
s 1
usemtl Material.003
f 627/677/619 639/678/620 638/679/621 626/680/622
f 624/681/623 636/682/624 635/683/625 623/684/626
f 631/685/627 643/686/628 642/687/629 630/688/630
f 628/689/631 640/690/632 639/678/620 627/677/619
f 625/691/633 637/692/634 636/682/624 624/681/623
f 632/693/635 644/694/636 643/686/628 631/685/627
f 622/695/637 634/696/638 633/697/639 621/698/640
f 629/699/641 641/700/642 640/690/632 628/689/631
f 626/680/622 638/679/621 637/692/634 625/691/633
f 621/698/640 633/697/639 644/694/636 632/693/635
f 623/684/626 635/683/625 634/696/638 622/695/637
f 630/688/630 642/687/629 641/700/642 629/699/641
f 644/694/636 656/701/643 655/702/644 643/686/628
f 634/696/638 646/703/645 645/704/646 633/697/639
f 641/700/642 653/705/647 652/706/648 640/690/632
f 638/679/621 650/707/649 649/708/650 637/692/634
f 633/697/639 645/704/646 656/701/643 644/694/636
f 635/683/625 647/709/651 646/703/645 634/696/638
f 642/687/629 654/710/652 653/705/647 641/700/642
f 639/678/620 651/711/653 650/707/649 638/679/621
f 636/682/624 648/712/654 647/709/651 635/683/625
f 643/686/628 655/702/644 654/710/652 642/687/629
f 640/690/632 652/706/648 651/711/653 639/678/620
f 637/692/634 649/708/650 648/712/654 636/682/624
f 649/708/650 661/713/655 660/714/656 648/712/654
f 656/701/643 668/715/657 667/716/658 655/702/644
f 646/703/645 658/717/659 657/718/660 645/704/646
f 653/705/647 665/719/661 664/720/662 652/706/648
f 650/707/649 662/721/663 661/713/655 649/708/650
f 645/704/646 657/718/660 668/715/657 656/701/643
f 647/709/651 659/722/664 658/717/659 646/703/645
f 654/710/652 666/723/665 665/719/661 653/705/647
f 651/711/653 663/724/666 662/721/663 650/707/649
f 648/712/654 660/714/656 659/722/664 647/709/651
f 655/702/644 667/716/658 666/723/665 654/710/652
f 652/706/648 664/720/662 663/724/666 651/711/653
f 661/713/655 669/725/667 660/714/656
f 668/715/657 669/725/667 667/716/658
f 658/717/659 669/725/667 657/718/660
f 665/719/661 669/725/667 664/720/662
f 662/721/663 669/725/667 661/713/655
f 657/718/660 669/725/667 668/715/657
f 659/722/664 669/725/667 658/717/659
f 666/723/665 669/725/667 665/719/661
f 663/724/666 669/725/667 662/721/663
f 660/714/656 669/725/667 659/722/664
f 667/716/658 669/725/667 666/723/665
f 664/720/662 669/725/667 663/724/666
f 676/726/668 675/727/669 687/728/670 688/729/671
f 673/730/672 672/731/673 684/732/674 685/733/675
f 680/734/676 679/735/677 691/736/678 692/737/679
f 677/738/680 676/726/668 688/729/671 689/739/681
f 674/740/682 673/730/672 685/733/675 686/741/683
f 681/742/684 680/734/676 692/737/679 693/743/685
f 671/744/686 670/745/687 682/746/688 683/747/689
f 678/748/690 677/738/680 689/739/681 690/749/691
f 675/727/669 674/740/682 686/741/683 687/728/670
f 670/745/687 681/742/684 693/743/685 682/746/688
f 672/731/673 671/744/686 683/747/689 684/732/674
f 679/735/677 678/748/690 690/749/691 691/736/678
f 693/743/685 692/737/679 704/750/692 705/751/693
f 683/747/689 682/746/688 694/752/694 695/753/695
f 690/749/691 689/739/681 701/754/696 702/755/697
f 687/728/670 686/741/683 698/756/698 699/757/699
f 682/746/688 693/743/685 705/751/693 694/752/694
f 684/732/674 683/747/689 695/753/695 696/758/700
f 691/736/678 690/749/691 702/755/697 703/759/701
f 688/729/671 687/728/670 699/757/699 700/760/702
f 685/733/675 684/732/674 696/758/700 697/761/703
f 692/737/679 691/736/678 703/759/701 704/750/692
f 689/739/681 688/729/671 700/760/702 701/754/696
f 686/741/683 685/733/675 697/761/703 698/756/698
f 698/756/698 697/761/703 709/762/704 710/763/705
f 705/751/693 704/750/692 716/764/706 717/765/707
f 695/753/695 694/752/694 706/766/708 707/767/709
f 702/755/697 701/754/696 713/768/710 714/769/711
f 699/757/699 698/756/698 710/763/705 711/770/712
f 694/752/694 705/751/693 717/765/707 706/766/708
f 696/758/700 695/753/695 707/767/709 708/771/713
f 703/759/701 702/755/697 714/769/711 715/772/714
f 700/760/702 699/757/699 711/770/712 712/773/715
f 697/761/703 696/758/700 708/771/713 709/762/704
f 704/750/692 703/759/701 715/772/714 716/764/706
f 701/754/696 700/760/702 712/773/715 713/768/710
f 710/763/705 709/762/704 718/774/716
f 717/765/707 716/764/706 718/774/716
f 707/767/709 706/766/708 718/774/716
f 714/769/711 713/768/710 718/774/716
f 711/770/712 710/763/705 718/774/716
f 706/766/708 717/765/707 718/774/716
f 708/771/713 707/767/709 718/774/716
f 715/772/714 714/769/711 718/774/716
f 712/773/715 711/770/712 718/774/716
f 709/762/704 708/771/713 718/774/716
f 716/764/706 715/772/714 718/774/716
f 713/768/710 712/773/715 718/774/716
