# Blender v2.79 (sub 0) OBJ File: 'aHatsuneMikuDivaBlank.blend'
# www.blender.org
mtllib ROOMITEMP005_ALL.mtl
o polySurface1_0_0
v -0.033516 8.323040 2.243861
v -1.422290 7.468179 3.410481
v -0.018601 7.795529 3.724901
v -3.467660 4.415539 2.347901
v -3.544690 4.111830 0.981453
v -3.351690 3.798519 2.390531
v 1.433130 8.322300 0.812125
v 1.537850 8.054120 2.086061
v 2.655880 7.582720 0.811601
v 2.585970 7.436539 2.086991
v -2.914380 3.739450 3.067971
v -2.577420 2.590610 2.753550
v -2.385090 2.780299 3.162060
v 0.006095 8.541340 0.812139
v -1.455270 8.032010 2.089731
v -1.420520 8.314330 0.812125
v -2.642220 7.574710 0.811634
v -2.727900 7.380559 2.091581
v 1.344040 7.517540 3.432821
v 2.149830 6.757579 3.368301
v -2.287570 6.818759 3.398001
v 3.411020 6.255179 2.113671
v 3.679150 4.826560 2.058551
v 3.645410 5.225720 0.807647
v 3.418790 6.479420 0.829491
v 3.691550 4.012060 0.771409
v 3.511260 3.747820 2.006801
v 3.296230 2.814640 1.289810
v -1.361890 6.688779 4.086091
v 0.022274 6.837519 4.508011
v 2.990230 4.362080 3.220271
v 2.740410 5.628059 3.412761
v 1.388990 6.679039 4.067101
v -1.608270 5.900169 3.532911
v 2.028370 5.049489 3.470421
v 2.240460 4.279609 3.263871
v -1.641110 2.373100 3.175900
v -1.960340 2.912259 3.025940
v 1.534940 2.250399 3.021170
v 1.649550 1.996199 2.638170
v 1.786390 2.326089 3.007260
v 2.157340 2.086109 2.642170
v -2.797610 5.775479 3.472691
v -2.934180 4.663569 3.305481
v -1.904920 5.047359 3.345971
v -2.090740 4.236139 3.190971
v -2.094790 3.608769 3.108980
v 1.536200 5.932759 3.744381
v -3.544160 5.325639 2.413731
v -1.122250 5.781189 4.223201
v 0.022835 5.830019 4.595511
v -0.079518 4.284450 3.826551
v 0.278051 4.164350 3.821381
v 0.023129 4.967370 4.280761
v 0.690174 5.040679 3.815481
v 1.050640 5.809319 4.333361
v -2.911540 2.547790 1.485140
v -2.427750 2.619580 1.591480
v -1.804880 2.157029 2.957090
v -0.941288 4.861660 3.852541
v -1.641110 2.373100 3.175900
v -1.960340 2.912259 3.025940
v 3.018350 3.589939 3.068410
v 2.278040 3.609579 3.089320
v 2.685380 2.776949 3.017880
v 1.928320 2.812520 3.062001
v 1.649550 1.996199 2.638170
v 1.895810 2.131270 2.018990
v 1.895810 2.131270 2.018990
v 2.377490 2.089010 1.899860
v 2.157340 2.086109 2.642170
v 3.599910 6.557400 -0.087617
v 2.885490 7.666060 -0.086215
v 3.597500 6.566600 0.808190
v 2.885900 7.666060 0.811630
v 1.555180 8.461760 -0.086012
v 1.555190 8.461760 0.812134
v 0.005986 8.688960 -0.086009
v 0.005986 8.688960 0.812141
v -1.542730 8.452550 -0.086011
v -1.542730 8.452550 0.812136
v -2.871790 7.657430 -0.086202
v -2.872170 7.657430 0.811661
v -3.763580 5.405440 0.839843
v -3.582020 6.564220 0.808431
v -3.751070 5.446490 -0.053644
v -3.561860 6.591870 -0.087445
v -3.771700 4.235150 -0.005516
v -3.788350 4.235150 0.881024
v 3.844240 5.303090 0.777734
v 3.838100 5.242120 -0.114595
v -3.565870 5.371610 -0.050237
v -3.491600 4.161760 0.005046
v 3.428300 6.466230 -0.087648
v 2.706890 7.601240 -0.086224
v -1.447880 8.345210 -0.086014
v 0.006072 8.574530 -0.086009
v 1.460460 8.353459 -0.086015
v -2.693250 7.593100 -0.086211
v 3.418790 6.479420 0.829491
v 3.645410 5.225720 0.807647
v -3.578810 5.193790 0.911962
v -3.544690 4.111830 0.981453
v 2.655880 7.582720 0.811601
v 1.433130 8.322300 0.812125
v -3.371870 6.444000 0.808314
v -2.642220 7.574710 0.811634
v -1.420520 8.314330 0.812125
v 0.006095 8.541340 0.812139
v 0.025386 3.333259 3.884290
v -1.027660 2.614549 3.354620
v 0.021352 2.434000 3.573430
v 2.278040 3.609579 3.089320
v 1.165870 3.368699 3.670000
v 1.928320 2.812520 3.062001
v 1.208920 2.587749 3.344180
v 1.086950 4.003759 3.676101
v 2.028370 5.049489 3.470421
v 1.344410 5.044250 3.802481
v 1.276460 2.266599 3.132590
v 1.895810 2.131270 2.018990
v 0.678958 2.082020 3.180380
v -0.879075 2.204299 3.132230
v -1.572690 2.547129 3.014680
v -1.717220 2.098580 2.025160
v -1.081310 3.368479 3.671680
v -1.061450 4.015909 3.677171
v 0.008739 4.017869 3.758351
v -1.960340 2.912259 3.025940
v -2.427750 2.619580 1.591480
v 0.017806 2.006279 3.201440
v -1.640560 1.945640 1.063500
v -2.019920 2.181130 0.825156
v -1.622330 1.742330 0.056514
v -2.094790 3.608769 3.108980
v -1.904920 5.047359 3.345971
v -1.267480 4.951479 3.802821
v -1.608270 5.900169 3.532911
v 1.536200 5.932759 3.744381
v -2.090740 4.236139 3.190971
v 2.240460 4.279609 3.263871
v -0.941288 4.861660 3.852541
v -0.079518 4.284450 3.826551
v 0.690174 5.040679 3.815481
v 0.278051 4.164350 3.821381
v -1.299210 1.666630 -0.678116
v 0.874733 1.564950 -0.796981
v -0.001068 1.572880 -1.017030
v 1.547030 1.607500 -0.076102
v 1.828850 1.804210 0.922680
v -0.052365 1.388681 -3.415390
v -0.001068 1.572880 -1.017030
v -0.889866 0.820656 -3.108460
v -1.299210 1.666630 -0.678116
v -1.833170 1.111480 -2.907020
v -2.367140 0.530309 -2.159690
v -1.299210 1.666630 -0.678116
v -1.622330 1.742330 0.056514
v -1.833170 1.111480 -2.907020
v -3.218900 0.891140 -1.705830
v 3.371200 1.130350 1.354490
v 2.817740 0.724628 1.337460
v 2.732580 0.888563 0.585378
v 3.296230 2.814640 1.289810
v 3.255590 1.980920 1.634130
v 2.377490 2.089010 1.899860
v 3.463110 2.703710 0.553176
v 3.691550 4.012060 0.771409
v 3.313390 1.747230 0.498017
v 2.281950 0.681904 3.607920
v 1.482740 1.235939 4.345090
v 1.665080 0.895137 3.378740
v 1.176320 1.328179 3.945370
v 1.191480 2.399179 4.145350
v 1.546050 2.246529 4.619160
v 1.758840 2.161279 3.519380
v 2.428870 2.000589 3.835890
v 1.693190 1.585369 4.662230
v 2.646200 1.154959 3.847160
v 1.364830 1.566890 3.236470
v 1.086320 1.928539 3.793300
v 1.482740 1.235939 4.345090
v 2.281950 0.681904 3.607920
v 1.086320 1.928539 3.793300
v 1.364830 1.566890 3.236470
v 0.782946 1.315379 4.520660
v 0.616806 1.334519 4.365500
v 0.611426 1.615429 4.262620
v 0.563508 1.838559 4.498760
v 0.611426 1.615429 4.262620
v 0.748510 1.764979 4.685240
v 0.868280 1.464169 4.734560
v 0.782946 1.315379 4.520660
v 0.471404 1.428859 4.645080
v 0.471404 1.428859 4.645080
v 2.097400 0.845179 2.425970
v 2.791440 0.623439 2.630950
v 2.107420 2.009860 2.717390
v 3.009420 1.791849 2.967820
v 3.240830 0.956349 2.861960
v 1.775000 1.427920 2.469290
v 2.791440 0.623439 2.630950
v 1.775000 1.427920 2.469290
v 1.897760 1.433820 1.569590
v 2.043590 0.855502 1.117910
v 1.897760 1.433820 1.569590
v 2.817740 0.724628 1.337460
v 2.732580 0.888563 0.585378
v 1.828850 1.804210 0.922680
v 1.895810 2.131270 2.018990
v 1.828850 1.804210 0.922680
v 2.822150 1.025220 -1.170250
v 2.944960 0.295128 -0.182003
v 1.547030 1.607500 -0.076102
v -2.898000 0.775942 -0.653954
v -1.622330 1.742330 0.056514
v -3.116920 1.285890 0.003996
v -3.218900 0.891140 -1.705830
v 2.732580 0.888563 0.585378
v 1.547030 1.607500 -0.076102
v -4.930450 1.508510 -0.602984
v -5.643470 0.790673 -0.056339
v -4.571570 1.229980 -0.050366
v -5.365350 0.632209 0.227858
v -4.286390 0.534712 -0.035646
v -5.112160 0.193934 0.151853
v -4.286390 0.534712 -0.035646
v -5.112160 0.193934 0.151853
v -5.195450 0.036980 -0.147246
v -4.227080 0.288488 -0.596817
v -4.580240 0.499068 -1.161940
v -5.535680 0.221495 -0.372046
v -4.580240 0.499068 -1.161940
v -5.535680 0.221495 -0.372046
v -4.909570 1.110810 -1.045300
v -5.723080 0.560747 -0.349169
v -5.836860 0.125187 0.377536
v -5.836860 0.125187 0.377536
v -3.564200 1.673730 -1.451620
v -3.628870 2.343530 -0.982886
v -3.218900 0.891140 -1.705830
v -3.116920 1.285890 0.003996
v -3.573770 1.803890 -0.216754
v 1.640060 8.012340 -1.627639
v -0.007373 8.259390 -1.853929
v 1.460460 8.353459 -0.086015
v 0.006072 8.574530 -0.086009
v -3.021550 4.195530 -1.476879
v -1.750850 4.156420 -3.025099
v -2.907770 2.706280 -2.599200
v 3.419170 1.551360 -1.109150
v 3.245940 4.120420 -1.481369
v 3.401480 2.330840 -0.415372
v 1.866080 4.282560 -3.088119
v 2.776790 2.325020 -2.577039
v 2.049520 1.872740 -2.839520
v 0.830516 2.844320 -3.457959
v 0.015314 4.315320 -3.571739
v 1.841040 5.919860 -3.102609
v -0.003063 5.905750 -3.607489
v -0.022192 7.318151 -2.977469
v 1.690070 7.224260 -2.647439
v -1.549090 8.120140 -1.512689
v -1.447880 8.345210 -0.086014
v -1.087120 2.910820 -3.287560
v 1.512940 2.091350 -3.078700
v 1.618890 1.120650 -2.844070
v -0.323680 2.274261 -3.428599
v 0.167060 2.167940 -3.563010
v -0.052365 1.388681 -3.415390
v -1.730850 5.936471 -3.069139
v -1.589360 7.291620 -2.643499
v -2.954790 6.203020 -1.553559
v -2.169130 1.987250 -2.938360
v -1.701460 2.070071 -3.036780
v -1.833170 1.111480 -2.907020
v 2.706890 7.601240 -0.086224
v 2.337120 7.469570 -1.597489
v -3.017750 1.987600 -1.959980
v 3.037860 1.752180 -1.928650
v 2.822150 1.025220 -1.170250
v -3.565870 5.371610 -0.050237
v -3.491600 4.161760 0.005046
v 3.577430 4.068970 -0.146882
v -2.234650 7.497590 -1.500479
v -2.693250 7.593100 -0.086211
v 3.428300 6.466230 -0.087648
v 3.125750 6.099680 -1.589309
v 3.463110 2.703710 0.553176
v 3.691550 4.012060 0.771409
v 3.528770 2.059600 0.234272
v 3.313390 1.747230 0.498017
v -3.625180 1.919210 0.199717
v -3.544690 4.111830 0.981453
v 0.840843 1.925461 -4.616149
v 0.314132 1.374061 -4.497680
v 0.896589 1.024431 -5.490920
v 0.595784 0.712932 -5.432090
v 1.055150 0.073022 -5.344970
v 1.400060 0.397623 -5.403260
v 0.892161 0.237200 -4.320700
v 1.655050 0.660057 -4.379670
v 1.511180 1.498291 -4.529409
v 1.655050 0.660057 -4.379670
v 1.330070 0.845087 -5.471080
v 1.400060 0.397623 -5.403260
v 0.193846 0.599334 -4.376470
v 0.626638 0.232433 -5.351270
v 0.626638 0.232433 -5.351270
v 0.193846 0.599334 -4.376470
v 1.092760 0.575806 -5.965220
v 1.092760 0.575806 -5.965220
v 0.685265 0.867544 -3.023230
v 1.618890 1.120650 -2.844070
v -0.052365 1.388681 -3.415390
v 3.483410 1.666360 -3.120160
v 3.092980 1.133571 -3.457060
v 3.538490 -0.005126 -2.801050
v 3.949740 0.594218 -2.396020
v 2.377850 0.162460 -1.992290
v 2.822150 1.025220 -1.170250
v 3.848710 1.343570 -2.614880
v 3.949740 0.594218 -2.396020
v 3.079640 0.186765 -3.367690
v 1.618890 1.120650 -2.844070
v 4.343870 1.152231 -3.559340
v 4.146260 0.886276 -3.713560
v 4.161060 0.413727 -3.675980
v 3.079640 0.186765 -3.367690
v 4.161060 0.413727 -3.675980
v 4.412340 0.339971 -3.416040
v 4.627620 0.617079 -3.231070
v 4.573400 1.033841 -3.304300
v 4.627620 0.617079 -3.231070
v 4.769190 0.767665 -3.726090
v 4.769190 0.767665 -3.726090
v 4.152560 0.553172 0.689283
v 4.217400 -0.005076 0.188912
v 4.750670 0.742124 -0.635224
v 4.790610 1.385890 -0.180396
v 4.152560 0.553172 0.689283
v 2.732580 0.888563 0.585378
v 4.521130 0.056601 -0.455852
v 4.459450 1.335050 0.573620
v 4.942300 0.116543 0.585155
v 4.788900 0.489748 0.918689
v 4.788900 0.489748 0.918689
v 5.005010 1.041880 0.835164
v 5.300390 1.087180 0.379120
v 5.345690 0.612313 0.075780
v 5.202250 0.150422 0.196684
v 4.521130 0.056601 -0.455852
v 5.202250 0.150422 0.196684
v 5.400410 0.237479 0.914985
v 5.234760 0.471976 1.124670
v 5.619220 0.301151 1.271430
v 5.234760 0.471976 1.124670
v 5.380290 0.838262 1.067570
v 5.619220 0.301151 1.271430
v 5.651980 0.710343 0.717005
v 5.600950 0.253926 0.698708
v 5.600950 0.253926 0.698708
v -1.718670 1.680141 -4.491859
v -2.154830 1.219071 -4.089220
v -2.441450 0.835440 -5.299490
v -2.664970 0.557146 -5.015990
v -2.201440 0.338876 -3.888020
v -2.505690 0.172295 -4.960260
v -2.201440 0.338876 -3.888020
v -2.505690 0.172295 -4.960260
v -2.153790 0.024387 -5.113300
v -1.458080 0.113261 -4.184240
v -0.897097 0.480259 -4.640130
v -1.999280 0.127231 -5.535000
v -2.140830 0.741648 -5.547550
v -1.999280 0.127231 -5.535000
v -0.897097 0.480259 -4.640130
v -1.109280 1.415841 -4.749700
v -2.783650 0.171952 -5.648560
v -2.783650 0.171952 -5.648560
v -3.716640 1.936821 -3.311410
v -4.532650 0.931774 -3.635960
v -3.953390 1.380270 -2.696990
v -4.654820 0.709251 -3.223210
v -3.389440 0.323381 -3.006720
v -4.283460 0.078464 -3.446320
v -4.182590 0.367556 -3.930590
v -3.028120 0.777459 -3.632220
v -3.316640 1.454151 -3.627590
v -3.028120 0.777459 -3.632220
v -4.294100 0.740024 -3.890740
v -4.182590 0.367556 -3.930590
v -3.838500 0.527772 -2.571750
v -4.468480 0.261255 -3.125290
v -4.468480 0.261255 -3.125290
v -3.838500 0.527772 -2.571750
v -4.836820 0.185318 -3.741500
v -4.836820 0.185318 -3.741500
v -2.318240 1.733529 3.178220
v -1.305980 2.200029 3.782030
v -1.742230 1.226119 3.626710
v -1.306500 1.883609 4.154990
v -2.229890 2.396379 4.183110
v -2.862290 2.039259 3.668220
v -2.131990 2.168799 4.544010
v -2.805070 1.348399 3.953570
v -1.720810 1.893259 4.605031
v -2.300240 0.964718 3.856120
v -1.305980 2.200029 3.782030
v -2.318240 1.733529 3.178220
v -1.801960 2.435109 3.787780
v -2.305850 2.127219 3.223440
v -1.720810 1.893259 4.605031
v -2.300240 0.964718 3.856120
v -1.498300 2.988559 4.310190
v -1.359900 2.959939 4.007830
v -1.385340 2.824629 4.504190
v -1.274100 2.614569 4.525090
v -1.274100 2.614569 4.525090
v -1.191780 2.476599 4.213531
v -1.114990 2.876899 4.223920
v -1.114990 2.876899 4.223920
v -2.112800 0.782860 2.787460
v -2.096370 1.563339 2.649350
v -3.283990 1.755059 2.867900
v -3.388810 1.008569 3.024450
v -2.849800 0.427331 2.940530
v -2.575690 2.063609 2.736540
v -2.096370 1.563339 2.649350
v -2.849800 0.427331 2.940530
v -3.439660 1.690170 2.084760
v -3.621490 0.927529 2.054470
v -2.203900 1.480190 1.871240
v -2.234920 0.725220 1.789840
v -2.686840 2.149200 1.979280
v -3.105590 0.292374 1.848240
v -3.105590 0.292374 1.848240
v -2.203900 1.480190 1.871240
v -3.612200 1.890040 1.331440
v -3.722920 1.200180 0.918823
v -3.248570 0.683654 0.527668
v -3.248570 0.683654 0.527668
v -2.243860 1.208350 0.820535
v -2.341840 1.815140 1.256820
v -2.911540 2.547790 1.485140
v -2.341840 1.815140 1.256820
v -1.214970 2.643639 3.955010
v -1.214970 2.643639 3.955010
v -3.116920 1.285890 0.003996
v -1.622330 1.742330 0.056514
v -2.427750 2.619580 1.591480
v -2.019920 2.181130 0.825156
v -3.494300 2.309060 1.021880
v -3.544690 4.111830 0.981453
v -3.625180 1.919210 0.199717
v -3.116920 1.285890 0.003996
v -0.001068 1.572880 -1.017030
v 0.874733 1.564950 -0.796981
v 1.547030 1.607500 -0.076102
v 0.874733 1.564950 -0.796981
v -2.019920 2.181130 0.825156
v 3.774510 4.186690 0.744722
v 3.691550 4.012060 0.771409
v 3.757770 4.186690 -0.140988
v 3.573970 5.138870 -0.117439
v 3.577430 4.068970 -0.146882
v 3.573970 5.138870 -0.117439
v -3.371870 6.444000 0.808314
v -3.578810 5.193790 0.911962
v -3.359700 6.325579 2.345561
v -3.440320 6.486520 -0.087530
v -3.440320 6.486520 -0.087530
v 2.157340 2.086109 2.642170
v -4.279640 5.174680 -0.538105
v -3.668990 5.257030 -0.538105
v -4.176000 4.406290 -1.101419
v -3.565370 4.488640 -1.101419
v -4.047910 3.456500 -1.101419
v -3.437260 3.538870 -1.101419
v -3.944290 2.688120 -0.538105
v -3.333640 2.770490 -0.538105
v -3.904700 2.394630 0.373361
v -3.294050 2.476980 0.373361
v -3.904700 2.394630 0.373361
v -3.294050 2.476980 0.373361
v -3.944290 2.688120 1.284830
v -3.333640 2.770490 1.284830
v -4.047910 3.456500 1.848150
v -3.437260 3.538870 1.848150
v -4.176000 4.406290 1.848151
v -3.565370 4.488639 1.848151
v -4.279640 5.174680 1.284831
v -3.668990 5.257030 1.284831
v -4.319230 5.468170 0.373362
v -3.708580 5.550520 0.373362
v -4.434840 4.299280 -0.881502
v -4.523020 4.953080 -0.402187
v -4.325850 3.491140 -0.881502
v -4.237670 2.837320 -0.402187
v -4.203990 2.587590 0.373361
v -4.237670 2.837320 1.148910
v -4.203990 2.587590 0.373361
v -4.325850 3.491140 1.628231
v -4.434840 4.299279 1.628231
v -4.523020 4.953080 1.148911
v -4.556700 5.202810 0.373362
v -4.434840 4.299280 -0.881502
v -4.730380 4.097000 -0.386146
v -4.523020 4.953080 -0.402187
v -4.783750 4.492730 -0.096039
v -4.664430 3.607880 -0.386146
v -4.325850 3.491140 -0.881502
v -4.237670 2.837320 -0.402187
v -4.611060 3.212150 -0.096039
v -4.590670 3.061010 0.373361
v -4.203990 2.587590 0.373361
v -4.611060 3.212150 0.842764
v -4.237670 2.837320 1.148910
v -4.664430 3.607870 1.132871
v -4.325850 3.491140 1.628231
v -4.730380 4.097000 1.132871
v -4.434840 4.299279 1.628231
v -4.783750 4.492730 0.842764
v -4.523020 4.953080 1.148911
v -4.556700 5.202810 0.373362
v -4.804150 4.643870 0.373362
v -2.890670 4.096120 0.373362
v 4.174810 5.174680 -0.538105
v 4.071190 4.406290 -1.101419
v 3.564160 5.257030 -0.538105
v 3.460540 4.488640 -1.101419
v 3.943100 3.456500 -1.101419
v 3.332450 3.538870 -1.101419
v 3.839470 2.688120 -0.538105
v 3.228820 2.770490 -0.538105
v 3.799870 2.394630 0.373361
v 3.189240 2.476980 0.373361
v 3.799870 2.394630 0.373361
v 3.839470 2.688120 1.284830
v 3.189240 2.476980 0.373361
v 3.228820 2.770490 1.284830
v 3.943100 3.456500 1.848150
v 3.332450 3.538870 1.848150
v 4.071190 4.406290 1.848151
v 3.460540 4.488639 1.848151
v 4.174810 5.174680 1.284831
v 3.564160 5.257030 1.284831
v 4.214390 5.468170 0.373362
v 3.603760 5.550520 0.373362
v 4.330010 4.299280 -0.881502
v 4.418190 4.953080 -0.402187
v 4.221040 3.491140 -0.881502
v 4.132840 2.837320 -0.402187
v 4.099160 2.587590 0.373361
v 4.132840 2.837320 1.148910
v 4.099160 2.587590 0.373361
v 4.221040 3.491140 1.628231
v 4.330010 4.299279 1.628231
v 4.418190 4.953080 1.148911
v 4.451870 5.202810 0.373362
v 4.330010 4.299280 -0.881502
v 4.418190 4.953080 -0.402187
v 4.625570 4.097000 -0.386146
v 4.678940 4.492730 -0.096039
v 4.559600 3.607880 -0.386146
v 4.221040 3.491140 -0.881502
v 4.132840 2.837320 -0.402187
v 4.506230 3.212150 -0.096039
v 4.485850 3.061010 0.373361
v 4.099160 2.587590 0.373361
v 4.506230 3.212150 0.842764
v 4.132840 2.837320 1.148910
v 4.221040 3.491140 1.628231
v 4.559600 3.607880 1.132871
v 4.625570 4.097000 1.132871
v 4.330010 4.299279 1.628231
v 4.678940 4.492730 0.842764
v 4.418190 4.953080 1.148911
v 4.451870 5.202810 0.373362
v 4.699310 4.643870 0.373362
v 2.785840 4.096120 0.373362
vt 0.351360 0.917172
vt 0.291387 0.839629
vt 0.351360 0.835525
vt 0.114567 0.776980
vt 0.046659 0.817196
vt 0.099368 0.747769
vt 0.434952 0.982221
vt 0.424921 0.906867
vt 0.512161 0.948268
vt 0.478633 0.881820
vt 0.129583 0.716247
vt 0.060672 0.657854
vt 0.081464 0.659556
vt 0.354582 0.996022
vt 0.283818 0.909268
vt 0.273361 0.985079
vt 0.195210 0.953557
vt 0.227218 0.884890
vt 0.408172 0.839568
vt 0.452126 0.806435
vt 0.253998 0.818138
vt 0.532679 0.840085
vt 0.584354 0.788562
vt 0.625572 0.856073
vt 0.572955 0.903767
vt 0.670986 0.810660
vt 0.621286 0.749532
vt 0.680135 0.734333
vt 0.301053 0.792300
vt 0.354157 0.789595
vt 0.545871 0.726643
vt 0.496719 0.770779
vt 0.404281 0.790841
vt 0.256825 0.764365
vt 0.498573 0.730078
vt 0.535962 0.700258
vt 0.080339 0.646850
vt 0.109612 0.667095
vt 0.620162 0.623353
vt 0.642321 0.616392
vt 0.622624 0.631956
vt 0.639616 0.631986
vt 0.202627 0.789169
vt 0.158460 0.754851
vt 0.207855 0.734090
vt 0.170680 0.707918
vt 0.142228 0.687886
vt 0.442460 0.762177
vt 0.141499 0.810630
vt 0.302451 0.751325
vt 0.356953 0.749197
vt 0.340174 0.672536
vt 0.360783 0.664177
vt 0.359932 0.705608
vt 0.394767 0.703389
vt 0.400360 0.751234
vt 0.024743 0.721597
vt 0.011672 0.698677
vt 0.055869 0.646273
vt 0.296554 0.704635
vt 0.041796 0.631226
vt 0.009605 0.620070
vt 0.574384 0.700106
vt 0.568183 0.674603
vt 0.603869 0.658462
vt 0.595054 0.648552
vt 0.618186 0.603139
vt 0.593473 0.583168
vt 0.673083 0.626393
vt 0.671290 0.660043
vt 0.639616 0.631986
vt 0.924589 0.904982
vt 0.924589 0.850328
vt 0.968330 0.904526
vt 0.968330 0.850328
vt 0.924589 0.782786
vt 0.968330 0.782786
vt 0.924589 0.715244
vt 0.968330 0.715244
vt 0.924589 0.647732
vt 0.968330 0.647732
vt 0.924589 0.580189
vt 0.968330 0.580189
vt 0.968330 0.483557
vt 0.968330 0.526083
vt 0.924589 0.484895
vt 0.924589 0.527390
vt 0.924589 0.445105
vt 0.968330 0.445105
vt 0.968330 0.949666
vt 0.924589 0.951612
vt 0.905864 0.485442
vt 0.905864 0.445105
vt 0.905864 0.905347
vt 0.905864 0.850328
vt 0.905864 0.647732
vt 0.905864 0.715244
vt 0.905864 0.782786
vt 0.905864 0.580189
vt 0.983954 0.902216
vt 0.983954 0.946900
vt 0.983954 0.472918
vt 0.983954 0.445105
vt 0.983954 0.850328
vt 0.983954 0.782786
vt 0.983954 0.529822
vt 0.983954 0.580189
vt 0.983954 0.647732
vt 0.983954 0.715244
vt 0.725184 0.261445
vt 0.665393 0.223328
vt 0.724971 0.213783
vt 0.855222 0.275975
vt 0.789717 0.263269
vt 0.833701 0.233754
vt 0.792452 0.221899
vt 0.785370 0.297132
vt 0.839203 0.353062
vt 0.800143 0.353062
vt 0.796556 0.204937
vt 0.830601 0.164509
vt 0.762511 0.195210
vt 0.673661 0.201654
vt 0.634053 0.219741
vt 0.625998 0.179434
vt 0.662596 0.263269
vt 0.663599 0.297800
vt 0.724272 0.297952
vt 0.612015 0.239043
vt 0.582925 0.223540
vt 0.724819 0.191198
vt 0.626727 0.143839
vt 0.605814 0.200408
vt 0.626545 0.096206
vt 0.604446 0.275975
vt 0.615237 0.353062
vt 0.651805 0.348108
vt 0.632047 0.399844
vt 0.811359 0.401576
vt 0.604720 0.309412
vt 0.855800 0.311631
vt 0.670378 0.343274
vt 0.719317 0.312452
vt 0.763089 0.353062
vt 0.739440 0.305916
vt 0.647519 0.059669
vt 0.775339 0.054319
vt 0.725305 0.022889
vt 0.812545 0.089124
vt 0.829263 0.136392
vt 0.782269 0.884860
vt 0.782269 0.986477
vt 0.735245 0.884860
vt 0.691352 0.986477
vt 0.691352 0.884860
vt 0.735245 0.884860
vt 0.782269 0.986477
vt 0.691352 0.986477
vt 0.782269 0.884860
vt 0.691352 0.884860
vt 0.088881 0.539761
vt 0.050884 0.595388
vt 0.005319 0.547573
vt 0.141043 0.431639
vt 0.144173 0.502464
vt 0.199192 0.510854
vt 0.085355 0.405649
vt 0.140191 0.326951
vt 0.052222 0.469757
vt 0.691808 0.478693
vt 0.702933 0.429268
vt 0.739561 0.478693
vt 0.739561 0.429268
vt 0.260564 0.620891
vt 0.246338 0.637245
vt 0.239347 0.588822
vt 0.209649 0.608276
vt 0.233663 0.658948
vt 0.183173 0.638734
vt 0.784367 0.478693
vt 0.773485 0.429268
vt 0.226063 0.680743
vt 0.168795 0.667642
vt 0.283088 0.607820
vt 0.277404 0.574475
vt 0.712356 0.390633
vt 0.739561 0.390633
vt 0.764396 0.390633
vt 0.281447 0.648613
vt 0.297223 0.640436
vt 0.271294 0.656547
vt 0.263148 0.671563
vt 0.263056 0.688403
vt 0.739561 0.359719
vt 0.284973 0.670074
vt 0.739561 0.541767
vt 0.691808 0.541767
vt 0.221929 0.543561
vt 0.174510 0.571070
vt 0.138276 0.605875
vt 0.784367 0.541767
vt 0.110858 0.639859
vt 0.261385 0.530095
vt 0.784367 0.598458
vt 0.739561 0.598458
vt 0.248192 0.495838
vt 0.691808 0.598458
vt 0.691808 0.644814
vt 0.235760 0.453768
vt 0.185422 0.476262
vt 0.784367 0.644814
vt 0.691352 0.884860
vt 0.735245 0.884860
vt 0.735762 0.986477
vt 0.735245 0.884860
vt 0.735762 0.986477
vt 0.691352 0.884860
vt 0.782269 0.884860
vt 0.782269 0.884860
vt 0.739561 0.672536
vt 0.553896 0.129552
vt 0.575964 0.066204
vt 0.572651 0.136969
vt 0.587971 0.069639
vt 0.599036 0.146879
vt 0.600008 0.073074
vt 0.691352 0.797164
vt 0.691352 0.742449
vt 0.735488 0.742449
vt 0.735488 0.797164
vt 0.782269 0.797164
vt 0.782269 0.742449
vt 0.507844 0.115083
vt 0.551890 0.059335
vt 0.532557 0.122318
vt 0.563927 0.062770
vt 0.591953 0.034622
vt 0.735488 0.684300
vt 0.498968 0.192778
vt 0.516021 0.209892
vt 0.492372 0.178157
vt 0.586117 0.205758
vt 0.558060 0.205120
vt 0.276158 0.392822
vt 0.326799 0.395557
vt 0.271507 0.441001
vt 0.327042 0.448996
vt 0.465440 0.270352
vt 0.389448 0.252630
vt 0.440028 0.201502
vt 0.146119 0.187094
vt 0.183325 0.272024
vt 0.128397 0.215880
vt 0.259257 0.260564
vt 0.208706 0.197581
vt 0.230805 0.189161
vt 0.293484 0.205940
vt 0.324671 0.255670
vt 0.270899 0.312543
vt 0.325675 0.306008
vt 0.326708 0.351938
vt 0.278468 0.354217
vt 0.374340 0.396834
vt 0.382547 0.439117
vt 0.366012 0.207095
vt 0.258284 0.189526
vt 0.244423 0.182626
vt 0.331116 0.188705
vt 0.313485 0.187216
vt 0.323911 0.165543
vt 0.377684 0.311418
vt 0.370419 0.355038
vt 0.430605 0.345220
vt 0.408993 0.184541
vt 0.393278 0.182170
vt 0.402306 0.171652
vt 0.216974 0.413340
vt 0.250107 0.378201
vt 0.472614 0.188249
vt 0.176668 0.189587
vt 0.156241 0.183264
vt 0.494865 0.330933
vt 0.514562 0.289228
vt 0.137425 0.285277
vt 0.401394 0.379690
vt 0.435864 0.409935
vt 0.178735 0.372729
vt 0.213205 0.337469
vt 0.093562 0.238192
vt 0.100189 0.291235
vt 0.106451 0.205393
vt 0.088364 0.201442
vt 0.570037 0.214968
vt 0.549306 0.305035
vt 0.274851 0.111679
vt 0.297344 0.110281
vt 0.263816 0.046264
vt 0.281173 0.044866
vt 0.735488 0.742449
vt 0.782269 0.742449
vt 0.735488 0.797164
vt 0.782269 0.797164
vt 0.250107 0.113047
vt 0.226154 0.115448
vt 0.246460 0.047632
vt 0.233146 0.048726
vt 0.325097 0.110341
vt 0.297071 0.043589
vt 0.691352 0.742449
vt 0.691352 0.797164
vt 0.260412 0.012797
vt 0.735488 0.684300
vt 0.735245 0.884860
vt 0.782269 0.884860
vt 0.691352 0.884860
vt 0.178431 0.118427
vt 0.200894 0.116603
vt 0.735488 0.797164
vt 0.782269 0.797164
vt 0.735245 0.884860
vt 0.782269 0.884860
vt 0.155846 0.120281
vt 0.131224 0.124202
vt 0.691352 0.797164
vt 0.691352 0.884860
vt 0.158126 0.057420
vt 0.174996 0.054745
vt 0.192201 0.052039
vt 0.226154 0.115448
vt 0.691352 0.742449
vt 0.735488 0.742449
vt 0.782269 0.742449
vt 0.141134 0.060095
vt 0.128185 0.062131
vt 0.153992 0.024013
vt 0.735488 0.684300
vt 0.782269 0.797164
vt 0.735488 0.797164
vt 0.107636 0.127941
vt 0.088303 0.139492
vt 0.044835 0.164357
vt 0.030670 0.196335
vt 0.691352 0.797164
vt 0.068940 0.151043
vt 0.735488 0.761174
vt 0.782269 0.761174
vt 0.028026 0.126361
vt 0.045808 0.112165
vt 0.063043 0.103776
vt 0.080309 0.095416
vt 0.099033 0.089701
vt 0.131224 0.124202
vt 0.691352 0.761174
vt 0.735488 0.742449
vt 0.782269 0.742449
vt 0.735488 0.684300
vt 0.022098 0.100706
vt 0.033771 0.091920
vt 0.028968 0.055748
vt 0.058028 0.081859
vt 0.082284 0.071767
vt 0.691352 0.742449
vt 0.370145 0.110341
vt 0.392791 0.110341
vt 0.365434 0.041765
vt 0.379599 0.041765
vt 0.416410 0.109338
vt 0.393886 0.041765
vt 0.691352 0.797164
vt 0.691352 0.742449
vt 0.735488 0.742449
vt 0.735488 0.797164
vt 0.782269 0.797164
vt 0.782269 0.742449
vt 0.351360 0.041765
vt 0.337286 0.041765
vt 0.325097 0.110341
vt 0.347621 0.110341
vt 0.367835 0.011094
vt 0.735488 0.684300
vt 0.461367 0.112013
vt 0.468875 0.045382
vt 0.483861 0.113351
vt 0.483375 0.046629
vt 0.735488 0.797164
vt 0.735488 0.742449
vt 0.782269 0.742449
vt 0.782269 0.797164
vt 0.438904 0.110676
vt 0.416410 0.109338
vt 0.454376 0.044167
vt 0.439876 0.042951
vt 0.507844 0.115083
vt 0.497874 0.047845
vt 0.691352 0.742449
vt 0.691352 0.797164
vt 0.478937 0.012979
vt 0.735488 0.684300
vt 0.981188 0.270200
vt 0.971522 0.339627
vt 0.927142 0.270200
vt 0.927142 0.339627
vt 0.504014 0.452248
vt 0.473435 0.496841
vt 0.483496 0.433767
vt 0.433493 0.477174
vt 0.464559 0.409966
vt 0.403825 0.458115
vt 0.595844 0.477113
vt 0.566419 0.545294
vt 0.539427 0.463951
vt 0.513346 0.526508
vt 0.875315 0.339627
vt 0.865679 0.270200
vt 0.559732 0.394524
vt 0.576876 0.395071
vt 0.547209 0.385982
vt 0.535445 0.376073
vt 0.892824 0.414616
vt 0.927142 0.410300
vt 0.574475 0.375739
vt 0.927142 0.433007
vt 0.927142 0.209041
vt 0.983377 0.209041
vt 0.449816 0.538120
vt 0.408993 0.520854
vt 0.370814 0.505169
vt 0.500063 0.554656
vt 0.537238 0.574748
vt 0.863460 0.209041
vt 0.436654 0.574839
vt 0.396560 0.560705
vt 0.983377 0.162716
vt 0.927142 0.162716
vt 0.484743 0.595054
vt 0.355372 0.552589
vt 0.863460 0.162716
vt 0.523712 0.603322
vt 0.432277 0.610860
vt 0.392335 0.609158
vt 0.354278 0.613626
vt 0.863460 0.114202
vt 0.927142 0.095690
vt 0.983377 0.100371
vt 0.474438 0.623080
vt 0.506172 0.622806
vt 0.962555 0.414616
vt 0.596908 0.403066
vt 0.863460 0.069427
vt 0.927142 0.030518
vt 0.481520 0.638278
vt 0.513498 0.643233
vt 0.440545 0.637245
vt 0.491369 0.706125
vt 0.395649 0.651592
vt 0.361361 0.649616
vt 0.691352 0.986477
vt 0.782269 0.986477
vt 0.782269 0.986477
vt 0.691352 0.986477
vt 0.983377 0.066934
vt 0.968330 0.985383
vt 0.983954 0.985383
vt 0.924589 0.985383
vt 0.905864 0.951612
vt 0.905864 0.985383
vt 0.153748 0.324398
vt 0.137243 0.914649
vt 0.075810 0.851848
vt 0.177063 0.847745
vt 0.905864 0.526812
vt 0.471976 0.369750
vt 0.639616 0.631986
vt 0.850389 0.769259
vt 0.824126 0.769259
vt 0.850389 0.823032
vt 0.824126 0.823032
vt 0.850389 0.876835
vt 0.824126 0.876835
vt 0.850389 0.930607
vt 0.824126 0.930607
vt 0.850389 0.984410
vt 0.824126 0.984410
vt 0.850389 0.446503
vt 0.824126 0.446503
vt 0.850389 0.500306
vt 0.824126 0.500306
vt 0.850389 0.554078
vt 0.824126 0.554048
vt 0.850389 0.607881
vt 0.824126 0.608003
vt 0.850389 0.661654
vt 0.824126 0.661654
vt 0.850389 0.715456
vt 0.824126 0.715456
vt 0.866013 0.823032
vt 0.866013 0.769259
vt 0.866013 0.876835
vt 0.866013 0.930607
vt 0.866013 0.984410
vt 0.866013 0.500306
vt 0.866013 0.446503
vt 0.866013 0.554078
vt 0.866013 0.607881
vt 0.866013 0.661654
vt 0.866013 0.715456
vt 0.006018 0.954864
vt 0.034318 0.945654
vt 0.028178 0.983893
vt 0.044926 0.960336
vt 0.034257 0.927537
vt 0.006839 0.918357
vt 0.028390 0.889784
vt 0.044926 0.913007
vt 0.062040 0.907536
vt 0.062222 0.879236
vt 0.079062 0.913159
vt 0.095720 0.890392
vt 0.089580 0.927659
vt 0.116390 0.918935
vt 0.089610 0.945593
vt 0.116482 0.954165
vt 0.079154 0.960153
vt 0.095963 0.982890
vt 0.062405 0.994289
vt 0.062101 0.965807
vt 0.790507 0.715456
vt 0.850389 0.769259
vt 0.850389 0.823032
vt 0.824126 0.769259
vt 0.824126 0.823032
vt 0.850389 0.876835
vt 0.824126 0.876835
vt 0.850389 0.930607
vt 0.824126 0.930607
vt 0.850389 0.984410
vt 0.824126 0.984410
vt 0.850389 0.446503
vt 0.850389 0.500306
vt 0.824126 0.446503
vt 0.824126 0.500306
vt 0.850389 0.554078
vt 0.824126 0.554048
vt 0.850389 0.607881
vt 0.824126 0.608003
vt 0.850389 0.661654
vt 0.824126 0.661654
vt 0.850389 0.715456
vt 0.824126 0.715456
vt 0.866013 0.823032
vt 0.866013 0.769259
vt 0.866013 0.876835
vt 0.866013 0.930607
vt 0.866013 0.984410
vt 0.866013 0.500306
vt 0.866013 0.446503
vt 0.866013 0.554078
vt 0.866013 0.607881
vt 0.866013 0.661654
vt 0.866013 0.715456
vt 0.006018 0.954864
vt 0.028178 0.983893
vt 0.034318 0.945654
vt 0.044926 0.960336
vt 0.034257 0.927537
vt 0.006839 0.918357
vt 0.028390 0.889784
vt 0.044926 0.913007
vt 0.062040 0.907536
vt 0.062222 0.879236
vt 0.079062 0.913159
vt 0.095720 0.890392
vt 0.116390 0.918935
vt 0.089580 0.927659
vt 0.089610 0.945593
vt 0.116482 0.954165
vt 0.079154 0.960153
vt 0.095963 0.982890
vt 0.062405 0.994289
vt 0.062101 0.965807
vt 0.790507 0.715456
usemtl Mdl_0_Mtl_lambert2
s 1
f 1/1 2/2 3/3
f 4/4 5/5 6/6
f 7/7 8/8 9/9
f 9/9 8/8 10/10
f 6/6 11/11 4/4
f 6/6 12/12 11/11
f 11/11 12/12 13/13
f 7/7 14/14 8/8
f 14/14 1/1 8/8
f 14/14 15/15 1/1
f 1/1 15/15 2/2
f 16/16 15/15 14/14
f 16/16 17/17 15/15
f 15/15 17/17 18/18
f 15/15 18/18 2/2
f 1/1 3/3 19/19
f 8/8 19/19 10/10
f 8/8 1/1 19/19
f 10/10 19/19 20/20
f 2/2 18/18 21/21
f 10/10 20/20 22/22
f 23/23 24/24 22/22
f 22/22 25/25 10/10
f 10/10 25/25 9/9
f 22/22 24/24 25/25
f 24/24 23/23 26/26
f 26/26 23/23 27/27
f 27/27 28/28 26/26
f 29/29 3/3 2/2
f 30/30 3/3 29/29
f 23/23 31/31 27/27
f 31/31 23/23 32/32
f 32/32 23/23 22/22
f 22/22 20/20 32/32
f 33/33 3/3 30/30
f 19/19 3/3 33/33
f 34/34 2/2 21/21
f 29/29 2/2 34/34
f 35/35 31/31 32/32
f 36/36 31/31 35/35
f 37/37 38/38 13/13
f 39/39 40/40 41/41
f 41/41 40/40 42/42
f 43/43 34/34 21/21
f 4/4 11/11 44/44
f 45/45 34/34 43/43
f 43/43 44/44 45/45
f 11/11 46/46 44/44
f 45/45 44/44 46/46
f 47/47 13/13 38/38
f 11/11 13/13 47/47
f 47/47 46/46 11/11
f 32/32 48/48 35/35
f 19/19 33/33 48/48
f 19/19 48/48 20/20
f 20/20 48/48 32/32
f 44/44 43/43 49/49
f 4/4 44/44 49/49
f 49/49 5/5 4/4
f 50/50 30/30 29/29
f 34/34 50/50 29/29
f 51/51 30/30 50/50
f 52/52 53/53 54/54
f 50/50 54/54 51/51
f 54/54 53/53 55/55
f 48/48 56/56 55/55
f 54/54 56/56 51/51
f 30/30 56/56 33/33
f 51/51 56/56 30/30
f 54/54 55/55 56/56
f 33/33 56/56 48/48
f 5/5 57/57 6/6
f 6/6 57/57 12/12
f 57/57 58/58 12/12
f 12/12 58/58 59/59
f 37/37 13/13 59/59
f 59/59 13/13 12/12
f 60/60 52/52 54/54
f 60/60 54/54 50/50
f 34/34 60/60 50/50
f 58/58 61/61 59/59
f 58/58 62/62 61/61
f 27/27 31/31 63/63
f 64/64 31/31 36/36
f 63/63 31/31 64/64
f 65/65 27/27 63/63
f 63/63 64/64 65/65
f 28/28 27/27 65/65
f 41/41 42/42 65/65
f 41/41 66/66 39/39
f 65/65 66/66 41/41
f 65/65 64/64 66/66
f 66/66 67/67 39/39
f 68/68 67/67 66/66
f 40/40 69/69 42/42
f 42/42 69/69 70/70
f 71/71 28/28 65/65
f 72/72 73/73 74/74
f 74/74 73/73 75/75
f 73/73 76/76 75/75
f 75/75 76/76 77/77
f 76/76 78/78 77/77
f 77/77 78/78 79/79
f 78/78 80/80 79/79
f 79/79 80/80 81/81
f 80/80 82/82 81/81
f 81/81 82/82 83/83
f 84/84 85/85 86/86
f 82/82 87/87 83/83
f 86/86 85/85 87/87
f 83/83 87/87 85/85
f 86/86 88/88 84/84
f 84/84 88/88 89/89
f 74/74 90/90 72/72
f 72/72 90/90 91/91
f 86/86 92/92 88/88
f 88/88 92/92 93/93
f 72/72 94/94 73/73
f 91/91 94/94 72/72
f 73/73 95/95 76/76
f 73/73 94/94 95/95
f 80/80 78/78 96/96
f 96/96 78/78 97/97
f 76/76 95/95 98/98
f 78/78 98/98 97/97
f 76/76 98/98 78/78
f 82/82 80/80 99/99
f 99/99 80/80 96/96
f 74/74 75/75 100/100
f 100/100 90/90 74/74
f 101/101 90/90 100/100
f 84/84 89/89 102/102
f 102/102 89/89 103/103
f 75/75 77/77 104/104
f 100/100 75/75 104/104
f 77/77 79/79 105/105
f 104/104 77/77 105/105
f 85/85 84/84 106/106
f 85/85 106/106 83/83
f 106/106 84/84 102/102
f 83/83 106/106 107/107
f 83/83 107/107 81/81
f 81/81 107/107 108/108
f 81/81 108/108 79/79
f 79/79 108/108 109/109
f 105/105 79/79 109/109
f 110/110 111/111 112/112
f 113/113 114/114 115/115
f 115/115 114/114 116/116
f 116/116 110/110 112/112
f 116/116 114/114 110/110
f 114/114 113/113 117/117
f 114/114 117/117 110/110
f 117/117 118/118 119/119
f 120/120 116/116 112/112
f 120/120 115/115 116/116
f 120/120 121/121 115/115
f 122/122 121/121 120/120
f 120/120 112/112 122/122
f 112/112 111/111 123/123
f 123/123 111/111 124/124
f 125/125 123/123 124/124
f 110/110 126/126 111/111
f 127/127 126/126 128/128
f 128/128 126/126 110/110
f 110/110 117/117 128/128
f 111/111 126/126 129/129
f 125/125 124/124 129/129
f 124/124 111/111 129/129
f 129/129 130/130 125/125
f 125/125 121/121 131/131
f 112/112 123/123 131/131
f 122/122 112/112 131/131
f 131/131 121/121 122/122
f 125/125 131/131 123/123
f 132/132 121/121 125/125
f 125/125 130/130 132/132
f 132/132 130/130 133/133
f 132/132 133/133 134/134
f 127/127 135/135 126/126
f 129/129 126/126 135/135
f 136/136 127/127 137/137
f 137/137 138/138 136/136
f 139/139 119/119 118/118
f 140/140 135/135 127/127
f 136/136 140/140 127/127
f 117/117 113/113 141/141
f 117/117 141/141 118/118
f 128/128 142/142 127/127
f 127/127 142/142 137/137
f 137/137 142/142 138/138
f 142/142 128/128 143/143
f 144/144 117/117 119/119
f 139/139 144/144 119/119
f 143/143 128/128 145/145
f 117/117 145/145 128/128
f 144/144 145/145 117/117
f 146/146 147/147 134/134
f 146/146 148/148 147/147
f 134/134 147/147 149/149
f 134/134 149/149 132/132
f 132/132 149/149 150/150
f 150/150 121/121 132/132
f 151/151 152/152 153/153
f 153/153 152/152 154/154
f 153/153 154/154 155/155
f 156/156 157/157 158/158
f 156/156 159/159 157/157
f 160/160 156/156 158/158
f 161/161 162/162 163/163
f 161/161 164/164 165/165
f 165/165 164/164 166/166
f 167/167 168/168 164/164
f 161/161 169/169 164/164
f 169/169 161/161 163/163
f 164/164 169/169 167/167
f 170/170 171/171 172/172
f 172/172 171/171 173/173
f 174/174 175/175 176/176
f 176/176 175/175 177/177
f 178/178 177/177 175/175
f 179/179 177/177 178/178
f 173/173 180/180 172/172
f 181/181 180/180 173/173
f 182/182 179/179 178/178
f 183/183 179/179 182/182
f 174/174 176/176 184/184
f 184/184 176/176 185/185
f 171/171 186/186 173/173
f 173/173 186/186 187/187
f 173/173 188/188 181/181
f 187/187 188/188 173/173
f 184/184 189/189 174/174
f 190/190 189/189 184/184
f 189/189 191/191 174/174
f 175/175 191/191 178/178
f 174/174 191/191 175/175
f 178/178 191/191 192/192
f 178/178 192/192 182/182
f 182/182 192/192 193/193
f 187/187 194/194 188/188
f 186/186 194/194 187/187
f 192/192 195/195 193/193
f 190/190 195/195 189/189
f 189/189 195/195 191/191
f 191/191 195/195 192/192
f 172/172 196/196 170/170
f 170/170 196/196 197/197
f 176/176 177/177 198/198
f 176/176 198/198 185/185
f 198/198 177/177 199/199
f 198/198 199/199 166/166
f 166/166 199/199 165/165
f 177/177 179/179 199/199
f 199/199 200/200 165/165
f 199/199 179/179 200/200
f 165/165 200/200 161/161
f 179/179 183/183 200/200
f 172/172 201/201 196/196
f 180/180 201/201 172/172
f 200/200 183/183 202/202
f 161/161 202/202 162/162
f 200/200 202/202 161/161
f 198/198 166/166 203/203
f 185/185 198/198 203/203
f 201/201 204/204 196/196
f 196/196 204/204 205/205
f 203/203 166/166 206/206
f 197/197 196/196 207/207
f 207/207 196/196 205/205
f 207/207 205/205 208/208
f 209/209 206/206 166/166
f 209/209 166/166 210/210
f 205/205 204/204 211/211
f 212/212 213/213 214/214
f 215/215 216/216 217/217
f 218/218 216/216 215/215
f 213/213 219/219 214/214
f 205/205 220/220 208/208
f 211/211 220/220 205/205
f 221/221 222/222 223/223
f 223/223 222/222 224/224
f 223/223 224/224 225/225
f 225/225 224/224 226/226
f 227/227 215/215 217/217
f 228/228 229/229 227/227
f 227/227 229/229 230/230
f 230/230 218/218 215/215
f 230/230 215/215 227/227
f 231/231 218/218 230/230
f 230/230 229/229 231/231
f 231/231 229/229 232/232
f 233/233 234/234 235/235
f 235/235 234/234 236/236
f 235/235 236/236 221/221
f 221/221 236/236 222/222
f 236/236 237/237 222/222
f 224/224 237/237 226/226
f 222/222 237/237 224/224
f 234/234 237/237 236/236
f 229/229 238/238 232/232
f 228/228 238/238 229/229
f 221/221 239/239 235/235
f 240/240 239/239 221/221
f 241/241 235/235 239/239
f 233/233 235/235 241/241
f 242/242 223/223 225/225
f 240/240 221/221 243/243
f 223/223 242/242 243/243
f 243/243 221/221 223/223
f 244/244 245/245 246/246
f 246/246 245/245 247/247
f 248/248 239/239 240/240
f 248/248 249/249 250/250
f 251/251 252/252 253/253
f 254/254 252/252 255/255
f 256/256 254/254 255/255
f 254/254 257/257 258/258
f 254/254 258/258 259/259
f 259/259 258/258 260/260
f 260/260 261/261 259/259
f 244/244 262/262 245/245
f 259/259 261/261 262/262
f 245/245 262/262 261/261
f 263/263 247/247 245/245
f 264/264 247/247 263/263
f 249/249 258/258 265/265
f 256/256 266/266 254/254
f 266/266 257/257 254/254
f 267/267 266/266 256/256
f 268/268 265/265 258/258
f 258/258 269/269 268/268
f 269/269 258/258 257/257
f 268/268 269/269 270/270
f 249/249 248/248 271/271
f 249/249 271/271 258/258
f 258/258 271/271 260/260
f 260/260 271/271 261/261
f 261/261 271/271 272/272
f 272/272 245/245 261/261
f 263/263 245/245 272/272
f 271/271 273/273 272/272
f 271/271 248/248 273/273
f 249/249 274/274 250/250
f 249/249 275/275 274/274
f 275/275 249/249 265/265
f 274/274 275/275 276/276
f 246/246 277/277 244/244
f 244/244 277/277 278/278
f 244/244 278/278 262/262
f 239/239 279/279 241/241
f 248/248 279/279 239/239
f 279/279 248/248 250/250
f 252/252 251/251 280/280
f 280/280 255/255 252/252
f 280/280 251/251 281/281
f 248/248 282/282 273/273
f 240/240 283/283 248/248
f 282/282 248/248 283/283
f 243/243 283/283 240/240
f 253/253 252/252 284/284
f 272/272 273/273 285/285
f 285/285 264/264 263/263
f 285/285 263/263 272/272
f 286/286 264/264 285/285
f 285/285 273/273 286/286
f 277/277 287/287 278/278
f 278/278 287/287 288/288
f 254/254 288/288 252/252
f 278/278 288/288 262/262
f 259/259 288/288 254/254
f 262/262 288/288 259/259
f 253/253 284/284 289/289
f 289/289 284/284 290/290
f 289/289 291/291 253/253
f 289/289 292/292 291/291
f 293/293 283/283 243/243
f 293/293 243/243 242/242
f 283/283 293/293 294/294
f 257/257 266/266 295/295
f 257/257 295/295 269/269
f 269/269 295/295 296/296
f 296/296 270/270 269/269
f 295/295 297/297 296/296
f 296/296 297/297 298/298
f 299/299 300/300 301/301
f 301/301 300/300 302/302
f 295/295 266/266 303/303
f 295/295 303/303 297/297
f 267/267 303/303 266/266
f 304/304 303/303 267/267
f 303/303 304/304 305/305
f 297/297 303/303 305/305
f 305/305 304/304 306/306
f 296/296 307/307 270/270
f 298/298 307/307 296/296
f 308/308 307/307 298/298
f 299/299 301/301 309/309
f 309/309 301/301 310/310
f 297/297 311/311 298/298
f 298/298 311/311 308/308
f 305/305 311/311 297/297
f 306/306 311/311 305/305
f 309/309 312/312 299/299
f 299/299 312/312 300/300
f 301/301 302/302 313/313
f 301/301 313/313 310/310
f 313/313 302/302 314/314
f 310/310 313/313 315/315
f 255/255 280/280 316/316
f 255/255 316/316 256/256
f 256/256 316/316 317/317
f 317/317 267/267 256/256
f 318/318 319/319 320/320
f 320/320 319/319 321/321
f 322/322 280/280 281/281
f 316/316 280/280 322/322
f 322/322 281/281 323/323
f 324/324 318/318 320/320
f 324/324 320/320 325/325
f 322/322 326/326 316/316
f 316/316 327/327 317/317
f 326/326 327/327 316/316
f 327/327 328/328 317/317
f 317/317 329/329 267/267
f 317/317 328/328 329/329
f 324/324 330/330 318/318
f 318/318 331/331 319/319
f 318/318 330/330 331/331
f 319/319 331/331 332/332
f 333/333 326/326 322/322
f 323/323 333/333 322/322
f 334/334 333/333 323/323
f 334/334 335/335 333/333
f 333/333 335/335 326/326
f 327/327 335/335 328/328
f 326/326 335/335 327/327
f 331/331 336/336 332/332
f 330/330 336/336 331/331
f 213/213 337/337 219/219
f 338/338 337/337 213/213
f 339/339 281/281 251/251
f 339/339 251/251 340/340
f 291/291 340/340 253/253
f 340/340 251/251 253/253
f 341/341 292/292 342/342
f 338/338 213/213 343/343
f 343/343 213/213 212/212
f 292/292 344/344 291/291
f 341/341 344/344 292/292
f 344/344 340/340 291/291
f 338/338 345/345 337/337
f 337/337 345/345 346/346
f 341/341 347/347 344/344
f 344/344 347/347 348/348
f 348/348 349/349 344/344
f 344/344 349/349 340/340
f 340/340 350/350 339/339
f 349/349 350/350 340/340
f 350/350 351/351 339/339
f 352/352 281/281 339/339
f 339/339 351/351 352/352
f 338/338 353/353 345/345
f 343/343 353/353 338/338
f 345/345 354/354 346/346
f 346/346 354/354 355/355
f 354/354 356/356 355/355
f 347/347 357/357 348/348
f 348/348 357/357 358/358
f 357/357 359/359 358/358
f 349/349 348/348 360/360
f 360/360 348/348 358/358
f 349/349 360/360 350/350
f 358/358 359/359 360/360
f 361/361 350/350 360/360
f 360/360 359/359 361/361
f 351/351 350/350 361/361
f 362/362 356/356 354/354
f 345/345 362/362 354/354
f 353/353 362/362 345/345
f 275/275 265/265 363/363
f 364/364 275/275 363/363
f 364/364 276/276 275/275
f 363/363 365/365 364/364
f 364/364 365/365 366/366
f 364/364 366/366 367/367
f 364/364 367/367 276/276
f 367/367 366/366 368/368
f 369/369 153/153 155/155
f 370/370 371/371 369/369
f 369/369 371/371 372/372
f 372/372 153/153 369/369
f 153/153 373/373 151/151
f 372/372 371/371 373/373
f 372/372 373/373 153/153
f 373/373 371/371 374/374
f 363/363 375/375 365/365
f 376/376 375/375 377/377
f 270/270 378/378 268/268
f 265/265 268/268 378/378
f 363/363 265/265 378/378
f 377/377 378/378 270/270
f 377/377 375/375 378/378
f 378/378 375/375 363/363
f 365/365 379/379 366/366
f 366/366 379/379 368/368
f 375/375 379/379 365/365
f 376/376 379/379 375/375
f 371/371 380/380 374/374
f 370/370 380/380 371/371
f 250/250 381/381 279/279
f 250/250 274/274 381/381
f 381/381 382/382 383/383
f 279/279 381/381 383/383
f 383/383 241/241 279/279
f 383/383 382/382 384/384
f 160/160 385/385 156/156
f 386/386 387/387 385/385
f 385/385 388/388 156/156
f 156/156 388/388 159/159
f 385/385 387/387 388/388
f 381/381 274/274 389/389
f 276/276 389/389 274/274
f 381/381 389/389 382/382
f 390/390 389/389 276/276
f 389/389 390/390 391/391
f 382/382 389/389 391/391
f 391/391 390/390 392/392
f 384/384 393/393 383/383
f 383/383 393/393 241/241
f 394/394 393/393 384/384
f 395/395 386/386 396/396
f 396/396 385/385 160/160
f 396/396 386/386 385/385
f 392/392 397/397 391/391
f 384/384 397/397 394/394
f 382/382 397/397 384/384
f 391/391 397/397 382/382
f 395/395 398/398 386/386
f 386/386 398/398 387/387
f 399/399 400/400 401/401
f 401/401 400/400 402/402
f 403/403 404/404 405/405
f 405/405 404/404 406/406
f 405/405 406/406 407/407
f 407/407 406/406 408/408
f 409/409 410/410 411/411
f 411/411 410/410 412/412
f 403/403 412/412 404/404
f 411/411 412/412 403/403
f 402/402 413/413 401/401
f 401/401 413/413 414/414
f 403/403 415/415 411/411
f 411/411 415/415 416/416
f 405/405 417/417 403/403
f 403/403 417/417 415/415
f 407/407 418/418 405/405
f 405/405 418/418 417/417
f 413/413 402/402 419/419
f 402/402 400/400 420/420
f 419/419 402/402 420/420
f 415/415 417/417 421/421
f 417/417 418/418 421/421
f 416/416 415/415 421/421
f 419/419 420/420 422/422
f 401/401 414/414 423/423
f 401/401 423/423 399/399
f 399/399 423/423 424/424
f 404/404 425/425 406/406
f 406/406 425/425 426/426
f 408/408 406/406 427/427
f 427/427 406/406 426/426
f 412/412 410/410 428/428
f 404/404 428/428 425/425
f 412/412 428/428 404/404
f 428/428 410/410 429/429
f 423/423 414/414 430/430
f 425/425 431/431 426/426
f 432/432 427/427 426/426
f 426/426 431/431 432/432
f 424/424 423/423 433/433
f 423/423 430/430 434/434
f 433/433 423/423 434/434
f 429/429 435/435 428/428
f 431/431 425/425 435/435
f 435/435 425/425 428/428
f 436/436 427/427 432/432
f 434/434 430/430 437/437
f 438/438 435/435 429/429
f 435/435 439/439 431/431
f 431/431 439/439 432/432
f 432/432 439/439 440/440
f 440/440 436/436 432/432
f 441/441 436/436 440/440
f 437/437 442/442 434/434
f 434/434 442/442 443/443
f 434/434 443/443 433/433
f 433/433 443/443 444/444
f 445/445 439/439 435/435
f 445/445 435/435 446/446
f 446/446 435/435 438/438
f 420/420 400/400 447/447
f 420/420 447/447 422/422
f 448/448 411/411 416/416
f 409/409 411/411 448/448
f 448/448 416/416 421/421
f 442/442 449/449 443/443
f 443/443 449/449 450/450
f 445/445 446/446 451/451
f 451/451 446/446 452/452
f 445/445 453/453 439/439
f 445/445 454/454 453/453
f 439/439 455/455 440/440
f 453/453 455/455 439/439
f 454/454 455/455 453/453
f 455/455 456/456 440/440
f 440/440 456/456 441/441
f 313/313 457/457 315/315
f 313/313 458/458 457/457
f 314/314 458/458 313/313
f 321/321 459/459 320/320
f 459/459 460/460 320/320
f 460/460 325/325 320/320
f 443/443 461/461 444/444
f 450/450 461/461 443/443
f 462/462 91/91 90/90
f 90/90 101/101 462/462
f 462/462 101/101 463/463
f 464/464 91/91 462/462
f 465/465 94/94 91/91
f 91/91 464/464 465/465
f 465/465 464/464 466/466
f 287/287 467/467 288/288
f 288/288 467/467 252/252
f 252/252 467/467 284/284
f 17/17 468/468 18/18
f 49/49 469/469 5/5
f 21/21 18/18 470/470
f 470/470 469/469 49/49
f 49/49 43/43 470/470
f 468/468 469/469 470/470
f 18/18 468/468 470/470
f 21/21 470/470 43/43
f 471/471 82/82 99/99
f 87/87 82/82 471/471
f 92/92 86/86 471/471
f 471/471 86/86 87/87
f 273/273 282/282 472/472
f 286/286 273/273 472/472
f 473/473 70/70 28/28
f 474/474 475/475 476/476
f 476/476 475/475 477/477
f 476/476 477/477 478/478
f 478/478 477/477 479/479
f 478/478 479/479 480/480
f 480/480 479/479 481/481
f 480/480 481/481 482/482
f 482/482 481/481 483/483
f 484/484 485/485 486/486
f 486/486 485/485 487/487
f 486/486 487/487 488/488
f 488/488 487/487 489/489
f 488/488 489/489 490/490
f 490/490 489/489 491/491
f 490/490 491/491 492/492
f 492/492 491/491 493/493
f 492/492 493/493 494/494
f 494/494 495/495 474/474
f 474/474 495/495 475/475
f 494/494 493/493 495/495
f 476/476 496/496 474/474
f 474/474 496/496 497/497
f 474/474 497/497 494/494
f 478/478 498/498 476/476
f 476/476 498/498 496/496
f 478/478 499/499 498/498
f 480/480 499/499 478/478
f 482/482 500/500 480/480
f 480/480 500/500 499/499
f 486/486 501/501 484/484
f 484/484 501/501 502/502
f 488/488 503/503 486/486
f 486/486 503/503 501/501
f 490/490 504/504 488/488
f 488/488 504/504 503/503
f 490/490 505/505 504/504
f 492/492 505/505 490/490
f 492/492 506/506 505/505
f 494/494 506/506 492/492
f 494/494 497/497 506/506
f 507/507 508/508 509/509
f 509/509 508/508 510/510
f 507/507 511/511 508/508
f 512/512 511/511 507/507
f 513/513 514/514 512/512
f 512/512 514/514 511/511
f 510/510 508/508 514/514
f 514/514 508/508 511/511
f 515/515 510/510 514/514
f 513/513 515/515 514/514
f 516/516 515/515 513/513
f 516/516 517/517 515/515
f 518/518 517/517 516/516
f 518/518 519/519 517/517
f 520/520 519/519 518/518
f 520/520 521/521 519/519
f 522/522 521/521 520/520
f 517/517 519/519 523/523
f 523/523 519/519 521/521
f 522/522 523/523 521/521
f 517/517 523/523 515/515
f 524/524 523/523 522/522
f 509/509 510/510 525/525
f 515/515 523/523 526/526
f 525/525 510/510 526/526
f 526/526 510/510 515/515
f 525/525 526/526 524/524
f 524/524 526/526 523/523
f 475/475 527/527 477/477
f 495/495 527/527 475/475
f 477/477 527/527 479/479
f 491/491 527/527 493/493
f 479/479 527/527 481/481
f 481/481 527/527 483/483
f 489/489 527/527 491/491
f 485/485 527/527 487/487
f 487/487 527/527 489/489
f 493/493 527/527 495/495
f 528/528 529/529 530/530
f 530/530 529/529 531/531
f 529/529 532/532 531/531
f 531/531 532/532 533/533
f 532/532 534/534 533/533
f 533/533 534/534 535/535
f 534/534 536/536 535/535
f 535/535 536/536 537/537
f 538/538 539/539 540/540
f 540/540 539/539 541/541
f 539/539 542/542 541/541
f 541/541 542/542 543/543
f 542/542 544/544 543/543
f 543/543 544/544 545/545
f 544/544 546/546 545/545
f 545/545 546/546 547/547
f 546/546 548/548 547/547
f 549/549 528/528 530/530
f 547/547 548/548 549/549
f 548/548 528/528 549/549
f 529/529 528/528 550/550
f 550/550 528/528 551/551
f 528/528 548/548 551/551
f 532/532 529/529 552/552
f 552/552 529/529 550/550
f 553/553 532/532 552/552
f 534/534 532/532 553/553
f 554/554 534/534 553/553
f 536/536 534/534 554/554
f 539/539 538/538 555/555
f 555/555 538/538 556/556
f 542/542 539/539 557/557
f 557/557 539/539 555/555
f 544/544 542/542 558/558
f 558/558 542/542 557/557
f 546/546 544/544 559/559
f 559/559 544/544 558/558
f 548/548 546/546 560/560
f 551/551 548/548 560/560
f 560/560 546/546 559/559
f 561/561 562/562 563/563
f 563/563 562/562 564/564
f 565/565 561/561 563/563
f 566/566 561/561 565/565
f 567/567 566/566 568/568
f 568/568 566/566 565/565
f 563/563 568/568 565/565
f 564/564 568/568 563/563
f 569/569 567/567 568/568
f 564/564 569/569 568/568
f 570/570 567/567 569/569
f 571/571 570/570 569/569
f 572/572 570/570 571/571
f 573/573 572/572 574/574
f 574/574 572/572 571/571
f 575/575 573/573 574/574
f 576/576 573/573 575/575
f 571/571 577/577 574/574
f 574/574 577/577 575/575
f 577/577 576/576 575/575
f 571/571 569/569 577/577
f 578/578 576/576 577/577
f 562/562 579/579 564/564
f 580/580 578/578 577/577
f 577/577 569/569 580/580
f 579/579 578/578 580/580
f 580/580 569/569 564/564
f 564/564 579/579 580/580
f 530/530 531/531 581/581
f 531/531 533/533 581/581
f 547/547 549/549 581/581
f 545/545 547/547 581/581
f 533/533 535/535 581/581
f 535/535 537/537 581/581
f 540/540 541/541 581/581
f 541/541 543/543 581/581
f 543/543 545/545 581/581
f 549/549 530/530 581/581
