# Blender 4.0.2
# www.blender.org
mtllib SaltShaker.mtl
o SaltShaker
v 0.251049 0.098851 -0.936929
v 0.222769 0.000000 -0.831386
v -0.251049 0.098851 -0.936929
v -0.222769 0.000000 -0.831386
v -0.685880 0.098851 -0.685880
v -0.608617 0.000000 -0.608617
v -0.936929 0.098850 -0.251049
v -0.831386 0.000000 -0.222769
v -0.936929 0.098850 0.251049
v -0.831386 -0.000000 0.222769
v -0.685880 0.098850 0.685880
v -0.608617 -0.000000 0.608617
v -0.251049 0.098850 0.936929
v -0.222769 -0.000000 0.831386
v 0.251049 0.098850 0.936929
v 0.222769 -0.000000 0.831386
v 0.685880 0.098850 0.685880
v 0.608617 -0.000000 0.608617
v 0.936929 0.098850 0.251049
v 0.831386 -0.000000 0.222769
v 0.936929 0.098850 -0.251049
v 0.831386 0.000000 -0.222769
v 0.685880 0.098851 -0.685880
v 0.608617 0.000000 -0.608617
v 0.190879 3.517342 -0.712368
v -0.190879 3.517342 -0.712368
v -0.521490 3.517342 -0.521489
v -0.712369 3.517341 -0.190878
v -0.712369 3.517341 0.190880
v -0.521490 3.517341 0.521491
v -0.190879 3.517341 0.712370
v 0.190879 3.517341 0.712370
v 0.521490 3.517341 0.521491
v 0.712369 3.517341 0.190880
v 0.712369 3.517341 -0.190878
v 0.521490 3.517342 -0.521489
v 0.190879 3.708676 -0.712368
v -0.190879 3.708676 -0.712368
v -0.521490 3.708676 -0.521489
v -0.712369 3.708676 -0.190878
v -0.712369 3.708676 0.190880
v -0.521490 3.708676 0.521492
v -0.190879 3.708676 0.712370
v 0.190879 3.708676 0.712370
v 0.521490 3.708676 0.521492
v 0.712369 3.708676 0.190880
v 0.712369 3.708676 -0.190878
v 0.521490 3.708676 -0.521489
v 0.251411 3.413845 -0.938277
v 0.221304 3.517342 -0.825916
v -0.251411 3.413845 -0.938277
v -0.221304 3.517342 -0.825916
v -0.686867 3.413845 -0.686866
v -0.604613 3.517342 -0.604612
v -0.938278 3.413845 -0.251410
v -0.825917 3.517341 -0.221303
v -0.938278 3.413845 0.251412
v -0.825917 3.517341 0.221305
v -0.686867 3.413845 0.686868
v -0.604613 3.517341 0.604614
v -0.251411 3.413845 0.938279
v -0.221304 3.517341 0.825918
v 0.251411 3.413845 0.938279
v 0.221304 3.517341 0.825918
v 0.686867 3.413845 0.686868
v 0.604613 3.517341 0.604614
v 0.938278 3.413845 0.251412
v 0.825917 3.517341 0.221305
v 0.938278 3.413845 -0.251410
v 0.825917 3.517341 -0.221303
v 0.686867 3.413845 -0.686866
v 0.604613 3.517342 -0.604612
v 0.227226 3.708676 -0.848018
v -0.227226 3.708676 -0.848018
v -0.620793 3.708676 -0.620792
v -0.848019 3.708676 -0.227225
v -0.848019 3.708676 0.227227
v -0.620793 3.708676 0.620794
v -0.227226 3.708676 0.848020
v 0.227226 3.708676 0.848020
v 0.620793 3.708676 0.620794
v 0.848019 3.708676 0.227227
v 0.848019 3.708676 -0.227225
v 0.620793 3.708676 -0.620792
v 0.213358 4.397480 -0.796261
v 0.167646 4.609420 -0.625662
v -0.213358 4.397480 -0.796261
v -0.167646 4.609420 -0.625662
v -0.582904 4.397480 -0.582903
v -0.458018 4.574097 -0.458016
v -0.796262 4.397480 -0.213357
v -0.625664 4.609420 -0.167645
v -0.796262 4.397480 0.213359
v -0.625664 4.609420 0.167647
v -0.582904 4.397480 0.582906
v -0.458017 4.574097 0.458019
v -0.213358 4.397480 0.796263
v -0.167646 4.609420 0.625665
v 0.213358 4.397480 0.796263
v 0.167646 4.609420 0.625665
v 0.582904 4.397480 0.582906
v 0.458018 4.574097 0.458019
v 0.796262 4.397480 0.213359
v 0.625664 4.609420 0.167647
v 0.796262 4.397480 -0.213357
v 0.625664 4.609420 -0.167645
v 0.582904 4.397480 -0.582903
v 0.458017 4.574097 -0.458016
v -0.248365 4.684482 0.248366
v -0.248364 4.684482 -0.248363
v 0.248364 4.684482 0.248366
v 0.248365 4.684482 -0.248363
v -0.330028 -0.000000 0.330028
v 0.330028 -0.000000 0.330028
v -0.330028 0.000000 -0.330028
v 0.330028 0.000000 -0.330028
v 0.297864 1.266621 -1.111643
v 0.293729 2.511863 -1.096212
v -0.293729 2.511863 -1.096212
v -0.297864 1.266621 -1.111643
v -0.802483 2.511863 -0.802482
v -0.813779 1.266621 -0.813779
v -1.096213 2.511863 -0.293729
v -1.111643 1.266621 -0.297864
v -1.096213 2.511863 0.293730
v -1.111643 1.266621 0.297864
v -0.802483 2.511863 0.802484
v -0.813779 1.266621 0.813780
v -0.293729 2.511863 1.096213
v -0.297864 1.266620 1.111644
v 0.293729 2.511863 1.096213
v 0.297864 1.266620 1.111644
v 0.802483 2.511863 0.802484
v 0.813779 1.266621 0.813780
v 1.096213 2.511863 0.293730
v 1.111643 1.266621 0.297864
v 1.096213 2.511863 -0.293729
v 1.111643 1.266621 -0.297864
v 0.802483 2.511863 -0.802482
v 0.813779 1.266621 -0.813779
v 0.199569 0.246118 -0.744801
v 0.187943 1.567464 -0.701411
v -0.187943 1.647414 -0.701411
v -0.199569 0.246118 -0.744801
v -0.513469 1.784875 -0.513468
v -0.545232 0.246118 -0.545232
v -0.701412 1.843172 -0.187942
v -0.744801 0.246118 -0.199569
v -0.701412 1.888574 0.187943
v -0.744801 0.246118 0.199569
v -0.513469 1.832955 0.513469
v -0.545232 0.246118 0.545232
v -0.187943 1.802983 0.701412
v -0.199569 0.246118 0.744801
v 0.187943 1.677397 0.701412
v 0.199569 0.246118 0.744801
v 0.513469 1.601704 0.513469
v 0.545232 0.246118 0.545232
v 0.701412 1.567464 0.187943
v 0.744801 0.246118 0.199569
v 0.701412 1.567464 -0.187942
v 0.744801 0.246118 -0.199569
v 0.513469 1.567464 -0.513469
v 0.545232 0.246118 -0.545232
v 0.278434 1.655441 0.278434
v -0.278434 1.878025 0.278434
v 0.278434 1.664421 -0.278433
v -0.278434 1.773987 -0.278433
vn 0.2576 0.0960 -0.9615
vn -0.2576 0.0961 -0.9615
vn -0.2253 0.4922 -0.8408
vn 0.2253 0.4922 -0.8408
vn -0.7038 0.0959 -0.7038
vn -0.6155 0.4922 -0.6155
vn -0.9615 0.0959 -0.2576
vn -0.8408 0.4922 -0.2253
vn -0.9615 0.0961 0.2576
vn -0.8408 0.4922 0.2253
vn -0.7038 0.0959 0.7038
vn -0.6155 0.4922 0.6155
vn -0.2576 0.0961 0.9615
vn -0.2253 0.4922 0.8408
vn 0.2576 0.0961 0.9615
vn 0.2253 0.4922 0.8408
vn 0.7038 0.0959 0.7038
vn 0.6155 0.4922 0.6155
vn 0.9615 0.0959 0.2576
vn 0.8408 0.4922 0.2253
vn 0.9615 0.0961 -0.2576
vn 0.8408 0.4922 -0.2253
vn 0.7038 0.0959 -0.7038
vn 0.6155 0.4922 -0.6155
vn -0.2580 0.0776 -0.9630
vn -0.7050 0.0776 -0.7050
vn -0.6489 0.3972 -0.6489
vn -0.2442 0.3895 -0.8881
vn -0.0000 1.0000 -0.0000
vn 0.6213 -0.4774 -0.6213
vn 0.4744 -0.7416 -0.4744
vn 0.1736 -0.7416 -0.6480
vn 0.2274 -0.4774 -0.8487
vn 0.8487 -0.4774 -0.2274
vn 0.6480 -0.7416 -0.1736
vn 0.8487 -0.4774 0.2274
vn 0.6480 -0.7416 0.1736
vn 0.6213 -0.4774 0.6213
vn 0.4744 -0.7416 0.4744
vn 0.2274 -0.4774 0.8487
vn 0.1736 -0.7416 0.6480
vn -0.2274 -0.4774 0.8487
vn -0.1736 -0.7416 0.6480
vn -0.6213 -0.4774 0.6213
vn -0.4744 -0.7416 0.4744
vn -0.8487 -0.4774 0.2274
vn -0.6480 -0.7416 0.1736
vn -0.8487 -0.4774 -0.2274
vn -0.6480 -0.7416 -0.1736
vn -0.6213 -0.4774 -0.6213
vn -0.4744 -0.7416 -0.4744
vn -0.2274 -0.4774 -0.8487
vn -0.1736 -0.7416 -0.6480
vn 0.2582 -0.0706 -0.9635
vn -0.2582 -0.0704 -0.9635
vn -0.7054 -0.0704 -0.7054
vn -0.9635 -0.0702 -0.2582
vn -0.9635 -0.0703 0.2582
vn -0.7054 -0.0703 0.7054
vn -0.2582 -0.0703 0.9635
vn 0.2582 -0.0704 0.9635
vn 0.7054 -0.0704 0.7054
vn 0.9635 -0.0702 0.2582
vn 0.9635 -0.0703 -0.2582
vn 0.7054 -0.0703 -0.7054
vn -0.2588 -0.0000 -0.9659
vn -0.7071 -0.0000 -0.7071
vn -0.9659 -0.0000 -0.2588
vn -0.9659 -0.0000 0.2588
vn -0.7071 -0.0000 0.7071
vn -0.2588 -0.0000 0.9659
vn 0.2588 -0.0000 0.9659
vn 0.7071 -0.0000 0.7071
vn 0.9659 -0.0000 0.2588
vn 0.9659 -0.0000 -0.2588
vn 0.7071 -0.0000 -0.7071
vn 0.2588 -0.0000 -0.9659
vn -0.1720 0.7471 -0.6421
vn 0.1720 0.7471 -0.6421
vn -0.4700 0.7471 -0.4700
vn -0.6421 0.7471 -0.1720
vn -0.6421 0.7471 0.1720
vn -0.4700 0.7471 0.4700
vn -0.1720 0.7471 0.6421
vn 0.1720 0.7471 0.6421
vn 0.4700 0.7471 0.4700
vn 0.6421 0.7471 0.1720
vn 0.6421 0.7471 -0.1720
vn 0.4700 0.7471 -0.4700
vn -0.9630 0.0776 -0.2580
vn -0.8881 0.3895 -0.2442
vn -0.9630 0.0776 0.2580
vn -0.8881 0.3895 0.2442
vn -0.7050 0.0776 0.7050
vn -0.6489 0.3972 0.6489
vn -0.2580 0.0776 0.9630
vn -0.2442 0.3895 0.8881
vn 0.2580 0.0776 0.9630
vn 0.2442 0.3895 0.8881
vn 0.7050 0.0776 0.7050
vn 0.6489 0.3972 0.6489
vn 0.9630 0.0776 0.2580
vn 0.8881 0.3895 0.2442
vn 0.9630 0.0776 -0.2580
vn 0.8881 0.3895 -0.2442
vn 0.7050 0.0776 -0.7050
vn 0.6489 0.3972 -0.6489
vn 0.2580 0.0776 -0.9630
vn 0.2442 0.3895 -0.8881
vn -0.0000 -1.0000 -0.0000
vn 0.4433 0.7791 0.4433
vn 0.1725 0.8524 0.4937
vn 0.4937 0.8524 0.1725
vn 0.4937 0.8524 -0.1725
vn 0.4433 0.7791 -0.4433
vn 0.1725 0.8524 -0.4937
vn -0.1725 0.8524 -0.4937
vn -0.4433 0.7791 -0.4433
vn -0.4937 0.8524 -0.1725
vn -0.4937 0.8524 0.1725
vn -0.4433 0.7791 0.4433
vn -0.1725 0.8524 0.4937
vn -0.1119 0.9874 0.1119
vn -0.1119 0.9874 -0.1119
vn 0.1119 0.9874 0.1119
vn 0.1119 0.9874 -0.1119
vn 0.7067 0.0340 -0.7067
vn 0.2603 0.0335 -0.9650
vn 0.2820 0.6226 -0.7300
vn 0.6414 0.4208 -0.6414
vn 0.9654 0.0340 -0.2587
vn 0.7322 0.6441 -0.2214
vn 0.9656 0.0338 0.2580
vn 0.7405 0.6512 0.1661
vn 0.7083 0.0329 0.7051
vn 0.6777 0.4447 0.5857
vn 0.2624 0.0311 0.9645
vn 0.3623 0.6662 0.6519
vn -0.2559 0.0293 0.9663
vn -0.0545 0.6841 0.7273
vn -0.7058 0.0282 0.7079
vn -0.5945 0.4488 0.6672
vn -0.9655 0.0278 0.2589
vn -0.6499 0.7362 0.1890
vn -0.5859 0.7496 -0.3078
vn -0.9651 0.0282 -0.2605
vn -0.5309 0.4705 -0.7048
vn -0.7042 0.0296 -0.7094
vn -0.0308 0.6545 -0.7555
vn -0.2546 0.0318 -0.9665
vn 0.2667 0.9638 -0.0016
vn 0.1820 0.9833 -0.0010
vn 0.2236 0.9658 -0.1310
vn 0.1950 0.9671 -0.1635
vt 0.157041 0.708394
vt 0.157041 0.772615
vt 0.024471 0.772615
vt 0.024471 0.708394
vt 0.157041 0.001953
vt 0.157041 0.066175
vt 0.024471 0.066175
vt 0.024471 0.001953
vt 0.157041 0.130397
vt 0.024471 0.130397
vt 0.157041 0.194619
vt 0.024471 0.194619
vt 0.157041 0.258841
vt 0.024471 0.258841
vt 0.157041 0.323062
vt 0.024471 0.323062
vt 0.157041 0.387284
vt 0.024471 0.387284
vt 0.157041 0.451506
vt 0.024471 0.451506
vt 0.157041 0.515728
vt 0.024471 0.515728
vt 0.157041 0.579950
vt 0.024471 0.579950
vt 0.157041 0.644172
vt 0.024471 0.644172
vt 0.620744 0.001953
vt 0.620744 0.058931
vt 0.531397 0.058931
vt 0.531397 0.001953
vt 0.793884 0.424143
vt 0.797819 0.438829
vt 0.755057 0.463515
vt 0.744306 0.452763
vt 0.730366 0.506274
vt 0.715681 0.502338
vt 0.715678 0.559584
vt 0.730364 0.555650
vt 0.755051 0.598411
vt 0.744301 0.609162
vt 0.797813 0.623099
vt 0.793879 0.637786
vt 0.851126 0.637784
vt 0.847191 0.623098
vt 0.889952 0.598409
vt 0.900703 0.609160
vt 0.914640 0.555650
vt 0.929324 0.559584
vt 0.929324 0.502344
vt 0.914640 0.506279
vt 0.889953 0.463520
vt 0.900704 0.452770
vt 0.847194 0.438832
vt 0.851130 0.424146
vt 0.508040 0.644172
vt 0.529349 0.644172
vt 0.529349 0.708394
vt 0.508040 0.708394
vt 0.508040 0.579950
vt 0.529349 0.579950
vt 0.508040 0.515728
vt 0.529349 0.515728
vt 0.508040 0.451506
vt 0.529349 0.451506
vt 0.508040 0.387284
vt 0.529349 0.387284
vt 0.508040 0.323062
vt 0.529349 0.323062
vt 0.508040 0.258841
vt 0.529349 0.258841
vt 0.508040 0.194619
vt 0.529349 0.194619
vt 0.508040 0.130397
vt 0.529349 0.130397
vt 0.508040 0.066175
vt 0.529349 0.066175
vt 0.508040 0.001953
vt 0.529349 0.001953
vt 0.508040 0.772615
vt 0.529349 0.772615
vt 0.337143 0.708394
vt 0.337143 0.772615
vt 0.337143 0.001953
vt 0.337143 0.066175
vt 0.337143 0.130397
vt 0.337143 0.194619
vt 0.337143 0.258841
vt 0.337143 0.323062
vt 0.337143 0.387284
vt 0.337143 0.451506
vt 0.337143 0.515728
vt 0.337143 0.579950
vt 0.337143 0.644172
vt 0.964314 0.997654
vt 0.964315 0.947798
vt 0.988854 0.948192
vt 0.988852 0.998047
vt 0.964317 0.897943
vt 0.988856 0.898339
vt 0.964322 0.848090
vt 0.988857 0.848484
vt 0.964323 0.798249
vt 0.988853 0.798643
vt 0.964324 0.748421
vt 0.988847 0.748814
vt 0.964322 0.698603
vt 0.988841 0.698994
vt 0.964319 0.648790
vt 0.988836 0.649183
vt 0.964316 0.598981
vt 0.988831 0.599374
vt 0.964314 0.549177
vt 0.988827 0.549568
vt 0.964313 0.499373
vt 0.988825 0.499764
vt 0.964312 0.449569
vt 0.988825 0.449963
vt 0.964312 0.399767
vt 0.988824 0.400158
vt 0.001953 0.772615
vt 0.001953 0.708394
vt 0.001953 0.066175
vt 0.001953 0.001953
vt 0.001953 0.130397
vt 0.001953 0.194619
vt 0.001953 0.258841
vt 0.001953 0.323062
vt 0.001953 0.387284
vt 0.001953 0.451506
vt 0.001953 0.515728
vt 0.001953 0.579950
vt 0.001953 0.644172
vt 0.620744 0.115908
vt 0.531397 0.115908
vt 0.620744 0.172886
vt 0.531397 0.172886
vt 0.620744 0.229864
vt 0.531397 0.229864
vt 0.620744 0.286841
vt 0.531397 0.286841
vt 0.620744 0.343819
vt 0.531397 0.343819
vt 0.620744 0.400797
vt 0.531397 0.400797
vt 0.620744 0.457774
vt 0.531397 0.457774
vt 0.620744 0.514752
vt 0.531397 0.514752
vt 0.620744 0.571729
vt 0.531397 0.571729
vt 0.620744 0.628707
vt 0.531397 0.628707
vt 0.620744 0.685685
vt 0.531397 0.685685
vt 0.703906 0.001953
vt 0.708556 0.019503
vt 0.665714 0.044096
vt 0.652915 0.031217
vt 0.640852 0.086796
vt 0.623341 0.082025
vt 0.623050 0.140815
vt 0.640613 0.136204
vt 0.665087 0.179107
vt 0.652187 0.191886
vt 0.707750 0.203987
vt 0.702982 0.221510
vt 0.761787 0.221707
vt 0.757139 0.204155
vt 0.799979 0.179562
vt 0.812779 0.192439
vt 0.824835 0.136856
vt 0.842345 0.141625
vt 0.842630 0.082833
vt 0.825069 0.087442
vt 0.800600 0.044533
vt 0.813503 0.031756
vt 0.757943 0.019649
vt 0.762711 0.002125
vt 0.802618 0.646765
vt 0.783358 0.671307
vt 0.743316 0.653382
vt 0.747955 0.619150
vt 0.837549 0.696561
vt 0.805748 0.709456
vt 0.842498 0.757752
vt 0.808271 0.753086
vt 0.814800 0.812383
vt 0.790274 0.793122
vt 0.765140 0.847456
vt 0.752212 0.815665
vt 0.703850 0.852122
vt 0.708609 0.817886
vt 0.649267 0.824651
vt 0.668498 0.800086
vt 0.614325 0.774852
vt 0.646144 0.761957
vt 0.609399 0.713691
vt 0.643638 0.718351
vt 0.637021 0.659059
vt 0.661568 0.678328
vt 0.686787 0.624130
vt 0.699696 0.655934
vt 0.692222 0.705407
vt 0.695630 0.769485
vt 0.756291 0.701956
vt 0.759685 0.765999
vt 0.773263 0.289104
vt 0.759390 0.224261
vt 0.809295 0.253073
vt 0.838107 0.302977
vt 0.687894 0.289104
vt 0.701766 0.224261
vt 0.623050 0.302977
vt 0.651862 0.253073
vt 0.773263 0.374473
vt 0.838107 0.360601
vt 0.687894 0.374473
vt 0.623050 0.360601
vt 0.809295 0.410505
vt 0.759391 0.439317
vt 0.701766 0.439317
vt 0.651862 0.410505
vt 0.517622 0.782407
vt 0.569082 0.786481
vt 0.554084 0.956819
vt 0.505620 0.952982
vt 0.466096 0.779240
vt 0.457096 0.949999
vt 0.414524 0.776978
vt 0.408525 0.947871
vt 0.362920 0.775625
vt 0.359809 0.951020
vt 0.311300 0.775155
vt 0.311103 0.960360
vt 0.259679 0.775520
vt 0.262598 0.976937
vt 0.208068 0.776653
vt 0.214076 0.981878
vt 0.156480 0.778542
vt 0.165753 0.990840
vt 0.116900 0.987441
vt 0.104923 0.781155
vt 0.067894 0.983090
vt 0.053410 0.784519
vt 0.018004 0.969276
vt 0.001953 0.788660
vt 0.620464 0.791461
vt 0.601477 0.971794
vt 0.854483 0.239490
vt 0.837620 0.293106
vt 0.812398 0.250241
vt 0.812207 0.201257
vt 0.921409 0.278203
vt 0.882315 0.318808
vt 0.974819 0.294366
vt 0.931864 0.319835
vt 0.891262 0.177365
vt 0.836864 0.159301
vt 0.955339 0.213437
vt 0.997834 0.250988
vt 0.878531 0.134382
vt 0.927051 0.132608
vt 0.970294 0.157137
vt 0.996691 0.201746
vt 0.936153 0.972229
vt 0.936153 0.831193
vt 0.961964 0.875900
vt 0.961964 0.927523
vt 0.891446 0.998041
vt 0.891446 0.805381
vt 0.839823 0.998041
vt 0.839823 0.805381
vt 0.795117 0.972229
vt 0.795117 0.831193
vt 0.769305 0.927523
vt 0.769305 0.875900
s 1
usemtl SaltShaker
f 118/1/1 119/2/2 51/3/3 49/4/4
f 119/5/2 121/6/5 53/7/6 51/8/3
f 123/9/7 55/10/8 53/7/6 121/6/5
f 123/9/7 125/11/9 57/12/10 55/10/8
f 125/11/9 127/13/11 59/14/12 57/12/10
f 127/13/11 129/15/13 61/16/14 59/14/12
f 129/15/13 131/17/15 63/18/16 61/16/14
f 131/17/15 133/19/17 65/20/18 63/18/16
f 135/21/19 67/22/20 65/20/18 133/19/17
f 135/21/19 137/23/21 69/24/22 67/22/20
f 137/23/21 139/25/23 71/26/24 69/24/22
f 139/25/23 118/1/1 49/4/4 71/26/24
f 74/27/25 75/28/26 89/29/27 87/30/28
f 50/31/29 25/32/29 36/33/29 72/34/29
f 72/34/29 36/33/29 35/35/29 70/36/29
f 68/37/29 70/36/29 35/35/29 34/38/29
f 68/37/29 34/38/29 33/39/29 66/40/29
f 66/40/29 33/39/29 32/41/29 64/42/29
f 62/43/29 64/42/29 32/41/29 31/44/29
f 62/43/29 31/44/29 30/45/29 60/46/29
f 60/46/29 30/45/29 29/47/29 58/48/29
f 56/49/29 58/48/29 29/47/29 28/50/29
f 56/49/29 28/50/29 27/51/29 54/52/29
f 54/52/29 27/51/29 26/53/29 52/54/29
f 50/31/29 52/54/29 26/53/29 25/32/29
f 23/55/30 24/56/31 2/57/32 1/58/33
f 23/55/30 21/59/34 22/60/35 24/56/31
f 21/59/34 19/61/36 20/62/37 22/60/35
f 17/63/38 18/64/39 20/62/37 19/61/36
f 17/63/38 15/65/40 16/66/41 18/64/39
f 15/65/40 13/67/42 14/68/43 16/66/41
f 11/69/44 12/70/45 14/68/43 13/67/42
f 11/69/44 9/71/46 10/72/47 12/70/45
f 9/71/46 7/73/48 8/74/49 10/72/47
f 5/75/50 6/76/51 8/74/49 7/73/48
f 5/75/50 3/77/52 4/78/53 6/76/51
f 3/79/52 1/58/33 2/57/32 4/80/53
f 117/81/54 1/58/33 3/79/52 120/82/55
f 120/83/55 3/77/52 5/75/50 122/84/56
f 122/84/56 5/75/50 7/73/48 124/85/57
f 124/85/57 7/73/48 9/71/46 126/86/58
f 126/86/58 9/71/46 11/69/44 128/87/59
f 128/87/59 11/69/44 13/67/42 130/88/60
f 130/88/60 13/67/42 15/65/40 132/89/61
f 132/89/61 15/65/40 17/63/38 134/90/62
f 134/90/62 17/63/38 19/61/36 136/91/63
f 136/91/63 19/61/36 21/59/34 138/92/64
f 138/92/64 21/59/34 23/55/30 140/93/65
f 140/93/65 23/55/30 1/58/33 117/81/54
f 26/94/66 27/95/67 39/96/67 38/97/66
f 27/95/67 28/98/68 40/99/68 39/96/67
f 28/98/68 29/100/69 41/101/69 40/99/68
f 29/100/69 30/102/70 42/103/70 41/101/69
f 30/102/70 31/104/71 43/105/71 42/103/70
f 31/104/71 32/106/72 44/107/72 43/105/71
f 32/106/72 33/108/73 45/109/73 44/107/72
f 33/108/73 34/110/74 46/111/74 45/109/73
f 34/110/74 35/112/75 47/113/75 46/111/74
f 35/112/75 36/114/76 48/115/76 47/113/75
f 36/114/76 25/116/77 37/117/77 48/115/76
f 25/116/77 26/118/66 38/119/66 37/117/77
f 51/3/3 52/120/78 50/121/79 49/4/4
f 51/8/3 53/7/6 54/122/80 52/123/78
f 53/7/6 55/10/8 56/124/81 54/122/80
f 57/12/10 58/125/82 56/124/81 55/10/8
f 57/12/10 59/14/12 60/126/83 58/125/82
f 59/14/12 61/16/14 62/127/84 60/126/83
f 63/18/16 64/128/85 62/127/84 61/16/14
f 63/18/16 65/20/18 66/129/86 64/128/85
f 65/20/18 67/22/20 68/130/87 66/129/86
f 69/24/22 70/131/88 68/130/87 67/22/20
f 69/24/22 71/26/24 72/132/89 70/131/88
f 71/26/24 49/4/4 50/121/79 72/132/89
f 75/28/26 76/133/90 91/134/91 89/29/27
f 76/133/90 77/135/92 93/136/93 91/134/91
f 77/135/92 78/137/94 95/138/95 93/136/93
f 78/137/94 79/139/96 97/140/97 95/138/95
f 79/139/96 80/141/98 99/142/99 97/140/97
f 80/141/98 81/143/100 101/144/101 99/142/99
f 81/143/100 82/145/102 103/146/103 101/144/101
f 82/145/102 83/147/104 105/148/105 103/146/103
f 83/147/104 84/149/106 107/150/107 105/148/105
f 84/149/106 73/151/108 85/152/109 107/150/107
f 73/151/108 74/153/25 87/154/28 85/152/109
f 74/155/110 38/156/110 39/157/110 75/158/110
f 75/158/110 39/157/110 40/159/110 76/160/110
f 77/161/110 76/160/110 40/159/110 41/162/110
f 77/161/110 41/162/110 42/163/110 78/164/110
f 78/164/110 42/163/110 43/165/110 79/166/110
f 80/167/110 79/166/110 43/165/110 44/168/110
f 80/167/110 44/168/110 45/169/110 81/170/110
f 81/170/110 45/169/110 46/171/110 82/172/110
f 83/173/110 82/172/110 46/171/110 47/174/110
f 83/173/110 47/174/110 48/175/110 84/176/110
f 84/176/110 48/175/110 37/177/110 73/178/110
f 74/155/110 73/178/110 37/177/110 38/156/110
f 101/179/101 102/180/111 100/181/112 99/182/99
f 103/183/103 104/184/113 102/180/111 101/179/101
f 103/183/103 105/185/105 106/186/114 104/184/113
f 107/187/107 108/188/115 106/186/114 105/185/105
f 85/189/109 86/190/116 108/188/115 107/187/107
f 85/189/109 87/191/28 88/192/117 86/190/116
f 87/191/28 89/193/27 90/194/118 88/192/117
f 89/193/27 91/195/91 92/196/119 90/194/118
f 91/195/91 93/197/93 94/198/120 92/196/119
f 93/197/93 95/199/95 96/200/121 94/198/120
f 97/201/97 98/202/122 96/200/121 95/199/95
f 97/201/97 99/182/99 100/181/112 98/202/122
f 109/203/123 94/198/120 96/200/121 98/202/122
f 110/204/124 92/196/119 94/198/120 109/203/123
f 110/204/124 88/192/117 90/194/118 92/196/119
f 109/203/123 98/202/122 100/181/112 111/205/125
f 111/205/125 112/206/126 110/204/124 109/203/123
f 112/206/126 86/190/116 88/192/117 110/204/124
f 111/205/125 100/181/112 102/180/111 104/184/113
f 111/205/125 104/184/113 106/186/114 112/206/126
f 112/206/126 106/186/114 108/188/115 86/190/116
f 113/207/110 14/208/110 12/209/110 10/210/110
f 113/207/110 114/211/110 16/212/110 14/208/110
f 114/211/110 20/213/110 18/214/110 16/212/110
f 115/215/110 113/207/110 10/210/110 8/216/110
f 113/207/110 115/215/110 116/217/110 114/211/110
f 114/211/110 116/217/110 22/218/110 20/213/110
f 115/215/110 8/216/110 6/219/110 4/220/110
f 115/215/110 4/220/110 2/221/110 116/217/110
f 116/217/110 2/221/110 24/222/110 22/218/110
f 140/93/65 117/81/54 118/1/1 139/25/23
f 138/92/64 140/93/65 139/25/23 137/23/21
f 136/91/63 138/92/64 137/23/21 135/21/19
f 134/90/62 136/91/63 135/21/19 133/19/17
f 132/89/61 134/90/62 133/19/17 131/17/15
f 130/88/60 132/89/61 131/17/15 129/15/13
f 128/87/59 130/88/60 129/15/13 127/13/11
f 126/86/58 128/87/59 127/13/11 125/11/9
f 124/85/57 126/86/58 125/11/9 123/9/7
f 122/84/56 124/85/57 123/9/7 121/6/5
f 120/83/55 122/84/56 121/6/5 119/5/2
f 117/81/54 120/82/55 119/2/2 118/1/1
f 164/223/127 141/224/128 142/225/129 163/226/130
f 162/227/131 164/223/127 163/226/130 161/228/132
f 160/229/133 162/227/131 161/228/132 159/230/134
f 158/231/135 160/229/133 159/230/134 157/232/136
f 156/233/137 158/231/135 157/232/136 155/234/138
f 154/235/139 156/233/137 155/234/138 153/236/140
f 152/237/141 154/235/139 153/236/140 151/238/142
f 150/239/143 152/237/141 151/238/142 149/240/144
f 150/239/143 149/240/144 147/241/145 148/242/146
f 148/242/146 147/241/145 145/243/147 146/244/148
f 146/244/148 145/243/147 143/245/149 144/246/150
f 144/247/150 143/248/149 142/225/129 141/224/128
f 165/249/151 155/250/138 157/251/136 159/252/134
f 165/249/151 166/253/152 153/254/140 155/250/138
f 166/253/152 149/255/144 151/256/142 153/254/140
f 167/257/153 165/249/151 159/252/134 161/258/132
f 165/249/151 167/257/153 168/259/154 166/253/152
f 166/253/152 168/259/154 147/260/145 149/255/144
f 167/257/153 161/258/132 163/261/130 142/262/129
f 167/257/153 142/262/129 143/263/149 168/259/154
f 168/259/154 143/263/149 145/264/147 147/260/145
f 146/265/110 152/266/110 150/267/110 148/268/110
f 144/269/110 154/270/110 152/266/110 146/265/110
f 154/270/110 144/269/110 141/271/110 156/272/110
f 156/272/110 141/271/110 164/273/110 158/274/110
f 158/274/110 164/273/110 162/275/110 160/276/110
