# Blender 4.0.2
# www.blender.org
mtllib Shortcake.mtl
o TopL
v -4.857716 72.393417 22.317165
v 6.252223 88.218491 -1.631863
v 11.178493 87.663185 19.144440
v -9.680803 72.934700 1.946025
v -27.344521 67.423409 22.538111
v -29.938667 67.709541 11.579022
v -43.273201 71.843300 20.641850
v -37.158230 73.606659 5.257402
v -44.781689 81.660088 7.278155
v -37.279213 98.869850 -6.057081
v -43.878136 109.069656 11.009271
v -28.614536 125.065353 7.604803
v -43.878136 109.069656 11.009271
v -23.696398 124.518166 28.377180
v -28.614536 125.065353 7.604803
v -39.054913 108.528366 31.380552
v -45.735004 86.850616 27.411528
v -25.626165 97.568016 43.133980
v -38.515442 80.953369 33.733284
v -11.464768 82.601204 39.379593
v -30.894087 72.907928 31.714636
v -27.344521 67.423409 22.538111
v -10.363967 116.512398 -0.529240
v -14.063261 122.225021 9.026929
v -21.886917 114.666054 -9.796051
v -2.429559 108.122650 -2.631025
v -7.436580 99.400345 -13.621518
v 5.092400 101.979912 3.956822
v 7.794775 101.679054 15.364392
v 4.095481 107.391670 24.920561
v 11.178493 87.663185 19.144440
v 7.794775 101.679054 15.364392
v 4.442742 98.070618 36.541229
v -3.838927 115.781296 27.022205
v -10.007454 113.336319 40.366837
v -11.354857 121.924171 20.440386
v -14.063261 122.225021 9.026929
v 10.783566 88.432846 -15.057662
v 4.124502 87.842216 12.633138
v 16.457211 83.257172 10.513687
v 1.353571 91.874321 -5.627527
v -16.997938 87.842216 -8.489303
v -19.543577 87.683228 15.269621
v -31.359249 81.806168 0.390293
v -40.733307 73.987137 21.078833
v -46.736549 64.421860 19.797321
v -43.398952 60.261051 39.125004
v 39.139446 87.958145 17.406597
v 52.663239 38.957615 4.330443
v 54.728016 83.915100 9.962026
v -50.929184 1.030148 46.655235
v -63.800797 50.542675 59.526844
v -8.604395 38.957611 -56.937332
v -21.680550 87.958145 -43.413399
v -6.157172 45.934776 -64.793793
v -7.133341 56.592869 -66.104607
v -7.133341 56.592869 -66.104607
v 33.406502 49.166382 -37.680592
v -6.157172 45.934776 -64.793793
v 33.784184 59.932846 -38.058273
v -14.236119 83.915092 -59.001968
v 29.905161 74.854942 -34.179111
v 28.217367 97.124168 -32.491463
v 58.317398 93.530434 11.430836
v 47.873943 96.686760 16.816099
v -5.214929 81.806168 26.534616
v -26.302742 73.987137 35.509403
v 2.752285 74.457771 30.680706
v -24.071276 64.421860 42.462597
v -23.111790 83.903046 -9.805441
v 19.833218 100.029541 -24.107174
v 39.139446 87.958145 17.406597
v 47.873943 96.686760 16.816099
v 13.799416 93.226776 -18.073372
v -21.090195 96.686752 -52.147896
v -21.680550 87.958145 -43.413399
v -8.604395 38.957611 -56.937332
v 52.663239 38.957615 4.330443
v -50.929184 1.030148 46.655235
v 27.748701 41.928875 -32.022652
v -6.157172 45.934776 -64.793793
v 33.406502 49.166382 -37.680592
v 60.519703 45.934780 1.883220
v 61.830654 56.592873 2.859388
v 54.728016 83.915100 9.962026
v -2.274645 110.024239 11.045580
v 18.666945 97.084488 -5.515371
v 7.826179 100.411430 -5.577758
v 13.624454 96.750130 4.645875
v -4.857716 72.393417 22.317165
v 19.833218 100.029541 -24.107174
v -15.704930 93.530426 -62.591351
v -21.090195 96.686752 -52.147896
v -1.942245 110.207329 13.532759
v 23.022064 99.185150 25.174171
v 15.370989 97.593666 16.948582
v 12.556318 102.700233 27.798460
v -4.217450 110.864281 12.419761
v -2.429559 108.122650 -2.631025
v -10.363967 116.512398 -0.529240
v 5.092400 101.979912 3.956822
v 7.794775 101.679054 15.364392
v 4.095481 107.391670 24.920561
v -3.838927 115.781296 27.022205
v -11.354857 121.924171 20.440386
v -3.973373 111.475380 9.900618
v -2.350630 115.187431 -19.494099
v -9.228257 116.435715 -10.559265
v -0.609282 107.667999 -11.179482
v -5.328346 113.115227 11.231338
v -19.019112 135.391190 -2.789306
v -18.737883 129.642395 6.985426
v -15.917184 124.535973 -3.858283
v -3.297078 111.847321 14.863479
v 6.357509 119.396896 41.887096
v 5.875102 110.795303 34.491734
v -2.749481 119.560074 35.117558
v -4.990198 113.301262 13.712769
v -14.666094 137.499985 27.902342
v -11.179334 126.819595 29.510084
v -16.989246 130.477951 19.286171
v -39.274033 70.752586 34.999939
v 47.873943 96.686760 16.816099
v 58.317398 93.530434 11.430836
v -14.236119 83.915092 -59.001968
v -21.090195 96.686752 -52.147896
v -48.331112 87.144745 16.454681
v -14.063261 122.225021 9.026929
v -48.331112 87.144745 16.454681
v 60.519703 45.934780 1.883220
v 61.830654 56.592873 2.859388
v 60.519703 45.934780 1.883220
v -34.954662 74.457771 -7.026238
v -14.787783 83.257172 -20.731304
v -63.800797 50.542675 59.526844
v 5.875102 110.795303 34.491734
v 6.357509 119.396896 41.887096
v -2.749481 119.560074 35.117558
v 15.370989 97.593666 16.948582
v 23.022064 99.185150 25.174171
v 12.556318 102.700233 27.798460
v 7.826179 100.411430 -5.577758
v 18.666945 97.084488 -5.515371
v 13.624454 96.750130 4.645875
v -9.228257 116.435715 -10.559265
v -2.350630 115.187431 -19.494099
v -0.609282 107.667999 -11.179482
v -18.737883 129.642395 6.985426
v -19.019112 135.391190 -2.789306
v -15.917184 124.535973 -3.858283
v -11.179334 126.819595 29.510084
v -14.666094 137.499985 27.902342
v -16.989246 130.477951 19.286171
v -15.704930 93.530426 -62.591351
vn 0.4689 -0.8496 0.2415
vn 0.8085 -0.2300 -0.5417
vn 0.9627 -0.2474 0.1095
vn 0.3008 -0.8307 -0.4684
vn -0.0433 -0.9679 0.2477
vn -0.1613 -0.9546 -0.2503
vn -0.6998 -0.6991 0.1472
vn -0.4895 -0.6866 -0.5376
vn -0.8357 -0.3208 -0.4459
vn -0.6606 0.0729 -0.7472
vn -0.8906 0.4283 -0.1528
vn -0.2845 0.9249 -0.2521
vn -0.1302 0.9076 0.3991
vn -0.7225 0.4095 0.5571
vn -0.8791 -0.0847 0.4691
vn -0.2546 0.0273 0.9667
vn -0.5509 -0.3527 0.7564
vn 0.2388 -0.4942 0.8359
vn -0.2047 -0.7186 0.6647
vn -0.6997 -0.6991 0.1471
vn 0.5748 0.7482 -0.3313
vn 0.5202 0.8326 -0.1902
vn -0.0734 0.5989 -0.7975
vn 0.6920 0.6244 -0.3623
vn 0.3793 0.1205 -0.9174
vn 0.8030 0.5337 -0.2651
vn 0.8430 0.5292 -0.0966
vn 0.7884 0.6136 0.0446
vn 0.8430 0.5292 -0.0965
vn 0.7517 0.0787 0.6548
vn 0.6712 0.7374 0.0756
vn 0.2989 0.5571 0.7747
vn 0.5601 0.8281 -0.0216
vn 0.1519 0.9767 -0.1518
vn 0.2146 0.9147 0.3425
vn 0.3969 0.8470 0.3537
vn 0.0234 0.9995 -0.0229
vn -0.3383 0.9149 -0.2205
vn -0.2454 0.9355 0.2542
vn -0.6033 0.7864 -0.1330
vn -0.7002 0.7064 0.1034
vn -0.8556 0.5164 0.0342
vn -0.5972 0.5323 0.6000
vn 0.1143 0.3009 0.9468
vn 0.5626 -0.5870 0.5821
vn 0.8580 -0.0638 0.5097
vn -0.1957 -0.9609 0.1957
vn -0.4665 0.7515 0.4665
vn -0.4158 -0.7041 -0.5756
vn -0.9630 0.1522 -0.2223
vn -0.3268 -0.4163 -0.8485
vn -0.2914 0.0100 -0.9565
vn -0.2914 0.0099 -0.9565
vn 0.6380 -0.4311 -0.6380
vn 0.6991 0.1502 -0.6991
vn -0.2999 -0.0302 -0.9535
vn 0.6960 0.1767 -0.6960
vn 0.5525 0.6240 -0.5526
vn 0.8925 0.4194 0.1660
vn 0.0351 0.7413 0.6703
vn 0.1174 0.7915 0.5998
vn -0.1036 0.7146 0.6918
vn 0.2519 0.6742 0.6943
vn -0.0458 0.5501 0.8338
vn -0.1671 -0.4486 -0.8780
vn -0.1903 0.9631 0.1903
vn -0.3857 0.8381 0.3857
vn -0.6703 0.7413 -0.0351
vn -0.9630 0.1523 -0.2224
vn -0.4159 -0.7041 -0.5756
vn 0.5627 -0.5870 0.5821
vn -0.1958 -0.9609 0.1957
vn 0.4040 -0.8207 -0.4040
vn -0.3268 -0.4162 -0.8485
vn 0.8839 -0.4660 -0.0409
vn 0.9933 0.0777 -0.0855
vn 0.8579 -0.0638 0.5098
vn 0.4022 0.9102 0.0990
vn 0.7344 0.6539 -0.1821
vn -0.5577 -0.7290 -0.3969
vn -0.2026 -0.9526 0.2270
vn -0.1660 0.4194 -0.8925
vn -0.6703 0.7412 -0.0351
vn 0.3412 0.8819 -0.3252
vn 0.7432 0.6590 -0.1161
vn -0.2401 -0.9702 -0.0324
vn -0.4116 -0.6585 0.6300
vn 0.6998 0.6990 -0.1472
vn 0.6920 0.6244 -0.3624
vn 0.6938 0.6587 0.2911
vn 0.6894 0.6924 -0.2128
vn -0.9065 -0.3470 -0.2406
vn -0.3795 -0.8820 -0.2792
vn 0.9232 0.3799 0.0576
vn 0.6532 0.7361 -0.1776
vn -0.9375 -0.2063 0.2801
vn -0.7655 -0.5175 -0.3824
vn 0.5698 0.6044 -0.5569
vn 0.7070 0.7026 -0.0809
vn -0.2713 -0.8294 0.4883
vn -0.7976 -0.2939 0.5267
vn 0.8620 0.3523 -0.3644
vn 0.6620 0.7411 -0.1116
vn -0.6199 -0.4475 0.6445
vn -0.9745 -0.2234 0.0205
vn -0.4853 0.7206 0.4952
vn 0.0352 0.7412 0.6703
vn 0.8925 0.4194 0.1659
vn -0.6703 0.7413 -0.0352
vn -0.9970 -0.0715 -0.0289
vn -0.7087 0.6460 -0.2837
vn -0.3523 0.8412 -0.4102
vn -0.2712 -0.8294 0.4883
vn -0.7976 -0.2940 0.5267
vn -0.2401 -0.9702 -0.0323
vn 0.7431 0.6590 -0.1161
vn 0.7344 0.6539 -0.1820
vn -0.2027 -0.9526 0.2271
vn -0.9065 -0.3471 -0.2406
vn 0.6895 0.6924 -0.2128
vn -0.3796 -0.8820 -0.2791
vn -0.9376 -0.2063 0.2801
vn 0.6532 0.7360 -0.1775
vn -0.6200 -0.4475 0.6445
vn 0.6620 0.7411 -0.1117
vn -0.1659 0.4194 -0.8925
vt 0.330422 0.004024
vt 0.150822 0.159448
vt 0.150822 0.000950
vt 0.330422 0.159448
vt 0.484986 0.075861
vt 0.484987 0.159448
vt 0.547413 0.159448
vt 0.484986 0.243035
vt 0.330420 0.314872
vt 0.150821 0.317946
vt 0.086658 0.159448
vt 0.086658 0.072391
vt 0.086658 0.246505
vt 0.558623 0.484456
vt 0.438863 0.405351
vt 0.480563 0.366908
vt 0.499649 0.484456
vt 0.438863 0.406096
vt 0.347687 0.484456
vt 0.347687 0.385476
vt 0.229762 0.428032
vt 0.196253 0.400663
vt 0.133527 0.484456
vt 0.588491 0.154221
vt 0.993912 0.148423
vt 0.661223 0.046899
vt 0.993912 0.997646
vt 0.586348 0.997646
vt 0.962782 0.077038
vt 0.886134 0.046899
vt 0.488142 0.972754
vt 0.535775 0.738652
vt 0.535775 0.964996
vt 0.488142 0.738652
vt 0.348370 0.972754
vt 0.411836 0.738652
vt 0.307543 0.738652
vt 0.307543 0.487376
vt 0.274787 0.504549
vt 0.347687 0.388179
vt 0.229762 0.433738
vt 0.347687 0.342642
vt 0.196253 0.399220
vt 0.140961 0.775559
vt 0.225414 0.967691
vt 0.184292 0.993398
vt 0.187196 0.775559
vt 0.184292 0.557720
vt 0.225414 0.583427
vt 0.057592 0.932621
vt 0.028152 0.600515
vt 0.013976 0.782489
vt 0.073480 0.778692
vt 0.107832 0.991305
vt 0.137865 0.780872
vt 0.535775 0.512308
vt 0.488142 0.504549
vt 0.348370 0.504549
vt 0.067012 0.452805
vt 0.067187 0.321936
vt 0.097194 0.360675
vt 0.037179 0.360675
vt 0.274787 0.738652
vt 0.307543 0.989929
vt 0.274787 0.972754
vt 0.067751 0.076702
vt 0.023465 0.121616
vt 0.067751 0.140220
vt 0.004860 0.076702
vt 0.023465 0.121203
vt 0.067751 0.139806
vt 0.022837 0.121203
vt 0.004233 0.076702
vt 0.180916 0.484456
vt 0.542818 0.083110
vt 0.595528 0.010359
vt 0.022837 0.121616
vt 0.101839 0.571630
vt 0.347687 0.344085
vt 0.480563 0.368352
vt 0.266959 0.775559
vt 0.097218 0.360688
vt 0.067149 0.321942
vt 0.037149 0.360660
s 1
usemtl mat1.007
f 1/1/1 2/2/2 3/3/3
f 1/1/1 4/4/4 2/2/2
f 5/5/5 4/4/4 1/1/1
f 5/5/5 6/6/6 4/4/4
f 7/7/7 6/6/6 5/5/5
f 7/7/7 8/8/8 6/6/6
f 9/6/9 8/8/8 7/7/7
f 9/6/9 10/4/10 8/8/8
f 11/1/11 10/4/10 9/6/9
f 11/1/11 12/3/12 10/4/10
f 13/9/11 14/2/13 15/10/12
f 13/9/11 16/4/14 14/2/13
f 17/6/15 16/4/14 13/9/11
f 17/6/15 18/1/16 16/4/14
f 19/5/17 18/1/16 17/6/15
f 19/5/17 20/4/18 18/1/16
f 21/6/19 20/4/18 19/5/17
f 21/6/19 22/8/5 20/4/18
f 7/7/20 22/8/5 21/6/19
f 23/11/21 12/3/12 24/12/22
f 23/11/21 25/2/23 12/3/12
f 26/13/24 25/2/23 23/11/21
f 26/13/24 27/10/25 25/2/23
f 28/11/26 27/10/25 26/13/24
f 28/11/26 2/2/2 27/10/25
f 29/12/27 2/2/2 28/11/26
f 29/12/27 3/3/3 2/2/2
f 30/11/28 31/10/3 32/13/29
f 30/11/28 33/2/30 31/10/3
f 34/12/31 33/2/30 30/11/28
f 34/12/31 35/3/32 33/2/30
f 36/11/33 35/3/32 34/12/31
f 36/11/33 14/2/13 35/3/32
f 37/13/22 14/2/13 36/11/33
f 37/13/22 15/10/12 14/2/13
f 38/14/34 39/15/35 40/16/36
f 38/14/34 41/17/37 39/15/35
f 42/18/38 41/17/37 38/14/34
f 42/18/38 43/19/39 41/17/37
f 44/20/40 43/19/39 42/18/38
f 44/20/40 45/21/41 43/19/39
f 46/22/42 45/21/41 44/20/40
f 46/22/42 47/23/43 45/21/41
f 48/24/44 49/25/45 50/26/46
f 48/24/44 51/27/47 49/25/45
f 52/28/48 51/27/47 48/24/44
f 52/28/48 53/25/49 51/27/47
f 54/24/50 53/25/49 52/28/48
f 54/24/50 55/29/51 53/25/49
f 56/30/52 55/29/51 54/24/50
f 57/31/53 58/32/54 59/33/51
f 57/31/53 60/34/55 58/32/54
f 61/35/56 60/34/55 57/31/53
f 61/35/56 62/36/57 60/34/55
f 63/37/58 62/36/57 61/35/56
f 63/37/58 64/38/59 62/36/57
f 65/39/60 64/38/59 63/37/58
f 43/19/39 39/15/35 41/17/37
f 43/19/39 66/40/61 39/15/35
f 67/41/62 66/40/61 43/19/39
f 67/41/62 68/42/63 66/40/61
f 69/43/64 68/42/63 67/41/62
f 4/4/4 27/10/25 2/2/2
f 4/4/4 70/9/65 27/10/25
f 6/6/6 70/9/65 4/4/4
f 6/6/6 8/8/8 70/9/65
f 71/44/66 72/45/44 73/46/60
f 71/44/66 74/47/67 72/45/44
f 75/48/68 74/47/67 71/44/66
f 75/48/68 76/49/69 74/47/67
f 77/50/70 78/51/71 79/52/72
f 77/50/70 80/53/73 78/51/71
f 81/54/74 80/53/73 77/50/70
f 81/54/74 82/55/54 80/53/73
f 60/34/55 83/56/75 58/32/54
f 60/34/55 84/57/76 83/56/75
f 85/58/77 84/57/76 60/34/55
f 86/59/78 87/60/79 88/61/80
f 86/59/78 89/62/81 87/60/79
f 88/61/80 89/62/81 86/59/78
f 20/4/18 31/10/3 33/2/30
f 20/4/18 90/9/1 31/10/3
f 22/8/5 90/9/1 20/4/18
f 91/63/66 92/64/82 93/65/83
f 91/63/66 63/37/58 92/64/82
f 65/39/60 63/37/58 91/63/66
f 94/59/84 95/60/85 96/61/86
f 94/59/84 97/62/87 95/60/85
f 96/61/86 97/62/87 94/59/84
f 98/66/88 99/67/89 100/68/21
f 98/66/88 101/69/26 99/67/89
f 102/70/29 101/69/26 98/66/88
f 98/66/88 103/71/28 102/70/29
f 98/66/88 104/72/31 103/71/28
f 105/73/33 104/72/31 98/66/88
f 106/59/90 107/60/91 108/61/92
f 106/59/90 109/62/93 107/60/91
f 108/61/92 109/62/93 106/59/90
f 110/59/94 111/60/95 112/61/96
f 110/59/94 113/62/97 111/60/95
f 112/61/96 113/62/97 110/59/94
f 114/59/98 115/60/99 116/61/100
f 114/59/98 117/62/101 115/60/99
f 116/61/100 117/62/101 114/59/98
f 118/59/102 119/60/103 120/61/104
f 118/59/102 121/62/105 119/60/103
f 120/61/104 121/62/105 118/59/102
f 122/74/106 67/41/62 43/19/39
f 122/74/106 69/43/64 67/41/62
f 47/23/43 69/43/64 122/74/106
f 123/75/107 50/26/46 124/76/108
f 123/75/107 48/24/44 50/26/46
f 85/58/77 62/36/57 64/38/59
f 85/58/77 60/34/55 62/36/57
f 54/24/50 125/26/56 56/30/52
f 54/24/50 126/75/109 125/26/56
f 70/9/65 10/4/10 27/10/25
f 70/9/65 8/8/8 10/4/10
f 19/5/17 7/7/20 21/6/19
f 19/5/17 17/6/15 7/7/20
f 17/6/15 127/8/110 7/7/20
f 17/6/15 13/9/11 127/8/110
f 98/66/88 128/77/22 105/73/33
f 98/66/88 100/68/21 128/77/22
f 16/4/14 35/3/32 14/2/13
f 16/4/14 18/1/16 35/3/32
f 18/1/16 33/2/30 35/3/32
f 18/1/16 20/4/18 33/2/30
f 129/5/110 9/6/9 7/7/7
f 129/5/110 11/1/11 9/6/9
f 25/2/23 10/4/10 12/3/12
f 25/2/23 27/10/25 10/4/10
f 78/51/71 82/55/54 130/78/75
f 78/51/71 80/53/73 82/55/54
f 131/30/76 49/25/45 132/29/75
f 131/30/76 50/26/46 49/25/45
f 40/16/36 66/40/61 68/42/63
f 40/16/36 39/15/35 66/40/61
f 44/20/40 133/79/111 46/22/42
f 44/20/40 42/18/38 133/79/111
f 42/18/38 134/80/112 133/79/111
f 42/18/38 38/14/34 134/80/112
f 135/81/48 74/47/67 76/49/69
f 135/81/48 72/45/44 74/47/67
f 45/21/41 122/74/106 43/19/39
f 45/21/41 47/23/43 122/74/106
f 136/82/113 137/83/99 138/84/114
f 139/82/115 140/83/116 141/84/87
f 142/82/80 143/83/117 144/84/118
f 145/82/119 146/83/120 147/84/121
f 148/82/122 149/83/123 150/84/97
f 151/82/124 152/83/125 153/84/105
f 154/76/126 125/26/56 126/75/109
f 61/35/56 92/64/82 63/37/58
