# Blender 4.0.2
# www.blender.org
mtllib Shork.mtl
o Box007
v -0.765205 -1.286269 -0.020177
v -0.675115 1.792391 -0.934505
v -0.793058 -0.162717 -7.613914
v -0.794467 0.427251 -7.553010
v -0.809209 -1.334872 -5.433743
v -0.675815 1.772660 -2.910794
v -0.497894 1.938964 -1.761039
v -0.764320 -0.709758 -7.141700
v -0.761140 0.964646 -6.985404
v -0.775212 -1.604592 -2.976012
v -0.743629 1.305293 -5.941936
v -0.474985 -0.722605 3.110421
v -0.844039 1.215677 0.069860
v -0.656111 0.793583 1.155823
v -0.256143 -0.634587 4.765518
v -0.586766 -0.146287 3.074542
v -0.262654 0.232313 3.932229
v 0.000000 0.431220 4.503671
v 0.000000 0.946595 5.375557
v 0.000000 1.410985 5.783085
v 0.000000 1.758535 6.223258
v 0.000000 1.898898 6.627346
v 0.000000 1.400328 6.626169
v -1.295248 0.087435 -6.911769
v -1.257450 0.943850 -5.792144
v -1.389585 -0.628709 -6.226001
v -1.382530 -1.081846 -5.132834
v -1.665406 0.304586 -5.591685
v -1.331659 1.382752 -2.853777
v -1.329649 0.600849 0.027940
v -1.904450 0.774515 -2.944730
v -1.283484 -0.822395 0.073079
v -2.047570 -0.321927 -2.877235
v -1.500728 -1.070500 -1.018244
v -0.737386 -1.625006 -1.792484
v -0.318675 -0.173858 4.719387
v -0.214133 0.227248 4.627904
v -0.290780 1.119389 6.208997
v -0.271832 -1.615557 6.576394
v 0.000000 -1.511499 -0.063618
v 0.000000 -0.196522 -8.017447
v 0.000000 0.426900 -7.949763
v 0.000000 -1.460682 -5.590474
v 0.000000 1.910519 -2.955533
v 0.000000 1.991476 -2.191245
v 0.000000 -0.765031 -7.383884
v 0.000000 1.016009 -7.223894
v 0.000000 -1.717364 -3.025604
v 0.000000 1.438212 -6.040413
v 0.000000 -1.044173 2.461613
v 0.000000 1.232231 0.402578
v 0.000000 0.955707 1.445946
v 0.000000 -0.872634 4.710107
v 0.000000 0.793506 2.253278
v 0.000000 -0.979649 5.187877
v 0.000000 0.619908 2.867453
v 0.000000 0.392989 3.892812
v 0.000000 -1.932428 6.299677
v 0.000000 -2.045267 6.672379
v 0.000000 -1.962948 6.828176
v 0.000000 -1.566062 6.746884
v 0.000000 0.256391 5.958770
v 0.000000 -1.722947 -1.834938
v 0.000000 1.843768 -0.069332
v 0.000000 2.537383 -1.621650
v 0.000000 3.044135 -1.039849
v 0.000000 3.491805 -0.328877
v -1.123032 1.340060 -1.063819
v -1.575741 0.785774 -1.137272
v -1.713154 -0.345534 -1.221252
v 0.000000 3.039378 0.265218
v 0.000000 3.731966 0.242837
v 0.000000 3.592442 0.664007
v 0.000000 3.772214 0.563563
v -0.503441 1.696865 -0.174675
v -0.466486 2.182410 -0.229918
v -0.274997 3.102127 0.132242
v 0.000000 2.468653 -0.016631
v -0.366276 2.720063 -0.080021
v -0.160058 3.525265 0.504376
v -0.359455 2.402660 -1.120602
v -0.217603 2.861438 -0.622002
v 0.000000 0.883976 2.454996
v 0.000000 0.735149 2.764500
v -0.380462 0.253769 3.030507
v 0.000000 1.023088 6.375298
v 0.000000 0.980493 2.709752
v -0.210055 1.541718 6.459556
v -0.976292 0.181334 1.193396
v -0.931999 -0.799268 1.244531
v 0.000000 -1.197552 1.373170
v 0.000000 1.646477 -5.043323
v -0.732586 1.497445 -4.907831
v -1.367635 1.142927 -4.784519
v -1.872386 0.524565 -4.589417
v -2.789682 -1.493831 -0.339726
v -2.935341 -1.333765 -1.136687
v -2.930355 -1.627727 -1.298417
v -1.337969 -1.352364 -2.845402
v -1.236179 -1.320504 -1.606547
v -1.727152 -0.966418 -2.790425
v -2.995880 -1.595269 -1.294420
v -2.834008 -1.626092 -0.216396
v -2.655602 -0.875335 -2.227436
v -2.297911 -1.021119 -0.954732
v -2.220501 -1.220704 -1.160733
v -2.590003 -1.207316 -2.410070
v -2.670221 -1.129964 -2.468301
v -2.063675 -0.653300 -3.402038
v -2.903348 -1.717231 -0.599378
v -2.972591 -1.692502 -0.637924
v -2.888352 -1.369107 -0.689805
v -2.488057 -0.745809 -1.524466
v -1.937549 -0.242932 -2.138545
v -2.761215 -1.413799 -1.959288
v -2.851538 -1.335335 -2.011597
v -2.820182 -1.112142 -1.736885
v -2.724605 -1.052693 -1.085542
v -2.574816 -1.231069 -0.752289
v -2.527123 -1.446340 -1.034923
v -2.587869 -1.465519 -1.370010
v -2.296427 -1.279228 -1.656641
v -1.669322 -1.123817 -2.077647
v -2.362179 -0.873703 -2.972740
v -2.401179 -0.606060 -2.601135
v -2.226507 -0.454045 -1.879442
v -1.966268 -0.798019 -1.019669
v -1.803817 -1.065737 -1.085739
v -1.978892 -1.201053 -1.871133
v -2.274549 -1.052619 -2.741908
v -1.586624 -0.562485 -0.784611
v -1.926087 -0.935902 -0.967796
v -1.517023 -0.854027 -0.599262
v -2.248341 -1.162974 -0.895073
v -2.539960 -1.427696 -0.727121
v -1.800501 -0.607997 -5.256623
v 0.000000 1.798864 -4.020463
v -0.728246 1.642496 -3.933549
v -1.347840 1.296086 -3.790232
v -1.958846 0.662864 -3.712837
v -1.764114 -1.003748 -4.072165
v -1.363454 -1.338244 -3.835561
v -0.782522 -1.562486 -3.966955
v 0.000000 -1.683109 -4.039528
v -2.029521 -0.610838 -4.251146
v -1.753888 0.808473 -1.981142
v -1.258532 1.381874 -1.970143
v -0.424274 -0.166480 3.906964
v -0.342075 -0.675241 3.883510
v 0.000000 -0.884588 3.872019
v -1.783492 -0.179501 -5.432961
v -2.029514 -0.113043 -4.350701
v -2.108005 -0.072720 -3.575643
v -2.047787 0.159862 -2.978842
v -1.904190 0.135988 -2.081133
v -1.686345 0.110885 -1.209907
v -1.299278 -0.337046 0.057694
v -0.078680 0.909896 2.813306
v -0.153051 0.760035 2.692868
v 0.000000 0.952853 2.894454
v 0.000000 0.862045 2.819603
v -0.438405 0.424809 2.334013
v -0.685454 -0.043141 2.309053
v -0.546116 -0.761040 2.342758
v 0.000000 0.754102 2.071271
v -0.121799 0.669194 2.161955
v -0.292127 0.532622 2.544155
v -0.126943 0.514264 2.890514
v 0.000000 0.559779 3.085966
v -0.176008 0.623278 2.769450
v -0.188232 0.823072 2.540131
v -0.215761 0.722102 2.407183
v 0.000000 0.787650 1.967212
v -0.210739 0.660558 2.058146
v -0.377034 0.486784 2.478497
v -0.254179 0.434676 2.991971
v 0.000000 0.530751 3.223300
v -0.347779 0.680481 5.897335
v -0.368800 0.198810 5.707738
v 0.000000 0.576987 4.940248
v 0.000000 0.649512 6.137732
v 0.000000 1.015029 2.865991
v 0.000000 1.797694 6.762878
v -0.328963 -1.221601 6.278144
v -0.339862 -0.450901 5.721999
v -0.348900 -0.899256 6.024730
v 0.000000 -1.260202 5.487122
v -0.343081 -0.090260 5.681607
v 0.000000 -0.089031 5.874663
v 0.000000 -1.174272 6.467179
v 0.000000 -0.837300 6.217697
v 0.000000 -0.379842 5.950334
v -0.245617 0.425425 5.331049
v -0.213428 0.785154 5.650024
v -0.168360 1.263784 5.957006
v -0.219386 -0.705100 5.477445
v -0.244518 -1.063612 5.675084
v -0.232885 -1.400695 6.037492
v -0.309305 -0.152162 5.256957
v -2.767395 -1.599240 -0.212334
v 0.000000 -0.968816 3.155636
v 1.295248 0.087435 -6.911769
v 0.794467 0.427251 -7.553010
v 0.793058 -0.162717 -7.613914
v 1.783493 -0.179501 -5.432961
v 1.665407 0.304586 -5.591685
v 1.257450 0.943850 -5.792144
v 0.761141 0.964646 -6.985404
v 0.743629 1.305293 -5.941936
v 1.389585 -0.628709 -6.226001
v 0.764321 -0.709758 -7.141700
v 1.382530 -1.081846 -5.132834
v 0.809209 -1.334872 -5.433743
v 1.331659 1.382752 -2.853777
v 1.258532 1.381874 -1.970143
v 0.497894 1.938964 -1.761039
v 0.675815 1.772660 -2.910794
v 1.800501 -0.607997 -5.256623
v 1.329649 0.600849 0.027940
v 0.844039 1.215677 0.069860
v 1.123032 1.340060 -1.063819
v 1.575742 0.785774 -1.137272
v 0.474985 -0.722605 3.110421
v 0.586767 -0.146287 3.074542
v 0.685454 -0.043141 2.309053
v 0.546116 -0.761040 2.342758
v 1.500728 -1.070500 -1.018244
v 1.236179 -1.320504 -1.606547
v 0.765205 -1.286269 -0.020177
v 1.283484 -0.822395 0.073079
v 1.904450 0.774515 -2.944730
v 1.347840 1.296086 -3.790232
v 1.958847 0.662864 -3.712837
v 1.764114 -1.003748 -4.072165
v 1.727152 -0.966418 -2.790425
v 2.063676 -0.653300 -3.402038
v 2.029522 -0.610838 -4.251146
v 1.299278 -0.337046 0.057694
v 1.686346 0.110885 -1.209907
v 2.108005 -0.072720 -3.575643
v 2.047788 0.159862 -2.978842
v 0.342075 -0.675241 3.883510
v 0.256143 -0.634587 4.765518
v 0.318675 -0.173858 4.719387
v 0.424274 -0.166480 3.906964
v 0.656112 0.793583 1.155823
v 0.976292 0.181334 1.193396
v 0.271832 -1.615557 6.576394
v 0.214133 0.227248 4.627904
v 0.262654 0.232313 3.932229
v 0.290780 1.119389 6.208997
v 0.347779 0.680481 5.897335
v 0.210055 1.541718 6.459556
v 1.669323 -1.123817 -2.077647
v 0.775212 -1.604592 -2.976012
v 0.782522 -1.562486 -3.966955
v 0.728246 1.642496 -3.933549
v 0.737386 -1.625006 -1.792484
v 0.188232 0.823072 2.540131
v 0.153051 0.760035 2.692868
v 0.078680 0.909896 2.813306
v 0.359455 2.402660 -1.120602
v 1.753888 0.808473 -1.981142
v 1.904190 0.135988 -2.081133
v 2.888352 -1.369107 -0.689805
v 2.935341 -1.333765 -1.136687
v 2.995880 -1.595269 -1.294420
v 2.972591 -1.692502 -0.637924
v 0.503441 1.696865 -0.174675
v 0.675115 1.792391 -0.934505
v 0.366276 2.720063 -0.080021
v 0.466486 2.182410 -0.229918
v 0.274998 3.102127 0.132242
v 0.160058 3.525265 0.504376
v 0.217604 2.861438 -0.622002
v 0.380463 0.253769 3.030507
v 0.438405 0.424809 2.334013
v 0.931999 -0.799268 1.244531
v 0.732586 1.497445 -4.907831
v 1.367635 1.142927 -4.784519
v 1.872387 0.524565 -4.589417
v 1.586624 -0.562485 -0.784611
v 1.713155 -0.345534 -1.221252
v 1.966268 -0.798019 -1.019669
v 1.937549 -0.242932 -2.138545
v 2.047570 -0.321927 -2.877235
v 2.401179 -0.606060 -2.601135
v 2.226507 -0.454045 -1.879442
v 2.274549 -1.052619 -2.741908
v 2.362180 -0.873703 -2.972740
v 1.803817 -1.065737 -1.085739
v 1.978892 -1.201053 -1.871133
v 1.363454 -1.338244 -3.835561
v 1.337969 -1.352364 -2.845402
v 2.930355 -1.627727 -1.298417
v 2.903348 -1.717231 -0.599378
v 2.655603 -0.875335 -2.227436
v 2.820182 -1.112142 -1.736885
v 2.724605 -1.052693 -1.085542
v 2.488057 -0.745809 -1.524466
v 2.539960 -1.427696 -0.727121
v 2.527124 -1.446340 -1.034923
v 2.220501 -1.220704 -1.160733
v 2.248342 -1.162974 -0.895073
v 2.587869 -1.465519 -1.370010
v 2.296428 -1.279228 -1.656641
v 2.590003 -1.207316 -2.410070
v 2.761215 -1.413799 -1.959288
v 2.851538 -1.335335 -2.011597
v 2.670221 -1.129964 -2.468301
v 2.767395 -1.599240 -0.212334
v 2.834008 -1.626092 -0.216396
v 2.789682 -1.493831 -0.339726
v 2.574816 -1.231069 -0.752289
v 2.297912 -1.021119 -0.954732
v 1.926087 -0.935902 -0.967796
v 1.517024 -0.854027 -0.599262
v 2.029514 -0.113043 -4.350701
v 0.210740 0.660558 2.058146
v 0.121799 0.669194 2.161955
v 0.254180 0.434676 2.991971
v 0.126943 0.514264 2.890514
v 0.215761 0.722102 2.407183
v 0.292128 0.532622 2.544155
v 0.176008 0.623278 2.769450
v 0.377034 0.486784 2.478497
v 0.213428 0.785154 5.650024
v 0.245617 0.425425 5.331049
v 0.168360 1.263784 5.957006
v 0.368800 0.198810 5.707738
v 0.343081 -0.090260 5.681607
v 0.328963 -1.221601 6.278144
v 0.348900 -0.899256 6.024730
v 0.244518 -1.063612 5.675084
v 0.232885 -1.400695 6.037492
v 0.339863 -0.450901 5.721999
v 0.219386 -0.705100 5.477445
v 0.309305 -0.152162 5.256957
v 0.000000 -1.642839 5.868528
vn -0.8018 0.0595 -0.5946
vn -0.9478 0.1367 -0.2882
vn -0.8128 0.4655 -0.3503
vn -0.6043 0.7604 -0.2381
vn -0.7908 -0.3908 -0.4711
vn -0.5339 -0.7866 -0.3100
vn -0.5559 0.8313 0.0010
vn -0.8427 0.4410 -0.3088
vn -0.6841 -0.6754 -0.2755
vn -0.7663 0.5899 0.2544
vn -0.9777 -0.1843 0.1005
vn -0.5425 -0.8095 0.2248
vn -0.7225 0.6895 -0.0503
vn -0.7607 -0.6491 -0.0006
vn -0.9643 0.0410 0.2616
vn -0.9765 0.2137 0.0281
vn -0.4872 -0.8650 0.1199
vn -0.9830 -0.1441 0.1139
vn -0.7751 0.5077 0.3761
vn -0.8158 -0.5535 -0.1676
vn -0.6070 0.7947 0.0024
vn -0.9417 0.3215 0.0989
vn -0.5426 -0.4440 0.7131
vn -0.5456 0.1682 0.8210
vn -0.8787 0.3825 0.2857
vn -0.5199 -0.8450 0.1253
vn -0.3161 -0.6720 -0.6697
vn -0.4466 0.0938 -0.8898
vn -0.2797 0.7276 -0.6264
vn -0.2015 0.9736 -0.1071
vn -0.2013 0.9737 -0.1071
vn -0.2014 0.9736 -0.1071
vn -0.1509 -0.9879 -0.0371
vn -0.1939 -0.9171 -0.3484
vn -0.2135 0.9710 -0.1071
vn -0.1385 -0.9903 -0.0086
vn -0.1849 0.9302 -0.3172
vn -0.2426 0.9152 0.3217
vn -0.5941 -0.8025 0.0542
vn -0.9279 0.2168 0.3032
vn -0.1998 -0.9685 0.1488
vn -0.6303 0.6301 -0.4536
vn -0.5075 0.8582 -0.0772
vn -0.7429 0.6648 0.0781
vn -0.9670 0.2048 0.1517
vn -0.9705 0.2242 0.0887
vn -0.3050 0.5941 0.7443
vn -0.7250 0.6429 0.2472
vn -0.3438 -0.1324 0.9297
vn -0.8877 0.4205 -0.1874
vn -0.4363 -0.3810 0.8152
vn -0.7323 0.3322 0.5945
vn -0.4766 -0.5096 0.7163
vn -0.8294 0.5543 -0.0696
vn -0.9321 0.3186 -0.1726
vn -0.9678 0.1000 0.2312
vn -0.9512 0.2934 -0.0957
vn -0.3252 0.5777 0.7486
vn -0.2387 0.1277 0.9627
vn -0.8830 0.4106 -0.2275
vn -0.8035 0.4924 -0.3345
vn -0.8704 0.4585 0.1792
vn -0.8425 0.4460 0.3021
vn -0.9546 -0.0890 0.2843
vn -0.6294 -0.3663 0.6854
vn -0.9585 -0.0253 0.2841
vn -0.9576 -0.0224 0.2873
vn -0.9577 -0.0227 0.2870
vn -0.6322 -0.7474 0.2044
vn -0.3451 -0.9055 0.2471
vn -0.8962 0.4281 -0.1162
vn -0.2129 0.9588 -0.1879
vn -0.5509 0.8143 -0.1828
vn -0.8201 0.5204 -0.2379
vn -0.6575 0.5813 0.4794
vn -0.6133 0.7899 -0.0054
vn 0.0218 -0.8585 -0.5124
vn 0.1341 -0.9880 0.0760
vn -0.6769 -0.7356 0.0261
vn -0.3883 -0.9213 -0.0197
vn -0.4571 -0.8889 0.0305
vn -0.4708 -0.8679 0.1585
vn -0.3632 -0.9247 -0.1139
vn -0.7556 0.6527 0.0557
vn 0.6688 -0.7293 0.1446
vn 0.5603 -0.8282 -0.0147
vn -0.3838 -0.7756 -0.5011
vn 0.6313 -0.7745 0.0404
vn -0.8823 0.3638 0.2988
vn -0.2159 0.8375 0.5020
vn -0.5954 0.7257 0.3447
vn -0.7824 0.5084 -0.3597
vn -0.9318 0.3038 -0.1985
vn -0.4551 -0.8051 -0.3804
vn -0.9600 0.2645 -0.0924
vn -0.8045 0.5795 0.1304
vn -0.2749 0.8379 0.4716
vn 0.5442 -0.8374 -0.0507
vn 0.3868 -0.9018 -0.1929
vn 0.4015 -0.8887 -0.2214
vn 0.1211 -0.9692 -0.2142
vn -0.8685 0.3595 -0.3412
vn -0.7138 0.6996 0.0332
vn -0.3693 0.8047 0.4649
vn 0.3901 -0.7577 0.5231
vn 0.3156 -0.9454 0.0812
vn 0.1839 -0.9629 -0.1974
vn -0.2357 -0.7911 -0.5645
vn -0.6485 0.2343 0.7242
vn -0.9443 -0.0173 0.3285
vn -0.9446 -0.0201 0.3278
vn -0.9443 -0.0164 0.3288
vn -0.7401 -0.6087 0.2857
vn -0.2093 -0.8455 0.4913
vn -0.0489 0.3563 0.9331
vn 0.3273 0.3057 0.8941
vn 0.7320 0.4124 0.5423
vn 0.4017 -0.9063 -0.1316
vn -0.8040 0.5912 0.0640
vn -0.2234 0.9642 -0.1431
vn -0.5038 0.8549 -0.1233
vn -0.7540 0.6444 -0.1273
vn -0.5801 -0.8007 -0.1497
vn -0.4251 -0.8928 -0.1493
vn -0.1716 -0.9746 -0.1438
vn -0.5763 -0.8172 -0.0054
vn -0.9756 0.1854 -0.1175
vn -0.9613 0.1571 0.2263
vn -0.7615 0.6282 0.1596
vn -0.6505 0.7565 0.0666
vn -0.9609 0.1543 -0.2300
vn -0.8960 0.4163 0.1548
vn -0.9685 -0.1711 0.1811
vn -0.9178 -0.1781 -0.3550
vn -0.9743 -0.0477 -0.2202
vn -0.9959 -0.0584 -0.0691
vn -0.9967 -0.0214 0.0786
vn -0.9874 0.0458 0.1515
vn -0.9687 0.0498 0.2431
vn -0.9502 0.0533 0.3071
vn -0.9575 -0.0220 0.2877
vn -0.9446 -0.0204 0.3277
vn -0.4348 -0.8872 0.1545
vn -0.4042 0.8716 0.2774
vn -0.4783 0.8670 0.1395
vn -0.4093 -0.5803 0.7041
vn -0.5676 0.7701 -0.2912
vn -0.9216 0.1005 -0.3748
vn -0.7575 0.6375 -0.1409
vn -0.4038 -0.4102 0.8178
vn -0.3388 0.5662 0.7514
vn -0.5264 0.7283 0.4388
vn -0.9684 0.1603 0.1913
vn -0.5328 0.8276 -0.1769
vn -0.4909 0.7730 -0.4018
vn -0.8345 0.5014 0.2284
vn -0.8984 0.0759 0.4325
vn -0.8873 0.4612 0.0074
vn -0.4923 0.8193 0.2939
vn -0.4900 0.8534 0.1777
vn -0.4343 0.8863 0.1606
vn -0.4671 0.8547 0.2265
vn -0.8160 0.5343 0.2205
vn -0.8021 0.5852 0.1187
vn -0.3633 0.8820 0.3002
vn -0.8269 0.4215 -0.3723
vn -0.8023 0.5638 -0.1959
vn -0.8173 0.4628 -0.3432
vn -0.8174 0.3722 -0.4397
vn -0.7362 0.6420 -0.2141
vn -0.5280 -0.3189 0.7871
vn -0.7588 0.2711 0.5922
vn -0.6959 -0.2336 0.6791
vn -0.5119 -0.1672 0.8427
vn -0.9549 -0.2258 -0.1929
vn -0.5306 0.1461 0.8349
vn -0.8423 -0.4766 0.2518
vn -0.5049 0.4873 0.7125
vn -0.4810 0.5225 0.7040
vn -0.5268 0.4565 0.7170
vn -0.9464 -0.2707 -0.1763
vn -0.9540 -0.1277 -0.2711
vn -0.9770 -0.1444 -0.1570
vn -0.9817 0.0637 -0.1792
vn -0.9372 0.2219 -0.2690
vn -0.8997 0.3083 -0.3089
vn -0.9103 0.3256 -0.2556
vn -0.7554 -0.6511 -0.0738
vn -0.8190 -0.3318 -0.4682
vn -0.7633 -0.4702 -0.4430
vn -0.8141 -0.5012 -0.2933
vn -0.9846 0.1684 -0.0474
vn -0.9896 -0.1407 0.0310
vn -0.3215 0.7012 0.6364
vn -0.0606 -0.9685 0.2414
vn -0.7363 -0.6483 -0.1940
vn -0.4698 -0.8780 0.0912
vn 0.8018 0.0595 -0.5946
vn 0.9478 0.1367 -0.2882
vn 0.8128 0.4655 -0.3503
vn 0.6043 0.7604 -0.2381
vn 0.7908 -0.3908 -0.4711
vn 0.5339 -0.7866 -0.3100
vn 0.5559 0.8313 0.0010
vn 0.8427 0.4410 -0.3088
vn 0.6841 -0.6754 -0.2755
vn 0.7663 0.5899 0.2544
vn 0.9777 -0.1843 0.1005
vn 0.5425 -0.8095 0.2248
vn 0.7225 0.6895 -0.0503
vn 0.7607 -0.6491 -0.0006
vn 0.9643 0.0410 0.2616
vn 0.9765 0.2137 0.0281
vn 0.4872 -0.8650 0.1199
vn 0.9830 -0.1441 0.1139
vn 0.7751 0.5077 0.3761
vn 0.8158 -0.5535 -0.1676
vn 0.6070 0.7947 0.0024
vn 0.9417 0.3215 0.0989
vn 0.5426 -0.4440 0.7131
vn 0.5456 0.1682 0.8210
vn 0.8787 0.3825 0.2857
vn 0.5199 -0.8450 0.1253
vn 0.3161 -0.6720 -0.6697
vn 0.4466 0.0938 -0.8898
vn 0.2797 0.7276 -0.6264
vn 0.2015 0.9736 -0.1071
vn 0.2014 0.9736 -0.1071
vn 0.2013 0.9737 -0.1071
vn 0.1509 -0.9879 -0.0371
vn 0.1939 -0.9171 -0.3484
vn 0.2135 0.9710 -0.1071
vn 0.1385 -0.9903 -0.0086
vn 0.1849 0.9302 -0.3172
vn 0.2426 0.9152 0.3217
vn 0.5941 -0.8025 0.0542
vn 0.9279 0.2168 0.3032
vn 0.1998 -0.9685 0.1488
vn 0.6303 0.6301 -0.4536
vn 0.5075 0.8582 -0.0772
vn 0.7429 0.6648 0.0781
vn 0.9670 0.2048 0.1517
vn 0.9705 0.2242 0.0887
vn 0.3050 0.5941 0.7443
vn 0.7250 0.6429 0.2472
vn 0.3438 -0.1324 0.9297
vn 0.8877 0.4205 -0.1874
vn 0.4363 -0.3810 0.8152
vn 0.7323 0.3322 0.5945
vn 0.4766 -0.5096 0.7163
vn 0.8294 0.5543 -0.0696
vn 0.9321 0.3186 -0.1726
vn 0.9678 0.1000 0.2312
vn 0.9512 0.2934 -0.0957
vn 0.3252 0.5777 0.7486
vn 0.2387 0.1277 0.9627
vn 0.8830 0.4106 -0.2275
vn 0.8035 0.4924 -0.3345
vn 0.8704 0.4585 0.1792
vn 0.8425 0.4460 0.3021
vn 0.9546 -0.0890 0.2843
vn 0.6294 -0.3663 0.6854
vn 0.9584 -0.0253 0.2841
vn 0.9577 -0.0227 0.2870
vn 0.9576 -0.0224 0.2873
vn 0.6322 -0.7474 0.2044
vn 0.3451 -0.9055 0.2471
vn 0.8962 0.4281 -0.1162
vn 0.2129 0.9588 -0.1879
vn 0.5509 0.8143 -0.1828
vn 0.8201 0.5204 -0.2379
vn 0.6575 0.5813 0.4794
vn 0.6133 0.7899 -0.0054
vn -0.0218 -0.8585 -0.5124
vn -0.1341 -0.9880 0.0760
vn 0.6769 -0.7356 0.0261
vn 0.3883 -0.9213 -0.0197
vn 0.4571 -0.8889 0.0305
vn 0.4708 -0.8679 0.1585
vn 0.3632 -0.9247 -0.1139
vn 0.7556 0.6527 0.0557
vn -0.6688 -0.7293 0.1446
vn -0.5603 -0.8282 -0.0147
vn 0.3838 -0.7756 -0.5011
vn -0.6313 -0.7745 0.0404
vn 0.8823 0.3638 0.2988
vn 0.2159 0.8375 0.5020
vn 0.5954 0.7257 0.3447
vn 0.7824 0.5084 -0.3597
vn 0.9318 0.3038 -0.1985
vn 0.4551 -0.8051 -0.3804
vn 0.9600 0.2645 -0.0924
vn 0.8045 0.5795 0.1304
vn 0.2749 0.8379 0.4716
vn -0.5442 -0.8374 -0.0507
vn -0.3868 -0.9018 -0.1929
vn -0.4015 -0.8887 -0.2214
vn -0.1211 -0.9692 -0.2142
vn 0.8685 0.3595 -0.3412
vn 0.7138 0.6996 0.0332
vn 0.3693 0.8047 0.4649
vn -0.3901 -0.7577 0.5231
vn -0.3156 -0.9454 0.0812
vn -0.1839 -0.9629 -0.1974
vn 0.2357 -0.7911 -0.5645
vn 0.6485 0.2343 0.7242
vn 0.9443 -0.0173 0.3285
vn 0.9443 -0.0164 0.3288
vn 0.9446 -0.0201 0.3278
vn 0.7401 -0.6087 0.2857
vn 0.2093 -0.8455 0.4913
vn 0.0489 0.3563 0.9331
vn -0.3273 0.3057 0.8941
vn -0.7320 0.4124 0.5423
vn -0.4017 -0.9063 -0.1316
vn 0.8040 0.5912 0.0640
vn 0.2234 0.9642 -0.1431
vn 0.5038 0.8549 -0.1233
vn 0.7540 0.6444 -0.1273
vn 0.5801 -0.8007 -0.1497
vn 0.4251 -0.8928 -0.1493
vn 0.1716 -0.9746 -0.1438
vn 0.5763 -0.8172 -0.0054
vn 0.9756 0.1854 -0.1175
vn 0.9613 0.1571 0.2263
vn 0.7615 0.6282 0.1596
vn 0.6505 0.7565 0.0666
vn 0.9609 0.1543 -0.2300
vn 0.8960 0.4163 0.1548
vn 0.9685 -0.1711 0.1811
vn 0.9178 -0.1781 -0.3550
vn 0.9743 -0.0477 -0.2202
vn 0.9959 -0.0584 -0.0691
vn 0.9967 -0.0214 0.0786
vn 0.9874 0.0458 0.1515
vn 0.9687 0.0498 0.2431
vn 0.9502 0.0533 0.3071
vn 0.9575 -0.0220 0.2877
vn 0.9446 -0.0204 0.3277
vn 0.4348 -0.8872 0.1545
vn 0.4042 0.8716 0.2774
vn 0.4783 0.8670 0.1395
vn 0.4093 -0.5803 0.7041
vn 0.5676 0.7701 -0.2912
vn 0.9216 0.1005 -0.3748
vn 0.7575 0.6375 -0.1409
vn 0.4038 -0.4102 0.8178
vn 0.3388 0.5662 0.7514
vn 0.5264 0.7283 0.4388
vn 0.9684 0.1603 0.1913
vn 0.5328 0.8276 -0.1769
vn 0.4909 0.7730 -0.4018
vn 0.8345 0.5014 0.2284
vn 0.8984 0.0759 0.4325
vn 0.8873 0.4612 0.0074
vn 0.4923 0.8193 0.2939
vn 0.4900 0.8534 0.1777
vn 0.4343 0.8863 0.1606
vn 0.4671 0.8547 0.2265
vn 0.8160 0.5343 0.2205
vn 0.8021 0.5852 0.1187
vn 0.3633 0.8820 0.3002
vn 0.8269 0.4215 -0.3723
vn 0.8023 0.5638 -0.1959
vn 0.8173 0.4628 -0.3432
vn 0.8174 0.3722 -0.4397
vn 0.7362 0.6420 -0.2141
vn 0.5280 -0.3189 0.7871
vn 0.7588 0.2711 0.5922
vn 0.6959 -0.2336 0.6791
vn 0.5119 -0.1672 0.8427
vn 0.9549 -0.2258 -0.1929
vn 0.5306 0.1461 0.8349
vn 0.8423 -0.4766 0.2518
vn 0.5049 0.4873 0.7125
vn 0.4810 0.5225 0.7040
vn 0.5268 0.4565 0.7170
vn 0.9464 -0.2707 -0.1763
vn 0.9540 -0.1277 -0.2711
vn 0.9770 -0.1444 -0.1570
vn 0.9817 0.0637 -0.1792
vn 0.9372 0.2219 -0.2690
vn 0.8997 0.3083 -0.3089
vn 0.9103 0.3256 -0.2556
vn 0.7554 -0.6511 -0.0738
vn 0.8190 -0.3318 -0.4682
vn 0.7633 -0.4702 -0.4430
vn 0.8141 -0.5012 -0.2933
vn 0.9846 0.1684 -0.0474
vn 0.9896 -0.1407 0.0310
vn 0.3215 0.7012 0.6364
vn 0.0606 -0.9685 0.2415
vn 0.7363 -0.6483 -0.1940
vn 0.4698 -0.8780 0.0912
vt 0.104997 0.186972
vt 0.056450 0.205769
vt 0.054525 0.167244
vt 0.203335 0.176166
vt 0.190685 0.205704
vt 0.170353 0.250496
vt 0.087608 0.246319
vt 0.149370 0.285447
vt 0.082867 0.129352
vt 0.150536 0.144752
vt 0.191526 0.077804
vt 0.217770 0.111397
vt 0.357510 0.294866
vt 0.415744 0.297998
vt 0.429496 0.358528
vt 0.350233 0.342727
vt 0.215452 0.151069
vt 0.544383 0.239197
vt 0.554204 0.290321
vt 0.476488 0.298330
vt 0.468441 0.251854
vt 0.750370 0.187166
vt 0.699289 0.195400
vt 0.702655 0.145827
vt 0.753269 0.149613
vt 0.475446 0.129239
vt 0.442768 0.098565
vt 0.549112 0.097964
vt 0.547738 0.144459
vt 0.353937 0.241981
vt 0.296695 0.286623
vt 0.307824 0.231970
vt 0.287391 0.125177
vt 0.366985 0.121670
vt 0.332008 0.149316
vt 0.278948 0.153831
vt 0.548105 0.176729
vt 0.464829 0.207858
vt 0.319424 0.185305
vt 0.353664 0.201985
vt 0.806533 0.124344
vt 0.804760 0.150378
vt 0.761356 0.115876
vt 0.863184 0.151195
vt 0.861168 0.181558
vt 0.806593 0.183781
vt 0.626864 0.257074
vt 0.623409 0.211258
vt 0.979245 0.081922
vt 0.960067 0.056261
vt 0.986990 0.049751
vt 0.848675 0.228038
vt 0.810862 0.231086
vt 0.810550 0.211119
vt 0.856404 0.208747
vt 0.941407 0.235758
vt 0.968389 0.229777
vt 0.982042 0.255543
vt 0.961371 0.264696
vt 0.999119 0.056326
vt 0.999500 0.084856
vt 0.999068 0.311415
vt 0.989154 0.318433
vt 0.977578 0.292029
vt 0.408083 0.122905
vt 0.000500 0.155564
vt 0.043538 0.098568
vt 0.001762 0.213420
vt 0.045697 0.274549
vt 0.396183 0.387746
vt 0.343114 0.386723
vt 0.288380 0.054109
vt 0.277369 0.004176
vt 0.354785 0.000500
vt 0.356222 0.050837
vt 0.165907 0.031256
vt 0.280854 0.329821
vt 0.266791 0.376191
vt 0.435518 0.059471
vt 0.441604 0.011826
vt 0.123099 0.326986
vt 0.661296 0.289955
vt 0.601117 0.323393
vt 0.859525 0.128586
vt 0.726422 0.262673
vt 0.736639 0.259098
vt 0.744272 0.270778
vt 0.559694 0.047231
vt 0.475499 0.386610
vt 0.440395 0.408683
vt 0.414333 0.249385
vt 0.409397 0.204824
vt 0.816777 0.263097
vt 0.804530 0.246975
vt 0.847501 0.237303
vt 0.845542 0.259056
vt 0.542008 0.334407
vt 0.487573 0.339935
vt 0.569411 0.355180
vt 0.567117 0.390761
vt 0.543848 0.407558
vt 0.534502 0.369433
vt 0.565437 0.479789
vt 0.526886 0.464175
vt 0.558060 0.434181
vt 0.581891 0.462844
vt 0.577303 0.428306
vt 0.595991 0.468282
vt 0.587994 0.480849
vt 0.508431 0.418939
vt 0.480272 0.435737
vt 0.750781 0.216034
vt 0.705595 0.231139
vt 0.626670 0.145241
vt 0.994885 0.283234
vt 0.651761 0.083485
vt 0.193251 0.356634
vt 0.215461 0.312729
vt 0.233864 0.269558
vt 0.254160 0.222020
vt 0.859582 0.363219
vt 0.827623 0.368383
vt 0.841731 0.335074
vt 0.766314 0.367430
vt 0.717003 0.365513
vt 0.731164 0.334256
vt 0.779620 0.342473
vt 0.256436 0.430533
vt 0.207465 0.439866
vt 0.211596 0.403995
vt 0.231367 0.403391
vt 0.091397 0.433176
vt 0.097756 0.413654
vt 0.151068 0.409253
vt 0.160606 0.432082
vt 0.363629 0.089212
vt 0.300286 0.092209
vt 0.127972 0.329961
vt 0.126536 0.334472
vt 0.081767 0.325247
vt 0.084862 0.321095
vt 0.780424 0.284421
vt 0.823378 0.285200
vt 0.798990 0.314147
vt 0.751668 0.307363
vt 0.104947 0.359563
vt 0.108222 0.385678
vt 0.091235 0.382225
vt 0.085319 0.355952
vt 0.126850 0.359648
vt 0.141385 0.385397
vt 0.166762 0.357618
vt 0.173673 0.352750
vt 0.201243 0.374137
vt 0.194009 0.378011
vt 0.055147 0.332614
vt 0.876568 0.242942
vt 0.869424 0.252676
vt 0.841492 0.307809
vt 0.849720 0.281921
vt 0.678121 0.353306
vt 0.702782 0.325406
vt 0.732621 0.294886
vt 0.760336 0.272981
vt 0.086881 0.405641
vt 0.850483 0.330488
vt 0.879083 0.351604
vt 0.490083 0.164118
vt 0.501488 0.144915
vt 0.061290 0.430236
vt 0.851610 0.305645
vt 0.862697 0.281377
vt 0.878589 0.247241
vt 0.272311 0.182853
vt 0.362282 0.171459
vt 0.407066 0.180076
vt 0.464647 0.178621
vt 0.718575 0.107212
vt 0.691422 0.273805
vt 0.693057 0.257012
vt 0.700794 0.260690
vt 0.696186 0.271074
vt 0.750383 0.229983
vt 0.769708 0.242325
vt 0.762722 0.244131
vt 0.747686 0.241640
vt 0.749118 0.267570
vt 0.750875 0.275059
vt 0.706967 0.271977
vt 0.717327 0.257356
vt 0.722662 0.241909
vt 0.748574 0.278931
vt 0.738136 0.278069
vt 0.747881 0.259226
vt 0.739733 0.248655
vt 0.752179 0.251574
vt 0.720695 0.275164
vt 0.716176 0.235787
vt 0.903644 0.258513
vt 0.875539 0.235760
vt 0.903126 0.220064
vt 0.924079 0.244238
vt 0.961245 0.310560
vt 0.930895 0.288455
vt 0.944211 0.275691
vt 0.928094 0.204364
vt 0.957338 0.204760
vt 0.926013 0.184808
vt 0.951923 0.184287
vt 0.946760 0.129504
vt 0.923191 0.119645
vt 0.945070 0.096124
vt 0.961800 0.107846
vt 0.928505 0.160348
vt 0.954963 0.167757
vt 0.985672 0.114930
vt 0.971220 0.138757
vt 0.910034 0.143523
vt 0.897417 0.181548
vt 0.888823 0.122262
vt 0.906296 0.103294
vt 0.930452 0.076408
vt 0.056204 0.328374
s 1
usemtl Material_#2
f 24/1/1 4/2/1 3/3/1
f 151/4/2 28/5/2 24/1/2
f 24/1/3 25/6/3 9/7/3 4/2/3
f 25/6/4 11/8/4 9/7/4
f 24/1/5 3/3/5 8/9/5 26/10/5
f 26/10/6 8/9/6 5/11/6 27/12/6
f 29/13/7 147/14/7 7/15/7 6/16/7
f 28/5/8 25/6/8 24/1/8
f 26/10/9 27/12/9 136/17/9
f 30/18/10 13/19/10 68/20/10 69/21/10
f 16/22/11 163/23/11 164/24/11 12/25/11
f 34/26/12 100/27/12 1/28/12 32/29/12
f 31/30/13 29/13/13 139/31/13 140/32/13
f 141/33/14 101/34/14 109/35/14 145/36/14
f 157/37/15 30/18/15 69/21/15 156/38/15
f 31/30/16 140/32/16 153/39/16 154/40/16
f 150/41/17 149/42/17 12/25/17 201/43/17
f 15/44/18 36/45/18 148/46/18 149/42/18
f 14/47/19 13/19/19 30/18/19 89/48/19
f 39/49/20 58/50/20 59/51/20
f 18/52/21 57/53/21 17/54/21 37/55/21
f 17/54/22 148/46/22 36/45/22 37/55/22
f 178/56/23 181/57/23 86/58/23 38/59/23
f 60/60/24 61/61/24 39/49/24
f 183/62/25 22/63/25 88/64/25
f 100/27/26 34/26/26 123/65/26
f 8/9/27 3/3/27 41/66/27 46/67/27
f 3/3/28 4/2/28 42/68/28 41/66/28
f 4/2/29 9/7/29 47/69/29 42/68/29
f 6/16/30 7/15/31 45/70/31 44/71/32
f 143/72/33 144/73/33 48/74/33 10/75/33
f 5/11/34 8/9/34 46/67/34 43/76/34
f 138/77/35 6/16/30 44/71/32 137/78/35
f 35/79/36 10/75/36 48/74/36 63/80/36
f 9/7/37 11/8/37 49/81/37 47/69/37
f 13/19/38 14/47/38 52/82/38 51/83/38
f 149/42/39 150/41/39 53/84/39 15/44/39
f 171/85/40 159/86/40 158/87/40
f 1/28/41 35/79/41 63/80/41 40/88/41
f 7/15/42 81/89/42 65/90/42 45/70/42
f 6/16/43 138/77/43 139/31/43 29/13/43
f 29/13/44 31/30/44 146/91/44 147/14/44
f 31/30/45 154/40/45 155/92/45 146/91/45
f 97/93/46 102/94/46 111/95/46 112/96/46
f 13/19/47 51/83/47 75/97/47
f 2/98/48 68/20/48 13/19/48 75/97/48
f 64/99/49 78/100/49 79/101/49 76/102/49
f 72/103/50 67/104/50 77/105/50 80/106/50
f 77/105/51 79/101/51 78/100/51 71/107/51
f 73/108/52 74/109/52 80/106/52
f 80/106/53 77/105/53 71/107/53 73/108/53
f 80/106/54 74/109/54 72/103/54
f 79/101/55 77/105/55 82/110/55
f 2/98/56 75/97/56 76/102/56
f 81/89/57 76/102/57 79/101/57 82/110/57
f 75/97/58 51/83/58 64/99/58
f 76/102/59 75/97/59 64/99/59
f 67/104/60 66/111/60 82/110/60 77/105/60
f 66/111/61 65/90/61 81/89/61 82/110/61
f 16/22/62 85/112/62 162/113/62 163/23/62
f 14/47/63 89/48/63 163/23/63 162/113/63
f 90/114/64 164/24/64 163/23/64 89/48/64
f 88/64/65 38/59/65 86/58/65 23/115/65
f 89/48/66 30/18/66 157/37/67 90/114/68
f 90/114/69 32/29/69 1/28/69
f 1/28/70 40/88/70 91/116/70 90/114/70
f 7/15/71 2/98/71 81/89/71
f 92/117/72 49/81/72 11/8/72 93/118/72
f 93/118/73 11/8/73 25/6/73 94/119/73
f 94/119/74 25/6/74 28/5/74 95/120/74
f 131/121/75 70/122/75 127/123/75
f 114/124/76 33/125/76 125/126/76 126/127/76
f 109/128/77 101/129/77 130/130/77 124/131/77
f 34/132/78 128/133/78 129/134/78 123/135/78
f 99/136/79 101/34/79 141/33/79 142/137/79
f 10/75/80 99/136/80 142/137/80 143/72/80
f 99/136/81 10/75/81 35/79/81 100/27/81
f 100/27/82 35/79/82 1/28/82
f 102/138/83 98/139/83 110/140/83 111/141/83
f 117/142/84 118/143/84 113/144/84 104/145/84
f 120/146/85 106/147/85 134/148/85 135/149/85
f 106/147/86 120/146/86 121/150/86 122/151/86
f 115/152/87 116/153/87 108/154/87 107/155/87
f 110/140/88 120/146/88 135/149/88 200/156/88
f 103/157/89 96/158/89 112/96/89 111/95/89
f 105/159/90 113/144/90 118/143/90 119/160/90
f 70/122/91 114/124/91 126/127/91 127/123/91
f 33/125/92 109/161/92 124/162/92 125/126/92
f 104/145/93 108/163/93 116/164/93 117/142/93
f 98/139/94 102/138/94 116/153/94 115/152/94
f 102/94/95 97/93/95 117/142/95 116/164/95
f 97/93/96 112/96/96 118/143/96
f 112/96/97 96/158/97 119/160/97 118/143/97
f 120/146/98 110/140/98 121/150/98
f 98/139/99 115/152/99 121/150/99
f 115/152/100 107/155/100 122/151/100 121/150/100
f 130/130/101 101/129/101 123/135/101 129/134/101
f 108/163/102 104/145/102 125/126/102 124/162/102
f 104/145/103 113/144/103 126/127/103 125/126/103
f 113/144/104 105/159/104 127/123/104 126/127/104
f 106/147/105 128/133/105 132/165/105 134/148/105
f 128/133/106 106/147/106 122/151/106 129/134/106
f 129/134/107 122/151/107 107/155/107 130/130/107
f 107/155/108 108/154/108 124/131/108 130/130/108
f 127/123/109 132/166/109 133/167/109 131/121/109
f 32/29/110 131/168/111 133/169/112
f 133/169/113 34/26/113 32/29/113
f 132/165/114 128/133/114 34/132/114 133/170/114
f 127/123/115 105/159/115 134/171/115 132/166/115
f 105/159/116 119/160/116 135/172/116 134/171/116
f 135/172/117 119/160/117 96/158/117 200/173/117
f 121/150/118 110/140/118 98/139/118
f 118/143/119 117/142/119 97/93/119
f 137/78/120 92/117/120 93/118/120 138/77/120
f 138/77/121 93/118/121 94/119/121 139/31/121
f 139/31/122 94/119/122 95/120/122 140/32/122
f 141/33/123 27/12/123 142/137/123
f 27/12/124 5/11/124 143/72/124 142/137/124
f 5/11/125 43/76/125 144/73/125 143/72/125
f 101/34/126 99/136/126 100/27/126 123/65/126
f 140/32/127 95/120/127 152/174/127 153/39/127
f 156/38/128 69/21/128 146/91/128 155/92/128
f 69/21/129 68/20/129 147/14/129 146/91/129
f 68/20/130 2/98/130 7/15/130 147/14/130
f 95/120/131 28/5/131 151/4/131 152/174/131
f 17/54/132 85/112/132 16/22/132 148/46/132
f 16/22/133 12/25/133 149/42/133 148/46/133
f 26/10/134 136/17/134 151/4/134 24/1/134
f 136/17/135 145/36/135 152/174/135 151/4/135
f 145/36/136 109/35/136 153/39/136 152/174/136
f 153/39/137 109/35/137 33/175/137 154/40/137
f 154/40/138 33/175/138 114/176/138 155/92/138
f 155/92/139 114/176/139 70/177/139 156/38/139
f 156/38/140 70/177/140 131/168/140 157/37/140
f 157/37/67 32/29/141 90/114/68
f 131/168/111 32/29/110 157/37/142
f 164/24/143 90/114/143 91/116/143 50/178/143
f 173/179/144 174/180/144 166/181/144 165/182/144
f 176/183/145 177/184/145 169/185/145 168/186/145
f 161/187/146 160/188/146 158/87/146
f 54/189/147 165/182/147 166/181/147 172/190/147
f 172/190/148 166/181/148 167/191/148
f 158/87/149 182/192/149 87/193/149
f 158/87/150 159/86/150 84/194/150 161/187/150
f 170/195/151 56/196/151 84/194/151 159/86/151
f 168/186/152 169/185/152 56/196/152 170/195/152
f 171/85/153 172/190/153 170/195/153 159/86/153
f 171/85/154 158/87/154 87/193/154 83/197/154
f 172/190/155 171/85/155 83/197/155 54/189/155
f 170/195/156 172/190/156 167/191/156
f 167/191/157 168/186/157 170/195/157
f 76/102/158 81/89/158 2/98/158
f 174/180/159 14/47/159 162/113/159 175/198/159
f 17/54/160 57/53/160 177/184/160 176/183/160
f 174/180/161 175/198/161 167/191/161 166/181/161
f 168/186/162 167/191/162 175/198/162 176/183/162
f 176/183/163 175/198/163 162/113/163 85/112/163
f 176/183/164 85/112/164 17/54/164
f 174/180/165 173/179/165 52/82/165 14/47/165
f 19/199/166 180/200/166 193/201/166 194/202/166
f 88/64/167 22/63/167 21/203/167
f 21/203/168 20/204/168 195/205/168 88/64/168
f 20/204/169 19/199/169 194/202/169 195/205/169
f 180/200/170 18/52/170 37/55/170 193/201/170
f 178/56/171 179/206/171 62/207/171 181/57/171
f 158/87/172 160/188/172 182/192/172
f 88/64/173 23/115/173 183/62/173
f 62/207/174 179/206/174 188/208/174 189/209/174
f 186/210/175 197/211/175 198/212/175 184/213/175
f 185/214/176 192/215/176 189/209/176 188/208/176
f 39/49/177 59/51/177 60/60/177
f 39/49/178 61/61/178 190/216/178 184/213/178
f 184/213/179 190/216/179 191/217/179 186/210/179
f 186/210/180 191/217/180 192/215/180 185/214/180
f 39/49/181 184/213/181 198/212/181
f 197/211/182 186/210/182 185/214/182 196/218/182
f 196/218/183 185/214/183 188/208/183 199/219/183
f 188/208/184 179/206/184 193/201/184 199/219/184
f 179/206/185 178/56/185 194/202/185 193/201/185
f 178/56/186 38/59/186 195/205/186 194/202/186
f 195/205/187 38/59/187 88/64/187
f 15/44/188 53/84/188 55/220/188 196/218/188
f 196/218/189 55/220/189 187/221/189 197/211/189
f 197/211/190 187/221/190 339/222/190 198/212/190
f 339/222/191 58/50/191 39/49/191 198/212/191
f 37/55/192 36/45/192 199/219/192 193/201/192
f 199/219/193 36/45/193 15/44/193 196/218/193
f 96/158/194 103/157/194 200/173/194
f 103/223/195 111/141/195 110/140/195 200/156/195
f 145/36/196 136/17/196 27/12/196 141/33/196
f 12/25/197 164/24/197 50/178/197 201/43/197
f 202/1/198 204/3/198 203/2/198
f 205/4/199 202/1/199 206/5/199
f 202/1/200 203/2/200 208/7/200 207/6/200
f 207/6/201 208/7/201 209/8/201
f 211/9/202 204/3/202 202/1/202 210/10/202
f 213/11/203 211/9/203 210/10/203 212/12/203
f 214/13/204 217/16/204 216/15/204 215/14/204
f 206/5/205 202/1/205 207/6/205
f 210/10/206 218/17/206 212/12/206
f 219/18/207 222/21/207 221/20/207 220/19/207
f 226/24/208 225/23/208 224/22/208 223/25/208
f 227/26/209 230/29/209 229/28/209 228/27/209
f 231/30/210 233/32/210 232/31/210 214/13/210
f 234/33/211 237/36/211 236/35/211 235/34/211
f 238/37/212 239/38/212 222/21/212 219/18/212
f 231/30/213 241/40/213 240/39/213 233/32/213
f 223/25/214 242/42/214 150/41/214 201/43/214
f 245/46/215 244/45/215 243/44/215 242/42/215
f 246/47/216 247/48/216 219/18/216 220/19/216
f 248/49/217 59/51/217 58/50/217
f 250/54/218 57/53/218 18/52/218 249/55/218
f 244/45/219 245/46/219 250/54/219 249/55/219
f 86/58/220 181/57/220 252/56/220 251/59/220
f 60/60/221 248/49/221 61/61/221
f 183/62/222 253/64/222 22/63/222
f 228/27/223 254/65/223 227/26/223
f 211/9/224 46/67/224 41/66/224 204/3/224
f 204/3/225 41/66/225 42/68/225 203/2/225
f 203/2/226 42/68/226 47/69/226 208/7/226
f 217/16/227 44/71/228 45/70/229 216/15/229
f 48/74/230 144/73/230 256/72/230 255/75/230
f 213/11/231 43/76/231 46/67/231 211/9/231
f 257/77/232 137/78/232 44/71/228 217/16/227
f 258/79/233 63/80/233 48/74/233 255/75/233
f 208/7/234 47/69/234 49/81/234 209/8/234
f 220/19/235 51/83/235 52/82/235 246/47/235
f 53/84/236 150/41/236 242/42/236 243/44/236
f 259/85/237 261/87/237 260/86/237
f 229/28/238 40/88/238 63/80/238 258/79/238
f 65/90/239 262/89/239 216/15/239 45/70/239
f 217/16/240 214/13/240 232/31/240 257/77/240
f 263/91/241 231/30/241 214/13/241 215/14/241
f 264/92/242 241/40/242 231/30/242 263/91/242
f 268/95/243 267/94/243 266/93/243 265/96/243
f 220/19/244 269/97/244 51/83/244
f 220/19/245 221/20/245 270/98/245 269/97/245
f 64/99/246 272/102/246 271/101/246 78/100/246
f 72/103/247 274/106/247 273/105/247 67/104/247
f 273/105/248 71/107/248 78/100/248 271/101/248
f 73/108/249 274/106/249 74/109/249
f 274/106/250 73/108/250 71/107/250 273/105/250
f 274/106/251 72/103/251 74/109/251
f 271/101/252 275/110/252 273/105/252
f 270/98/253 272/102/253 269/97/253
f 262/89/254 275/110/254 271/101/254 272/102/254
f 269/97/255 64/99/255 51/83/255
f 272/102/256 64/99/256 269/97/256
f 275/110/257 66/111/257 67/104/257 273/105/257
f 262/89/258 65/90/258 66/111/258 275/110/258
f 277/113/259 276/112/259 224/22/259 225/23/259
f 246/47/260 277/113/260 225/23/260 247/48/260
f 225/23/261 226/24/261 278/114/261 247/48/261
f 253/64/262 23/115/262 86/58/262 251/59/262
f 247/48/263 278/114/264 238/37/265 219/18/263
f 278/114/266 229/28/266 230/29/266
f 229/28/267 278/114/267 91/116/267 40/88/267
f 216/15/268 262/89/268 270/98/268
f 92/117/269 279/118/269 209/8/269 49/81/269
f 279/118/270 280/119/270 207/6/270 209/8/270
f 280/119/271 281/120/271 206/5/271 207/6/271
f 282/121/272 284/123/272 283/122/272
f 285/124/273 288/127/273 287/126/273 286/125/273
f 236/128/274 290/131/274 289/130/274 235/129/274
f 292/134/275 291/133/275 227/132/275 254/135/275
f 234/33/276 235/34/276 294/136/276 293/137/276
f 293/137/277 294/136/277 255/75/277 256/72/277
f 294/136/278 228/27/278 258/79/278 255/75/278
f 228/27/279 229/28/279 258/79/279
f 267/138/280 268/141/280 296/140/280 295/139/280
f 300/144/281 299/143/281 298/142/281 297/145/281
f 304/148/282 303/147/282 302/146/282 301/149/282
f 303/147/283 306/151/283 305/150/283 302/146/283
f 310/154/284 309/153/284 308/152/284 307/155/284
f 296/140/285 311/156/285 301/149/285 302/146/285
f 265/96/286 313/158/286 312/157/286 268/95/286
f 299/143/287 300/144/287 315/159/287 314/160/287
f 288/127/288 285/124/288 283/122/288 284/123/288
f 286/125/289 287/126/289 290/162/289 236/161/289
f 297/145/290 298/142/290 309/164/290 310/163/290
f 309/153/291 267/138/291 295/139/291 308/152/291
f 298/142/292 266/93/292 267/94/292 309/164/292
f 266/93/293 299/143/293 265/96/293
f 314/160/294 313/158/294 265/96/294 299/143/294
f 302/146/295 305/150/295 296/140/295
f 295/139/296 305/150/296 308/152/296
f 306/151/297 307/155/297 308/152/297 305/150/297
f 289/130/298 292/134/298 254/135/298 235/129/298
f 287/126/299 297/145/299 310/163/299 290/162/299
f 288/127/300 300/144/300 297/145/300 287/126/300
f 284/123/301 315/159/301 300/144/301 288/127/301
f 316/165/302 291/133/302 303/147/302 304/148/302
f 291/133/303 292/134/303 306/151/303 303/147/303
f 292/134/304 289/130/304 307/155/304 306/151/304
f 290/131/305 310/154/305 307/155/305 289/130/305
f 284/123/306 282/121/306 317/167/306 316/166/306
f 230/29/307 317/169/308 282/168/309
f 317/169/310 230/29/310 227/26/310
f 227/132/311 291/133/311 316/165/311 317/170/311
f 304/171/312 315/159/312 284/123/312 316/166/312
f 301/172/313 314/160/313 315/159/313 304/171/313
f 301/172/314 311/173/314 313/158/314 314/160/314
f 305/150/315 295/139/315 296/140/315
f 299/143/316 266/93/316 298/142/316
f 137/78/317 257/77/317 279/118/317 92/117/317
f 257/77/318 232/31/318 280/119/318 279/118/318
f 232/31/319 233/32/319 281/120/319 280/119/319
f 234/33/320 293/137/320 212/12/320
f 256/72/321 213/11/321 212/12/321 293/137/321
f 144/73/322 43/76/322 213/11/322 256/72/322
f 228/27/323 294/136/323 235/34/323 254/65/323
f 318/174/324 281/120/324 233/32/324 240/39/324
f 239/38/325 264/92/325 263/91/325 222/21/325
f 215/14/326 221/20/326 222/21/326 263/91/326
f 216/15/327 270/98/327 221/20/327 215/14/327
f 205/4/328 206/5/328 281/120/328 318/174/328
f 250/54/329 245/46/329 224/22/329 276/112/329
f 242/42/330 223/25/330 224/22/330 245/46/330
f 205/4/331 218/17/331 210/10/331 202/1/331
f 318/174/332 237/36/332 218/17/332 205/4/332
f 240/39/333 236/35/333 237/36/333 318/174/333
f 240/39/334 241/40/334 286/175/334 236/35/334
f 241/40/335 264/92/335 285/176/335 286/175/335
f 264/92/336 239/38/336 283/177/336 285/176/336
f 239/38/337 238/37/337 282/168/337 283/177/337
f 238/37/265 278/114/264 230/29/338
f 282/168/309 238/37/339 230/29/307
f 226/24/340 50/178/340 91/116/340 278/114/340
f 320/181/341 319/180/341 173/179/341 165/182/341
f 321/183/342 322/186/342 169/185/342 177/184/342
f 161/187/343 261/87/343 160/188/343
f 54/189/344 323/190/344 320/181/344 165/182/344
f 323/190/345 324/191/345 320/181/345
f 261/87/346 87/193/346 182/192/346
f 261/87/347 161/187/347 84/194/347 260/86/347
f 84/194/348 56/196/348 325/195/348 260/86/348
f 56/196/349 169/185/349 322/186/349 325/195/349
f 325/195/350 323/190/350 259/85/350 260/86/350
f 259/85/351 83/197/351 87/193/351 261/87/351
f 323/190/352 54/189/352 83/197/352 259/85/352
f 325/195/353 324/191/353 323/190/353
f 324/191/354 325/195/354 322/186/354
f 272/102/355 270/98/355 262/89/355
f 319/180/356 326/198/356 277/113/356 246/47/356
f 250/54/357 321/183/357 177/184/357 57/53/357
f 319/180/358 320/181/358 324/191/358 326/198/358
f 322/186/359 321/183/359 326/198/359 324/191/359
f 321/183/360 276/112/360 277/113/360 326/198/360
f 321/183/361 250/54/361 276/112/361
f 319/180/362 246/47/362 52/82/362 173/179/362
f 328/201/363 180/200/363 19/199/363 327/202/363
f 253/64/364 21/203/364 22/63/364
f 329/205/365 20/204/365 21/203/365 253/64/365
f 327/202/366 19/199/366 20/204/366 329/205/366
f 180/200/367 328/201/367 249/55/367 18/52/367
f 252/56/368 181/57/368 62/207/368 330/206/368
f 261/87/369 182/192/369 160/188/369
f 253/64/370 183/62/370 23/115/370
f 331/208/371 330/206/371 62/207/371 189/209/371
f 335/212/372 334/211/372 333/210/372 332/213/372
f 189/209/373 192/215/373 336/214/373 331/208/373
f 248/49/374 60/60/374 59/51/374
f 190/216/375 61/61/375 248/49/375 332/213/375
f 191/217/376 190/216/376 332/213/376 333/210/376
f 192/215/377 191/217/377 333/210/377 336/214/377
f 248/49/378 335/212/378 332/213/378
f 334/211/379 337/218/379 336/214/379 333/210/379
f 337/218/380 338/219/380 331/208/380 336/214/380
f 328/201/381 330/206/381 331/208/381 338/219/381
f 327/202/382 252/56/382 330/206/382 328/201/382
f 329/205/383 251/59/383 252/56/383 327/202/383
f 329/205/384 253/64/384 251/59/384
f 243/44/385 337/218/385 55/220/385 53/84/385
f 337/218/386 334/211/386 187/221/386 55/220/386
f 334/211/387 335/212/387 339/222/387 187/221/387
f 248/49/388 58/50/388 339/222/388 335/212/388
f 338/219/389 244/45/389 249/55/389 328/201/389
f 338/219/390 337/218/390 243/44/390 244/45/390
f 313/158/391 311/173/391 312/157/391
f 296/140/392 268/141/392 312/223/392 311/156/392
f 212/12/393 218/17/393 237/36/393 234/33/393
f 223/25/394 201/43/394 50/178/394 226/24/394
