# Blender 4.0.2
# www.blender.org
mtllib snorlax.mtl
o snorlax
v 1.553781 22.098869 38.119335
v 9.561245 21.067093 36.400425
v 1.341914 28.887856 33.101349
v 1.341914 28.887856 33.101349
v 9.561245 21.067093 36.400425
v 9.727918 29.316988 30.186258
v 1.341914 28.887856 33.101349
v -6.576989 21.067093 36.835960
v 1.553781 22.098869 38.119335
v -7.281908 29.316988 30.647829
v -6.576989 21.067093 36.835960
v 1.341914 28.887856 33.101349
v -27.684834 -19.251198 -26.278021
v -31.588400 -15.201552 -22.683578
v -28.355049 -10.964727 -27.022203
v -24.269354 -17.374739 -29.462944
v -27.684834 -19.251198 -26.278021
v -28.355049 -10.964727 -27.022203
v -21.906244 -11.941773 -32.299969
v -24.269354 -17.374739 -29.462944
v -28.355049 -10.964727 -27.022203
v 1.553781 22.098869 38.119335
v 1.591661 15.346456 38.949368
v 9.561245 21.067093 36.400425
v 29.418610 -15.201552 -24.334476
v 25.221058 -19.251198 -27.709768
v 25.824179 -10.964727 -28.489111
v 1.553781 22.098869 38.119335
v -6.576989 21.067093 36.835960
v 1.591661 15.346456 38.949368
v 21.539415 -17.374739 -30.701569
v 25.824179 -10.964727 -28.489111
v 25.221058 -19.251198 -27.709768
v 21.539415 -17.374739 -30.701569
v 18.937531 -11.941773 -33.402084
v 25.824179 -10.964727 -28.489111
v -31.588400 -15.201552 -22.683578
v -33.092720 -10.489920 -20.629999
v -28.355049 -10.964727 -27.022203
v 1.341914 28.887856 33.101349
v 0.996769 31.882822 25.055048
v -7.281908 29.316988 30.647829
v 9.727918 29.316988 30.186258
v 0.996769 31.882822 25.055048
v 1.341914 28.887856 33.101349
v -7.281908 29.316988 30.647829
v -19.345896 28.915241 35.514244
v -6.576989 21.067093 36.835960
v 31.100096 -10.489920 -22.364899
v 29.418610 -15.201552 -24.334476
v 25.824179 -10.964727 -28.489111
v 9.561245 21.067093 36.400425
v 11.490649 15.976485 36.447449
v 19.626905 17.862085 29.123415
v 22.181767 28.915241 34.388378
v 9.727918 29.316988 30.186258
v 9.561245 21.067093 36.400425
v -33.092720 -10.489920 -20.629999
v -30.954235 -5.700654 -22.701378
v -28.355049 -10.964727 -27.022203
v -6.576989 21.067093 36.835960
v -17.245728 17.862085 30.123255
v -8.499557 15.976485 36.990288
v 28.788582 -5.700654 -24.317127
v 31.100096 -10.489920 -22.364899
v 25.824179 -10.964727 -28.489111
v -23.788624 -6.796391 -29.950085
v -21.906244 -11.941773 -32.299969
v -28.355049 -10.964727 -27.022203
v -28.355049 -10.964727 -27.022203
v -30.954235 -5.700654 -22.701378
v -27.384884 -3.376818 -26.055683
v 21.016670 -6.796391 -31.163153
v 25.824179 -10.964727 -28.489111
v 18.937531 -11.941773 -33.402084
v 9.500072 30.558847 24.707617
v 0.996769 31.882822 25.055048
v 9.727918 29.316988 30.186258
v 0.996769 31.882822 25.055048
v -7.518854 30.558847 25.169645
v -7.281908 29.316988 30.647829
v 24.941660 -3.376818 -27.467348
v 28.788582 -5.700654 -24.317127
v 25.824179 -10.964727 -28.489111
v -7.281908 29.316988 30.647829
v -7.518854 30.558847 25.169645
v -10.528015 29.184582 26.384989
v -19.066933 -20.981535 -22.686768
v -21.337824 -24.337191 -15.764047
v -28.129511 -15.909213 -18.866329
v 21.016670 -6.796391 -31.163153
v 24.941660 -3.376818 -27.467348
v 25.824179 -10.964727 -28.489111
v -21.337824 -24.337191 -15.764047
v -22.469612 -25.665779 -10.366207
v -31.489782 -19.671230 -4.943723
v 16.925009 -20.981535 -23.656031
v 26.296244 -15.909214 -20.337799
v 19.783957 -24.337191 -16.875751
v 1.591661 15.346456 38.949368
v 1.507672 9.000361 37.061043
v 11.490649 15.976485 36.447449
v 9.561245 21.067093 36.400425
v -16.926620 -16.119253 -26.808994
v -19.066933 -20.981535 -22.686768
v -28.129511 -15.909213 -18.866329
v 26.296244 -15.909214 -20.337799
v 30.836197 -19.671230 -6.631141
v 19.783957 -24.337191 -16.875751
v 30.836197 -19.671230 -6.631141
v 21.372309 -25.665779 -11.550058
v 19.783957 -24.337191 -16.875751
v 1.591661 15.346456 38.949368
v -8.499557 15.976485 36.990288
v 1.507672 9.000361 37.061043
v 1.591661 15.346456 38.949368
v -6.576989 21.067093 36.835960
v -15.838634 -12.631147 -29.003191
v -16.926620 -16.119253 -26.808994
v -28.129511 -15.909213 -18.866329
v -27.684834 -19.251198 -26.278021
v -30.556103 -16.726467 -19.151672
v -31.588400 -15.201552 -22.683578
v 29.418610 -15.201552 -24.334476
v 28.694056 -16.726467 -20.750071
v 25.221058 -19.251198 -27.709768
v 14.441814 -16.119253 -27.653166
v 26.296244 -15.909214 -20.337799
v 16.925009 -20.981535 -23.656031
v 17.265146 -15.872680 27.154741
v 16.879814 -24.218496 21.489836
v 28.188204 -23.519979 10.163182
v 13.165777 -12.631147 -29.787550
v 26.296244 -15.909214 -20.337799
v 14.441814 -16.119253 -27.653166
v -15.159752 -24.218496 22.357290
v -15.057476 -15.872680 28.027683
v -27.410442 -23.519979 11.666151
v 16.879814 -24.218496 21.489836
v 1.277082 -16.411406 31.637199
v 1.010006 -25.136152 25.438099
v 17.265146 -15.872680 27.154741
v 1.277082 -16.411406 31.637199
v 16.879814 -24.218496 21.489836
v 1.010006 -25.136152 25.438099
v 1.277082 -16.411406 31.637199
v -15.159752 -24.218496 22.357290
v -1.491910 -12.069609 -33.003517
v -1.380055 -16.735567 -30.458233
v -15.838634 -12.631147 -29.003191
v -1.380055 -16.735567 -30.458233
v -16.926620 -16.119253 -26.808994
v -15.838634 -12.631147 -29.003191
v 29.448305 -12.786366 14.591301
v 17.265146 -15.872680 27.154741
v 28.188204 -23.519979 10.163182
v -1.491910 -12.069609 -33.003517
v 13.165777 -12.631147 -29.787550
v -1.380055 -16.735567 -30.458233
v -1.380055 -16.735567 -30.458233
v 13.165777 -12.631147 -29.787550
v 14.441814 -16.119253 -27.653166
v 17.265146 -15.872680 27.154741
v 1.416324 -6.321579 34.839462
v 1.277082 -16.411406 31.637199
v -22.469612 -25.665779 -10.366207
v -21.572943 -26.610823 3.408015
v -31.489782 -19.671230 -4.943723
v -31.489782 -19.671230 -4.943723
v -27.410442 -23.519979 11.666151
v 21.372309 -25.665779 -11.550058
v 30.836197 -19.671230 -6.631141
v 21.662243 -26.610823 2.241068
v 28.188204 -23.519979 10.163182
v 30.836197 -19.671230 -6.631141
v 1.277082 -16.411406 31.637199
v 1.416324 -6.321579 34.839462
v -15.057476 -15.872680 28.027683
v -15.159752 -24.218496 22.357290
v 1.277082 -16.411406 31.637199
v -15.057476 -15.872680 28.027683
v -28.286604 -12.786366 16.150438
v -27.410442 -23.519979 11.666151
v 0.996769 31.882822 25.055048
v -6.872846 31.485647 17.385414
v -7.518854 30.558847 25.169645
v 14.718513 -5.408494 30.245169
v 1.416324 -6.321579 34.839462
v 17.265146 -15.872680 27.154741
v 8.188417 31.485647 16.978159
v 0.996769 31.882822 25.055048
v 9.500072 30.558847 24.707617
v 0.627896 32.713745 16.451756
v -6.872846 31.485647 17.385414
v 0.996769 31.882822 25.055048
v 0.627896 32.713745 16.451756
v 0.996769 31.882822 25.055048
v 8.188417 31.485647 16.978159
v 28.188204 -23.519979 10.163182
v 30.836197 -19.671230 -6.631141
v 33.000721 -7.631885 -1.416846
v -1.380055 -16.735567 -30.458233
v -1.133486 -23.077133 -24.706562
v -16.926620 -16.119253 -26.808994
v -16.926620 -16.119253 -26.808994
v -1.133486 -23.077133 -24.706562
v -19.066933 -20.981535 -22.686768
v -15.057476 -15.872680 28.027683
v 1.416324 -6.321579 34.839462
v -12.250124 -5.408494 30.971989
v -27.410442 -23.519979 11.666151
v -33.200005 -7.631885 0.369647
v -31.489782 -19.671230 -4.943723
v 14.441814 -16.119253 -27.653166
v 16.925009 -20.981535 -23.656031
v -1.133486 -23.077133 -24.706562
v -1.380055 -16.735567 -30.458233
v 14.441814 -16.119253 -27.653166
v -1.133486 -23.077133 -24.706562
v -24.269354 -17.374739 -29.462944
v -20.998602 -18.187420 -28.814180
v -27.684834 -19.251198 -26.278021
v 25.221058 -19.251198 -27.709768
v 18.329359 -18.187420 -29.876577
v 21.539415 -17.374739 -30.701569
v 29.448305 -12.786366 14.591301
v 28.188204 -23.519979 10.163182
v 33.000721 -7.631885 -1.416846
v 21.539415 -17.374739 -30.701569
v 18.329359 -18.187420 -29.876577
v 18.937531 -11.941773 -33.402084
v -21.906244 -11.941773 -32.299969
v -20.998602 -18.187420 -28.814180
v -24.269354 -17.374739 -29.462944
v 27.999630 -2.596092 17.844244
v 33.896954 -2.052797 5.664764
v 33.129032 3.905222 7.354467
v 25.287718 4.352644 20.113327
v 17.003990 26.522873 22.435812
v 9.500072 30.558847 24.707617
v 12.602365 29.184582 25.759966
v 12.602365 29.184582 25.759966
v 9.727918 29.316988 30.186258
v -32.491428 -3.723789 0.258249
v -33.490852 -2.052797 7.488235
v -32.974464 -0.235728 -0.364487
v -33.490852 -2.052797 7.488235
v -32.579117 3.905223 9.128182
v -32.974464 -0.235728 -0.364487
v 33.896954 -2.052797 5.664764
v 32.710827 -0.235728 -2.137745
v 33.129032 3.905222 7.354467
v 33.896954 -2.052797 5.664764
v 32.285786 -3.723789 -1.492171
v 32.710827 -0.235728 -2.137745
v 11.012184 4.156322 30.063911
v 1.416324 -6.321579 34.839462
v 14.718513 -5.408494 30.245169
v -31.489782 -19.671230 -4.943723
v -29.099720 -3.550326 -15.908776
v -28.129511 -15.909213 -18.866329
v -26.563103 -2.596092 19.320284
v -23.661224 4.352644 21.439154
v -32.579117 3.905223 9.128182
v -32.579117 3.905223 9.128182
v -33.490852 -2.052797 7.488235
v -32.579117 3.905223 9.128182
v -31.472408 6.722153 -0.649830
v -32.974464 -0.235728 -0.364487
v 1.342828 3.800205 33.128761
v 1.416324 -6.321579 34.839462
v 11.012184 4.156322 30.063911
v 25.221058 -19.251198 -27.709768
v 28.694056 -16.726467 -20.750071
v 23.724010 -20.620848 -25.318804
v -25.987370 -20.620848 -23.975616
v -30.556103 -16.726467 -19.151672
v -27.684834 -19.251198 -26.278021
v 31.191399 6.722153 -2.345019
v 33.129032 3.905222 7.354467
v 32.710827 -0.235728 -2.137745
v -6.872846 31.485647 17.385414
v -15.204033 26.522873 23.309189
v -7.518854 30.558847 25.169645
v 8.188417 31.485647 16.978159
v 9.500072 30.558847 24.707617
v 17.003990 26.522873 22.435812
v 31.100096 -10.489920 -22.364899
v 28.694056 -16.726467 -20.750071
v 29.418610 -15.201552 -24.334476
v -19.066933 -20.981535 -22.686768
v -0.823043 -27.108492 -17.376139
v -21.337824 -24.337191 -15.764047
v 30.836197 -19.671230 -6.631141
v 27.516594 -3.550326 -17.438231
v 33.000721 -7.631885 -1.416846
v -1.133486 -23.077133 -24.706562
v -0.823043 -27.108492 -17.376139
v -19.066933 -20.981535 -22.686768
v 1.416324 -6.321579 34.839462
v -8.567567 4.156322 30.592142
v -12.250124 -5.408494 30.971989
v -31.588400 -15.201552 -22.683578
v -30.556103 -16.726467 -19.151672
v -33.092720 -10.489920 -20.629999
v -1.133486 -23.077133 -24.706562
v 16.925009 -20.981535 -23.656031
v -0.823043 -27.108492 -17.376139
v 16.925009 -20.981535 -23.656031
v 19.783957 -24.337191 -16.875751
v -0.823043 -27.108492 -17.376139
v 1.342828 3.800205 33.128761
v -8.567567 4.156322 30.592142
v 1.416324 -6.321579 34.839462
v 26.296244 -15.909214 -20.337799
v 27.516594 -3.550326 -17.438231
v 30.836197 -19.671230 -6.631141
v 27.022627 -6.011137 16.942087
v 30.106634 -6.326152 10.023025
v 27.999630 -2.596092 17.844244
v 27.999630 -2.596092 17.844244
v 30.106634 -6.326152 10.023025
v 33.896954 -2.052797 5.664764
v 22.676210 -3.559423 21.986565
v 17.265146 -15.872680 27.154741
v 29.448305 -12.786366 14.591301
v 14.718513 -5.408494 30.245169
v 17.265146 -15.872680 27.154741
v 22.676210 -3.559423 21.986565
v -29.335274 -6.326152 11.628270
v -25.669176 -6.011137 18.361525
v -26.563103 -2.596092 19.320284
v -29.335274 -6.326152 11.628270
v -26.563103 -2.596092 19.320284
v -33.490852 -2.052797 7.488235
v 25.287718 4.352644 20.113327
v 22.676210 -3.559423 21.986565
v 27.999630 -2.596092 17.844244
v 22.676210 -3.559423 21.986565
v 29.448305 -12.786366 14.591301
v 27.022627 -6.011137 16.942087
v 29.448305 -12.786366 14.591301
v 33.000721 -7.631885 -1.416846
v 30.106634 -6.326152 10.023025
v -15.057476 -15.872680 28.027683
v -20.896368 -3.559423 23.165377
v -28.286604 -12.786366 16.150438
v -15.057476 -15.872680 28.027683
v -12.250124 -5.408494 30.971989
v -20.896368 -3.559423 23.165377
v -28.129511 -15.909213 -18.866329
v -21.337824 -24.337191 -15.764047
v -31.489782 -19.671230 -4.943723
v -0.556402 -28.039862 -11.181620
v -22.469612 -25.665779 -10.366207
v -0.823043 -27.108492 -17.376139
v -21.337824 -24.337191 -15.764047
v 28.188204 -23.519979 10.163182
v 16.879814 -24.218496 21.489836
v 12.074613 -27.049143 13.005236
v 12.074613 -27.049143 13.005236
v 21.662243 -26.610823 2.241068
v 28.188204 -23.519979 10.163182
v -11.092299 -27.049143 13.631629
v -15.159752 -24.218496 22.357290
v -27.410442 -23.519979 11.666151
v -27.410442 -23.519979 11.666151
v -21.572943 -26.610823 3.408015
v -11.092299 -27.049143 13.631629
v -20.998602 -18.187420 -28.814180
v -25.987370 -20.620848 -23.975616
v -27.684834 -19.251198 -26.278021
v 25.221058 -19.251198 -27.709768
v 23.724010 -20.620848 -25.318804
v 18.329359 -18.187420 -29.876577
v -20.896368 -3.559423 23.165377
v -23.661224 4.352644 21.439154
v -26.563103 -2.596092 19.320284
v -20.896368 -3.559423 23.165377
v -25.669176 -6.011137 18.361525
v -28.286604 -12.786366 16.150438
v 12.074613 -27.049143 13.005236
v 1.010006 -25.136152 25.438099
v 0.555270 -28.048960 14.759781
v 0.555270 -28.048960 14.759781
v 1.010006 -25.136152 25.438099
v -11.092299 -27.049143 13.631629
v 16.879814 -24.218496 21.489836
v 1.010006 -25.136152 25.438099
v 12.074613 -27.049143 13.005236
v 19.340193 1.147639 24.048811
v 22.676210 -3.559423 21.986565
v 25.287718 4.352644 20.113327
v -28.286604 -12.786366 16.150438
v -29.335274 -6.326152 11.628270
v -33.200005 -7.631885 0.369647
v -33.200005 -7.631885 0.369647
v -27.410442 -23.519979 11.666151
v -30.344278 -0.596416 -4.837345
v -29.099720 -3.550326 -15.908776
v -33.200005 -7.631885 0.369647
v -31.489782 -19.671230 -4.943723
v 1.010006 -25.136152 25.438099
v -15.159752 -24.218496 22.357290
v -11.092299 -27.049143 13.631629
v 22.676210 -3.559423 21.986565
v 27.022627 -6.011137 16.942087
v 27.999630 -2.596092 17.844244
v 30.861799 -10.028783 -18.459545
v 28.694056 -16.726467 -20.750071
v 31.100096 -10.489920 -22.364899
v -29.099720 -3.550326 -15.908776
v -17.140272 -0.829228 -25.988565
v -15.838634 -12.631147 -29.003191
v -30.556103 -16.726467 -19.151672
v -32.527958 -10.028783 -16.743816
v -33.092720 -10.489920 -20.629999
v -28.129511 -15.909213 -18.866329
v -29.099720 -3.550326 -15.908776
v -15.838634 -12.631147 -29.003191
v 11.490649 15.976485 36.447449
v 1.507672 9.000361 37.061043
v 12.122551 9.370150 33.734604
v 19.340193 1.147639 24.048811
v 14.718513 -5.408494 30.245169
v 22.676210 -3.559423 21.986565
v -20.896368 -3.559423 23.165377
v -17.395506 1.147639 25.039528
v -23.661224 4.352644 21.439154
v -25.669176 -6.011137 18.361525
v -20.896368 -3.559423 23.165377
v -26.563103 -2.596092 19.320284
v 14.725785 -0.829228 -26.850088
v 27.516594 -3.550326 -17.438231
v 13.165777 -12.631147 -29.787550
v 11.012184 4.156322 30.063911
v 14.718513 -5.408494 30.245169
v 19.340193 1.147639 24.048811
v -32.491428 -3.723789 0.258249
v -32.974464 -0.235728 -0.364487
v -30.344278 -0.596416 -4.837345
v -33.200005 -7.631885 0.369647
v -30.344278 -0.596416 -4.837345
v 33.000721 -7.631885 -1.416846
v 32.285786 -3.723789 -1.492171
v 30.106634 -6.326152 10.023025
v 13.165777 -12.631147 -29.787550
v 27.516594 -3.550326 -17.438231
v 26.296244 -15.909214 -20.337799
v -20.896368 -3.559423 23.165377
v -12.250124 -5.408494 30.971989
v -17.395506 1.147639 25.039528
v 27.022627 -6.011137 16.942087
v 29.448305 -12.786366 14.591301
v 30.106634 -6.326152 10.023025
v 19.783957 -24.337191 -16.875751
v 21.372309 -25.665779 -11.550058
v -0.556402 -28.039862 -11.181620
v -33.200005 -7.631885 0.369647
v -29.335274 -6.326152 11.628270
v -32.491428 -3.723789 0.258249
v 11.490649 15.976485 36.447449
v 12.122551 9.370150 33.734604
v 19.626905 17.862085 29.123415
v -12.250124 -5.408494 30.971989
v -8.567567 4.156322 30.592142
v -17.395506 1.147639 25.039528
v 33.000721 -7.631885 -1.416846
v 29.709459 -0.596416 -6.459485
v 32.285786 -3.723789 -1.492171
v -28.286604 -12.786366 16.150438
v -25.669176 -6.011137 18.361525
v -29.335274 -6.326152 11.628270
v -10.528015 29.184582 26.384989
v -19.345896 28.915241 35.514244
v -7.281908 29.316988 30.647829
v 12.602365 29.184582 25.759966
v 9.727918 29.316988 30.186258
v 22.181767 28.915241 34.388378
v -23.788624 -6.796391 -29.950085
v -28.355049 -10.964727 -27.022203
v -27.384884 -3.376818 -26.055683
v -20.154440 -5.522618 -28.838839
v -24.723175 -1.623665 -24.010321
v 27.516594 -3.550326 -17.438231
v 29.709459 -0.596416 -6.459485
v 33.000721 -7.631885 -1.416846
v -8.499557 15.976485 36.990288
v -17.245728 17.862085 30.123255
v -9.360611 9.370150 34.315800
v -0.823043 -27.108492 -17.376139
v 19.783957 -24.337191 -16.875751
v -0.556402 -28.039862 -11.181620
v 15.317498 -12.220258 -32.147022
v 18.937531 -11.941773 -33.402084
v 18.329359 -18.187420 -29.876577
v -17.140272 -0.829228 -25.988565
v -1.371826 0.823477 -30.221277
v -1.491910 -12.069609 -33.003517
v -15.838634 -12.631147 -29.003191
v -17.140272 -0.829228 -25.988565
v -1.491910 -12.069609 -33.003517
v -18.187157 -12.220257 -31.242134
v -20.998602 -18.187420 -28.814180
v -21.906244 -11.941773 -32.299969
v -1.371826 0.823477 -30.221277
v 14.725785 -0.829228 -26.850088
v -1.491910 -12.069609 -33.003517
v -1.491910 -12.069609 -33.003517
v 14.725785 -0.829228 -26.850088
v 13.165777 -12.631147 -29.787550
v 25.287718 4.352644 20.113327
v 33.129032 3.905222 7.354467
v 28.718699 8.520980 8.477122
v -22.469612 -25.665779 -10.366207
v -0.556402 -28.039862 -11.181620
v -21.572943 -26.610823 3.408015
v 21.372309 -25.665779 -11.550058
v 21.662243 -26.610823 2.241068
v -0.556402 -28.039862 -11.181620
v 11.012184 4.156322 30.063911
v 19.340193 1.147639 24.048811
v 18.788231 6.046451 21.587540
v -23.661224 4.352644 21.439154
v -28.084795 8.520980 10.012986
v -32.579117 3.905223 9.128182
v -11.092299 -27.049143 13.631629
v 0.053990 -28.245285 3.018579
v 0.555270 -28.048960 14.759781
v 0.555270 -28.048960 14.759781
v 0.053990 -28.245285 3.018579
v 12.074613 -27.049143 13.005236
v -10.528015 29.184582 26.384989
v -7.518854 30.558847 25.169645
v -15.204033 26.522873 23.309189
v -21.572943 -26.610823 3.408015
v -0.556402 -28.039862 -11.181620
v 0.053990 -28.245285 3.018579
v -11.092299 -27.049143 13.631629
v 0.053990 -28.245285 3.018579
v -0.556402 -28.039862 -11.181620
v 21.662243 -26.610823 2.241068
v 12.074613 -27.049143 13.005236
v -30.344278 -0.596416 -4.837345
v -25.404364 8.301840 -10.026083
v -29.099720 -3.550326 -15.908776
v -32.974464 -0.235728 -0.364487
v -31.472408 6.722153 -0.649830
v -30.344278 -0.596416 -4.837345
v 32.285786 -3.723789 -1.492171
v 29.709459 -0.596416 -6.459485
v 32.710827 -0.235728 -2.137745
v 27.516594 -3.550326 -17.438231
v 24.329874 8.301840 -11.369717
v 29.709459 -0.596416 -6.459485
v -8.567567 4.156322 30.592142
v -18.115011 11.662069 26.160822
v -17.053061 6.046452 22.555876
v -17.395506 1.147639 25.039528
v -8.567567 4.156322 30.592142
v 32.710827 -0.235728 -2.137745
v 29.709459 -0.596416 -6.459485
v 31.191399 6.722153 -2.345019
v 33.129032 3.905222 7.354467
v 31.191399 6.722153 -2.345019
v 28.718699 8.520980 8.477122
v -32.579117 3.905223 9.128182
v -28.084795 8.520980 10.012986
v -31.472408 6.722153 -0.649830
v 1.507672 9.000361 37.061043
v -9.360611 9.370150 34.315800
v 1.342828 3.800205 33.128761
v -8.499557 15.976485 36.990288
v -9.360611 9.370150 34.315800
v -29.099720 -3.550326 -15.908776
v -16.199322 10.237600 -18.798758
v -17.140272 -0.829228 -25.988565
v -17.013351 21.856915 25.131310
v -15.204033 26.522873 23.309189
v -18.209536 20.468979 19.782310
v -30.344278 -0.596416 -4.837345
v -26.172285 7.247205 -5.074749
v -25.404364 8.301840 -10.026083
v 30.106634 -6.326152 10.023025
v 32.285786 -3.723789 -1.492171
v 33.896954 -2.052797 5.664764
v -9.162459 29.212013 14.208252
v -15.204033 26.522873 23.309189
v -6.872846 31.485647 17.385414
v -29.335274 -6.326152 11.628270
v -33.490852 -2.052797 7.488235
v -32.491428 -3.723789 0.258249
v 18.788231 6.046451 21.587540
v 19.340193 1.147639 24.048811
v 25.287718 4.352644 20.113327
v -29.099720 -3.550326 -15.908776
v -25.404364 8.301840 -10.026083
v -16.199322 10.237600 -18.798758
v 14.725785 -0.829228 -26.850088
v 14.402541 10.237599 -19.625120
v 27.516594 -3.550326 -17.438231
v 10.198153 29.212013 13.687313
v 8.188417 31.485647 16.978159
v 17.003990 26.522873 22.435812
v -17.395506 1.147639 25.039528
v -17.053061 6.046452 22.555876
v -23.661224 4.352644 21.439154
v -31.472408 6.722153 -0.649830
v -28.084795 8.520980 10.012986
v -28.353222 9.388433 1.283210
v 28.240713 9.388433 -0.245329
v 28.718699 8.520980 8.477122
v 31.191399 6.722153 -2.345019
v 24.329874 8.301840 -11.369717
v 25.524229 7.247205 -6.473178
v 29.709459 -0.596416 -6.459485
v 23.895689 9.703448 -4.447453
v 25.524229 7.247205 -6.473178
v 19.626905 17.862085 29.123415
v 19.708153 20.468979 18.759634
v 18.969490 21.856915 24.157921
v 18.969490 21.856915 24.157921
v 17.003990 26.522873 22.435812
v -17.140272 -0.829228 -25.988565
v -1.085113 11.730555 -23.575222
v -1.371826 0.823477 -30.221277
v -9.360611 9.370150 34.315800
v -17.245728 17.862085 30.123255
v -18.115011 11.662069 26.160822
v -1.371826 0.823477 -30.221277
v -1.085113 11.730555 -23.575222
v 14.725785 -0.829228 -26.850088
v -17.245728 17.862085 30.123255
v -17.013351 21.856915 25.131310
v -18.209536 20.468979 19.782310
v -26.172285 7.247205 -5.074749
v -24.373459 9.703448 -3.140795
v -25.404364 8.301840 -10.026083
v -17.140272 -0.829228 -25.988565
v -16.199322 10.237600 -18.798758
v -1.085113 11.730555 -23.575222
v 0.300995 30.111423 8.797622
v -6.872846 31.485647 17.385414
v 0.627896 32.713745 16.451756
v 0.300995 30.111423 8.797622
v 0.627896 32.713745 16.451756
v 8.188417 31.485647 16.978159
v -1.085113 11.730555 -23.575222
v 14.402541 10.237599 -19.625120
v 14.725785 -0.829228 -26.850088
v 14.402541 10.237599 -19.625120
v 12.505139 15.579306 -9.198348
v 24.329874 8.301840 -11.369717
v 14.402541 10.237599 -19.625120
v 27.516594 -3.550326 -17.438231
v 20.718506 12.876495 -2.413040
v 21.921091 11.917737 0.367828
v 23.895689 9.703448 -4.447453
v -24.373459 9.703448 -3.140795
v -21.028730 12.876495 -1.289013
v -25.404364 8.301840 -10.026083
v 24.329874 8.301840 -11.369717
v 20.718506 12.876495 -2.413040
v 23.895689 9.703448 -4.447453
v 12.122551 9.370150 33.734604
v 11.012184 4.156322 30.063911
v 20.158794 11.662069 25.125824
v 19.626905 17.862085 29.123415
v 28.788582 -5.700654 -24.317127
v 30.861799 -10.028783 -18.459545
v 31.100096 -10.489920 -22.364899
v -33.092720 -10.489920 -20.629999
v -32.527958 -10.028783 -16.743816
v -30.954235 -5.700654 -22.701378
v 1.507672 9.000361 37.061043
v 1.342828 3.800205 33.128761
v 12.122551 9.370150 33.734604
v 19.758398 9.411250 16.665890
v 25.287718 4.352644 20.113327
v 28.718699 8.520980 8.477122
v 12.122551 9.370150 33.734604
v 1.342828 3.800205 33.128761
v 11.012184 4.156322 30.063911
v -23.661224 4.352644 21.439154
v -18.442390 9.411250 17.698145
v -28.084795 8.520980 10.012986
v -9.360611 9.370150 34.315800
v -8.567567 4.156322 30.592142
v 1.342828 3.800205 33.128761
v 18.788231 6.046451 21.587540
v 25.287718 4.352644 20.113327
v 19.758398 9.411250 16.665890
v -17.053061 6.046452 22.555876
v -18.442390 9.411250 17.698145
v -23.661224 4.352644 21.439154
v -9.162459 29.212013 14.208252
v -6.872846 31.485647 17.385414
v 0.300995 30.111423 8.797622
v 9.561245 21.067093 36.400425
v 19.626905 17.862085 29.123415
v 22.181767 28.915241 34.388378
v 27.849459 -4.061664 -20.729979
v 30.861799 -10.028783 -18.459545
v 28.788582 -5.700654 -24.317127
v -29.716034 -4.061664 -19.171768
v -30.954235 -5.700654 -22.701378
v -32.527958 -10.028783 -16.743816
v 10.198153 29.212013 13.687313
v 0.300995 30.111423 8.797622
v 8.188417 31.485647 16.978159
v -30.344278 -0.596416 -4.837345
v -31.472408 6.722153 -0.649830
v -26.172285 7.247205 -5.074749
v -6.576989 21.067093 36.835960
v -19.345896 28.915241 35.514244
v -17.245728 17.862085 30.123255
v -15.204033 26.522873 23.309189
v -19.345896 28.915241 35.514244
v -10.528015 29.184582 26.384989
v -25.404364 8.301840 -10.026083
v -13.418443 15.579306 -8.498447
v -16.199322 10.237600 -18.798758
v 20.158794 11.662069 25.125824
v 19.708153 20.468979 18.759634
v 19.626905 17.862085 29.123415
v -18.115011 11.662069 26.160822
v -18.209536 20.468979 19.782310
v -19.000273 15.428615 15.725830
v -17.245728 17.862085 30.123255
v -18.209536 20.468979 19.782310
v -18.115011 11.662069 26.160822
v 20.158794 11.662069 25.125824
v 20.145559 15.428615 14.664795
v 19.708153 20.468979 18.759634
v -25.404364 8.301840 -10.026083
v -21.028730 12.876495 -1.289013
v -13.418443 15.579306 -8.498447
v -26.172285 7.247205 -5.074749
v -28.353222 9.388433 1.283210
v -24.373459 9.703448 -3.140795
v 12.505139 15.579306 -9.198348
v 20.718506 12.876495 -2.413040
v 24.329874 8.301840 -11.369717
v 25.524229 7.247205 -6.473178
v 31.191399 6.722153 -2.345019
v 29.709459 -0.596416 -6.459485
v 28.240713 9.388433 -0.245329
v 25.524229 7.247205 -6.473178
v 23.895689 9.703448 -4.447453
v 28.240713 9.388433 -0.245329
v 25.524229 7.247205 -6.473178
v 11.012184 4.156322 30.063911
v 18.788231 6.046451 21.587540
v 20.158794 11.662069 25.125824
v -16.199322 10.237600 -18.798758
v -0.648664 17.346172 -13.298196
v -1.085113 11.730555 -23.575222
v -21.993891 11.917737 1.554412
v -18.076216 11.493132 11.965663
v -21.028730 12.876495 -1.289013
v -24.373459 9.703448 -3.140795
v -21.028730 12.876495 -1.289013
v -1.085113 11.730555 -23.575222
v -0.648664 17.346172 -13.298196
v 14.402541 10.237599 -19.625120
v 17.489771 -5.522618 -29.856495
v 21.016670 -6.796391 -31.163153
v 18.937531 -11.941773 -33.402084
v -20.154440 -5.522618 -28.838839
v -21.906244 -11.941773 -32.299969
v -23.788624 -6.796391 -29.950085
v 19.758398 9.411250 16.665890
v 21.209772 11.155302 8.250234
v 18.906008 11.493132 10.966717
v -20.610525 11.155302 9.382021
v -18.442390 9.411250 17.698145
v -18.076216 11.493132 11.965663
v -9.360611 9.370150 34.315800
v -18.115011 11.662069 26.160822
v -8.567567 4.156322 30.592142
v -11.036175 24.354258 8.704947
v -15.204033 26.522873 23.309189
v -9.162459 29.212013 14.208252
v 11.601590 24.354258 8.097275
v 10.198153 29.212013 13.687313
v 17.003990 26.522873 22.435812
v -21.028730 12.876495 -1.289013
v -18.076216 11.493132 11.965663
v -10.407931 15.994769 3.018119
v -11.111500 19.770458 4.847075
v -10.407931 15.994769 3.018119
v 20.718506 12.876495 -2.413040
v 10.486695 15.994769 2.457471
v 18.906008 11.493132 10.966717
v 11.343657 19.770458 4.241221
v 12.505139 15.579306 -9.198348
v 20.718506 12.876495 -2.413040
v -18.209536 20.468979 19.782310
v -15.204033 26.522873 23.309189
v -11.036175 24.354258 8.704947
v 18.906008 11.493132 10.966717
v 21.921091 11.917737 0.367828
v 20.718506 12.876495 -2.413040
v 21.921091 11.917737 0.367828
v 28.718699 8.520980 8.477122
v 28.240713 9.388433 -0.245329
v 19.708153 20.468979 18.759634
v 11.601590 24.354258 8.097275
v 17.003990 26.522873 22.435812
v -28.353222 9.388433 1.283210
v -28.084795 8.520980 10.012986
v -21.993891 11.917737 1.554412
v -31.472408 6.722153 -0.649830
v -28.353222 9.388433 1.283210
v -26.172285 7.247205 -5.074749
v 19.758398 9.411250 16.665890
v 28.718699 8.520980 8.477122
v 21.209772 11.155302 8.250234
v -28.084795 8.520980 10.012986
v -18.442390 9.411250 17.698145
v -20.610525 11.155302 9.382021
v -16.199322 10.237600 -18.798758
v -13.418443 15.579306 -8.498447
v -0.648664 17.346172 -13.298196
v -0.101710 18.072079 -0.511960
v -0.648664 17.346172 -13.298196
v -0.101710 18.072079 -0.511960
v 12.505139 15.579306 -9.198348
v 12.505139 15.579306 -9.198348
v 14.402541 10.237599 -19.625120
v -18.442390 9.411250 17.698145
v -18.115011 11.662069 26.160822
v -19.000273 15.428615 15.725830
v 20.158794 11.662069 25.125824
v 19.758398 9.411250 16.665890
v 20.145559 15.428615 14.664795
v -21.028730 12.876495 -1.289013
v -10.407931 15.994769 3.018119
v -13.418443 15.579306 -8.498447
v 21.209772 11.155302 8.250234
v 28.718699 8.520980 8.477122
v 21.921091 11.917737 0.367828
v -28.084795 8.520980 10.012986
v -20.610525 11.155302 9.382021
v -21.993891 11.917737 1.554412
v 18.969490 21.856915 24.157921
v 17.003990 26.522873 22.435812
v 22.181767 28.915241 34.388378
v 12.602365 29.184582 25.759966
v 22.181767 28.915241 34.388378
v -30.954235 -5.700654 -22.701378
v -29.716034 -4.061664 -19.171768
v -27.384884 -3.376818 -26.055683
v -28.353222 9.388433 1.283210
v -21.993891 11.917737 1.554412
v -24.373459 9.703448 -3.140795
v 24.941660 -3.376818 -27.467348
v 27.849459 -4.061664 -20.729979
v 28.788582 -5.700654 -24.317127
v 23.895689 9.703448 -4.447453
v 21.921091 11.917737 0.367828
v 28.240713 9.388433 -0.245329
v -0.101710 18.072079 -0.511960
v -0.045064 21.911686 0.714800
v 10.486695 15.994769 2.457471
v -0.101710 18.072079 -0.511960
v 12.505139 15.579306 -9.198348
v -11.036175 24.354258 8.704947
v -9.162459 29.212013 14.208252
v 0.300995 30.111423 8.797622
v 0.300995 30.111423 8.797622
v 10.198153 29.212013 13.687313
v 11.601590 24.354258 8.097275
v 15.317498 -12.220258 -32.147022
v 17.489771 -5.522618 -29.856495
v 18.937531 -11.941773 -33.402084
v -13.418443 15.579306 -8.498447
v -10.407931 15.994769 3.018119
v -0.101710 18.072079 -0.511960
v -18.187157 -12.220257 -31.242134
v -21.906244 -11.941773 -32.299969
v -20.154440 -5.522618 -28.838839
v 21.209772 11.155302 8.250234
v 21.921091 11.917737 0.367828
v 18.906008 11.493132 10.966717
v -20.610525 11.155302 9.382021
v -18.076216 11.493132 11.965663
v -21.993891 11.917737 1.554412
v -17.053061 6.046452 22.555876
v -18.115011 11.662069 26.160822
v -18.442390 9.411250 17.698145
v 18.788231 6.046451 21.587540
v 19.758398 9.411250 16.665890
v 20.158794 11.662069 25.125824
v 17.489771 -5.522618 -29.856495
v 24.941660 -3.376818 -27.467348
v 21.016670 -6.796391 -31.163153
v -20.154440 -5.522618 -28.838839
v -23.788624 -6.796391 -29.950085
v -27.384884 -3.376818 -26.055683
v -18.209536 20.468979 19.782310
v -11.036175 24.354258 8.704947
v -19.000273 15.428615 15.725830
v 19.708153 20.468979 18.759634
v 20.145559 15.428615 14.664795
v 11.601590 24.354258 8.097275
v 0.090041 25.924801 3.921635
v 0.300995 30.111423 8.797622
v 11.601590 24.354258 8.097275
v -18.442390 9.411250 17.698145
v -19.000273 15.428615 15.725830
v -18.076216 11.493132 11.965663
v 20.145559 15.428615 14.664795
v 19.758398 9.411250 16.665890
v 18.906008 11.493132 10.966717
v 17.489771 -5.522618 -29.856495
v 22.459816 -1.623665 -25.288219
v 24.941660 -3.376818 -27.467348
v -11.111500 19.770458 4.847075
v -11.036175 24.354258 8.704947
v 0.090041 25.924801 3.921635
v -11.036175 24.354258 8.704947
v 0.300995 30.111423 8.797622
v 20.145559 15.428615 14.664795
v 11.343657 19.770458 4.241221
v 11.601590 24.354258 8.097275
v -18.076216 11.493132 11.965663
v -19.000273 15.428615 15.725830
v -11.111500 19.770458 4.847075
v -11.036175 24.354258 8.704947
v -11.111500 19.770458 4.847075
v -29.716034 -4.061664 -19.171768
v -24.723175 -1.623665 -24.010321
v -27.384884 -3.376818 -26.055683
v 22.459816 -1.623665 -25.288219
v 27.849459 -4.061664 -20.729979
v 24.941660 -3.376818 -27.467348
v 11.343657 19.770458 4.241221
v 0.090041 25.924801 3.921635
v 11.601590 24.354258 8.097275
v -11.111500 19.770458 4.847075
v 0.090041 25.924801 3.921635
v -0.045064 21.911686 0.714800
v -0.045064 21.911686 0.714800
v 0.090041 25.924801 3.921635
v 11.343657 19.770458 4.241221
v 20.145559 15.428615 14.664795
v 18.906008 11.493132 10.966717
v 11.343657 19.770458 4.241221
v -17.013351 21.856915 25.131310
v -19.345896 28.915241 35.514244
v -15.204033 26.522873 23.309189
v -17.245728 17.862085 30.123255
v -19.345896 28.915241 35.514244
v -17.013351 21.856915 25.131310
v 19.626905 17.862085 29.123415
v 18.969490 21.856915 24.157921
v 22.181767 28.915241 34.388378
v 27.073744 -16.027905 -18.875462
v 28.694056 -16.726467 -20.750071
v 28.952467 -9.974009 -16.876211
v -28.780569 -16.027905 -17.367922
v -30.484434 -9.974009 -15.270964
v -30.556103 -16.726467 -19.151672
v 28.694056 -16.726467 -20.750071
v 27.073744 -16.027905 -18.875462
v 23.724010 -20.620848 -25.318804
v -25.987370 -20.620848 -23.975616
v -28.780569 -16.027905 -17.367922
v -30.556103 -16.726467 -19.151672
v 30.861799 -10.028783 -18.459545
v 28.952467 -9.974009 -16.876211
v 28.694056 -16.726467 -20.750071
v -30.556103 -16.726467 -19.151672
v -30.484434 -9.974009 -15.270964
v -32.527958 -10.028783 -16.743816
v 23.724010 -20.620848 -25.318804
v 27.073744 -16.027905 -18.875462
v 22.561613 -19.452093 -23.016859
v -24.634613 -19.452093 -21.738503
v -28.780569 -16.027905 -17.367922
v -25.987370 -20.620848 -23.975616
v -11.111500 19.770458 4.847075
v -0.045064 21.911686 0.714800
v -10.407931 15.994769 3.018119
v 11.343657 19.770458 4.241221
v 10.486695 15.994769 2.457471
v -0.045064 21.911686 0.714800
v -10.407931 15.994769 3.018119
v -0.045064 21.911686 0.714800
v -0.101710 18.072079 -0.511960
v 17.684744 -17.351923 -27.145475
v 18.329359 -18.187420 -29.876577
v 22.561613 -19.452093 -23.016859
v -20.123396 -17.351923 -26.121885
v -24.634613 -19.452093 -21.738503
v -20.998602 -18.187420 -28.814180
v 26.311310 -4.554715 -18.858114
v 28.952467 -9.974009 -16.876211
v 27.849459 -4.061664 -20.729979
v -29.716034 -4.061664 -19.171768
v -30.484434 -9.974009 -15.270964
v -28.018570 -4.554715 -17.390291
v 18.329359 -18.187420 -29.876577
v 23.724010 -20.620848 -25.318804
v 22.561613 -19.452093 -23.016859
v -20.998602 -18.187420 -28.814180
v -24.634613 -19.452093 -21.738503
v -25.987370 -20.620848 -23.975616
v 27.849459 -4.061664 -20.729979
v 28.952467 -9.974009 -16.876211
v 30.861799 -10.028783 -18.459545
v -29.716034 -4.061664 -19.171768
v -32.527958 -10.028783 -16.743816
v -30.484434 -9.974009 -15.270964
v 17.684744 -17.351923 -27.145475
v 15.044022 -11.932630 -29.122351
v 18.329359 -18.187420 -29.876577
v -20.123396 -17.351923 -26.121885
v -20.998602 -18.187420 -28.814180
v -17.653004 -11.932630 -28.241203
v -17.653004 -11.932630 -28.241203
v -20.998602 -18.187420 -28.814180
v -18.187157 -12.220257 -31.242134
v 15.044022 -11.932630 -29.122351
v 15.317498 -12.220258 -32.147022
v 18.329359 -18.187420 -29.876577
v 22.459816 -1.623665 -25.288219
v 26.311310 -4.554715 -18.858114
v 27.849459 -4.061664 -20.729979
v -29.716034 -4.061664 -19.171768
v -28.018570 -4.554715 -17.390291
v -24.723175 -1.623665 -24.010321
v 21.434397 -2.454589 -22.986731
v 26.311310 -4.554715 -18.858114
v 22.459816 -1.623665 -25.288219
v -23.502825 -2.454589 -21.769102
v -24.723175 -1.623665 -24.010321
v -28.018570 -4.554715 -17.390291
v -18.187157 -12.220257 -31.242134
v -20.154440 -5.522618 -28.838839
v -19.356869 -5.878734 -26.144255
v 15.317498 -12.220258 -32.147022
v 16.922745 -5.878734 -27.123108
v 17.489771 -5.522618 -29.856495
v 16.922745 -5.878734 -27.123108
v 21.434397 -2.454589 -22.986731
v 17.489771 -5.522618 -29.856495
v -19.356869 -5.878734 -26.144255
v -20.154440 -5.522618 -28.838839
v -23.502825 -2.454589 -21.769102
v -17.653004 -11.932630 -28.241203
v -18.187157 -12.220257 -31.242134
v -19.356869 -5.878734 -26.144255
v 15.044022 -11.932630 -29.122351
v 16.922745 -5.878734 -27.123108
v 15.317498 -12.220258 -32.147022
v 17.489771 -5.522618 -29.856495
v 21.434397 -2.454589 -22.986731
v 22.459816 -1.623665 -25.288219
v -23.502825 -2.454589 -21.769102
v -20.154440 -5.522618 -28.838839
v -24.723175 -1.623665 -24.010321
v 27.073744 -16.027905 -18.875462
v 20.527233 -11.142807 -21.629848
v 22.561613 -19.452093 -23.016859
v 22.561613 -19.452093 -23.016859
v 17.684744 -17.351923 -27.145475
v -30.484434 -9.974009 -15.270964
v -28.780569 -16.027905 -17.367922
v -22.484241 -11.142807 -20.466091
v -24.634613 -19.452093 -21.738503
v -20.123396 -17.351923 -26.121885
v -17.653004 -11.932630 -28.241203
v -22.484241 -11.142807 -20.466091
v -24.634613 -19.452093 -21.738503
v -20.123396 -17.351923 -26.121885
v 26.311310 -4.554715 -18.858114
v 20.527233 -11.142807 -21.629848
v 28.952467 -9.974009 -16.876211
v 15.044022 -11.932630 -29.122351
v 20.527233 -11.142807 -21.629848
v 16.922745 -5.878734 -27.123108
v 21.434397 -2.454589 -22.986731
v 20.527233 -11.142807 -21.629848
v 26.311310 -4.554715 -18.858114
v 28.952467 -9.974009 -16.876211
v 27.073744 -16.027905 -18.875462
v 16.922745 -5.878734 -27.123108
v 20.527233 -11.142807 -21.629848
v 21.434397 -2.454589 -22.986731
v 17.684744 -17.351923 -27.145475
v 15.044022 -11.932630 -29.122351
v -23.502825 -2.454589 -21.769102
v -28.018570 -4.554715 -17.390291
v -22.484241 -11.142807 -20.466091
v -28.018570 -4.554715 -17.390291
v -30.484434 -9.974009 -15.270964
v -22.484241 -11.142807 -20.466091
v -19.356869 -5.878734 -26.144255
v -23.502825 -2.454589 -21.769102
v -22.484241 -11.142807 -20.466091
v -17.653004 -11.932630 -28.241203
vn 0.0237 0.3862 0.9221
vn 0.2747 0.2590 0.9260
vn 0.0158 0.7746 0.6323
vn 0.2746 0.2590 0.9260
vn 0.0788 0.8901 0.4490
vn -0.2286 0.2601 0.9381
vn -0.0552 0.8915 0.4497
vn -0.5518 -0.6700 -0.4966
vn -0.8953 -0.3377 -0.2906
vn -0.7068 0.0314 -0.7068
vn -0.3145 -0.4953 -0.8098
vn -0.1182 -0.0079 -0.9930
vn 0.0236 0.3862 0.9221
vn 0.0237 -0.0948 0.9952
vn 0.8654 -0.3383 -0.3698
vn 0.5269 -0.6606 -0.5348
vn 0.6621 0.0315 -0.7488
vn -0.2286 0.2602 0.9381
vn 0.2602 -0.4968 -0.8280
vn 0.0707 -0.0079 -0.9975
vn -0.9867 0.0394 -0.1579
vn 0.0078 0.9806 0.1961
vn -0.6534 0.5352 0.5353
vn 0.9708 0.0395 -0.2368
vn 0.4809 -0.0552 0.8750
vn 0.9002 -0.1658 0.4027
vn 0.6870 0.5370 0.4896
vn -0.9867 0.0395 -0.1579
vn -0.8368 0.4579 -0.3000
vn -0.8658 -0.1653 0.4723
vn -0.4244 -0.0550 0.9038
vn 0.8126 0.4497 -0.3708
vn -0.2765 0.4424 -0.8531
vn -0.7068 0.0314 -0.7067
vn -0.8369 0.4579 -0.3000
vn -0.4966 0.6700 -0.5518
vn 0.2287 0.4417 -0.8675
vn 0.0707 -0.0078 -0.9975
vn 0.2978 0.9483 0.1097
vn 0.0079 0.9805 0.1961
vn -0.2920 0.9470 0.1342
vn 0.4576 0.6706 -0.5838
vn -0.3063 0.9503 -0.0550
vn -0.3629 -0.6706 -0.6470
vn -0.3948 -0.8369 -0.3790
vn -0.7921 -0.2667 -0.5490
vn 0.2287 0.4416 -0.8675
vn -0.3948 -0.8370 -0.3790
vn -0.3950 -0.9005 -0.1817
vn -0.8718 -0.4791 -0.1021
vn 0.3228 -0.6693 -0.6693
vn 0.7555 -0.2676 -0.5981
vn 0.3687 -0.8314 -0.4157
vn 0.0236 -0.4565 0.8894
vn 0.4809 -0.0552 0.8751
vn -0.3705 -0.4651 -0.8040
vn 0.8615 -0.4742 -0.1818
vn 0.3785 -0.8989 -0.2208
vn 0.3686 -0.8314 -0.4157
vn -0.4186 -0.1185 -0.9004
vn -0.6386 -0.6701 0.3784
vn 0.8654 -0.3383 -0.3697
vn 0.6613 -0.6771 0.3228
vn 0.3152 -0.4649 -0.8274
vn 0.3228 -0.6692 -0.6693
vn 0.5179 -0.3217 0.7926
vn 0.3628 -0.7729 0.5205
vn 0.6999 -0.6684 0.2516
vn 0.3633 -0.1185 -0.9241
vn -0.3383 -0.7631 0.5507
vn -0.4649 -0.3152 0.8274
vn -0.6847 -0.6611 0.3069
vn 0.0236 -0.4408 0.8973
vn 0.0157 -0.8083 0.5886
vn 0.5179 -0.3218 0.7926
vn 0.0157 -0.8083 0.5885
vn -0.0236 -0.1260 -0.9918
vn -0.0236 -0.5744 -0.8183
vn -0.0236 -0.5744 -0.8182
vn 0.8833 -0.1025 0.4574
vn 0.6999 -0.6684 0.2517
vn -0.0236 -0.1259 -0.9918
vn 0.0236 -0.0629 0.9977
vn -0.2996 -0.9539 0.0158
vn 0.8614 -0.4742 -0.1818
vn 0.2996 -0.9541 -0.0000
vn 0.0235 -0.0629 0.9977
vn -0.8431 -0.1024 0.5279
vn 0.0078 0.9805 0.1961
vn -0.3469 0.9304 -0.1183
vn 0.5177 0.0314 0.8550
vn 0.3319 0.9325 -0.1422
vn -0.0079 0.9920 -0.1260
vn 0.0079 0.9806 0.1961
vn 0.9987 0.0315 -0.0393
vn -0.0158 -0.7815 -0.6237
vn -0.3629 -0.6706 -0.6469
vn -0.4658 0.0316 0.8843
vn -0.9987 0.0315 0.0393
vn 0.3228 -0.6692 -0.6692
vn 0.4476 -0.7695 -0.4555
vn -0.4726 -0.7719 -0.4253
vn 0.2602 -0.4968 -0.8279
vn 0.9987 0.0314 -0.0393
vn 0.4476 -0.7696 -0.4554
vn 0.7844 -0.1412 0.6040
vn 0.9622 -0.2524 0.1025
vn 0.9111 0.3534 0.2121
vn 0.5901 0.4406 0.6766
vn 0.6992 0.6599 -0.2750
vn 0.3081 0.9481 -0.0790
vn 0.0787 0.8901 0.4490
vn -0.9903 -0.0393 -0.1336
vn -0.9508 -0.2515 0.1807
vn -0.9539 0.0158 -0.2996
vn -0.8908 0.3547 0.2838
vn 0.9289 0.0157 -0.3700
vn 0.9763 -0.0394 -0.2126
vn 0.5255 -0.1804 0.8314
vn -0.8463 0.2351 -0.4780
vn -0.7420 -0.1421 0.6552
vn -0.5499 0.4320 0.7148
vn -0.8909 0.3547 0.2838
vn -0.9509 -0.2515 0.1807
vn -0.7787 0.5427 -0.3147
vn 0.0236 -0.2517 0.9675
vn 0.6614 -0.6771 0.3228
vn 0.0707 -0.9970 0.0314
vn -0.0706 -0.9970 0.0314
vn 0.7489 0.5440 -0.3784
vn 0.9111 0.3535 0.2121
vn -0.7179 0.6627 -0.2130
vn 0.3319 0.9325 -0.1423
vn 0.9708 0.0395 -0.2367
vn -0.0079 -0.9487 -0.3162
vn 0.8075 0.2352 -0.5410
vn -0.4742 -0.1818 0.8615
vn 0.3228 -0.6693 -0.6692
vn 0.7554 -0.2676 -0.5981
vn 0.8172 -0.1100 0.5658
vn 0.9383 -0.1419 0.3154
vn 0.6707 -0.0079 0.7417
vn 0.5180 -0.3217 0.7926
vn -0.9119 -0.1415 0.3852
vn -0.7738 -0.1105 0.6238
vn 0.5900 0.4406 0.6766
vn -0.6199 -0.0079 0.7846
vn -0.8431 -0.1025 0.5279
vn -0.6199 -0.0078 0.7847
vn -0.7921 -0.2666 -0.5490
vn -0.0079 -0.9947 -0.1026
vn 0.6999 -0.6685 0.2516
vn 0.1422 -0.9796 0.1422
vn -0.1341 -0.9783 0.1578
vn -0.6847 -0.6611 0.3070
vn 0.4476 -0.7696 -0.4555
vn 0.5269 -0.6606 -0.5347
vn -0.6199 -0.0078 0.7846
vn -0.7730 -0.1111 0.6246
vn 0.0078 -0.9888 0.1491
vn 0.3628 -0.7729 0.5206
vn 0.5855 0.2611 0.7675
vn -0.9082 0.2448 -0.3396
vn -0.9987 0.0314 0.0393
vn 0.8172 -0.1100 0.5657
vn 0.8825 0.0709 0.4649
vn -0.4796 0.3380 -0.8098
vn -0.8419 0.0708 0.5350
vn 0.5107 -0.4400 0.7386
vn -0.5300 0.2611 0.8068
vn -0.6199 -0.0079 0.7847
vn 0.4252 0.3307 -0.8425
vn 0.3633 -0.1184 -0.9241
vn 0.9764 -0.0394 -0.2126
vn 0.8075 0.2352 -0.5409
vn -0.5300 0.2610 0.8068
vn -0.4659 0.0316 0.8843
vn 0.9987 0.0314 -0.0394
vn 0.8797 0.2435 -0.4084
vn -0.7738 -0.1106 0.6237
vn -0.6534 0.5353 0.5353
vn -0.2765 0.4424 -0.8532
vn 0.5047 0.6703 -0.5441
vn 0.0550 0.9905 -0.1258
vn 0.8797 0.2435 -0.4085
vn -0.4648 -0.4333 0.7721
vn -0.7792 -0.0787 -0.6218
vn -0.4725 -0.7719 -0.4253
vn -0.0235 0.3767 -0.9260
vn -0.4796 0.3381 -0.8098
vn 0.7319 -0.0787 -0.6768
vn -0.0236 0.3767 -0.9260
vn 0.5588 0.7949 0.2361
vn 0.5256 -0.1804 0.8314
vn 0.7389 0.1965 0.6446
vn -0.5499 0.4321 0.7148
vn -0.5512 0.7875 0.2756
vn -0.8908 0.3548 0.2838
vn -0.0000 -1.0000 0.0079
vn 0.0079 -0.9888 0.1491
vn -0.7163 0.6376 -0.2834
vn -0.7787 0.5428 -0.3146
vn 0.9289 0.0158 -0.3700
vn 0.6999 0.6291 -0.3382
vn -0.8983 -0.2364 0.3703
vn -0.6905 0.1883 0.6983
vn -0.6905 0.1883 0.6984
vn 0.7490 0.5440 -0.3784
vn 0.5588 0.7950 0.2361
vn -0.5513 0.7875 0.2756
vn -0.7787 0.5427 -0.3146
vn -0.4331 0.7008 -0.5669
vn -0.9782 0.2051 -0.0316
vn -0.9320 0.3476 -0.1027
vn -0.7639 0.5907 -0.2599
vn 0.9383 -0.1419 0.3153
vn -0.5277 0.7719 -0.3544
vn -0.9508 -0.2514 0.1807
vn -0.4330 0.7008 -0.5669
vn 0.4017 0.6931 -0.5986
vn 0.5028 0.7700 -0.3928
vn -0.5125 0.8516 -0.1104
vn 0.5040 0.8506 -0.1496
vn 0.7468 0.5817 -0.3223
vn 0.6999 0.6291 -0.3381
vn 0.5967 0.7695 -0.2277
vn 0.9206 0.3462 -0.1810
vn 0.9724 0.2055 -0.1107
vn 0.9205 0.3462 -0.1810
vn 0.6992 0.6600 -0.2750
vn -0.0157 0.7226 -0.6911
vn -0.8983 -0.2364 0.3704
vn -0.9782 0.2051 -0.0315
vn -0.6133 0.7706 -0.1730
vn -0.0157 0.7225 -0.6911
vn -0.0079 0.8497 -0.5271
vn 0.3077 0.9308 -0.1972
vn 0.4967 0.8673 -0.0315
vn 0.4248 0.9047 0.0314
vn -0.4970 0.8677 0.0079
vn 0.9223 -0.2444 0.2995
vn 0.5108 -0.4400 0.7386
vn 0.8825 0.0710 0.4649
vn 0.9708 0.0394 -0.2368
vn 0.8740 0.4331 0.2205
vn -0.8503 0.4330 0.2992
vn 0.7389 0.1965 0.6445
vn 0.5900 0.4405 0.6766
vn -0.5278 0.7719 -0.3544
vn -0.0079 0.8497 -0.5272
vn 0.6870 0.5369 0.4896
vn 0.5755 0.7805 0.2444
vn -0.5665 0.7710 0.2911
vn -0.6533 0.5353 0.5353
vn -0.3138 0.9337 -0.1726
vn 0.9205 0.3462 -0.1809
vn -0.9320 0.3475 -0.1027
vn -0.9650 0.1648 -0.2040
vn 0.9447 0.1653 -0.2834
vn -0.7164 0.6376 -0.2834
vn -0.3139 0.9336 -0.1726
vn -0.6134 0.7706 -0.1730
vn 0.7490 0.5439 -0.3784
vn 0.5040 0.8506 -0.1497
vn 0.5041 0.8506 -0.1497
vn 0.9223 -0.2444 0.2996
vn -0.0078 0.9569 -0.2902
vn -0.4240 0.9029 0.0707
vn -0.7340 0.6787 -0.0237
vn -0.5356 0.6775 -0.5041
vn 0.5047 0.6702 -0.5441
vn 0.8740 0.4331 0.2204
vn 0.3143 0.9349 0.1650
vn 0.7314 0.6764 -0.0865
vn -0.3081 0.9323 0.1896
vn -0.4742 -0.1817 0.8614
vn -0.6125 0.5968 -0.5183
vn -0.5278 0.7719 -0.3545
vn 0.5746 0.5904 -0.5668
vn 0.5028 0.7700 -0.3929
vn -0.7340 0.6788 -0.0237
vn -0.5026 0.7854 -0.3613
vn -0.6219 0.3936 -0.6770
vn 0.4804 0.7797 -0.4016
vn 0.5736 0.3851 -0.7230
vn 0.3076 0.9308 -0.1972
vn 0.4248 0.9047 0.0315
vn 0.5041 0.8506 -0.1496
vn -0.7787 0.5428 -0.3147
vn 0.8740 0.4330 0.2205
vn 0.3142 0.9349 0.1650
vn -0.0079 0.8440 -0.5364
vn -0.0079 0.8440 -0.5363
vn -0.9650 0.1647 -0.2040
vn 0.9223 -0.2443 0.2996
vn 0.9446 0.1653 -0.2834
vn 0.5755 0.7804 0.2444
vn -0.0237 0.4815 -0.8761
vn 0.4805 0.7797 -0.4016
vn -0.0078 0.8497 -0.5272
vn -0.5356 0.6774 -0.5042
vn 0.7319 -0.0787 -0.6769
vn -0.5357 0.6774 -0.5042
vn -0.0157 0.6912 -0.7225
vn 0.5747 0.5904 -0.5668
vn -0.8503 0.4330 0.2991
vn 0.7315 0.6764 -0.0865
vn -0.5357 0.6774 -0.5041
vn -0.0629 0.9901 -0.1257
vn -0.0157 0.6911 -0.7226
vn 0.5737 0.3850 -0.7230
vn -0.5664 0.7710 0.2911
vn -0.0157 0.6911 -0.7225
vn 0.5736 0.3850 -0.7230
vn 0.5737 0.3851 -0.7229
vn 0.9002 -0.1659 0.4027
vn 0.9724 0.2056 -0.1107
vn 0.0316 -0.5212 0.8528
vn 0.1808 0.0393 0.9827
vn 0.0158 -0.5214 0.8532
vn -0.1336 0.0393 0.9903
vn -0.6385 -0.6701 0.3784
vn 0.0316 -0.5212 0.8529
vn -0.0707 -0.9970 0.0314
vn 0.0706 -0.9970 0.0314
vn -0.3630 -0.7261 0.5840
vn 0.3947 -0.7341 0.5525
vn 0.5737 0.3850 -0.7229
vn -0.7742 -0.5530 0.3081
vn 0.7970 -0.5523 0.2446
vn 0.3946 -0.7341 0.5526
vn -0.0237 0.5922 0.8054
vn 0.0709 0.5909 0.8036
vn -0.4726 -0.7718 -0.4253
vn -0.7741 -0.5530 0.3081
vn -0.9788 -0.0553 0.1973
vn 0.7969 -0.5523 0.2446
vn 0.9915 -0.0551 0.1180
vn -0.4712 0.7303 0.4947
vn -0.0236 0.5922 0.8054
vn -0.0628 0.9901 -0.1257
vn 0.4984 0.7356 0.4588
vn 0.8679 0.4655 0.1735
vn -0.8524 0.4578 0.2526
vn -0.4711 0.7303 0.4947
vn 0.8679 0.4655 0.1736
vn -0.9788 -0.0552 0.1973
vn 0.4983 0.7357 0.4588
vn 0.0316 -0.5211 0.8529
vn -0.6617 -0.0473 0.7483
vn 0.7102 -0.0474 0.7024
vn 0.3947 -0.7341 0.5526
vn 0.7102 -0.0473 0.7024
vn 0.7103 -0.0473 0.7024
vn -0.6617 -0.0472 0.7483
vn 0.1808 0.0394 0.9827
vn -0.7742 -0.5529 0.3081
vn 0.4983 0.7356 0.4588
vn 0.7103 -0.0474 0.7024
vn 0.0710 0.5909 0.8036
vn 0.4984 0.7357 0.4588
vt 0.824117 0.836030
vt 0.724074 0.813965
vt 0.824117 0.928018
vt 0.724074 0.928018
vt 0.594630 0.932045
vt 0.515791 0.912848
vt 0.510111 0.999412
vt 0.608313 0.999412
vt 0.584431 0.927233
vt 0.824117 0.740435
vt 0.443709 0.923294
vt 0.009957 0.997265
vt 0.009957 0.928504
vt 0.127285 0.997265
vt 0.897088 0.565125
vt 0.989707 0.454120
vt 0.989707 0.622800
vt 0.696335 0.738167
vt 0.552004 0.766299
vt 0.421739 0.999412
vt 0.516522 0.911615
vt 0.437411 0.926242
vt 0.138107 0.926339
vt 0.199648 0.926670
vt 0.919522 0.206922
vt 0.922256 0.167779
vt 0.969664 0.198584
vt 0.924989 0.128636
vt 0.992800 0.129992
vt 0.824117 0.636173
vt 0.914351 0.229960
vt 0.909179 0.252998
vt 0.522809 0.857611
vt 0.772096 0.193052
vt 0.741263 0.076727
vt 0.636835 0.004260
vt 0.824117 0.201303
vt 0.824117 0.069817
vt 0.840145 0.270310
vt 0.840145 0.244204
vt 0.642104 0.173028
vt 0.824117 0.345205
vt 0.924084 0.067776
vt 0.972465 0.048024
vt 0.110738 0.866791
vt 0.775642 0.377824
vt 0.009957 0.877324
vt 0.425267 0.006505
vt 0.431239 0.155978
vt 0.840144 0.218098
vt 0.648334 0.999412
vt 0.601330 0.324056
vt 0.485969 0.245238
vt 0.456715 0.330614
vt 0.552243 0.433895
vt 0.298856 0.852148
vt 0.438043 0.197456
vt 0.426072 0.233678
vt 0.714826 0.542737
vt 0.271967 0.132605
vt 0.280007 0.003780
vt 0.382561 0.312162
vt 0.824117 0.542737
vt 0.604268 0.884794
vt 0.840145 0.172526
vt 0.622867 0.302389
vt 0.548270 0.234779
vt 0.666469 0.389054
vt 0.661082 0.397113
vt 0.840145 0.126954
vt 0.737384 0.004260
vt 0.895282 0.015403
vt 0.824117 0.004260
vt 0.637192 0.506804
vt 0.346012 0.211327
vt 0.402618 0.885444
vt 0.163600 0.098391
vt 0.131466 0.004260
vt 0.681749 0.638849
vt 0.865069 0.524881
vt 0.523109 0.858595
vt 0.407736 0.881713
vt 0.605551 0.881085
vt 0.009957 0.104180
vt 0.009957 0.004260
vt 0.448084 0.415091
vt 0.573284 0.542737
vt 0.840145 0.059804
vt 0.840145 0.007551
vt 0.244979 0.288596
vt 0.541012 0.642899
vt 0.138243 0.280810
vt 0.422180 0.790558
vt 0.346929 0.729747
vt 0.286698 0.307092
vt 0.137709 0.816051
vt 0.368729 0.364605
vt 0.277533 0.353880
vt 0.009957 0.295525
vt 0.009957 0.818836
vt 0.132431 0.407715
vt 0.251907 0.407306
vt 0.290784 0.421221
vt 0.457571 0.529322
vt 0.989707 0.281553
vt 0.876821 0.353907
vt 0.354823 0.999412
vt 0.845505 0.468424
vt 0.357722 0.618654
vt 0.009957 0.414064
vt 0.357250 0.542737
vt 0.381003 0.505174
vt 0.168904 0.703098
vt 0.189356 0.542737
vt 0.184425 0.611069
vt 0.009957 0.542737
vt 0.846102 0.412379
vt 0.007399 0.620115
vt 0.010465 0.713793
vt 0.517714 0.803543
vt 0.374575 0.855441
vt 0.643405 0.859214
vt 0.688768 0.999412
vt 0.309788 0.999412
vt 0.985090 0.787263
vt 0.927726 0.789104
vt 0.970465 0.832351
vt 0.928643 0.848417
vt 0.969868 0.742384
vt 0.886605 0.832913
vt 0.927857 0.726855
vt 0.871378 0.788007
vt 0.886032 0.742909
s 0
usemtl Handle1Mtl.003
f 1/1/1 2/2/2 3/3/3
f 4/3/3 5/2/4 6/4/5
f 7/3/3 8/2/6 9/1/1
f 10/4/7 11/2/6 12/3/3
f 13/5/8 14/6/9 15/7/10
f 16/8/11 17/5/8 18/7/10
f 19/9/12 20/8/11 21/7/10
f 22/1/13 23/10/14 24/2/2
f 25/6/15 26/5/16 27/7/17
f 28/1/13 29/2/18 30/10/14
f 31/8/19 32/7/17 33/5/16
f 34/8/19 35/9/20 36/7/17
f 37/6/9 38/11/21 39/7/10
f 40/12/3 41/13/22 42/14/7
f 43/14/5 44/13/22 45/12/3
f 46/15/7 47/16/23 48/17/6
f 49/11/24 50/6/15 51/7/17
f 52/2/2 53/18/25 54/19/26
f 55/16/27 56/15/5 57/17/2
f 58/11/28 59/20/29 60/7/10
f 61/2/6 62/19/30 63/18/31
f 64/20/32 65/11/24 66/7/17
f 67/21/33 68/9/12 69/7/34
f 70/7/10 71/20/35 72/22/36
f 73/21/37 74/7/17 75/9/38
f 76/23/39 77/13/40 78/14/5
f 79/13/40 80/23/41 81/14/7
f 82/22/42 83/20/32 84/7/17
f 85/14/7 86/23/41 87/24/43
f 88/25/44 89/26/45 90/27/46
f 91/21/47 92/22/42 93/7/17
f 94/26/48 95/28/49 96/29/50
f 97/25/51 98/27/52 99/26/53
f 100/10/14 101/30/54 102/18/25
f 103/2/2 100/10/14 102/18/55
f 104/31/56 105/25/44 106/27/46
f 107/27/52 108/29/57 109/26/53
f 110/29/57 111/28/58 112/26/59
f 113/10/14 114/18/31 115/30/54
f 116/10/14 117/2/18 114/18/31
f 118/32/60 119/31/56 120/27/46
f 121/5/8 122/33/61 123/6/9
f 124/6/62 125/33/63 126/5/16
f 127/31/64 128/27/52 129/25/65
f 130/34/66 131/35/67 132/36/68
f 133/32/69 134/27/52 135/31/64
f 136/35/70 137/34/71 138/36/72
f 139/35/67 140/37/73 141/38/74
f 142/34/75 143/37/73 144/35/67
f 145/38/76 146/37/73 147/35/70
f 148/39/77 149/40/78 150/32/60
f 151/40/79 152/31/56 153/32/60
f 154/41/80 155/34/66 156/36/81
f 157/39/82 158/32/69 159/40/78
f 160/40/78 161/32/69 162/31/64
f 163/34/66 164/42/83 165/37/73
f 166/28/49 167/43/84 168/29/50
f 169/29/50 167/43/84 170/44/72
f 171/28/58 172/29/85 173/43/86
f 174/44/81 173/43/86 175/29/85
f 176/37/73 177/42/87 178/34/71
f 179/35/70 180/37/73 178/34/71
f 181/34/71 182/41/88 183/36/72
f 184/13/89 185/45/90 186/23/41
f 187/46/91 188/42/83 189/34/66
f 190/45/92 191/13/22 192/23/39
f 193/47/93 194/45/90 195/13/22
f 196/47/93 197/13/94 198/45/92
f 199/36/68 200/48/85 201/49/95
f 202/40/78 203/50/96 204/31/56
f 205/31/56 206/50/96 207/25/97
f 208/34/71 209/42/83 210/46/98
f 211/36/72 212/49/99 213/48/50
f 214/31/64 215/25/100 216/50/96
f 217/40/78 218/31/64 219/50/96
f 220/8/11 221/51/101 222/5/8
f 223/5/16 224/51/102 225/8/103
f 226/41/80 227/36/81 228/49/104
f 229/8/19 230/51/102 231/9/38
f 232/9/12 233/51/105 234/8/11
f 235/52/106 236/53/107 237/54/108
f 238/55/109 235/52/106 237/54/108
f 239/56/110 240/23/39 241/24/111
f 242/24/111 240/23/39 243/14/112
f 244/57/113 245/53/114 246/58/115
f 247/53/114 248/54/116 249/58/115
f 250/53/107 251/58/117 252/54/108
f 253/53/107 254/57/118 255/58/117
f 256/59/119 257/42/83 258/46/91
f 259/48/50 260/60/120 261/61/46
f 262/52/121 263/55/122 264/54/123
f 262/52/121 265/54/123 266/53/124
f 267/54/116 268/62/125 269/58/115
f 270/63/126 271/42/83 272/59/119
f 273/5/16 274/33/127 275/64/128
f 276/64/129 277/33/61 278/5/8
f 279/62/130 280/54/131 281/58/117
f 282/45/90 283/56/132 284/23/41
f 285/45/133 286/23/39 287/56/110
f 288/11/134 289/33/63 290/6/62
f 291/25/44 292/65/135 293/26/48
f 294/48/85 295/60/136 296/49/95
f 297/50/96 298/65/135 299/25/44
f 300/42/83 301/59/137 302/46/98
f 303/6/9 304/33/61 305/11/28
f 306/50/96 307/25/138 308/65/135
f 309/25/65 310/26/53 311/65/135
f 312/63/126 313/59/137 314/42/83
f 315/61/139 316/60/136 317/48/85
f 318/66/140 319/67/141 320/52/106
f 321/52/106 322/67/141 323/53/107
f 324/68/142 325/34/143 326/41/80
f 327/46/91 328/34/143 329/68/142
f 330/67/144 331/66/145 332/52/121
f 333/67/144 334/52/121 335/53/114
f 336/55/146 337/69/142 338/52/106
f 339/68/142 340/41/80 341/66/140
f 342/41/80 343/49/95 344/67/141
f 345/34/71 346/68/147 347/41/148
f 348/34/71 349/46/98 350/68/149
f 351/27/150 352/26/45 353/29/50
f 352/26/48 354/70/151 355/28/49
f 356/65/135 354/70/151 357/26/48
f 358/36/152 359/35/67 360/71/153
f 361/72/153 362/43/86 363/44/68
f 364/71/154 365/35/70 366/36/72
f 367/44/155 368/43/84 369/72/154
f 370/51/156 371/64/129 372/5/8
f 373/5/157 374/64/128 375/51/102
f 376/69/158 377/55/122 378/52/121
f 379/68/149 380/66/159 381/41/88
f 382/71/153 383/38/74 384/73/160
f 385/73/160 386/38/74 387/71/154
f 388/35/161 389/38/76 390/71/153
f 391/74/162 392/69/142 393/55/146
f 394/41/88 395/67/144 396/49/99
f 394/41/88 397/49/99 398/36/72
f 396/49/99 399/75/163 400/60/120
f 401/49/164 400/60/120 402/48/50
f 403/38/74 404/35/70 405/71/154
f 406/69/142 407/66/165 408/52/106
f 409/76/166 410/33/63 411/11/24
f 412/60/120 413/77/167 414/78/60
f 415/33/61 416/76/168 417/11/28
f 418/61/150 419/60/120 420/78/60
f 421/18/55 422/30/54 423/79/169
f 424/74/162 425/46/91 426/68/142
f 427/69/149 428/74/170 429/55/122
f 430/66/145 431/69/171 432/52/121
f 433/77/172 434/60/136 435/78/173
f 436/59/119 437/46/91 438/74/162
f 439/57/113 440/58/115 441/75/163
f 442/49/164 439/57/113 443/75/163
f 444/49/95 445/57/174 446/67/141
f 447/78/69 448/60/175 449/61/139
f 450/68/171 451/46/98 452/74/176
f 453/66/140 454/41/80 455/67/141
f 456/26/53 457/28/58 458/70/151
f 459/49/164 460/67/144 461/57/113
f 462/18/25 463/79/169 464/19/26
f 465/46/177 466/59/137 467/74/176
f 468/49/178 469/75/179 470/57/118
f 471/41/88 472/66/180 473/67/144
f 474/80/43 475/16/181 476/15/7
f 477/80/111 478/15/5 479/16/27
f 480/21/182 481/7/10 482/22/36
f 483/81/183 482/22/36 484/82/184
f 485/60/175 486/75/185 487/49/95
f 488/18/31 489/19/30 490/79/186
f 491/65/135 492/26/53 493/70/151
f 494/83/187 495/9/20 496/51/188
f 497/77/167 498/84/189 499/85/77
f 500/78/60 501/77/190 502/85/82
f 503/83/191 504/51/101 505/9/12
f 506/84/192 507/77/172 508/85/82
f 509/85/82 510/77/172 511/78/69
f 512/55/146 513/54/108 514/86/193
f 515/28/49 516/70/151 517/43/84
f 518/28/58 519/43/86 520/70/151
f 521/59/194 522/74/162 523/87/195
f 524/55/196 525/86/197 526/54/198
f 527/72/154 528/88/199 529/89/160
f 530/89/200 531/88/199 532/72/153
f 533/24/43 534/23/41 535/56/132
f 536/43/84 537/70/151 538/88/199
f 536/43/84 538/88/199 539/72/154
f 540/88/199 541/70/151 542/43/86
f 540/88/199 542/43/86 543/72/153
f 544/75/163 545/90/201 546/60/120
f 547/58/115 548/62/202 549/75/163
f 550/57/174 551/75/179 552/58/203
f 553/60/175 554/90/204 555/75/179
f 556/59/137 557/91/205 558/87/206
f 559/74/176 560/59/137 558/87/207
f 561/58/117 562/75/179 563/62/130
f 564/54/108 565/62/208 566/86/209
f 567/54/198 568/86/210 569/62/211
f 570/30/54 571/79/186 572/63/126
f 573/18/31 574/79/186 570/30/54
f 575/60/120 576/92/212 577/77/167
f 578/93/213 579/56/132 580/94/214
f 581/75/163 582/95/215 583/90/201
f 584/67/216 585/57/118 586/53/107
f 587/96/217 588/56/132 589/45/90
f 590/67/144 591/53/218 592/57/113
f 593/87/195 594/74/162 595/55/146
f 596/60/120 597/90/201 598/92/219
f 599/77/172 600/92/220 601/60/136
f 602/96/221 603/45/92 604/56/110
f 605/74/170 606/87/207 607/55/196
f 608/62/202 609/86/210 610/97/222
f 611/97/223 612/86/193 613/62/130
f 614/90/204 615/95/224 616/75/179
f 614/90/225 617/98/226 618/95/224
f 619/19/26 620/94/227 621/93/228
f 622/93/228 620/94/229 623/56/230
f 624/77/167 625/99/231 626/84/189
f 627/79/186 628/19/30 629/91/232
f 630/84/189 631/99/231 632/77/172
f 633/19/30 634/93/233 635/94/214
f 636/95/215 637/98/234 638/90/201
f 639/77/190 640/92/212 641/99/235
f 642/100/236 643/45/90 644/47/93
f 645/100/236 646/47/93 647/45/133
f 648/99/231 649/92/220 650/77/172
f 651/92/220 652/101/237 653/90/204
f 654/92/220 653/90/204 655/60/136
f 656/102/238 657/103/239 658/98/226
f 659/98/234 660/102/240 661/90/201
f 662/90/204 663/102/238 664/98/226
f 665/79/169 666/59/119 667/91/241
f 665/79/242 667/91/241 668/19/26
f 669/20/32 670/76/243 671/11/244
f 672/11/21 673/76/168 674/20/29
f 675/30/54 676/63/126 677/79/169
f 678/104/245 679/55/146 680/86/209
f 681/79/169 682/63/126 683/59/119
f 684/55/122 685/104/246 686/86/197
f 687/79/186 688/59/137 689/63/126
f 690/87/247 691/55/248 692/104/245
f 693/87/206 694/104/246 695/55/196
f 696/96/249 697/45/90 698/100/250
f 699/105/2 700/106/26 701/16/251
f 702/107/252 703/76/243 704/20/32
f 705/107/253 706/20/35 707/76/168
f 708/96/221 709/100/250 710/45/133
f 711/75/163 712/62/125 713/95/215
f 714/105/6 715/16/181 716/106/30
f 717/108/132 718/16/254 719/80/43
f 720/90/201 721/101/255 722/92/212
f 723/91/241 724/94/256 725/19/26
f 726/91/232 727/94/257 728/109/258
f 729/19/30 730/94/257 731/91/232
f 732/91/241 733/109/259 734/94/229
f 735/90/260 736/102/240 737/101/261
f 738/95/215 739/97/222 740/98/262
f 741/101/237 742/102/238 743/90/204
f 744/95/224 745/62/263 746/75/179
f 747/97/264 745/62/130 748/95/224
f 749/98/226 750/97/265 751/95/224
f 752/59/119 753/87/195 754/91/266
f 755/92/219 756/110/267 757/99/231
f 758/103/268 759/111/269 760/102/240
f 761/98/234 758/103/268 762/102/240
f 763/99/231 764/110/267 765/92/220
f 766/81/270 767/21/37 768/9/20
f 769/81/271 770/9/12 771/21/33
f 772/104/272 773/112/273 774/111/274
f 775/112/275 776/104/246 777/111/269
f 778/79/186 779/91/205 780/59/276
f 781/113/277 782/56/132 783/96/278
f 784/113/279 785/96/280 786/56/110
f 787/102/240 788/111/281 789/114/282
f 788/111/281 790/115/283 791/114/282
f 792/102/238 793/114/284 794/111/274
f 794/111/274 793/114/284 795/115/285
f 796/101/286 793/114/284 797/102/238
f 798/94/257 799/56/132 800/113/277
f 801/111/274 802/103/287 803/102/238
f 804/103/287 805/86/209 806/97/288
f 807/94/227 808/113/279 809/56/110
f 810/97/222 811/86/210 812/103/268
f 813/62/289 814/97/222 815/95/215
f 816/104/290 817/86/209 818/112/291
f 819/86/210 820/104/246 821/112/275
f 822/92/219 823/101/255 824/110/267
f 823/101/255 825/116/292 824/110/267
f 826/110/267 827/116/293 828/101/237
f 826/110/267 829/101/237 830/92/220
f 831/104/246 832/91/232 833/109/294
f 834/91/295 835/104/245 836/109/296
f 837/102/240 838/114/282 839/101/255
f 840/112/273 841/86/193 842/103/287
f 843/86/197 844/112/275 845/103/268
f 846/117/228 847/108/110 848/16/251
f 847/108/110 849/80/111 850/16/251
f 851/20/29 852/107/253 853/22/36
f 854/97/222 855/103/268 856/98/234
f 857/22/42 858/107/297 859/20/32
f 860/98/226 861/103/287 862/97/288
f 863/116/292 864/118/298 865/114/299
f 866/116/292 865/114/284 867/101/237
f 868/113/277 869/96/249 870/100/300
f 871/100/250 872/96/280 873/113/279
f 874/83/187 875/81/301 876/9/20
f 877/101/255 878/114/282 879/116/292
f 880/83/302 881/9/12 882/81/271
f 883/112/291 884/103/287 885/111/274
f 886/112/275 887/111/281 888/103/268
f 889/87/207 890/91/205 891/104/246
f 892/87/247 893/104/245 894/91/241
f 895/81/303 896/22/42 897/21/37
f 898/81/183 899/21/182 900/22/36
f 901/94/257 902/113/277 903/109/258
f 904/94/229 905/109/296 906/113/279
f 907/119/304 908/100/250 909/113/305
f 910/104/306 911/109/294 912/111/281
f 913/109/259 914/104/272 915/111/307
f 916/81/308 917/82/309 918/22/42
f 919/115/283 920/113/277 921/119/304
f 921/119/310 922/113/277 923/100/236
f 924/109/296 925/115/311 926/113/279
f 927/111/269 928/109/258 929/115/283
f 928/109/258 930/113/277 931/115/283
f 932/107/312 933/82/184 934/22/36
f 935/82/309 936/107/297 937/22/42
f 938/115/285 939/119/310 940/113/279
f 941/115/283 942/119/313 943/118/298
f 944/118/298 945/119/313 946/115/314
f 947/109/259 948/111/274 949/115/315
f 950/117/213 951/16/181 952/108/132
f 953/106/30 954/16/181 955/117/233
f 956/106/316 957/117/317 958/16/27
f 959/120/318 960/33/63 961/121/319
f 962/120/320 963/121/321 964/33/322
f 965/33/63 966/120/323 967/64/128
f 968/64/324 969/120/320 970/33/61
f 971/76/166 972/121/319 973/33/63
f 974/33/61 975/121/321 976/76/168
f 977/64/325 978/120/323 979/122/326
f 980/122/327 981/120/320 982/64/324
f 983/115/283 984/118/298 985/114/282
f 986/115/328 987/114/284 988/118/298
f 989/114/282 990/118/298 991/116/293
f 992/123/329 993/51/102 994/122/326
f 995/123/330 996/122/331 997/51/156
f 998/124/332 999/121/319 1000/107/297
f 1001/107/312 1002/121/321 1003/124/333
f 1004/51/334 1005/64/128 1006/122/326
f 1007/51/105 1008/122/327 1009/64/324
f 1010/107/297 1011/121/319 1012/76/166
f 1013/107/312 1014/76/168 1015/121/321
f 1016/123/335 1017/122/336 1018/51/102
f 1019/123/337 1020/51/101 1021/122/338
f 1022/122/338 1023/51/101 1024/83/191
f 1025/122/336 1026/83/187 1027/51/102
f 1028/82/309 1029/124/332 1030/107/252
f 1031/107/312 1032/124/333 1033/82/184
f 1034/121/339 1035/124/340 1036/82/341
f 1037/121/342 1038/82/184 1039/124/333
f 1040/83/191 1041/81/183 1042/120/343
f 1043/83/187 1044/120/344 1045/81/303
f 1046/120/344 1047/121/345 1048/81/270
f 1049/120/346 1050/81/183 1051/121/342
f 1052/122/338 1053/83/191 1054/120/346
f 1055/122/347 1056/120/344 1057/83/187
f 1058/81/301 1059/121/339 1060/82/309
f 1061/121/348 1062/81/271 1063/82/184
f 1064/125/349 1065/126/350 1066/127/326
f 1067/127/326 1065/126/350 1068/128/329
f 1069/129/321 1070/125/320 1071/126/351
f 1070/125/320 1072/127/352 1071/126/351
f 1073/128/337 1074/130/338 1075/126/353
f 1076/127/352 1077/128/337 1075/126/354
f 1078/131/332 1079/126/350 1080/129/319
f 1081/130/347 1082/126/350 1083/132/344
f 1084/133/339 1085/126/355 1086/131/332
f 1087/129/356 1085/126/350 1088/125/318
f 1089/132/344 1090/126/350 1091/133/345
f 1092/128/357 1090/126/355 1093/130/347
f 1094/133/358 1095/131/333 1096/126/359
f 1097/131/360 1098/129/321 1096/126/353
f 1099/126/351 1100/132/346 1101/133/361
f 1100/132/346 1102/126/353 1103/130/338
