# Blender 4.0.2
# www.blender.org
mtllib TakoLuka.mtl
o polySurface1_0_0
v 0.265182 91.607948 31.027269
v -23.564123 76.939812 51.044743
v 0.521101 82.556648 56.439724
v -58.659649 24.561014 32.812450
v -59.981365 19.349823 9.366223
v -56.669777 13.973867 33.543919
v 25.430656 91.595253 6.460801
v 27.227497 86.993683 28.319658
v 46.411232 78.905151 6.451810
v 45.211681 76.396904 28.335617
v -49.166183 12.960334 45.167786
v -43.384449 -6.752060 39.772789
v -40.084351 -3.497278 46.782215
v 0.944848 95.353653 6.461040
v -24.130013 86.614304 28.382629
v -23.533752 91.458504 6.460801
v -44.496319 78.767715 6.452377
v -45.966461 75.436371 28.414375
v 23.902004 77.786766 51.428062
v 37.728168 64.746956 50.320999
v -38.411049 65.796722 50.830608
v 59.368320 56.126518 28.793407
v 63.969036 31.613531 27.847631
v 63.390106 38.462521 6.383968
v 59.501640 59.974163 6.758778
v 64.181801 17.637917 5.762179
v 61.088291 13.103948 26.959675
v 57.398693 -2.908038 14.657174
v -22.527748 63.566452 62.637215
v 1.222455 66.118622 69.876724
v 52.148186 23.643745 47.781029
v 47.861645 45.366066 51.083866
v 24.673281 63.399330 62.311375
v -26.755266 50.035072 53.145466
v 35.644089 35.438663 52.073231
v 39.283241 22.228666 48.529140
v -27.318750 -10.484209 47.019688
v -32.796265 -1.233038 44.446594
v 27.177565 -12.589575 44.364746
v 29.144102 -16.951275 37.793037
v 31.492073 -11.290852 44.126076
v 37.857025 -15.408552 37.861671
v -47.162582 47.895576 52.112179
v -49.505920 28.816847 49.243099
v -31.845341 35.402115 49.937851
v -35.033737 21.482779 47.278282
v -35.103230 10.718040 45.871437
v 27.199186 50.594265 56.773975
v -59.972271 40.176987 33.941994
v -18.415882 47.993553 64.989822
v 1.232081 48.831402 71.378113
v -0.524145 22.311728 58.183895
v 5.611209 20.250990 58.095188
v 1.237126 34.029625 65.977463
v 12.682631 35.287498 57.993946
v 18.867693 48.476223 66.880005
v -49.117451 -7.486789 18.008747
v -40.816334 -6.254979 19.833385
v -30.128803 -14.191670 43.265228
v -15.310842 32.215797 58.629841
v -27.318750 -10.484209 47.019688
v -32.796265 -1.233038 44.446594
v 52.630680 10.394949 45.175316
v 39.928059 10.731941 45.534103
v 46.917412 -3.554760 44.308296
v 33.927383 -2.944413 45.065350
v 29.144102 -16.951275 37.793037
v 33.369560 -14.633657 27.168827
v 33.369560 -14.633657 27.168827
v 41.634476 -15.358775 25.124733
v 37.857025 -15.408552 37.861671
v 62.609390 61.312183 -8.977438
v 50.351002 80.335144 -8.953383
v 62.568043 61.470036 6.393283
v 50.358036 80.335144 6.452308
v 27.524853 93.988174 -8.949901
v 27.525024 93.988174 6.460955
v 0.942977 97.886597 -8.949851
v 0.942977 97.886597 6.461075
v -25.630695 93.830147 -8.949883
v -25.630695 93.830147 6.460989
v -48.435398 80.187073 -8.953160
v -48.441921 80.187073 6.452840
v -63.737198 41.546249 6.936403
v -60.621899 61.429203 6.397419
v -63.522545 42.250607 -8.394510
v -60.275982 61.903633 -8.974487
v -63.876522 21.465807 -7.568703
v -64.162216 21.465807 7.643011
v 66.801735 39.790081 5.870706
v 66.696381 38.743919 -9.440339
v -60.344788 40.965782 -8.336051
v -59.070423 20.206543 -7.387475
v 59.664818 59.747837 -8.977970
v 47.286491 79.222931 -8.953538
v -24.003212 91.988358 -8.949936
v 0.944453 95.923141 -8.949851
v 25.899597 92.129898 -8.949952
v -45.371918 79.083260 -8.953315
v 59.501640 59.974163 6.758778
v 63.390106 38.462521 6.383968
v -60.566818 37.914650 8.173859
v -59.981365 19.349823 9.366223
v 46.411232 78.905151 6.451810
v 25.430656 91.595253 6.460801
v -57.016033 59.366402 6.395412
v -44.496319 78.767715 6.452377
v -23.533752 91.458504 6.460801
v 0.944848 95.353653 6.461040
v 1.275853 5.990700 59.174610
v -16.792858 -6.341303 50.086258
v 1.206635 -9.439256 53.840714
v 39.928059 10.731941 45.534103
v 20.844870 6.598797 55.497715
v 33.927383 -2.944413 45.065350
v 21.583544 -6.801150 49.907124
v 19.490719 17.495483 55.602394
v 35.644089 35.438663 52.073231
v 23.908352 35.348770 57.770885
v 22.742432 -12.311610 46.276554
v 33.369560 -14.633657 27.168827
v 12.490181 -15.478710 47.096558
v -14.243359 -13.380585 46.270374
v -26.144766 -7.498131 44.253387
v -28.624685 -15.194571 27.274696
v -17.713413 6.595022 55.526539
v -17.372644 17.703964 55.620754
v 0.990215 17.737593 57.013687
v -32.796265 -1.233038 44.446594
v -40.816334 -6.254979 19.833385
v 1.145791 -16.778315 47.457916
v -27.309315 -17.818794 10.774032
v -33.818573 -13.778134 6.684401
v -26.996513 -21.307293 -6.504358
v -35.103230 10.718040 45.871437
v -31.845341 35.402115 49.937851
v -20.907814 33.756958 57.776718
v -26.755266 50.035072 53.145466
v 27.199186 50.594265 56.773975
v -35.033737 21.482779 47.278282
v 39.283241 22.228666 48.529140
v -15.310842 32.215797 58.629841
v -0.524145 22.311728 58.183895
v 12.682631 35.287498 57.993946
v 5.611209 20.250990 58.095188
v -21.452253 -22.606194 -19.109522
v 15.849390 -24.350874 -21.149067
v 0.821941 -24.214806 -24.924784
v 27.385012 -23.620777 -8.779852
v 32.220627 -20.245525 8.357770
v -0.058239 -27.375391 -66.077095
v 0.821941 -24.214806 -24.924784
v -14.428516 -37.121857 -60.810623
v -21.452253 -22.606194 -19.109522
v -30.614218 -32.131748 -57.354214
v -39.776356 -42.103783 -44.531132
v -21.452253 -22.606194 -19.109522
v -26.996513 -21.307293 -6.504358
v -30.614218 -32.131748 -57.354214
v -54.391293 -35.912457 -36.743568
v 58.685066 -31.807962 15.766992
v 49.188511 -38.769554 15.474782
v 47.727291 -35.956673 2.570167
v 57.398693 -2.908038 14.657174
v 56.701370 -17.213440 20.565199
v 41.634476 -15.358775 25.124733
v 60.262104 -4.811434 2.017626
v 64.181801 17.637917 5.762179
v 57.693134 -21.223215 1.071181
v 39.995148 -39.502628 54.432514
v 26.281891 -29.996206 67.081253
v 29.410574 -35.843864 50.500126
v 21.024176 -28.413507 60.222656
v 21.284300 -10.036732 63.654015
v 27.368195 -12.655976 71.783897
v 31.019358 -14.118745 52.913296
v 42.516079 -16.875948 58.344139
v 29.892900 -24.000505 72.522911
v 46.245140 -31.385706 58.537521
v 24.258730 -24.317579 48.058979
v 19.479910 -18.112217 57.613358
v 26.281891 -29.996206 67.081253
v 39.995148 -39.502628 54.432514
v 19.479910 -18.112217 57.613358
v 24.258730 -24.317579 48.058979
v 14.274461 -28.633133 70.093781
v 11.423744 -28.304720 67.431465
v 11.331431 -23.484720 65.666191
v 10.509230 -19.656139 69.718010
v 11.331431 -23.484720 65.666191
v 13.683591 -20.918663 72.917717
v 15.738667 -26.080118 73.763985
v 14.274461 -28.633133 70.093781
v 8.928861 -26.685986 72.228645
v 8.928861 -26.685986 72.228645
v 36.828545 -36.701069 34.152004
v 48.737244 -40.505802 37.669155
v 37.000473 -16.716869 39.152336
v 52.477455 -20.457617 43.449341
v 56.448109 -34.793560 41.632946
v 31.296638 -26.702101 34.895309
v 48.737244 -40.505802 37.669155
v 31.296638 -26.702101 34.895309
v 33.403019 -26.600866 19.457787
v 35.905247 -36.523945 11.707628
v 33.403019 -26.600866 19.457787
v 49.188511 -38.769554 15.474782
v 47.727291 -35.956673 2.570167
v 32.220627 -20.245525 8.357770
v 33.369560 -14.633657 27.168827
v 32.220627 -20.245525 8.357770
v 49.264179 -33.611843 -27.553812
v 51.371422 -46.139137 -10.596954
v 27.385012 -23.620777 -8.779852
v -48.885124 -37.889080 -18.694937
v -26.996513 -21.307293 -6.504358
v -52.641468 -29.139128 -7.405488
v -54.391293 -35.912457 -36.743568
v 47.727291 -35.956673 2.570167
v 27.385012 -23.620777 -8.779852
v -83.758957 -25.319300 -17.820366
v -95.993324 -37.636318 -8.440746
v -77.601105 -30.098461 -8.338260
v -91.221199 -40.355324 -3.564346
v -72.707840 -42.028229 -8.085685
v -86.876839 -47.875477 -4.868479
v -72.707840 -42.028229 -8.085685
v -86.876839 -47.875477 -4.868479
v -88.305962 -50.568577 -10.000575
v -71.690170 -46.253071 -17.714548
v -77.749870 -42.639832 -27.411222
v -94.143806 -47.402573 -13.857810
v -77.749870 -42.639832 -27.411222
v -94.143806 -47.402573 -13.857810
v -83.400696 -32.143246 -25.409855
v -97.359322 -41.581505 -13.465276
v -99.311615 -49.055073 -0.996093
v -99.311615 -49.055073 -0.996093
v -60.316132 -22.484369 -32.381706
v -61.425774 -10.991593 -24.338926
v -54.391293 -35.912457 -36.743568
v -52.641468 -29.139128 -7.405488
v -60.480339 -20.251015 -11.193232
v 28.981268 86.276794 -35.401939
v 0.713757 90.515808 -39.284740
v 25.899597 92.129898 -8.949952
v 0.944453 95.923141 -8.949851
v -51.005058 20.785984 -32.815113
v -29.201727 20.114918 -59.380276
v -49.052761 -4.767342 -52.072479
v 59.508160 -24.584057 -26.505426
v 56.535789 19.497210 -32.892155
v 59.204624 -11.209332 -14.601224
v 32.859440 22.279287 -60.461605
v 48.485870 -11.309197 -51.692230
v 36.006996 -19.069653 -56.196014
v 15.090692 -2.398780 -66.807510
v 1.103032 22.841402 -68.759811
v 32.429787 50.372932 -60.710236
v 0.787710 50.130825 -69.373222
v 0.459485 74.365532 -58.563019
v 29.839367 72.754501 -52.900192
v -25.739824 88.126488 -33.429565
v -24.003212 91.988358 -8.949936
v -17.813105 -1.257739 -63.883720
v 26.800079 -15.318629 -60.299992
v 28.618023 -31.974403 -56.274082
v -4.713603 -12.180149 -66.303741
v 3.706769 -14.004461 -68.610031
v -0.058239 -27.375391 -66.077095
v -28.858557 50.657955 -60.135941
v -26.430798 73.910301 -52.832588
v -49.859558 55.231541 -34.130833
v -36.378796 -17.104832 -57.891964
v -28.354269 -15.683747 -59.580708
v -30.614218 -32.131748 -57.354214
v 47.286491 79.222931 -8.953538
v 40.941784 76.963669 -34.884613
v -50.939857 -17.098827 -41.104412
v 52.965443 -21.138285 -40.566837
v 49.264179 -33.611843 -27.553812
v -60.344788 40.965782 -8.336051
v -59.070423 20.206543 -7.387475
v 62.223667 18.614408 -9.994334
v -37.503021 77.444450 -33.220062
v -45.371918 79.083260 -8.953315
v 59.664818 59.747837 -8.977970
v 54.473511 53.458378 -34.744247
v 60.262104 -4.811434 2.017626
v 64.181801 17.637917 5.762179
v 61.388733 -15.863407 -3.454293
v 57.693134 -21.223215 1.071181
v -61.362457 -18.272295 -4.047206
v -59.981365 19.349823 9.366223
v 15.267888 -18.165041 -86.680344
v 6.230307 -27.626249 -84.647583
v 16.224407 -33.625385 -101.690117
v 11.063039 -38.970245 -100.680679
v 18.945080 -49.950157 -99.185829
v 24.863224 -44.380482 -100.186005
v 16.148430 -47.133102 -81.610870
v 29.238476 -39.877502 -82.622719
v 26.769880 -25.494646 -85.192001
v 29.238476 -39.877502 -82.622719
v 23.662300 -36.702660 -101.349693
v 24.863224 -44.380482 -100.186005
v 4.166377 -40.919418 -82.567802
v 11.592447 -47.214897 -99.293930
v 11.592447 -47.214897 -99.293930
v 4.166377 -40.919418 -82.567802
v 19.590410 -41.323124 -109.828400
v 19.590410 -41.323124 -109.828400
v 12.598400 -36.317329 -59.348206
v 28.618023 -31.974403 -56.274082
v -0.058239 -27.375391 -66.077095
v 60.610420 -22.610828 -61.011383
v 53.911221 -31.752701 -66.792091
v 61.555515 -51.291054 -55.535923
v 68.611954 -41.007198 -48.586208
v 41.640652 -48.415527 -41.658798
v 49.264179 -33.611843 -27.553812
v 66.878433 -28.149427 -52.341522
v 68.611954 -41.007198 -48.586208
v 53.682327 -47.998489 -65.258629
v 28.618023 -31.974403 -56.274082
v 75.374649 -31.432524 -68.547058
v 71.983948 -35.995914 -71.193253
v 72.237892 -44.104156 -70.548431
v 53.682327 -47.998489 -65.258629
v 72.237892 -44.104156 -70.548431
v 76.549492 -45.369701 -66.088242
v 80.243378 -40.614937 -62.914433
v 79.313042 -33.463921 -64.170952
v 80.243378 -40.614937 -62.914433
v 82.672501 -38.031105 -71.408241
v 82.672501 -38.031105 -71.408241
v 72.092049 -41.711483 4.353024
v 73.204605 -51.290192 -4.232601
v 82.354729 -38.469345 -18.373554
v 83.040039 -27.423275 -10.569383
v 72.092049 -41.711483 4.353024
v 47.727291 -35.956673 2.570167
v 78.416168 -50.231907 -15.295798
v 77.357819 -28.295614 2.368417
v 85.642815 -49.203392 2.566342
v 83.010696 -42.799747 8.289290
v 83.010696 -42.799747 8.289290
v 86.718826 -33.325977 6.856125
v 91.787109 -32.548698 -0.968915
v 92.564384 -40.696712 -6.173780
v 90.103172 -48.622074 -4.099246
v 78.416168 -50.231907 -15.295798
v 90.103172 -48.622074 -4.099246
v 93.503311 -47.128307 8.225737
v 90.660995 -43.104687 11.823620
v 97.257759 -46.035789 14.341805
v 90.660995 -43.104687 11.823620
v 93.158081 -36.819759 10.843867
v 97.257759 -46.035789 14.341805
v 97.819878 -39.014664 4.828692
v 96.944275 -46.846100 4.514743
v 96.944275 -46.846100 4.514743
v -28.649567 -22.374371 -84.547699
v -36.133427 -30.285648 -77.639023
v -41.051407 -36.868191 -98.405464
v -44.886673 -41.643303 -93.541008
v -36.933189 -45.388489 -74.186722
v -42.153667 -48.246777 -92.584770
v -36.933189 -45.388489 -74.186722
v -42.153667 -48.246777 -92.584770
v -36.115585 -50.784660 -95.210701
v -24.178228 -49.259712 -79.269417
v -14.552589 -42.962570 -87.091820
v -33.464417 -49.020008 -102.446465
v -35.893211 -38.477524 -102.661812
v -33.464417 -49.020008 -102.446465
v -14.552589 -42.962570 -87.091820
v -18.193336 -26.909369 -88.971870
v -46.923046 -48.252663 -104.394981
v -46.923046 -48.252663 -104.394981
v -62.931774 -17.970121 -64.292946
v -76.933296 -35.215237 -69.861748
v -66.994057 -27.519711 -53.750408
v -79.029556 -39.033405 -62.779568
v -57.317509 -45.654362 -59.064919
v -72.657570 -49.856773 -66.607803
v -70.926788 -44.896381 -74.917160
v -51.117794 -37.863052 -69.797577
v -56.068367 -26.252024 -69.718132
v -51.117794 -37.863052 -69.797577
v -72.840134 -38.505383 -74.233391
v -70.926788 -44.896381 -74.917160
v -65.022713 -42.147316 -51.601475
v -75.832237 -46.720352 -61.099400
v -75.832237 -46.720352 -61.099400
v -65.022713 -42.147316 -51.601475
v -82.152412 -48.023319 -71.672661
v -82.152412 -48.023319 -71.672661
v -38.937302 -21.458302 47.059494
v -21.568417 -13.453853 57.419983
v -29.053822 -30.164705 54.754921
v -21.577339 -18.883148 63.819427
v -37.421349 -10.084775 64.301926
v -48.272392 -16.212427 55.467171
v -35.741528 -13.989712 70.494431
v -47.290585 -28.066561 60.363354
v -28.686287 -18.717567 71.541458
v -38.628448 -34.649963 58.691261
v -21.568417 -13.453853 57.419983
v -38.937302 -21.458302 47.059494
v -30.078699 -9.420228 57.518642
v -38.724709 -14.703164 47.835403
v -28.686287 -18.717567 71.541458
v -38.628448 -34.649963 58.691261
v -24.868343 0.076157 66.482430
v -22.493605 -0.414920 61.294376
v -22.930117 -2.736638 69.811180
v -21.021402 -6.340958 70.169792
v -21.021402 -6.340958 70.169792
v -19.608913 -8.708320 64.823898
v -18.291311 -1.839763 65.002159
v -18.291311 -1.839763 65.002159
v -35.412254 -37.770374 40.354637
v -35.130341 -24.378510 37.984867
v -55.508141 -21.088879 41.734863
v -57.306698 -33.897541 44.421036
v -48.058086 -43.870728 42.981091
v -43.354763 -15.794620 39.480923
v -35.130341 -24.378510 37.984867
v -48.058086 -43.870728 42.981091
v -58.179211 -22.202278 28.297340
v -61.299145 -35.288071 27.777611
v -36.975399 -25.805225 24.633656
v -37.507656 -38.759396 23.236954
v -45.261932 -14.326005 26.487461
v -52.447063 -46.186390 24.239012
v -52.447063 -46.186390 24.239012
v -36.975399 -25.805225 24.633656
v -61.139740 -18.772804 15.371485
v -63.039532 -30.609783 8.291589
v -54.900387 -39.472603 1.579949
v -54.900387 -39.472603 1.579949
v -37.661053 -30.469601 6.605113
v -39.342243 -20.057980 14.091117
v -49.117451 -7.486789 18.008747
v -39.342243 -20.057980 14.091117
v -20.006821 -5.842158 60.388062
v -20.006821 -5.842158 60.388062
v -52.641468 -29.139128 -7.405488
v -26.996513 -21.307293 -6.504358
v -40.816334 -6.254979 19.833385
v -33.818573 -13.778134 6.684401
v -59.116749 -11.583042 10.059894
v -59.981365 19.349823 9.366223
v -61.362457 -18.272295 -4.047206
v -52.641468 -29.139128 -7.405488
v 0.821941 -24.214806 -24.924784
v 15.849390 -24.350874 -21.149067
v 27.385012 -23.620777 -8.779852
v 15.849390 -24.350874 -21.149067
v -33.818573 -13.778134 6.684401
v 65.605270 20.634304 5.304270
v 64.181801 17.637917 5.762179
v 65.318039 20.634304 -9.893203
v 62.164299 36.972301 -9.489139
v 62.223667 18.614408 -9.994334
v 62.164299 36.972301 -9.489139
v -57.016033 59.366402 6.395412
v -60.566818 37.914650 8.173859
v -56.807213 57.334484 32.772297
v -58.190533 60.095982 -8.975945
v -58.190533 60.095982 -8.975945
v 37.857025 -15.408552 37.861671
v -72.592026 37.586758 -16.707144
v -62.114170 38.999756 -16.707146
v -70.813713 24.402317 -26.372776
v -60.336208 25.815317 -26.372776
v -68.615883 8.105326 -26.372774
v -58.138027 9.518674 -26.372774
v -66.837914 -5.078940 -16.707142
v -56.360065 -3.665591 -16.707142
v -66.158607 -10.114791 -1.067733
v -55.680756 -8.701787 -1.067733
v -66.158607 -10.114791 -1.067733
v -55.680756 -8.701787 -1.067733
v -66.837914 -5.078938 14.571725
v -56.360065 -3.665589 14.571725
v -68.615883 8.105330 24.237463
v -58.138027 9.518678 24.237463
v -70.813713 24.402321 24.237478
v -60.336208 25.815304 24.237478
v -72.592026 37.586758 14.571740
v -62.114170 38.999756 14.571740
v -73.271332 42.622608 -1.067719
v -62.793480 44.035610 -1.067720
v -75.255028 22.566185 -22.599325
v -76.768059 33.784428 -14.374991
v -73.384918 8.699695 -22.599323
v -71.871880 -2.518885 -14.374989
v -71.293983 -6.803883 -1.067733
v -71.871880 -2.518883 12.239540
v -71.293983 -6.803883 -1.067733
v -73.384918 8.699698 20.463980
v -75.255028 22.566174 20.463978
v -76.768059 33.784428 12.239553
v -77.345963 38.069420 -1.067719
v -75.255028 22.566185 -22.599325
v -80.326057 19.095360 -14.099751
v -76.768059 33.784428 -14.374991
v -81.241806 25.885502 -9.121944
v -79.194450 10.702785 -14.099751
v -73.384918 8.699695 -22.599323
v -71.871880 -2.518885 -14.374989
v -78.278702 3.912644 -9.121943
v -77.928841 1.319302 -1.067734
v -71.293983 -6.803883 -1.067733
v -78.278702 3.912645 6.986527
v -71.871880 -2.518883 12.239540
v -79.194450 10.702615 11.964334
v -73.384918 8.699698 20.463980
v -80.326057 19.095362 11.964333
v -75.255028 22.566174 20.463978
v -81.241806 25.885502 6.986526
v -76.768059 33.784428 12.239553
v -77.345963 38.069420 -1.067719
v -81.591843 28.478836 -1.067718
v -48.759354 19.080257 -1.067718
v 72.473824 37.586758 -16.707144
v 70.695854 24.402317 -26.372776
v 61.995975 38.999756 -16.707146
v 60.218010 25.815317 -26.372776
v 68.498024 8.105326 -26.372774
v 58.020172 9.518674 -26.372774
v 66.719887 -5.078940 -16.707142
v 56.242039 -3.665591 -16.707142
v 66.040413 -10.114791 -1.067733
v 55.562901 -8.701787 -1.067733
v 66.040413 -10.114791 -1.067733
v 66.719887 -5.078938 14.571725
v 55.562901 -8.701787 -1.067733
v 56.242039 -3.665589 14.571725
v 68.498024 8.105330 24.237463
v 58.020172 9.518678 24.237463
v 70.695854 24.402321 24.237478
v 60.218010 25.815304 24.237478
v 72.473824 37.586758 14.571740
v 61.995975 38.999756 14.571740
v 73.152954 42.622608 -1.067719
v 62.675453 44.035610 -1.067720
v 75.136826 22.566185 -22.599325
v 76.649864 33.784428 -14.374991
v 73.267059 8.699695 -22.599323
v 71.753685 -2.518885 -14.374989
v 71.175789 -6.803883 -1.067733
v 71.753685 -2.518883 12.239540
v 71.175789 -6.803883 -1.067733
v 73.267059 8.699698 20.463980
v 75.136826 22.566174 20.463978
v 76.649864 33.784428 12.239553
v 77.227760 38.069420 -1.067719
v 75.136826 22.566185 -22.599325
v 76.649864 33.784428 -14.374991
v 80.208199 19.095360 -14.099751
v 81.123947 25.885502 -9.121944
v 79.076248 10.702785 -14.099751
v 73.267059 8.699695 -22.599323
v 71.753685 -2.518885 -14.374989
v 78.160500 3.912644 -9.121943
v 77.810806 1.319302 -1.067734
v 71.175789 -6.803883 -1.067733
v 78.160500 3.912645 6.986527
v 71.753685 -2.518883 12.239540
v 73.267059 8.699698 20.463980
v 79.076248 10.702786 11.964334
v 80.208199 19.095362 11.964333
v 75.136826 22.566174 20.463978
v 81.123947 25.885502 6.986526
v 76.649864 33.784428 12.239553
v 77.227760 38.069420 -1.067719
v 81.473465 28.478836 -1.067718
v 48.641155 19.080257 -1.067718
vn -0.0183 0.9646 0.2631
vn -0.4229 0.6852 0.5930
vn -0.0093 0.8119 0.5838
vn -0.9466 -0.1292 0.2955
vn -0.9818 -0.1826 0.0529
vn -0.9103 -0.2788 0.3058
vn 0.3199 0.9321 0.1699
vn 0.3488 0.8985 0.2665
vn 0.6731 0.7291 0.1235
vn 0.6613 0.6893 0.2961
vn -0.5536 -0.2234 0.8023
vn -0.6590 -0.6901 0.2992
vn -0.3358 -0.2836 0.8982
vn -0.0061 0.9847 0.1744
vn -0.3350 0.9042 0.2648
vn -0.3265 0.9248 0.1955
vn -0.6639 0.7425 0.0891
vn -0.6632 0.7081 0.2422
vn 0.4229 0.6888 0.5889
vn 0.5239 0.3980 0.7531
vn -0.4353 0.4064 0.8033
vn 0.8841 0.3560 0.3026
vn 0.9618 0.0226 0.2727
vn 0.9924 0.1226 0.0143
vn 0.9127 0.4014 0.0771
vn 0.9898 -0.1312 0.0546
vn 0.9305 -0.2545 0.2635
vn 0.8670 -0.4556 0.2019
vn -0.6716 0.2487 0.6979
vn 0.0002 0.3809 0.9246
vn 0.5608 -0.1170 0.8196
vn 0.5703 0.1149 0.8134
vn 0.7224 0.2749 0.6345
vn -0.5062 -0.0912 0.8576
vn 0.1751 -0.1645 0.9707
vn 0.0828 -0.2417 0.9668
vn -0.1967 -0.3280 0.9240
vn 0.2546 0.1638 0.9531
vn -0.8474 -0.2247 0.4811
vn 0.1873 -0.9232 0.3355
vn 0.1769 -0.4720 0.8636
vn 0.1811 -0.9096 0.3738
vn -0.4877 0.0916 0.8682
vn -0.4820 -0.1556 0.8623
vn 0.0056 -0.1845 0.9828
vn -0.0061 -0.1921 0.9813
vn 0.0075 -0.0315 0.9995
vn 0.6150 -0.0798 0.7844
vn -0.9540 0.0558 0.2945
vn -0.5665 -0.2029 0.7987
vn -0.0299 -0.1226 0.9920
vn -0.2239 -0.5162 0.8267
vn 0.1900 -0.4414 0.8770
vn 0.0541 -0.4511 0.8908
vn 0.5658 -0.5197 0.6401
vn 0.5393 -0.2732 0.7966
vn -0.6288 -0.7689 0.1158
vn 0.1904 -0.9738 -0.1246
vn 0.3315 -0.9377 0.1038
vn -0.4511 -0.4328 0.7805
vn 0.8954 0.1395 -0.4229
vn 0.8440 0.4005 -0.3567
vn 0.5995 -0.2187 0.7699
vn 0.0453 -0.1368 0.9896
vn 0.5190 -0.4237 0.7423
vn -0.2106 0.0486 0.9764
vn -0.8199 0.4582 -0.3433
vn -0.8682 0.4274 -0.2521
vn 0.0004 -0.9974 -0.0725
vn 0.4806 -0.8658 0.1391
vn 0.7063 -0.6677 0.2351
vn 0.6913 0.2814 -0.6655
vn 0.5220 0.5411 -0.6593
vn 0.7206 0.2842 0.6325
vn 0.5209 0.5455 0.6565
vn 0.2504 0.7030 -0.6656
vn 0.2506 0.7029 0.6657
vn -0.0022 0.7376 -0.6753
vn -0.0022 0.7376 0.6753
vn -0.2524 0.7018 -0.6662
vn -0.2525 0.7016 0.6663
vn -0.5218 0.5413 -0.6594
vn -0.5223 0.5401 0.6599
vn -0.7979 0.1120 0.5922
vn -0.7023 0.2735 0.6572
vn -0.7149 0.0408 -0.6981
vn -0.6938 0.2658 -0.6693
vn -0.6491 -0.0202 -0.7604
vn -0.7730 0.0436 0.6329
vn 0.7800 0.0401 0.6245
vn 0.7284 0.0512 -0.6832
vn 0.0050 -0.0378 -0.9993
vn 0.0261 -0.0440 -0.9987
vn -0.0048 0.0109 -0.9999
vn -0.0001 0.0005 -1.0000
vn -0.0000 0.0001 -1.0000
vn -0.0000 -0.0000 -1.0000
vn 0.0001 0.0005 -1.0000
vn 0.1019 0.0249 0.9945
vn 0.1608 -0.0183 0.9868
vn -0.3041 0.0620 0.9506
vn -0.3595 0.0485 0.9319
vn -0.0017 0.0044 1.0000
vn 0.0001 -0.0001 1.0000
vn -0.0069 0.0178 0.9998
vn -0.0003 -0.0012 1.0000
vn -0.0001 -0.0002 1.0000
vn -0.0000 -0.0000 1.0000
vn -0.0198 -0.1049 0.9943
vn -0.3274 -0.4537 0.8288
vn -0.0231 -0.4800 0.8769
vn 0.4372 -0.1796 0.8812
vn 0.3267 -0.1607 0.9314
vn 0.5300 -0.4371 0.7267
vn 0.3220 -0.4082 0.8542
vn 0.2610 -0.0624 0.9633
vn 0.4089 -0.1277 0.9036
vn 0.2315 -0.0789 0.9696
vn 0.3944 -0.7041 0.5905
vn 0.1656 -0.9566 0.2396
vn 0.1938 -0.8387 0.5089
vn -0.3077 -0.7676 0.5622
vn -0.5005 -0.6377 0.5855
vn -0.4125 -0.8827 0.2253
vn -0.3167 -0.1706 0.9331
vn -0.2835 -0.0939 0.9544
vn -0.0540 -0.0788 0.9954
vn -0.5628 -0.4689 0.6807
vn -0.6479 -0.7327 0.2082
vn -0.0346 -0.9117 0.4095
vn -0.3171 -0.9337 0.1663
vn -0.5867 -0.7964 0.1469
vn -0.1256 -0.9798 0.1559
vn -0.4815 -0.1281 0.8670
vn -0.5408 -0.0717 0.8381
vn -0.3521 -0.0077 0.9359
vn -0.4878 0.0723 0.8700
vn 0.2722 0.0042 0.9622
vn -0.4413 -0.0918 0.8927
vn 0.3690 -0.1809 0.9116
vn -0.1386 -0.0987 0.9854
vn -0.1447 -0.2899 0.9460
vn 0.0614 -0.0567 0.9965
vn 0.0661 -0.3308 0.9414
vn -0.0418 -0.9953 0.0876
vn -0.0389 -0.9946 0.0967
vn -0.0397 -0.9917 0.1223
vn -0.0341 -0.9855 0.1665
vn -0.0294 -0.9683 0.2481
vn 0.5843 -0.8047 0.1052
vn 0.1539 -0.9488 0.2759
vn 0.2726 -0.9115 0.3080
vn -0.0446 -0.9458 0.3217
vn -0.1682 -0.8685 0.4664
vn 0.3160 -0.9391 0.1353
vn 0.5303 -0.8128 0.2412
vn 0.2967 -0.8763 0.3795
vn 0.5872 -0.7864 -0.1920
vn -0.1093 -0.8835 0.4554
vn 0.9021 -0.4191 -0.1024
vn 0.5880 -0.7962 -0.1425
vn 0.6759 -0.6436 -0.3589
vn 0.9324 -0.0211 0.3608
vn 0.8320 0.3560 0.4255
vn -0.4310 0.7807 0.4524
vn 0.9527 -0.1820 0.2432
vn 0.9471 -0.2063 0.2456
vn 0.9731 -0.1962 -0.1206
vn -0.3343 -0.9418 0.0356
vn -0.3396 -0.9375 0.0759
vn -0.6176 -0.7791 -0.1074
vn -0.6440 -0.7023 -0.3034
vn -0.3082 0.9468 -0.0924
vn 0.2260 0.6815 0.6961
vn -0.1272 0.9389 -0.3199
vn 0.6223 0.6887 0.3720
vn 0.3810 -0.2332 0.8947
vn 0.6805 -0.2719 0.6805
vn -0.8502 -0.3899 -0.3538
vn -0.7912 -0.2589 -0.5540
vn 0.1948 -0.7175 0.6687
vn 0.4325 -0.6849 0.5864
vn -0.5827 0.5624 -0.5866
vn -0.5973 0.6170 -0.5123
vn -0.1525 -0.9883 0.0077
vn -0.5880 -0.7323 -0.3435
vn -0.6792 -0.2608 -0.6861
vn -0.8140 0.5609 0.1509
vn -0.8535 0.2811 -0.4388
vn -0.2817 0.4055 0.8696
vn -0.0146 -0.3764 0.9264
vn -0.0049 -0.8200 0.5724
vn -0.7317 -0.6633 -0.1567
vn -0.6697 -0.1052 0.7352
vn -0.5919 -0.7944 -0.1365
vn -0.2805 -0.9561 -0.0846
vn -0.3057 0.9346 -0.1818
vn 0.7154 0.6397 0.2812
vn 0.8789 -0.3817 0.2861
vn -0.8516 -0.4553 -0.2596
vn 0.5515 -0.8269 0.1104
vn -0.7516 0.5918 -0.2914
vn -0.9562 -0.2923 -0.0162
vn -0.6288 -0.7710 -0.1009
vn -0.8319 0.5352 0.1467
vn -0.1674 -0.9814 -0.0941
vn -0.2072 -0.9226 -0.3254
vn -0.8648 -0.0486 0.4997
vn -0.0132 -0.9580 0.2866
vn -0.9654 -0.1797 0.1889
vn -0.4871 -0.7303 -0.4790
vn -0.4455 -0.8950 -0.0201
vn -0.6856 -0.7249 -0.0674
vn 0.4998 -0.8561 0.1315
vn 0.4690 -0.8336 0.2919
vn 0.3003 -0.7029 0.6447
vn 0.3955 -0.8760 -0.2760
vn -0.4649 -0.7580 0.4575
vn -0.8109 -0.5843 -0.0308
vn -0.5889 0.8077 -0.0291
vn -0.7131 0.6401 0.2859
vn -0.1394 0.4889 0.8611
vn -0.0559 0.3843 0.9215
vn 0.1128 0.0433 0.9927
vn 0.2590 -0.0178 0.9657
vn 0.3815 -0.8122 0.4413
vn 0.3263 -0.8714 0.3664
vn 0.0625 -0.9976 -0.0313
vn 0.2555 -0.9666 -0.0175
vn 0.0566 -0.9119 -0.4066
vn -0.2396 -0.8963 -0.3730
vn -0.4680 -0.0842 -0.8797
vn -0.6977 -0.3234 -0.6393
vn -0.5830 0.2678 -0.7671
vn -0.8829 0.0718 -0.4640
vn -0.6620 0.2072 0.7203
vn -0.1014 -0.9939 0.0431
vn -0.6012 0.2089 -0.7713
vn -0.9100 0.3525 -0.2183
vn -0.9487 0.1612 -0.2720
vn -0.3205 -0.0157 0.9471
vn -0.8109 0.2282 0.5389
vn 0.3800 0.8496 -0.3657
vn 0.0095 0.9032 -0.4291
vn 0.3212 0.9330 -0.1621
vn 0.0049 0.9857 -0.1686
vn -0.8798 0.1203 -0.4599
vn -0.5121 0.0677 -0.8562
vn -0.7458 0.3748 -0.5507
vn 0.7098 -0.0255 -0.7039
vn 0.9056 0.0375 -0.4226
vn 0.9451 0.2879 -0.1546
vn 0.5177 0.0304 -0.8550
vn 0.6724 0.3279 -0.6636
vn 0.1147 0.1180 -0.9864
vn 0.2990 0.2220 -0.9281
vn -0.0253 0.0042 -0.9997
vn 0.5099 0.1684 -0.8436
vn -0.0160 0.1883 -0.9820
vn -0.0033 0.5788 -0.8154
vn 0.4334 0.5358 -0.7246
vn -0.4176 0.8539 -0.3107
vn -0.3552 0.9214 -0.1578
vn -0.3010 0.2337 -0.9246
vn 0.6882 0.1181 -0.7158
vn 0.4879 0.1063 -0.8664
vn 0.1188 0.2044 -0.9716
vn -0.4955 0.2203 -0.8402
vn -0.2134 0.2540 -0.9434
vn -0.5313 0.1499 -0.8338
vn -0.4470 0.5328 -0.7185
vn -0.8474 0.2271 -0.4799
vn 0.0062 0.1566 -0.9876
vn -0.6795 0.2370 -0.6943
vn -0.7384 0.2582 -0.6230
vn 0.7066 0.6760 -0.2092
vn 0.6995 0.6029 -0.3836
vn -0.9496 0.2826 -0.1356
vn 0.9701 0.2426 -0.0005
vn 0.8372 -0.2574 -0.4825
vn -0.9415 0.0158 -0.3366
vn -0.9812 0.0538 -0.1855
vn 0.9800 -0.0622 -0.1889
vn -0.7117 0.6084 -0.3511
vn -0.6881 0.6655 -0.2893
vn 0.9087 0.3334 -0.2514
vn 0.8627 0.2257 -0.4525
vn 0.9982 -0.0592 0.0060
vn 0.9801 -0.1493 -0.1310
vn 0.7916 0.4451 0.4187
vn 0.2333 0.2604 0.9369
vn -0.9806 -0.1874 -0.0568
vn -0.9972 0.0549 -0.0514
vn -0.0469 0.7680 -0.6387
vn -0.8332 0.3174 -0.4529
vn -0.1904 0.6937 -0.6946
vn -0.8047 0.1624 -0.5710
vn 0.1967 -0.9605 -0.1967
vn 0.6165 -0.7730 -0.1497
vn 0.0313 -0.9564 0.2903
vn 0.4278 -0.8638 0.2662
vn 0.8095 0.4802 -0.3379
vn 0.9783 0.1396 -0.1528
vn 0.7348 0.4484 -0.5089
vn 0.9319 0.0926 -0.3506
vn -0.9385 0.0603 -0.3399
vn -0.8565 -0.1386 -0.4972
vn -0.3701 -0.9128 -0.1726
vn -0.5122 -0.8159 0.2681
vn 0.0401 0.4455 -0.8944
vn 0.1800 -0.7694 -0.6128
vn -0.1963 -0.9346 0.2966
vn 0.2004 -0.9385 0.2813
vn -0.6414 -0.7298 0.2367
vn 0.3123 0.8418 -0.4403
vn -0.2312 0.2469 -0.9410
vn 0.2155 -0.9636 0.1580
vn 0.4583 -0.7071 0.5385
vn -0.2406 -0.9420 0.2338
vn 0.2703 -0.7335 0.6237
vn 0.6848 0.6074 0.4027
vn 0.7428 0.2694 0.6128
vn -0.2219 -0.9309 -0.2901
vn -0.6737 -0.7114 -0.2000
vn 0.2977 0.7998 -0.5212
vn -0.0996 0.2231 -0.9697
vn -0.1730 -0.0842 -0.9813
vn -0.3131 -0.0849 -0.9459
vn 0.2031 -0.8691 -0.4510
vn 0.5004 -0.8602 -0.0984
vn 0.6806 -0.6911 0.2433
vn 0.7637 0.5945 0.2516
vn 0.8411 0.1979 0.5034
vn 0.6420 0.4684 -0.6070
vn 0.6420 -0.7222 -0.2574
vn -0.2956 -0.6935 0.6570
vn -0.1701 -0.9413 0.2916
vn 0.5734 -0.0040 -0.8193
vn 0.6356 0.7105 -0.3019
vn -0.1510 0.1945 0.9692
vn -0.0420 0.1292 0.9907
vn -0.0421 -0.9786 -0.2014
vn 0.1788 0.6576 0.7318
vn -0.0516 -0.9262 0.3736
vn -0.2976 -0.7091 0.6393
vn -0.3423 0.2692 0.9002
vn 0.0467 0.7019 0.7108
vn 0.6743 0.7351 -0.0703
vn 0.8193 -0.0066 -0.5733
vn 0.7144 -0.3795 -0.5879
vn 0.4648 -0.3665 -0.8060
vn 0.1732 -0.9847 0.0202
vn -0.0814 -0.9442 0.3192
vn -0.3813 -0.7512 0.5389
vn -0.2674 -0.9067 0.3261
vn -0.3233 0.2680 0.9075
vn 0.2320 0.6951 0.6805
vn 0.7283 0.2961 0.6179
vn 0.9189 0.3924 -0.0400
vn 0.9463 -0.1631 -0.2790
vn 0.1820 -0.9803 0.0765
vn -0.4243 0.7730 -0.4717
vn -0.9047 0.4071 0.1257
vn -0.6008 0.6944 -0.3961
vn -0.9690 0.1891 0.1589
vn -0.9388 0.0692 0.3375
vn -0.8889 -0.3205 0.3272
vn -0.1312 -0.8882 0.4403
vn -0.3117 -0.9322 0.1842
vn -0.0050 -1.0000 -0.0009
vn 0.2387 -0.9499 0.2016
vn 0.5368 -0.8435 0.0186
vn 0.1738 -0.9695 -0.1728
vn 0.1003 0.4385 -0.8931
vn 0.4049 0.0747 -0.9113
vn 0.6840 0.0819 -0.7249
vn 0.4622 0.4335 -0.7736
vn -0.7065 0.2689 -0.6546
vn -0.1737 -0.9826 -0.0665
vn -0.4759 0.7776 -0.4108
vn -0.6985 0.5902 -0.4046
vn -0.7756 0.3935 0.4936
vn -0.8777 0.2377 0.4160
vn 0.2355 -0.9719 0.0052
vn 0.0585 -0.9980 -0.0226
vn 0.2959 -0.8500 -0.4358
vn 0.4241 -0.8329 -0.3555
vn 0.1632 0.3737 -0.9131
vn 0.3419 0.1592 -0.9262
vn -0.2026 0.3190 -0.9258
vn -0.0483 0.0919 -0.9946
vn -0.7156 -0.0130 0.6984
vn -0.7264 -0.1558 0.6694
vn -0.1532 -0.8941 0.4208
vn -0.0103 -0.9045 0.4264
vn -0.9282 0.1553 -0.3382
vn -0.0899 -0.9785 -0.1857
vn 0.8830 0.1424 -0.4472
vn 0.9106 -0.2170 -0.3518
vn 0.8270 -0.5457 -0.1351
vn 0.8538 -0.4740 0.2152
vn -0.5965 0.7795 0.1912
vn -0.7278 0.6346 0.2602
vn -0.4801 0.1941 0.8555
vn -0.6465 -0.2678 0.7143
vn -0.1952 -0.1336 0.9716
vn -0.3204 -0.6064 0.7278
vn 0.1882 0.4188 -0.8884
vn 0.8231 0.3754 -0.4262
vn -0.1018 0.7055 -0.7014
vn 0.4005 0.7368 -0.5448
vn 0.6023 -0.5678 0.5610
vn 0.5002 -0.8041 0.3212
vn -0.2846 0.9243 0.2543
vn 0.0763 0.8055 -0.5877
vn 0.0862 0.5391 0.8378
vn 0.2132 0.2204 0.9518
vn 0.8694 -0.2465 0.4282
vn 0.9783 -0.1878 0.0870
vn 0.5981 0.7997 0.0524
vn 0.9791 -0.1897 0.0732
vn 0.8376 -0.5463 0.0009
vn 0.9916 0.0020 0.1292
vn -0.7980 0.5674 0.2031
vn -0.8720 -0.2664 0.4106
vn -0.6223 -0.6639 0.4148
vn 0.2348 0.9714 -0.0339
vn 0.7494 0.6612 -0.0345
vn 0.4511 -0.8877 0.0927
vn -0.8046 0.5480 0.2287
vn -0.9436 -0.2912 0.1573
vn 0.9959 0.0170 -0.0884
vn 0.7959 -0.5850 -0.1558
vn 0.2601 0.9387 0.2262
vn -0.7586 -0.6474 0.0732
vn 0.4315 -0.8888 -0.1544
vn 0.8073 0.5889 -0.0377
vn -0.8856 0.3831 0.2627
vn -0.9515 -0.2615 -0.1622
vn -0.8068 -0.4759 -0.3500
vn 0.4888 -0.7339 -0.4718
vn 0.8016 -0.5772 -0.1557
vn 0.9810 0.0197 0.1929
vn -0.3595 0.3068 0.8813
vn 0.8512 0.2247 0.4743
vn 0.9700 -0.1552 -0.1873
vn 0.3250 0.3293 -0.8866
vn 0.4215 -0.7421 -0.5211
vn 0.7359 -0.6635 0.1350
vn 0.2130 -0.3558 0.9100
vn 0.8437 -0.1269 0.5216
vn -0.9024 0.2249 0.3675
vn -0.8431 -0.0115 0.5377
vn -0.9801 -0.1015 -0.1704
vn -0.7563 -0.3749 -0.5361
vn -0.2051 -0.9432 0.2614
vn -0.0120 -0.9539 0.2998
vn -0.2406 -0.8223 0.5158
vn -0.5277 -0.8026 0.2781
vn 0.8383 -0.1954 0.5089
vn 0.6950 -0.0442 0.7176
vn 0.3354 -0.0154 0.9420
vn 0.5712 -0.0203 -0.8205
vn 0.0022 0.0242 -0.9997
vn 0.0147 0.0276 -0.9995
vn 0.9681 0.0558 -0.2441
vn -0.9291 0.3686 0.0294
vn -0.9973 0.0701 0.0207
vn -0.8878 0.3627 0.2834
vn -0.0123 -0.0154 -0.9998
vn -0.8776 0.3240 -0.3533
vn 0.6858 -0.6996 0.2007
vn -0.4250 0.7145 -0.5557
vn 0.4181 0.7560 -0.5037
vn -0.3619 0.2460 -0.8992
vn 0.4754 0.3313 -0.8150
vn -0.2838 -0.3331 -0.8992
vn 0.5462 -0.1935 -0.8150
vn -0.2206 -0.8016 -0.5557
vn 0.6034 -0.6182 -0.5037
vn -0.1878 -0.9373 -0.2937
vn 0.6024 -0.7518 -0.2683
vn -0.1878 -0.9373 0.2937
vn 0.6024 -0.7518 0.2682
vn -0.2206 -0.8016 0.5557
vn 0.6034 -0.6182 0.5037
vn -0.2838 -0.3331 0.8992
vn 0.5462 -0.1935 0.8150
vn -0.3619 0.2460 0.8992
vn 0.4754 0.3313 0.8150
vn -0.4251 0.7145 0.5557
vn 0.4181 0.7560 0.5037
vn -0.4492 0.8934 -0.0000
vn 0.3962 0.9182 -0.0000
vn -0.6749 0.1461 -0.7233
vn -0.7258 0.5229 -0.4470
vn -0.6121 -0.3197 -0.7233
vn -0.5613 -0.6965 -0.4470
vn -0.5261 -0.8159 -0.2399
vn -0.5613 -0.6965 0.4470
vn -0.5260 -0.8159 0.2399
vn -0.6121 -0.3197 0.7233
vn -0.6749 0.1461 0.7233
vn -0.7258 0.5229 0.4470
vn -0.7452 0.6669 -0.0000
vn -0.8661 0.0464 -0.4978
vn -0.9519 -0.0284 -0.3050
vn -0.9010 0.3057 -0.3076
vn -0.9734 0.1305 -0.1885
vn -0.9254 -0.2248 -0.3050
vn -0.8228 -0.2742 -0.4978
vn -0.7878 -0.5335 -0.3076
vn -0.9040 -0.3837 -0.1885
vn -0.8958 -0.4444 -0.0000
vn -0.7745 -0.6326 -0.0000
vn -0.9040 -0.3837 0.1885
vn -0.7878 -0.5335 0.3077
vn -0.9254 -0.2248 0.3050
vn -0.8228 -0.2742 0.4978
vn -0.9519 -0.0284 0.3050
vn -0.8661 0.0464 0.4978
vn -0.9734 0.1305 0.1885
vn -0.9010 0.3057 0.3076
vn -0.9144 0.4048 -0.0000
vn -0.9815 0.1912 -0.0000
vn 0.9910 0.1337 -0.0000
vn 0.4250 0.7145 -0.5557
vn 0.3619 0.2460 -0.8992
vn -0.4181 0.7560 -0.5037
vn -0.4754 0.3313 -0.8150
vn 0.2838 -0.3331 -0.8992
vn -0.5462 -0.1935 -0.8150
vn 0.2206 -0.8016 -0.5557
vn -0.6034 -0.6182 -0.5037
vn 0.1878 -0.9373 -0.2937
vn -0.6024 -0.7518 -0.2682
vn 0.1878 -0.9373 0.2937
vn 0.2206 -0.8016 0.5557
vn -0.6024 -0.7518 0.2682
vn -0.6034 -0.6182 0.5037
vn 0.2838 -0.3331 0.8992
vn -0.5462 -0.1936 0.8150
vn 0.3619 0.2460 0.8992
vn -0.4754 0.3313 0.8150
vn 0.4250 0.7145 0.5557
vn -0.4181 0.7560 0.5037
vn 0.4492 0.8934 -0.0000
vn -0.3962 0.9182 -0.0000
vn 0.6749 0.1461 -0.7233
vn 0.7258 0.5229 -0.4470
vn 0.6121 -0.3197 -0.7233
vn 0.5613 -0.6965 -0.4470
vn 0.5261 -0.8159 -0.2399
vn 0.5613 -0.6965 0.4470
vn 0.5260 -0.8159 0.2399
vn 0.6121 -0.3197 0.7233
vn 0.6750 0.1461 0.7233
vn 0.7258 0.5229 0.4470
vn 0.7452 0.6669 -0.0000
vn 0.8661 0.0464 -0.4978
vn 0.9010 0.3058 -0.3077
vn 0.9519 -0.0284 -0.3050
vn 0.9734 0.1305 -0.1885
vn 0.9254 -0.2248 -0.3050
vn 0.8228 -0.2742 -0.4978
vn 0.7878 -0.5335 -0.3076
vn 0.9040 -0.3837 -0.1885
vn 0.8958 -0.4444 -0.0000
vn 0.7745 -0.6326 -0.0000
vn 0.9040 -0.3837 0.1885
vn 0.7878 -0.5335 0.3076
vn 0.8228 -0.2742 0.4978
vn 0.9254 -0.2248 0.3050
vn 0.9519 -0.0284 0.3050
vn 0.8661 0.0464 0.4978
vn 0.9734 0.1305 0.1885
vn 0.9010 0.3058 0.3076
vn 0.9144 0.4048 -0.0000
vn 0.9815 0.1912 -0.0000
vn -0.9910 0.1337 -0.0000
vt 0.351360 0.917172
vt 0.291387 0.839629
vt 0.351360 0.835525
vt 0.114567 0.776980
vt 0.046659 0.817196
vt 0.099368 0.747769
vt 0.434952 0.982221
vt 0.424921 0.906867
vt 0.512161 0.948268
vt 0.478633 0.881820
vt 0.129583 0.716247
vt 0.060672 0.657854
vt 0.081464 0.659556
vt 0.354582 0.996022
vt 0.283818 0.909268
vt 0.273361 0.985079
vt 0.195210 0.953557
vt 0.227218 0.884890
vt 0.408172 0.839568
vt 0.452126 0.806435
vt 0.253998 0.818138
vt 0.532679 0.840085
vt 0.584354 0.788562
vt 0.625572 0.856073
vt 0.572955 0.903767
vt 0.670986 0.810660
vt 0.621286 0.749532
vt 0.680135 0.734333
vt 0.301053 0.792300
vt 0.354157 0.789595
vt 0.545871 0.726643
vt 0.496719 0.770779
vt 0.404281 0.790841
vt 0.256825 0.764365
vt 0.498573 0.730078
vt 0.535962 0.700258
vt 0.080339 0.646850
vt 0.109612 0.667095
vt 0.620162 0.623353
vt 0.642321 0.616392
vt 0.622624 0.631956
vt 0.639616 0.631986
vt 0.202627 0.789169
vt 0.158460 0.754851
vt 0.207855 0.734090
vt 0.170680 0.707918
vt 0.142228 0.687886
vt 0.442460 0.762177
vt 0.141499 0.810630
vt 0.302451 0.751325
vt 0.356953 0.749197
vt 0.340174 0.672536
vt 0.360783 0.664177
vt 0.359932 0.705608
vt 0.394767 0.703389
vt 0.400360 0.751234
vt 0.024743 0.721597
vt 0.011672 0.698677
vt 0.055869 0.646273
vt 0.296554 0.704635
vt 0.041796 0.631226
vt 0.009605 0.620070
vt 0.574384 0.700106
vt 0.568183 0.674603
vt 0.603869 0.658462
vt 0.595054 0.648552
vt 0.618186 0.603139
vt 0.593473 0.583168
vt 0.673083 0.626393
vt 0.671290 0.660043
vt 0.924589 0.904982
vt 0.924589 0.850328
vt 0.968330 0.904526
vt 0.968330 0.850328
vt 0.924589 0.782786
vt 0.968330 0.782786
vt 0.924589 0.715244
vt 0.968330 0.715244
vt 0.924589 0.647732
vt 0.968330 0.647732
vt 0.924589 0.580189
vt 0.968330 0.580189
vt 0.968330 0.483557
vt 0.968330 0.526083
vt 0.924589 0.484895
vt 0.924589 0.527390
vt 0.924589 0.445105
vt 0.968330 0.445105
vt 0.968330 0.949666
vt 0.924589 0.951612
vt 0.905864 0.485442
vt 0.905864 0.445105
vt 0.905864 0.905347
vt 0.905864 0.850328
vt 0.905864 0.647732
vt 0.905864 0.715244
vt 0.905864 0.782786
vt 0.905864 0.580189
vt 0.983954 0.902216
vt 0.983954 0.946900
vt 0.983954 0.472918
vt 0.983954 0.445105
vt 0.983954 0.850328
vt 0.983954 0.782786
vt 0.983954 0.529822
vt 0.983954 0.580189
vt 0.983954 0.647732
vt 0.983954 0.715244
vt 0.725184 0.261445
vt 0.665393 0.223328
vt 0.724971 0.213783
vt 0.855222 0.275975
vt 0.789717 0.263269
vt 0.833701 0.233754
vt 0.792452 0.221899
vt 0.785370 0.297132
vt 0.839203 0.353062
vt 0.800143 0.353062
vt 0.796556 0.204937
vt 0.830601 0.164509
vt 0.762511 0.195210
vt 0.673661 0.201654
vt 0.634053 0.219741
vt 0.625998 0.179434
vt 0.662596 0.263269
vt 0.663599 0.297800
vt 0.724272 0.297952
vt 0.612015 0.239043
vt 0.582925 0.223540
vt 0.724819 0.191198
vt 0.626727 0.143839
vt 0.605814 0.200408
vt 0.626545 0.096206
vt 0.604446 0.275975
vt 0.615237 0.353062
vt 0.651805 0.348108
vt 0.632047 0.399844
vt 0.811359 0.401576
vt 0.604720 0.309412
vt 0.855800 0.311631
vt 0.670378 0.343274
vt 0.719317 0.312452
vt 0.763089 0.353062
vt 0.739440 0.305916
vt 0.647519 0.059669
vt 0.775339 0.054319
vt 0.725305 0.022889
vt 0.812545 0.089124
vt 0.829263 0.136392
vt 0.782269 0.884860
vt 0.782269 0.986477
vt 0.735245 0.884860
vt 0.691352 0.986477
vt 0.691352 0.884860
vt 0.088881 0.539761
vt 0.050884 0.595388
vt 0.005319 0.547573
vt 0.141043 0.431639
vt 0.144173 0.502464
vt 0.199192 0.510854
vt 0.085355 0.405649
vt 0.140191 0.326951
vt 0.052222 0.469757
vt 0.691808 0.478693
vt 0.702933 0.429268
vt 0.739561 0.478693
vt 0.739561 0.429268
vt 0.260564 0.620891
vt 0.246338 0.637245
vt 0.239347 0.588822
vt 0.209649 0.608276
vt 0.233663 0.658948
vt 0.183173 0.638734
vt 0.784367 0.478693
vt 0.773485 0.429268
vt 0.226063 0.680743
vt 0.168795 0.667642
vt 0.283088 0.607820
vt 0.277404 0.574475
vt 0.712356 0.390633
vt 0.739561 0.390633
vt 0.764396 0.390633
vt 0.281447 0.648613
vt 0.297223 0.640436
vt 0.271294 0.656547
vt 0.263148 0.671563
vt 0.263056 0.688403
vt 0.739561 0.359719
vt 0.284973 0.670074
vt 0.739561 0.541767
vt 0.691808 0.541767
vt 0.221929 0.543561
vt 0.174510 0.571070
vt 0.138276 0.605875
vt 0.784367 0.541767
vt 0.110858 0.639859
vt 0.261385 0.530095
vt 0.784367 0.598458
vt 0.739561 0.598458
vt 0.248192 0.495838
vt 0.691808 0.598458
vt 0.691808 0.644814
vt 0.235760 0.453768
vt 0.185422 0.476262
vt 0.784367 0.644814
vt 0.735762 0.986477
vt 0.739561 0.672536
vt 0.553896 0.129552
vt 0.575964 0.066204
vt 0.572651 0.136969
vt 0.587971 0.069639
vt 0.599036 0.146879
vt 0.600008 0.073074
vt 0.691352 0.797164
vt 0.691352 0.742449
vt 0.735488 0.742449
vt 0.735488 0.797164
vt 0.782269 0.797164
vt 0.782269 0.742449
vt 0.507844 0.115083
vt 0.551890 0.059335
vt 0.532557 0.122318
vt 0.563927 0.062770
vt 0.591953 0.034622
vt 0.735488 0.684300
vt 0.498968 0.192778
vt 0.516021 0.209892
vt 0.492372 0.178157
vt 0.586117 0.205758
vt 0.558060 0.205120
vt 0.276158 0.392822
vt 0.326799 0.395557
vt 0.271507 0.441001
vt 0.327042 0.448996
vt 0.465440 0.270352
vt 0.389448 0.252630
vt 0.440028 0.201502
vt 0.146119 0.187094
vt 0.183325 0.272024
vt 0.128397 0.215880
vt 0.259257 0.260564
vt 0.208706 0.197581
vt 0.230805 0.189161
vt 0.293484 0.205940
vt 0.324671 0.255670
vt 0.270899 0.312543
vt 0.325675 0.306008
vt 0.326708 0.351938
vt 0.278468 0.354217
vt 0.374340 0.396834
vt 0.382547 0.439117
vt 0.366012 0.207095
vt 0.258284 0.189526
vt 0.244423 0.182626
vt 0.331116 0.188705
vt 0.313485 0.187216
vt 0.323911 0.165543
vt 0.377684 0.311418
vt 0.370419 0.355038
vt 0.430605 0.345220
vt 0.408993 0.184541
vt 0.393278 0.182170
vt 0.402306 0.171652
vt 0.216974 0.413340
vt 0.250107 0.378201
vt 0.472614 0.188249
vt 0.176668 0.189587
vt 0.156241 0.183264
vt 0.494865 0.330933
vt 0.514562 0.289228
vt 0.137425 0.285277
vt 0.401394 0.379690
vt 0.435864 0.409935
vt 0.178735 0.372729
vt 0.213205 0.337469
vt 0.093562 0.238192
vt 0.100189 0.291235
vt 0.106451 0.205393
vt 0.088364 0.201442
vt 0.570037 0.214968
vt 0.549306 0.305035
vt 0.274851 0.111679
vt 0.297344 0.110281
vt 0.263816 0.046264
vt 0.281173 0.044866
vt 0.250107 0.113047
vt 0.226154 0.115448
vt 0.246460 0.047632
vt 0.233146 0.048726
vt 0.325097 0.110341
vt 0.297071 0.043589
vt 0.260412 0.012797
vt 0.178431 0.118427
vt 0.200894 0.116603
vt 0.155846 0.120281
vt 0.131224 0.124202
vt 0.158126 0.057420
vt 0.174996 0.054745
vt 0.192201 0.052039
vt 0.141134 0.060095
vt 0.128185 0.062131
vt 0.153992 0.024013
vt 0.107636 0.127941
vt 0.088303 0.139492
vt 0.044835 0.164357
vt 0.030670 0.196335
vt 0.068940 0.151043
vt 0.735488 0.761174
vt 0.782269 0.761174
vt 0.028026 0.126361
vt 0.045808 0.112165
vt 0.063043 0.103776
vt 0.080309 0.095416
vt 0.099033 0.089701
vt 0.691352 0.761174
vt 0.022098 0.100706
vt 0.033771 0.091920
vt 0.028968 0.055748
vt 0.058028 0.081859
vt 0.082284 0.071767
vt 0.370145 0.110341
vt 0.392791 0.110341
vt 0.365434 0.041765
vt 0.379599 0.041765
vt 0.416410 0.109338
vt 0.393886 0.041765
vt 0.351360 0.041765
vt 0.337286 0.041765
vt 0.347621 0.110341
vt 0.367835 0.011094
vt 0.461367 0.112013
vt 0.468875 0.045382
vt 0.483861 0.113351
vt 0.483375 0.046629
vt 0.438904 0.110676
vt 0.454376 0.044167
vt 0.439876 0.042951
vt 0.497874 0.047845
vt 0.478937 0.012979
vt 0.981188 0.270200
vt 0.971522 0.339627
vt 0.927142 0.270200
vt 0.927142 0.339627
vt 0.504014 0.452248
vt 0.473435 0.496841
vt 0.483496 0.433767
vt 0.433493 0.477174
vt 0.464559 0.409966
vt 0.403825 0.458115
vt 0.595844 0.477113
vt 0.566419 0.545294
vt 0.539427 0.463951
vt 0.513346 0.526508
vt 0.875315 0.339627
vt 0.865679 0.270200
vt 0.559732 0.394524
vt 0.576876 0.395071
vt 0.547209 0.385982
vt 0.535445 0.376073
vt 0.892824 0.414616
vt 0.927142 0.410300
vt 0.574475 0.375739
vt 0.927142 0.433007
vt 0.927142 0.209041
vt 0.983377 0.209041
vt 0.449816 0.538120
vt 0.408993 0.520854
vt 0.370814 0.505169
vt 0.500063 0.554656
vt 0.537238 0.574748
vt 0.863460 0.209041
vt 0.436654 0.574839
vt 0.396560 0.560705
vt 0.983377 0.162716
vt 0.927142 0.162716
vt 0.484743 0.595054
vt 0.355372 0.552589
vt 0.863460 0.162716
vt 0.523712 0.603322
vt 0.432277 0.610860
vt 0.392335 0.609158
vt 0.354278 0.613626
vt 0.863460 0.114202
vt 0.927142 0.095690
vt 0.983377 0.100371
vt 0.474438 0.623080
vt 0.506172 0.622806
vt 0.962555 0.414616
vt 0.596908 0.403066
vt 0.863460 0.069427
vt 0.927142 0.030518
vt 0.481520 0.638278
vt 0.513498 0.643233
vt 0.440545 0.637245
vt 0.491369 0.706125
vt 0.395649 0.651592
vt 0.361361 0.649616
vt 0.983377 0.066934
vt 0.968330 0.985383
vt 0.983954 0.985383
vt 0.924589 0.985383
vt 0.905864 0.951612
vt 0.905864 0.985383
vt 0.153748 0.324398
vt 0.137243 0.914649
vt 0.075810 0.851848
vt 0.177063 0.847745
vt 0.905864 0.526812
vt 0.471976 0.369750
vt 0.850389 0.769259
vt 0.824126 0.769259
vt 0.850389 0.823032
vt 0.824126 0.823032
vt 0.850389 0.876835
vt 0.824126 0.876835
vt 0.850389 0.930607
vt 0.824126 0.930607
vt 0.850389 0.984410
vt 0.824126 0.984410
vt 0.850389 0.446503
vt 0.824126 0.446503
vt 0.850389 0.500306
vt 0.824126 0.500306
vt 0.850389 0.554078
vt 0.824126 0.554048
vt 0.850389 0.607881
vt 0.824126 0.608003
vt 0.850389 0.661654
vt 0.824126 0.661654
vt 0.850389 0.715456
vt 0.824126 0.715456
vt 0.866013 0.823032
vt 0.866013 0.769259
vt 0.866013 0.876835
vt 0.866013 0.930607
vt 0.866013 0.984410
vt 0.866013 0.500306
vt 0.866013 0.446503
vt 0.866013 0.554078
vt 0.866013 0.607881
vt 0.866013 0.661654
vt 0.866013 0.715456
vt 0.006018 0.954864
vt 0.034318 0.945654
vt 0.028178 0.983893
vt 0.044926 0.960336
vt 0.034257 0.927537
vt 0.006839 0.918357
vt 0.028390 0.889784
vt 0.044926 0.913007
vt 0.062040 0.907536
vt 0.062222 0.879236
vt 0.079062 0.913159
vt 0.095720 0.890392
vt 0.089580 0.927659
vt 0.116390 0.918935
vt 0.089610 0.945593
vt 0.116482 0.954165
vt 0.079154 0.960153
vt 0.095963 0.982890
vt 0.062405 0.994289
vt 0.062101 0.965807
vt 0.790507 0.715456
s 1
usemtl Mdl_0_Mtl_lambert2
f 1/1/1 2/2/2 3/3/3
f 4/4/4 5/5/5 6/6/6
f 7/7/7 8/8/8 9/9/9
f 9/9/9 8/8/8 10/10/10
f 6/6/6 11/11/11 4/4/4
f 6/6/6 12/12/12 11/11/11
f 11/11/11 12/12/12 13/13/13
f 7/7/7 14/14/14 8/8/8
f 14/14/14 1/1/1 8/8/8
f 14/14/14 15/15/15 1/1/1
f 1/1/1 15/15/15 2/2/2
f 16/16/16 15/15/15 14/14/14
f 16/16/16 17/17/17 15/15/15
f 15/15/15 17/17/17 18/18/18
f 15/15/15 18/18/18 2/2/2
f 1/1/1 3/3/3 19/19/19
f 8/8/8 19/19/19 10/10/10
f 8/8/8 1/1/1 19/19/19
f 10/10/10 19/19/19 20/20/20
f 2/2/2 18/18/18 21/21/21
f 10/10/10 20/20/20 22/22/22
f 23/23/23 24/24/24 22/22/22
f 22/22/22 25/25/25 10/10/10
f 10/10/10 25/25/25 9/9/9
f 22/22/22 24/24/24 25/25/25
f 24/24/24 23/23/23 26/26/26
f 26/26/26 23/23/23 27/27/27
f 27/27/27 28/28/28 26/26/26
f 29/29/29 3/3/3 2/2/2
f 30/30/30 3/3/3 29/29/29
f 23/23/23 31/31/31 27/27/27
f 31/31/31 23/23/23 32/32/32
f 32/32/32 23/23/23 22/22/22
f 22/22/22 20/20/20 32/32/32
f 33/33/33 3/3/3 30/30/30
f 19/19/19 3/3/3 33/33/33
f 34/34/34 2/2/2 21/21/21
f 29/29/29 2/2/2 34/34/34
f 35/35/35 31/31/31 32/32/32
f 36/36/36 31/31/31 35/35/35
f 37/37/37 38/38/38 13/13/13
f 39/39/39 40/40/40 41/41/41
f 41/41/41 40/40/40 42/42/42
f 43/43/43 34/34/34 21/21/21
f 4/4/4 11/11/11 44/44/44
f 45/45/45 34/34/34 43/43/43
f 43/43/43 44/44/44 45/45/45
f 11/11/11 46/46/46 44/44/44
f 45/45/45 44/44/44 46/46/46
f 47/47/47 13/13/13 38/38/38
f 11/11/11 13/13/13 47/47/47
f 47/47/47 46/46/46 11/11/11
f 32/32/32 48/48/48 35/35/35
f 19/19/19 33/33/33 48/48/48
f 19/19/19 48/48/48 20/20/20
f 20/20/20 48/48/48 32/32/32
f 44/44/44 43/43/43 49/49/49
f 4/4/4 44/44/44 49/49/49
f 49/49/49 5/5/5 4/4/4
f 50/50/50 30/30/30 29/29/29
f 34/34/34 50/50/50 29/29/29
f 51/51/51 30/30/30 50/50/50
f 52/52/52 53/53/53 54/54/54
f 50/50/50 54/54/54 51/51/51
f 54/54/54 53/53/53 55/55/55
f 48/48/48 56/56/56 55/55/55
f 54/54/54 56/56/56 51/51/51
f 30/30/30 56/56/56 33/33/33
f 51/51/51 56/56/56 30/30/30
f 54/54/54 55/55/55 56/56/56
f 33/33/33 56/56/56 48/48/48
f 5/5/5 57/57/57 6/6/6
f 6/6/6 57/57/57 12/12/12
f 57/57/57 58/58/58 12/12/12
f 12/12/12 58/58/58 59/59/59
f 37/37/37 13/13/13 59/59/59
f 59/59/59 13/13/13 12/12/12
f 60/60/60 52/52/52 54/54/54
f 60/60/60 54/54/54 50/50/50
f 34/34/34 60/60/60 50/50/50
f 58/58/58 61/61/61 59/59/59
f 58/58/58 62/62/62 61/61/61
f 27/27/27 31/31/31 63/63/63
f 64/64/64 31/31/31 36/36/36
f 63/63/63 31/31/31 64/64/64
f 65/65/65 27/27/27 63/63/63
f 63/63/63 64/64/64 65/65/65
f 28/28/28 27/27/27 65/65/65
f 41/41/41 42/42/42 65/65/65
f 41/41/41 66/66/66 39/39/39
f 65/65/65 66/66/66 41/41/41
f 65/65/65 64/64/64 66/66/66
f 66/66/66 67/67/67 39/39/39
f 68/68/68 67/67/67 66/66/66
f 40/40/40 69/69/69 42/42/42
f 42/42/42 69/69/69 70/70/70
f 71/42/71 28/28/28 65/65/65
f 72/71/72 73/72/73 74/73/74
f 74/73/74 73/72/73 75/74/75
f 73/72/73 76/75/76 75/74/75
f 75/74/75 76/75/76 77/76/77
f 76/75/76 78/77/78 77/76/77
f 77/76/77 78/77/78 79/78/79
f 78/77/78 80/79/80 79/78/79
f 79/78/79 80/79/80 81/80/81
f 80/79/80 82/81/82 81/80/81
f 81/80/81 82/81/82 83/82/83
f 84/83/84 85/84/85 86/85/86
f 82/81/82 87/86/87 83/82/83
f 86/85/86 85/84/85 87/86/87
f 83/82/83 87/86/87 85/84/85
f 86/85/86 88/87/88 84/83/84
f 84/83/84 88/87/88 89/88/89
f 74/73/74 90/89/90 72/71/72
f 72/71/72 90/89/90 91/90/91
f 86/85/86 92/91/92 88/87/88
f 88/87/88 92/91/92 93/92/93
f 72/71/72 94/93/94 73/72/73
f 91/90/91 94/93/94 72/71/72
f 73/72/73 95/94/95 76/75/76
f 73/72/73 94/93/94 95/94/95
f 80/79/80 78/77/78 96/95/96
f 96/95/96 78/77/78 97/96/97
f 76/75/76 95/94/95 98/97/96
f 78/77/78 98/97/96 97/96/97
f 76/75/76 98/97/96 78/77/78
f 82/81/82 80/79/80 99/98/98
f 99/98/98 80/79/80 96/95/96
f 74/73/74 75/74/75 100/99/99
f 100/99/99 90/89/90 74/73/74
f 101/100/100 90/89/90 100/99/99
f 84/83/84 89/88/89 102/101/101
f 102/101/101 89/88/89 103/102/102
f 75/74/75 77/76/77 104/103/103
f 100/99/99 75/74/75 104/103/103
f 77/76/77 79/78/79 105/104/104
f 104/103/103 77/76/77 105/104/104
f 85/84/85 84/83/84 106/105/105
f 85/84/85 106/105/105 83/82/83
f 106/105/105 84/83/84 102/101/101
f 83/82/83 106/105/105 107/106/106
f 83/82/83 107/106/106 81/80/81
f 81/80/81 107/106/106 108/107/107
f 81/80/81 108/107/107 79/78/79
f 79/78/79 108/107/107 109/108/108
f 105/104/104 79/78/79 109/108/108
f 110/109/109 111/110/110 112/111/111
f 113/112/112 114/113/113 115/114/114
f 115/114/114 114/113/113 116/115/115
f 116/115/115 110/109/109 112/111/111
f 116/115/115 114/113/113 110/109/109
f 114/113/113 113/112/112 117/116/116
f 114/113/113 117/116/116 110/109/109
f 117/116/116 118/117/117 119/118/118
f 120/119/119 116/115/115 112/111/111
f 120/119/119 115/114/114 116/115/115
f 120/119/119 121/120/120 115/114/114
f 122/121/121 121/120/120 120/119/119
f 120/119/119 112/111/111 122/121/121
f 112/111/111 111/110/110 123/122/122
f 123/122/122 111/110/110 124/123/123
f 125/124/124 123/122/122 124/123/123
f 110/109/109 126/125/125 111/110/110
f 127/126/126 126/125/125 128/127/127
f 128/127/127 126/125/125 110/109/109
f 110/109/109 117/116/116 128/127/127
f 111/110/110 126/125/125 129/128/128
f 125/124/124 124/123/123 129/128/128
f 124/123/123 111/110/110 129/128/128
f 129/128/128 130/129/129 125/124/124
f 125/124/124 121/120/120 131/130/130
f 112/111/111 123/122/122 131/130/130
f 122/121/121 112/111/111 131/130/130
f 131/130/130 121/120/120 122/121/121
f 125/124/124 131/130/130 123/122/122
f 132/131/131 121/120/120 125/124/124
f 125/124/124 130/129/129 132/131/131
f 132/131/131 130/129/129 133/132/132
f 132/131/131 133/132/132 134/133/133
f 127/126/126 135/134/134 126/125/125
f 129/128/128 126/125/125 135/134/134
f 136/135/135 127/126/126 137/136/136
f 137/136/136 138/137/137 136/135/135
f 139/138/138 119/118/118 118/117/117
f 140/139/139 135/134/134 127/126/126
f 136/135/135 140/139/139 127/126/126
f 117/116/116 113/112/112 141/140/140
f 117/116/116 141/140/140 118/117/117
f 128/127/127 142/141/141 127/126/126
f 127/126/126 142/141/141 137/136/136
f 137/136/136 142/141/141 138/137/137
f 142/141/141 128/127/127 143/142/142
f 144/143/143 117/116/116 119/118/118
f 139/138/138 144/143/143 119/118/118
f 143/142/142 128/127/127 145/144/144
f 117/116/116 145/144/144 128/127/127
f 144/143/143 145/144/144 117/116/116
f 146/145/145 147/146/146 134/133/133
f 146/145/145 148/147/147 147/146/146
f 134/133/133 147/146/146 149/148/148
f 134/133/133 149/148/148 132/131/131
f 132/131/131 149/148/148 150/149/149
f 150/149/149 121/120/120 132/131/131
f 151/150/150 152/151/151 153/152/152
f 153/152/152 152/151/151 154/153/153
f 153/152/152 154/153/153 155/154/154
f 156/152/155 157/151/156 158/153/157
f 156/152/155 159/150/158 157/151/156
f 160/154/159 156/152/155 158/153/157
f 161/155/160 162/156/161 163/157/162
f 161/155/160 164/158/163 165/159/164
f 165/159/164 164/158/163 166/160/165
f 167/161/166 168/162/167 164/158/163
f 161/155/160 169/163/168 164/158/163
f 169/163/168 161/155/160 163/157/162
f 164/158/163 169/163/168 167/161/166
f 170/164/169 171/165/170 172/166/171
f 172/166/171 171/165/170 173/167/172
f 174/168/173 175/169/174 176/170/175
f 176/170/175 175/169/174 177/171/176
f 178/172/177 177/171/176 175/169/174
f 179/173/178 177/171/176 178/172/177
f 173/167/172 180/174/179 172/166/171
f 181/175/180 180/174/179 173/167/172
f 182/176/181 179/173/178 178/172/177
f 183/177/182 179/173/178 182/176/181
f 174/168/173 176/170/175 184/178/183
f 184/178/183 176/170/175 185/179/184
f 171/165/170 186/180/185 173/167/172
f 173/167/172 186/180/185 187/181/186
f 173/167/172 188/182/187 181/175/180
f 187/181/186 188/182/187 173/167/172
f 184/178/183 189/183/188 174/168/173
f 190/184/189 189/183/188 184/178/183
f 189/183/188 191/185/190 174/168/173
f 175/169/174 191/185/190 178/172/177
f 174/168/173 191/185/190 175/169/174
f 178/172/177 191/185/190 192/186/191
f 178/172/177 192/186/191 182/176/181
f 182/176/181 192/186/191 193/187/192
f 187/181/186 194/188/193 188/182/187
f 186/180/185 194/188/193 187/181/186
f 192/186/191 195/189/194 193/187/192
f 190/184/189 195/189/194 189/183/188
f 189/183/188 195/189/194 191/185/190
f 191/185/190 195/189/194 192/186/191
f 172/166/171 196/190/195 170/164/169
f 170/164/169 196/190/195 197/191/196
f 176/170/175 177/171/176 198/192/197
f 176/170/175 198/192/197 185/179/184
f 198/192/197 177/171/176 199/193/198
f 198/192/197 199/193/198 166/160/165
f 166/160/165 199/193/198 165/159/164
f 177/171/176 179/173/178 199/193/198
f 199/193/198 200/194/199 165/159/164
f 199/193/198 179/173/178 200/194/199
f 165/159/164 200/194/199 161/155/160
f 179/173/178 183/177/182 200/194/199
f 172/166/171 201/195/200 196/190/195
f 180/174/179 201/195/200 172/166/171
f 200/194/199 183/177/182 202/196/201
f 161/155/160 202/196/201 162/156/161
f 200/194/199 202/196/201 161/155/160
f 198/192/197 166/160/165 203/197/202
f 185/179/184 198/192/197 203/197/202
f 201/195/200 204/198/203 196/190/195
f 196/190/195 204/198/203 205/199/204
f 203/197/202 166/160/165 206/200/205
f 197/191/196 196/190/195 207/201/206
f 207/201/206 196/190/195 205/199/204
f 207/201/206 205/199/204 208/202/207
f 209/203/208 206/200/205 166/160/165
f 209/203/208 166/160/165 210/204/209
f 205/199/204 204/198/203 211/205/210
f 212/154/211 213/152/212 214/206/213
f 215/152/214 216/206/215 217/154/216
f 218/150/217 216/206/215 215/152/214
f 213/152/212 219/150/218 214/206/213
f 205/199/204 220/207/219 208/202/207
f 211/205/210 220/207/219 205/199/204
f 221/208/220 222/209/221 223/210/222
f 223/210/222 222/209/221 224/211/223
f 223/210/222 224/211/223 225/212/224
f 225/212/224 224/211/223 226/213/225
f 227/214/226 215/152/214 217/154/216
f 228/215/227 229/216/228 227/214/226
f 227/214/226 229/216/228 230/217/229
f 230/217/229 218/150/217 215/152/214
f 230/217/229 215/152/214 227/214/226
f 231/218/230 218/150/217 230/217/229
f 230/217/229 229/216/228 231/218/230
f 231/218/230 229/216/228 232/219/231
f 233/220/232 234/221/233 235/222/234
f 235/222/234 234/221/233 236/223/235
f 235/222/234 236/223/235 221/208/220
f 221/208/220 236/223/235 222/209/221
f 236/223/235 237/224/236 222/209/221
f 224/211/223 237/224/236 226/213/225
f 222/209/221 237/224/236 224/211/223
f 234/221/233 237/224/236 236/223/235
f 229/216/228 238/225/237 232/219/231
f 228/215/227 238/225/237 229/216/228
f 221/208/220 239/226/238 235/222/234
f 240/227/239 239/226/238 221/208/220
f 241/228/240 235/222/234 239/226/238
f 233/220/232 235/222/234 241/228/240
f 242/229/241 223/210/222 225/212/224
f 240/227/239 221/208/220 243/230/242
f 223/210/222 242/229/241 243/230/242
f 243/230/242 221/208/220 223/210/222
f 244/231/243 245/232/244 246/233/245
f 246/233/245 245/232/244 247/234/246
f 248/235/247 239/226/238 240/227/239
f 248/235/247 249/236/248 250/237/249
f 251/238/250 252/239/251 253/240/252
f 254/241/253 252/239/251 255/242/254
f 256/243/255 254/241/253 255/242/254
f 254/241/253 257/244/256 258/245/257
f 254/241/253 258/245/257 259/246/258
f 259/246/258 258/245/257 260/247/259
f 260/247/259 261/248/260 259/246/258
f 244/231/243 262/249/261 245/232/244
f 259/246/258 261/248/260 262/249/261
f 245/232/244 262/249/261 261/248/260
f 263/250/262 247/234/246 245/232/244
f 264/251/263 247/234/246 263/250/262
f 249/236/248 258/245/257 265/252/264
f 256/243/255 266/253/265 254/241/253
f 266/253/265 257/244/256 254/241/253
f 267/254/266 266/253/265 256/243/255
f 268/255/267 265/252/264 258/245/257
f 258/245/257 269/256/268 268/255/267
f 269/256/268 258/245/257 257/244/256
f 268/255/267 269/256/268 270/257/269
f 249/236/248 248/235/247 271/258/270
f 249/236/248 271/258/270 258/245/257
f 258/245/257 271/258/270 260/247/259
f 260/247/259 271/258/270 261/248/260
f 261/248/260 271/258/270 272/259/271
f 272/259/271 245/232/244 261/248/260
f 263/250/262 245/232/244 272/259/271
f 271/258/270 273/260/272 272/259/271
f 271/258/270 248/235/247 273/260/272
f 249/236/248 274/261/273 250/237/249
f 249/236/248 275/262/274 274/261/273
f 275/262/274 249/236/248 265/252/264
f 274/261/273 275/262/274 276/263/275
f 246/233/245 277/264/276 244/231/243
f 244/231/243 277/264/276 278/265/277
f 244/231/243 278/265/277 262/249/261
f 239/226/238 279/266/278 241/228/240
f 248/235/247 279/266/278 239/226/238
f 279/266/278 248/235/247 250/237/249
f 252/239/251 251/238/250 280/267/279
f 280/267/279 255/242/254 252/239/251
f 280/267/279 251/238/250 281/268/280
f 248/235/247 282/269/281 273/260/272
f 240/227/239 283/270/282 248/235/247
f 282/269/281 248/235/247 283/270/282
f 243/230/242 283/270/282 240/227/239
f 253/240/252 252/239/251 284/271/283
f 272/259/271 273/260/272 285/272/284
f 285/272/284 264/251/263 263/250/262
f 285/272/284 263/250/262 272/259/271
f 286/273/285 264/251/263 285/272/284
f 285/272/284 273/260/272 286/273/285
f 277/264/276 287/274/286 278/265/277
f 278/265/277 287/274/286 288/275/287
f 254/241/253 288/275/287 252/239/251
f 278/265/277 288/275/287 262/249/261
f 259/246/258 288/275/287 254/241/253
f 262/249/261 288/275/287 259/246/258
f 253/240/252 284/271/283 289/276/288
f 289/276/288 284/271/283 290/277/289
f 289/276/288 291/278/290 253/240/252
f 289/276/288 292/279/291 291/278/290
f 293/280/292 283/270/282 243/230/242
f 293/280/292 243/230/242 242/229/241
f 283/270/282 293/280/292 294/281/293
f 257/244/256 266/253/265 295/282/294
f 257/244/256 295/282/294 269/256/268
f 269/256/268 295/282/294 296/283/295
f 296/283/295 270/257/269 269/256/268
f 295/282/294 297/284/296 296/283/295
f 296/283/295 297/284/296 298/285/297
f 299/216/298 300/219/299 301/217/300
f 301/217/300 300/219/299 302/218/301
f 295/282/294 266/253/265 303/286/302
f 295/282/294 303/286/302 297/284/296
f 267/254/266 303/286/302 266/253/265
f 304/287/303 303/286/302 267/254/266
f 303/286/302 304/287/303 305/288/304
f 297/284/296 303/286/302 305/288/304
f 305/288/304 304/287/303 306/289/305
f 296/283/295 307/290/306 270/257/269
f 298/285/297 307/290/306 296/283/295
f 308/291/307 307/290/306 298/285/297
f 299/216/298 301/217/300 309/215/308
f 309/215/308 301/217/300 310/214/309
f 297/284/296 311/292/310 298/285/297
f 298/285/297 311/292/310 308/291/307
f 305/288/304 311/292/310 297/284/296
f 306/289/305 311/292/310 305/288/304
f 309/215/308 312/225/311 299/216/298
f 299/216/298 312/225/311 300/219/299
f 301/217/300 302/218/301 313/152/312
f 301/217/300 313/152/312 310/214/309
f 313/152/312 302/218/301 314/150/313
f 310/214/309 313/152/312 315/154/314
f 255/242/254 280/267/279 316/293/315
f 255/242/254 316/293/315 256/243/255
f 256/243/255 316/293/315 317/294/316
f 317/294/316 267/254/266 256/243/255
f 318/217/317 319/218/318 320/152/319
f 320/152/319 319/218/318 321/150/320
f 322/295/321 280/267/279 281/268/280
f 316/293/315 280/267/279 322/295/321
f 322/295/321 281/268/280 323/296/322
f 324/214/323 318/217/317 320/152/319
f 324/214/323 320/152/319 325/154/324
f 322/295/321 326/297/325 316/293/315
f 316/293/315 327/298/326 317/294/316
f 326/297/325 327/298/326 316/293/315
f 327/298/326 328/299/327 317/294/316
f 317/294/316 329/287/328 267/254/266
f 317/294/316 328/299/327 329/287/328
f 324/214/323 330/215/329 318/217/317
f 318/217/317 331/216/330 319/218/318
f 318/217/317 330/215/329 331/216/330
f 319/218/318 331/216/330 332/219/331
f 333/300/332 326/297/325 322/295/321
f 323/296/322 333/300/332 322/295/321
f 334/301/333 333/300/332 323/296/322
f 334/301/333 335/302/334 333/300/332
f 333/300/332 335/302/334 326/297/325
f 327/298/326 335/302/334 328/299/327
f 326/297/325 335/302/334 327/298/326
f 331/216/330 336/225/335 332/219/331
f 330/215/329 336/225/335 331/216/330
f 213/152/212 337/218/336 219/150/218
f 338/217/337 337/218/336 213/152/212
f 339/303/338 281/268/280 251/238/250
f 339/303/338 251/238/250 340/304/339
f 291/278/290 340/304/339 253/240/252
f 340/304/339 251/238/250 253/240/252
f 341/305/340 292/279/291 342/306/341
f 338/217/337 213/152/212 343/214/342
f 343/214/342 213/152/212 212/154/211
f 292/279/291 344/307/343 291/278/290
f 341/305/340 344/307/343 292/279/291
f 344/307/343 340/304/339 291/278/290
f 338/217/337 345/308/344 337/218/336
f 337/218/336 345/308/344 346/309/345
f 341/305/340 347/310/346 344/307/343
f 344/307/343 347/310/346 348/311/347
f 348/311/347 349/312/348 344/307/343
f 344/307/343 349/312/348 340/304/339
f 340/304/339 350/313/349 339/303/338
f 349/312/348 350/313/349 340/304/339
f 350/313/349 351/314/350 339/303/338
f 352/296/351 281/268/280 339/303/338
f 339/303/338 351/314/350 352/296/351
f 338/217/337 353/315/352 345/308/344
f 343/214/342 353/315/352 338/217/337
f 345/308/344 354/216/353 346/309/345
f 346/309/345 354/216/353 355/219/354
f 354/216/353 356/225/355 355/219/354
f 347/310/346 357/316/356 348/311/347
f 348/311/347 357/316/356 358/317/357
f 357/316/356 359/318/358 358/317/357
f 349/312/348 348/311/347 360/319/359
f 360/319/359 348/311/347 358/317/357
f 349/312/348 360/319/359 350/313/349
f 358/317/357 359/318/358 360/319/359
f 361/320/360 350/313/349 360/319/359
f 360/319/359 359/318/358 361/320/360
f 351/314/350 350/313/349 361/320/360
f 362/215/361 356/225/355 354/216/353
f 345/308/344 362/215/361 354/216/353
f 353/315/352 362/215/361 345/308/344
f 275/262/274 265/252/264 363/321/362
f 364/322/363 275/262/274 363/321/362
f 364/322/363 276/263/275 275/262/274
f 363/321/362 365/323/364 364/322/363
f 364/322/363 365/323/364 366/324/365
f 364/322/363 366/324/365 367/325/366
f 364/322/363 367/325/366 276/263/275
f 367/325/366 366/324/365 368/326/367
f 369/214/368 153/152/152 155/154/154
f 370/215/369 371/216/370 369/214/368
f 369/214/368 371/216/370 372/217/371
f 372/217/371 153/152/152 369/214/368
f 153/152/152 373/218/372 151/150/150
f 372/217/371 371/216/370 373/218/372
f 372/217/371 373/218/372 153/152/152
f 373/218/372 371/216/370 374/219/373
f 363/321/362 375/327/374 365/323/364
f 376/328/375 375/327/374 377/290/376
f 270/257/269 378/329/377 268/255/267
f 265/252/264 268/255/267 378/329/377
f 363/321/362 265/252/264 378/329/377
f 377/290/376 378/329/377 270/257/269
f 377/290/376 375/327/374 378/329/377
f 378/329/377 375/327/374 363/321/362
f 365/323/364 379/330/378 366/324/365
f 366/324/365 379/330/378 368/326/367
f 375/327/374 379/330/378 365/323/364
f 376/328/375 379/330/378 375/327/374
f 371/216/370 380/225/379 374/219/373
f 370/215/369 380/225/379 371/216/370
f 250/237/249 381/331/380 279/266/278
f 250/237/249 274/261/273 381/331/380
f 381/331/380 382/332/381 383/333/382
f 279/266/278 381/331/380 383/333/382
f 383/333/382 241/228/240 279/266/278
f 383/333/382 382/332/381 384/334/383
f 160/154/159 385/217/384 156/152/155
f 386/216/385 387/219/386 385/217/384
f 385/217/384 388/218/387 156/152/155
f 156/152/155 388/218/387 159/150/158
f 385/217/384 387/219/386 388/218/387
f 381/331/380 274/261/273 389/335/388
f 276/263/275 389/335/388 274/261/273
f 381/331/380 389/335/388 382/332/381
f 390/325/389 389/335/388 276/263/275
f 389/335/388 390/325/389 391/336/390
f 382/332/381 389/335/388 391/336/390
f 391/336/390 390/325/389 392/337/391
f 384/334/383 393/220/392 383/333/382
f 383/333/382 393/220/392 241/228/240
f 394/338/393 393/220/392 384/334/383
f 395/215/394 386/216/385 396/214/395
f 396/214/395 385/217/384 160/154/159
f 396/214/395 386/216/385 385/217/384
f 392/337/391 397/339/396 391/336/390
f 384/334/383 397/339/396 394/338/393
f 382/332/381 397/339/396 384/334/383
f 391/336/390 397/339/396 382/332/381
f 395/215/394 398/225/397 386/216/385
f 386/216/385 398/225/397 387/219/386
f 399/340/398 400/341/399 401/342/400
f 401/342/400 400/341/399 402/343/401
f 403/344/402 404/345/403 405/346/404
f 405/346/404 404/345/403 406/347/405
f 405/346/404 406/347/405 407/348/406
f 407/348/406 406/347/405 408/349/407
f 409/350/408 410/351/409 411/352/410
f 411/352/410 410/351/409 412/353/411
f 403/344/402 412/353/411 404/345/403
f 411/352/410 412/353/411 403/344/402
f 402/343/401 413/354/412 401/342/400
f 401/342/400 413/354/412 414/355/413
f 403/344/402 415/356/414 411/352/410
f 411/352/410 415/356/414 416/357/415
f 405/346/404 417/358/416 403/344/402
f 403/344/402 417/358/416 415/356/414
f 407/348/406 418/359/417 405/346/404
f 405/346/404 418/359/417 417/358/416
f 413/354/412 402/343/401 419/360/418
f 402/343/401 400/341/399 420/361/419
f 419/360/418 402/343/401 420/361/419
f 415/356/414 417/358/416 421/362/420
f 417/358/416 418/359/417 421/362/420
f 416/357/415 415/356/414 421/362/420
f 419/360/418 420/361/419 422/363/421
f 401/342/400 414/355/413 423/364/422
f 401/342/400 423/364/422 399/340/398
f 399/340/398 423/364/422 424/365/423
f 404/345/403 425/366/424 406/347/405
f 406/347/405 425/366/424 426/367/425
f 408/349/407 406/347/405 427/368/426
f 427/368/426 406/347/405 426/367/425
f 412/353/411 410/351/409 428/369/427
f 404/345/403 428/369/427 425/366/424
f 412/353/411 428/369/427 404/345/403
f 428/369/427 410/351/409 429/370/428
f 423/364/422 414/355/413 430/371/429
f 425/366/424 431/372/430 426/367/425
f 432/373/431 427/368/426 426/367/425
f 426/367/425 431/372/430 432/373/431
f 424/365/423 423/364/422 433/374/432
f 423/364/422 430/371/429 434/375/433
f 433/374/432 423/364/422 434/375/433
f 429/370/428 435/376/434 428/369/427
f 431/372/430 425/366/424 435/376/434
f 435/376/434 425/366/424 428/369/427
f 436/377/435 427/368/426 432/373/431
f 434/375/433 430/371/429 437/378/436
f 438/379/437 435/376/434 429/370/428
f 435/376/434 439/380/438 431/372/430
f 431/372/430 439/380/438 432/373/431
f 432/373/431 439/380/438 440/381/439
f 440/381/439 436/377/435 432/373/431
f 441/382/440 436/377/435 440/381/439
f 437/378/436 442/383/441 434/375/433
f 434/375/433 442/383/441 443/384/442
f 434/375/433 443/384/442 433/374/432
f 433/374/432 443/384/442 444/385/443
f 445/386/444 439/380/438 435/376/434
f 445/386/444 435/376/434 446/387/445
f 446/387/445 435/376/434 438/379/437
f 420/361/419 400/341/399 447/388/446
f 420/361/419 447/388/446 422/363/421
f 448/389/447 411/352/410 416/357/415
f 409/350/408 411/352/410 448/389/447
f 448/389/447 416/357/415 421/362/420
f 442/383/441 449/390/448 443/384/442
f 443/384/442 449/390/448 450/391/449
f 445/386/444 446/387/445 451/392/450
f 451/392/450 446/387/445 452/393/451
f 445/386/444 453/394/452 439/380/438
f 445/386/444 454/395/453 453/394/452
f 439/380/438 455/396/454 440/381/439
f 453/394/452 455/396/454 439/380/438
f 454/395/453 455/396/454 453/394/452
f 455/396/454 456/397/455 440/381/439
f 440/381/439 456/397/455 441/382/440
f 313/152/312 457/153/456 315/154/314
f 313/152/312 458/151/457 457/153/456
f 314/150/313 458/151/457 313/152/312
f 321/150/320 459/151/458 320/152/319
f 459/151/458 460/153/459 320/152/319
f 460/153/459 325/154/324 320/152/319
f 443/384/442 461/398/460 444/385/443
f 450/391/449 461/398/460 443/384/442
f 462/399/461 91/90/91 90/89/90
f 90/89/90 101/100/100 462/399/461
f 462/399/461 101/100/100 463/400/462
f 464/401/463 91/90/91 462/399/461
f 465/402/464 94/93/94 91/90/91
f 91/90/91 464/401/463 465/402/464
f 465/402/464 464/401/463 466/403/465
f 287/274/286 467/404/466 288/275/287
f 288/275/287 467/404/466 252/239/251
f 252/239/251 467/404/466 284/271/283
f 17/17/17 468/405/467 18/18/18
f 49/49/49 469/406/468 5/5/5
f 21/21/21 18/18/18 470/407/469
f 470/407/469 469/406/468 49/49/49
f 49/49/49 43/43/43 470/407/469
f 468/405/467 469/406/468 470/407/469
f 18/18/18 468/405/467 470/407/469
f 21/21/21 470/407/469 43/43/43
f 471/408/470 82/81/82 99/98/98
f 87/86/87 82/81/82 471/408/470
f 92/91/92 86/85/86 471/408/470
f 471/408/470 86/85/86 87/86/87
f 273/260/272 282/269/281 472/409/471
f 286/273/285 273/260/272 472/409/471
f 473/42/472 70/70/70 28/28/28
f 474/410/473 475/411/474 476/412/475
f 476/412/475 475/411/474 477/413/476
f 476/412/475 477/413/476 478/414/477
f 478/414/477 477/413/476 479/415/478
f 478/414/477 479/415/478 480/416/479
f 480/416/479 479/415/478 481/417/480
f 480/416/479 481/417/480 482/418/481
f 482/418/481 481/417/480 483/419/482
f 484/420/483 485/421/484 486/422/485
f 486/422/485 485/421/484 487/423/486
f 486/422/485 487/423/486 488/424/487
f 488/424/487 487/423/486 489/425/488
f 488/424/487 489/425/488 490/426/489
f 490/426/489 489/425/488 491/427/490
f 490/426/489 491/427/490 492/428/491
f 492/428/491 491/427/490 493/429/492
f 492/428/491 493/429/492 494/430/493
f 494/430/493 495/431/494 474/410/473
f 474/410/473 495/431/494 475/411/474
f 494/430/493 493/429/492 495/431/494
f 476/412/475 496/432/495 474/410/473
f 474/410/473 496/432/495 497/433/496
f 474/410/473 497/433/496 494/430/493
f 478/414/477 498/434/497 476/412/475
f 476/412/475 498/434/497 496/432/495
f 478/414/477 499/435/498 498/434/497
f 480/416/479 499/435/498 478/414/477
f 482/418/481 500/436/499 480/416/479
f 480/416/479 500/436/499 499/435/498
f 486/422/485 501/437/500 484/420/483
f 484/420/483 501/437/500 502/438/501
f 488/424/487 503/439/502 486/422/485
f 486/422/485 503/439/502 501/437/500
f 490/426/489 504/440/503 488/424/487
f 488/424/487 504/440/503 503/439/502
f 490/426/489 505/441/504 504/440/503
f 492/428/491 505/441/504 490/426/489
f 492/428/491 506/442/505 505/441/504
f 494/430/493 506/442/505 492/428/491
f 494/430/493 497/433/496 506/442/505
f 507/443/506 508/444/507 509/445/508
f 509/445/508 508/444/507 510/446/509
f 507/443/506 511/447/510 508/444/507
f 512/448/511 511/447/510 507/443/506
f 513/449/512 514/450/513 512/448/511
f 512/448/511 514/450/513 511/447/510
f 510/446/509 508/444/507 514/450/513
f 514/450/513 508/444/507 511/447/510
f 515/451/514 510/446/509 514/450/513
f 513/449/512 515/451/514 514/450/513
f 516/452/515 515/451/514 513/449/512
f 516/452/515 517/453/516 515/451/514
f 518/454/517 517/453/516 516/452/515
f 518/454/517 519/455/518 517/453/516
f 520/456/519 519/455/518 518/454/517
f 520/456/519 521/457/520 519/455/518
f 522/458/521 521/457/520 520/456/519
f 517/453/516 519/455/518 523/459/522
f 523/459/522 519/455/518 521/457/520
f 522/458/521 523/459/522 521/457/520
f 517/453/516 523/459/522 515/451/514
f 524/460/523 523/459/522 522/458/521
f 509/445/508 510/446/509 525/461/524
f 515/451/514 523/459/522 526/462/525
f 525/461/524 510/446/509 526/462/525
f 526/462/525 510/446/509 515/451/514
f 525/461/524 526/462/525 524/460/523
f 524/460/523 526/462/525 523/459/522
f 475/411/474 527/463/526 477/413/476
f 495/431/494 527/463/526 475/411/474
f 477/413/476 527/463/526 479/415/478
f 491/427/490 527/463/526 493/429/492
f 479/415/478 527/463/526 481/417/480
f 481/417/480 527/463/526 483/419/482
f 489/425/488 527/463/526 491/427/490
f 485/421/484 527/463/526 487/423/486
f 487/423/486 527/463/526 489/425/488
f 493/429/492 527/463/526 495/431/494
f 528/410/527 529/412/528 530/411/529
f 530/411/529 529/412/528 531/413/530
f 529/412/528 532/414/531 531/413/530
f 531/413/530 532/414/531 533/415/532
f 532/414/531 534/416/533 533/415/532
f 533/415/532 534/416/533 535/417/534
f 534/416/533 536/418/535 535/417/534
f 535/417/534 536/418/535 537/419/536
f 538/420/537 539/422/538 540/421/539
f 540/421/539 539/422/538 541/423/540
f 539/422/538 542/424/541 541/423/540
f 541/423/540 542/424/541 543/425/542
f 542/424/541 544/426/543 543/425/542
f 543/425/542 544/426/543 545/427/544
f 544/426/543 546/428/545 545/427/544
f 545/427/544 546/428/545 547/429/546
f 546/428/545 548/430/547 547/429/546
f 549/431/548 528/410/527 530/411/529
f 547/429/546 548/430/547 549/431/548
f 548/430/547 528/410/527 549/431/548
f 529/412/528 528/410/527 550/432/549
f 550/432/549 528/410/527 551/433/550
f 528/410/527 548/430/547 551/433/550
f 532/414/531 529/412/528 552/434/551
f 552/434/551 529/412/528 550/432/549
f 553/435/552 532/414/531 552/434/551
f 534/416/533 532/414/531 553/435/552
f 554/436/553 534/416/533 553/435/552
f 536/418/535 534/416/533 554/436/553
f 539/422/538 538/420/537 555/437/554
f 555/437/554 538/420/537 556/438/555
f 542/424/541 539/422/538 557/439/556
f 557/439/556 539/422/538 555/437/554
f 544/426/543 542/424/541 558/440/557
f 558/440/557 542/424/541 557/439/556
f 546/428/545 544/426/543 559/441/558
f 559/441/558 544/426/543 558/440/557
f 548/430/547 546/428/545 560/442/559
f 551/433/550 548/430/547 560/442/559
f 560/442/559 546/428/545 559/441/558
f 561/443/560 562/445/561 563/444/562
f 563/444/562 562/445/561 564/446/563
f 565/447/564 561/443/560 563/444/562
f 566/448/565 561/443/560 565/447/564
f 567/449/566 566/448/565 568/450/567
f 568/450/567 566/448/565 565/447/564
f 563/444/562 568/450/567 565/447/564
f 564/446/563 568/450/567 563/444/562
f 569/451/568 567/449/566 568/450/567
f 564/446/563 569/451/568 568/450/567
f 570/452/569 567/449/566 569/451/568
f 571/453/570 570/452/569 569/451/568
f 572/454/571 570/452/569 571/453/570
f 573/456/572 572/454/571 574/455/573
f 574/455/573 572/454/571 571/453/570
f 575/457/574 573/456/572 574/455/573
f 576/458/575 573/456/572 575/457/574
f 571/453/570 577/459/576 574/455/573
f 574/455/573 577/459/576 575/457/574
f 577/459/576 576/458/575 575/457/574
f 571/453/570 569/451/568 577/459/576
f 578/460/577 576/458/575 577/459/576
f 562/445/561 579/461/578 564/446/563
f 580/462/579 578/460/577 577/459/576
f 577/459/576 569/451/568 580/462/579
f 579/461/578 578/460/577 580/462/579
f 580/462/579 569/451/568 564/446/563
f 564/446/563 579/461/578 580/462/579
f 530/411/529 531/413/530 581/463/580
f 531/413/530 533/415/532 581/463/580
f 547/429/546 549/431/548 581/463/580
f 545/427/544 547/429/546 581/463/580
f 533/415/532 535/417/534 581/463/580
f 535/417/534 537/419/536 581/463/580
f 540/421/539 541/423/540 581/463/580
f 541/423/540 543/425/542 581/463/580
f 543/425/542 545/427/544 581/463/580
f 549/431/548 530/411/529 581/463/580
