# Blender 4.0.2
# www.blender.org
mtllib Tallbell.mtl
o Tall_Bell
v 9.792339 9.707293 10.813463
v 20.563421 36.862942 10.862697
v -9.792339 9.707293 10.813463
v -20.563421 36.862942 10.862697
v 20.563421 36.862942 -10.822655
v 9.792339 9.707289 -10.822650
v -20.563421 36.862942 -10.822655
v -9.792339 9.707289 -10.822650
v 19.805698 90.503380 -0.000014
v 15.555586 98.389496 -4.406471
v 16.940350 99.455048 -0.000016
v 18.466486 68.321640 -0.000011
v 16.947956 68.347031 -4.689549
v 18.186625 90.317375 -4.406470
v 12.875432 96.445618 -7.675024
v 7.433649 101.218941 -7.675025
v 5.084685 96.514542 -9.058817
v 0.000000 97.551605 -9.058817
v 0.000000 96.424454 -0.000015
v -4.344296 95.538422 -0.000015
v -5.084685 96.514542 -9.058817
v -7.524465 93.117668 -0.000015
v -8.806952 93.681236 -9.058816
v -8.688497 89.810875 -0.000014
v -10.169371 89.810875 -9.058816
v -7.524465 86.504089 -0.000014
v -8.806952 85.940514 -9.058815
v -4.344296 84.083328 -0.000013
v -5.084685 83.107208 -9.058815
v 0.000000 83.197304 -0.000013
v 0.000000 82.070145 -9.058814
v 4.344296 84.083328 -0.000013
v 5.084685 83.107208 -9.058815
v 7.524465 86.504089 -0.000014
v 8.806952 85.940514 -9.058815
v 15.053165 89.925133 -7.675023
v 13.593286 68.401100 -8.374294
v 6.720803 68.424515 -9.669549
v 0.000000 68.433075 -9.669398
v -6.720803 68.424515 -9.669549
v -13.593286 68.401100 -8.374294
v -15.053165 89.925041 -7.675023
v -12.875432 96.445618 -7.675024
v -15.555490 98.389496 -4.406471
v -8.980973 103.723289 -4.406472
v -9.780494 104.904984 -0.000017
v 0.000000 106.899750 -0.000017
v 0.000000 105.675545 -4.406472
v 9.780494 104.904984 -0.000017
v 8.980973 103.723206 -4.406472
v -7.433649 101.218941 -7.675025
v 0.000000 102.966087 -7.675025
v -16.940350 99.455048 -0.000016
v -18.186625 90.317375 -4.406470
v -19.805698 90.503380 -0.000014
v -18.466486 68.321640 -0.000011
v -16.947956 68.346931 -4.689549
v 6.720803 68.424515 9.669528
v 0.000000 82.070145 9.058789
v 0.000000 68.433075 9.669528
v 5.084685 83.107208 9.058788
v 13.593286 68.401100 8.374424
v 8.806952 85.940514 9.058788
v 15.053165 89.925133 7.674994
v 16.947956 68.347031 4.689528
v 18.186625 90.317375 4.406441
v 18.466486 68.321640 -0.000011
v 19.805698 90.503380 -0.000014
v 15.555586 98.389496 4.406440
v 16.940350 99.455048 -0.000016
v 8.980973 103.723206 4.406439
v 9.780494 104.904984 -0.000017
v 0.000000 105.675545 4.406439
v 0.000000 106.899750 -0.000017
v -8.980973 103.723289 4.406439
v -9.780494 104.904984 -0.000017
v -15.555490 98.389496 4.406440
v -16.940350 99.455048 -0.000016
v -18.186625 90.317375 4.406441
v -19.805698 90.503380 -0.000014
v -18.466486 68.321640 -0.000011
v -16.947956 68.346931 4.689528
v -15.053165 89.925041 7.674994
v -13.593286 68.401100 8.374273
v 12.875432 96.445618 7.674994
v 7.433649 101.218941 7.674993
v 0.000000 102.966087 7.674993
v -7.433649 101.218941 7.674993
v -12.875432 96.445618 7.674994
v -6.720803 68.424515 9.669528
v -5.084685 83.107208 9.058788
v -8.806952 85.940514 9.058788
v -10.169371 89.810875 9.058787
v -8.806952 93.681236 9.058787
v -5.084685 96.514542 9.058786
v 0.000000 97.551605 9.058786
v 5.084685 96.514542 9.058786
v 8.806952 93.681236 9.058787
v 10.169371 89.810875 9.058787
v 7.524465 86.504089 -0.000014
v 4.344296 84.083328 -0.000013
v 0.000000 83.197304 -0.000013
v -4.344296 84.083328 -0.000013
v -7.524465 86.504089 -0.000014
v -8.688497 89.810875 -0.000014
v -7.524465 93.117668 -0.000015
v -4.344296 95.538422 -0.000015
v 0.000000 96.424454 -0.000015
v 4.344296 95.538422 -0.000015
v 7.524465 93.117668 -0.000015
v 8.688497 89.810875 -0.000014
v -13.681019 65.575600 -18.382326
v -6.877105 59.018726 -21.852800
v -13.081042 59.018726 -18.589067
v -7.172472 65.536102 -21.954138
v 0.000000 59.018726 -22.977453
v 0.000000 65.524155 -23.166428
v 6.877105 59.018726 -21.852800
v 7.172472 65.536102 -21.954138
v 13.081042 59.018726 -18.589067
v 13.681019 65.575600 -18.382326
v 18.004417 59.018726 -13.505773
v 18.283123 65.599197 -13.452620
v 21.165518 59.018730 -7.100420
v 21.399248 65.637291 -7.039438
v 22.254721 59.018730 -0.000009
v 22.467649 65.669357 -0.000010
v 21.165518 59.018730 7.100402
v 21.399151 65.637291 7.039418
v 18.004417 59.018734 13.505754
v 18.283123 65.599205 13.452599
v 13.081042 59.018734 18.589048
v 13.681019 65.575607 18.382307
v 6.877105 59.018734 21.852781
v 7.172472 65.536110 21.954119
v 0.000000 59.018734 22.977434
v 0.000000 65.524162 23.166409
v -6.877105 59.018734 21.852781
v 16.947956 68.347031 -4.689549
v 18.466486 68.321640 -0.000011
v 16.947956 68.347031 4.689528
v 13.593286 68.401100 8.374424
v 6.720803 68.424515 9.669528
v 0.000000 68.433075 9.669528
v -7.172472 65.536110 21.954119
v -6.720803 68.424515 9.669528
v -13.681019 65.575607 18.382307
v -13.593286 68.401100 8.374273
v -18.283123 65.599205 13.452599
v -21.399151 65.637291 7.039418
v -16.947956 68.346931 4.689528
v -22.467649 65.669357 -0.000010
v -18.466486 68.321640 -0.000011
v -21.399151 65.637291 -7.039438
v -16.947956 68.346931 -4.689549
v -18.283123 65.599197 -13.452620
v -13.593286 68.401100 -8.374294
v -13.081042 59.018734 18.589048
v -18.004417 59.018734 13.505754
v -21.165518 59.018730 7.100402
v -22.254721 59.018730 -0.000009
v -21.165518 59.018730 -7.100420
v -18.004417 59.018726 -13.505773
v -6.720803 68.424515 -9.669549
v 0.000000 68.433075 -9.669398
v 6.720803 68.424515 -9.669549
v 13.593286 68.401100 -8.374294
v -11.711784 16.903904 -37.215611
v -25.280993 47.519344 -35.926235
v -13.290985 47.519344 -42.233860
v 0.000000 -4.000788 -39.186947
v 0.000000 16.903902 -39.130787
v 0.000000 47.519344 -44.407276
v -34.796265 47.519348 -26.101904
v -22.277063 16.903904 -31.657400
v -11.728541 -4.000788 -37.269062
v 0.000000 -24.249273 -41.750805
v -40.905437 47.519348 -13.722599
v -30.661720 16.903906 -23.000484
v -22.309036 -4.000787 -31.702869
v -12.495896 -24.249271 -39.707333
v -13.985631 -40.314526 -44.440990
v 0.000000 -40.314526 -46.728088
v 0.000000 -46.313278 -53.460640
v -43.010559 47.519352 -0.000007
v -36.045044 16.903908 -12.092007
v -30.705828 -4.000785 -23.033457
v -23.768627 -24.249271 -33.777050
v -26.602196 -40.314526 -37.803749
v -16.000608 -46.313278 -50.844086
v 0.000000 -53.159134 -52.253025
v -40.905437 47.519356 13.722584
v -37.899967 16.903910 -0.000002
v -36.096855 -4.000783 -12.109470
v -32.714737 -24.249269 -24.540569
v -36.614784 -40.314522 -27.466108
v -30.435020 -46.313278 -43.250538
v -15.639179 -53.159134 -49.695492
v 0.000000 -60.539131 -59.233120
v -34.796265 47.519356 26.101889
v -36.045044 16.903912 12.092154
v -37.954475 -4.000781 0.000001
v -38.458435 -24.249268 -12.901647
v -43.043301 -40.314522 -14.439778
v -41.890247 -46.313274 -31.423395
v -29.747501 -53.159134 -42.273602
v -17.728312 -60.539127 -56.334080
v -17.821632 -67.542870 -56.630566
v 0.000000 -67.542870 -59.544964
v 0.000000 -73.509460 -67.444626
v -25.280993 47.519360 35.926220
v -30.661720 16.903913 23.000481
v -36.096855 -4.000779 12.109472
v -40.437592 -24.249266 0.000004
v -45.258404 -40.314518 0.000007
v -49.244926 -46.313274 -16.520287
v -40.943958 -53.159130 -30.713575
v -33.721313 -60.539127 -47.920498
v -33.898804 -67.542870 -48.172859
v -20.186005 -73.509460 -64.143700
v 0.000000 -80.040848 -65.791908
v -13.290985 47.519360 42.233845
v -22.277063 16.903913 31.657396
v -30.705828 -4.000777 23.033611
v -38.458435 -24.249264 12.901656
v -43.043301 -40.314514 14.439792
v -51.779182 -46.313271 0.000008
v -48.132511 -53.159130 -16.147007
v -46.413380 -60.539124 -34.816319
v -46.657707 -67.542870 -34.999569
v -38.396126 -73.509460 -54.563908
v -19.691383 -80.040848 -62.571835
v -23.509762 -98.640182 -74.705399
v 0.000000 -98.640182 -78.549911
v -22.646584 -100.792831 -71.962357
v 0.000000 -100.792831 -75.665619
v -11.711784 16.903915 37.215603
v -22.309036 -4.000776 31.702873
v -32.714737 -24.249262 24.540577
v -36.614784 -40.314514 27.466124
v -49.244926 -46.313267 16.520302
v -50.609467 -53.159126 0.000009
v -54.562191 -60.539124 -18.304008
v -54.849464 -67.542862 -18.400373
v -52.847778 -73.509460 -39.643036
v -37.455231 -80.040848 -53.226791
v -44.718327 -98.640175 -63.548172
v -43.076336 -100.792824 -61.214848
v -59.289490 -100.792824 -44.475163
v -61.549465 -98.640175 -46.170498
v -51.552673 -80.040848 -38.671509
v -62.126236 -73.509453 -20.841511
v -57.672146 -67.542862 0.000012
v -57.370041 -60.539120 0.000010
v -48.132511 -53.159122 16.147026
v -41.890247 -46.313267 31.423410
v -26.602196 -40.314510 37.803764
v -23.768627 -24.249260 33.777058
v -11.728541 -4.000775 37.269062
v 0.000000 -4.000775 39.186947
v -12.495896 -24.249260 39.707340
v 0.000000 -24.249258 41.750813
v -69.698944 -100.792816 -23.382025
v -72.355698 -98.640175 -24.273283
v -60.603851 -80.040840 -20.330757
v -65.323448 -73.509453 0.000012
v -54.849464 -67.542862 18.400396
v -54.562191 -60.539116 18.304028
v -40.943958 -53.159122 30.713594
v -30.435020 -46.313263 43.250553
v -13.985631 -40.314510 44.441006
v -73.285805 -100.792816 0.000017
v -76.079315 -98.640167 0.000017
v -63.722675 -80.040840 0.000014
v -62.126236 -73.509453 20.841537
v -46.657707 -67.542854 34.999592
v -46.413380 -60.539116 34.816341
v -29.747501 -53.159119 42.273617
v -16.000608 -46.313263 50.844101
v 0.000000 -40.314510 46.728104
v -69.698944 -100.792816 23.382059
v -72.355698 -98.640160 24.273317
v -60.603851 -80.040840 20.330935
v -52.847778 -73.509445 39.643059
v -33.898804 -67.542854 48.172882
v -33.721313 -60.539112 47.920666
v -15.639179 -53.159119 49.695507
v 0.000000 -46.313263 53.460655
v -59.289490 -100.792809 44.475193
v -61.549465 -98.640160 46.170528
v -51.552673 -80.040833 38.671539
v -38.396126 -73.509445 54.563931
v -17.821632 -67.542854 56.630589
v -17.728312 -60.539112 56.334103
v 0.000000 -53.159119 52.253040
v -43.076336 -100.792809 61.214878
v -44.718231 -98.640160 63.548203
v -37.455231 -80.040833 53.226822
v -20.186005 -73.509445 64.143730
v 0.000000 -67.542854 59.544987
v 0.000000 -60.539108 59.233143
v 13.985631 -40.314510 44.441006
v 16.000608 -46.313263 50.844101
v 15.639179 -53.159119 49.695507
v 17.728312 -60.539112 56.334103
v 17.821632 -67.542854 56.630589
v 33.898804 -67.542854 48.172882
v 38.396126 -73.509445 54.563931
v 46.657707 -67.542854 34.999592
v 52.847778 -73.509445 39.643059
v 54.849464 -67.542862 18.400396
v 62.126236 -73.509453 20.841537
v 57.672146 -67.542862 0.000012
v 65.323448 -73.509453 0.000012
v 54.849464 -67.542862 -18.400373
v 57.370041 -60.539120 0.000010
v 54.562191 -60.539124 -18.304008
v 48.132511 -53.159130 -16.147007
v 40.943958 -53.159130 -30.713575
v 41.890247 -46.313274 -31.423395
v 30.435020 -46.313278 -43.250538
v 33.721313 -60.539112 47.920666
v 46.413380 -60.539116 34.816341
v 54.562191 -60.539116 18.304028
v 26.602196 -40.314510 37.803764
v 30.435020 -46.313263 43.250553
v 29.747501 -53.159119 42.273617
v 40.943958 -53.159122 30.713594
v 48.132511 -53.159122 16.147026
v 50.609467 -53.159126 0.000009
v 49.244926 -46.313274 -16.520287
v 36.614784 -40.314522 -27.466108
v 26.602196 -40.314526 -37.803749
v 32.714737 -24.249269 -24.540569
v 23.768627 -24.249271 -33.777050
v 41.890247 -46.313267 31.423410
v 49.244926 -46.313267 16.520302
v 51.779182 -46.313271 0.000008
v 36.614784 -40.314514 27.466124
v 43.043301 -40.314514 14.439792
v 45.258404 -40.314518 0.000007
v 43.043301 -40.314522 -14.439778
v 12.495896 -24.249260 39.707340
v 23.768627 -24.249260 33.777058
v 32.714737 -24.249262 24.540577
v 38.458435 -24.249264 12.901656
v 40.437592 -24.249266 0.000004
v 38.458534 -24.249268 -12.901647
v 13.985631 -40.314526 -44.440990
v 12.495896 -24.249271 -39.707333
v 11.728541 -4.000788 -37.269062
v 22.309134 -4.000787 -31.702869
v 30.705828 -4.000785 -23.033457
v 36.096855 -4.000783 -12.109470
v 37.954475 -4.000781 0.000001
v 36.096855 -4.000779 12.109472
v 30.705828 -4.000777 23.033461
v 22.309036 -4.000776 31.702873
v 11.728541 -4.000775 37.269062
v 0.000000 -40.314526 -46.728088
v 0.000000 -24.249273 -41.750805
v 0.000000 -4.000788 -39.186947
v 0.000000 16.903902 -39.130787
v 11.711784 16.903904 -37.215611
v 22.277063 16.903904 -31.657400
v 30.661816 16.903906 -23.000484
v 36.045139 16.903908 -12.092007
v 37.899967 16.903910 -0.000002
v 36.045044 16.903912 12.092154
v 30.661720 16.903913 23.000481
v 22.277063 16.903913 31.657396
v 11.711784 16.903915 37.215603
v 0.000000 16.903915 39.130779
v 0.000000 47.519344 -44.407276
v 13.290985 47.519344 -42.233860
v 25.280993 47.519344 -35.926235
v 34.796265 47.519348 -26.101904
v 40.905533 47.519348 -13.722599
v 43.010559 47.519352 -0.000007
v 40.905437 47.519356 13.722584
v 34.796265 47.519356 26.101889
v 25.280993 47.519360 35.926220
v 33.073471 51.831612 24.809645
v 24.029324 51.831612 34.147465
v 18.004417 59.018734 13.505754
v 13.081042 59.018734 18.589048
v 12.632936 51.831615 40.142799
v 6.877105 59.018734 21.852781
v 0.000000 51.831615 42.208702
v 0.000000 59.018734 22.977434
v -6.877105 59.018734 21.852781
v 12.632936 51.831600 -40.142815
v 24.029324 51.831604 -34.147480
v 33.073471 51.831604 -24.809660
v 38.880249 51.831604 -13.043200
v 40.881073 51.831608 -0.000008
v 38.880249 51.831612 13.043185
v 0.000000 51.831600 -42.208717
v 0.000000 59.018726 -22.977453
v 6.877105 59.018726 -21.852800
v 13.081042 59.018726 -18.589067
v 18.004417 59.018726 -13.505773
v 21.165518 59.018730 -7.100420
v 22.254721 59.018730 -0.000009
v 21.165518 59.018730 7.100402
v 0.000000 47.519360 44.407261
v 13.290985 47.519360 42.233845
v -12.632936 51.831615 40.142799
v -24.029324 51.831612 34.147465
v -13.081042 59.018734 18.589048
v -33.073471 51.831612 24.809645
v -18.004417 59.018734 13.505754
v -38.880249 51.831612 13.043185
v -21.165518 59.018730 7.100402
v -40.881073 51.831608 -0.000008
v -22.254721 59.018730 -0.000009
v -38.880249 51.831604 -13.043200
v -21.165518 59.018730 -7.100420
v -33.073471 51.831604 -24.809660
v -18.004417 59.018726 -13.505773
v -24.029324 51.831604 -34.147480
v -13.081042 59.018726 -18.589067
v -12.632936 51.831600 -40.142815
v -6.877105 59.018726 -21.852800
v 0.000000 51.831600 -42.208717
v 0.000000 59.018726 -22.977453
v 14.115544 -69.879356 8.337705
v 11.808089 -61.363842 6.974841
v 0.064235 -69.879356 16.790289
v 0.053738 -61.363842 14.045588
v 11.511086 -78.837326 6.799422
v 0.052390 -78.837326 13.692340
v -11.458792 -78.837326 6.892931
v -14.051311 -69.879356 8.452444
v -11.754352 -61.363842 7.070758
v 5.377259 -85.067795 -3.234659
v 11.458792 -78.837326 -6.892904
v 5.401816 -85.067795 3.190720
v 0.024558 -85.067795 6.425393
v -5.377162 -85.067795 3.234688
v -5.401720 -85.067795 -3.190691
v -11.511086 -78.837326 -6.799396
v -14.115448 -69.879356 -8.337682
v -11.807993 -61.363842 -6.974669
v -5.401720 -54.690926 -3.190696
v -5.377162 -54.690926 3.234683
v 0.024558 -54.690926 6.425388
v 5.401816 -54.690926 3.190715
v 5.377259 -54.690926 -3.234664
v 11.754352 -61.363842 -7.070737
v 14.051311 -69.879356 -8.452421
v -0.024558 -85.067795 -6.425364
v -0.052293 -78.837326 -13.692313
v -0.064139 -69.879356 -16.790115
v -0.053642 -61.363842 -14.045567
v -0.024558 -54.690926 -6.425369
v -0.024558 16.644455 -6.425381
v 5.377259 16.644455 -3.234676
v 5.401816 16.644457 3.190703
v 0.024558 16.644457 6.425376
v -5.377162 16.644457 3.234671
v -5.401720 16.644455 -3.190707
v -0.024558 16.644455 -6.425381
v -0.024558 -54.690926 -6.425369
v -0.053642 -61.363842 -14.045567
v -0.064139 -69.879356 -16.790115
v -0.052293 -78.837326 -13.692313
v -0.024558 -85.067795 -6.425364
v -0.024558 -100.106049 -6.425362
v -5.401720 -100.106049 -3.190689
v -5.377162 -100.106049 3.234690
v 0.024558 -100.106049 6.425395
v 5.401816 -100.106049 3.190722
v 5.377259 -100.106049 -3.234657
v -0.024558 -100.106049 -6.425362
v 0.000000 -73.509445 67.444809
v 20.186005 -73.509445 64.143730
v 37.455231 -80.040833 53.226822
v 19.691383 -80.040833 62.571865
v 0.000000 -80.040833 65.791939
v -19.691383 -80.040833 62.571865
v 51.552673 -80.040833 38.671539
v 61.549370 -98.640160 46.170528
v 44.718327 -98.640160 63.548203
v 23.509762 -98.640152 74.705429
v 0.000000 -98.640152 78.549942
v -23.509762 -98.640152 74.705429
v 60.603851 -80.040840 20.330935
v 72.355698 -98.640160 24.273317
v 69.698944 -100.792816 23.382059
v 59.289490 -100.792809 44.475193
v 43.076336 -100.792809 61.214878
v 22.646584 -100.792801 71.962387
v 0.000000 -100.792801 75.665649
v -22.646584 -100.792801 71.962387
v 16.000706 -46.313278 -50.844086
v 29.747501 -53.159134 -42.273602
v 46.413380 -60.539124 -34.816319
v 46.657803 -67.542870 -34.999569
v 62.126328 -73.509453 -20.841511
v 63.722675 -80.040840 0.000014
v 76.079315 -98.640167 0.000017
v 73.285805 -100.792816 0.000017
v 68.270844 -98.647217 0.000017
v 64.929367 -98.647217 21.781889
v 55.232277 -98.647209 41.431751
v 40.128548 -98.647209 57.025852
v 21.096851 -98.647209 67.037956
v 0.000000 -46.313278 -53.460640
v 15.639179 -53.159134 -49.695492
v 33.721313 -60.539127 -47.920643
v 33.898804 -67.542870 -48.172859
v 52.847778 -73.509460 -39.643036
v 60.603947 -80.040840 -20.330757
v 72.355797 -98.640175 -24.273283
v 69.699043 -100.792816 -23.382025
v 64.929466 -98.647217 -21.781855
v 55.232277 -98.647224 -41.431721
v 59.289490 -100.792824 -44.475163
v 61.549465 -98.640175 -46.170498
v 51.552765 -80.040848 -38.671509
v 38.396126 -73.509460 -54.563908
v 17.821632 -67.542870 -56.630566
v 17.728312 -60.539127 -56.334080
v 0.000000 -53.159134 -52.253025
v 40.128643 -98.647224 -57.025822
v 43.076336 -100.792824 -61.214848
v 44.718327 -98.640175 -63.548172
v 37.455231 -80.040848 -53.226791
v 20.186100 -73.509460 -64.143700
v 0.000000 -67.542870 -59.544964
v 0.000000 -60.539131 -59.233120
v 21.096851 -98.647224 -67.037926
v 22.646584 -100.792831 -71.962357
v 23.509762 -98.640182 -74.705399
v 19.691383 -80.040848 -62.571835
v 0.000000 -73.509460 -67.444626
v 0.000000 -98.647232 -70.487915
v 0.000000 -100.792831 -75.665619
v 0.000000 -98.640182 -78.549911
v 0.000000 -80.040848 -65.791908
v 4.344296 95.538422 -0.000015
v 8.806952 93.681236 -9.058816
v 7.524465 93.117668 -0.000015
v 10.169371 89.810875 -9.058816
v 8.688497 89.810875 -0.000014
v 20.563421 36.862942 -10.822655
v 20.563421 36.862942 10.862697
v 9.792339 9.707289 -10.822650
v 9.792339 9.707293 10.813463
v -9.792339 9.707289 -10.822650
v -9.792339 9.707293 10.813463
v -20.563421 36.862942 10.862697
v -20.563421 36.862942 -10.822655
v -0.024558 -100.106049 -6.425362
v 5.377259 -100.106049 -3.234657
v 0.000000 -100.106049 0.000017
v 5.401816 -100.106049 3.190722
v 0.024558 -100.106049 6.425395
v -5.377162 -100.106049 3.234690
v -5.401720 -100.106049 -3.190689
v -27.762857 -18.896946 -20.826012
v -32.637215 -18.896944 -10.948829
v -55.232277 -98.647224 -41.431721
v -64.929367 -98.647217 -21.781855
v -34.316860 -18.896942 0.000004
v -68.270844 -98.647217 0.000017
v -32.637215 -18.896940 10.948836
v -64.929367 -98.647217 21.782038
v -27.762857 -18.896938 20.826019
v -55.232277 -98.647209 41.431751
v -20.170980 -18.896938 28.664553
v -40.128548 -98.647209 57.025852
v -10.604475 -18.896936 33.697102
v -21.096851 -98.647209 67.037956
v 0.000000 -18.896936 35.431286
v 0.000000 -98.647202 70.487793
v 0.000000 35.220459 18.021832
v -5.393919 35.220459 17.139759
v -10.259802 35.220459 14.579967
v -14.121420 35.220455 10.593016
v -16.600683 35.220455 5.569047
v -17.455000 35.220455 -0.000005
v -16.600683 35.220455 -5.569058
v -14.121420 35.220455 -10.593025
v -10.259802 35.220451 -14.579976
v -20.170980 -18.896946 -28.664394
v -5.393919 35.220451 -17.139771
v -10.604475 -18.896948 -33.697094
v 0.000000 35.220451 -18.021843
v 0.000000 -18.896948 -35.431278
v 5.393919 35.220451 -17.139771
v 10.604475 -18.896948 -33.697094
v 10.259802 35.220451 -14.579976
v 20.170980 -18.896946 -28.664545
v -40.128548 -98.647224 -57.025822
v -21.096851 -98.647224 -67.037926
v 0.000000 -98.647232 -70.487915
v 21.096851 -98.647224 -67.037926
v 40.128643 -98.647224 -57.025822
v 55.232277 -98.647224 -41.431721
v 27.762953 -18.896946 -20.826012
v 64.929466 -98.647217 -21.781855
v 32.637310 -18.896944 -10.948829
v 68.270844 -98.647217 0.000017
v 34.316860 -18.896942 0.000004
v 64.929367 -98.647217 21.781889
v 32.637215 -18.896940 10.948836
v 55.232277 -98.647209 41.431751
v 27.762857 -18.896938 20.826019
v 40.128548 -98.647209 57.025852
v 20.170980 -18.896938 28.664553
v 10.604475 -18.896936 33.697102
v 21.096851 -98.647209 67.037956
v 14.121420 35.220455 -10.593025
v 16.600779 35.220455 -5.569058
v 17.455000 35.220455 -0.000005
v 16.600683 35.220455 5.569047
v 14.121420 35.220455 10.593016
v 10.259802 35.220459 14.579967
v 5.393919 35.220459 17.139759
v 0.000000 35.220459 18.021832
v 0.000000 -18.896936 35.431286
v 0.000000 -98.647202 70.487793
v -10.259802 35.220459 14.579967
v -14.121420 35.220455 10.593016
v 0.000000 36.038502 -0.000005
v -16.600683 35.220455 5.569047
v -17.455000 35.220455 -0.000005
v -16.600683 35.220455 -5.569058
v -14.121420 35.220455 -10.593025
v -10.259802 35.220451 -14.579976
v -5.393919 35.220451 -17.139771
v 0.000000 35.220451 -18.021843
v 5.393919 35.220451 -17.139771
v 10.259802 35.220451 -14.579976
v 14.121420 35.220455 -10.593025
v 16.600779 35.220455 -5.569058
v 17.455000 35.220455 -0.000005
v 16.600683 35.220455 5.569047
v 14.121420 35.220455 10.593016
v 10.259802 35.220459 14.579967
v 5.393919 35.220459 17.139759
v 0.000000 35.220459 18.021832
v -5.393919 35.220459 17.139759
v 0.000000 -98.647202 70.487793
v -21.096851 -98.647209 67.037956
v -40.128548 -98.647209 57.025852
v -55.232277 -98.647209 41.431751
v -64.929367 -98.647217 21.782038
v -68.270844 -98.647217 0.000017
v -64.929367 -98.647217 -21.781855
v -55.232277 -98.647224 -41.431721
v -40.128548 -98.647224 -57.025822
v -21.096851 -98.647224 -67.037926
v 0.000000 -98.647232 -70.487915
vn 0.2580 -0.9567 0.1352
vn 0.7639 -0.3137 0.5639
vn -0.3796 -0.5768 0.7234
vn -0.8976 -0.3610 0.2529
vn 0.7296 -0.2918 -0.6185
vn 0.7089 -0.5443 -0.4486
vn -0.4033 -0.1704 -0.8991
vn -0.5523 -0.8280 -0.0966
vn 0.9834 0.1693 -0.0659
vn 0.7104 0.4552 -0.5369
vn 0.7276 0.6860 -0.0000
vn 0.8775 0.4604 0.1342
vn 0.8207 0.3962 -0.4118
vn 0.7953 0.1578 -0.5853
vn 0.4348 0.2558 -0.8634
vn 0.2579 0.4424 -0.8589
vn -0.1944 -0.7389 -0.6452
vn 0.1064 -0.7591 -0.6422
vn -0.1016 -0.9948 -0.0000
vn 0.3070 -0.9517 -0.0002
vn 0.4112 -0.6406 -0.6485
vn 0.7108 -0.7034 -0.0000
vn 0.6778 -0.3221 -0.6610
vn 0.9831 -0.1829 -0.0000
vn 0.5804 0.1664 -0.7972
vn 0.8886 0.4587 -0.0000
vn 0.5401 0.5871 -0.6030
vn 0.5165 0.8563 -0.0000
vn 0.2459 0.7803 -0.5751
vn 0.1020 0.9948 -0.0002
vn -0.0792 0.8147 -0.5744
vn -0.3065 0.9519 -0.0000
vn -0.3670 0.7172 -0.5924
vn -0.8068 0.5908 -0.0000
vn -0.3827 0.3504 -0.8548
vn 0.4692 0.0750 -0.8799
vn 0.3358 0.6660 -0.6661
vn 0.0673 0.7395 -0.6697
vn 0.0111 0.7590 -0.6510
vn -0.0366 0.7501 -0.6603
vn -0.3746 0.5998 -0.7071
vn -0.5702 0.1423 -0.8091
vn -0.4001 0.3247 -0.8570
vn -0.6742 0.5113 -0.5330
vn -0.3534 0.7980 -0.4882
vn -0.5103 0.8600 -0.0000
vn -0.1007 0.9949 -0.0000
vn 0.0143 0.8864 -0.4627
vn 0.3069 0.9517 -0.0000
vn 0.3864 0.7767 -0.4974
vn -0.2058 0.4997 -0.8414
vn 0.0346 0.5406 -0.8406
vn -0.8922 0.4516 -0.0000
vn -0.8714 0.1110 -0.4779
vn -0.9908 0.1355 -0.0000
vn -0.9331 0.3587 -0.0243
vn -0.6287 0.7010 -0.3365
vn 0.0383 0.7536 0.6563
vn -0.0668 0.7063 0.7047
vn -0.0105 0.8784 0.4778
vn -0.3667 0.7183 0.5912
vn 0.2648 0.6966 0.6668
vn -0.3823 0.3556 0.8529
vn 0.4688 0.0984 0.8778
vn 0.6970 0.5558 0.4531
vn 0.8499 0.1145 0.5143
vn 0.8775 0.4603 0.1342
vn 0.9833 0.1694 -0.0659
vn 0.7099 0.4571 0.5358
vn 0.3861 0.7775 0.4963
vn 0.0143 0.8869 0.4618
vn -0.3533 0.7986 0.4872
vn -0.6738 0.5129 0.5320
vn -0.8921 0.4517 -0.0000
vn -0.8928 0.1375 0.4290
vn -0.9908 0.1354 -0.0000
vn -0.9331 0.3589 -0.0243
vn -0.7469 0.5196 0.4150
vn -0.5550 0.1083 0.8248
vn -0.3349 0.6678 0.6647
vn 0.4343 0.2631 0.8615
vn 0.2576 0.4463 0.8570
vn 0.0345 0.5435 0.8387
vn -0.2056 0.5029 0.8395
vn -0.3995 0.3303 0.8551
vn -0.0666 0.7409 0.6684
vn 0.2018 0.7889 0.5805
vn 0.5186 0.5811 0.6272
vn 0.7250 0.1898 0.6621
vn 0.6772 -0.3260 0.6596
vn 0.4109 -0.6421 0.6472
vn 0.1064 -0.7602 0.6409
vn -0.1943 -0.7400 0.6439
vn -0.4998 -0.5696 0.6524
vn -0.9396 0.0642 0.3363
vn -0.8068 0.5909 -0.0000
vn 0.1020 0.9948 0.0002
vn 0.5165 0.8563 0.0002
vn 0.9831 -0.1829 0.0001
vn 0.3070 -0.9517 0.0002
vn -0.5161 -0.8565 0.0001
vn -0.8881 -0.4596 -0.0000
vn -0.9990 -0.0453 0.0001
vn -0.4986 0.4727 -0.7266
vn -0.2690 0.6489 -0.7118
vn -0.4997 0.6214 -0.6035
vn -0.1814 0.7283 -0.6609
vn -0.0190 0.6595 -0.7514
vn 0.0358 0.7525 -0.6576
vn 0.2273 0.6572 -0.7187
vn 0.2374 0.7372 -0.6326
vn 0.4554 0.6391 -0.6199
vn 0.4613 0.6748 -0.5760
vn 0.6443 0.6062 -0.4663
vn 0.7815 0.4087 -0.4714
vn 0.7768 0.5715 -0.2645
vn 0.8035 0.5377 -0.2554
vn 0.8378 0.5453 -0.0292
vn 0.8715 0.4904 -0.0006
vn 0.8047 0.5537 0.2142
vn 0.7999 0.5280 0.2851
vn 0.6832 0.5876 0.4336
vn 0.6309 0.6021 0.4894
vn 0.5000 0.6223 0.6023
vn 0.4987 0.4749 0.7251
vn 0.2694 0.6503 0.7103
vn 0.1820 0.7293 0.6595
vn 0.0598 0.4532 0.8894
vn -0.0351 0.7536 0.6564
vn -0.1847 0.7503 0.6348
vn 0.8207 0.3962 -0.4117
vn 0.8776 0.4603 0.1342
vn 0.2649 0.6966 0.6668
vn 0.0383 0.7535 0.6564
vn -0.0106 0.8783 0.4779
vn -0.2366 0.7385 0.6314
vn -0.0666 0.7408 0.6684
vn -0.4604 0.6765 0.5749
vn -0.3349 0.6678 0.6648
vn -0.7805 0.4117 0.4704
vn -0.8027 0.5392 0.2547
vn -0.7468 0.5196 0.4150
vn -0.8710 0.4912 -0.0000
vn -0.7996 0.5281 -0.2859
vn -0.6286 0.7011 -0.3365
vn -0.6307 0.6015 -0.4904
vn -0.3745 0.5997 -0.7072
vn -0.4544 0.6410 0.6186
vn -0.6434 0.6078 0.4654
vn -0.7761 0.5728 0.2638
vn -0.8373 0.5459 0.0286
vn -0.8043 0.5540 -0.2149
vn -0.6828 0.5873 -0.4346
vn -0.0365 0.7501 -0.6604
vn 0.0111 0.7589 -0.6511
vn 0.0672 0.7395 -0.6698
vn 0.3358 0.6659 -0.6662
vn -0.3197 -0.0918 -0.9431
vn -0.5910 0.1760 -0.7873
vn -0.3120 0.1740 -0.9340
vn -0.0000 0.0707 -0.9975
vn -0.0000 -0.0998 -0.9950
vn 0.0015 0.1715 -0.9852
vn -0.8056 0.1780 -0.5650
vn -0.6032 -0.1031 -0.7909
vn -0.3197 0.0919 -0.9431
vn -0.0789 0.2158 -0.9732
vn -0.9402 0.1704 -0.2950
vn -0.8197 -0.0987 -0.5642
vn -0.6052 0.0737 -0.7927
vn -0.3869 0.2152 -0.8967
vn -0.2012 0.5577 -0.8053
vn 0.0670 0.5599 -0.8259
vn 0.0057 0.3847 -0.9230
vn -0.9867 0.1625 -0.0031
vn -0.9514 -0.1014 -0.2906
vn -0.8209 0.0878 -0.5642
vn -0.6507 0.2150 -0.7282
vn -0.4498 0.5537 -0.7009
vn -0.2838 0.3924 -0.8749
vn -0.0038 0.3264 -0.9452
vn -0.9444 0.1567 0.2891
vn -0.9949 -0.1010 -0.0000
vn -0.9525 0.0906 -0.2907
vn -0.8440 0.2157 -0.4911
vn -0.6510 0.5430 -0.5304
vn -0.5458 0.3879 -0.7428
vn -0.3133 0.3159 -0.8956
vn -0.0714 0.4217 -0.9039
vn -0.8113 0.1617 0.5618
vn -0.9519 -0.1009 0.2892
vn -0.9969 0.0783 -0.0000
vn -0.9531 0.2130 -0.2148
vn -0.7867 0.5332 -0.3112
vn -0.7529 0.3751 -0.5408
vn -0.5853 0.3087 -0.7498
vn -0.3554 0.4223 -0.8339
vn -0.2103 0.5100 -0.8340
vn 0.0698 0.5127 -0.8557
vn 0.0085 0.4096 -0.9122
vn -0.5958 0.1664 0.7857
vn -0.8198 -0.1097 0.5620
vn -0.9525 0.0906 0.2907
vn -0.9746 0.2113 0.0746
vn -0.8476 0.5265 -0.0654
vn -0.8869 0.3597 -0.2898
vn -0.7939 0.2944 -0.5321
vn -0.6019 0.4146 -0.6825
vn -0.4690 0.5006 -0.7276
vn -0.2782 0.4135 -0.8670
vn -0.0790 0.2046 -0.9756
vn -0.3146 0.1811 0.9318
vn -0.6039 -0.1113 0.7892
vn -0.8192 0.1092 0.5630
vn -0.9079 0.2188 0.3575
vn -0.8281 0.5290 0.1853
vn -0.9389 0.3440 -0.0119
vn -0.9213 0.2801 -0.2697
vn -0.7866 0.4054 -0.4658
vn -0.6786 0.4865 -0.5503
vn -0.5375 0.4079 -0.7380
vn -0.3917 0.1967 -0.8988
vn -0.2967 -0.2456 -0.9228
vn 0.0060 -0.2401 -0.9707
vn 0.0134 -0.9965 -0.0823
vn 0.0450 -0.9961 -0.0755
vn -0.2888 -0.1045 0.9517
vn -0.6032 0.1031 0.7909
vn -0.7560 0.2230 0.6154
vn -0.7276 0.5404 0.4227
vn -0.9000 0.3427 0.2695
vn -0.9592 0.2827 0.0094
vn -0.8933 0.3990 -0.2068
vn -0.8234 0.4654 -0.3247
vn -0.7452 0.3917 -0.5396
vn -0.6573 0.1932 -0.7284
vn -0.5706 -0.2461 -0.7835
vn -0.0158 -0.9965 -0.0816
vn -0.0427 -0.9964 -0.0736
vn -0.7882 -0.2288 -0.5714
vn -0.8513 0.1896 -0.4893
vn -0.8821 0.3703 -0.2913
vn -0.8884 0.4538 -0.0693
vn -0.9147 0.3983 0.0681
vn -0.9097 0.3022 0.2850
vn -0.7715 0.3527 0.5295
vn -0.5575 0.5507 0.6212
vn -0.5260 0.2238 0.8205
vn -0.3696 0.1175 0.9217
vn -0.0312 0.0945 0.9950
vn -0.2356 0.2301 0.9442
vn 0.0796 0.2260 0.9709
vn -0.0656 -0.9960 -0.0606
vn -0.9291 -0.2084 -0.3054
vn -0.9607 0.1789 -0.2121
vn -0.9359 0.3520 -0.0143
vn -0.8668 0.4601 0.1923
vn -0.8497 0.4050 0.3375
vn -0.7782 0.3220 0.5392
vn -0.5641 0.3693 0.7385
vn -0.3291 0.5585 0.7614
vn -0.0846 -0.9954 -0.0440
vn -0.9827 -0.1850 -0.0100
vn -0.9809 0.1786 0.0765
vn -0.8979 0.3503 0.2665
vn -0.7605 0.4790 0.4385
vn -0.7033 0.4127 0.5788
vn -0.5711 0.3312 0.7511
vn -0.2990 0.3849 0.8732
vn -0.0664 0.5625 0.8241
vn -0.1016 -0.9946 -0.0201
vn -0.9403 -0.1831 0.2868
vn -0.9138 0.1911 0.3584
vn -0.7684 0.3655 0.5253
vn -0.5806 0.4973 0.6447
vn -0.4841 0.4241 0.7653
vn -0.3000 0.3347 0.8933
vn -0.0051 0.3898 0.9209
vn -0.1073 -0.9942 0.0092
vn -0.8047 -0.1955 0.5606
vn -0.7622 0.2002 0.6156
vn -0.5606 0.3866 0.7323
vn -0.3426 0.5116 0.7879
vn -0.2162 0.4267 0.8782
vn 0.0044 0.3329 0.9430
vn -0.0960 -0.9946 0.0385
vn -0.5880 -0.2187 0.7788
vn -0.5309 0.2048 0.8223
vn -0.2975 0.4035 0.8652
vn -0.0291 0.5909 0.8063
vn 0.0719 0.4261 0.9018
vn 0.2017 0.5601 0.8035
vn 0.2842 0.3965 0.8729
vn 0.3244 0.4183 0.8484
vn 0.3512 0.3147 0.8818
vn 0.2683 0.5170 0.8129
vn 0.5252 0.3604 0.7709
vn 0.4890 0.5125 0.7059
vn 0.6787 0.4875 0.5492
vn 0.7454 0.3929 0.5386
vn 0.8237 0.4655 0.3240
vn 0.8824 0.3702 0.2905
vn 0.8888 0.4530 0.0686
vn 0.9364 0.3507 0.0137
vn 0.8675 0.4585 -0.1929
vn 0.9153 0.3969 -0.0687
vn 0.8506 0.4025 -0.3384
vn 0.9105 0.2991 -0.2857
vn 0.7792 0.3176 -0.5403
vn 0.7725 0.3487 -0.5306
vn 0.5653 0.3643 -0.7401
vn 0.5531 0.4771 0.6830
vn 0.7867 0.4061 0.4649
vn 0.8937 0.3986 0.2061
vn 0.4500 0.5552 0.6995
vn 0.5459 0.3905 0.7413
vn 0.6476 0.1603 0.7450
vn 0.7939 0.2960 0.5311
vn 0.9216 0.2799 0.2689
vn 0.9597 0.2808 -0.0100
vn 0.9008 0.3401 -0.2701
vn 0.7284 0.5385 -0.4236
vn 0.5588 0.5476 -0.6228
vn 0.7572 0.2154 -0.6166
vn 0.5274 0.2138 -0.8223
vn 0.7530 0.3763 0.5398
vn 0.8872 0.3596 0.2891
vn 0.9394 0.3427 0.0112
vn 0.6511 0.5438 0.5294
vn 0.7869 0.5332 0.3105
vn 0.8481 0.5258 0.0647
vn 0.8288 0.5278 -0.1860
vn 0.3606 0.2509 0.8983
vn 0.6184 0.2058 0.7585
vn 0.8441 0.2174 0.4901
vn 0.9534 0.2123 0.2142
vn 0.9751 0.2084 -0.0752
vn 0.9088 0.2137 -0.3584
vn 0.3302 0.5557 -0.7630
vn 0.2367 0.2194 -0.9465
vn 0.3204 0.0893 -0.9431
vn 0.6045 0.0794 -0.7927
vn 0.8203 0.0934 -0.5642
vn 0.9533 0.0788 -0.2914
vn 0.9974 0.0715 -0.0000
vn 0.9528 0.0903 0.2900
vn 0.8210 0.0942 0.5631
vn 0.6454 0.0858 0.7590
vn 0.3502 0.1103 0.9302
vn 0.0673 0.5598 -0.8259
vn -0.0787 0.2158 -0.9733
vn 0.0001 0.0707 -0.9975
vn 0.3204 -0.0892 -0.9431
vn 0.6052 -0.0898 -0.7910
vn 0.8210 -0.0942 -0.5631
vn 0.9528 -0.0903 -0.2900
vn 0.9954 -0.0959 -0.0000
vn 0.9517 -0.1012 0.2899
vn 0.8001 -0.1200 0.5877
vn 0.5615 -0.1013 0.8213
vn 0.3200 -0.1117 0.9408
vn 0.0530 -0.1471 0.9877
vn 0.0016 0.1715 -0.9852
vn 0.3158 0.1670 -0.9340
vn 0.5971 0.1532 -0.7874
vn 0.8125 0.1517 -0.5629
vn 0.9416 0.2153 -0.2590
vn 0.9963 0.0697 0.0501
vn 0.9405 0.1702 0.2942
vn 0.8156 0.2699 0.5117
vn 0.6228 0.1208 0.7730
vn 0.5097 0.7740 0.3756
vn 0.3606 0.7847 0.5041
vn 0.6832 0.5875 0.4336
vn 0.5000 0.6222 0.6024
vn 0.1810 0.7906 0.5850
vn 0.2695 0.6503 0.7103
vn -0.0237 0.8321 0.5541
vn 0.0598 0.4531 0.8894
vn -0.1846 0.7503 0.6348
vn 0.2113 0.7854 -0.5817
vn 0.3933 0.7764 -0.4925
vn 0.5392 0.7645 -0.3531
vn 0.5168 0.8368 -0.1808
vn 0.7129 0.7012 -0.0118
vn 0.6107 0.7637 0.2094
vn 0.0144 0.7908 -0.6119
vn -0.0191 0.6595 -0.7514
vn 0.2273 0.6571 -0.7187
vn 0.6443 0.6061 -0.4664
vn 0.7769 0.5714 -0.2645
vn 0.8379 0.5450 -0.0292
vn 0.8048 0.5536 0.2142
vn -0.0008 0.1851 0.9827
vn 0.3124 0.1849 0.9318
vn -0.2693 0.7012 0.6601
vn -0.3925 0.7774 0.4915
vn -0.4544 0.6409 0.6186
vn -0.5385 0.7654 0.3523
vn -0.6434 0.6078 0.4655
vn -0.6301 0.7570 0.1734
vn -0.6534 0.7568 -0.0203
vn -0.8374 0.5459 0.0286
vn -0.6103 0.7638 -0.2101
vn -0.8044 0.5539 -0.2148
vn -0.5093 0.7739 -0.3764
vn -0.6830 0.5871 -0.4346
vn -0.3602 0.7842 -0.5052
vn -0.4998 0.6213 -0.6035
vn -0.1805 0.7898 -0.5862
vn -0.2692 0.6489 -0.7117
vn 0.9097 0.0618 0.4106
vn 0.7203 0.5906 0.3639
vn 0.0045 -0.0996 0.9950
vn -0.0143 0.5866 0.8098
vn 0.7522 -0.5734 0.3247
vn 0.0229 -0.5981 0.8011
vn -0.7097 -0.6018 0.3662
vn -0.9049 -0.0779 0.4184
vn -0.7580 0.5987 0.2587
vn 0.8550 -0.3853 -0.3472
vn 0.7105 -0.6004 -0.3671
vn 0.8051 -0.4469 0.3900
vn -0.0207 -0.4608 0.8872
vn -0.8541 -0.3879 0.3464
vn -0.8049 -0.4465 -0.3908
vn -0.7519 -0.5734 -0.3254
vn -0.9096 0.0583 -0.4115
vn -0.6871 0.5182 -0.5093
vn -0.8418 0.4753 -0.2559
vn -0.7734 0.2706 0.5733
vn 0.0285 0.4524 0.8914
vn 0.8583 0.3829 0.3417
vn 0.8056 0.4399 -0.3968
vn 0.7588 0.5587 -0.3349
vn 0.9059 -0.0594 -0.4193
vn 0.0215 -0.4568 -0.8893
vn -0.0221 -0.5959 -0.8028
vn -0.0037 -0.0705 -0.9975
vn 0.0151 0.5841 -0.8115
vn -0.0276 0.4483 -0.8934
vn 0.2803 0.0528 -0.9585
vn 0.9832 0.0380 -0.1785
vn 0.7561 -0.0805 0.6495
vn -0.2790 -0.0887 0.9562
vn -0.9825 -0.0553 0.1778
vn -0.7561 0.0696 -0.6507
vn 0.2802 0.0528 -0.9585
vn -0.0282 0.4483 -0.8934
vn 0.0147 0.5841 -0.8115
vn -0.0039 -0.0705 -0.9975
vn -0.0223 -0.5958 -0.8028
vn 0.0213 -0.4568 -0.8893
vn -0.2026 -0.7112 -0.6731
vn -0.7560 -0.6412 -0.1316
vn -0.5213 -0.7217 0.4554
vn 0.2033 -0.7123 0.6718
vn 0.7564 -0.6408 0.1310
vn 0.5221 -0.7205 -0.4564
vn -0.2031 -0.7112 -0.6730
vn -0.0550 0.2128 0.9755
vn 0.2181 0.4086 0.8863
vn 0.6574 0.1987 0.7269
vn 0.3919 0.2054 0.8968
vn 0.0797 0.2155 0.9732
vn -0.2393 0.2063 0.9488
vn 0.8513 0.1917 0.4884
vn 0.7882 -0.2313 0.5703
vn 0.5707 -0.2512 0.7818
vn 0.2970 -0.2532 0.9207
vn -0.0052 -0.2495 0.9684
vn -0.3125 -0.2331 0.9209
vn 0.9611 0.1779 0.2115
vn 0.9294 -0.2084 0.3047
vn 0.0661 -0.9960 0.0600
vn 0.0432 -0.9964 0.0729
vn 0.0163 -0.9966 0.0810
vn -0.0129 -0.9966 0.0816
vn -0.0445 -0.9962 0.0748
vn -0.0731 -0.9955 0.0607
vn 0.3001 0.3796 -0.8751
vn 0.5723 0.3253 -0.7527
vn 0.7044 0.4093 -0.5799
vn 0.7614 0.4767 -0.4394
vn 0.8987 0.3477 -0.2672
vn 0.9815 0.1751 -0.0771
vn 0.9832 -0.1824 0.0094
vn 0.0851 -0.9954 0.0434
vn -0.7154 -0.6984 0.0204
vn -0.6854 -0.7029 -0.1902
vn -0.5815 -0.7187 -0.3812
vn -0.4300 -0.6828 -0.5906
vn -0.1596 -0.7507 -0.6410
vn 0.0059 0.3847 -0.9230
vn 0.3008 0.3282 -0.8954
vn 0.4853 0.4198 -0.7670
vn 0.5818 0.4943 -0.6459
vn 0.7695 0.3618 -0.5263
vn 0.9147 0.1852 -0.3592
vn 0.9411 -0.1777 -0.2875
vn 0.1022 -0.9946 0.0195
vn -0.6653 -0.7115 0.2262
vn -0.5520 -0.7296 0.4038
vn 0.1078 -0.9941 -0.0098
vn 0.8059 -0.1875 -0.5616
vn 0.7634 0.1916 -0.6168
vn 0.5618 0.3819 -0.7339
vn 0.3437 0.5083 -0.7896
vn 0.2172 0.4220 -0.8802
vn -0.0036 0.3264 -0.9452
vn -0.3906 -0.7457 0.5398
vn 0.0965 -0.9946 -0.0392
vn 0.5892 -0.2090 -0.7805
vn 0.5320 0.1938 -0.8243
vn 0.2986 0.3984 -0.8672
vn 0.0700 0.5127 -0.8557
vn -0.0712 0.4217 -0.9039
vn -0.1970 -0.7535 0.6272
vn 0.0736 -0.9954 -0.0613
vn 0.3137 -0.2227 -0.9230
vn 0.2403 0.1940 -0.9511
vn 0.0088 0.4096 -0.9122
vn 0.0135 -0.7544 0.6563
vn 0.0450 -0.9961 -0.0754
vn 0.0061 -0.2401 -0.9707
vn -0.0788 0.2046 -0.9757
vn -0.5161 -0.8565 -0.0000
vn -0.5003 -0.5677 -0.6538
vn -0.9399 0.0544 -0.3372
vn -0.9990 -0.0452 -0.0001
vn 0.7296 -0.2917 -0.6186
vn 0.7637 -0.3138 0.5642
vn 0.7090 -0.5441 -0.4487
vn 0.2579 -0.9567 0.1352
vn -0.5523 -0.8281 -0.0965
vn -0.8976 -0.3610 0.2528
vn -0.4034 -0.1705 -0.8990
vn -0.2027 -0.7112 -0.6731
vn 0.5223 -0.7204 -0.4563
vn -0.0000 -1.0000 -0.0000
vn 0.7565 -0.6408 0.1310
vn 0.2032 -0.7124 0.6717
vn -0.7560 -0.6411 -0.1318
vn 0.7244 -0.3556 0.5906
vn 0.8710 -0.3514 0.3433
vn 0.5819 -0.7188 0.3804
vn 0.6860 -0.7024 0.1897
vn 0.9359 -0.3450 0.0713
vn 0.7160 -0.6978 -0.0210
vn 0.9148 -0.3470 -0.2069
vn 0.6661 -0.7105 -0.2268
vn 0.8092 -0.3499 -0.4720
vn 0.5529 -0.7284 -0.4047
vn 0.6239 -0.3507 -0.6984
vn 0.3915 -0.7444 -0.5409
vn 0.3700 -0.3549 -0.8586
vn 0.1980 -0.7521 -0.6286
vn 0.0309 -0.3672 -0.9296
vn 0.0245 -0.8277 -0.5607
vn -0.0498 -0.7551 -0.6537
vn 0.1624 -0.7533 -0.6373
vn 0.3655 -0.7390 -0.5659
vn 0.5426 -0.7166 -0.4383
vn 0.6702 -0.6944 -0.2621
vn 0.7314 -0.6797 -0.0552
vn 0.7138 -0.6818 0.1600
vn 0.6173 -0.7006 0.3579
vn 0.4583 -0.7263 0.5123
vn 0.5031 -0.3605 0.7854
vn 0.2632 -0.7470 0.6105
vn 0.2263 -0.3604 0.9049
vn 0.0504 -0.7562 0.6524
vn -0.0753 -0.3605 0.9297
vn -0.1617 -0.7546 0.6360
vn -0.3690 -0.3607 0.8566
vn -0.3647 -0.7403 0.5648
vn -0.6227 -0.3557 0.6969
vn 0.4234 -0.7359 0.5285
vn 0.2275 -0.7487 0.6226
vn 0.0136 -0.7543 0.6563
vn -0.1972 -0.7534 0.6273
vn -0.3908 -0.7456 0.5398
vn -0.5521 -0.7294 0.4039
vn -0.8082 -0.3534 0.4710
vn -0.6655 -0.7113 0.2262
vn -0.9141 -0.3492 0.2062
vn -0.7155 -0.6983 0.0204
vn -0.9355 -0.3461 -0.0719
vn -0.6856 -0.7027 -0.1903
vn -0.8707 -0.3512 -0.3442
vn -0.5815 -0.7186 -0.3813
vn -0.7247 -0.3528 -0.5919
vn -0.4301 -0.6826 -0.5908
vn -0.5282 -0.3411 -0.7776
vn -0.3003 -0.3551 -0.8853
vn -0.1596 -0.7507 -0.6411
vn -0.5417 -0.7178 0.4373
vn -0.6695 -0.6953 0.2613
vn -0.7308 -0.6804 0.0545
vn -0.7134 -0.6821 -0.1607
vn -0.6170 -0.7005 -0.3587
vn -0.4580 -0.7258 -0.5133
vn -0.2627 -0.7461 -0.6118
vn -0.0500 -0.7551 -0.6537
vn 0.0306 -0.3673 -0.9296
vn 0.0245 -0.8276 -0.5608
vn 0.3654 -0.7391 -0.5659
vn 0.5426 -0.7166 -0.4382
vn 0.6702 -0.6943 -0.2622
vn 0.7139 -0.6817 0.1600
vn 0.6174 -0.7005 0.3579
vn 0.4584 -0.7262 0.5123
vn 0.2632 -0.7469 0.6106
vn -0.1616 -0.7546 0.6360
vn -0.3646 -0.7403 0.5648
vn -0.5418 -0.7177 0.4375
vn -0.6694 -0.6953 0.2615
vn -0.7308 -0.6804 0.0546
vn -0.6170 -0.7004 -0.3587
vn -0.4580 -0.7257 -0.5134
vn -0.2628 -0.7461 -0.6118
vn -0.0499 -0.7551 -0.6537
vn 0.0244 -0.8278 -0.5605
vn 0.1978 -0.7522 -0.6285
vn 0.3914 -0.7445 -0.5408
vn 0.5528 -0.7284 -0.4047
vn 0.6660 -0.7107 -0.2268
vn 0.6858 -0.7027 0.1896
vn 0.5817 -0.7190 0.3804
vn 0.4232 -0.7360 0.5285
vn 0.2275 -0.7489 0.6224
vn 0.0135 -0.7546 0.6561
vt 0.045217 0.976174
vt 0.016769 0.902840
vt 0.099489 0.976174
vt 0.127938 0.902840
vt 0.146612 0.976174
vt 0.174842 0.902840
vt 0.257345 0.976174
vt 0.229113 0.902840
vt 0.987421 0.755932
vt 0.961058 0.731076
vt 0.974875 0.721218
vt 0.988168 0.834639
vt 0.971247 0.834639
vt 0.971281 0.758279
vt 0.948540 0.740109
vt 0.931638 0.724929
vt 0.923604 0.740439
vt 0.908695 0.736970
vt 0.908695 0.754138
vt 0.902146 0.755385
vt 0.893786 0.740439
vt 0.897734 0.758521
vt 0.882975 0.749729
vt 0.896199 0.762501
vt 0.878826 0.762128
vt 0.897598 0.766553
vt 0.882210 0.775061
vt 0.902033 0.769819
vt 0.893298 0.785044
vt 0.908695 0.771131
vt 0.908696 0.788755
vt 0.915358 0.769819
vt 0.924090 0.785044
vt 0.919792 0.766553
vt 0.935182 0.775061
vt 0.956113 0.760811
vt 0.954239 0.834639
vt 0.930623 0.834639
vt 0.908695 0.834639
vt 0.886767 0.834639
vt 0.863151 0.834639
vt 0.861277 0.760810
vt 0.868851 0.740109
vt 0.856332 0.731076
vt 0.878440 0.712653
vt 0.870383 0.698397
vt 0.908695 0.689730
vt 0.908695 0.705701
vt 0.947007 0.698397
vt 0.938951 0.712653
vt 0.885753 0.724929
vt 0.908695 0.719319
vt 0.842515 0.721218
vt 0.846109 0.758280
vt 0.829970 0.755932
vt 0.829223 0.834639
vt 0.846143 0.834639
vt 0.928655 0.845866
vt 0.906728 0.891750
vt 0.906726 0.845866
vt 0.922121 0.895461
vt 0.952270 0.845866
vt 0.933213 0.905444
vt 0.954144 0.919695
vt 0.969278 0.845866
vt 0.969312 0.922226
vt 0.986199 0.845866
vt 0.985452 0.924573
vt 0.959089 0.949429
vt 0.972906 0.959287
vt 0.936982 0.967852
vt 0.945039 0.982109
vt 0.906726 0.974805
vt 0.906726 0.990776
vt 0.876471 0.967852
vt 0.868414 0.982109
vt 0.854364 0.949429
vt 0.840547 0.959287
vt 0.844140 0.922225
vt 0.828001 0.924573
vt 0.827254 0.845866
vt 0.844175 0.845866
vt 0.859309 0.919695
vt 0.861183 0.845866
vt 0.946571 0.940396
vt 0.929669 0.955576
vt 0.906726 0.961186
vt 0.883784 0.955576
vt 0.866882 0.940396
vt 0.884798 0.845866
vt 0.891330 0.895461
vt 0.880242 0.905444
vt 0.876858 0.918377
vt 0.881007 0.930777
vt 0.891817 0.940066
vt 0.906726 0.943536
vt 0.921636 0.940066
vt 0.932446 0.930777
vt 0.936594 0.918377
vt 0.917824 0.913952
vt 0.913389 0.910686
vt 0.906726 0.909375
vt 0.900064 0.910686
vt 0.895629 0.913952
vt 0.894230 0.918005
vt 0.895765 0.921984
vt 0.900177 0.925120
vt 0.906726 0.926368
vt 0.913275 0.925120
vt 0.917687 0.921984
vt 0.919223 0.918005
vt 0.814842 0.639154
vt 0.832250 0.679803
vt 0.800086 0.664299
vt 0.839843 0.652139
vt 0.867200 0.685036
vt 0.867200 0.656515
vt 0.902151 0.679803
vt 0.894558 0.652139
vt 0.934315 0.664300
vt 0.919559 0.639154
vt 0.960621 0.639318
vt 0.937583 0.621236
vt 0.977815 0.607157
vt 0.950038 0.597398
vt 0.983890 0.570940
vt 0.954402 0.570940
vt 0.977814 0.534724
vt 0.950038 0.544483
vt 0.960621 0.502563
vt 0.937583 0.520645
vt 0.934315 0.477581
vt 0.919559 0.502727
vt 0.902151 0.462078
vt 0.894558 0.489742
vt 0.867200 0.456846
vt 0.867200 0.485366
vt 0.832250 0.462078
vt 0.931337 0.588129
vt 0.937083 0.570940
vt 0.931337 0.553752
vt 0.918641 0.540246
vt 0.892634 0.535499
vt 0.867200 0.535499
vt 0.839843 0.489742
vt 0.841767 0.535499
vt 0.814842 0.502727
vt 0.815759 0.540246
vt 0.796818 0.520645
vt 0.784363 0.544483
vt 0.803064 0.553752
vt 0.779999 0.570940
vt 0.797318 0.570940
vt 0.784363 0.597398
vt 0.803064 0.588129
vt 0.796818 0.621236
vt 0.815759 0.601635
vt 0.800086 0.477581
vt 0.773780 0.502563
vt 0.756586 0.534724
vt 0.750511 0.570940
vt 0.756587 0.607157
vt 0.773780 0.639318
vt 0.841767 0.606382
vt 0.867200 0.606382
vt 0.892634 0.606382
vt 0.918641 0.601635
vt 0.050647 0.716257
vt 0.086675 0.801403
vt 0.050647 0.801403
vt 0.014618 0.655029
vt 0.014618 0.716257
vt 0.014618 0.801404
vt 0.122703 0.801404
vt 0.086675 0.716257
vt 0.050647 0.655029
vt 0.014618 0.597242
vt 0.158731 0.801404
vt 0.122703 0.716258
vt 0.086675 0.655030
vt 0.050647 0.597242
vt 0.050647 0.553883
vt 0.014618 0.553882
vt 0.014618 0.533983
vt 0.194758 0.801404
vt 0.158731 0.716258
vt 0.122703 0.655030
vt 0.086675 0.597243
vt 0.086675 0.553884
vt 0.050647 0.533984
vt 0.014618 0.518929
vt 0.230786 0.801404
vt 0.194758 0.716259
vt 0.158731 0.655031
vt 0.122703 0.597244
vt 0.122703 0.553885
vt 0.086675 0.533985
vt 0.050647 0.518929
vt 0.014618 0.498668
vt 0.266815 0.801404
vt 0.230786 0.716259
vt 0.194758 0.655032
vt 0.158731 0.597245
vt 0.158731 0.553886
vt 0.122703 0.533986
vt 0.086675 0.518930
vt 0.050647 0.498668
vt 0.050647 0.485132
vt 0.014618 0.485131
vt 0.014618 0.467991
vt 0.302837 0.801404
vt 0.266815 0.716260
vt 0.230786 0.655033
vt 0.194758 0.597246
vt 0.194758 0.553887
vt 0.158731 0.533988
vt 0.122703 0.518932
vt 0.086675 0.498669
vt 0.086675 0.485132
vt 0.050647 0.467991
vt 0.014618 0.456437
vt 0.338860 0.801405
vt 0.302837 0.716260
vt 0.266815 0.655033
vt 0.230786 0.597247
vt 0.230786 0.553889
vt 0.194758 0.533989
vt 0.158731 0.518933
vt 0.122703 0.498670
vt 0.122703 0.485133
vt 0.086675 0.467992
vt 0.050647 0.456438
vt 0.050647 0.421336
vt 0.014618 0.421336
vt 0.050647 0.416207
vt 0.014618 0.416207
vt 0.338860 0.716260
vt 0.302837 0.655034
vt 0.266815 0.597248
vt 0.266815 0.553889
vt 0.230786 0.533990
vt 0.194758 0.518934
vt 0.158731 0.498671
vt 0.158731 0.485134
vt 0.122703 0.467992
vt 0.086675 0.456438
vt 0.086675 0.421336
vt 0.086675 0.416207
vt 0.122703 0.416207
vt 0.122703 0.421336
vt 0.122703 0.456439
vt 0.158731 0.467993
vt 0.194758 0.485135
vt 0.194758 0.498672
vt 0.230786 0.518935
vt 0.266815 0.533991
vt 0.302837 0.553890
vt 0.302837 0.597248
vt 0.338860 0.655034
vt 0.374904 0.655034
vt 0.338860 0.597249
vt 0.374904 0.597249
vt 0.158731 0.416207
vt 0.158731 0.421336
vt 0.158731 0.456439
vt 0.194758 0.467994
vt 0.230786 0.485136
vt 0.230786 0.498673
vt 0.266815 0.518936
vt 0.302837 0.533991
vt 0.338860 0.553890
vt 0.194758 0.416207
vt 0.194758 0.421336
vt 0.194758 0.456440
vt 0.230786 0.467995
vt 0.266815 0.485137
vt 0.266815 0.498674
vt 0.302837 0.518936
vt 0.338860 0.533991
vt 0.374904 0.553890
vt 0.230786 0.416207
vt 0.230786 0.421336
vt 0.230786 0.456441
vt 0.266815 0.467995
vt 0.302837 0.485137
vt 0.302837 0.498674
vt 0.338860 0.518936
vt 0.374904 0.533991
vt 0.266815 0.416207
vt 0.266815 0.421337
vt 0.266815 0.456441
vt 0.302837 0.467995
vt 0.338860 0.485137
vt 0.338860 0.498674
vt 0.374904 0.518936
vt 0.302837 0.416207
vt 0.302837 0.421337
vt 0.302837 0.456441
vt 0.338860 0.467995
vt 0.374904 0.485137
vt 0.374904 0.498674
vt 0.410985 0.553890
vt 0.410985 0.533991
vt 0.410985 0.518936
vt 0.410985 0.498674
vt 0.410985 0.485137
vt 0.447009 0.485137
vt 0.447009 0.467995
vt 0.483033 0.485137
vt 0.483033 0.467995
vt 0.519058 0.485136
vt 0.519058 0.467995
vt 0.555082 0.485135
vt 0.555082 0.467994
vt 0.591107 0.485134
vt 0.555082 0.498672
vt 0.591107 0.498671
vt 0.591107 0.518933
vt 0.627131 0.518932
vt 0.627131 0.533986
vt 0.663156 0.533985
vt 0.447009 0.498674
vt 0.483033 0.498674
vt 0.519058 0.498673
vt 0.447009 0.553890
vt 0.447009 0.533991
vt 0.447009 0.518936
vt 0.483033 0.518936
vt 0.519058 0.518935
vt 0.555082 0.518934
vt 0.591107 0.533988
vt 0.627131 0.553885
vt 0.663156 0.553884
vt 0.627131 0.597244
vt 0.663156 0.597243
vt 0.483033 0.533991
vt 0.519058 0.533990
vt 0.555082 0.533989
vt 0.483033 0.553889
vt 0.519058 0.553889
vt 0.555082 0.553887
vt 0.591107 0.553886
vt 0.410985 0.597249
vt 0.447009 0.597248
vt 0.483033 0.597248
vt 0.519058 0.597247
vt 0.555082 0.597246
vt 0.591107 0.597245
vt 0.699181 0.553883
vt 0.699181 0.597242
vt 0.699181 0.655029
vt 0.663156 0.655030
vt 0.627131 0.655030
vt 0.591107 0.655031
vt 0.555082 0.655032
vt 0.519058 0.655033
vt 0.483033 0.655033
vt 0.447009 0.655034
vt 0.410985 0.655034
vt 0.735206 0.553882
vt 0.735206 0.597242
vt 0.735206 0.655029
vt 0.735206 0.716257
vt 0.699181 0.716257
vt 0.663156 0.716257
vt 0.627131 0.716258
vt 0.591107 0.716258
vt 0.555082 0.716259
vt 0.519058 0.716259
vt 0.483033 0.716260
vt 0.447009 0.716260
vt 0.410985 0.716260
vt 0.374904 0.716260
vt 0.735206 0.801404
vt 0.699181 0.801403
vt 0.663156 0.801403
vt 0.627131 0.801403
vt 0.591107 0.801404
vt 0.555082 0.801404
vt 0.519058 0.801404
vt 0.483033 0.801404
vt 0.447009 0.801404
vt 0.483033 0.814053
vt 0.447009 0.814053
vt 0.483033 0.882133
vt 0.447009 0.882133
vt 0.410985 0.814053
vt 0.410985 0.882133
vt 0.374904 0.814053
vt 0.374904 0.882133
vt 0.338860 0.882133
vt 0.699181 0.814052
vt 0.663156 0.814052
vt 0.627131 0.814052
vt 0.591107 0.814052
vt 0.555082 0.814052
vt 0.519058 0.814052
vt 0.735206 0.814052
vt 0.735206 0.882133
vt 0.699181 0.882133
vt 0.663156 0.882133
vt 0.627131 0.882133
vt 0.591107 0.882133
vt 0.555082 0.882133
vt 0.519058 0.882133
vt 0.374904 0.801405
vt 0.410985 0.801405
vt 0.338860 0.814053
vt 0.302837 0.814053
vt 0.302837 0.882133
vt 0.266815 0.814053
vt 0.266815 0.882133
vt 0.230786 0.814052
vt 0.230786 0.882133
vt 0.194758 0.814052
vt 0.194758 0.882133
vt 0.158731 0.814052
vt 0.158731 0.882133
vt 0.122703 0.814052
vt 0.122703 0.882133
vt 0.086675 0.814052
vt 0.086675 0.882133
vt 0.050647 0.814052
vt 0.050647 0.882133
vt 0.014618 0.814052
vt 0.014618 0.882133
vt 0.895077 0.123983
vt 0.894527 0.155732
vt 0.867208 0.123983
vt 0.867208 0.155732
vt 0.894750 0.090584
vt 0.867208 0.090584
vt 0.839667 0.090584
vt 0.839340 0.123983
vt 0.839890 0.155732
vt 0.918088 0.067354
vt 0.924560 0.090584
vt 0.892988 0.067354
vt 0.867208 0.067354
vt 0.841428 0.067354
vt 0.816329 0.067354
vt 0.809856 0.090584
vt 0.808186 0.123983
vt 0.810021 0.155732
vt 0.816329 0.180611
vt 0.841428 0.180611
vt 0.867208 0.180611
vt 0.892988 0.180611
vt 0.918088 0.180611
vt 0.924396 0.155732
vt 0.926231 0.123983
vt 0.940321 0.067354
vt 0.961571 0.090584
vt 0.970426 0.123983
vt 0.962390 0.155732
vt 0.940321 0.180611
vt 0.940321 0.446576
vt 0.918088 0.446576
vt 0.892988 0.446576
vt 0.867208 0.446576
vt 0.841428 0.446576
vt 0.816329 0.446576
vt 0.794096 0.446576
vt 0.794096 0.180611
vt 0.772027 0.155732
vt 0.763991 0.123983
vt 0.772846 0.090584
vt 0.794096 0.067354
vt 0.794096 0.011286
vt 0.816329 0.011286
vt 0.841428 0.011286
vt 0.867208 0.011286
vt 0.892988 0.011286
vt 0.918088 0.011286
vt 0.940321 0.011286
vt 0.374904 0.467995
vt 0.410985 0.467995
vt 0.447009 0.456441
vt 0.410985 0.456441
vt 0.374904 0.456441
vt 0.338860 0.456441
vt 0.483033 0.456441
vt 0.483033 0.421337
vt 0.447009 0.421337
vt 0.410985 0.421337
vt 0.374904 0.421337
vt 0.338860 0.421337
vt 0.519058 0.456441
vt 0.519058 0.421337
vt 0.519058 0.416207
vt 0.483033 0.416207
vt 0.447009 0.416207
vt 0.410985 0.416207
vt 0.374904 0.416207
vt 0.338860 0.416207
vt 0.699181 0.533984
vt 0.663156 0.518930
vt 0.627131 0.498670
vt 0.627131 0.485133
vt 0.591107 0.467993
vt 0.555082 0.456440
vt 0.555082 0.421336
vt 0.555082 0.416207
vt 0.555082 0.407903
vt 0.519058 0.407903
vt 0.483033 0.407903
vt 0.447009 0.407903
vt 0.410985 0.407903
vt 0.735206 0.533983
vt 0.699181 0.518930
vt 0.663156 0.498669
vt 0.663156 0.485132
vt 0.627131 0.467992
vt 0.591107 0.456439
vt 0.591107 0.421336
vt 0.591107 0.416207
vt 0.591107 0.407903
vt 0.627131 0.407903
vt 0.627131 0.416207
vt 0.627131 0.421336
vt 0.627131 0.456439
vt 0.663156 0.467992
vt 0.699181 0.485132
vt 0.699181 0.498668
vt 0.735206 0.518929
vt 0.663156 0.407903
vt 0.663156 0.416207
vt 0.663156 0.421336
vt 0.663156 0.456438
vt 0.699181 0.467991
vt 0.735206 0.485131
vt 0.735206 0.498668
vt 0.699181 0.407903
vt 0.699181 0.416207
vt 0.699181 0.421336
vt 0.699181 0.456438
vt 0.735206 0.467991
vt 0.735206 0.407903
vt 0.735206 0.416207
vt 0.735206 0.421336
vt 0.735206 0.456437
vt 0.915244 0.755385
vt 0.934415 0.749729
vt 0.919656 0.758521
vt 0.938563 0.762128
vt 0.921192 0.762501
vt 0.277011 0.981767
vt 0.276956 0.901434
vt 0.389201 0.981767
vt 0.389201 0.901434
vt 0.456801 0.981767
vt 0.456801 0.901434
vt 0.569045 0.901434
vt 0.569045 0.981767
vt 0.635854 0.988363
vt 0.594433 0.964666
vt 0.635666 0.940642
vt 0.594245 0.916945
vt 0.635478 0.892922
vt 0.676899 0.916619
vt 0.677087 0.964340
vt 0.483080 0.172114
vt 0.519100 0.172114
vt 0.483276 0.407903
vt 0.519298 0.407903
vt 0.555129 0.172114
vt 0.555312 0.407903
vt 0.591146 0.172114
vt 0.591314 0.407903
vt 0.627166 0.172114
vt 0.627303 0.407903
vt 0.663179 0.172114
vt 0.663279 0.407903
vt 0.699194 0.172114
vt 0.699245 0.407903
vt 0.735206 0.172114
vt 0.735206 0.012111
vt 0.699145 0.012111
vt 0.663086 0.012111
vt 0.627030 0.012111
vt 0.590976 0.012111
vt 0.554927 0.012111
vt 0.518882 0.012111
vt 0.482841 0.012111
vt 0.446804 0.012111
vt 0.447047 0.172114
vt 0.410769 0.012111
vt 0.411025 0.172114
vt 0.374739 0.012111
vt 0.374989 0.172114
vt 0.338711 0.012111
vt 0.338966 0.172114
vt 0.302686 0.012111
vt 0.302929 0.172114
vt 0.447251 0.407903
vt 0.411223 0.407903
vt 0.375194 0.407903
vt 0.339164 0.407903
vt 0.303132 0.407903
vt 0.267098 0.407903
vt 0.266903 0.172114
vt 0.231061 0.407903
vt 0.230864 0.172114
vt 0.195016 0.407903
vt 0.194834 0.172114
vt 0.158959 0.407903
vt 0.158792 0.172114
vt 0.122890 0.407903
vt 0.122755 0.172114
vt 0.086807 0.407903
vt 0.086709 0.172114
vt 0.050665 0.172114
vt 0.050715 0.407903
vt 0.266665 0.012111
vt 0.230647 0.012111
vt 0.194633 0.012111
vt 0.158624 0.012111
vt 0.122618 0.012111
vt 0.086616 0.012111
vt 0.050617 0.012111
vt 0.014618 0.012111
vt 0.014618 0.172114
vt 0.014618 0.407903
vt 0.788937 0.897842
vt 0.800670 0.909575
vt 0.757765 0.940747
vt 0.808202 0.924359
vt 0.810798 0.940747
vt 0.808202 0.957135
vt 0.800670 0.971919
vt 0.788937 0.983651
vt 0.774153 0.991184
vt 0.757765 0.993780
vt 0.741377 0.991184
vt 0.726593 0.983651
vt 0.714861 0.971919
vt 0.707328 0.957135
vt 0.704732 0.940747
vt 0.707328 0.924359
vt 0.714861 0.909575
vt 0.726593 0.897842
vt 0.741377 0.890310
vt 0.757765 0.887714
vt 0.774153 0.890310
vt 0.374888 0.407903
vt 0.338860 0.407903
vt 0.302837 0.407903
vt 0.266815 0.407903
vt 0.230786 0.407903
vt 0.194758 0.407903
vt 0.158731 0.407903
vt 0.122703 0.407903
vt 0.086675 0.407903
vt 0.050647 0.407903
s 1
usemtl z_tall_bell.001
f 1/1/1 2/2/2 3/3/3
f 2/2/2 4/4/4 3/3/3
f 5/5/5 6/6/6 7/7/7
f 6/6/6 8/8/8 7/7/7
f 9/9/9 10/10/10 11/11/11
f 12/12/12 13/13/13 9/9/9
f 13/13/13 14/14/14 9/9/9
f 9/9/9 14/14/14 10/10/10
f 14/14/14 15/15/15 10/10/10
f 10/10/10 15/15/15 16/16/16
f 15/15/15 17/17/17 16/16/16
f 16/16/16 17/17/17 18/18/18
f 17/17/17 19/19/19 18/18/18
f 19/19/19 20/20/20 18/18/18
f 18/18/18 20/20/20 21/21/21
f 20/20/20 22/22/22 21/21/21
f 21/21/21 22/22/22 23/23/23
f 22/22/22 24/24/24 23/23/23
f 23/23/23 24/24/24 25/25/25
f 24/24/24 26/26/26 25/25/25
f 25/25/25 26/26/26 27/27/27
f 26/26/26 28/28/28 27/27/27
f 27/27/27 28/28/28 29/29/29
f 28/28/28 30/30/30 29/29/29
f 29/29/29 30/30/30 31/31/31
f 30/30/30 32/32/32 31/31/31
f 31/31/31 32/32/32 33/33/33
f 32/32/32 34/34/34 33/33/33
f 33/33/33 34/34/34 35/35/35
f 15/15/15 14/14/14 36/36/36
f 14/14/14 13/13/13 36/36/36
f 13/13/13 37/37/37 36/36/36
f 36/36/36 37/37/37 35/35/35
f 35/35/35 37/37/37 33/33/33
f 37/37/37 38/38/38 33/33/33
f 33/33/33 38/38/38 31/31/31
f 38/38/38 39/39/39 31/31/31
f 31/31/31 39/39/39 29/29/29
f 39/39/39 40/40/40 29/29/29
f 29/29/29 40/40/40 27/27/27
f 40/40/40 41/41/41 27/27/27
f 27/27/27 41/41/41 25/25/25
f 41/41/41 42/42/42 25/25/25
f 25/25/25 42/42/42 43/43/43
f 42/42/42 44/44/44 43/43/43
f 43/43/43 44/44/44 45/45/45
f 44/44/44 46/46/46 45/45/45
f 46/46/46 47/47/47 45/45/45
f 45/45/45 47/47/47 48/48/48
f 47/47/47 49/49/49 48/48/48
f 48/48/48 49/49/49 50/50/50
f 49/49/49 11/11/11 50/50/50
f 50/50/50 11/11/11 10/10/10
f 43/43/43 45/45/45 51/51/51
f 45/45/45 48/48/48 51/51/51
f 51/51/51 48/48/48 52/52/52
f 48/48/48 50/50/50 52/52/52
f 25/25/25 43/43/43 23/23/23
f 43/43/43 51/51/51 23/23/23
f 23/23/23 51/51/51 21/21/21
f 51/51/51 52/52/52 21/21/21
f 21/21/21 52/52/52 18/18/18
f 18/18/18 52/52/52 16/16/16
f 52/52/52 50/50/50 16/16/16
f 16/16/16 50/50/50 10/10/10
f 46/46/46 44/44/44 53/53/53
f 44/44/44 54/54/54 53/53/53
f 53/53/53 54/54/54 55/55/55
f 55/55/55 54/54/54 56/56/56
f 56/56/56 54/54/54 57/57/57
f 57/57/57 54/54/54 41/41/41
f 41/41/41 54/54/54 42/42/42
f 54/54/54 44/44/44 42/42/42
f 58/58/58 59/59/59 60/60/60
f 59/59/59 58/58/58 61/61/61
f 58/58/58 62/62/62 61/61/61
f 61/61/61 62/62/62 63/63/63
f 63/63/63 62/62/62 64/64/64
f 62/62/62 65/65/65 64/64/64
f 64/64/64 65/65/65 66/66/66
f 65/65/65 67/67/67 66/66/66
f 67/67/67 68/68/68 66/66/66
f 66/66/66 68/68/68 69/69/69
f 68/68/68 70/70/11 69/69/69
f 69/69/69 70/70/11 71/71/70
f 70/70/11 72/72/49 71/71/70
f 71/71/70 72/72/49 73/73/71
f 72/72/49 74/74/47 73/73/71
f 73/73/71 74/74/47 75/75/72
f 74/74/47 76/76/46 75/75/72
f 75/75/72 76/76/46 77/77/73
f 76/76/46 78/78/74 77/77/73
f 77/77/73 78/78/74 79/79/75
f 78/78/74 80/80/76 79/79/75
f 80/80/76 81/81/77 79/79/75
f 81/81/77 82/82/78 79/79/75
f 79/79/75 82/82/78 83/83/79
f 82/82/78 84/84/80 83/83/79
f 64/64/64 66/66/66 85/85/81
f 66/66/66 69/69/69 85/85/81
f 85/85/81 69/69/69 86/86/82
f 69/69/69 71/71/70 86/86/82
f 86/86/82 71/71/70 87/87/83
f 71/71/70 73/73/71 87/87/83
f 87/87/83 73/73/71 88/88/84
f 73/73/71 75/75/72 88/88/84
f 88/88/84 75/75/72 89/89/85
f 75/75/72 77/77/73 89/89/85
f 89/89/85 77/77/73 83/83/79
f 77/77/73 79/79/75 83/83/79
f 60/60/60 59/59/59 90/90/86
f 59/59/59 91/91/87 90/90/86
f 90/90/86 91/91/87 84/84/80
f 91/91/87 92/92/88 84/84/80
f 84/84/80 92/92/88 83/83/79
f 92/92/88 93/93/89 83/83/79
f 83/83/79 93/93/89 89/89/85
f 93/93/89 94/94/90 89/89/85
f 89/89/85 94/94/90 88/88/84
f 94/94/90 95/95/91 88/88/84
f 88/88/84 95/95/91 87/87/83
f 95/95/91 96/96/92 87/87/83
f 87/87/83 96/96/92 86/86/82
f 96/96/92 97/97/93 86/86/82
f 86/86/82 97/97/93 85/85/81
f 97/97/93 98/98/94 85/85/81
f 85/85/81 98/98/94 64/64/64
f 98/98/94 99/99/95 64/64/64
f 64/64/64 99/99/95 63/63/63
f 99/99/95 100/100/96 63/63/63
f 63/63/63 100/100/96 61/61/61
f 100/100/96 101/101/32 61/61/61
f 61/61/61 101/101/32 59/59/59
f 101/101/32 102/102/97 59/59/59
f 59/59/59 102/102/97 91/91/87
f 102/102/97 103/103/98 91/91/87
f 91/91/87 103/103/98 92/92/88
f 103/103/98 104/104/26 92/92/88
f 92/92/88 104/104/26 93/93/89
f 104/104/26 105/105/99 93/93/89
f 93/93/89 105/105/99 94/94/90
f 105/105/99 106/106/22 94/94/90
f 94/94/90 106/106/22 95/95/91
f 106/106/22 107/107/100 95/95/91
f 95/95/91 107/107/100 96/96/92
f 107/107/100 108/108/19 96/96/92
f 96/96/92 108/108/19 97/97/93
f 108/108/19 109/109/101 97/97/93
f 97/97/93 109/109/101 98/98/94
f 109/109/101 110/110/102 98/98/94
f 98/98/94 110/110/102 99/99/95
f 110/110/102 111/111/103 99/99/95
f 99/99/95 111/111/103 100/100/96
f 112/112/104 113/113/105 114/114/106
f 112/112/104 115/115/107 113/113/105
f 113/113/105 115/115/107 116/116/108
f 115/115/107 117/117/109 116/116/108
f 116/116/108 117/117/109 118/118/110
f 117/117/109 119/119/111 118/118/110
f 118/118/110 119/119/111 120/120/112
f 119/119/111 121/121/113 120/120/112
f 120/120/112 121/121/113 122/122/114
f 121/121/113 123/123/115 122/122/114
f 122/122/114 123/123/115 124/124/116
f 123/123/115 125/125/117 124/124/116
f 124/124/116 125/125/117 126/126/118
f 125/125/117 127/127/119 126/126/118
f 126/126/118 127/127/119 128/128/120
f 127/127/119 129/129/121 128/128/120
f 128/128/120 129/129/121 130/130/122
f 129/129/121 131/131/123 130/130/122
f 130/130/122 131/131/123 132/132/124
f 131/131/123 133/133/125 132/132/124
f 132/132/124 133/133/125 134/134/126
f 133/133/125 135/135/127 134/134/126
f 134/134/126 135/135/127 136/136/128
f 135/135/127 137/137/129 136/136/128
f 137/137/129 138/138/130 136/136/128
f 125/125/117 139/139/131 127/127/119
f 139/139/131 140/140/132 127/127/119
f 127/127/119 140/140/132 129/129/121
f 140/140/132 141/141/65 129/129/121
f 129/129/121 141/141/65 131/131/123
f 141/141/65 142/142/133 131/131/123
f 131/131/123 142/142/133 133/133/125
f 133/133/125 142/142/133 135/135/127
f 142/142/133 143/143/134 135/135/127
f 135/135/127 143/143/134 137/137/129
f 143/143/134 144/144/135 137/137/129
f 137/137/129 144/144/135 145/145/136
f 144/144/135 146/146/137 145/145/136
f 145/145/136 146/146/137 147/147/138
f 146/146/137 148/148/139 147/147/138
f 147/147/138 148/148/139 149/149/140
f 149/149/140 148/148/139 150/150/141
f 148/148/139 151/151/142 150/150/141
f 150/150/141 151/151/142 152/152/143
f 151/151/142 153/153/56 152/152/143
f 152/152/143 153/153/56 154/154/144
f 153/153/56 155/155/145 154/154/144
f 154/154/144 155/155/145 156/156/146
f 155/155/145 157/157/147 156/156/146
f 137/137/129 145/145/136 138/138/130
f 138/138/130 145/145/136 158/158/148
f 145/145/136 147/147/138 158/158/148
f 158/158/148 147/147/138 159/159/149
f 147/147/138 149/149/140 159/159/149
f 159/159/149 149/149/140 160/160/150
f 149/149/140 150/150/141 160/160/150
f 160/160/150 150/150/141 161/161/151
f 150/150/141 152/152/143 161/161/151
f 161/161/151 152/152/143 162/162/152
f 152/152/143 154/154/144 162/162/152
f 162/162/152 154/154/144 163/163/153
f 154/154/144 156/156/146 163/163/153
f 163/163/153 156/156/146 114/114/106
f 114/114/106 156/156/146 112/112/104
f 156/156/146 157/157/147 112/112/104
f 112/112/104 157/157/147 115/115/107
f 157/157/147 164/164/154 115/115/107
f 115/115/107 164/164/154 117/117/109
f 164/164/154 165/165/155 117/117/109
f 117/117/109 165/165/155 119/119/111
f 165/165/155 166/166/156 119/119/111
f 119/119/111 166/166/156 121/121/113
f 166/166/156 167/167/157 121/121/113
f 139/139/131 125/125/117 167/167/157
f 125/125/117 123/123/115 167/167/157
f 167/167/157 123/123/115 121/121/113
f 168/168/158 169/169/159 170/170/160
f 171/171/161 168/168/158 172/172/162
f 168/168/158 170/170/160 172/172/162
f 172/172/162 170/170/160 173/173/163
f 174/174/164 169/169/159 175/175/165
f 169/169/159 168/168/158 175/175/165
f 175/175/165 168/168/158 176/176/166
f 168/168/158 171/171/161 176/176/166
f 176/176/166 171/171/161 177/177/167
f 178/178/168 174/174/164 179/179/169
f 174/174/164 175/175/165 179/179/169
f 179/179/169 175/175/165 180/180/170
f 175/175/165 176/176/166 180/180/170
f 180/180/170 176/176/166 181/181/171
f 176/176/166 177/177/167 181/181/171
f 181/181/171 177/177/167 182/182/172
f 177/177/167 183/183/173 182/182/172
f 182/182/172 183/183/173 184/184/174
f 185/185/175 178/178/168 186/186/176
f 178/178/168 179/179/169 186/186/176
f 186/186/176 179/179/169 187/187/177
f 179/179/169 180/180/170 187/187/177
f 187/187/177 180/180/170 188/188/178
f 180/180/170 181/181/171 188/188/178
f 188/188/178 181/181/171 189/189/179
f 181/181/171 182/182/172 189/189/179
f 189/189/179 182/182/172 190/190/180
f 182/182/172 184/184/174 190/190/180
f 190/190/180 184/184/174 191/191/181
f 192/192/182 185/185/175 193/193/183
f 185/185/175 186/186/176 193/193/183
f 193/193/183 186/186/176 194/194/184
f 186/186/176 187/187/177 194/194/184
f 194/194/184 187/187/177 195/195/185
f 187/187/177 188/188/178 195/195/185
f 195/195/185 188/188/178 196/196/186
f 188/188/178 189/189/179 196/196/186
f 196/196/186 189/189/179 197/197/187
f 189/189/179 190/190/180 197/197/187
f 197/197/187 190/190/180 198/198/188
f 190/190/180 191/191/181 198/198/188
f 198/198/188 191/191/181 199/199/189
f 200/200/190 192/192/182 201/201/191
f 192/192/182 193/193/183 201/201/191
f 201/201/191 193/193/183 202/202/192
f 193/193/183 194/194/184 202/202/192
f 202/202/192 194/194/184 203/203/193
f 194/194/184 195/195/185 203/203/193
f 203/203/193 195/195/185 204/204/194
f 195/195/185 196/196/186 204/204/194
f 204/204/194 196/196/186 205/205/195
f 196/196/186 197/197/187 205/205/195
f 205/205/195 197/197/187 206/206/196
f 197/197/187 198/198/188 206/206/196
f 206/206/196 198/198/188 207/207/197
f 198/198/188 199/199/189 207/207/197
f 207/207/197 199/199/189 208/208/198
f 199/199/189 209/209/199 208/208/198
f 208/208/198 209/209/199 210/210/200
f 211/211/201 200/200/190 212/212/202
f 200/200/190 201/201/191 212/212/202
f 212/212/202 201/201/191 213/213/203
f 201/201/191 202/202/192 213/213/203
f 213/213/203 202/202/192 214/214/204
f 202/202/192 203/203/193 214/214/204
f 214/214/204 203/203/193 215/215/205
f 203/203/193 204/204/194 215/215/205
f 215/215/205 204/204/194 216/216/206
f 204/204/194 205/205/195 216/216/206
f 216/216/206 205/205/195 217/217/207
f 205/205/195 206/206/196 217/217/207
f 217/217/207 206/206/196 218/218/208
f 206/206/196 207/207/197 218/218/208
f 218/218/208 207/207/197 219/219/209
f 207/207/197 208/208/198 219/219/209
f 219/219/209 208/208/198 220/220/210
f 208/208/198 210/210/200 220/220/210
f 220/220/210 210/210/200 221/221/211
f 222/222/212 211/211/201 223/223/213
f 211/211/201 212/212/202 223/223/213
f 223/223/213 212/212/202 224/224/214
f 212/212/202 213/213/203 224/224/214
f 224/224/214 213/213/203 225/225/215
f 213/213/203 214/214/204 225/225/215
f 225/225/215 214/214/204 226/226/216
f 214/214/204 215/215/205 226/226/216
f 226/226/216 215/215/205 227/227/217
f 215/215/205 216/216/206 227/227/217
f 227/227/217 216/216/206 228/228/218
f 216/216/206 217/217/207 228/228/218
f 228/228/218 217/217/207 229/229/219
f 217/217/207 218/218/208 229/229/219
f 229/229/219 218/218/208 230/230/220
f 218/218/208 219/219/209 230/230/220
f 230/230/220 219/219/209 231/231/221
f 219/219/209 220/220/210 231/231/221
f 231/231/221 220/220/210 232/232/222
f 220/220/210 221/221/211 232/232/222
f 232/232/222 221/221/211 233/233/223
f 221/221/211 234/234/224 233/233/223
f 233/233/223 234/234/224 235/235/225
f 234/234/224 236/236/226 235/235/225
f 222/222/212 223/223/213 237/237/227
f 237/237/227 223/223/213 238/238/228
f 223/223/213 224/224/214 238/238/228
f 238/238/228 224/224/214 239/239/229
f 224/224/214 225/225/215 239/239/229
f 239/239/229 225/225/215 240/240/230
f 225/225/215 226/226/216 240/240/230
f 240/240/230 226/226/216 241/241/231
f 226/226/216 227/227/217 241/241/231
f 241/241/231 227/227/217 242/242/232
f 227/227/217 228/228/218 242/242/232
f 242/242/232 228/228/218 243/243/233
f 228/228/218 229/229/219 243/243/233
f 243/243/233 229/229/219 244/244/234
f 229/229/219 230/230/220 244/244/234
f 244/244/234 230/230/220 245/245/235
f 230/230/220 231/231/221 245/245/235
f 245/245/235 231/231/221 246/246/236
f 231/231/221 232/232/222 246/246/236
f 246/246/236 232/232/222 247/247/237
f 232/232/222 233/233/223 247/247/237
f 247/247/237 233/233/223 248/248/238
f 233/233/223 235/235/225 248/248/238
f 248/248/238 249/249/239 247/247/237
f 249/249/239 250/250/240 247/247/237
f 247/247/237 250/250/240 246/246/236
f 250/250/240 251/251/241 246/246/236
f 246/246/236 251/251/241 245/245/235
f 251/251/241 252/252/242 245/245/235
f 245/245/235 252/252/242 244/244/234
f 252/252/242 253/253/243 244/244/234
f 244/244/234 253/253/243 243/243/233
f 253/253/243 254/254/244 243/243/233
f 243/243/233 254/254/244 242/242/232
f 254/254/244 255/255/245 242/242/232
f 242/242/232 255/255/245 241/241/231
f 255/255/245 256/256/246 241/241/231
f 241/241/231 256/256/246 240/240/230
f 256/256/246 257/257/247 240/240/230
f 240/240/230 257/257/247 239/239/229
f 257/257/247 258/258/248 239/239/229
f 239/239/229 258/258/248 238/238/228
f 258/258/248 259/259/249 238/238/228
f 238/238/228 259/259/249 237/237/227
f 237/237/227 259/259/249 260/260/250
f 259/259/249 261/261/251 260/260/250
f 260/260/250 261/261/251 262/262/252
f 249/249/239 263/263/253 250/250/240
f 263/263/253 264/264/254 250/250/240
f 250/250/240 264/264/254 251/251/241
f 264/264/254 265/265/255 251/251/241
f 251/251/241 265/265/255 252/252/242
f 265/265/255 266/266/256 252/252/242
f 252/252/242 266/266/256 253/253/243
f 266/266/256 267/267/257 253/253/243
f 253/253/243 267/267/257 254/254/244
f 267/267/257 268/268/258 254/254/244
f 254/254/244 268/268/258 255/255/245
f 268/268/258 269/269/259 255/255/245
f 255/255/245 269/269/259 256/256/246
f 269/269/259 270/270/260 256/256/246
f 256/256/246 270/270/260 257/257/247
f 270/270/260 271/271/261 257/257/247
f 257/257/247 271/271/261 258/258/248
f 271/271/261 261/261/251 258/258/248
f 258/258/248 261/261/251 259/259/249
f 263/263/253 272/272/262 264/264/254
f 272/272/262 273/273/263 264/264/254
f 264/264/254 273/273/263 265/265/255
f 273/273/263 274/274/264 265/265/255
f 265/265/255 274/274/264 266/266/256
f 274/274/264 275/275/265 266/266/256
f 266/266/256 275/275/265 267/267/257
f 275/275/265 276/276/266 267/267/257
f 267/267/257 276/276/266 268/268/258
f 276/276/266 277/277/267 268/268/258
f 268/268/258 277/277/267 269/269/259
f 277/277/267 278/278/268 269/269/259
f 269/269/259 278/278/268 270/270/260
f 278/278/268 279/279/269 270/270/260
f 270/270/260 279/279/269 271/271/261
f 279/279/269 280/280/270 271/271/261
f 271/271/261 280/280/270 261/261/251
f 272/272/262 281/281/271 273/273/263
f 281/281/271 282/282/272 273/273/263
f 273/273/263 282/282/272 274/274/264
f 282/282/272 283/283/273 274/274/264
f 274/274/264 283/283/273 275/275/265
f 283/283/273 284/284/274 275/275/265
f 275/275/265 284/284/274 276/276/266
f 284/284/274 285/285/275 276/276/266
f 276/276/266 285/285/275 277/277/267
f 285/285/275 286/286/276 277/277/267
f 277/277/267 286/286/276 278/278/268
f 286/286/276 287/287/277 278/278/268
f 278/278/268 287/287/277 279/279/269
f 287/287/277 288/288/278 279/279/269
f 279/279/269 288/288/278 280/280/270
f 281/281/271 289/289/279 282/282/272
f 289/289/279 290/290/280 282/282/272
f 282/282/272 290/290/280 283/283/273
f 290/290/280 291/291/281 283/283/273
f 283/283/273 291/291/281 284/284/274
f 291/291/281 292/292/282 284/284/274
f 284/284/274 292/292/282 285/285/275
f 292/292/282 293/293/283 285/285/275
f 285/285/275 293/293/283 286/286/276
f 293/293/283 294/294/284 286/286/276
f 286/286/276 294/294/284 287/287/277
f 294/294/284 295/295/285 287/287/277
f 287/287/277 295/295/285 288/288/278
f 289/289/279 296/296/286 290/290/280
f 296/296/286 297/297/287 290/290/280
f 290/290/280 297/297/287 291/291/281
f 297/297/287 298/298/288 291/291/281
f 291/291/281 298/298/288 292/292/282
f 298/298/288 299/299/289 292/292/282
f 292/292/282 299/299/289 293/293/283
f 299/299/289 300/300/290 293/293/283
f 293/293/283 300/300/290 294/294/284
f 300/300/290 301/301/291 294/294/284
f 294/294/284 301/301/291 295/295/285
f 261/261/251 280/280/270 262/262/252
f 262/262/252 280/280/270 302/302/292
f 280/280/270 288/288/278 302/302/292
f 302/302/292 288/288/278 303/303/293
f 288/288/278 295/295/285 303/303/293
f 303/303/293 295/295/285 304/304/294
f 295/295/285 301/301/291 304/304/294
f 304/304/294 301/301/291 305/305/295
f 301/301/291 306/306/296 305/305/295
f 305/305/295 306/306/296 307/307/297
f 306/306/296 308/308/298 307/307/297
f 307/307/297 308/308/298 309/309/299
f 308/308/298 310/310/300 309/309/299
f 309/309/299 310/310/300 311/311/301
f 310/310/300 312/312/302 311/311/301
f 311/311/301 312/312/302 313/313/303
f 312/312/302 314/314/304 313/313/303
f 314/314/304 315/315/305 313/313/303
f 313/313/303 315/315/305 316/316/306
f 315/315/305 317/317/307 316/316/306
f 316/316/306 317/317/307 318/318/308
f 317/317/307 319/319/309 318/318/308
f 318/318/308 319/319/309 320/320/310
f 319/319/309 321/321/311 320/320/310
f 304/304/294 305/305/295 322/322/312
f 305/305/295 307/307/297 322/322/312
f 307/307/297 309/309/299 322/322/312
f 322/322/312 309/309/299 323/323/313
f 309/309/299 311/311/301 323/323/313
f 323/323/313 311/311/301 324/324/314
f 311/311/301 313/313/303 324/324/314
f 324/324/314 313/313/303 316/316/306
f 325/325/315 303/303/293 326/326/316
f 303/303/293 304/304/294 326/326/316
f 326/326/316 304/304/294 327/327/317
f 304/304/294 322/322/312 327/327/317
f 327/327/317 322/322/312 328/328/318
f 322/322/312 323/323/313 328/328/318
f 328/328/318 323/323/313 329/329/319
f 323/323/313 324/324/314 329/329/319
f 329/329/319 324/324/314 330/330/320
f 324/324/314 316/316/306 330/330/320
f 316/316/306 318/318/308 330/330/320
f 330/330/320 318/318/308 331/331/321
f 318/318/308 320/320/310 331/331/321
f 331/331/321 320/320/310 332/332/322
f 320/320/310 333/333/323 332/332/322
f 332/332/322 333/333/323 334/334/324
f 333/333/323 335/335/325 334/334/324
f 326/326/316 327/327/317 336/336/326
f 327/327/317 328/328/318 336/336/326
f 336/336/326 328/328/318 337/337/327
f 328/328/318 329/329/319 337/337/327
f 337/337/327 329/329/319 338/338/328
f 329/329/319 330/330/320 338/338/328
f 338/338/328 330/330/320 331/331/321
f 325/325/315 326/326/316 339/339/329
f 326/326/316 336/336/326 339/339/329
f 339/339/329 336/336/326 340/340/330
f 336/336/326 337/337/327 340/340/330
f 340/340/330 337/337/327 341/341/331
f 337/337/327 338/338/328 341/341/331
f 341/341/331 338/338/328 342/342/332
f 338/338/328 331/331/321 342/342/332
f 342/342/332 331/331/321 332/332/322
f 343/343/333 325/325/315 344/344/334
f 325/325/315 339/339/329 344/344/334
f 344/344/334 339/339/329 345/345/335
f 339/339/329 340/340/330 345/345/335
f 345/345/335 340/340/330 346/346/336
f 340/340/330 341/341/331 346/346/336
f 346/346/336 341/341/331 347/347/337
f 341/341/331 342/342/332 347/347/337
f 347/347/337 342/342/332 348/348/338
f 342/342/332 332/332/322 348/348/338
f 348/348/338 332/332/322 334/334/324
f 320/320/310 321/321/311 333/333/323
f 321/321/311 349/349/339 333/333/323
f 333/333/323 349/349/339 335/335/325
f 349/349/339 350/350/340 335/335/325
f 350/350/340 351/351/341 335/335/325
f 351/351/341 352/352/342 335/335/325
f 335/335/325 352/352/342 334/334/324
f 352/352/342 353/353/343 334/334/324
f 334/334/324 353/353/343 348/348/338
f 353/353/343 354/354/344 348/348/338
f 348/348/338 354/354/344 347/347/337
f 354/354/344 355/355/345 347/347/337
f 347/347/337 355/355/345 346/346/336
f 355/355/345 356/356/346 346/346/336
f 346/346/336 356/356/346 345/345/335
f 356/356/346 357/357/347 345/345/335
f 345/345/335 357/357/347 344/344/334
f 357/357/347 358/358/348 344/344/334
f 358/358/348 359/359/349 344/344/334
f 344/344/334 359/359/349 343/343/333
f 359/359/349 262/262/252 343/343/333
f 262/262/252 302/302/292 343/343/333
f 343/343/333 302/302/292 325/325/315
f 302/302/292 303/303/293 325/325/315
f 349/349/339 360/360/350 350/350/340
f 360/360/350 361/361/351 350/350/340
f 361/361/351 362/362/352 350/350/340
f 350/350/340 362/362/352 351/351/341
f 362/362/352 363/363/162 351/351/341
f 363/363/162 364/364/353 351/351/341
f 351/351/341 364/364/353 352/352/342
f 364/364/353 365/365/354 352/352/342
f 352/352/342 365/365/354 353/353/343
f 365/365/354 366/366/355 353/353/343
f 353/353/343 366/366/355 354/354/344
f 366/366/355 367/367/356 354/354/344
f 354/354/344 367/367/356 355/355/345
f 367/367/356 368/368/357 355/355/345
f 355/355/345 368/368/357 356/356/346
f 368/368/357 369/369/358 356/356/346
f 356/356/346 369/369/358 357/357/347
f 369/369/358 370/370/359 357/357/347
f 357/357/347 370/370/359 358/358/348
f 370/370/359 371/371/360 358/358/348
f 358/358/348 371/371/360 359/359/349
f 371/371/360 372/372/361 359/359/349
f 359/359/349 372/372/361 260/260/250
f 372/372/361 373/373/362 260/260/250
f 363/363/162 374/374/363 364/364/353
f 374/374/363 375/375/364 364/364/353
f 364/364/353 375/375/364 365/365/354
f 375/375/364 376/376/365 365/365/354
f 365/365/354 376/376/365 366/366/355
f 376/376/365 377/377/366 366/366/355
f 366/366/355 377/377/366 367/367/356
f 377/377/366 378/378/367 367/367/356
f 367/367/356 378/378/367 368/368/357
f 378/378/367 379/379/368 368/368/357
f 368/368/357 379/379/368 369/369/358
f 379/379/368 380/380/369 369/369/358
f 369/369/358 380/380/369 370/370/359
f 380/380/369 381/381/370 370/370/359
f 370/370/359 381/381/370 382/382/371
f 381/381/370 383/383/372 382/382/371
f 382/382/371 383/383/372 384/384/373
f 383/383/372 385/385/374 384/384/373
f 385/385/374 386/386/375 384/384/373
f 384/384/373 386/386/375 387/387/376
f 386/386/375 388/388/377 387/387/376
f 387/387/376 388/388/377 389/389/378
f 388/388/377 390/390/379 389/389/378
f 389/389/378 390/390/379 391/391/380
f 375/375/364 392/392/381 376/376/365
f 392/392/381 393/393/382 376/376/365
f 376/376/365 393/393/382 377/377/366
f 393/393/382 394/394/383 377/377/366
f 377/377/366 394/394/383 378/378/367
f 394/394/383 395/395/384 378/378/367
f 395/395/384 396/396/385 378/378/367
f 378/378/367 396/396/385 379/379/368
f 379/379/368 396/396/385 380/380/369
f 396/396/385 397/397/386 380/380/369
f 380/380/369 397/397/386 381/381/370
f 397/397/386 383/383/372 381/381/370
f 374/374/363 398/398/387 375/375/364
f 375/375/364 398/398/387 392/392/381
f 398/398/387 399/399/388 392/392/381
f 399/399/388 400/400/389 392/392/381
f 392/392/381 400/400/389 393/393/382
f 400/400/389 401/401/112 393/393/382
f 393/393/382 401/401/112 394/394/383
f 401/401/112 402/402/390 394/394/383
f 394/394/383 402/402/390 395/395/384
f 402/402/390 403/403/391 395/395/384
f 395/395/384 403/403/391 396/396/385
f 403/403/391 404/404/392 396/396/385
f 396/396/385 404/404/392 397/397/386
f 404/404/392 405/405/393 397/397/386
f 397/397/386 405/405/393 383/383/372
f 405/405/393 385/385/374 383/383/372
f 389/389/378 406/406/394 387/387/376
f 406/406/394 407/407/395 387/387/376
f 387/387/376 407/407/395 384/384/373
f 384/384/373 407/407/395 382/382/371
f 407/407/395 372/372/361 382/382/371
f 372/372/361 371/371/360 382/382/371
f 382/382/371 371/371/360 370/370/359
f 372/372/361 407/407/395 373/373/362
f 407/407/395 406/406/394 373/373/362
f 260/260/250 373/373/362 237/237/227
f 373/373/362 406/406/394 237/237/227
f 237/237/227 406/406/394 222/222/212
f 406/406/394 389/389/378 222/222/212
f 222/222/212 389/389/378 408/408/396
f 389/389/378 391/391/380 408/408/396
f 408/408/396 391/391/380 409/409/397
f 391/391/380 410/410/398 409/409/397
f 409/409/397 410/410/398 411/411/399
f 410/410/398 412/412/400 411/411/399
f 411/411/399 412/412/400 413/413/401
f 412/412/400 414/414/150 413/413/401
f 413/413/401 414/414/150 415/415/402
f 414/414/150 416/416/403 415/415/402
f 415/415/402 416/416/403 417/417/404
f 416/416/403 418/418/405 417/417/404
f 417/417/404 418/418/405 419/419/406
f 418/418/405 420/420/407 419/419/406
f 419/419/406 420/420/407 421/421/408
f 420/420/407 422/422/409 421/421/408
f 421/421/408 422/422/409 423/423/410
f 422/422/409 424/424/411 423/423/410
f 423/423/410 424/424/411 425/425/387
f 424/424/411 426/426/108 425/425/387
f 222/222/212 408/408/396 211/211/201
f 408/408/396 409/409/397 211/211/201
f 211/211/201 409/409/397 200/200/190
f 409/409/397 411/411/399 200/200/190
f 200/200/190 411/411/399 192/192/182
f 411/411/399 413/413/401 192/192/182
f 192/192/182 413/413/401 185/185/175
f 413/413/401 415/415/402 185/185/175
f 185/185/175 415/415/402 178/178/168
f 415/415/402 417/417/404 178/178/168
f 178/178/168 417/417/404 174/174/164
f 417/417/404 419/419/406 174/174/164
f 174/174/164 419/419/406 169/169/159
f 419/419/406 421/421/408 169/169/159
f 169/169/159 421/421/408 170/170/160
f 421/421/408 423/423/410 170/170/160
f 170/170/160 423/423/410 173/173/163
f 423/423/410 425/425/387 173/173/163
f 262/262/252 359/359/349 260/260/250
f 427/427/412 428/428/413 429/429/414
f 428/428/413 430/430/415 429/429/414
f 431/431/416 427/427/412 432/432/417
f 427/427/412 429/429/414 432/432/417
f 432/432/417 429/429/414 433/433/418
f 433/433/418 429/429/414 434/434/419
f 429/429/414 430/430/415 434/434/419
f 434/434/419 430/430/415 435/435/420
f 436/436/421 437/437/422 438/438/423
f 437/437/422 431/431/416 438/438/423
f 438/438/423 431/431/416 439/439/424
f 431/431/416 432/432/417 439/439/424
f 439/439/424 432/432/417 440/440/425
f 432/432/417 433/433/418 440/440/425
f 440/440/425 433/433/418 441/441/426
f 441/441/426 433/433/418 442/442/427
f 433/433/418 434/434/419 442/442/427
f 442/442/427 434/434/419 443/443/428
f 434/434/419 435/435/420 443/443/428
f 443/443/428 435/435/420 444/444/429
f 444/444/429 435/435/420 445/445/430
f 445/445/430 435/435/420 446/446/431
f 446/446/431 435/435/420 447/447/432
f 435/435/420 430/430/415 447/447/432
f 447/447/432 430/430/415 448/448/433
f 430/430/415 428/428/413 448/448/433
f 448/448/433 428/428/413 449/449/434
f 449/449/434 428/428/413 450/450/435
f 428/428/413 427/427/412 450/450/435
f 450/450/435 427/427/412 451/451/436
f 427/427/412 431/431/416 451/451/436
f 451/451/436 431/431/416 437/437/422
f 452/452/437 453/453/438 436/436/421
f 436/436/421 453/453/438 437/437/422
f 453/453/438 454/454/439 437/437/422
f 437/437/422 454/454/439 451/451/436
f 454/454/439 455/455/440 451/451/436
f 451/451/436 455/455/440 450/450/435
f 455/455/440 456/456/441 450/450/435
f 450/450/435 456/456/441 449/449/434
f 456/456/441 457/457/442 449/449/434
f 457/457/442 458/458/443 449/449/434
f 449/449/434 458/458/443 448/448/433
f 458/458/443 459/459/444 448/448/433
f 448/448/433 459/459/444 447/447/432
f 459/459/444 460/460/445 447/447/432
f 447/447/432 460/460/445 446/446/431
f 460/460/445 461/461/446 446/446/431
f 446/446/431 461/461/446 445/445/430
f 461/461/446 462/462/447 445/445/430
f 463/463/448 464/464/449 462/462/447
f 462/462/447 464/464/449 445/445/430
f 464/464/449 465/465/450 445/445/430
f 445/445/430 465/465/450 444/444/429
f 465/465/450 466/466/451 444/444/429
f 444/444/429 466/466/451 443/443/428
f 466/466/451 467/467/452 443/443/428
f 443/443/428 467/467/452 442/442/427
f 467/467/452 468/468/453 442/442/427
f 442/442/427 468/468/453 441/441/426
f 468/468/453 469/469/454 441/441/426
f 469/469/454 470/470/455 441/441/426
f 441/441/426 470/470/455 440/440/425
f 470/470/455 471/471/456 440/440/425
f 440/440/425 471/471/456 439/439/424
f 471/471/456 472/472/457 439/439/424
f 439/439/424 472/472/457 438/438/423
f 472/472/457 473/473/458 438/438/423
f 438/438/423 473/473/458 436/436/421
f 473/473/458 474/474/459 436/436/421
f 436/436/421 474/474/459 452/452/437
f 474/474/459 475/475/460 452/452/437
f 299/299/289 476/476/461 300/300/290
f 476/476/461 477/477/462 300/300/290
f 310/310/300 308/308/298 478/478/463
f 478/478/463 308/308/298 479/479/464
f 308/308/298 477/477/462 479/479/464
f 479/479/464 477/477/462 480/480/465
f 477/477/462 476/476/461 480/480/465
f 480/480/465 476/476/461 481/481/466
f 476/476/461 299/299/289 481/481/466
f 481/481/466 299/299/289 298/298/288
f 312/312/302 310/310/300 482/482/467
f 310/310/300 478/478/463 482/482/467
f 482/482/467 478/478/463 483/483/468
f 483/483/468 478/478/463 484/484/469
f 478/478/463 479/479/464 484/484/469
f 484/484/469 479/479/464 485/485/470
f 479/479/464 480/480/465 485/485/470
f 485/485/470 480/480/465 486/486/471
f 480/480/465 481/481/466 486/486/471
f 486/486/471 481/481/466 487/487/472
f 481/481/466 298/298/288 487/487/472
f 487/487/472 298/298/288 297/297/287
f 314/314/304 312/312/302 488/488/473
f 312/312/302 482/482/467 488/488/473
f 488/488/473 482/482/467 489/489/474
f 482/482/467 483/483/468 489/489/474
f 489/489/474 483/483/468 490/490/475
f 490/490/475 483/483/468 491/491/476
f 483/483/468 484/484/469 491/491/476
f 491/491/476 484/484/469 492/492/477
f 484/484/469 485/485/470 492/492/477
f 492/492/477 485/485/470 493/493/478
f 485/485/470 486/486/471 493/493/478
f 493/493/478 486/486/471 494/494/479
f 486/486/471 487/487/472 494/494/479
f 494/494/479 487/487/472 495/495/480
f 487/487/472 297/297/287 495/495/480
f 495/495/480 297/297/287 296/296/286
f 360/360/350 349/349/339 496/496/481
f 349/349/339 321/321/311 496/496/481
f 496/496/481 321/321/311 497/497/482
f 321/321/311 319/319/309 497/497/482
f 497/497/482 319/319/309 498/498/483
f 319/319/309 317/317/307 498/498/483
f 498/498/483 317/317/307 499/499/484
f 317/317/307 315/315/305 499/499/484
f 499/499/484 315/315/305 500/500/485
f 315/315/305 314/314/304 500/500/485
f 500/500/485 314/314/304 501/501/486
f 314/314/304 488/488/473 501/501/486
f 501/501/486 488/488/473 502/502/487
f 488/488/473 489/489/474 502/502/487
f 502/502/487 489/489/474 503/503/488
f 489/489/474 490/490/475 503/503/488
f 503/503/488 490/490/475 504/504/489
f 504/504/489 490/490/475 505/505/490
f 490/490/475 491/491/476 505/505/490
f 505/505/490 491/491/476 506/506/491
f 491/491/476 492/492/477 506/506/491
f 506/506/491 492/492/477 507/507/492
f 492/492/477 493/493/478 507/507/492
f 507/507/492 493/493/478 508/508/493
f 360/360/350 496/496/481 509/509/494
f 509/509/494 496/496/481 510/510/495
f 496/496/481 497/497/482 510/510/495
f 510/510/495 497/497/482 511/511/496
f 497/497/482 498/498/483 511/511/496
f 511/511/496 498/498/483 512/512/497
f 498/498/483 499/499/484 512/512/497
f 512/512/497 499/499/484 513/513/498
f 499/499/484 500/500/485 513/513/498
f 513/513/498 500/500/485 514/514/499
f 500/500/485 501/501/486 514/514/499
f 514/514/499 501/501/486 515/515/500
f 501/501/486 502/502/487 515/515/500
f 515/515/500 502/502/487 516/516/501
f 502/502/487 503/503/488 516/516/501
f 516/516/501 503/503/488 517/517/502
f 503/503/488 504/504/489 517/517/502
f 517/517/502 518/518/503 516/516/501
f 518/518/503 519/519/504 516/516/501
f 516/516/501 519/519/504 515/515/500
f 519/519/504 520/520/505 515/515/500
f 515/515/500 520/520/505 514/514/499
f 520/520/505 521/521/506 514/514/499
f 514/514/499 521/521/506 513/513/498
f 521/521/506 522/522/507 513/513/498
f 513/513/498 522/522/507 512/512/497
f 522/522/507 523/523/508 512/512/497
f 512/512/497 523/523/508 511/511/496
f 523/523/508 524/524/509 511/511/496
f 511/511/496 524/524/509 510/510/495
f 524/524/509 525/525/510 510/510/495
f 510/510/495 525/525/510 509/509/494
f 518/518/503 526/526/511 519/519/504
f 526/526/511 527/527/512 519/519/504
f 519/519/504 527/527/512 520/520/505
f 527/527/512 528/528/513 520/520/505
f 520/520/505 528/528/513 521/521/506
f 528/528/513 529/529/514 521/521/506
f 521/521/506 529/529/514 522/522/507
f 529/529/514 530/530/515 522/522/507
f 522/522/507 530/530/515 523/523/508
f 530/530/515 531/531/516 523/523/508
f 523/523/508 531/531/516 524/524/509
f 531/531/516 532/532/517 524/524/509
f 524/524/509 532/532/517 525/525/510
f 526/526/511 533/533/518 527/527/512
f 533/533/518 534/534/519 527/527/512
f 527/527/512 534/534/519 528/528/513
f 534/534/519 535/535/520 528/528/513
f 528/528/513 535/535/520 529/529/514
f 535/535/520 536/536/521 529/529/514
f 529/529/514 536/536/521 530/530/515
f 536/536/521 537/537/522 530/530/515
f 530/530/515 537/537/522 531/531/516
f 533/533/518 538/538/523 534/534/519
f 538/538/523 539/539/524 534/534/519
f 534/534/519 539/539/524 535/535/520
f 539/539/524 540/540/525 535/535/520
f 535/535/520 540/540/525 536/536/521
f 540/540/525 541/541/526 536/536/521
f 536/536/521 541/541/526 537/537/522
f 301/301/291 300/300/290 306/306/296
f 300/300/290 477/477/462 306/306/296
f 306/306/296 477/477/462 308/308/298
f 542/542/527 543/543/528 544/544/102
f 543/543/528 545/545/529 544/544/102
f 544/544/102 545/545/529 546/546/530
f 545/545/529 34/34/34 546/546/530
f 34/34/34 545/545/529 35/35/35
f 35/35/35 545/545/529 36/36/36
f 545/545/529 543/543/528 36/36/36
f 36/36/36 543/543/528 15/15/15
f 15/15/15 543/543/528 17/17/17
f 543/543/528 542/542/527 17/17/17
f 17/17/17 542/542/527 19/19/19
f 547/547/531 548/548/532 549/549/533
f 548/548/532 550/550/534 549/549/533
f 549/549/533 550/550/534 551/551/535
f 550/550/534 552/552/3 551/551/535
f 552/552/3 553/553/536 551/551/535
f 551/551/535 553/553/536 554/554/537
f 555/555/538 556/556/539 557/557/540
f 556/556/539 558/558/541 557/557/540
f 558/558/541 559/559/542 557/557/540
f 559/559/542 560/560/456 557/557/540
f 560/560/456 561/561/543 557/557/540
f 557/557/540 561/561/543 555/555/538
f 562/562/544 563/563/545 564/564/546
f 564/564/546 563/563/545 565/565/547
f 563/563/545 566/566/548 565/565/547
f 565/565/547 566/566/548 567/567/549
f 566/566/548 568/568/550 567/567/549
f 567/567/549 568/568/550 569/569/551
f 568/568/550 570/570/552 569/569/551
f 569/569/551 570/570/552 571/571/553
f 570/570/552 572/572/554 571/571/553
f 571/571/553 572/572/554 573/573/555
f 572/572/554 574/574/556 573/573/555
f 573/573/555 574/574/556 575/575/557
f 574/574/556 576/576/558 575/575/557
f 575/575/557 576/576/558 577/538/559
f 578/577/560 576/576/558 579/578/561
f 576/576/558 574/574/556 579/578/561
f 579/578/561 574/574/556 580/579/562
f 574/574/556 572/572/554 580/579/562
f 580/579/562 572/572/554 581/580/563
f 572/572/554 570/570/552 581/580/563
f 581/580/563 570/570/552 582/581/564
f 570/570/552 568/568/550 582/581/564
f 582/581/564 568/568/550 583/582/565
f 568/568/550 566/566/548 583/582/565
f 583/582/565 566/566/548 584/583/566
f 566/566/548 563/563/545 584/583/566
f 584/583/566 563/563/545 585/584/567
f 563/563/545 562/562/544 585/584/567
f 585/584/567 562/562/544 586/585/568
f 562/562/544 587/586/569 586/585/568
f 586/585/568 587/586/569 588/587/570
f 587/586/569 589/588/571 588/587/570
f 588/587/570 589/588/571 590/589/572
f 589/588/571 591/590/573 590/589/572
f 590/589/572 591/590/573 592/591/574
f 591/590/573 593/592/575 592/591/574
f 592/591/574 593/592/575 594/593/576
f 593/592/575 595/594/577 594/593/576
f 564/564/546 596/595/578 562/562/544
f 562/562/544 596/595/578 587/586/569
f 596/595/578 597/596/579 587/586/569
f 587/586/569 597/596/579 589/588/571
f 597/596/579 598/597/580 589/588/571
f 589/588/571 598/597/580 591/590/573
f 598/597/580 599/598/581 591/590/573
f 591/590/573 599/598/581 593/592/575
f 599/598/581 600/599/582 593/592/575
f 593/592/575 600/599/582 595/594/577
f 600/599/582 601/600/583 595/594/577
f 595/594/577 601/600/583 602/601/584
f 601/600/583 603/602/585 602/601/584
f 602/601/584 603/602/585 604/603/586
f 603/602/585 605/604/587 604/603/586
f 604/603/586 605/604/587 606/605/588
f 605/604/587 607/606/589 606/605/588
f 606/605/588 607/606/589 608/607/590
f 607/606/589 609/608/591 608/607/590
f 608/607/590 609/608/591 610/609/592
f 609/608/591 611/610/593 610/609/592
f 610/609/592 611/610/593 612/611/594
f 612/611/594 611/610/593 613/612/595
f 611/610/593 614/613/596 613/612/595
f 594/593/576 595/594/577 615/614/597
f 595/594/577 602/601/584 615/614/597
f 615/614/597 602/601/584 616/615/598
f 602/601/584 604/603/586 616/615/598
f 616/615/598 604/603/586 617/616/599
f 604/603/586 606/605/588 617/616/599
f 617/616/599 606/605/588 618/617/600
f 606/605/588 608/607/590 618/617/600
f 618/617/600 608/607/590 619/618/601
f 608/607/590 610/609/592 619/618/601
f 619/618/601 610/609/592 620/619/602
f 610/609/592 612/611/594 620/619/602
f 620/619/602 612/611/594 621/620/603
f 612/611/594 613/612/595 621/620/603
f 621/620/603 613/612/595 622/621/604
f 622/621/604 613/612/595 623/622/605
f 613/612/595 614/613/596 623/622/605
f 623/622/605 614/613/596 624/623/606
f 625/624/607 626/625/608 627/626/540
f 626/625/608 628/627/609 627/626/540
f 628/627/609 629/628/565 627/626/540
f 629/628/565 630/629/610 627/626/540
f 630/629/610 631/630/611 627/626/540
f 631/630/611 632/631/612 627/626/540
f 632/631/612 633/632/613 627/626/540
f 633/632/613 634/633/572 627/626/540
f 634/633/572 635/634/614 627/626/540
f 635/634/614 636/635/615 627/626/540
f 636/635/615 637/636/616 627/626/540
f 637/636/616 638/637/617 627/626/540
f 638/637/617 639/638/618 627/626/540
f 639/638/618 640/639/600 627/626/540
f 640/639/600 641/640/619 627/626/540
f 641/640/619 642/641/620 627/626/540
f 642/641/620 643/642/621 627/626/540
f 643/642/621 644/643/622 627/626/540
f 644/643/622 645/644/561 627/626/540
f 627/626/540 645/644/561 625/624/607
f 493/493/478 494/494/479 508/508/493
f 508/508/493 494/494/479 646/645/623
f 494/494/479 495/495/480 646/645/623
f 646/645/623 495/495/480 647/646/624
f 495/495/480 296/296/286 647/646/624
f 647/646/624 296/296/286 648/647/625
f 296/296/286 289/289/279 648/647/625
f 648/647/625 289/289/279 649/648/626
f 289/289/279 281/281/271 649/648/626
f 649/648/626 281/281/271 650/649/627
f 281/281/271 272/272/262 650/649/627
f 650/649/627 272/272/262 651/650/549
f 272/272/262 263/263/253 651/650/549
f 651/650/549 263/263/253 652/651/628
f 263/263/253 249/249/239 652/651/628
f 652/651/628 249/249/239 653/652/629
f 249/249/239 248/248/238 653/652/629
f 653/652/629 248/248/238 654/653/630
f 248/248/238 235/235/225 654/653/630
f 654/653/630 235/235/225 655/654/631
f 235/235/225 236/236/226 655/654/631
f 655/654/631 236/236/226 656/623/632
