# Blender 4.0.2
# www.blender.org
mtllib WateringCan.mtl
o Turquoise_Watering_Can
v -6.097037 69.214348 -34.578079
v -17.555742 81.587868 -30.407448
v -6.092856 81.587227 -34.567986
v -34.771511 15.877849 6.131138
v -34.771511 15.877849 -6.131164
v -35.111858 -0.000000 -0.000634
v -32.993988 0.000023 -12.008834
v -34.771511 25.762238 -6.131165
v -32.993988 81.587891 -12.008886
v -26.896931 81.587868 -22.569246
v -26.896952 -0.000002 -22.569218
v -17.555763 -0.000002 -30.407421
v -34.771511 73.660172 6.131110
v -35.111485 81.587891 -0.000030
v -34.771511 73.660172 -6.131192
v -34.771511 63.511986 -6.131191
v -34.771511 25.762262 6.131138
v -34.771511 63.511986 6.131111
v -6.092856 81.587227 -34.567986
v -6.092856 81.587227 -36.920155
v -6.097037 69.214348 -34.578079
v -6.097037 69.214325 -35.818459
v -6.097037 69.214348 34.578045
v -6.097037 69.214348 35.911106
v -6.092856 81.588264 34.572830
v -6.092856 81.588264 36.914337
v -27.673025 80.270073 15.875964
v 0.244567 3.280109 -0.000000
v -31.487949 80.269905 -0.000030
v -27.673025 80.269806 -15.876023
v -34.771511 25.762238 -6.131165
v -37.782768 24.698196 -6.131165
v -34.771511 25.762262 6.131138
v -37.782745 24.698219 6.131138
v -34.771511 73.660172 -6.131192
v -37.523804 68.111748 -6.131168
v -34.771511 73.660172 6.131110
v -37.523804 68.111717 6.131135
v 42.162220 24.446205 -11.392568
v 42.162197 17.754557 -7.271703
v 32.994038 16.775583 -12.008835
v 34.446594 13.225798 -7.636146
v 35.111507 11.091677 -0.000212
v 42.162220 15.644202 -0.000307
v 85.781960 78.246269 -0.001063
v 85.782356 80.280594 -4.466947
v 85.782333 84.755257 -6.649898
v 91.400055 78.303902 -0.001063
v 91.400452 80.338417 -4.466970
v 91.400452 85.074821 -6.649898
v 91.399536 89.048302 -4.814316
v 85.781021 87.145927 -6.240642
v 85.781609 89.679863 -4.194877
v 91.399979 91.303688 -0.001064
v 85.781815 91.245209 -0.001064
v 42.161259 73.708328 -0.000311
v 42.161282 71.408791 -7.240423
v 35.111507 73.722649 -0.000217
v 34.446594 71.323059 -7.636174
v 42.161282 67.306145 -11.345503
v 32.994038 67.009132 -12.008862
v -37.523804 68.111748 -6.131168
v -50.927841 65.218010 -6.131167
v -37.523804 68.111717 6.131135
v -50.926857 65.221634 6.132004
v -53.745266 62.443504 -6.131167
v -53.744583 62.448647 6.132145
v 0.050966 66.541374 -34.578079
v -3.259629 67.078278 -34.578079
v 0.000000 66.541374 -35.818459
v -3.285089 67.078278 -35.818459
v -6.097037 69.214348 -34.578079
v -6.097037 69.214325 -35.818459
v -0.001268 66.541397 34.578045
v 3.523150 67.078278 34.578045
v 0.000000 66.541397 35.911106
v 3.523761 67.078278 35.911106
v 6.097060 69.214348 34.578045
v 6.097037 69.214325 35.911106
v 0.000000 66.541374 -35.818459
v 3.523784 67.078278 -35.818459
v 0.050966 66.541374 -34.578079
v 3.549244 67.078278 -34.578079
v 6.097037 69.214325 -35.818459
v 6.097037 69.214325 -34.578079
v 0.000000 66.541397 35.911106
v -3.285112 67.078278 35.911106
v -0.001268 66.541397 34.578045
v -3.285746 67.078278 34.578045
v -6.097037 69.214348 35.911106
v -6.097037 69.214348 34.578045
v 32.994038 16.775583 -12.008835
v 26.896952 81.587837 -22.569246
v 32.994038 67.009132 -12.008862
v 32.994011 81.587868 -12.008863
v 34.446594 71.323059 -7.636174
v 35.111507 81.587891 -0.000241
v 35.111507 73.722649 -0.000217
v 35.111507 -0.000000 -0.000211
v 32.994011 -0.000001 -12.008834
v 35.111507 11.091677 -0.000212
v 34.446594 13.225798 -7.636146
v 26.896952 -0.000002 -22.569241
v 17.555717 -0.000002 -30.407421
v 17.555763 81.587868 -30.407427
v -6.097037 69.214348 35.911106
v -3.285112 67.078278 35.911106
v -6.092856 81.588264 36.914337
v 0.000000 66.541397 35.911106
v 6.104529 81.588264 36.914337
v 3.523761 67.078278 35.911106
v 6.097037 69.214325 35.911106
v -6.088675 91.201942 35.048599
v 6.111998 91.201920 35.048599
v -6.088675 100.419868 29.801172
v 6.111998 100.419868 29.801172
v -6.088675 107.700104 21.628191
v 6.111998 107.700104 21.628166
v -6.088675 112.335907 11.329566
v 6.111998 112.335960 11.329566
v -6.088675 113.923828 -0.086510
v 6.111998 113.923828 -0.086510
v -6.088675 112.335938 -11.502586
v 6.111998 112.335938 -11.502586
v -6.088675 107.700104 -21.801186
v 6.111998 107.700073 -21.801163
v -6.088675 100.419846 -29.974192
v 6.112022 100.419846 -29.974192
v -6.088652 91.201920 -35.221596
v 6.112022 91.201920 -35.221596
v -6.092856 81.587227 -36.920155
v 6.104529 81.587227 -36.920181
v 6.673941 83.954948 -19.786446
v 11.447055 83.954948 -11.197914
v 17.555742 81.587601 -30.407473
v 26.896952 81.587631 -22.569271
v 32.994038 81.587631 -12.008886
v 12.970757 83.955040 -0.000030
v 35.111507 81.587654 0.000182
v -35.111485 81.587654 -0.000030
v -27.404736 83.955040 -0.000030
v -32.993988 81.587631 -12.008840
v -24.135220 83.954948 -13.350331
v -26.896952 81.587631 -22.569246
v -13.761061 83.954948 -25.090406
v -17.555742 81.587601 -30.407448
v -6.092856 81.588005 -34.572891
v -1.686418 83.954926 -26.235550
v 6.098634 81.588005 -34.572891
v 17.555742 81.587601 -30.407473
v 35.111507 81.587891 -0.000241
v 32.994038 81.587891 12.008828
v 11.447055 83.955162 11.197854
v 26.896952 81.587891 22.569212
v 17.555742 81.587868 30.407415
v 6.673941 83.955162 19.786388
v -1.686418 83.955162 26.235514
v 6.098634 81.588264 34.572830
v -6.092856 81.588264 34.572830
v -13.761061 83.955162 25.090347
v -17.555742 81.587868 30.407389
v -26.896952 81.587891 22.569189
v -24.135220 83.955162 13.350272
v -32.993988 81.587891 12.008804
v -27.404736 83.955040 -0.000030
v -35.111485 81.587891 -0.000030
v -32.993988 81.587891 12.008804
v -32.993988 0.000024 12.008810
v -26.896952 81.587891 22.569189
v -26.896952 0.000002 22.569218
v -17.555763 0.000002 30.407421
v -17.555742 81.587868 30.407389
v -6.097060 0.000003 34.578049
v -35.111485 81.587891 -0.000030
v -34.771511 73.660172 6.131110
v -34.771511 63.511986 6.131111
v -34.771511 25.762262 6.131138
v -34.771511 15.877849 6.131138
v -35.111858 -0.000000 -0.000634
v 17.555717 0.000002 30.407442
v 6.097060 69.214348 34.578045
v 6.097037 0.000003 34.578049
v 3.523150 67.078278 34.578045
v -0.001268 66.541397 34.578045
v -3.285746 67.078278 34.578045
v -6.097037 69.214348 34.578045
v -6.092856 81.588264 34.572830
v 32.993988 0.000001 12.008858
v 26.896952 81.587891 22.569212
v 26.896931 0.000002 22.569241
v 17.555742 81.587868 30.407415
v 6.098634 81.588264 34.572830
v 35.111507 73.722649 -0.000217
v 35.111507 81.587891 -0.000241
v 34.446594 71.383377 7.636140
v 32.994038 81.587891 12.008828
v 32.994011 67.009132 12.008829
v 32.994011 16.775583 12.008857
v 34.446594 13.288344 7.636168
v 35.111507 11.091677 -0.000212
v 35.111507 -0.000000 -0.000211
v 91.400055 80.007439 -0.108937
v 91.400330 81.555496 -3.499505
v 91.400360 81.593552 3.228479
v 91.400330 85.217812 -5.156846
v 91.399635 88.170624 -3.812748
v 91.400330 85.217812 4.785062
v 91.399956 89.881966 -0.108938
v 91.399681 88.346283 3.574861
v -34.771511 15.877849 -6.131164
v -34.771511 15.877849 6.131138
v -37.855812 20.546564 -6.131164
v -37.855812 20.546564 6.131138
v -51.310562 28.712404 6.131137
v -51.310562 28.712404 -6.131165
v -52.895420 32.454830 6.131302
v -52.895561 32.454758 -6.131142
v -53.745266 62.443504 -6.131167
v -53.744583 62.448647 6.132145
v -34.771511 63.511986 6.131111
v -37.286938 64.844902 6.131111
v -34.771511 63.511986 -6.131191
v -37.286938 64.844902 -6.131191
v -50.951237 61.822094 6.131957
v -50.959877 61.817673 -6.131167
v -50.080559 31.603365 6.131255
v -50.080509 31.603388 -6.131165
v -37.782745 24.698219 6.131138
v -37.782768 24.698196 -6.131165
v -27.673025 80.270073 15.875964
v -10.843423 80.270073 29.837063
v 0.244567 3.280109 -0.000000
v 11.126038 80.270042 29.837086
v 28.299837 79.185783 14.860234
v 32.114811 79.185684 -0.000029
v 28.299837 79.185547 -14.860292
v 11.126038 80.269783 -29.837145
v -10.843423 80.269806 -29.837122
v -27.673025 80.269806 -15.876023
v -34.771511 73.660172 -6.131192
v -34.771511 63.511986 -6.131191
v -37.523804 68.111748 -6.131168
v -37.286938 64.844902 -6.131191
v -50.959877 61.817673 -6.131167
v -50.927841 65.218010 -6.131167
v -53.745266 62.443504 -6.131167
v -52.895561 32.454758 -6.131142
v -50.080509 31.603388 -6.131165
v -51.310562 28.712404 -6.131165
v -37.782768 24.698196 -6.131165
v -37.855812 20.546564 -6.131164
v -34.771511 25.762238 -6.131165
v -34.771511 15.877849 -6.131164
v -34.771511 15.877849 6.131138
v -34.771511 25.762262 6.131138
v -37.855812 20.546564 6.131138
v -37.782745 24.698219 6.131138
v -51.310562 28.712404 6.131137
v -50.080559 31.603365 6.131255
v -52.895420 32.454830 6.131302
v -50.951237 61.822094 6.131957
v -53.744583 62.448647 6.132145
v -50.926857 65.221634 6.132004
v -37.523804 68.111717 6.131135
v -37.286938 64.844902 6.131111
v -34.771511 63.511986 6.131111
v -34.771511 73.660172 6.131110
v 35.111507 -0.000000 -0.000211
v 32.993988 0.000001 12.008858
v 32.994011 -0.000001 -12.008834
v 26.896931 0.000002 22.569241
v 26.896952 -0.000002 -22.569241
v 17.555717 0.000002 30.407442
v 17.555717 -0.000002 -30.407421
v 6.097037 0.000003 34.578049
v 6.097060 -0.000003 -34.578049
v -6.097060 0.000003 34.578049
v -6.097037 -0.000003 -34.578049
v -17.555763 0.000002 30.407421
v -17.555763 -0.000002 -30.407421
v -26.896952 0.000002 22.569218
v -26.896952 -0.000002 -22.569218
v -32.993988 0.000024 12.008810
v -32.993988 0.000023 -12.008834
v -35.111858 -0.000000 -0.000634
v 35.111507 11.091677 -0.000212
v 42.162220 15.644202 -0.000307
v 34.446594 13.288344 7.636168
v 42.162197 17.815363 7.263410
v 32.994011 16.775583 12.008857
v 42.162220 24.446205 11.369006
v 32.994011 67.009132 12.008829
v 42.161282 67.306168 11.323557
v 34.446594 71.383377 7.636140
v 42.161259 71.462479 7.243043
v 35.111507 73.722649 -0.000217
v 42.161259 73.708328 -0.000311
v 85.781609 89.682846 4.217904
v 85.781815 91.245209 -0.001064
v 91.399582 89.279739 4.749784
v 91.399979 91.303688 -0.001064
v 85.781960 78.246269 -0.001063
v 85.782379 80.330574 4.394830
v 91.400055 78.303902 -0.001063
v 91.400482 80.388374 4.394830
v 85.782310 84.755257 6.445057
v 91.400429 85.074821 6.445057
v 85.781036 87.145950 6.049845
v 91.399536 89.048302 -4.814316
v 91.399635 88.170624 -3.812748
v 91.400452 85.074821 -6.649898
v 91.400330 85.217812 -5.156846
v 91.400452 80.338417 -4.466970
v 91.400330 81.555496 -3.499505
v 91.400055 78.303902 -0.001063
v 91.400055 80.007439 -0.108937
v 91.400482 80.388374 4.394830
v 91.400360 81.593552 3.228479
v 91.400429 85.074821 6.445057
v 91.400330 85.217812 4.785062
v 91.399582 89.279739 4.749784
v 91.399681 88.346283 3.574861
v 91.399979 91.303688 -0.001064
v 91.399956 89.881966 -0.108938
v 6.098634 81.588264 34.572830
v -6.092856 81.588264 34.572830
v 6.104483 90.558830 32.836716
v -6.088675 90.558830 32.836716
v 6.104459 99.197617 27.919651
v -6.088675 99.197678 27.919651
v 6.104459 106.029442 20.261169
v -6.088675 106.029442 20.261169
v 6.104459 110.386467 10.610895
v -6.088675 110.386467 10.610895
v 6.104459 111.880409 -0.086510
v -6.088675 111.880409 -0.086510
v 6.104459 110.386467 -10.783916
v -6.088675 110.386467 -10.783892
v 6.104483 106.029442 -20.434164
v -6.088675 106.029442 -20.434164
v 6.104483 99.197594 -28.092669
v -6.088652 99.197571 -28.092669
v 6.104483 90.558800 -33.009708
v -6.088675 90.558800 -33.009708
v 6.098634 81.587227 -34.567986
v -6.092856 81.587227 -34.567986
v -6.092856 81.588264 34.572830
v -6.092856 81.588264 36.914337
v -6.088675 90.558830 32.836716
v -6.088675 91.201942 35.048599
v -6.088675 99.197678 27.919651
v -6.088675 100.419868 29.801172
v -6.088675 106.029442 20.261169
v -6.088675 107.700104 21.628191
v -6.088675 110.386467 10.610895
v -6.088675 112.335907 11.329566
v -6.088675 111.880409 -0.086510
v -6.088675 113.923828 -0.086510
v -6.088675 110.386467 -10.783892
v -6.088675 112.335938 -11.502586
v -6.088675 106.029442 -20.434164
v -6.088675 107.700104 -21.801186
v -6.088652 99.197571 -28.092669
v -6.088675 100.419846 -29.974192
v -6.088675 90.558800 -33.009708
v -6.088652 91.201920 -35.221596
v -6.092856 81.587227 -34.567986
v -6.092856 81.587227 -36.920155
v -31.487949 80.269905 -0.000030
v -27.404736 83.955040 -0.000030
v -27.673025 80.270073 15.875964
v -24.135220 83.955162 13.350272
v -10.843423 80.270073 29.837063
v -13.761061 83.955162 25.090347
v 11.126038 80.270042 29.837086
v -1.686418 83.955162 26.235514
v 6.673941 83.955162 19.786388
v 11.447055 83.955162 11.197854
v 28.299837 79.185783 14.860234
v 32.114811 79.185684 -0.000029
v 12.970757 83.955040 -0.000030
v 11.447055 83.954948 -11.197914
v 28.299837 79.185547 -14.860292
v 11.126038 80.269783 -29.837145
v 6.673941 83.954948 -19.786446
v -1.686418 83.954926 -26.235550
v -13.761061 83.954948 -25.090406
v -10.843423 80.269806 -29.837122
v -24.135220 83.954948 -13.350331
v -27.673025 80.269806 -15.876023
v -27.404736 83.955040 -0.000030
v 6.097037 69.214325 -34.578079
v 6.097037 69.214325 -35.818459
v 6.098634 81.587227 -34.567986
v 6.104529 81.587227 -36.920181
v 6.104483 90.558800 -33.009708
v 6.112022 91.201920 -35.221596
v 6.104483 99.197594 -28.092669
v 6.112022 100.419846 -29.974192
v 6.104483 106.029442 -20.434164
v 6.111998 107.700073 -21.801163
v 6.104459 110.386467 -10.783916
v 6.111998 112.335938 -11.502586
v 6.104459 111.880409 -0.086510
v 6.111998 113.923828 -0.086510
v 6.104459 110.386467 10.610895
v 6.111998 112.335960 11.329566
v 6.104459 106.029442 20.261169
v 6.111998 107.700104 21.628166
v 6.104459 99.197617 27.919651
v 6.111998 100.419868 29.801172
v 6.104483 90.558830 32.836716
v 6.111998 91.201920 35.048599
v 6.098634 81.588264 34.572830
v 6.104529 81.588264 36.914337
v 6.097060 69.214348 34.578045
v 6.097037 69.214325 35.911106
vn -0.3405 0.0400 -0.9394
vn -0.5485 0.0462 -0.8349
vn -0.9522 -0.3000 0.0567
vn -0.9824 -0.1656 -0.0861
vn -0.9981 -0.0624 -0.0001
vn -0.9336 -0.0627 -0.3529
vn -0.9707 0.0603 -0.2326
vn -0.9531 0.0622 -0.2962
vn -0.8182 0.0480 -0.5729
vn -0.7050 0.0598 -0.7067
vn -0.5487 0.0462 -0.8347
vn -0.6414 0.0523 -0.7654
vn -0.9688 0.2421 0.0538
vn -0.9971 0.0765 -0.0000
vn -0.9873 0.1359 -0.0822
vn -0.9912 0.0630 -0.1164
vn -0.9912 0.0648 0.1152
vn -0.9708 0.0639 0.2314
vn -0.9980 0.0625 -0.0000
vn -0.9980 0.0625 0.0001
vn -0.6980 0.6852 0.2082
vn 0.7953 -0.4575 -0.3978
vn 0.0003 1.0000 -0.0001
vn 0.9692 -0.2463 -0.0000
vn 0.7952 -0.4583 0.3970
vn -0.3318 0.9433 -0.0000
vn -0.3318 0.9434 -0.0000
vn -0.3319 0.9433 -0.0000
vn -0.9873 0.1361 -0.0821
vn -0.8945 0.4471 -0.0000
vn -0.9687 0.2424 0.0537
vn 0.5393 -0.4073 -0.7370
vn 0.6351 -0.5990 -0.4878
vn 0.4279 -0.5521 -0.7156
vn 0.4924 -0.7898 -0.3657
vn 0.5413 -0.8408 0.0018
vn 0.6224 -0.7827 0.0018
vn 0.5530 -0.8274 -0.0980
vn 0.3693 -0.5583 -0.7429
vn 0.2266 -0.0268 -0.9736
vn 0.0098 -0.9724 0.2329
vn 0.0076 -0.8263 -0.5632
vn 0.0058 -0.2401 -0.9707
vn 0.0606 0.5212 -0.8513
vn -0.1050 0.5964 -0.7958
vn -0.1558 0.8601 -0.4858
vn 0.0137 0.9792 -0.2026
vn -0.1285 0.9830 0.1310
vn -0.2789 0.9603 -0.0021
vn -0.1246 0.8389 -0.5298
vn 0.0030 1.0000 -0.0031
vn 0.0215 0.7944 -0.6070
vn -0.0484 0.7068 -0.7058
vn 0.0276 0.7069 -0.7067
vn -0.2097 0.9778 -0.0000
vn -0.3426 0.9395 -0.0000
vn -0.5953 0.8035 -0.0000
vn -0.7000 0.7141 -0.0000
vn -0.7002 0.7140 -0.0000
vn -0.1588 -0.9873 0.0051
vn -0.2771 -0.9608 0.0059
vn -0.1598 -0.9871 0.0031
vn -0.5016 -0.8651 0.0029
vn -0.6014 -0.7990 0.0059
vn -0.6034 -0.7974 -0.0000
vn 0.1506 -0.9886 -0.0001
vn 0.2796 -0.9601 -0.0000
vn 0.5303 -0.8478 -0.0000
vn 0.6381 -0.7700 -0.0000
vn 0.6380 -0.7701 -0.0000
vn 0.1506 -0.9886 -0.0062
vn 0.2815 -0.9595 -0.0068
vn 0.1505 -0.9886 -0.0040
vn 0.5314 -0.8471 -0.0049
vn 0.6390 -0.7692 -0.0069
vn 0.6421 -0.7666 -0.0000
vn -0.1613 -0.9869 0.0002
vn -0.2771 -0.9608 -0.0000
vn -0.1613 -0.9869 0.0001
vn -0.5036 -0.8640 -0.0000
vn -0.6034 -0.7975 -0.0000
vn -0.6033 -0.7975 -0.0000
vn 0.8901 -0.0540 -0.4526
vn 0.7924 0.0495 -0.6080
vn 0.9047 0.0479 -0.4233
vn 0.9467 0.0459 -0.3187
vn 0.9849 0.0494 -0.1662
vn 0.9985 0.0541 -0.0001
vn 0.9985 -0.0541 -0.0001
vn 0.9995 0.0312 -0.0001
vn 0.9663 -0.0410 -0.2543
vn 0.9770 -0.0696 -0.2014
vn 0.8188 -0.0388 -0.5728
vn 0.6419 -0.0460 -0.7654
vn -0.0601 -0.1001 0.9932
vn -0.0435 -0.0990 0.9941
vn -0.0220 -0.0584 0.9981
vn -0.0000 -0.0883 0.9961
vn 0.0176 0.0600 0.9980
vn 0.0479 -0.0970 0.9941
vn 0.0664 -0.0960 0.9932
vn -0.0000 0.2735 0.9619
vn -0.0000 0.4250 0.9052
vn -0.0000 0.5651 0.8250
vn -0.0000 0.6925 0.7214
vn -0.0000 0.7962 0.6051
vn -0.0000 0.8789 0.4770
vn -0.0000 0.9393 0.3431
vn -0.0000 0.9785 0.2063
vn -0.0000 0.9977 0.0674
vn -0.0000 0.9977 -0.0684
vn -0.0000 0.9783 -0.2073
vn -0.0000 0.9389 -0.3441
vn -0.0000 0.8783 -0.4780
vn -0.0000 0.7955 -0.6060
vn -0.0000 0.6915 -0.7224
vn -0.0000 0.5637 -0.8260
vn -0.0000 0.4208 -0.9072
vn -0.0001 0.2593 -0.9658
vn -0.0000 0.1760 -0.9844
vn -0.0000 0.1759 -0.9844
vn 0.7857 0.6154 -0.0625
vn 0.1075 0.9920 -0.0665
vn 0.1143 0.9898 -0.0850
vn 0.0928 0.9925 -0.0792
vn 0.1065 0.9938 -0.0305
vn 0.1065 0.9943 -0.0000
vn 0.1063 0.9942 -0.0187
vn -0.2917 0.9552 -0.0509
vn -0.2780 0.9606 -0.0000
vn -0.2798 0.9557 -0.0919
vn -0.2487 0.9589 -0.1368
vn -0.2360 0.9496 -0.2063
vn -0.1422 0.9564 -0.2551
vn -0.1666 0.9399 -0.2981
vn -0.0532 0.9549 -0.2923
vn 0.0410 0.9764 -0.2121
vn 0.6801 0.7097 -0.1837
vn 0.0849 0.9827 -0.1643
vn 0.6801 0.7097 -0.1839
vn -0.0000 -0.0000 -1.0000
vn 0.1142 0.9898 -0.0849
vn 0.7857 0.6155 -0.0625
vn 0.1056 0.9943 0.0177
vn 0.1065 0.9939 0.0293
vn 0.1075 0.9920 0.0655
vn 0.0930 0.9926 0.0782
vn 0.0987 0.9871 0.1261
vn 0.1153 0.9883 0.0997
vn 0.0410 0.9766 0.2112
vn 0.8716 0.4756 0.1192
vn -0.6982 0.6850 0.2081
vn -0.1422 0.9567 0.2541
vn -0.1666 0.9401 0.2972
vn -0.2360 0.9498 0.2053
vn -0.2487 0.9590 0.1359
vn -0.2799 0.9557 0.0909
vn -0.2916 0.9552 0.0498
vn -0.9521 0.0718 0.2972
vn -0.9384 -0.0653 0.3392
vn -0.7645 0.0654 0.6413
vn -0.5729 0.0616 0.8173
vn -0.3945 0.0620 0.9168
vn -0.1295 0.0519 0.9902
vn -0.9971 0.0765 0.0001
vn -0.9688 0.2420 0.0538
vn -0.9707 0.0639 0.2317
vn -0.9912 0.0648 0.1155
vn -0.9522 -0.3003 0.0570
vn -0.9980 -0.0625 0.0004
vn 0.4212 -0.0575 0.9051
vn 0.2540 0.0522 0.9658
vn 0.0568 -0.0514 0.9971
vn -0.0000 -0.0442 0.9990
vn -0.2017 0.0613 0.9775
vn -0.3405 0.0586 0.9384
vn 0.9467 -0.0579 0.3167
vn 0.8431 -0.0456 0.5358
vn 0.7055 -0.0653 0.7057
vn 0.4993 0.0634 0.8641
vn 0.3410 0.0557 0.9384
vn 0.9985 -0.0541 0.0001
vn 0.9985 0.0541 0.0004
vn 0.9849 0.0526 0.1652
vn 0.9467 0.0523 0.3177
vn 0.9047 -0.0558 0.4223
vn 0.9038 -0.0568 0.4242
vn 0.9770 -0.0696 0.2014
vn 0.9995 0.0312 0.0001
vn 0.9995 -0.0312 -0.0000
vn 0.9995 0.0312 -0.0000
vn 0.9985 0.0541 -0.0000
vn -0.9824 -0.1658 -0.0860
vn -0.9521 -0.3006 0.0567
vn -0.6922 -0.7217 -0.0000
vn -0.6924 -0.7216 -0.0000
vn -0.6416 -0.7670 0.0001
vn -0.8494 -0.5278 -0.0001
vn -0.9756 -0.2197 -0.0000
vn -0.9980 -0.0625 0.0001
vn -0.9980 -0.0625 -0.0000
vn -0.4667 -0.8844 -0.0000
vn -0.3101 -0.9507 -0.0000
vn 0.0468 -0.9989 -0.0000
vn 0.4935 -0.8697 -0.0003
vn 0.9624 -0.2718 -0.0001
vn 0.9633 0.2685 -0.0001
vn 0.6811 0.7322 -0.0000
vn 0.4886 0.8725 -0.0000
vn 0.7954 -0.4573 -0.3978
vn 0.5052 -0.3049 -0.8074
vn -0.0001 1.0000 -0.0000
vn -0.2046 -0.7237 -0.6590
vn -0.7313 -0.5103 -0.4526
vn -0.5476 -0.8367 0.0002
vn -0.7312 -0.5111 0.4518
vn -0.2047 -0.7246 0.6580
vn 0.5051 -0.3076 0.8064
vn -0.0000 0.0442 0.9990
vn -0.0001 -0.0442 0.9990
vn -0.0000 -1.0000 -0.0000
vn 0.5413 -0.8408 0.0021
vn 0.6224 -0.7827 0.0021
vn 0.4924 -0.7889 0.3677
vn 0.6341 -0.6000 0.4878
vn 0.3293 -0.3958 0.8573
vn 0.3205 -0.2140 0.9227
vn 0.0635 0.2194 0.9736
vn 0.0069 0.4391 0.8984
vn 0.0234 0.7921 0.6099
vn -0.1197 0.8334 0.5396
vn 0.0029 1.0000 -0.0025
vn -0.2789 0.9603 -0.0017
vn -0.2154 0.8259 0.5210
vn -0.1285 0.9830 0.1313
vn 0.0127 0.7639 0.6452
vn 0.0136 0.9792 -0.2024
vn 0.5530 -0.8274 -0.0978
vn 0.3684 -0.6998 0.6120
vn 0.0098 -0.9725 0.2328
vn 0.0133 -0.5623 0.8269
vn 0.1465 -0.2000 0.9688
vn 0.0244 0.1051 0.9942
vn -0.0601 0.4548 0.8886
vn 0.9995 0.0313 -0.0000
vn 0.9995 -0.0313 -0.0000
vn -0.0000 -0.1916 -0.9815
vn -0.0000 -0.2700 -0.9629
vn -0.0000 -0.4229 -0.9062
vn -0.0000 -0.5637 -0.8260
vn -0.0000 -0.6904 -0.7234
vn -0.0000 -0.7947 -0.6070
vn -0.0000 -0.8778 -0.4790
vn -0.0000 -0.9386 -0.3450
vn -0.0000 -0.9783 -0.2073
vn -0.0000 -0.9976 -0.0694
vn -0.0000 -0.9977 0.0684
vn -0.0000 -0.9785 0.2063
vn -0.0000 -0.9389 0.3441
vn -0.0000 -0.8783 0.4780
vn -0.0000 -0.7954 0.6060
vn -0.0000 -0.6914 0.7225
vn -0.0000 -0.5651 0.8250
vn -0.0000 -0.4207 0.9072
vn -0.0000 -0.2594 0.9658
vn -0.0000 -0.1816 0.9834
vn -0.6979 0.6852 0.2083
vn -0.9981 0.0624 -0.0000
vn -0.9990 0.0442 -0.0000
vn -0.9990 -0.0442 -0.0000
vn 0.9693 -0.2461 -0.0001
vn 0.6654 -0.7465 -0.0001
vn 0.6634 -0.5285 -0.5297
vn 0.5051 -0.3048 -0.8074
vn 0.1202 -0.6357 -0.7625
vn -0.2046 -0.7240 -0.6588
vn -0.1675 -0.9239 -0.3441
vn -0.2477 -0.9402 -0.2336
vn -0.2711 -0.9553 -0.1183
vn -0.7314 -0.5101 -0.4526
vn -0.5475 -0.8368 -0.0000
vn -0.2417 -0.9703 -0.0000
vn -0.2711 -0.9554 0.1173
vn -0.7313 -0.5110 0.4518
vn -0.2047 -0.7249 0.6578
vn -0.2477 -0.9405 0.2327
vn -0.1676 -0.9242 0.3431
vn 0.1202 -0.6370 0.7614
vn 0.5051 -0.3073 0.8065
vn 0.6634 -0.5295 0.5288
vn 0.7952 -0.4584 0.3969
vn 0.6654 -0.7465 0.0001
vn 0.9692 -0.2462 -0.0001
vn 0.9985 -0.0541 -0.0000
vn 0.9985 -0.0541 0.0010
vn 0.9985 -0.0541 0.0020
vn 0.9985 -0.0541 0.0002
vn 0.9985 -0.0541 -0.0010
vn 0.9985 -0.0541 -0.0020
vn 0.9985 -0.0540 -0.0029
vn 0.8715 0.4756 0.1192
vt 0.738496 0.319297
vt 0.796569 0.375651
vt 0.739513 0.375486
vt 0.993911 0.080354
vt 0.940068 0.080279
vt 0.967471 0.008456
vt 0.913050 0.008618
vt 0.940102 0.124583
vt 0.913050 0.375789
vt 0.854979 0.375798
vt 0.855197 0.008459
vt 0.797192 0.008312
vt 0.993661 0.339870
vt 0.967540 0.375653
vt 0.939820 0.339924
vt 0.940032 0.294447
vt 0.994020 0.124537
vt 0.993950 0.294500
vt 0.515557 0.717020
vt 0.515636 0.737246
vt 0.404832 0.717101
vt 0.407047 0.737246
vt 0.404815 0.717201
vt 0.407022 0.737246
vt 0.515557 0.717213
vt 0.533943 0.726377
vt 0.579148 0.552001
vt 0.624353 0.726376
vt 0.449259 0.387347
vt 0.468448 0.387351
vt 0.449260 0.455758
vt 0.468449 0.455762
vt 0.996375 0.541887
vt 0.937620 0.541887
vt 0.996375 0.463684
vt 0.937620 0.463683
vt 0.066857 0.624945
vt 0.072460 0.596462
vt 0.012022 0.604013
vt 0.027714 0.572095
vt 0.052814 0.533354
vt 0.093110 0.564478
vt 0.380863 0.874464
vt 0.373125 0.894600
vt 0.369433 0.923550
vt 0.418698 0.886620
vt 0.411795 0.911914
vt 0.409485 0.938926
vt 0.411099 0.962798
vt 0.367750 0.948129
vt 0.369505 0.966604
vt 0.412645 0.992668
vt 0.371150 0.992449
vt 0.112072 0.957156
vt 0.112689 0.913523
vt 0.072806 0.957772
vt 0.069060 0.914043
vt 0.109819 0.879253
vt 0.057776 0.883474
vt 0.899468 0.541879
vt 0.899506 0.463670
vt 0.869183 0.541878
vt 0.869237 0.463668
vt 0.365073 0.782015
vt 0.376513 0.755689
vt 0.384324 0.789429
vt 0.395686 0.763337
vt 0.387954 0.729364
vt 0.365208 0.797321
vt 0.376582 0.823461
vt 0.384299 0.789531
vt 0.395671 0.815681
vt 0.387955 0.849601
vt 0.407044 0.841831
vt 0.395697 0.815630
vt 0.365399 0.797601
vt 0.376690 0.823551
vt 0.407070 0.841831
vt 0.387980 0.849500
vt 0.395660 0.763388
vt 0.365213 0.781735
vt 0.376572 0.755600
vt 0.387931 0.729465
vt 0.510426 0.083274
vt 0.563191 0.375012
vt 0.511118 0.309609
vt 0.509010 0.374833
vt 0.488414 0.329160
vt 0.457285 0.375067
vt 0.457285 0.339655
vt 0.455876 0.007989
vt 0.508992 0.007776
vt 0.455876 0.057828
vt 0.487983 0.067467
vt 0.563303 0.007673
vt 0.621200 0.007759
vt 0.620873 0.375098
vt 0.515636 0.841831
vt 0.603702 0.737246
vt 0.603702 0.841831
vt 0.698204 0.737246
vt 0.698204 0.841831
vt 0.795097 0.737246
vt 0.795097 0.841831
vt 0.894395 0.737246
vt 0.894395 0.841831
vt 0.995339 0.737246
vt 0.995339 0.841831
vt 0.099158 0.263141
vt 0.143357 0.294715
vt 0.034621 0.342832
vt 0.085416 0.402302
vt 0.153588 0.440779
vt 0.229032 0.309698
vt 0.230862 0.453483
vt 0.225105 0.001331
vt 0.230552 0.051761
vt 0.148167 0.016218
vt 0.125881 0.088229
vt 0.081061 0.056575
vt 0.070149 0.140598
vt 0.031931 0.117549
vt 0.006443 0.191500
vt 0.061960 0.209192
vt 0.007260 0.269624
vt 0.225831 0.052669
vt 0.911660 0.375579
vt 0.911660 0.008358
vt 0.854197 0.375609
vt 0.854282 0.008270
vt 0.796619 0.008212
vt 0.796380 0.375551
vt 0.738437 0.008126
vt 0.967626 0.375540
vt 0.939864 0.339757
vt 0.939896 0.294190
vt 0.939896 0.124351
vt 0.939864 0.079948
vt 0.967629 0.008426
vt 0.621516 0.008031
vt 0.679210 0.319233
vt 0.679722 0.008061
vt 0.694163 0.309512
vt 0.708929 0.306808
vt 0.723885 0.309085
vt 0.738654 0.319315
vt 0.739589 0.375490
vt 0.509632 0.008141
vt 0.563816 0.375350
vt 0.563818 0.008011
vt 0.621510 0.375370
vt 0.678223 0.375385
vt 0.457296 0.339665
vt 0.457296 0.375077
vt 0.488512 0.329174
vt 0.509632 0.375193
vt 0.511027 0.309612
vt 0.511028 0.083625
vt 0.488512 0.068077
vt 0.456466 0.058192
vt 0.456466 0.008353
vt 0.465777 0.573442
vt 0.495915 0.608242
vt 0.420143 0.574377
vt 0.495728 0.658131
vt 0.465468 0.684693
vt 0.384049 0.607453
vt 0.415075 0.685177
vt 0.381580 0.649023
vt 0.402478 0.541889
vt 0.402478 0.463686
vt 0.448528 0.541887
vt 0.448528 0.463684
vt 0.524017 0.463677
vt 0.524016 0.541880
vt 0.561487 0.463675
vt 0.561486 0.541879
vt 0.994317 0.455756
vt 0.972287 0.455759
vt 0.994316 0.387345
vt 0.972286 0.387349
vt 0.928420 0.455781
vt 0.928357 0.387366
vt 0.544569 0.455778
vt 0.544569 0.387366
vt 0.632519 0.726377
vt 0.723491 0.726377
vt 0.814473 0.552001
vt 0.814884 0.726377
vt 0.909686 0.726376
vt 0.991786 0.726376
vt 0.005223 0.405269
vt 0.081744 0.405270
vt 0.047055 0.422532
vt 0.071688 0.421046
vt 0.094467 0.506774
vt 0.068831 0.506597
vt 0.089740 0.524268
vt 0.315885 0.518941
vt 0.322311 0.501287
vt 0.344108 0.509001
vt 0.374406 0.424157
vt 0.405710 0.424616
vt 0.366389 0.405271
vt 0.440921 0.405271
vt 0.489310 0.180886
vt 0.479437 0.233220
vt 0.480387 0.128380
vt 0.451918 0.279073
vt 0.453689 0.082039
vt 0.410024 0.312917
vt 0.412396 0.047455
vt 0.358815 0.330670
vt 0.361506 0.028797
vt 0.304482 0.330190
vt 0.307172 0.028317
vt 0.253592 0.311532
vt 0.255964 0.046070
vt 0.212299 0.276948
vt 0.214070 0.079913
vt 0.185601 0.230606
vt 0.186552 0.125766
vt 0.176677 0.178097
vt 0.072805 0.957772
vt 0.367751 0.948129
vt 0.472212 0.699729
vt 0.513234 0.664124
vt 0.513032 0.599402
vt 0.473312 0.553616
vt 0.413229 0.554795
vt 0.366136 0.597374
vt 0.363588 0.653596
vt 0.406563 0.700715
vt 0.515557 0.860672
vt 0.515557 0.972504
vt 0.603702 0.860672
vt 0.603702 0.972504
vt 0.698204 0.860672
vt 0.698204 0.972504
vt 0.795097 0.860672
vt 0.795097 0.972504
vt 0.894395 0.860672
vt 0.894395 0.972504
vt 0.995339 0.860672
vt 0.995339 0.972504
vt 0.515557 0.992475
vt 0.603702 0.992475
vt 0.698204 0.992475
vt 0.795097 0.992475
vt 0.894395 0.992475
vt 0.995339 0.992475
vt 0.127258 0.582060
vt 0.140866 0.596897
vt 0.186744 0.548906
vt 0.189837 0.567415
vt 0.279700 0.562945
vt 0.256577 0.567139
vt 0.346150 0.633196
vt 0.287511 0.614780
vt 0.298995 0.663893
vt 0.293720 0.678195
vt 0.352983 0.730783
vt 0.319725 0.785355
vt 0.260984 0.723407
vt 0.140799 0.596897
vt 0.404841 0.860672
vt 0.404825 0.860672
s 1
usemtl np_turquoise_watering_can
f 1/1/1 2/2/2 3/3/1
f 4/4/3 5/5/4 6/6/5
f 6/6/5 5/5/4 7/7/6
f 5/5/4 8/8/7 7/7/6
f 8/8/7 9/9/8 7/7/6
f 9/9/8 10/10/9 7/7/6
f 7/7/6 10/10/9 11/11/10
f 10/10/9 2/2/11 11/11/10
f 11/11/10 2/2/11 12/12/12
f 13/13/13 14/14/14 15/15/15
f 14/14/14 9/9/8 15/15/15
f 15/15/15 9/9/8 16/16/16
f 9/9/8 8/8/7 16/16/16
f 8/8/7 17/17/17 16/16/16
f 16/16/16 17/17/17 18/18/18
f 19/19/19 20/20/19 21/21/20
f 20/20/19 22/22/19 21/21/20
f 23/23/19 24/24/19 25/25/21
f 24/24/19 26/20/19 25/25/21
f 27/26/22 28/27/23 29/28/24
f 28/27/23 30/26/25 29/28/24
f 31/29/26 32/30/27 33/31/28
f 32/30/27 34/32/26 33/31/28
f 35/33/29 36/34/30 37/35/31
f 36/34/30 38/36/30 37/35/31
f 39/37/32 40/38/33 41/39/34
f 40/38/33 42/40/35 41/39/34
f 43/41/36 42/40/35 44/42/37
f 42/40/35 40/38/33 44/42/37
f 44/42/37 40/38/33 45/43/38
f 45/43/38 40/38/33 46/44/39
f 40/38/33 39/37/32 46/44/39
f 46/44/39 39/37/32 47/45/40
f 48/46/41 45/43/38 49/47/42
f 45/43/38 46/44/39 49/47/42
f 49/47/42 46/44/39 50/48/43
f 46/44/39 47/45/40 50/48/43
f 50/48/43 47/45/40 51/49/44
f 47/45/40 52/50/45 51/49/44
f 52/50/45 53/51/46 51/49/44
f 51/49/44 53/51/46 54/52/47
f 54/52/47 53/51/46 55/53/48
f 55/53/48 53/51/46 56/54/49
f 53/51/46 57/55/50 56/54/49
f 56/54/49 57/55/50 58/56/51
f 58/56/51 57/55/50 59/57/52
f 57/55/50 60/58/53 59/57/52
f 59/57/52 60/58/53 61/59/54
f 53/51/46 52/50/45 57/55/50
f 52/50/45 60/58/53 57/55/50
f 62/34/55 63/60/56 64/36/55
f 64/36/55 63/60/56 65/61/57
f 63/60/56 66/62/58 65/61/57
f 65/61/57 66/62/58 67/63/59
f 68/64/60 69/65/61 70/66/62
f 70/66/62 69/65/61 71/67/63
f 69/65/61 72/68/64 71/67/63
f 71/67/63 72/68/64 73/22/65
f 74/69/66 75/70/67 76/71/66
f 76/71/66 75/70/67 77/72/68
f 75/70/67 78/73/69 77/72/68
f 77/72/68 78/73/69 79/74/70
f 80/66/71 81/75/72 82/76/73
f 82/76/73 81/75/72 83/77/74
f 81/75/72 84/78/75 83/77/74
f 83/77/74 84/78/75 85/79/76
f 86/71/77 87/80/78 88/81/79
f 88/81/79 87/80/78 89/82/80
f 87/80/78 90/24/81 89/82/80
f 89/82/80 90/24/81 91/83/82
f 92/84/83 93/85/84 94/86/85
f 93/85/84 95/87/86 94/86/85
f 94/86/85 95/87/86 96/88/87
f 95/87/86 97/89/88 96/88/87
f 96/88/87 97/89/88 98/90/89
f 99/91/90 100/92/91 101/93/89
f 101/93/89 100/92/91 102/94/92
f 102/94/92 100/92/91 92/84/83
f 100/92/91 103/95/93 92/84/83
f 92/84/83 103/95/93 93/85/84
f 103/95/93 104/96/94 93/85/84
f 93/85/84 104/96/94 105/97/94
f 106/24/95 107/80/96 108/20/97
f 107/80/96 109/71/98 108/20/97
f 108/20/97 109/71/98 110/98/99
f 109/71/98 111/72/100 110/98/99
f 110/98/99 111/72/100 112/74/101
f 108/20/97 110/98/99 113/99/102
f 110/98/99 114/100/103 113/99/102
f 113/99/102 114/100/103 115/101/104
f 114/100/103 116/102/105 115/101/104
f 115/101/104 116/102/105 117/103/106
f 116/102/105 118/104/107 117/103/106
f 117/103/106 118/104/107 119/105/108
f 118/104/107 120/106/109 119/105/108
f 119/105/108 120/106/109 121/107/110
f 120/106/109 122/108/111 121/107/110
f 121/107/110 122/108/111 123/105/112
f 122/108/111 124/106/113 123/105/112
f 123/105/112 124/106/113 125/103/114
f 124/106/113 126/104/115 125/103/114
f 125/103/114 126/104/115 127/101/116
f 126/104/115 128/102/117 127/101/116
f 127/101/116 128/102/117 129/99/118
f 128/102/117 130/100/119 129/99/118
f 129/99/118 130/100/119 131/20/120
f 130/100/119 132/98/121 131/20/120
f 133/109/122 134/110/123 135/111/124
f 135/111/124 134/110/123 136/112/125
f 136/112/125 134/110/123 137/113/126
f 134/110/123 138/114/127 137/113/126
f 137/113/126 138/114/127 139/115/128
f 140/116/129 141/117/130 142/118/131
f 141/117/130 143/119/132 142/118/131
f 142/118/131 143/119/132 144/120/133
f 143/119/132 145/121/134 144/120/133
f 144/120/133 145/121/134 146/122/135
f 146/122/135 145/121/134 147/123/136
f 145/121/134 148/124/137 147/123/136
f 147/123/136 148/124/137 149/125/138
f 148/124/137 150/111/139 149/125/138
f 149/125/140 150/111/141 135/111/142
f 135/111/141 150/111/139 133/109/143
f 150/111/139 148/124/137 133/109/143
f 151/115/144 138/114/127 152/113/145
f 138/114/127 153/110/146 152/113/145
f 152/113/145 153/110/146 154/112/147
f 154/112/147 153/110/146 155/111/148
f 153/110/146 156/109/149 155/111/148
f 156/109/149 157/124/150 155/111/148
f 155/111/148 157/124/150 158/125/151
f 158/125/151 157/124/150 159/123/152
f 157/124/150 160/121/153 159/123/152
f 159/123/152 160/121/153 161/122/154
f 161/122/154 160/121/153 162/120/155
f 160/121/153 163/119/156 162/120/155
f 162/120/155 163/119/156 164/118/157
f 163/119/156 165/126/130 164/118/157
f 164/118/157 165/126/130 166/116/158
f 167/127/159 168/128/160 169/129/161
f 168/128/160 170/130/161 169/129/161
f 170/130/161 171/131/162 169/129/161
f 169/129/161 171/131/162 172/132/163
f 171/131/162 173/133/164 172/132/163
f 174/134/165 175/135/166 167/127/159
f 175/135/166 176/136/167 167/127/159
f 167/127/159 176/136/167 168/128/160
f 176/136/167 177/137/168 168/128/160
f 177/137/168 178/138/169 168/128/160
f 168/128/160 178/138/169 179/139/170
f 180/140/171 181/141/172 182/142/173
f 181/141/172 183/143/174 182/142/173
f 183/143/174 184/144/174 182/142/173
f 182/142/173 184/144/174 173/133/164
f 184/144/174 185/145/174 173/133/164
f 185/145/174 186/146/175 173/133/164
f 173/133/164 186/146/175 172/132/163
f 186/146/175 187/147/176 172/132/163
f 188/148/177 189/149/178 190/150/179
f 189/149/178 191/151/180 190/150/179
f 190/150/179 191/151/180 180/140/171
f 180/140/171 191/151/180 181/141/172
f 191/151/180 192/152/181 181/141/172
f 193/153/182 194/154/183 195/155/184
f 194/154/183 196/156/185 195/155/184
f 195/155/184 196/156/185 197/157/186
f 196/156/185 189/149/178 197/157/186
f 197/157/186 189/149/178 198/158/187
f 189/149/178 188/148/177 198/158/187
f 198/158/187 188/148/177 199/159/188
f 199/159/188 188/148/177 200/160/182
f 188/148/177 201/161/189 200/160/182
f 202/162/190 203/163/190 204/164/191
f 203/163/190 205/165/191 204/164/191
f 205/165/191 206/166/191 204/164/191
f 204/164/191 206/166/191 207/167/191
f 206/166/191 208/168/191 207/167/191
f 207/167/191 208/168/191 209/169/192
f 210/170/193 211/171/194 212/172/195
f 211/171/194 213/173/196 212/172/195
f 213/173/196 214/174/197 212/172/195
f 212/172/195 214/174/197 215/175/198
f 214/174/197 216/176/199 215/175/198
f 215/175/198 216/176/199 217/177/199
f 217/177/199 216/176/199 218/62/200
f 216/176/199 219/63/201 218/62/200
f 220/178/202 221/179/203 222/180/202
f 222/180/202 221/179/203 223/181/204
f 221/179/203 224/182/205 223/181/204
f 223/181/204 224/182/205 225/183/206
f 224/182/205 226/184/207 225/183/206
f 225/183/206 226/184/207 227/185/208
f 226/184/207 228/32/209 227/185/208
f 227/185/208 228/32/209 229/30/209
f 230/186/210 231/187/211 232/188/212
f 231/187/211 233/189/213 232/188/212
f 233/189/213 234/190/214 232/188/212
f 234/190/214 235/191/215 232/188/212
f 235/191/215 236/190/216 232/188/212
f 236/190/216 237/189/217 232/188/212
f 237/189/217 238/187/218 232/188/212
f 232/188/212 238/187/218 239/186/25
f 240/192/141 241/193/141 242/194/141
f 241/193/141 243/195/141 242/194/141
f 243/195/141 244/196/141 242/194/141
f 242/194/141 244/196/141 245/197/141
f 245/197/141 244/196/141 246/198/141
f 246/198/141 244/196/141 247/199/141
f 244/196/141 248/200/141 247/199/141
f 247/199/141 248/200/141 249/201/141
f 248/200/141 250/202/141 249/201/141
f 249/201/141 250/202/141 251/203/141
f 250/202/141 252/204/141 251/203/141
f 251/203/141 252/204/141 253/205/141
f 254/205/219 255/204/174 256/203/174
f 255/204/174 257/202/174 256/203/174
f 256/203/174 257/202/174 258/201/174
f 257/202/174 259/200/174 258/201/174
f 258/201/174 259/200/174 260/199/174
f 259/200/174 261/196/174 260/199/174
f 260/199/174 261/196/174 262/198/174
f 262/198/174 261/196/174 263/197/220
f 263/197/220 261/196/174 264/194/174
f 261/196/174 265/195/174 264/194/174
f 265/195/174 266/193/174 264/194/174
f 264/194/174 266/193/174 267/192/219
f 268/206/221 269/207/221 270/208/221
f 269/207/221 271/209/221 270/208/221
f 270/208/221 271/209/221 272/210/221
f 271/209/221 273/211/221 272/210/221
f 272/210/221 273/211/221 274/212/221
f 273/211/221 275/213/221 274/212/221
f 274/212/221 275/213/221 276/214/221
f 275/213/221 277/215/221 276/214/221
f 276/214/221 277/215/221 278/216/221
f 277/215/221 279/217/221 278/216/221
f 278/216/221 279/217/221 280/218/221
f 279/217/221 281/219/221 280/218/221
f 280/218/221 281/219/221 282/220/221
f 281/219/221 283/221/221 282/220/221
f 282/220/221 283/221/221 284/222/221
f 283/221/221 285/223/221 284/222/221
f 286/41/222 287/42/223 288/40/224
f 287/42/223 289/38/225 288/40/224
f 288/40/224 289/38/225 290/39/226
f 289/38/225 291/37/227 290/39/226
f 290/39/226 291/37/227 292/59/228
f 291/37/227 293/58/229 292/59/228
f 292/59/228 293/58/229 294/57/230
f 293/58/229 295/55/231 294/57/230
f 294/57/230 295/55/231 296/224/232
f 296/224/232 295/55/231 297/54/233
f 295/55/231 298/51/234 297/54/233
f 297/54/233 298/51/234 299/53/235
f 298/51/234 300/49/236 299/53/235
f 299/53/235 300/49/236 301/52/237
f 287/42/223 302/43/238 289/38/225
f 289/38/225 302/43/238 303/44/239
f 302/43/238 304/46/240 303/44/239
f 304/46/240 305/47/241 303/44/239
f 303/44/239 305/47/241 306/45/242
f 305/47/241 307/48/243 306/45/242
f 306/45/242 307/48/243 308/225/244
f 307/48/243 300/49/236 308/225/244
f 300/49/236 298/51/234 308/225/244
f 298/51/234 295/55/231 308/225/244
f 295/55/231 293/58/229 308/225/244
f 308/225/244 293/58/229 306/45/242
f 293/58/229 291/37/227 306/45/242
f 306/45/242 291/37/227 303/44/239
f 291/37/227 289/38/225 303/44/239
f 309/226/245 310/166/191 311/227/245
f 310/166/191 312/165/191 311/227/245
f 311/227/245 312/165/191 313/228/191
f 312/165/191 314/163/191 313/228/191
f 313/228/191 314/163/191 315/229/191
f 314/163/191 316/162/245 315/229/191
f 315/229/191 316/162/245 317/230/191
f 316/162/245 318/164/191 317/230/191
f 317/230/191 318/164/191 319/231/191
f 318/164/191 320/167/90 319/231/191
f 319/231/191 320/167/90 321/232/191
f 320/167/90 322/169/191 321/232/191
f 321/232/191 322/169/191 323/233/246
f 322/169/191 324/168/246 323/233/246
f 323/233/246 324/168/246 309/226/245
f 324/168/246 310/166/191 309/226/245
f 325/234/247 326/235/247 327/236/248
f 326/235/247 328/237/249 327/236/248
f 327/236/248 328/237/249 329/238/250
f 328/237/249 330/239/251 329/238/250
f 329/238/250 330/239/251 331/240/252
f 330/239/251 332/241/253 331/240/252
f 331/240/252 332/241/253 333/242/254
f 332/241/253 334/243/255 333/242/254
f 333/242/254 334/243/255 335/244/256
f 334/243/255 336/245/257 335/244/256
f 335/244/256 336/245/257 337/242/258
f 336/245/257 338/243/259 337/242/258
f 337/242/258 338/243/259 339/240/260
f 338/243/259 340/241/261 339/240/260
f 339/240/260 340/241/261 341/238/262
f 340/241/261 342/239/263 341/238/262
f 341/238/262 342/239/263 343/236/264
f 342/239/263 344/237/265 343/236/264
f 343/236/264 344/237/265 345/234/266
f 344/237/265 346/235/266 345/234/266
f 347/235/267 348/246/268 349/237/19
f 348/246/268 350/247/269 349/237/19
f 349/237/19 350/247/269 351/239/270
f 350/247/269 352/248/269 351/239/270
f 351/239/270 352/248/269 353/241/269
f 352/248/269 354/249/269 353/241/269
f 353/241/269 354/249/269 355/243/270
f 354/249/269 356/250/270 355/243/270
f 355/243/270 356/250/270 357/245/270
f 356/250/270 358/251/270 357/245/270
f 357/245/270 358/251/270 359/243/270
f 358/251/270 360/250/270 359/243/270
f 359/243/270 360/250/270 361/241/270
f 360/250/270 362/249/270 361/241/270
f 361/241/270 362/249/270 363/239/270
f 362/249/270 364/248/270 363/239/270
f 363/239/270 364/248/270 365/237/269
f 364/248/270 366/247/268 365/237/269
f 365/237/269 366/247/268 367/235/19
f 366/247/268 368/246/19 367/235/19
f 369/252/271 370/253/272 371/254/22
f 370/253/272 372/255/273 371/254/22
f 371/254/22 372/255/273 373/256/274
f 372/255/273 374/257/275 373/256/274
f 373/256/274 374/257/275 375/258/276
f 374/257/275 376/259/277 375/258/276
f 376/259/277 377/260/278 375/258/276
f 377/260/278 378/261/279 375/258/276
f 375/258/276 378/261/279 379/262/280
f 379/262/280 378/261/279 380/263/281
f 378/261/279 381/264/282 380/263/281
f 381/264/282 382/261/283 380/263/281
f 380/263/281 382/261/283 383/262/284
f 383/262/284 382/261/283 384/258/285
f 382/261/283 385/260/286 384/258/285
f 385/260/286 386/259/287 384/258/285
f 386/259/287 387/257/288 384/258/285
f 384/258/285 387/257/288 388/256/289
f 387/257/288 389/255/290 388/256/289
f 388/256/289 389/255/290 390/254/291
f 389/255/290 391/265/292 390/254/291
f 390/254/291 391/265/292 369/252/293
f 392/266/190 393/78/294 394/234/294
f 393/78/294 395/98/295 394/234/294
f 394/234/294 395/98/295 396/236/295
f 395/98/295 397/100/296 396/236/295
f 396/236/295 397/100/296 398/238/295
f 397/100/296 399/102/295 398/238/295
f 398/238/295 399/102/295 400/240/295
f 399/102/295 401/104/294 400/240/295
f 400/240/295 401/104/294 402/242/294
f 401/104/294 403/106/294 402/242/294
f 402/242/294 403/106/294 404/244/294
f 403/106/294 405/108/297 404/244/294
f 404/244/294 405/108/297 406/242/294
f 405/108/297 407/106/298 406/242/294
f 406/242/294 407/106/298 408/240/298
f 407/106/298 409/104/299 408/240/298
f 408/240/298 409/104/299 410/238/299
f 409/104/299 411/102/299 410/238/299
f 410/238/299 411/102/299 412/236/300
f 411/102/299 413/100/299 412/236/300
f 412/236/300 413/100/299 414/234/301
f 413/100/299 415/98/298 414/234/301
f 414/234/301 415/98/298 416/267/298
f 415/98/298 417/74/294 416/267/298
